<svg width="16" height="16" fill="none" xmlns="http://www.w3.org/2000/svg"><path d="M8 12.767a.737.737 0 0 1-.541-.226.737.737 0 0 1-.226-.541V8.767H4a.737.737 0 0 1-.541-.226A.737.737 0 0 1 3.233 8c0-.211.075-.392.226-.541.15-.15.33-.226.541-.226h3.233V4c0-.211.075-.392.226-.542.15-.15.33-.225.541-.225.211 0 .392.075.541.225.15.15.226.33.226.542v3.233H12c.211 0 .392.075.541.226.15.15.226.33.226.54a.737.737 0 0 1-.226.542.737.737 0 0 1-.541.226H8.767V12a.737.737 0 0 1-.226.541.737.737 0 0 1-.541.226Z" fill="currentColor"/></svg>