<svg width="28" height="28" fill="none" xmlns="http://www.w3.org/2000/svg"><path d="M14 22.342a1.29 1.29 0 0 1-.947-.395 1.29 1.29 0 0 1-.395-.947v-5.658H7a1.29 1.29 0 0 1-.947-.395A1.29 1.29 0 0 1 5.658 14c0-.37.132-.685.395-.947A1.29 1.29 0 0 1 7 12.658h5.658V7c0-.37.132-.686.395-.949.262-.262.577-.393.947-.393s.685.131.947.393c.263.263.395.58.395.949v5.658H21c.37 0 .685.132.947.395.263.262.395.577.395.947s-.132.685-.395.947a1.29 1.29 0 0 1-.947.395h-5.658V21c0 .37-.132.685-.395.947a1.29 1.29 0 0 1-.947.395Z" fill="currentColor"/></svg>