<svg width="24" height="24" fill="none" xmlns="http://www.w3.org/2000/svg"><path d="M12 19.15c-.317 0-.587-.113-.812-.338A1.105 1.105 0 0 1 10.85 18v-4.85H6c-.317 0-.587-.113-.812-.338A1.105 1.105 0 0 1 4.85 12c0-.317.113-.587.338-.812.225-.225.495-.338.812-.338h4.85V6c0-.317.113-.588.338-.813.225-.225.495-.337.812-.337.317 0 .587.112.812.337.225.225.338.496.338.813v4.85H18c.317 0 .587.113.812.338.225.225.338.495.338.812 0 .317-.113.587-.338.812a1.105 1.105 0 0 1-.812.338h-4.85V18c0 .317-.113.587-.338.812a1.105 1.105 0 0 1-.812.338Z" fill="currentColor"/></svg>