<svg width="16" height="16" fill="none" xmlns="http://www.w3.org/2000/svg"><path d="M2 14.667c-.367 0-.68-.13-.941-.392a1.284 1.284 0 0 1-.392-.942v-8c0-.366.13-.68.392-.941A1.28 1.28 0 0 1 2 4h2.1l.833-.9a1.34 1.34 0 0 1 .984-.433h2.75c.189 0 .347.063.475.191a.647.647 0 0 1 .191.475v1.334c0 .189.064.347.192.475a.645.645 0 0 0 .475.191h1.333v1.334a.64.64 0 0 0 .192.474.644.644 0 0 0 .475.192h1.333c.19 0 .347.064.475.192A.646.646 0 0 1 14 8v5.333c0 .367-.13.681-.391.942a1.288 1.288 0 0 1-.942.392H2Zm5.333-2.334c.834 0 1.542-.291 2.126-.874a2.895 2.895 0 0 0 .874-2.126c0-.833-.291-1.541-.874-2.125a2.895 2.895 0 0 0-2.126-.875c-.833 0-1.541.292-2.125.875a2.895 2.895 0 0 0-.875 2.125c0 .834.292 1.542.875 2.126a2.894 2.894 0 0 0 2.125.874ZM12.667 4H12a.645.645 0 0 1-.475-.191.646.646 0 0 1-.192-.476c0-.189.064-.347.192-.475A.645.645 0 0 1 12 2.667h.667V2c0-.189.064-.347.192-.475a.644.644 0 0 1 .474-.192c.19 0 .347.064.475.192A.646.646 0 0 1 14 2v.667h.667c.188 0 .347.063.474.191a.646.646 0 0 1 .192.475.646.646 0 0 1-.192.476.644.644 0 0 1-.474.191H14v.667a.646.646 0 0 1-.192.475.645.645 0 0 1-.475.191.644.644 0 0 1-.474-.191.646.646 0 0 1-.192-.475V4Z" fill="currentColor"/></svg>