<svg width="28" height="28" fill="none" xmlns="http://www.w3.org/2000/svg"><path d="M3.5 25.667c-.642 0-1.19-.229-1.647-.685a2.248 2.248 0 0 1-.686-1.649v-14c0-.641.228-1.19.686-1.647A2.244 2.244 0 0 1 3.5 7h3.675l1.458-1.575a2.345 2.345 0 0 1 1.721-.758h4.813c.33 0 .607.111.832.334.223.224.334.502.334.832v2.334c0 .33.112.607.336.831.223.224.5.335.831.335h2.333v2.334c0 .33.112.607.336.83.223.224.5.336.831.336h2.333c.33 0 .608.112.831.335.224.224.336.501.336.832v9.333a2.25 2.25 0 0 1-.685 1.649 2.25 2.25 0 0 1-1.648.685H3.5Zm9.333-4.084c1.459 0 2.698-.51 3.72-1.53 1.02-1.022 1.53-2.261 1.53-3.72 0-1.458-.51-2.698-1.53-3.719-1.022-1.02-2.261-1.53-3.72-1.53-1.458 0-2.698.51-3.719 1.53-1.02 1.021-1.53 2.261-1.53 3.72 0 1.458.51 2.697 1.53 3.719 1.021 1.02 2.261 1.53 3.72 1.53ZM22.167 7H21c-.33 0-.608-.112-.83-.335a1.13 1.13 0 0 1-.337-.832c0-.33.112-.608.336-.832.223-.223.5-.334.831-.334h1.167V3.5c0-.33.112-.608.336-.832.223-.223.5-.335.83-.335.33 0 .608.112.831.335.224.224.336.501.336.832v1.167h1.167c.33 0 .607.111.83.334.224.224.336.502.336.832 0 .33-.112.608-.336.832-.223.223-.5.335-.83.335H24.5v1.167c0 .33-.112.607-.336.831-.223.224-.5.335-.83.335-.331 0-.608-.111-.831-.335a1.13 1.13 0 0 1-.336-.831V7Z" fill="currentColor"/></svg>