<svg width="16" height="16" fill="none" xmlns="http://www.w3.org/2000/svg"><path d="M11.333 7.272c.227 0 .447.026.667.06v-2.34a1.32 1.32 0 0 0-.8-1.22l-3.667-1.6a1.348 1.348 0 0 0-1.066 0L2.8 3.772c-.487.213-.8.693-.8 1.22v2.4c0 3.026 2.133 5.86 5 6.546.367-.086.72-.213 1.067-.366a3.985 3.985 0 0 1-.734-2.3c0-2.207 1.794-4 4-4Z" fill="currentColor"/><path d="M11.333 8.605a2.666 2.666 0 1 0 0 5.333 2.666 2.666 0 1 0 0-5.333Zm0 .92a.75.75 0 0 1 .747.747c0 .406-.34.746-.747.746a.754.754 0 0 1-.746-.746.75.75 0 0 1 .746-.747Zm0 3.58c-.62 0-1.16-.307-1.493-.78.033-.48 1.007-.72 1.493-.72.487 0 1.46.24 1.494.72a1.82 1.82 0 0 1-1.494.78Z" fill="currentColor"/></svg>