<svg width="28" height="28" fill="none" xmlns="http://www.w3.org/2000/svg"><path d="M19.833 12.725c.397 0 .782.047 1.167.105V8.735A2.31 2.31 0 0 0 19.6 6.6l-6.417-2.8a2.359 2.359 0 0 0-1.866 0L4.9 6.6a2.335 2.335 0 0 0-1.4 2.135v4.2c0 5.297 3.733 10.255 8.75 11.457a10.7 10.7 0 0 0 1.867-.642 6.975 6.975 0 0 1-1.284-4.025c0-3.861 3.139-7 7-7Z" fill="currentColor"/><path d="M19.833 15.059a4.665 4.665 0 0 0-4.666 4.666 4.665 4.665 0 0 0 4.666 4.667 4.665 4.665 0 0 0 4.667-4.667 4.665 4.665 0 0 0-4.667-4.666Zm0 1.61c.724 0 1.307.595 1.307 1.306a1.32 1.32 0 0 1-1.307 1.307 1.32 1.32 0 0 1-1.306-1.307c0-.711.583-1.306 1.306-1.306Zm0 6.265a3.178 3.178 0 0 1-2.613-1.365c.058-.84 1.762-1.26 2.613-1.26.852 0 2.555.42 2.614 1.26a3.179 3.179 0 0 1-2.614 1.365Z" fill="currentColor"/></svg>