<svg width="24" height="24" fill="none" xmlns="http://www.w3.org/2000/svg"><path d="M12.857 19.32c-1.131 1.13-2.483 1.693-4.056 1.687-1.574-.005-2.92-.568-4.04-1.688-1.131-1.131-1.7-2.483-1.706-4.057-.006-1.573.557-2.925 1.688-4.057L12.24 3.71c.813-.813 1.8-1.217 2.96-1.211 1.161.006 2.149.415 2.962 1.229.813.813 1.22 1.797 1.22 2.952s-.407 2.139-1.22 2.952l-6.753 6.753c-.519.518-1.14.78-1.865.787a2.515 2.515 0 0 1-1.865-.77c-.53-.53-.793-1.157-.787-1.882a2.574 2.574 0 0 1 .787-1.865l6.152-6.152a.841.841 0 0 1 .591-.257c.23-.005.434.08.61.257a.78.78 0 0 1 .24.593.841.841 0 0 1-.257.591L8.862 13.84a.918.918 0 0 0-.283.672c0 .26.1.49.3.69a.918.918 0 0 0 .673.282.914.914 0 0 0 .671-.283l6.753-6.752c.495-.495.743-1.085.743-1.768 0-.684-.248-1.273-.743-1.768-.495-.495-1.084-.742-1.767-.742-.684 0-1.273.247-1.768.742l-7.496 7.495c-.79.79-1.184 1.744-1.184 2.864 0 1.12.395 2.074 1.184 2.864.79.79 1.742 1.181 2.856 1.175 1.113-.005 2.065-.403 2.854-1.193l6.895-6.894a.818.818 0 0 1 .6-.248.82.82 0 0 1 .602.248.81.81 0 0 1 .256.61.84.84 0 0 1-.256.592l-6.895 6.894Z" fill="currentColor"/></svg>