<svg width="28" height="28" fill="none" xmlns="http://www.w3.org/2000/svg"><path d="M15 22.54c-1.32 1.32-2.897 1.976-4.732 1.969-1.836-.007-3.407-.663-4.714-1.97-1.32-1.32-1.983-2.898-1.99-4.733-.006-1.836.65-3.413 1.97-4.733l8.744-8.745c.95-.948 2.1-1.42 3.455-1.413 1.354.007 2.506.485 3.454 1.434.95.949 1.423 2.097 1.423 3.444 0 1.348-.474 2.496-1.423 3.444l-7.878 7.879a3.006 3.006 0 0 1-2.175.918c-.846.007-1.572-.293-2.177-.898-.618-.618-.924-1.35-.917-2.196a3.004 3.004 0 0 1 .917-2.176l7.178-7.177a.981.981 0 0 1 .69-.3.943.943 0 0 1 .712.3.91.91 0 0 1 .279.691.981.981 0 0 1-.3.69l-7.177 7.178c-.22.22-.33.481-.33.784 0 .302.117.57.35.804.22.22.482.33.785.33.302 0 .563-.11.783-.33l7.879-7.878c.577-.578.866-1.265.866-2.063 0-.797-.289-1.485-.866-2.062-.578-.578-1.265-.866-2.063-.866-.797 0-1.485.288-2.062.866l-8.745 8.744c-.92.922-1.382 2.035-1.382 3.34 0 1.307.461 2.421 1.382 3.342.921.922 2.032 1.379 3.332 1.372 1.298-.007 2.409-.47 3.33-1.392l8.043-8.043a.955.955 0 0 1 .701-.29c.275 0 .51.097.702.29a.94.94 0 0 1 .298.71.98.98 0 0 1-.298.692L15 22.539Z" fill="currentColor"/></svg>