<svg width="16" height="16" fill="none" xmlns="http://www.w3.org/2000/svg"><path d="M8.572 12.88c-.755.754-1.656 1.129-2.705 1.125a3.697 3.697 0 0 1-2.693-1.125c-.754-.755-1.133-1.656-1.137-2.705-.004-1.05.371-1.95 1.125-2.705L8.16 2.473a2.668 2.668 0 0 1 1.974-.807 2.71 2.71 0 0 1 1.974.82 2.68 2.68 0 0 1 .813 1.967 2.68 2.68 0 0 1-.813 1.968l-4.502 4.502a1.72 1.72 0 0 1-1.243.525 1.676 1.676 0 0 1-1.243-.513 1.694 1.694 0 0 1-.525-1.255c.004-.483.179-.898.525-1.243l4.1-4.102a.56.56 0 0 1 .395-.17.539.539 0 0 1 .407.17.52.52 0 0 1 .16.395.561.561 0 0 1-.172.395l-4.1 4.101a.612.612 0 0 0-.19.448c0 .173.067.326.2.46a.612.612 0 0 0 .449.188.612.612 0 0 0 .448-.188l4.502-4.502c.33-.33.495-.723.495-1.179a1.61 1.61 0 0 0-.495-1.178 1.61 1.61 0 0 0-1.179-.495 1.61 1.61 0 0 0-1.179.495L3.964 8.272a2.6 2.6 0 0 0-.79 1.908 2.6 2.6 0 0 0 .79 1.91c.526.526 1.16.787 1.903.784a2.614 2.614 0 0 0 1.903-.796l4.596-4.596a.545.545 0 0 1 .401-.165c.157 0 .29.055.4.165a.56.56 0 0 1 0 .801L8.573 12.88Z" fill="currentColor"/></svg>