<svg width="16" height="16" fill="none" xmlns="http://www.w3.org/2000/svg"><path d="m8 9.067-3.2 3.2a.725.725 0 0 1-.533.216.725.725 0 0 1-.534-.216.725.725 0 0 1-.216-.534c0-.21.072-.389.216-.533l3.2-3.2-3.2-3.2a.725.725 0 0 1-.216-.533c0-.211.072-.39.216-.534a.725.725 0 0 1 .534-.216c.21 0 .389.072.533.216l3.2 3.2 3.2-3.2a.725.725 0 0 1 .533-.216c.211 0 .39.072.534.216a.725.725 0 0 1 .216.534.725.725 0 0 1-.216.533L9.067 8l3.2 3.2a.725.725 0 0 1 .216.533.725.725 0 0 1-.216.534.725.725 0 0 1-.534.216.725.725 0 0 1-.533-.216L8 9.067Z" fill="currentColor"/></svg>