<svg width="28" height="28" fill="none" xmlns="http://www.w3.org/2000/svg"><path d="m14 15.867-4.667 4.666c-.253.253-.564.38-.933.38-.37 0-.68-.127-.933-.38a1.268 1.268 0 0 1-.38-.933c0-.37.127-.68.38-.933L12.133 14 7.467 9.333a1.268 1.268 0 0 1-.38-.933c0-.37.127-.68.38-.933s.564-.38.933-.38c.37 0 .68.127.933.38L14 12.133l4.667-4.666c.252-.253.563-.38.933-.38.37 0 .68.127.933.38s.38.564.38.933c0 .37-.127.68-.38.933L15.867 14l4.667 4.667c.252.252.379.563.379.933 0 .37-.127.68-.38.933-.252.253-.563.38-.933.38-.37 0-.68-.127-.933-.38L14 15.867Z" fill="currentColor"/></svg>