<svg width="24" height="24" fill="none" xmlns="http://www.w3.org/2000/svg"><path d="m12 13.6-4 4a1.087 1.087 0 0 1-.8.325c-.317 0-.583-.108-.8-.325a1.087 1.087 0 0 1-.325-.8c0-.317.108-.584.325-.8l4-4-4-4a1.087 1.087 0 0 1-.325-.8c0-.317.108-.583.325-.8.217-.217.483-.325.8-.325.317 0 .583.108.8.325l4 4 4-4c.217-.217.483-.325.8-.325.317 0 .583.108.8.325.217.217.325.483.325.8 0 .317-.108.583-.325.8l-4 4 4 4c.217.216.325.483.325.8 0 .316-.108.583-.325.8a1.087 1.087 0 0 1-.8.325c-.317 0-.583-.108-.8-.325l-4-4Z" fill="currentColor"/></svg>