<svg width="16" height="16" fill="none" xmlns="http://www.w3.org/2000/svg"><path d="m8 9.067-2.667 2.666a.725.725 0 0 1-.533.217.725.725 0 0 1-.533-.217.725.725 0 0 1-.217-.533c0-.211.072-.389.217-.533L6.933 8 4.267 5.333A.725.725 0 0 1 4.05 4.8c0-.211.072-.389.217-.533A.725.725 0 0 1 4.8 4.05c.211 0 .389.072.533.217L8 6.933l2.667-2.666a.725.725 0 0 1 .533-.217c.211 0 .389.072.533.217a.725.725 0 0 1 .217.533.725.725 0 0 1-.217.533L9.067 8l2.666 2.667a.725.725 0 0 1 .217.533.725.725 0 0 1-.216.533.725.725 0 0 1-.534.217.725.725 0 0 1-.533-.217L8 9.067Z" fill="currentColor"/></svg>