<svg width="28" height="28" fill="none" xmlns="http://www.w3.org/2000/svg"><path d="m14 15.867-5.6 5.6a1.268 1.268 0 0 1-.933.379c-.37 0-.68-.127-.934-.38a1.269 1.269 0 0 1-.379-.933c0-.37.127-.68.38-.933l5.6-5.6-5.6-5.6a1.268 1.268 0 0 1-.38-.933c0-.37.127-.68.38-.934.252-.252.563-.379.933-.379.37 0 .68.127.933.38l5.6 5.6 5.6-5.6c.253-.253.564-.38.933-.38.37 0 .68.127.934.38.253.252.379.563.379.933 0 .37-.127.68-.38.933l-5.6 5.6 5.6 5.6c.253.253.38.564.38.933 0 .37-.127.68-.38.934a1.265 1.265 0 0 1-.933.379c-.37 0-.68-.127-.933-.38l-5.6-5.6Z" fill="currentColor"/></svg>