<svg width="28" height="28" fill="none" xmlns="http://www.w3.org/2000/svg"><path d="M10.5 21c-.642 0-1.19-.228-1.647-.685a2.248 2.248 0 0 1-.686-1.648v-14c0-.642.228-1.191.686-1.649a2.246 2.246 0 0 1 1.647-.685H21a2.25 2.25 0 0 1 1.648.685 2.25 2.25 0 0 1 .685 1.649v14a2.25 2.25 0 0 1-.684 1.648A2.25 2.25 0 0 1 21 21H10.5Zm-4.667 4.667a2.25 2.25 0 0 1-1.648-.685 2.25 2.25 0 0 1-.685-1.649V8.167c0-.33.112-.608.336-.832.223-.223.5-.335.83-.335.331 0 .608.112.832.335.224.224.335.501.335.832v15.166H17.5c.33 0 .608.112.832.336.223.224.335.5.335.831 0 .33-.112.608-.335.83a1.13 1.13 0 0 1-.832.337H5.833Z" fill="currentColor"/></svg>