<svg width="28" height="28" fill="none" xmlns="http://www.w3.org/2000/svg"><path d="M22.167 4.667H21V3.5a1.17 1.17 0 0 0-1.167-1.167A1.17 1.17 0 0 0 18.667 3.5v1.167H9.333V3.5a1.17 1.17 0 0 0-1.166-1.167A1.17 1.17 0 0 0 7 3.5v1.167H5.833A2.323 2.323 0 0 0 3.512 7L3.5 23.333a2.333 2.333 0 0 0 2.333 2.334h16.334a2.34 2.34 0 0 0 2.333-2.334V7a2.34 2.34 0 0 0-2.333-2.333Zm0 17.5A1.17 1.17 0 0 1 21 23.333H7a1.17 1.17 0 0 1-1.167-1.166V10.5h16.334v11.667Zm-14-9.334H10.5v2.334H8.167v-2.334Zm4.666 0h2.334v2.334h-2.334v-2.334Zm4.667 0h2.333v2.334H17.5v-2.334Z" fill="currentColor"/></svg>