<svg width="16" height="16" fill="none" xmlns="http://www.w3.org/2000/svg"><path d="M12.667 2.667H12V2c0-.367-.3-.667-.667-.667-.366 0-.666.3-.666.667v.667H5.333V2c0-.367-.3-.667-.666-.667C4.3 1.333 4 1.633 4 2v.667h-.667c-.74 0-1.326.6-1.326 1.333L2 13.333c0 .734.593 1.334 1.333 1.334h9.334c.733 0 1.333-.6 1.333-1.334V4c0-.733-.6-1.333-1.333-1.333Zm0 10c0 .366-.3.666-.667.666H4a.669.669 0 0 1-.667-.666V6h9.334v6.667Zm-8-5.334H6v1.334H4.667V7.333Zm2.666 0h1.334v1.334H7.333V7.333Zm2.667 0h1.333v1.334H10V7.333Z" fill="currentColor"/></svg>