<svg width="16" height="16" fill="none" xmlns="http://www.w3.org/2000/svg"><path d="M9.727 1.727a1.337 1.337 0 0 0-.947-.394H4c-.733 0-1.333.6-1.333 1.334v10.666c0 .734.593 1.334 1.326 1.334H12c.733 0 1.333-.6 1.333-1.334V5.887c0-.354-.14-.694-.393-.94l-3.213-3.22ZM10 12H6a.669.669 0 0 1-.667-.667c0-.366.3-.666.667-.666h4c.367 0 .667.3.667.666 0 .367-.3.667-.667.667Zm0-2.667H6a.669.669 0 0 1-.667-.666C5.333 8.3 5.633 8 6 8h4c.367 0 .667.3.667.667 0 .366-.3.666-.667.666Zm-1.333-4v-3L12.333 6h-3a.669.669 0 0 1-.666-.667Z" fill="currentColor"/></svg>