<svg width="28" height="28" fill="none" xmlns="http://www.w3.org/2000/svg"><path d="M17.022 3.022a2.34 2.34 0 0 0-1.657-.689H7a2.34 2.34 0 0 0-2.333 2.334v18.666a2.33 2.33 0 0 0 2.321 2.334H21a2.34 2.34 0 0 0 2.333-2.334V10.302c0-.619-.245-1.214-.688-1.645l-5.623-5.635ZM17.5 21h-7a1.17 1.17 0 0 1-1.167-1.167 1.17 1.17 0 0 1 1.167-1.166h7a1.17 1.17 0 0 1 1.167 1.166A1.17 1.17 0 0 1 17.5 21Zm0-4.667h-7a1.17 1.17 0 0 1-1.167-1.166A1.17 1.17 0 0 1 10.5 14h7a1.17 1.17 0 0 1 1.167 1.167 1.17 1.17 0 0 1-1.167 1.166Zm-2.333-7v-5.25l6.416 6.417h-5.25a1.17 1.17 0 0 1-1.166-1.167Z" fill="currentColor"/></svg>