<svg width="28" height="28" fill="none" xmlns="http://www.w3.org/2000/svg"><path d="M14 17.908a1.4 1.4 0 0 1-.496-.087 1.234 1.234 0 0 1-.437-.292l-4.288-4.287a1.269 1.269 0 0 1-.379-.934c0-.37.126-.68.38-.933.233-.233.539-.355.917-.364.38-.01.696.102.949.335l2.012 2.041v-8.05c0-.369.132-.68.395-.933.262-.253.578-.379.947-.379.37 0 .685.126.947.38.263.252.395.563.395.933v8.05l2.012-2.042c.253-.233.57-.345.949-.335.378.01.684.13.918.364.253.253.379.564.379.933 0 .37-.126.68-.38.934l-4.287 4.287a1.234 1.234 0 0 1-.437.292 1.4 1.4 0 0 1-.496.087Zm-7.146 5.863a2.558 2.558 0 0 1-1.88-.774 2.558 2.558 0 0 1-.774-1.88V18.52c0-.37.131-.68.394-.934.262-.252.578-.379.948-.379s.68.127.933.38c.253.252.38.563.38.933v2.596h14.262V18.52c0-.37.131-.68.394-.934.262-.252.578-.379.947-.379.37 0 .68.127.934.38.253.252.379.563.379.933v2.596c0 .739-.258 1.366-.774 1.88a2.558 2.558 0 0 1-1.88.774H6.854Z" fill="currentColor"/></svg>