<svg width="24" height="24" fill="none" xmlns="http://www.w3.org/2000/svg"><path d="M12 15.35a1.2 1.2 0 0 1-.425-.075 1.057 1.057 0 0 1-.375-.25L7.525 11.35a1.087 1.087 0 0 1-.325-.8c0-.317.108-.583.325-.8.2-.2.462-.304.787-.312.325-.009.596.087.813.287l1.725 1.75v-6.9c0-.317.113-.583.338-.8.225-.217.495-.325.812-.325.317 0 .587.108.812.325.225.217.338.483.338.8v6.9l1.725-1.75c.217-.2.488-.296.813-.287.325.008.587.112.787.312.217.217.325.483.325.8 0 .317-.108.583-.325.8L12.8 15.025c-.117.117-.242.2-.375.25a1.2 1.2 0 0 1-.425.075Zm-6.125 5.025c-.633 0-1.17-.221-1.612-.663A2.192 2.192 0 0 1 3.6 18.1v-2.225c0-.317.113-.583.338-.8.225-.217.495-.325.812-.325.317 0 .583.108.8.325.217.217.325.483.325.8V18.1H18.1v-2.225c0-.317.113-.583.338-.8.225-.217.495-.325.812-.325.317 0 .583.108.8.325.217.217.325.483.325.8V18.1c0 .633-.221 1.17-.663 1.612a2.192 2.192 0 0 1-1.612.663H5.875Z" fill="currentColor"/></svg>