<svg width="16" height="16" fill="none" xmlns="http://www.w3.org/2000/svg"><path d="M8 10.233a.705.705 0 0 1-.533-.217l-2.45-2.45a.725.725 0 0 1-.217-.533c0-.21.072-.389.217-.533a.737.737 0 0 1 .524-.208.738.738 0 0 1 .542.191l1.15 1.167v-4.6a.71.71 0 0 1 .226-.533A.752.752 0 0 1 8 2.3c.211 0 .392.072.541.217a.71.71 0 0 1 .226.533v4.6l1.15-1.167a.738.738 0 0 1 .542-.191.725.725 0 0 1 .741.741.725.725 0 0 1-.217.534l-2.45 2.45a.705.705 0 0 1-.533.216Zm-4.083 3.35a1.46 1.46 0 0 1-1.075-.442 1.461 1.461 0 0 1-.442-1.074v-1.484a.71.71 0 0 1 .225-.533.752.752 0 0 1 .542-.217c.21 0 .389.073.533.217a.725.725 0 0 1 .217.533v1.484h8.15v-1.484a.71.71 0 0 1 .225-.533.752.752 0 0 1 .541-.217c.211 0 .39.073.534.217a.725.725 0 0 1 .216.533v1.484c0 .422-.147.78-.442 1.074a1.461 1.461 0 0 1-1.074.442h-8.15Z" fill="currentColor"/></svg>