<svg width="24" height="24" fill="none" xmlns="http://www.w3.org/2000/svg"><path d="M15.45 11.05c.45 0 .82-.146 1.112-.438.292-.291.438-.662.438-1.112 0-.45-.146-.821-.438-1.113-.291-.291-.662-.437-1.112-.437-.45 0-.82.146-1.112.437-.292.292-.438.663-.438 1.113 0 .45.146.82.438 1.112.291.292.662.438 1.112.438Zm-6.9 0c.45 0 .821-.146 1.113-.438.291-.291.437-.662.437-1.112 0-.45-.146-.821-.437-1.113C9.371 8.096 9 7.95 8.55 7.95c-.45 0-.82.146-1.112.437C7.146 8.679 7 9.05 7 9.5c0 .45.146.82.438 1.112.291.292.662.438 1.112.438ZM12 17.5a5.32 5.32 0 0 0 2.562-.625c.775-.417 1.38-.933 1.813-1.55.217-.317.25-.617.1-.9a.742.742 0 0 0-.7-.425.768.768 0 0 0-.375.113 1.145 1.145 0 0 0-.325.262 3.85 3.85 0 0 1-1.312 1.113A3.746 3.746 0 0 1 12 15.9a3.74 3.74 0 0 1-1.762-.412 3.856 3.856 0 0 1-1.313-1.113 1.1 1.1 0 0 0-.337-.262A.841.841 0 0 0 8.2 14c-.3 0-.525.137-.675.412-.15.275-.117.571.1.888.433.633 1.038 1.158 1.813 1.575A5.322 5.322 0 0 0 12 17.5Zm0 4.7a10 10 0 0 1-3.988-.8 10.246 10.246 0 0 1-3.237-2.175A10.248 10.248 0 0 1 2.6 15.988 9.999 9.999 0 0 1 1.8 12c0-1.417.267-2.746.8-3.988a10.247 10.247 0 0 1 2.175-3.237A10.247 10.247 0 0 1 8.012 2.6 9.999 9.999 0 0 1 12 1.8c1.417 0 2.746.267 3.988.8a10.248 10.248 0 0 1 3.237 2.175A10.246 10.246 0 0 1 21.4 8.012 10 10 0 0 1 22.2 12a10 10 0 0 1-.8 3.988 10.247 10.247 0 0 1-2.175 3.237 10.247 10.247 0 0 1-3.237 2.175 10 10 0 0 1-3.988.8Zm0-2.275c2.2 0 4.071-.77 5.613-2.312 1.541-1.542 2.312-3.413 2.312-5.613 0-2.2-.77-4.071-2.312-5.613C16.071 4.846 14.2 4.075 12 4.075c-2.2 0-4.07.77-5.612 2.312C4.846 7.929 4.075 9.8 4.075 12c0 2.2.771 4.071 2.313 5.613C7.929 19.154 9.8 19.925 12 19.925Z" fill="currentColor"/></svg>