<svg width="28" height="28" fill="none" xmlns="http://www.w3.org/2000/svg"><path d="M18.025 12.892c.525 0 .958-.17 1.297-.511.341-.34.511-.773.511-1.298s-.17-.957-.51-1.298c-.34-.34-.773-.51-1.298-.51s-.957.17-1.297.51c-.341.34-.511.773-.511 1.298s.17.958.51 1.298c.34.34.773.51 1.298.51Zm-8.05 0c.525 0 .958-.17 1.299-.511.34-.34.51-.773.51-1.298s-.17-.957-.51-1.298c-.341-.34-.774-.51-1.299-.51-.525 0-.957.17-1.297.51-.341.34-.511.773-.511 1.298s.17.958.51 1.298c.34.34.773.51 1.298.51ZM14 20.417c1.206 0 2.285-.292 3.238-.875a6.617 6.617 0 0 0 2.274-2.305c.156-.252.166-.48.03-.684-.136-.205-.36-.307-.671-.307H9.129c-.31 0-.535.102-.67.307-.137.203-.127.432.029.684a6.617 6.617 0 0 0 2.274 2.305c.953.583 2.032.875 3.238.875Zm0 5.483c-1.653 0-3.204-.311-4.653-.933a11.953 11.953 0 0 1-3.776-2.538 11.953 11.953 0 0 1-2.538-3.776c-.622-1.45-.933-3-.933-4.653 0-1.653.311-3.204.933-4.653a11.955 11.955 0 0 1 2.538-3.776 11.955 11.955 0 0 1 3.776-2.538c1.45-.622 3-.933 4.653-.933 1.653 0 3.204.311 4.653.933a11.955 11.955 0 0 1 3.776 2.538 11.955 11.955 0 0 1 2.538 3.776c.622 1.45.933 3 .933 4.653 0 1.653-.311 3.204-.933 4.653a11.954 11.954 0 0 1-2.538 3.776 11.954 11.954 0 0 1-3.776 2.538c-1.45.622-3 .933-4.653.933Zm0-2.654c2.567 0 4.75-.9 6.549-2.697 1.798-1.8 2.697-3.982 2.697-6.549s-.9-4.75-2.697-6.549c-1.8-1.798-3.982-2.697-6.549-2.697s-4.75.9-6.547 2.697c-1.8 1.8-2.699 3.982-2.699 6.549s.9 4.75 2.699 6.549c1.798 1.798 3.98 2.697 6.547 2.697Z" fill="currentColor"/></svg>