<svg width="16" height="16" fill="none" xmlns="http://www.w3.org/2000/svg"><path d="M10.3 7.367c.3 0 .547-.098.741-.292.195-.195.292-.442.292-.742s-.097-.547-.292-.742A1.004 1.004 0 0 0 10.3 5.3c-.3 0-.547.097-.741.291a1.005 1.005 0 0 0-.292.742c0 .3.097.547.292.742.194.194.441.292.741.292Zm-4.6 0c.3 0 .547-.098.742-.292.194-.195.291-.442.291-.742s-.097-.547-.291-.742A1.006 1.006 0 0 0 5.7 5.3c-.3 0-.547.097-.741.291a1.005 1.005 0 0 0-.292.742c0 .3.097.547.292.742.194.194.441.292.741.292Zm2.3 4.3c.622 0 1.192-.14 1.708-.417.517-.278.92-.622 1.209-1.033.144-.211.166-.411.066-.6a.494.494 0 0 0-.466-.284.512.512 0 0 0-.25.076.764.764 0 0 0-.217.174A2.497 2.497 0 0 1 8 10.6c-.433 0-.825-.091-1.175-.275a2.57 2.57 0 0 1-.875-.742.733.733 0 0 0-.225-.174.56.56 0 0 0-.258-.076c-.2 0-.35.092-.45.275-.1.184-.078.38.066.592.29.422.692.772 1.209 1.05A3.548 3.548 0 0 0 8 11.667ZM8 14.8c-.944 0-1.83-.178-2.659-.533a6.832 6.832 0 0 1-2.158-1.45 6.832 6.832 0 0 1-1.45-2.158A6.666 6.666 0 0 1 1.2 8c0-.944.178-1.83.533-2.659a6.831 6.831 0 0 1 1.45-2.158 6.831 6.831 0 0 1 2.158-1.45A6.666 6.666 0 0 1 8 1.2c.944 0 1.83.178 2.659.533a6.832 6.832 0 0 1 2.158 1.45 6.832 6.832 0 0 1 1.45 2.158c.355.828.533 1.715.533 2.659 0 .944-.178 1.83-.533 2.659a6.833 6.833 0 0 1-1.45 2.158 6.833 6.833 0 0 1-2.158 1.45A6.667 6.667 0 0 1 8 14.8Zm0-1.517c1.467 0 2.714-.513 3.742-1.541S13.283 9.467 13.283 8s-.513-2.714-1.541-3.742S9.467 2.717 8 2.717s-2.714.513-3.741 1.541C3.23 5.286 2.717 6.533 2.717 8s.514 2.714 1.542 3.742C5.286 12.77 6.533 13.283 8 13.283Z" fill="currentColor"/></svg>