<svg width="28" height="28" fill="none" xmlns="http://www.w3.org/2000/svg"><path d="M23.333 7H14l-1.645-1.645a2.34 2.34 0 0 0-1.657-.688H4.667A2.33 2.33 0 0 0 2.345 7l-.012 14a2.34 2.34 0 0 0 2.334 2.333h18.666A2.34 2.34 0 0 0 25.667 21V9.333A2.34 2.34 0 0 0 23.333 7ZM17.5 10.5a2.34 2.34 0 0 1 2.333 2.333 2.34 2.34 0 0 1-2.333 2.334 2.34 2.34 0 0 1-2.333-2.334A2.34 2.34 0 0 1 17.5 10.5Zm4.667 9.333h-9.334v-1.166c0-1.552 3.115-2.334 4.667-2.334 1.552 0 4.667.782 4.667 2.334v1.166Z" fill="currentColor"/></svg>