<svg width="28" height="28" fill="none" xmlns="http://www.w3.org/2000/svg"><g clip-path="url(#a)"><path d="M24.44 21a2.79 2.79 0 0 0 .062-.583v-1.75a4.33 4.33 0 0 0-1.61-3.317c2.347.407 5.11 1.516 5.11 3.317v1.75a.574.574 0 0 1-.583.583H24.44ZM9.334 21a1.167 1.167 0 0 1-1.166-1.167v-1.166c0-2.334 4.666-3.5 7-3.5 2.333 0 7 1.166 7 3.5v1.166A1.166 1.166 0 0 1 21 21H9.333Zm-4.666-5.75V14h-3.5A1.173 1.173 0 0 1 0 12.833a1.166 1.166 0 0 1 1.167-1.166h3.5V10.42a.932.932 0 0 1 1.59-.664l2.416 2.414a.934.934 0 0 1 0 1.32l-2.416 2.415a.9.9 0 0 1-.65.276.936.936 0 0 1-.94-.933v.002Zm15.273-2.575a5.873 5.873 0 0 0 1.05-3.34 5.761 5.761 0 0 0-1.05-3.338 3.501 3.501 0 0 1 1.062-.16 3.484 3.484 0 0 1 3.487 3.5 3.488 3.488 0 0 1-4.546 3.336l-.003.002Zm-8.273-3.342a3.49 3.49 0 0 1 3.5-3.5 3.477 3.477 0 0 1 2.472 1.024 3.481 3.481 0 0 1 1.016 2.476 3.483 3.483 0 0 1-1.016 2.476 3.489 3.489 0 0 1-2.472 1.024 3.5 3.5 0 0 1-3.5-3.5Z" fill="currentColor"/></g><defs><clipPath id="a"><path fill="currentColor" d="M0 0h28v28H0z"/></clipPath></defs></svg>