<svg width="28" height="28" fill="none" xmlns="http://www.w3.org/2000/svg"><path d="M14 14.875c1.902 0 3.582.455 4.947 1.05A3.482 3.482 0 0 1 21 19.11v.723A1.17 1.17 0 0 1 19.833 21H8.167A1.17 1.17 0 0 1 7 19.833v-.711c0-1.377.793-2.637 2.053-3.185A12.18 12.18 0 0 1 14 14.875Zm-9.333.292A2.34 2.34 0 0 0 7 12.833 2.34 2.34 0 0 0 4.667 10.5a2.34 2.34 0 0 0-2.334 2.333 2.34 2.34 0 0 0 2.334 2.334Zm1.318 1.283a8.146 8.146 0 0 0-1.318-.117 8.108 8.108 0 0 0-3.244.677A2.346 2.346 0 0 0 0 19.168v.665A1.17 1.17 0 0 0 1.167 21H5.25v-1.878c0-.969.268-1.879.735-2.672Zm17.348-1.283a2.34 2.34 0 0 0 2.334-2.334 2.34 2.34 0 0 0-2.334-2.333A2.34 2.34 0 0 0 21 12.833a2.34 2.34 0 0 0 2.333 2.334ZM28 19.168c0-.945-.56-1.785-1.423-2.158a8.109 8.109 0 0 0-3.244-.677c-.455 0-.886.047-1.318.117.467.793.735 1.703.735 2.672V21h4.083A1.17 1.17 0 0 0 28 19.833v-.665ZM14 7c1.937 0 3.5 1.563 3.5 3.5S15.937 14 14 14a3.495 3.495 0 0 1-3.5-3.5C10.5 8.563 12.063 7 14 7Z" fill="currentColor"/></svg>