<svg width="16" height="16" fill="none" xmlns="http://www.w3.org/2000/svg"><path d="M8 8.5c1.087 0 2.047.26 2.827.6A1.99 1.99 0 0 1 12 10.92v.413c0 .367-.3.667-.667.667H4.667A.669.669 0 0 1 4 11.333v-.406c0-.787.453-1.507 1.173-1.82A6.96 6.96 0 0 1 8 8.5Zm-5.333.167C3.4 8.667 4 8.067 4 7.333 4 6.6 3.4 6 2.667 6c-.734 0-1.334.6-1.334 1.333 0 .734.6 1.334 1.334 1.334Zm.753.733a4.655 4.655 0 0 0-.753-.067c-.66 0-1.287.14-1.854.387A1.34 1.34 0 0 0 0 10.953v.38C0 11.7.3 12 .667 12H3v-1.073c0-.554.153-1.074.42-1.527Zm9.913-.733c.734 0 1.334-.6 1.334-1.334 0-.733-.6-1.333-1.334-1.333C12.6 6 12 6.6 12 7.333c0 .734.6 1.334 1.333 1.334ZM16 10.953c0-.54-.32-1.02-.813-1.233a4.634 4.634 0 0 0-1.854-.387c-.26 0-.506.027-.753.067.267.453.42.973.42 1.527V12h2.333c.367 0 .667-.3.667-.667v-.38ZM8 4c1.107 0 2 .893 2 2s-.893 2-2 2-2-.893-2-2 .893-2 2-2Z" fill="currentColor"/></svg>