<svg width="16" height="16" fill="none" xmlns="http://www.w3.org/2000/svg"><path d="M4 7a1.166 1.166 0 1 1 0-2.333A1.166 1.166 0 0 1 4 7Zm8 0a1.167 1.167 0 1 1 0-2.334A1.167 1.167 0 0 1 12 7Zm.666 1h-1.145a2.485 2.485 0 0 1 .812 1.834V12h1.083a1.25 1.25 0 0 0 1.25-1.25V10a2 2 0 0 0-2-2ZM8 7a2 2 0 1 1 0-4 2 2 0 0 1 0 4Zm1.834 6H6.167a1.5 1.5 0 0 1-1.5-1.5v-1.084a2.75 2.75 0 0 1 2.75-2.75h1.167a2.75 2.75 0 0 1 2.75 2.75V11.5a1.5 1.5 0 0 1-1.5 1.5ZM3.667 9.834A2.485 2.485 0 0 1 4.479 8H3.333a2 2 0 0 0-2 2v.75A1.25 1.25 0 0 0 2.583 12h1.084V9.834Z" fill="currentColor"/></svg>