<svg width="16" height="16" fill="none" xmlns="http://www.w3.org/2000/svg"><g clip-path="url(#a)"><path d="M13.966 12c.023-.11.035-.221.035-.333v-1a2.473 2.473 0 0 0-.92-1.896c1.341.233 2.92.867 2.92 1.896v1a.327.327 0 0 1-.333.333h-1.702Zm-8.633 0a.667.667 0 0 1-.666-.667v-.666c0-1.334 2.666-2 4-2 1.333 0 4 .666 4 2v.666A.667.667 0 0 1 12 12H5.333ZM2.667 8.715V8h-2A.67.67 0 0 1 0 7.333a.667.667 0 0 1 .667-.666h2v-.712a.533.533 0 0 1 .909-.38l1.38 1.38a.533.533 0 0 1 0 .755l-1.38 1.38a.515.515 0 0 1-.372.157.536.536 0 0 1-.537-.534v.002Zm8.728-1.472c.389-.56.598-1.226.6-1.908a3.292 3.292 0 0 0-.6-1.908 2.001 2.001 0 0 1 1.37.06 1.99 1.99 0 0 1 1.228 1.848 1.992 1.992 0 0 1-2.597 1.906l-.002.002Zm-4.728-1.91a1.995 1.995 0 0 1 2-2 1.992 1.992 0 0 1 1.845 1.235c.1.242.15.503.148.765a1.991 1.991 0 0 1-1.993 2 2 2 0 0 1-2-2Z" fill="currentColor"/></g><defs><clipPath id="a"><path fill="currentColor" d="M0 0h16v16H0z"/></clipPath></defs></svg>