<svg width="24" height="24" fill="none" xmlns="http://www.w3.org/2000/svg"><g clip-path="url(#a)"><path d="M20.95 18c.034-.164.052-.332.052-.5V16a3.712 3.712 0 0 0-1.38-2.843c2.011.35 4.38 1.3 4.38 2.843v1.5a.493.493 0 0 1-.5.5h-2.553ZM8 18a1 1 0 0 1-1-1v-1c0-2 4-3 6-3s6 1 6 3v1a1 1 0 0 1-1 1H8Zm-4-4.928V12H1a1.006 1.006 0 0 1-1-1 1 1 0 0 1 1-1h3V8.933a.8.8 0 0 1 1.363-.57l2.07 2.07a.8.8 0 0 1 0 1.132l-2.07 2.069a.772.772 0 0 1-.556.236.804.804 0 0 1-.807-.8v.002Zm13.092-2.208c.584-.84.898-1.839.9-2.862a4.939 4.939 0 0 0-.9-2.861 3 3 0 0 1 .91-.138 2.986 2.986 0 0 1 2.988 3 2.986 2.986 0 0 1-1.842 2.77 2.99 2.99 0 0 1-2.054.09l-.002.001ZM10 8a2.993 2.993 0 0 1 3-3 2.98 2.98 0 0 1 2.12.878A2.984 2.984 0 0 1 15.99 8a2.985 2.985 0 0 1-.87 2.122A2.99 2.99 0 0 1 13 11a3 3 0 0 1-3-3Z" fill="currentColor"/></g><defs><clipPath id="a"><path fill="currentColor" d="M0 0h24v24H0z"/></clipPath></defs></svg>