<svg width="28" height="28" fill="none" xmlns="http://www.w3.org/2000/svg"><path d="M7 12.25a2.041 2.041 0 1 1 0-4.083 2.041 2.041 0 0 1 0 4.083Zm14 0a2.041 2.041 0 1 1 0-4.083 2.041 2.041 0 0 1 0 4.083ZM22.166 14h-2.003a4.349 4.349 0 0 1 1.42 3.209V21h1.896a2.188 2.188 0 0 0 2.187-2.188V17.5a3.5 3.5 0 0 0-3.5-3.5ZM14 12.25a3.5 3.5 0 1 1 0-7 3.5 3.5 0 0 1 0 7Zm3.209 10.5h-6.417a2.625 2.625 0 0 1-2.625-2.625v-1.896a4.812 4.812 0 0 1 4.813-4.813h2.041a4.813 4.813 0 0 1 4.813 4.813v1.896a2.625 2.625 0 0 1-2.625 2.625ZM6.416 17.209A4.35 4.35 0 0 1 7.837 14H5.833a3.5 3.5 0 0 0-3.5 3.5v1.313A2.187 2.187 0 0 0 4.52 21h1.896v-3.791Z" fill="currentColor"/></svg>