<svg width="24" height="24" fill="none" xmlns="http://www.w3.org/2000/svg"><path d="M6 10.5a1.75 1.75 0 1 1 0-3.499A1.75 1.75 0 0 1 6 10.5Zm12 0a1.75 1.75 0 1 1 0-3.499 1.75 1.75 0 0 1 0 3.499Zm1 1.5h-1.718a3.728 3.728 0 0 1 1.218 2.75V18h1.625A1.875 1.875 0 0 0 22 16.125V15a3 3 0 0 0-3-3Zm-7-1.5a3 3 0 1 1 0-6 3 3 0 0 1 0 6Zm2.75 9h-5.5A2.25 2.25 0 0 1 7 17.25v-1.625a4.125 4.125 0 0 1 4.126-4.125h1.75A4.125 4.125 0 0 1 17 15.625v1.625a2.25 2.25 0 0 1-2.25 2.25ZM5.5 14.75A3.729 3.729 0 0 1 6.718 12H5a3 3 0 0 0-3 3v1.125A1.875 1.875 0 0 0 3.875 18H5.5v-3.25Z" fill="currentColor"/></svg>