<svg width="28" height="28" fill="none" xmlns="http://www.w3.org/2000/svg"><path d="M8.167 19.833h11.666a.564.564 0 0 0 .525-.32.513.513 0 0 0-.058-.613l-3.208-4.287a.554.554 0 0 0-.467-.234.554.554 0 0 0-.467.234l-3.033 4.054-2.158-2.888a.554.554 0 0 0-.467-.233.554.554 0 0 0-.467.233L7.7 18.9a.514.514 0 0 0-.058.613c.116.213.291.32.525.32ZM5.833 24.5a2.25 2.25 0 0 1-1.648-.685 2.25 2.25 0 0 1-.685-1.648V5.833c0-.641.228-1.19.685-1.648A2.25 2.25 0 0 1 5.833 3.5h16.334a2.25 2.25 0 0 1 1.648.685 2.25 2.25 0 0 1 .685 1.648v16.334a2.25 2.25 0 0 1-.685 1.648 2.25 2.25 0 0 1-1.648.685H5.833Z" fill="currentColor"/></svg>