<svg width="16" height="16" fill="none" xmlns="http://www.w3.org/2000/svg"><path d="M4.667 11.333h6.666a.322.322 0 0 0 .3-.183.293.293 0 0 0-.033-.35L9.767 8.35a.317.317 0 0 0-.267-.133c-.111 0-.2.044-.267.133L7.5 10.667l-1.233-1.65A.317.317 0 0 0 6 8.883c-.111 0-.2.045-.267.134L4.4 10.8a.293.293 0 0 0-.033.35.322.322 0 0 0 .3.183ZM3.333 14c-.366 0-.68-.13-.942-.391A1.286 1.286 0 0 1 2 12.667V3.333c0-.366.13-.68.391-.942A1.29 1.29 0 0 1 3.333 2h9.334c.366 0 .68.13.942.391.26.262.391.576.391.942v9.334c0 .366-.13.68-.391.942a1.29 1.29 0 0 1-.942.391H3.333Z" fill="currentColor"/></svg>