<svg width="28" height="28" fill="none" xmlns="http://www.w3.org/2000/svg"><path d="M23.333 2.333H4.667c-1.167 0-2.334 1.05-2.334 2.334v3.511c0 .84.502 1.564 1.167 1.972v13.183c0 1.284 1.283 2.334 2.333 2.334h16.334c1.05 0 2.333-1.05 2.333-2.334V10.15c.665-.408 1.167-1.132 1.167-1.972V4.667c0-1.284-1.167-2.334-2.334-2.334Zm-7 14h-4.666a1.17 1.17 0 0 1-1.167-1.166A1.17 1.17 0 0 1 11.667 14h4.666a1.17 1.17 0 0 1 1.167 1.167 1.17 1.17 0 0 1-1.167 1.166Zm7-8.166H4.667v-3.5h18.666v3.5Z" fill="currentColor"/></svg>