<svg width="24" height="24" fill="none" xmlns="http://www.w3.org/2000/svg"><path d="M12.141 19.212c-1.013 1.014-2.239 1.52-3.677 1.52-1.438 0-2.663-.506-3.677-1.52-1.013-1.013-1.52-2.239-1.52-3.677 0-1.437.507-2.663 1.52-3.677L6.75 9.896c.223-.224.489-.336.795-.336.306 0 .572.112.796.336.235.236.353.507.353.813 0 .307-.112.572-.336.796l-1.962 1.962c-.577.578-.866 1.267-.866 2.068 0 .802.289 1.491.866 2.069.577.577 1.267.866 2.068.866.802 0 1.491-.289 2.069-.866l1.962-1.962a1.114 1.114 0 0 1 1.608.017c.224.224.336.49.336.796 0 .306-.112.571-.336.795l-1.962 1.962Zm-1.59-4.278c-.201.2-.446.304-.735.31a.998.998 0 0 1-.75-.31.998.998 0 0 1-.31-.75 1.03 1.03 0 0 1 .31-.735l4.383-4.384c.2-.2.445-.303.734-.31a.998.998 0 0 1 .751.31.997.997 0 0 1 .31.751 1.03 1.03 0 0 1-.31.734l-4.384 4.384Zm6.7-.83c-.225.223-.49.335-.796.335a1.09 1.09 0 0 1-.796-.335 1.118 1.118 0 0 1-.354-.814c0-.306.113-.571.336-.795l1.963-1.962c.577-.578.866-1.267.866-2.069 0-.801-.289-1.49-.866-2.068-.578-.577-1.267-.866-2.069-.866-.801 0-1.49.289-2.068.866l-1.962 1.962c-.224.224-.49.336-.796.336a1.12 1.12 0 0 1-.813-.353 1.087 1.087 0 0 1-.336-.796c0-.306.112-.571.336-.795l1.962-1.963c1.014-1.013 2.24-1.52 3.677-1.52 1.438 0 2.664.507 3.677 1.52 1.014 1.014 1.52 2.24 1.52 3.677 0 1.438-.506 2.664-1.52 3.677l-1.962 1.963Z" fill="currentColor"/></svg>