<svg width="28" height="28" fill="none" xmlns="http://www.w3.org/2000/svg"><path d="M14.165 22.414c-1.183 1.183-2.613 1.774-4.29 1.774s-3.107-.591-4.29-1.774c-1.182-1.182-1.773-2.612-1.773-4.29 0-1.677.59-3.107 1.773-4.29l2.29-2.288c.26-.262.57-.392.928-.392.357 0 .666.13.928.392.275.274.412.59.412.948s-.13.667-.392.928l-2.289 2.29c-.674.673-1.01 1.478-1.01 2.413 0 .934.336 1.739 1.01 2.413.674.673 1.478 1.01 2.413 1.01.935 0 1.74-.337 2.413-1.01l2.29-2.29c.26-.261.57-.392.927-.392.358 0 .674.138.949.413.261.261.392.57.392.928 0 .358-.13.667-.392.928l-2.29 2.29Zm-1.856-4.99c-.234.233-.52.354-.857.36a1.164 1.164 0 0 1-.876-.36 1.164 1.164 0 0 1-.361-.877c.007-.337.127-.622.361-.856l5.115-5.115c.234-.234.52-.354.856-.361.337-.007.629.114.876.361.248.248.368.54.362.876a1.204 1.204 0 0 1-.362.857l-5.114 5.114Zm7.816-.97c-.261.261-.57.392-.928.392-.357 0-.667-.13-.928-.392-.275-.275-.412-.591-.412-.949 0-.357.13-.667.391-.928l2.29-2.289c.673-.674 1.01-1.478 1.01-2.413 0-.935-.337-1.74-1.01-2.413-.674-.674-1.479-1.01-2.413-1.01-.935 0-1.74.336-2.413 1.01l-2.29 2.29c-.26.26-.57.391-.928.391-.357 0-.674-.137-.948-.412a1.269 1.269 0 0 1-.392-.928c0-.358.13-.667.392-.929l2.289-2.289c1.182-1.182 2.612-1.773 4.29-1.773 1.677 0 3.107.59 4.29 1.773 1.182 1.183 1.773 2.613 1.773 4.29s-.591 3.107-1.774 4.29l-2.289 2.289Z" fill="currentColor"/></svg>