<svg width="16" height="16" fill="none" xmlns="http://www.w3.org/2000/svg"><path d="M8.094 12.808a3.34 3.34 0 0 1-2.451 1.014 3.34 3.34 0 0 1-2.451-1.014 3.34 3.34 0 0 1-1.014-2.451 3.34 3.34 0 0 1 1.014-2.451L4.5 6.597a.725.725 0 0 1 .53-.224c.204 0 .381.075.53.224a.745.745 0 0 1 .236.543.725.725 0 0 1-.224.53L4.264 8.978a1.882 1.882 0 0 0-.578 1.379c0 .534.193.994.578 1.379.385.385.845.577 1.379.577s.994-.192 1.379-.577l1.308-1.308a.725.725 0 0 1 .53-.224c.204 0 .385.078.542.235.15.15.224.326.224.53a.725.725 0 0 1-.224.531l-1.308 1.308Zm-1.06-2.852a.688.688 0 0 1-.49.207.665.665 0 0 1-.5-.207.665.665 0 0 1-.207-.5.688.688 0 0 1 .207-.49l2.922-2.922a.688.688 0 0 1 .49-.207.665.665 0 0 1 .5.207c.142.14.21.308.207.5a.688.688 0 0 1-.207.49L7.033 9.955Zm4.466-.554a.725.725 0 0 1-.53.224.725.725 0 0 1-.53-.224.745.745 0 0 1-.236-.542c0-.204.074-.38.224-.53l1.308-1.308c.385-.385.577-.845.577-1.38 0-.533-.192-.993-.577-1.378a1.882 1.882 0 0 0-1.38-.578c-.533 0-.993.193-1.378.578L7.67 5.572a.725.725 0 0 1-.53.224.745.745 0 0 1-.543-.236.725.725 0 0 1-.223-.53c0-.204.074-.381.223-.53l1.309-1.308a3.34 3.34 0 0 1 2.45-1.014 3.34 3.34 0 0 1 2.452 1.014 3.34 3.34 0 0 1 1.014 2.45 3.34 3.34 0 0 1-1.014 2.452L11.5 9.402Z" fill="currentColor"/></svg>