<svg width="28" height="28" fill="none" xmlns="http://www.w3.org/2000/svg"><path d="M21 9.917h-1.167V7.583A5.835 5.835 0 0 0 14 1.75a5.835 5.835 0 0 0-5.833 5.833v2.334H7a2.34 2.34 0 0 0-2.333 2.333v11.667A2.34 2.34 0 0 0 7 26.25h14a2.34 2.34 0 0 0 2.333-2.333V12.25A2.34 2.34 0 0 0 21 9.917Zm-7 10.5a2.34 2.34 0 0 1-2.333-2.334A2.34 2.34 0 0 1 14 15.75a2.34 2.34 0 0 1 2.333 2.333A2.34 2.34 0 0 1 14 20.417Zm-3.5-10.5V7.583c0-1.936 1.563-3.5 3.5-3.5s3.5 1.564 3.5 3.5v2.334h-7Z" fill="currentColor"/></svg>