<svg width="24" height="24" fill="none" xmlns="http://www.w3.org/2000/svg"><path d="M15.225 16.475a1.248 1.248 0 0 1-.325-.838c0-.308.108-.57.325-.787l1.725-1.7h-6.925c-.317 0-.583-.113-.8-.338A1.128 1.128 0 0 1 8.9 12c0-.317.108-.587.325-.812.217-.225.483-.338.8-.338h6.925l-1.725-1.7a1.073 1.073 0 0 1-.338-.813 1.21 1.21 0 0 1 .338-.812c.217-.217.48-.325.788-.325.308 0 .57.108.787.325l3.7 3.675a1.2 1.2 0 0 1 .3.8 1.2 1.2 0 0 1-.3.8l-3.7 3.7c-.25.233-.52.337-.812.312a1.251 1.251 0 0 1-.763-.337ZM5 21.2c-.633 0-1.17-.22-1.612-.662a2.196 2.196 0 0 1-.663-1.613V5.075c0-.633.221-1.171.663-1.613A2.194 2.194 0 0 1 5 2.8h5.9c.333 0 .608.108.825.325.217.217.325.483.325.8 0 .333-.108.608-.325.825a1.118 1.118 0 0 1-.825.325H5v13.85h5.9c.333 0 .608.108.825.325.217.217.325.492.325.825 0 .317-.108.583-.325.8a1.118 1.118 0 0 1-.825.325H5Z" fill="currentColor"/></svg>