<svg width="28" height="28" fill="none" xmlns="http://www.w3.org/2000/svg"><path d="M17.762 19.22a1.455 1.455 0 0 1-.379-.977c0-.36.127-.665.38-.918l2.012-1.983h-8.08c-.369 0-.68-.132-.933-.395a1.315 1.315 0 0 1-.379-.947c0-.37.127-.685.38-.947.252-.263.563-.395.933-.395h8.079l-2.012-1.983a1.252 1.252 0 0 1-.395-.949 1.41 1.41 0 0 1 .395-.947c.252-.253.559-.379.919-.379s.665.126.918.38l4.317 4.287a1.4 1.4 0 0 1 .35.933 1.4 1.4 0 0 1-.35.933L19.6 19.25c-.292.272-.607.394-.947.364a1.46 1.46 0 0 1-.89-.393ZM5.833 24.734a2.56 2.56 0 0 1-1.88-.772 2.561 2.561 0 0 1-.774-1.882V5.921c0-.74.258-1.366.774-1.882a2.56 2.56 0 0 1 1.88-.772h6.884c.389 0 .71.126.962.379.253.253.38.564.38.933 0 .39-.127.71-.38.963-.253.252-.573.379-.962.379H5.833v16.158h6.884c.389 0 .71.127.962.38.253.252.38.573.38.962 0 .37-.127.68-.38.933s-.573.38-.962.38H5.833Z" fill="currentColor"/></svg>