<svg width="16" height="16" fill="none" xmlns="http://www.w3.org/2000/svg"><path d="M10.15 10.983a.832.832 0 0 1-.217-.558c0-.206.073-.38.217-.525l1.15-1.133H6.683a.71.71 0 0 1-.533-.226A.752.752 0 0 1 5.933 8c0-.211.073-.392.217-.541a.71.71 0 0 1 .533-.226H11.3L10.15 6.1a.716.716 0 0 1-.225-.542.807.807 0 0 1 .225-.541.716.716 0 0 1 .525-.217c.206 0 .38.072.525.217l2.467 2.45a.801.801 0 0 1 .2.533.8.8 0 0 1-.2.533L11.2 11c-.167.156-.347.225-.541.208a.834.834 0 0 1-.509-.225Zm-6.817 3.15c-.422 0-.78-.147-1.074-.441a1.464 1.464 0 0 1-.442-1.075V3.383c0-.422.147-.78.442-1.075a1.463 1.463 0 0 1 1.074-.441h3.934c.222 0 .405.072.55.216a.725.725 0 0 1 .216.534.745.745 0 0 1-.216.55.745.745 0 0 1-.55.216H3.333v9.234h3.934c.222 0 .405.072.55.216a.745.745 0 0 1 .216.55.725.725 0 0 1-.216.534.745.745 0 0 1-.55.216H3.333Z" fill="currentColor"/></svg>