<svg width="24" height="24" fill="none" xmlns="http://www.w3.org/2000/svg"><path d="M10.82 12.525c-.22-.01-.44-.02-.67-.02-2.42 0-4.68.67-6.61 1.82-.88.52-1.39 1.5-1.39 2.53v1.65c0 .55.45 1 1 1h8.26a6.963 6.963 0 0 1-.59-6.98Zm-.67-1.02a4 4 0 1 0 0-8 4 4 0 0 0 0 8Zm10.75 4c0-.22-.03-.42-.06-.63l.84-.73c.18-.16.22-.42.1-.63l-.59-1.02a.488.488 0 0 0-.59-.22l-1.06.36c-.32-.27-.68-.48-1.08-.63l-.22-1.09a.503.503 0 0 0-.49-.4h-1.18c-.24 0-.44.17-.49.4l-.22 1.09c-.4.15-.76.36-1.08.63l-1.06-.36a.496.496 0 0 0-.59.22l-.59 1.02c-.12.21-.08.47.1.63l.84.73c-.03.21-.06.41-.06.63 0 .22.03.42.06.63l-.84.73c-.18.16-.22.42-.1.63l.59 1.02c.12.21.37.3.59.22l1.06-.36c.32.27.68.48 1.08.63l.22 1.09c.05.23.25.4.49.4h1.18c.24 0 .44-.17.49-.4l.22-1.09c.4-.15.76-.36 1.08-.63l1.06.36c.23.08.47-.02.59-.22l.59-1.02c.12-.21.08-.47-.1-.63l-.84-.73c.03-.21.06-.41.06-.63Zm-3.75 2c-1.1 0-2-.9-2-2s.9-2 2-2 2 .9 2 2-.9 2-2 2Z" fill="currentColor"/></svg>