<svg width="28" height="28" fill="none" xmlns="http://www.w3.org/2000/svg"><path d="M12.624 14.613a16.932 16.932 0 0 0-.782-.024c-2.823 0-5.46.782-7.711 2.123-1.027.607-1.622 1.75-1.622 2.952v1.925a1.17 1.17 0 0 0 1.167 1.167h9.636a8.123 8.123 0 0 1-1.47-4.667 8.25 8.25 0 0 1 .782-3.476Zm-.782-1.191a4.667 4.667 0 1 0 0-9.333 4.667 4.667 0 0 0 0 9.333Zm12.542 4.668c0-.258-.035-.49-.07-.736l.98-.851a.587.587 0 0 0 .117-.736l-.689-1.19a.57.57 0 0 0-.688-.256l-1.236.42a4.253 4.253 0 0 0-1.26-.735l-.257-1.272a.587.587 0 0 0-.572-.466h-1.377a.587.587 0 0 0-.571.466l-.257 1.272c-.466.175-.887.42-1.26.735l-1.236-.42a.578.578 0 0 0-.689.257l-.688 1.19a.587.587 0 0 0 .117.735l.98.851c-.035.245-.07.479-.07.735 0 .257.035.49.07.735l-.98.852a.587.587 0 0 0-.117.735l.688 1.19a.57.57 0 0 0 .688.257l1.237-.42c.373.315.794.56 1.26.735l.257 1.271a.587.587 0 0 0 .572.467h1.376c.28 0 .514-.199.572-.467l.257-1.271c.466-.175.886-.42 1.26-.735l1.236.42a.578.578 0 0 0 .689-.257l.688-1.19a.587.587 0 0 0-.117-.735l-.98-.852c.035-.245.07-.478.07-.735Zm-4.375 2.332a2.34 2.34 0 0 1-2.333-2.333 2.34 2.34 0 0 1 2.333-2.333 2.34 2.34 0 0 1 2.334 2.333 2.34 2.34 0 0 1-2.334 2.334Z" fill="currentColor"/></svg>