<svg width="16" height="16" fill="none" xmlns="http://www.w3.org/2000/svg"><path d="M7.214 8.35a8.584 8.584 0 0 0-4.853 1.2c-.587.347-.927 1-.927 1.687v1.1c0 .366.3.666.666.666h5.507a4.642 4.642 0 0 1-.393-4.653Zm-.447-.68a2.667 2.667 0 1 0 0-5.333 2.667 2.667 0 0 0 0 5.333Zm7.167 2.667c0-.147-.02-.28-.04-.42l.56-.487a.335.335 0 0 0 .066-.42l-.393-.68a.326.326 0 0 0-.393-.147l-.707.24a2.43 2.43 0 0 0-.72-.42l-.146-.726a.335.335 0 0 0-.327-.267h-.787a.335.335 0 0 0-.327.267l-.146.726c-.267.1-.507.24-.72.42l-.707-.24a.33.33 0 0 0-.393.147l-.394.68a.335.335 0 0 0 .067.42l.56.487c-.02.14-.04.273-.04.42 0 .146.02.28.04.42l-.56.486a.335.335 0 0 0-.067.42l.394.68c.08.14.246.2.393.147l.707-.24c.213.18.453.32.72.42l.146.727a.335.335 0 0 0 .327.266h.787c.16 0 .293-.113.327-.266l.146-.727c.267-.1.507-.24.72-.42l.707.24a.33.33 0 0 0 .393-.147l.393-.68a.335.335 0 0 0-.066-.42l-.56-.486c.02-.14.04-.274.04-.42Zm-2.5 1.333c-.733 0-1.333-.6-1.333-1.333 0-.734.6-1.334 1.333-1.334s1.333.6 1.333 1.334c0 .733-.6 1.333-1.333 1.333Z" fill="currentColor"/></svg>