<svg width="28" height="28" fill="none" xmlns="http://www.w3.org/2000/svg"><path d="M14 25.87c-1.633 0-3.17-.31-4.608-.933a12.061 12.061 0 0 1-3.778-2.551 12.063 12.063 0 0 1-2.551-3.778A11.485 11.485 0 0 1 2.129 14c0-1.633.311-3.17.934-4.608a12.062 12.062 0 0 1 2.551-3.778 12.062 12.062 0 0 1 3.778-2.552A11.485 11.485 0 0 1 14 2.13c1.633 0 3.17.311 4.608.933a12.062 12.062 0 0 1 3.778 2.552 12.061 12.061 0 0 1 2.552 3.778c.622 1.439.933 2.975.933 4.608v1.692c0 1.205-.403 2.216-1.21 3.033-.807.817-1.814 1.225-3.02 1.225-.719 0-1.385-.16-1.998-.48a4.354 4.354 0 0 1-1.501-1.27 5.432 5.432 0 0 1-1.823 1.283A5.716 5.716 0 0 1 14 19.95c-1.633 0-3.033-.578-4.2-1.735C8.633 17.058 8.05 15.653 8.05 14c0-1.633.583-3.033 1.75-4.2 1.167-1.167 2.567-1.75 4.2-1.75 1.653 0 3.058.578 4.215 1.735S19.95 12.347 19.95 14v1.633c0 .545.165.973.496 1.284.33.31.729.466 1.196.466.447 0 .84-.155 1.18-.466.341-.312.511-.74.511-1.284V14c0-2.547-.919-4.74-2.756-6.578-1.838-1.837-4.03-2.755-6.577-2.755-2.547 0-4.74.918-6.578 2.755C5.585 9.26 4.667 11.452 4.667 14c0 2.547.918 4.74 2.755 6.576 1.838 1.838 4.03 2.757 6.578 2.757h4.55c.37 0 .676.122.92.364.242.244.363.55.363.92 0 .35-.121.646-.364.89a1.25 1.25 0 0 1-.919.364H14Zm0-8.487c.933 0 1.73-.33 2.392-.991A3.26 3.26 0 0 0 17.383 14c0-.933-.33-1.73-.991-2.392A3.26 3.26 0 0 0 14 10.617c-.933 0-1.73.33-2.392.991A3.26 3.26 0 0 0 10.617 14c0 .933.33 1.73.991 2.392a3.26 3.26 0 0 0 2.392.991Z" fill="currentColor"/></svg>