<svg width="24" height="24" fill="none" xmlns="http://www.w3.org/2000/svg"><path d="M12 22.175c-1.4 0-2.717-.267-3.95-.8a10.338 10.338 0 0 1-3.238-2.187 10.34 10.34 0 0 1-2.187-3.238 9.844 9.844 0 0 1-.8-3.95c0-1.4.267-2.717.8-3.95a10.34 10.34 0 0 1 2.187-3.238A10.34 10.34 0 0 1 8.05 2.625a9.844 9.844 0 0 1 3.95-.8c1.4 0 2.717.267 3.95.8a10.34 10.34 0 0 1 3.238 2.187 10.338 10.338 0 0 1 2.187 3.238c.533 1.233.8 2.55.8 3.95v1.45c0 1.033-.346 1.9-1.037 2.6-.692.7-1.555 1.05-2.588 1.05a3.64 3.64 0 0 1-1.713-.412A3.731 3.731 0 0 1 15.55 15.6a4.655 4.655 0 0 1-1.562 1.1c-.609.267-1.271.4-1.988.4-1.4 0-2.6-.496-3.6-1.487-1-.992-1.5-2.196-1.5-3.613 0-1.4.5-2.6 1.5-3.6s2.2-1.5 3.6-1.5c1.417 0 2.621.496 3.613 1.487.991.992 1.487 2.196 1.487 3.613v1.4c0 .467.142.833.425 1.1.283.267.625.4 1.025.4.383 0 .72-.133 1.012-.4.292-.267.438-.633.438-1.1V12c0-2.183-.788-4.063-2.363-5.638C16.062 4.787 14.183 4 12 4c-2.183 0-4.063.787-5.638 2.362C4.787 7.937 4 9.817 4 12s.787 4.062 2.362 5.637C7.937 19.212 9.817 20 12 20h3.9c.317 0 .58.104.788.312.208.209.312.471.312.788a1.07 1.07 0 0 1-1.1 1.075H12Zm0-7.275c.8 0 1.483-.283 2.05-.85.567-.567.85-1.25.85-2.05 0-.8-.283-1.483-.85-2.05A2.794 2.794 0 0 0 12 9.1c-.8 0-1.483.283-2.05.85A2.794 2.794 0 0 0 9.1 12c0 .8.283 1.483.85 2.05.567.567 1.25.85 2.05.85Z" fill="currentColor"/></svg>