<svg width="16" height="16" fill="none" xmlns="http://www.w3.org/2000/svg"><path d="M8 14.783a6.562 6.562 0 0 1-2.633-.533 6.89 6.89 0 0 1-2.159-1.458 6.892 6.892 0 0 1-1.458-2.159A6.562 6.562 0 0 1 1.217 8c0-.933.177-1.811.533-2.633a6.892 6.892 0 0 1 1.458-2.159A6.892 6.892 0 0 1 5.367 1.75 6.563 6.563 0 0 1 8 1.217c.933 0 1.811.177 2.633.533a6.892 6.892 0 0 1 2.159 1.458 6.89 6.89 0 0 1 1.458 2.159c.356.822.533 1.7.533 2.633v.967c0 .689-.23 1.266-.691 1.733-.461.467-1.036.7-1.725.7-.411 0-.792-.091-1.142-.275a2.487 2.487 0 0 1-.858-.725 3.103 3.103 0 0 1-1.042.733A3.266 3.266 0 0 1 8 11.4c-.933 0-1.733-.33-2.4-.991A3.266 3.266 0 0 1 4.6 8c0-.933.333-1.733 1-2.4.667-.667 1.467-1 2.4-1 .944 0 1.747.33 2.409.991.66.662.991 1.465.991 2.409v.933c0 .311.095.556.283.734a.961.961 0 0 0 .684.266.97.97 0 0 0 .674-.266c.195-.178.292-.423.292-.734V8c0-1.456-.525-2.708-1.575-3.759C10.708 3.191 9.456 2.667 8 2.667s-2.708.525-3.759 1.574C3.191 5.291 2.667 6.544 2.667 8s.525 2.708 1.574 3.758c1.05 1.05 2.303 1.575 3.759 1.575h2.6a.714.714 0 0 1 .733.734.713.713 0 0 1-.733.717H8Zm0-4.85c.533 0 .989-.189 1.367-.566.377-.378.566-.834.566-1.367s-.189-.989-.566-1.367A1.863 1.863 0 0 0 8 6.067c-.533 0-.989.189-1.367.566A1.863 1.863 0 0 0 6.067 8c0 .533.189.989.566 1.367.378.377.834.566 1.367.566Z" fill="currentColor"/></svg>