<svg width="16" height="16" fill="none" xmlns="http://www.w3.org/2000/svg"><path d="M4.667 9.333h4.016a.617.617 0 0 0 .467-.192.66.66 0 0 0 .183-.474.647.647 0 0 0-.191-.476A.647.647 0 0 0 8.667 8H4.65a.618.618 0 0 0-.467.191.662.662 0 0 0-.183.476c0 .189.064.347.191.474a.646.646 0 0 0 .476.192Zm0-2h6.683a.617.617 0 0 0 .467-.192.66.66 0 0 0 .183-.474.646.646 0 0 0-.192-.476.644.644 0 0 0-.475-.191H4.65a.618.618 0 0 0-.467.191.662.662 0 0 0-.183.476c0 .189.064.347.191.474a.646.646 0 0 0 .476.192Zm0-2h6.683a.618.618 0 0 0 .467-.191.662.662 0 0 0 .183-.475.646.646 0 0 0-.192-.476.644.644 0 0 0-.475-.191H4.65a.618.618 0 0 0-.467.191.662.662 0 0 0-.183.476c0 .189.064.347.191.475a.647.647 0 0 0 .476.191ZM1.333 13.05V2.667c0-.367.131-.681.392-.942.261-.261.575-.392.942-.392h10.666c.367 0 .681.13.942.392.261.261.392.575.392.942v8c0 .366-.13.68-.392.942-.261.26-.575.391-.942.391H4l-1.533 1.533c-.211.211-.453.259-.726.142-.272-.117-.408-.325-.408-.625Z" fill="currentColor"/></svg>