<svg width="28" height="28" fill="none" xmlns="http://www.w3.org/2000/svg"><path d="M8.167 16.333h7.029c.33 0 .603-.112.816-.336.214-.223.321-.5.321-.83 0-.33-.111-.608-.334-.832a1.132 1.132 0 0 0-.832-.335h-7.03c-.33 0-.602.112-.816.335a1.157 1.157 0 0 0-.321.832c0 .33.112.607.335.83.224.224.501.336.832.336Zm0-3.5h11.696c.33 0 .602-.112.816-.336.214-.223.321-.5.321-.83 0-.33-.112-.608-.336-.832a1.128 1.128 0 0 0-.83-.335H8.137c-.331 0-.603.112-.817.335a1.157 1.157 0 0 0-.321.832c0 .33.112.607.335.83.224.224.501.336.832.336Zm0-3.5h11.696c.33 0 .602-.111.816-.335.214-.223.321-.5.321-.831 0-.33-.112-.608-.336-.832a1.128 1.128 0 0 0-.83-.335H8.137c-.331 0-.603.112-.817.335a1.157 1.157 0 0 0-.321.832c0 .33.112.607.335.832.224.223.501.334.832.334ZM2.333 22.837V4.667c0-.642.229-1.192.686-1.649a2.246 2.246 0 0 1 1.648-.685h18.666a2.25 2.25 0 0 1 1.649.685 2.25 2.25 0 0 1 .685 1.649v14a2.25 2.25 0 0 1-.685 1.648 2.25 2.25 0 0 1-1.649.685H7l-2.683 2.683c-.37.37-.793.452-1.27.248-.476-.204-.714-.569-.714-1.094Z" fill="currentColor"/></svg>