<svg width="16" height="16" fill="none" xmlns="http://www.w3.org/2000/svg"><path d="M3.883 9.4c-.389 0-.719-.139-.991-.417A1.358 1.358 0 0 1 2.483 8c0-.389.137-.72.409-.992a1.35 1.35 0 0 1 .991-.408c.378 0 .703.136.976.408.272.272.408.603.408.992 0 .378-.136.706-.408.983a1.319 1.319 0 0 1-.976.417ZM8 9.4c-.378 0-.706-.139-.983-.417A1.345 1.345 0 0 1 6.6 8c0-.389.139-.72.417-.992.277-.272.605-.408.983-.408.389 0 .72.136.992.408.272.272.408.603.408.992 0 .378-.136.706-.408.983A1.338 1.338 0 0 1 8 9.4Zm4.117 0a1.32 1.32 0 0 1-.976-.417A1.359 1.359 0 0 1 10.733 8c0-.389.136-.72.408-.992.273-.272.598-.408.976-.408.389 0 .72.136.992.408.272.272.408.603.408.992 0 .378-.136.706-.408.983a1.338 1.338 0 0 1-.992.417Z" fill="currentColor"/></svg>