<svg width="28" height="28" fill="none" xmlns="http://www.w3.org/2000/svg"><path d="M14 23.654a2.375 2.375 0 0 1-1.72-.714 2.34 2.34 0 0 1-.73-1.736c0-.661.243-1.23.73-1.707a2.375 2.375 0 0 1 1.72-.714c.68 0 1.26.238 1.736.714.476.477.714 1.046.714 1.707 0 .68-.238 1.26-.714 1.736a2.366 2.366 0 0 1-1.736.714Zm0-7.204c-.661 0-1.235-.243-1.72-.73-.487-.485-.73-1.059-.73-1.72 0-.68.243-1.26.73-1.736A2.375 2.375 0 0 1 14 11.55c.68 0 1.26.238 1.736.714.476.477.714 1.055.714 1.736 0 .661-.238 1.235-.714 1.72a2.341 2.341 0 0 1-1.736.73Zm0-7.233c-.661 0-1.235-.239-1.72-.716-.487-.476-.73-1.044-.73-1.705 0-.68.243-1.26.73-1.736A2.375 2.375 0 0 1 14 4.346c.68 0 1.26.238 1.736.714.476.477.714 1.055.714 1.736 0 .66-.238 1.23-.714 1.705A2.364 2.364 0 0 1 14 9.217Z" fill="currentColor"/></svg>