<svg width="24" height="24" fill="none" xmlns="http://www.w3.org/2000/svg"><path d="M5.825 14.1a2.003 2.003 0 0 1-1.487-.625A2.037 2.037 0 0 1 3.725 12c0-.583.204-1.08.613-1.488A2.024 2.024 0 0 1 5.825 9.9c.567 0 1.054.204 1.463.612.408.409.612.905.612 1.488 0 .567-.204 1.058-.612 1.475a1.978 1.978 0 0 1-1.463.625Zm6.175 0c-.567 0-1.058-.208-1.475-.625-.417-.417-.625-.908-.625-1.475 0-.583.208-1.08.625-1.488A2.038 2.038 0 0 1 12 9.9c.583 0 1.08.204 1.488.612.408.409.612.905.612 1.488 0 .567-.204 1.058-.612 1.475A2.006 2.006 0 0 1 12 14.1Zm6.175 0a1.978 1.978 0 0 1-1.463-.625A2.038 2.038 0 0 1 16.1 12c0-.583.204-1.08.612-1.488a1.999 1.999 0 0 1 1.463-.612c.583 0 1.08.204 1.488.612.408.409.612.905.612 1.488 0 .567-.204 1.058-.612 1.475a2.006 2.006 0 0 1-1.488.625Z" fill="currentColor"/></svg>