<svg width="28" height="28" fill="none" xmlns="http://www.w3.org/2000/svg"><path d="M6.796 16.45c-.68 0-1.259-.243-1.735-.73A2.372 2.372 0 0 1 4.346 14c0-.68.238-1.26.715-1.736a2.362 2.362 0 0 1 1.735-.714c.66 0 1.23.238 1.707.714.476.477.714 1.055.714 1.736 0 .661-.238 1.235-.714 1.72-.477.487-1.046.73-1.707.73Zm7.204 0c-.661 0-1.235-.243-1.72-.73-.487-.485-.73-1.059-.73-1.72 0-.68.243-1.26.73-1.736A2.375 2.375 0 0 1 14 11.55c.68 0 1.26.238 1.736.714.476.477.714 1.055.714 1.736 0 .661-.238 1.235-.714 1.72a2.341 2.341 0 0 1-1.736.73Zm7.204 0c-.661 0-1.23-.243-1.707-.73a2.375 2.375 0 0 1-.714-1.72c0-.68.238-1.26.714-1.736a2.332 2.332 0 0 1 1.707-.714c.68 0 1.26.238 1.736.714.476.477.714 1.055.714 1.736 0 .661-.238 1.235-.714 1.72a2.341 2.341 0 0 1-1.736.73Z" fill="currentColor"/></svg>