<svg width="24" height="24" fill="none" xmlns="http://www.w3.org/2000/svg"><path d="M12 20.275a2.038 2.038 0 0 1-1.475-.612 2.006 2.006 0 0 1-.625-1.488c0-.567.208-1.054.625-1.463A2.038 2.038 0 0 1 12 16.1c.583 0 1.08.204 1.488.612.408.409.612.896.612 1.463 0 .583-.204 1.08-.612 1.488a2.028 2.028 0 0 1-1.488.612Zm0-6.175c-.567 0-1.058-.208-1.475-.625-.417-.417-.625-.908-.625-1.475 0-.583.208-1.08.625-1.488A2.038 2.038 0 0 1 12 9.9c.583 0 1.08.204 1.488.612.408.409.612.905.612 1.488 0 .567-.204 1.058-.612 1.475A2.007 2.007 0 0 1 12 14.1Zm0-6.2a2.037 2.037 0 0 1-1.475-.613A1.975 1.975 0 0 1 9.9 5.825c0-.583.208-1.08.625-1.488A2.038 2.038 0 0 1 12 3.725c.583 0 1.08.204 1.488.612.408.409.612.905.612 1.488 0 .567-.204 1.054-.612 1.462A2.026 2.026 0 0 1 12 7.9Z" fill="currentColor"/></svg>