<svg width="16" height="16" fill="none" xmlns="http://www.w3.org/2000/svg"><path d="M8 13.517c-.378 0-.706-.136-.983-.408a1.338 1.338 0 0 1-.417-.992c0-.378.139-.703.417-.976.277-.272.605-.408.983-.408.389 0 .72.136.992.408.272.273.408.598.408.976 0 .389-.136.72-.408.992a1.352 1.352 0 0 1-.992.408ZM8 9.4c-.378 0-.706-.139-.983-.417A1.345 1.345 0 0 1 6.6 8c0-.389.139-.72.417-.992.277-.272.605-.408.983-.408.389 0 .72.136.992.408.272.272.408.603.408.992 0 .378-.136.706-.408.983A1.338 1.338 0 0 1 8 9.4Zm0-4.133c-.378 0-.706-.137-.983-.409a1.317 1.317 0 0 1-.417-.975c0-.389.139-.72.417-.992.277-.272.605-.408.983-.408.389 0 .72.136.992.408.272.273.408.603.408.992 0 .378-.136.703-.408.975A1.35 1.35 0 0 1 8 5.267Z" fill="currentColor"/></svg>