<svg width="16" height="16" fill="none" xmlns="http://www.w3.org/2000/svg"><path d="M12.003 10.5V7.167c0-2.047-1.094-3.76-3-4.214V2.5c0-.553-.454-1-1.007-1a.993.993 0 0 0-.993 1v.453c-1.914.454-3 2.16-3 4.214V10.5l-.867.86c-.42.42-.127 1.14.467 1.14h8.78c.593 0 .893-.72.473-1.14l-.853-.86Zm-4.007 4c.733 0 1.333-.6 1.333-1.333H6.663c0 .733.593 1.333 1.333 1.333ZM4.516 2.987a.657.657 0 0 0 .02-.954.666.666 0 0 0-.927-.013 6.95 6.95 0 0 0-2.18 4.04.674.674 0 0 0 .667.773c.32 0 .6-.233.653-.553.2-1.293.84-2.447 1.767-3.293Zm7.887-.967a.674.674 0 0 0-.934.013.655.655 0 0 0 .02.947c.92.847 1.567 2 1.767 3.293.047.32.327.554.653.554a.67.67 0 0 0 .66-.774 6.991 6.991 0 0 0-2.166-4.033Z" fill="currentColor"/></svg>