<svg width="28" height="28" fill="none" xmlns="http://www.w3.org/2000/svg"><path d="M21.005 18.375v-5.833c0-3.582-1.914-6.58-5.25-7.374v-.793c0-.968-.794-1.75-1.762-1.75s-1.738.782-1.738 1.75v.793c-3.349.794-5.25 3.78-5.25 7.374v5.833L5.488 19.88c-.735.735-.222 1.995.817 1.995H21.67c1.038 0 1.563-1.26.828-1.995l-1.493-1.505Zm-7.012 7a2.34 2.34 0 0 0 2.333-2.333H11.66a2.333 2.333 0 0 0 2.333 2.333ZM7.903 5.227a1.15 1.15 0 0 0 .035-1.669 1.166 1.166 0 0 0-1.622-.023 12.161 12.161 0 0 0-3.815 7.07 1.18 1.18 0 0 0 1.167 1.353c.56 0 1.05-.408 1.143-.968a9.847 9.847 0 0 1 3.092-5.763Zm13.802-1.692a1.18 1.18 0 0 0-1.634.023 1.146 1.146 0 0 0 .035 1.657 9.911 9.911 0 0 1 3.092 5.763c.082.56.572.969 1.143.969.712 0 1.272-.642 1.155-1.354a12.236 12.236 0 0 0-3.791-7.058Z" fill="currentColor"/></svg>