<svg width="28" height="28" fill="none" xmlns="http://www.w3.org/2000/svg"><path fill-rule="evenodd" clip-rule="evenodd" d="M19.448 15.318c1.599 1.085 2.719 2.555 2.719 4.515v3.5h3.5a1.17 1.17 0 0 0 1.166-1.166v-2.334c0-2.543-4.165-4.048-7.385-4.515Z" fill="currentColor"/><path d="M10.5 14a4.667 4.667 0 1 0 0-9.334 4.667 4.667 0 0 0 0 9.334Z" fill="currentColor"/><path fill-rule="evenodd" clip-rule="evenodd" d="M17.5 14a4.665 4.665 0 0 0 4.667-4.667A4.665 4.665 0 0 0 17.5 4.667c-.548 0-1.062.116-1.552.28a6.976 6.976 0 0 1 0 8.773c.49.163 1.004.28 1.552.28Zm-7 1.167c-3.115 0-9.333 1.563-9.333 4.666v2.334a1.17 1.17 0 0 0 1.166 1.166h16.334a1.17 1.17 0 0 0 1.166-1.166v-2.334c0-3.103-6.218-4.666-9.333-4.666Z" fill="currentColor"/></svg>