<svg width="16" height="16" fill="none" xmlns="http://www.w3.org/2000/svg"><path fill-rule="evenodd" clip-rule="evenodd" d="M11.113 8.753c.914.62 1.554 1.46 1.554 2.58v2h2c.366 0 .666-.3.666-.666v-1.334c0-1.453-2.38-2.313-4.22-2.58Z" fill="currentColor"/><path d="M6 8a2.667 2.667 0 1 0 0-5.333A2.667 2.667 0 0 0 6 8Z" fill="currentColor"/><path fill-rule="evenodd" clip-rule="evenodd" d="M10 8a2.666 2.666 0 1 0 0-5.333 2.77 2.77 0 0 0-.887.16 3.986 3.986 0 0 1 0 5.013c.28.093.574.16.887.16Zm-4 .667c-1.78 0-5.333.893-5.333 2.666v1.334c0 .366.3.666.666.666h9.334c.366 0 .666-.3.666-.666v-1.334C11.333 9.56 7.78 8.667 6 8.667Z" fill="currentColor"/></svg>