<svg width="16" height="16" fill="none" xmlns="http://www.w3.org/2000/svg"><path d="M10 8.667H3.333A1.337 1.337 0 0 0 2 10v2.667A1.337 1.337 0 0 0 3.333 14H10a1.337 1.337 0 0 0 1.333-1.333V10A1.337 1.337 0 0 0 10 8.667Zm-5.333 4a1.333 1.333 0 1 1 0-2.667 1.333 1.333 0 0 1 0 2.667Zm8-10.667H3.333A1.337 1.337 0 0 0 2 3.333V6a1.337 1.337 0 0 0 1.333 1.333h9.334A1.337 1.337 0 0 0 14 6V3.333A1.338 1.338 0 0 0 12.667 2Zm-8 4a1.333 1.333 0 1 1 0-2.667 1.333 1.333 0 0 1 0 2.667Z" fill="currentColor"/></svg>