<svg width="28" height="28" fill="none" xmlns="http://www.w3.org/2000/svg"><path d="M17.5 15.167H5.833A2.34 2.34 0 0 0 3.5 17.5v4.667A2.34 2.34 0 0 0 5.833 24.5H17.5a2.34 2.34 0 0 0 2.333-2.333V17.5a2.34 2.34 0 0 0-2.333-2.333Zm-9.333 7a2.333 2.333 0 1 1 2.333-2.334 2.34 2.34 0 0 1-2.333 2.334Zm14-18.667H5.833A2.34 2.34 0 0 0 3.5 5.833V10.5a2.34 2.34 0 0 0 2.333 2.333h16.334A2.34 2.34 0 0 0 24.5 10.5V5.833A2.34 2.34 0 0 0 22.167 3.5Zm-14 7A2.333 2.333 0 1 1 10.5 8.167 2.34 2.34 0 0 1 8.167 10.5Z" fill="currentColor"/></svg>