<svg width="16" height="16" fill="none" xmlns="http://www.w3.org/2000/svg"><path d="M6.05 14a1.318 1.318 0 0 1-.933-.383l-2.734-2.734A1.32 1.32 0 0 1 2 9.95v-3.9a1.319 1.319 0 0 1 .383-.933l2.734-2.734A1.319 1.319 0 0 1 6.05 2h3.9a1.32 1.32 0 0 1 .933.383l2.734 2.734A1.318 1.318 0 0 1 14 6.05v3.9a1.319 1.319 0 0 1-.383.933l-2.734 2.734A1.319 1.319 0 0 1 9.95 14h-3.9ZM8 11.333a.646.646 0 0 0 .475-.192.644.644 0 0 0 .192-.474.647.647 0 0 0-.192-.476A.647.647 0 0 0 8 10a.645.645 0 0 0-.475.191.646.646 0 0 0-.192.476.64.64 0 0 0 .192.474.643.643 0 0 0 .475.192Zm0-2.666a.646.646 0 0 0 .475-.192A.645.645 0 0 0 8.667 8V5.333a.647.647 0 0 0-.192-.475A.647.647 0 0 0 8 4.667a.645.645 0 0 0-.475.191.646.646 0 0 0-.192.475V8c0 .189.064.347.192.475A.643.643 0 0 0 8 8.667Z" fill="currentColor"/></svg>