<svg width="28" height="28" fill="none" xmlns="http://www.w3.org/2000/svg"><path d="M10.588 24.5a2.308 2.308 0 0 1-1.634-.67l-4.783-4.784a2.309 2.309 0 0 1-.67-1.633v-6.825a2.308 2.308 0 0 1 .67-1.634l4.783-4.783a2.308 2.308 0 0 1 1.633-.67h6.826a2.309 2.309 0 0 1 1.633.67l4.783 4.783a2.308 2.308 0 0 1 .67 1.633v6.826a2.308 2.308 0 0 1-.67 1.633l-4.783 4.783a2.308 2.308 0 0 1-1.633.67h-6.825ZM14 19.833c.33 0 .608-.112.832-.336.223-.223.335-.5.335-.83 0-.33-.112-.608-.335-.832A1.132 1.132 0 0 0 14 17.5c-.33 0-.607.112-.83.335a1.13 1.13 0 0 0-.337.832c0 .33.112.607.336.83.224.224.5.336.831.336Zm0-4.666c.33 0 .608-.112.832-.336.223-.224.335-.5.335-.831V9.333c0-.33-.112-.607-.335-.832A1.132 1.132 0 0 0 14 8.168c-.33 0-.607.111-.83.335a1.13 1.13 0 0 0-.337.831V14c0 .33.112.607.336.83.224.225.5.337.831.337Z" fill="currentColor"/></svg>