<svg width="28" height="28" fill="none" xmlns="http://www.w3.org/2000/svg"><path d="m21.525 24.325-6.27-6.27c-.565.388-1.22.7-1.969.933a8.153 8.153 0 0 1-2.436.35c-2.294 0-4.244-.803-5.847-2.407-1.605-1.604-2.407-3.553-2.407-5.848 0-2.294.802-4.244 2.407-5.848C6.606 3.63 8.556 2.829 10.85 2.829c2.294 0 4.244.802 5.847 2.406 1.605 1.604 2.407 3.554 2.407 5.848 0 .895-.116 1.706-.35 2.435a6.858 6.858 0 0 1-.933 1.911l6.329 6.359c.35.35.52.772.511 1.268-.01.496-.19.919-.54 1.269-.35.35-.783.525-1.299.525-.515 0-.947-.175-1.297-.525ZM10.85 15.663c1.283 0 2.367-.443 3.253-1.328.884-.885 1.326-1.968 1.326-3.252 0-1.283-.442-2.367-1.326-3.252-.886-.885-1.97-1.327-3.253-1.327-1.283 0-2.367.442-3.252 1.327-.885.885-1.327 1.969-1.327 3.252 0 1.284.442 2.367 1.327 3.252.885.885 1.969 1.327 3.252 1.327Z" fill="currentColor"/></svg>