<svg width="28" height="28" fill="none" xmlns="http://www.w3.org/2000/svg"><path d="m21.933 23.83-6.475-6.476a7.375 7.375 0 0 1-2.012 1.08 7.109 7.109 0 0 1-2.421.408c-2.158 0-3.986-.754-5.483-2.261-1.498-1.507-2.246-3.34-2.246-5.498 0-2.158.748-3.99 2.246-5.498 1.497-1.507 3.325-2.26 5.483-2.26 2.158 0 3.991.753 5.498 2.26 1.507 1.507 2.26 3.34 2.26 5.498a7.36 7.36 0 0 1-.393 2.421 6.685 6.685 0 0 1-1.065 1.984l6.504 6.533c.233.233.35.53.35.89s-.126.665-.379.918-.569.38-.947.38c-.38 0-.686-.127-.92-.38Zm-10.908-7.672c1.42 0 2.625-.49 3.617-1.473.991-.982 1.487-2.182 1.487-3.602s-.496-2.62-1.487-3.602c-.992-.982-2.198-1.473-3.617-1.473-1.42 0-2.62.491-3.602 1.473-.982.982-1.473 2.183-1.473 3.602 0 1.42.491 2.62 1.473 3.602.982.982 2.183 1.473 3.602 1.473Z" fill="currentColor"/></svg>