<svg width="24" height="24" fill="none" xmlns="http://www.w3.org/2000/svg"><path d="m18.45 20.85-5.375-5.375c-.483.333-1.046.6-1.687.8-.642.2-1.338.3-2.088.3-1.967 0-3.637-.688-5.012-2.063-1.375-1.375-2.063-3.045-2.063-5.012 0-1.967.688-3.638 2.063-5.013C5.663 3.112 7.333 2.425 9.3 2.425c1.967 0 3.637.687 5.012 2.062 1.375 1.375 2.063 3.046 2.063 5.013 0 .767-.1 1.462-.3 2.087a5.878 5.878 0 0 1-.8 1.638l5.425 5.45c.3.3.446.662.438 1.087a1.53 1.53 0 0 1-.463 1.088c-.3.3-.671.45-1.113.45a1.51 1.51 0 0 1-1.112-.45ZM9.3 13.425c1.1 0 2.03-.38 2.788-1.138.758-.758 1.137-1.687 1.137-2.787 0-1.1-.379-2.03-1.137-2.788-.759-.758-1.688-1.137-2.788-1.137-1.1 0-2.029.379-2.787 1.137C5.754 7.471 5.375 8.4 5.375 9.5c0 1.1.38 2.029 1.138 2.787.758.759 1.687 1.138 2.787 1.138Z" fill="currentColor"/></svg>