<svg width="16" height="16" fill="none" xmlns="http://www.w3.org/2000/svg"><path d="m12.533 13.617-3.7-3.7a4.218 4.218 0 0 1-1.15.616 4.065 4.065 0 0 1-1.383.234c-1.233 0-2.278-.431-3.133-1.292-.856-.861-1.284-1.908-1.284-3.142 0-1.233.428-2.28 1.284-3.142.855-.86 1.9-1.291 3.133-1.291s2.28.43 3.142 1.291c.86.862 1.291 1.909 1.291 3.142 0 .49-.075.95-.224 1.384A3.82 3.82 0 0 1 9.9 8.85l3.717 3.733c.133.134.2.303.2.509 0 .205-.073.38-.217.525a.735.735 0 0 1-.541.216.682.682 0 0 1-.526-.216ZM6.3 9.233c.811 0 1.5-.28 2.067-.842.566-.56.85-1.247.85-2.058 0-.81-.284-1.497-.85-2.058A2.831 2.831 0 0 0 6.3 3.433c-.811 0-1.497.28-2.058.842-.561.561-.842 1.247-.842 2.058 0 .811.28 1.497.842 2.058.56.562 1.247.842 2.058.842Z" fill="currentColor"/></svg>