<svg width="16" height="16" fill="none" xmlns="http://www.w3.org/2000/svg"><path d="m12.3 13.9-3.583-3.583c-.323.222-.697.4-1.125.533a4.66 4.66 0 0 1-1.392.2c-1.311 0-2.425-.459-3.341-1.375-.917-.917-1.376-2.03-1.376-3.342 0-1.31.459-2.425 1.376-3.342.916-.916 2.03-1.374 3.341-1.374 1.311 0 2.425.458 3.341 1.374.917.917 1.376 2.031 1.376 3.342 0 .511-.067.975-.2 1.392-.134.417-.311.78-.534 1.092L13.8 12.45c.2.2.297.442.292.725a1.02 1.02 0 0 1-.309.725c-.2.2-.447.3-.742.3-.294 0-.541-.1-.741-.3ZM6.2 8.95c.733 0 1.353-.253 1.859-.759.505-.505.758-1.124.758-1.858 0-.733-.253-1.353-.758-1.858-.506-.506-1.126-.758-1.859-.758-.733 0-1.353.252-1.858.758-.506.505-.759 1.125-.759 1.858 0 .734.253 1.353.759 1.858.505.506 1.125.759 1.858.759Z" fill="currentColor"/></svg>