<svg width="24" height="24" fill="none" xmlns="http://www.w3.org/2000/svg"><path d="m18.8 20.425-5.55-5.55c-.5.383-1.075.692-1.725.925-.65.233-1.342.35-2.075.35-1.85 0-3.417-.646-4.7-1.938C3.467 12.921 2.825 11.35 2.825 9.5c0-1.85.642-3.421 1.925-4.713C6.033 3.496 7.6 2.85 9.45 2.85s3.421.646 4.713 1.937C15.454 6.079 16.1 7.65 16.1 9.5a6.3 6.3 0 0 1-.337 2.075 5.73 5.73 0 0 1-.913 1.7l5.575 5.6c.2.2.3.454.3.763 0 .308-.108.57-.325.787a1.102 1.102 0 0 1-.812.325c-.325 0-.588-.108-.788-.325ZM9.45 13.85c1.217 0 2.25-.421 3.1-1.263.85-.841 1.275-1.87 1.275-3.087S13.4 7.254 12.55 6.412c-.85-.841-1.883-1.262-3.1-1.262s-2.246.42-3.087 1.262C5.521 7.254 5.1 8.283 5.1 9.5s.421 2.246 1.263 3.087c.841.842 1.87 1.263 3.087 1.263Z" fill="currentColor"/></svg>