<svg width="28" height="28" fill="none" xmlns="http://www.w3.org/2000/svg"><path d="M22.75 14c0-.268-.012-.525-.035-.793l2.17-1.645c.467-.35.595-1.004.303-1.517l-2.181-3.768a1.151 1.151 0 0 0-1.459-.49L19.04 6.848a8.855 8.855 0 0 0-1.365-.793l-.338-2.695a1.17 1.17 0 0 0-1.155-1.027H11.83c-.595 0-1.097.444-1.167 1.027l-.338 2.695c-.478.222-.933.49-1.365.793L6.452 5.787a1.151 1.151 0 0 0-1.459.49l-2.181 3.78a1.176 1.176 0 0 0 .303 1.516l2.17 1.645a9.02 9.02 0 0 0 0 1.575l-2.17 1.645a1.173 1.173 0 0 0-.303 1.517l2.181 3.768a1.15 1.15 0 0 0 1.459.49l2.508-1.061c.432.303.887.571 1.365.793l.338 2.695a1.17 1.17 0 0 0 1.155 1.027h4.352a1.17 1.17 0 0 0 1.155-1.027l.338-2.695a8.84 8.84 0 0 0 1.365-.793l2.509 1.061a1.151 1.151 0 0 0 1.458-.49l2.182-3.768a1.176 1.176 0 0 0-.304-1.517l-2.17-1.645c.035-.268.047-.525.047-.793Zm-8.703 4.083A4.088 4.088 0 0 1 9.963 14a4.088 4.088 0 0 1 4.084-4.083A4.088 4.088 0 0 1 18.13 14a4.088 4.088 0 0 1-4.083 4.083Z" fill="currentColor"/></svg>