<svg width="16" height="16" fill="none" xmlns="http://www.w3.org/2000/svg"><path d="M13 8c0-.153-.007-.3-.02-.453l1.24-.94a.67.67 0 0 0 .173-.867l-1.246-2.153a.658.658 0 0 0-.834-.28l-1.433.606a5.062 5.062 0 0 0-.78-.453l-.193-1.54a.669.669 0 0 0-.66-.587H6.76a.67.67 0 0 0-.667.587L5.9 3.46c-.273.127-.533.28-.78.453l-1.433-.606a.658.658 0 0 0-.834.28l-1.246 2.16a.672.672 0 0 0 .173.866l1.24.94a4.897 4.897 0 0 0 0 .9l-1.24.94a.67.67 0 0 0-.173.867l1.246 2.153a.658.658 0 0 0 .834.28l1.433-.606c.247.173.507.326.78.453l.193 1.54a.67.67 0 0 0 .66.587H9.24a.67.67 0 0 0 .66-.587l.193-1.54c.274-.127.534-.28.78-.453l1.434.606a.658.658 0 0 0 .833-.28l1.247-2.153a.672.672 0 0 0-.174-.867l-1.24-.94c.02-.153.027-.3.027-.453Zm-4.973 2.333A2.336 2.336 0 0 1 5.693 8a2.336 2.336 0 0 1 2.334-2.333A2.336 2.336 0 0 1 10.36 8a2.336 2.336 0 0 1-2.333 2.333Z" fill="currentColor"/></svg>