<svg width="16" height="16" fill="none" xmlns="http://www.w3.org/2000/svg"><path d="M9.65 10.667c.133.133.297.2.492.2a.695.695 0 0 0 .508-.217.69.69 0 0 0 .2-.509.688.688 0 0 0-.2-.508L8.733 7.7V5.4a.685.685 0 0 0-.208-.517.729.729 0 0 0-.525-.2.711.711 0 0 0-.733.734v2.55a.783.783 0 0 0 .233.55l2.15 2.15ZM8 14.8c-.944 0-1.83-.178-2.659-.533a6.832 6.832 0 0 1-2.158-1.45 6.832 6.832 0 0 1-1.45-2.158A6.666 6.666 0 0 1 1.2 8c0-.944.178-1.83.533-2.659a6.831 6.831 0 0 1 1.45-2.158 6.831 6.831 0 0 1 2.158-1.45A6.666 6.666 0 0 1 8 1.2c.944 0 1.83.178 2.659.533a6.832 6.832 0 0 1 2.158 1.45 6.832 6.832 0 0 1 1.45 2.158c.355.828.533 1.715.533 2.659 0 .944-.178 1.83-.533 2.659a6.833 6.833 0 0 1-1.45 2.158 6.833 6.833 0 0 1-2.158 1.45A6.667 6.667 0 0 1 8 14.8Zm0-1.517c1.467 0 2.714-.513 3.742-1.541S13.283 9.467 13.283 8s-.513-2.714-1.541-3.742S9.467 2.717 8 2.717s-2.714.513-3.741 1.541C3.23 5.286 2.717 6.533 2.717 8s.514 2.714 1.542 3.742C5.286 12.77 6.533 13.283 8 13.283Z" fill="currentColor"/></svg>