<svg width="28" height="28" fill="none" xmlns="http://www.w3.org/2000/svg"><path d="M16.887 18.667c.234.233.52.35.861.35.34 0 .637-.127.89-.38.233-.233.35-.53.35-.89 0-.359-.117-.655-.35-.889l-3.355-3.383V9.45c0-.37-.121-.67-.364-.904-.243-.233-.55-.35-.919-.35a1.245 1.245 0 0 0-1.283 1.283v4.463c0 .175.034.345.102.51.068.165.17.316.306.452l3.762 3.763ZM14 25.9c-1.653 0-3.204-.311-4.653-.933a11.955 11.955 0 0 1-3.776-2.538 11.956 11.956 0 0 1-2.538-3.776c-.622-1.45-.933-3-.933-4.653 0-1.653.311-3.204.933-4.653a11.955 11.955 0 0 1 2.538-3.776 11.955 11.955 0 0 1 3.776-2.538c1.45-.622 3-.933 4.653-.933 1.653 0 3.204.311 4.653.933a11.956 11.956 0 0 1 3.776 2.538 11.955 11.955 0 0 1 2.538 3.776c.622 1.45.933 3 .933 4.653 0 1.653-.311 3.204-.933 4.653a11.956 11.956 0 0 1-2.538 3.776 11.956 11.956 0 0 1-3.776 2.538c-1.45.622-3 .933-4.653.933Zm0-2.654c2.567 0 4.75-.9 6.549-2.697 1.798-1.8 2.697-3.982 2.697-6.549s-.9-4.75-2.697-6.548c-1.8-1.799-3.982-2.698-6.549-2.698s-4.75.9-6.547 2.698C5.653 9.25 4.754 11.433 4.754 14s.9 4.75 2.699 6.549c1.798 1.798 3.98 2.697 6.547 2.697Z" fill="currentColor"/></svg>