<svg width="16" height="16" fill="none" xmlns="http://www.w3.org/2000/svg"><path d="M9.75 10.683a.612.612 0 0 0 .45.184.64.64 0 0 0 .467-.2.632.632 0 0 0 .183-.467.632.632 0 0 0-.183-.467l-2-2V5.317a.618.618 0 0 0-.192-.467A.662.662 0 0 0 8 4.667a.645.645 0 0 0-.475.191.646.646 0 0 0-.192.475v2.65a.687.687 0 0 0 .2.484l2.217 2.216ZM8 14.667a6.489 6.489 0 0 1-2.6-.526 6.728 6.728 0 0 1-2.117-1.424A6.727 6.727 0 0 1 1.86 10.6 6.488 6.488 0 0 1 1.333 8c0-.922.175-1.789.526-2.6a6.728 6.728 0 0 1 1.424-2.117c.6-.6 1.306-1.075 2.117-1.425A6.495 6.495 0 0 1 8 1.333c.922 0 1.789.175 2.6.525.811.35 1.517.825 2.117 1.425.6.6 1.075 1.306 1.424 2.117.35.811.526 1.678.526 2.6 0 .922-.175 1.789-.526 2.6a6.725 6.725 0 0 1-1.424 2.117c-.6.6-1.306 1.075-2.117 1.424a6.488 6.488 0 0 1-2.6.526Z" fill="currentColor"/></svg>