<svg width="24" height="24" fill="none" xmlns="http://www.w3.org/2000/svg"><path d="M14.475 16c.2.2.446.3.738.3.291 0 .545-.108.762-.325.2-.2.3-.454.3-.763 0-.308-.1-.562-.3-.762l-2.875-2.9V8.1c0-.317-.104-.575-.312-.775-.209-.2-.471-.3-.788-.3a1.067 1.067 0 0 0-1.1 1.1v3.825a1.175 1.175 0 0 0 .35.825L14.475 16ZM12 22.2a10 10 0 0 1-3.988-.8 10.246 10.246 0 0 1-3.237-2.175A10.248 10.248 0 0 1 2.6 15.988 9.999 9.999 0 0 1 1.8 12c0-1.417.267-2.746.8-3.988a10.247 10.247 0 0 1 2.175-3.237A10.247 10.247 0 0 1 8.012 2.6 9.999 9.999 0 0 1 12 1.8c1.417 0 2.746.267 3.988.8a10.248 10.248 0 0 1 3.237 2.175A10.246 10.246 0 0 1 21.4 8.012 10 10 0 0 1 22.2 12a10 10 0 0 1-.8 3.988 10.247 10.247 0 0 1-2.175 3.237 10.247 10.247 0 0 1-3.237 2.175 10 10 0 0 1-3.988.8Zm0-2.275c2.2 0 4.071-.77 5.613-2.312 1.541-1.542 2.312-3.413 2.312-5.613 0-2.2-.77-4.071-2.312-5.613C16.071 4.846 14.2 4.075 12 4.075c-2.2 0-4.07.77-5.612 2.312C4.846 7.929 4.075 9.8 4.075 12c0 2.2.771 4.071 2.313 5.613C7.929 19.154 9.8 19.925 12 19.925Z" fill="currentColor"/></svg>