<svg width="28" height="28" fill="none" xmlns="http://www.w3.org/2000/svg"><path d="M17.063 18.696c.213.214.476.32.787.32.311 0 .583-.116.817-.35.214-.213.32-.485.32-.816 0-.33-.106-.603-.32-.817l-3.5-3.5V9.304c0-.33-.112-.603-.335-.816A1.158 1.158 0 0 0 14 8.167c-.33 0-.607.111-.83.335a1.13 1.13 0 0 0-.337.831v4.638a1.207 1.207 0 0 0 .35.846l3.88 3.879ZM14 25.666c-1.614 0-3.13-.306-4.55-.919a11.774 11.774 0 0 1-3.704-2.493 11.773 11.773 0 0 1-2.493-3.704 11.354 11.354 0 0 1-.92-4.55c0-1.614.307-3.13.92-4.55a11.774 11.774 0 0 1 2.493-3.704A11.79 11.79 0 0 1 9.45 3.252 11.367 11.367 0 0 1 14 2.333c1.614 0 3.13.306 4.55.919a11.79 11.79 0 0 1 3.704 2.494 11.773 11.773 0 0 1 2.493 3.704c.613 1.42.92 2.936.92 4.55 0 1.614-.307 3.13-.92 4.55a11.773 11.773 0 0 1-2.493 3.704 11.773 11.773 0 0 1-3.704 2.493c-1.42.613-2.936.92-4.55.92Z" fill="currentColor"/></svg>