<svg width="24" height="24" fill="none" xmlns="http://www.w3.org/2000/svg"><path d="M14.625 16.025a.918.918 0 0 0 .675.275c.267 0 .5-.1.7-.3a.948.948 0 0 0 .275-.7.948.948 0 0 0-.275-.7l-3-3V7.975a.928.928 0 0 0-.287-.7A.993.993 0 0 0 12 7a.967.967 0 0 0-.712.287A.968.968 0 0 0 11 8v3.975a1.03 1.03 0 0 0 .3.725l3.325 3.325ZM12 22a9.733 9.733 0 0 1-3.9-.788 10.092 10.092 0 0 1-3.175-2.137c-.9-.9-1.612-1.958-2.137-3.175A9.733 9.733 0 0 1 2 12a9.74 9.74 0 0 1 .788-3.9 10.092 10.092 0 0 1 2.137-3.175c.9-.9 1.958-1.613 3.175-2.138A9.743 9.743 0 0 1 12 2a9.74 9.74 0 0 1 3.9.787 10.105 10.105 0 0 1 3.175 2.138c.9.9 1.612 1.958 2.137 3.175A9.733 9.733 0 0 1 22 12a9.733 9.733 0 0 1-.788 3.9 10.092 10.092 0 0 1-2.137 3.175c-.9.9-1.958 1.612-3.175 2.137A9.733 9.733 0 0 1 12 22Z" fill="currentColor"/></svg>