<svg width="16" height="16" fill="none" xmlns="http://www.w3.org/2000/svg"><path d="M6 11a1.61 1.61 0 0 1-1.183-.483 1.61 1.61 0 0 1-.484-1.184c0-.466.161-.86.484-1.183A1.61 1.61 0 0 1 6 7.667c.467 0 .861.16 1.183.483.323.322.484.717.484 1.183 0 .467-.161.861-.484 1.184A1.61 1.61 0 0 1 6 11Zm-2.667 3.667c-.366 0-.68-.13-.942-.392A1.286 1.286 0 0 1 2 13.333V4c0-.367.13-.68.391-.941.262-.262.576-.392.942-.392H4V2c0-.189.064-.347.191-.475a.647.647 0 0 1 .476-.192c.189 0 .347.064.475.192A.647.647 0 0 1 5.333 2v.667h5.334V2c0-.189.064-.347.192-.475a.644.644 0 0 1 .474-.192c.19 0 .347.064.475.192A.646.646 0 0 1 12 2v.667h.667c.366 0 .68.13.942.392.26.26.391.574.391.941v9.333c0 .367-.13.681-.391.942a1.288 1.288 0 0 1-.942.392H3.333Zm0-1.334h9.334V6.667H3.333v6.666Z" fill="currentColor"/></svg>