<svg width="28" height="28" fill="none" xmlns="http://www.w3.org/2000/svg"><path d="M10.5 19.25c-.817 0-1.507-.282-2.07-.846-.565-.564-.847-1.254-.847-2.07 0-.817.282-1.508.846-2.072.564-.563 1.254-.845 2.071-.845.817 0 1.507.282 2.07.845.565.564.847 1.255.847 2.071 0 .817-.282 1.507-.846 2.071-.564.564-1.254.846-2.071.846Zm-4.667 6.417a2.25 2.25 0 0 1-1.648-.685 2.25 2.25 0 0 1-.685-1.649V7c0-.642.228-1.19.685-1.647a2.248 2.248 0 0 1 1.648-.686H7V3.5c0-.33.112-.608.335-.832.224-.223.501-.335.832-.335.33 0 .607.112.832.335.223.224.334.501.334.832v1.167h9.334V3.5c0-.33.112-.608.336-.832.223-.223.5-.335.83-.335.33 0 .608.112.831.335.224.224.336.501.336.832v1.167h1.167c.641 0 1.19.228 1.648.686.457.456.685 1.005.685 1.647v16.333a2.25 2.25 0 0 1-.685 1.649 2.25 2.25 0 0 1-1.648.685H5.833Zm0-2.334h16.334V11.667H5.833v11.666Z" fill="currentColor"/></svg>