<svg width="28" height="28" fill="none" xmlns="http://www.w3.org/2000/svg"><path d="M9.333 23.333a1.167 1.167 0 0 1-1.166-1.166V21c0-3.102 6.22-4.667 9.333-4.667 3.114 0 9.333 1.564 9.333 4.667v1.167a1.166 1.166 0 0 1-1.166 1.166H9.333Zm-3.5-8.088V14h-3.5a1.167 1.167 0 0 1 0-2.333h3.5V10.42a.934.934 0 0 1 1.593-.661l2.413 2.414a.933.933 0 0 1 0 1.32l-2.413 2.412a.918.918 0 0 1-1.013.206.935.935 0 0 1-.58-.866v-.001Zm7-5.912a4.667 4.667 0 1 1 9.335 0 4.667 4.667 0 0 1-9.335 0Z" fill="currentColor"/></svg>