<svg width="16" height="16" fill="none" xmlns="http://www.w3.org/2000/svg"><path d="M8 4.313a3.335 3.335 0 0 1 3.333 3.334c0 .34-.066.666-.16.973l2.04 2.04a7.868 7.868 0 0 0 2.12-3.02 7.888 7.888 0 0 0-9.76-4.613L7.02 4.473c.313-.093.64-.16.98-.16ZM1.807 2.087c-.26.26-.26.68 0 .94L3.12 4.34A7.928 7.928 0 0 0 .667 7.647c1.153 2.926 4 5 7.333 5 1.013 0 1.98-.2 2.873-.547l1.814 1.813a.664.664 0 1 0 .94-.94L2.753 2.087a.672.672 0 0 0-.946 0ZM8 10.98a3.335 3.335 0 0 1-3.333-3.333c0-.514.12-1 .326-1.427L6.04 7.267c-.02.12-.04.246-.04.38 0 1.106.893 2 2 2 .133 0 .253-.02.38-.047l1.047 1.047A3.208 3.208 0 0 1 8 10.98Zm1.98-3.553a1.98 1.98 0 0 0-1.76-1.76l1.76 1.76Z" fill="currentColor"/></svg>