<svg width="28" height="28" fill="none" xmlns="http://www.w3.org/2000/svg"><path d="M14 7.548a5.835 5.835 0 0 1 5.833 5.834 5.85 5.85 0 0 1-.28 1.703l3.57 3.57a13.769 13.769 0 0 0 3.71-5.285c-2.018-5.11-7-8.738-12.833-8.738-1.482 0-2.905.233-4.247.665l2.532 2.531c.548-.163 1.12-.28 1.715-.28ZM3.162 3.652a1.162 1.162 0 0 0 0 1.645L5.46 7.595a13.874 13.874 0 0 0-4.293 5.787c2.018 5.121 7 8.75 12.833 8.75 1.773 0 3.465-.35 5.028-.957l3.174 3.173c.455.455 1.19.455 1.645 0a1.162 1.162 0 0 0 0-1.645L4.818 3.652a1.176 1.176 0 0 0-1.656 0ZM14 19.215a5.835 5.835 0 0 1-5.833-5.833c0-.899.21-1.75.571-2.497l1.832 1.832c-.035.21-.07.431-.07.665 0 1.936 1.563 3.5 3.5 3.5.233 0 .443-.035.665-.082l1.832 1.832a5.616 5.616 0 0 1-2.497.583Zm3.465-6.218a3.464 3.464 0 0 0-3.08-3.08l3.08 3.08Z" fill="currentColor"/></svg>