<svg width="24" height="24" viewBox="0 0 24 24" fill="none" xmlns="http://www.w3.org/2000/svg">
<path d="M6 20C6 20.2833 5.90417 20.5208 5.7125 20.7125C5.52083 20.9042 5.28333 21 5 21H2C1.71667 21 1.47917 20.9042 1.2875 20.7125C1.09583 20.5208 1 20.2833 1 20V17C1 16.7167 1.09583 16.4792 1.2875 16.2875C1.47917 16.0958 1.71667 16 2 16C2.28333 16 2.52083 16.0958 2.7125 16.2875C2.90417 16.4792 3 16.7167 3 17V19H5C5.28333 19 5.52083 19.0958 5.7125 19.2875C5.90417 19.4792 6 19.7167 6 20ZM22 16C22.2833 16 22.5208 16.0958 22.7125 16.2875C22.9042 16.4792 23 16.7167 23 17V20C23 20.2833 22.9042 20.5208 22.7125 20.7125C22.5208 20.9042 22.2833 21 22 21H19C18.7167 21 18.4792 20.9042 18.2875 20.7125C18.0958 20.5208 18 20.2833 18 20C18 19.7167 18.0958 19.4792 18.2875 19.2875C18.4792 19.0958 18.7167 19 19 19H21V17C21 16.7167 21.0958 16.4792 21.2875 16.2875C21.4792 16.0958 21.7167 16 22 16ZM4.5 18C4.36667 18 4.25 17.95 4.15 17.85C4.05 17.75 4 17.6333 4 17.5V6.5C4 6.36667 4.05 6.25 4.15 6.15C4.25 6.05 4.36667 6 4.5 6H5.5C5.63333 6 5.75 6.05 5.85 6.15C5.95 6.25 6 6.36667 6 6.5V17.5C6 17.6333 5.95 17.75 5.85 17.85C5.75 17.95 5.63333 18 5.5 18H4.5ZM7.5 18C7.36667 18 7.25 17.95 7.15 17.85C7.05 17.75 7 17.6333 7 17.5V6.5C7 6.36667 7.05 6.25 7.15 6.15C7.25 6.05 7.36667 6 7.5 6C7.63333 6 7.75 6.05 7.85 6.15C7.95 6.25 8 6.36667 8 6.5V17.5C8 17.6333 7.95 17.75 7.85 17.85C7.75 17.95 7.63333 18 7.5 18ZM10.5 18C10.3667 18 10.25 17.95 10.15 17.85C10.05 17.75 10 17.6333 10 17.5V6.5C10 6.36667 10.05 6.25 10.15 6.15C10.25 6.05 10.3667 6 10.5 6H11.5C11.6333 6 11.75 6.05 11.85 6.15C11.95 6.25 12 6.36667 12 6.5V17.5C12 17.6333 11.95 17.75 11.85 17.85C11.75 17.95 11.6333 18 11.5 18H10.5ZM13.5 18C13.3667 18 13.25 17.95 13.15 17.85C13.05 17.75 13 17.6333 13 17.5V6.5C13 6.36667 13.05 6.25 13.15 6.15C13.25 6.05 13.3667 6 13.5 6H15.5C15.6333 6 15.75 6.05 15.85 6.15C15.95 6.25 16 6.36667 16 6.5V17.5C16 17.6333 15.95 17.75 15.85 17.85C15.75 17.95 15.6333 18 15.5 18H13.5ZM17.5 18C17.3667 18 17.25 17.95 17.15 17.85C17.05 17.75 17 17.6333 17 17.5V6.5C17 6.36667 17.05 6.25 17.15 6.15C17.25 6.05 17.3667 6 17.5 6C17.6333 6 17.75 6.05 17.85 6.15C17.95 6.25 18 6.36667 18 6.5V17.5C18 17.6333 17.95 17.75 17.85 17.85C17.75 17.95 17.6333 18 17.5 18ZM19.5 18C19.3667 18 19.25 17.95 19.15 17.85C19.05 17.75 19 17.6333 19 17.5V6.5C19 6.36667 19.05 6.25 19.15 6.15C19.25 6.05 19.3667 6 19.5 6C19.6333 6 19.75 6.05 19.85 6.15C19.95 6.25 20 6.36667 20 6.5V17.5C20 17.6333 19.95 17.75 19.85 17.85C19.75 17.95 19.6333 18 19.5 18ZM6 4C6 4.28333 5.90417 4.52083 5.7125 4.7125C5.52083 4.90417 5.28333 5 5 5H3V7C3 7.28333 2.90417 7.52083 2.7125 7.7125C2.52083 7.90417 2.28333 8 2 8C1.71667 8 1.47917 7.90417 1.2875 7.7125C1.09583 7.52083 1 7.28333 1 7V4C1 3.71667 1.09583 3.47917 1.2875 3.2875C1.47917 3.09583 1.71667 3 2 3H5C5.28333 3 5.52083 3.09583 5.7125 3.2875C5.90417 3.47917 6 3.71667 6 4ZM18 4C18 3.71667 18.0958 3.47917 18.2875 3.2875C18.4792 3.09583 18.7167 3 19 3H22C22.2833 3 22.5208 3.09583 22.7125 3.2875C22.9042 3.47917 23 3.71667 23 4V7C23 7.28333 22.9042 7.52083 22.7125 7.7125C22.5208 7.90417 22.2833 8 22 8C21.7167 8 21.4792 7.90417 21.2875 7.7125C21.0958 7.52083 21 7.28333 21 7V5H19C18.7167 5 18.4792 4.90417 18.2875 4.7125C18.0958 4.52083 18 4.28333 18 4Z" fill="#1F1F1F"/>
</svg>
