<svg width="24" height="24" viewBox="0 0 24 24" fill="none" xmlns="http://www.w3.org/2000/svg">
<path d="M8.8 10.95L10.95 8.775L9.55 7.35L9.15 7.75C8.96667 7.93334 8.7375 8.02917 8.4625 8.0375C8.1875 8.04584 7.95 7.95 7.75 7.75C7.55 7.55 7.45 7.3125 7.45 7.0375C7.45 6.7625 7.55 6.525 7.75 6.325L8.125 5.95L7 4.825L4.825 7L8.8 10.95ZM17 19.175L19.175 17L18.05 15.875L17.65 16.25C17.45 16.45 17.2167 16.55 16.95 16.55C16.6833 16.55 16.45 16.45 16.25 16.25C16.05 16.05 15.95 15.8167 15.95 15.55C15.95 15.2833 16.05 15.05 16.25 14.85L16.625 14.45L15.2 13.05L13.05 15.2L17 19.175ZM16.225 6.425L17.625 7.825L19.025 6.425L17.6 5L16.225 6.425ZM4 21C3.71667 21 3.47917 20.9042 3.2875 20.7125C3.09583 20.5208 3 20.2833 3 20V17.175C3 17.0417 3.025 16.9125 3.075 16.7875C3.125 16.6625 3.2 16.55 3.3 16.45L7.375 12.375L3.05 8.05C2.76667 7.76667 2.625 7.41667 2.625 7C2.625 6.58334 2.76667 6.23334 3.05 5.95L5.95 3.05C6.23333 2.76667 6.58333 2.62917 7 2.6375C7.41667 2.64584 7.76667 2.79167 8.05 3.075L12.4 7.4L16.175 3.6C16.375 3.4 16.6 3.25 16.85 3.15C17.1 3.05 17.3583 3 17.625 3C17.8917 3 18.15 3.05 18.4 3.15C18.65 3.25 18.875 3.4 19.075 3.6L20.4 4.95C20.6 5.15 20.75 5.375 20.85 5.625C20.95 5.875 21 6.13334 21 6.4C21 6.66667 20.95 6.92084 20.85 7.1625C20.75 7.40417 20.6 7.625 20.4 7.825L16.625 11.625L20.95 15.95C21.2333 16.2333 21.375 16.5833 21.375 17C21.375 17.4167 21.2333 17.7667 20.95 18.05L18.05 20.95C17.7667 21.2333 17.4167 21.375 17 21.375C16.5833 21.375 16.2333 21.2333 15.95 20.95L11.625 16.625L7.55 20.7C7.45 20.8 7.3375 20.875 7.2125 20.925C7.0875 20.975 6.95833 21 6.825 21H4Z" fill="#1F1F1F"/>
</svg>
