<svg width="24" height="24" viewBox="0 0 24 24" fill="none" xmlns="http://www.w3.org/2000/svg">
<path d="M6 20C5.71667 20 5.47917 19.9042 5.2875 19.7125C5.09583 19.5208 5 19.2833 5 19C5 18.7167 5.09583 18.4792 5.2875 18.2875C5.47917 18.0958 5.71667 18 6 18H6.6L8.575 11.425C8.70833 10.9917 8.95417 10.6458 9.3125 10.3875C9.67083 10.1292 10.0667 10 10.5 10H13.5C13.9333 10 14.3292 10.1292 14.6875 10.3875C15.0458 10.6458 15.2917 10.9917 15.425 11.425L17.4 18H18C18.2833 18 18.5208 18.0958 18.7125 18.2875C18.9042 18.4792 19 18.7167 19 19C19 19.2833 18.9042 19.5208 18.7125 19.7125C18.5208 19.9042 18.2833 20 18 20H6ZM11 7V4C11 3.71667 11.0958 3.47917 11.2875 3.2875C11.4792 3.09583 11.7167 3 12 3C12.2833 3 12.5208 3.09583 12.7125 3.2875C12.9042 3.47917 13 3.71667 13 4V7C13 7.28333 12.9042 7.52083 12.7125 7.7125C12.5208 7.90417 12.2833 8 12 8C11.7167 8 11.4792 7.90417 11.2875 7.7125C11.0958 7.52083 11 7.28333 11 7ZM16.25 8.35L18.375 6.225C18.5583 6.04167 18.7875 5.94583 19.0625 5.9375C19.3375 5.92917 19.575 6.025 19.775 6.225C19.9583 6.40833 20.05 6.64167 20.05 6.925C20.05 7.20833 19.9583 7.44167 19.775 7.625L17.65 9.775C17.45 9.975 17.2167 10.075 16.95 10.075C16.6833 10.075 16.45 9.975 16.25 9.775C16.05 9.575 15.95 9.3375 15.95 9.0625C15.95 8.7875 16.05 8.55 16.25 8.35ZM19 13H22C22.2833 13 22.5208 13.0958 22.7125 13.2875C22.9042 13.4792 23 13.7167 23 14C23 14.2833 22.9042 14.5208 22.7125 14.7125C22.5208 14.9042 22.2833 15 22 15H19C18.7167 15 18.4792 14.9042 18.2875 14.7125C18.0958 14.5208 18 14.2833 18 14C18 13.7167 18.0958 13.4792 18.2875 13.2875C18.4792 13.0958 18.7167 13 19 13ZM6.35 9.75L4.225 7.625C4.04167 7.44167 3.94583 7.2125 3.9375 6.9375C3.92917 6.6625 4.025 6.425 4.225 6.225C4.40833 6.04167 4.64167 5.95 4.925 5.95C5.20833 5.95 5.44167 6.04167 5.625 6.225L7.775 8.35C7.975 8.55 8.075 8.78333 8.075 9.05C8.075 9.31667 7.975 9.55 7.775 9.75C7.575 9.95 7.3375 10.05 7.0625 10.05C6.7875 10.05 6.55 9.95 6.35 9.75ZM2 15C1.71667 15 1.47917 14.9042 1.2875 14.7125C1.09583 14.5208 1 14.2833 1 14C1 13.7167 1.09583 13.4792 1.2875 13.2875C1.47917 13.0958 1.71667 13 2 13H5C5.28333 13 5.52083 13.0958 5.7125 13.2875C5.90417 13.4792 6 13.7167 6 14C6 14.2833 5.90417 14.5208 5.7125 14.7125C5.52083 14.9042 5.28333 15 5 15H2Z" fill="#1F1F1F"/>
</svg>
