<svg width="24" height="24" viewBox="0 0 24 24" fill="none" xmlns="http://www.w3.org/2000/svg">
<path d="M8.375 16.25L13.425 14.8C13.7583 14.7 14.0458 14.5292 14.2875 14.2875C14.5292 14.0458 14.7 13.7583 14.8 13.425L16.25 8.375C16.3 8.19167 16.2542 8.02917 16.1125 7.8875C15.9708 7.74583 15.8083 7.7 15.625 7.75L10.575 9.2C10.2417 9.3 9.95417 9.47083 9.7125 9.7125C9.47083 9.95417 9.3 10.2417 9.2 10.575L7.75 15.625C7.7 15.8083 7.74583 15.9708 7.8875 16.1125C8.02917 16.2542 8.19167 16.3 8.375 16.25ZM12 13.5C11.5833 13.5 11.2292 13.3542 10.9375 13.0625C10.6458 12.7708 10.5 12.4167 10.5 12C10.5 11.5833 10.6458 11.2292 10.9375 10.9375C11.2292 10.6458 11.5833 10.5 12 10.5C12.4167 10.5 12.7708 10.6458 13.0625 10.9375C13.3542 11.2292 13.5 11.5833 13.5 12C13.5 12.4167 13.3542 12.7708 13.0625 13.0625C12.7708 13.3542 12.4167 13.5 12 13.5ZM12 22C10.6167 22 9.31667 21.7375 8.1 21.2125C6.88333 20.6875 5.825 19.975 4.925 19.075C4.025 18.175 3.3125 17.1167 2.7875 15.9C2.2625 14.6833 2 13.3833 2 12C2 10.6167 2.2625 9.31667 2.7875 8.1C3.3125 6.88333 4.025 5.825 4.925 4.925C5.825 4.025 6.88333 3.3125 8.1 2.7875C9.31667 2.2625 10.6167 2 12 2C13.3833 2 14.6833 2.2625 15.9 2.7875C17.1167 3.3125 18.175 4.025 19.075 4.925C19.975 5.825 20.6875 6.88333 21.2125 8.1C21.7375 9.31667 22 10.6167 22 12C22 13.3833 21.7375 14.6833 21.2125 15.9C20.6875 17.1167 19.975 18.175 19.075 19.075C18.175 19.975 17.1167 20.6875 15.9 21.2125C14.6833 21.7375 13.3833 22 12 22Z" fill="#1F1F1F"/>
</svg>
