<svg width="24" height="24" viewBox="0 0 24 24" fill="none" xmlns="http://www.w3.org/2000/svg">
<path d="M5.44999 21.4L2.59999 18.55C2.21666 18.1667 2.02499 17.7 2.02499 17.15C2.02499 16.6 2.21666 16.1334 2.59999 15.75L15.75 2.60002C16.1333 2.21669 16.6 2.02502 17.15 2.02502C17.7 2.02502 18.1667 2.21669 18.55 2.60002L21.4 5.45002C21.7833 5.83336 21.975 6.30002 21.975 6.85002C21.975 7.40002 21.7833 7.86669 21.4 8.25002L8.24999 21.4C7.86666 21.7834 7.39999 21.975 6.84999 21.975C6.29999 21.975 5.83333 21.7834 5.44999 21.4ZM12.7 18.35L18.35 12.7L21.4 15.75C21.7833 16.1334 21.975 16.6 21.975 17.15C21.975 17.7 21.7833 18.1667 21.4 18.55L18.55 21.4C18.1667 21.7834 17.7 21.975 17.15 21.975C16.6 21.975 16.1333 21.7834 15.75 21.4L12.7 18.35ZM12 15C12.2833 15 12.5208 14.9042 12.7125 14.7125C12.9042 14.5209 13 14.2834 13 14C13 13.7167 12.9042 13.4792 12.7125 13.2875C12.5208 13.0959 12.2833 13 12 13C11.7167 13 11.4792 13.0959 11.2875 13.2875C11.0958 13.4792 11 13.7167 11 14C11 14.2834 11.0958 14.5209 11.2875 14.7125C11.4792 14.9042 11.7167 15 12 15ZM9.99999 13C10.2833 13 10.5208 12.9042 10.7125 12.7125C10.9042 12.5209 11 12.2834 11 12C11 11.7167 10.9042 11.4792 10.7125 11.2875C10.5208 11.0959 10.2833 11 9.99999 11C9.71666 11 9.47916 11.0959 9.28749 11.2875C9.09583 11.4792 8.99999 11.7167 8.99999 12C8.99999 12.2834 9.09583 12.5209 9.28749 12.7125C9.47916 12.9042 9.71666 13 9.99999 13ZM14 13C14.2833 13 14.5208 12.9042 14.7125 12.7125C14.9042 12.5209 15 12.2834 15 12C15 11.7167 14.9042 11.4792 14.7125 11.2875C14.5208 11.0959 14.2833 11 14 11C13.7167 11 13.4792 11.0959 13.2875 11.2875C13.0958 11.4792 13 11.7167 13 12C13 12.2834 13.0958 12.5209 13.2875 12.7125C13.4792 12.9042 13.7167 13 14 13ZM5.62499 11.275L2.59999 8.25002C2.21666 7.86669 2.02499 7.40002 2.02499 6.85002C2.02499 6.30002 2.21666 5.83336 2.59999 5.45002L5.44999 2.60002C5.83333 2.21669 6.29999 2.02502 6.84999 2.02502C7.39999 2.02502 7.86666 2.21669 8.24999 2.60002L11.3 5.65002L5.62499 11.275ZM12 11C12.2833 11 12.5208 10.9042 12.7125 10.7125C12.9042 10.5209 13 10.2834 13 10C13 9.71669 12.9042 9.47919 12.7125 9.28752C12.5208 9.09586 12.2833 9.00002 12 9.00002C11.7167 9.00002 11.4792 9.09586 11.2875 9.28752C11.0958 9.47919 11 9.71669 11 10C11 10.2834 11.0958 10.5209 11.2875 10.7125C11.4792 10.9042 11.7167 11 12 11Z" fill="#1F1F1F"/>
</svg>
