<svg width="24" height="24" viewBox="0 0 24 24" fill="none" xmlns="http://www.w3.org/2000/svg">
<path d="M6.7 21C6.21666 21 5.7875 20.8417 5.4125 20.525C5.0375 20.2083 4.80833 19.8083 4.725 19.325L3.2 10.175C3.15 9.875 3.22083 9.60417 3.4125 9.3625C3.60416 9.12083 3.85833 9 4.175 9H19.825C20.1417 9 20.3958 9.12083 20.5875 9.3625C20.7792 9.60417 20.85 9.875 20.8 10.175L19.275 19.325C19.1917 19.8083 18.9625 20.2083 18.5875 20.525C18.2125 20.8417 17.7833 21 17.3 21H6.7ZM10 15H14C14.2833 15 14.5208 14.9042 14.7125 14.7125C14.9042 14.5208 15 14.2833 15 14C15 13.7167 14.9042 13.4792 14.7125 13.2875C14.5208 13.0958 14.2833 13 14 13H10C9.71666 13 9.47916 13.0958 9.2875 13.2875C9.09583 13.4792 9 13.7167 9 14C9 14.2833 9.09583 14.5208 9.2875 14.7125C9.47916 14.9042 9.71666 15 10 15ZM6 8C5.71666 8 5.47916 7.90417 5.2875 7.7125C5.09583 7.52083 5 7.28333 5 7C5 6.71667 5.09583 6.47917 5.2875 6.2875C5.47916 6.09583 5.71666 6 6 6H18C18.2833 6 18.5208 6.09583 18.7125 6.2875C18.9042 6.47917 19 6.71667 19 7C19 7.28333 18.9042 7.52083 18.7125 7.7125C18.5208 7.90417 18.2833 8 18 8H6ZM8 5C7.71666 5 7.47916 4.90417 7.2875 4.7125C7.09583 4.52083 7 4.28333 7 4C7 3.71667 7.09583 3.47917 7.2875 3.2875C7.47916 3.09583 7.71666 3 8 3H16C16.2833 3 16.5208 3.09583 16.7125 3.2875C16.9042 3.47917 17 3.71667 17 4C17 4.28333 16.9042 4.52083 16.7125 4.7125C16.5208 4.90417 16.2833 5 16 5H8Z" fill="#1F1F1F"/>
</svg>
