<svg width="24" height="24" viewBox="0 0 24 24" fill="none" xmlns="http://www.w3.org/2000/svg">
<path d="M7 15C6.16667 15 5.45833 14.7083 4.875 14.125C4.29167 13.5417 4 12.8333 4 12C4 11.1667 4.29167 10.4583 4.875 9.875C5.45833 9.29167 6.16667 9 7 9C7.83333 9 8.54167 9.29167 9.125 9.875C9.70833 10.4583 10 11.1667 10 12C10 12.8333 9.70833 13.5417 9.125 14.125C8.54167 14.7083 7.83333 15 7 15ZM7 18C8.28333 18 9.44167 17.6333 10.475 16.9C11.5083 16.1667 12.2333 15.2 12.65 14H13L14.3 15.3C14.4 15.4 14.5083 15.4708 14.625 15.5125C14.7417 15.5542 14.8667 15.575 15 15.575C15.1333 15.575 15.2583 15.5542 15.375 15.5125C15.4917 15.4708 15.6 15.4 15.7 15.3L17 14L18.75 15.375C18.85 15.4583 18.9625 15.5208 19.0875 15.5625C19.2125 15.6042 19.3417 15.6167 19.475 15.6C19.6083 15.5833 19.7292 15.5458 19.8375 15.4875C19.9458 15.4292 20.0417 15.35 20.125 15.25L22.375 12.675C22.4583 12.575 22.5208 12.4667 22.5625 12.35C22.6042 12.2333 22.625 12.1083 22.625 11.975C22.625 11.8417 22.6 11.7208 22.55 11.6125C22.5 11.5042 22.4333 11.4083 22.35 11.325L21.325 10.3C21.225 10.2 21.1125 10.125 20.9875 10.075C20.8625 10.025 20.7333 10 20.6 10H12.65C12.25 8.86667 11.5458 7.91667 10.5375 7.15C9.52917 6.38333 8.35 6 7 6C5.33333 6 3.91667 6.58333 2.75 7.75C1.58333 8.91667 1 10.3333 1 12C1 13.6667 1.58333 15.0833 2.75 16.25C3.91667 17.4167 5.33333 18 7 18Z" fill="#1F1F1F"/>
</svg>
