<svg width="24" height="24" viewBox="0 0 24 24" fill="none" xmlns="http://www.w3.org/2000/svg">
<path d="M6 20C5.16667 20 4.45833 19.7083 3.875 19.125C3.29167 18.5417 3 17.8333 3 17H2C1.71667 17 1.47917 16.9042 1.2875 16.7125C1.09583 16.5208 1 16.2833 1 16V6C1 5.45 1.19583 4.97917 1.5875 4.5875C1.97917 4.19583 2.45 4 3 4H15C15.55 4 16.0208 4.19583 16.4125 4.5875C16.8042 4.97917 17 5.45 17 6V8H19C19.3167 8 19.6167 8.07083 19.9 8.2125C20.1833 8.35417 20.4167 8.55 20.6 8.8L22.8 11.725C22.8667 11.8083 22.9167 11.9 22.95 12C22.9833 12.1 23 12.2083 23 12.325V16C23 16.2833 22.9042 16.5208 22.7125 16.7125C22.5208 16.9042 22.2833 17 22 17H21C21 17.8333 20.7083 18.5417 20.125 19.125C19.5417 19.7083 18.8333 20 18 20C17.1667 20 16.4583 19.7083 15.875 19.125C15.2917 18.5417 15 17.8333 15 17H9C9 17.8333 8.70833 18.5417 8.125 19.125C7.54167 19.7083 6.83333 20 6 20ZM6 18C6.28333 18 6.52083 17.9042 6.7125 17.7125C6.90417 17.5208 7 17.2833 7 17C7 16.7167 6.90417 16.4792 6.7125 16.2875C6.52083 16.0958 6.28333 16 6 16C5.71667 16 5.47917 16.0958 5.2875 16.2875C5.09583 16.4792 5 16.7167 5 17C5 17.2833 5.09583 17.5208 5.2875 17.7125C5.47917 17.9042 5.71667 18 6 18ZM18 18C18.2833 18 18.5208 17.9042 18.7125 17.7125C18.9042 17.5208 19 17.2833 19 17C19 16.7167 18.9042 16.4792 18.7125 16.2875C18.5208 16.0958 18.2833 16 18 16C17.7167 16 17.4792 16.0958 17.2875 16.2875C17.0958 16.4792 17 16.7167 17 17C17 17.2833 17.0958 17.5208 17.2875 17.7125C17.4792 17.9042 17.7167 18 18 18ZM17 13H21.25L19 10H17V13Z" fill="#1F1F1F"/>
</svg>
