<svg width="24" height="24" viewBox="0 0 24 24" fill="none" xmlns="http://www.w3.org/2000/svg">
<path d="M4 18V7.09995L2.45 3.74995C2.33333 3.49995 2.325 3.24579 2.425 2.98745C2.525 2.72912 2.7 2.54162 2.95 2.42495C3.2 2.30829 3.45416 2.29579 3.7125 2.38745C3.97083 2.47912 4.15833 2.64995 4.275 2.89995L6.2 7.04995H17.8L19.725 2.89995C19.8417 2.64995 20.0292 2.47495 20.2875 2.37495C20.5458 2.27495 20.8 2.29162 21.05 2.42495C21.3 2.54162 21.475 2.72912 21.575 2.98745C21.675 3.24579 21.6667 3.49995 21.55 3.74995L20 7.09995V18C20 18.55 19.8042 19.0208 19.4125 19.4125C19.0208 19.8041 18.55 20 18 20H6C5.45 20 4.97916 19.8041 4.5875 19.4125C4.19583 19.0208 4 18.55 4 18ZM10 13H14C14.2833 13 14.5208 12.9041 14.7125 12.7125C14.9042 12.5208 15 12.2833 15 12C15 11.7166 14.9042 11.4791 14.7125 11.2875C14.5208 11.0958 14.2833 11 14 11H10C9.71666 11 9.47916 11.0958 9.2875 11.2875C9.09583 11.4791 9 11.7166 9 12C9 12.2833 9.09583 12.5208 9.2875 12.7125C9.47916 12.9041 9.71666 13 10 13Z" fill="#1F1F1F"/>
</svg>
