<svg width="24" height="24" viewBox="0 0 24 24" fill="none" xmlns="http://www.w3.org/2000/svg">
<path d="M7 8C6.45 8 5.97917 7.80417 5.5875 7.4125C5.19583 7.02083 5 6.55 5 6V4C5 3.45 5.19583 2.97917 5.5875 2.5875C5.97917 2.19583 6.45 2 7 2H17C17.55 2 18.0208 2.19583 18.4125 2.5875C18.8042 2.97917 19 3.45 19 4V6C19 6.55 18.8042 7.02083 18.4125 7.4125C18.0208 7.80417 17.55 8 17 8H7ZM8 6H16C16.2667 6 16.4542 5.87917 16.5625 5.6375C16.6708 5.39583 16.8167 5.18333 17 5C17 4.71667 16.9042 4.47917 16.7125 4.2875C16.5208 4.09583 16.2833 4 16 4H8C7.71667 4 7.47917 4.09583 7.2875 4.2875C7.09583 4.47917 7 4.71667 7 5C7.18333 5.18333 7.32917 5.39583 7.4375 5.6375C7.54583 5.87917 7.73333 6 8 6ZM4 22C3.45 22 2.97917 21.8042 2.5875 21.4125C2.19583 21.0208 2 20.55 2 20V19H22V20C22 20.55 21.8042 21.0208 21.4125 21.4125C21.0208 21.8042 20.55 22 20 22H4ZM2 18L5.475 10.175C5.64167 9.80833 5.89167 9.52083 6.225 9.3125C6.55833 9.10417 6.91667 9 7.3 9H16.7C17.0833 9 17.4417 9.10417 17.775 9.3125C18.1083 9.52083 18.3583 9.80833 18.525 10.175L22 18H2ZM8.5 16H9.5C9.63333 16 9.75 15.95 9.85 15.85C9.95 15.75 10 15.6333 10 15.5C10 15.3667 9.95 15.25 9.85 15.15C9.75 15.05 9.63333 15 9.5 15H8.5C8.36667 15 8.25 15.05 8.15 15.15C8.05 15.25 8 15.3667 8 15.5C8 15.6333 8.05 15.75 8.15 15.85C8.25 15.95 8.36667 16 8.5 16ZM8.5 14H9.5C9.63333 14 9.75 13.95 9.85 13.85C9.95 13.75 10 13.6333 10 13.5C10 13.3667 9.95 13.25 9.85 13.15C9.75 13.05 9.63333 13 9.5 13H8.5C8.36667 13 8.25 13.05 8.15 13.15C8.05 13.25 8 13.3667 8 13.5C8 13.6333 8.05 13.75 8.15 13.85C8.25 13.95 8.36667 14 8.5 14ZM8.5 12H9.5C9.63333 12 9.75 11.95 9.85 11.85C9.95 11.75 10 11.6333 10 11.5C10 11.3667 9.95 11.25 9.85 11.15C9.75 11.05 9.63333 11 9.5 11H8.5C8.36667 11 8.25 11.05 8.15 11.15C8.05 11.25 8 11.3667 8 11.5C8 11.6333 8.05 11.75 8.15 11.85C8.25 11.95 8.36667 12 8.5 12ZM11.5 16H12.5C12.6333 16 12.75 15.95 12.85 15.85C12.95 15.75 13 15.6333 13 15.5C13 15.3667 12.95 15.25 12.85 15.15C12.75 15.05 12.6333 15 12.5 15H11.5C11.3667 15 11.25 15.05 11.15 15.15C11.05 15.25 11 15.3667 11 15.5C11 15.6333 11.05 15.75 11.15 15.85C11.25 15.95 11.3667 16 11.5 16ZM11.5 14H12.5C12.6333 14 12.75 13.95 12.85 13.85C12.95 13.75 13 13.6333 13 13.5C13 13.3667 12.95 13.25 12.85 13.15C12.75 13.05 12.6333 13 12.5 13H11.5C11.3667 13 11.25 13.05 11.15 13.15C11.05 13.25 11 13.3667 11 13.5C11 13.6333 11.05 13.75 11.15 13.85C11.25 13.95 11.3667 14 11.5 14ZM11.5 12H12.5C12.6333 12 12.75 11.95 12.85 11.85C12.95 11.75 13 11.6333 13 11.5C13 11.3667 12.95 11.25 12.85 11.15C12.75 11.05 12.6333 11 12.5 11H11.5C11.3667 11 11.25 11.05 11.15 11.15C11.05 11.25 11 11.3667 11 11.5C11 11.6333 11.05 11.75 11.15 11.85C11.25 11.95 11.3667 12 11.5 12ZM14.5 16H15.5C15.6333 16 15.75 15.95 15.85 15.85C15.95 15.75 16 15.6333 16 15.5C16 15.3667 15.95 15.25 15.85 15.15C15.75 15.05 15.6333 15 15.5 15H14.5C14.3667 15 14.25 15.05 14.15 15.15C14.05 15.25 14 15.3667 14 15.5C14 15.6333 14.05 15.75 14.15 15.85C14.25 15.95 14.3667 16 14.5 16ZM14.5 14H15.5C15.6333 14 15.75 13.95 15.85 13.85C15.95 13.75 16 13.6333 16 13.5C16 13.3667 15.95 13.25 15.85 13.15C15.75 13.05 15.6333 13 15.5 13H14.5C14.3667 13 14.25 13.05 14.15 13.15C14.05 13.25 14 13.3667 14 13.5C14 13.6333 14.05 13.75 14.15 13.85C14.25 13.95 14.3667 14 14.5 14ZM14.5 12H15.5C15.6333 12 15.75 11.95 15.85 11.85C15.95 11.75 16 11.6333 16 11.5C16 11.3667 15.95 11.25 15.85 11.15C15.75 11.05 15.6333 11 15.5 11H14.5C14.3667 11 14.25 11.05 14.15 11.15C14.05 11.25 14 11.3667 14 11.5C14 11.6333 14.05 11.75 14.15 11.85C14.25 11.95 14.3667 12 14.5 12Z" fill="#1F1F1F"/>
</svg>
