<svg width="24" height="24" viewBox="0 0 24 24" fill="none" xmlns="http://www.w3.org/2000/svg">
<path d="M9.72499 8.35L11.425 5.525L9.94999 3.075C9.74999 2.74167 9.46249 2.575 9.08749 2.575C8.71249 2.575 8.42499 2.74167 8.22499 3.075L6.29999 6.3C6.16666 6.53333 6.12916 6.7875 6.18749 7.0625C6.24582 7.3375 6.39166 7.54167 6.62499 7.675L8.34999 8.7C8.58332 8.83333 8.83749 8.86667 9.11249 8.8C9.38749 8.73333 9.59166 8.58333 9.72499 8.35ZM18.875 16L17.175 13.175C17.025 12.9417 16.9875 12.6875 17.0625 12.4125C17.1375 12.1375 17.2917 11.9333 17.525 11.8L19.275 10.8C19.5083 10.6667 19.7583 10.6333 20.025 10.7C20.2917 10.7667 20.4917 10.9167 20.625 11.15L21.725 12.975C21.9083 13.2583 22.0083 13.575 22.025 13.925C22.0417 14.275 21.9667 14.6 21.8 14.9C21.6333 15.2333 21.3875 15.5 21.0625 15.7C20.7375 15.9 20.3833 16 20 16H18.875ZM15.15 22.15L12.7 19.7C12.5 19.5 12.4 19.2667 12.4 19C12.4 18.7333 12.5 18.5 12.7 18.3L15.15 15.85C15.3167 15.6833 15.5 15.6417 15.7 15.725C15.9 15.8083 16 15.9667 16 16.2V17H20.75L19.3 19.9C19.1167 20.2333 18.8667 20.5 18.55 20.7C18.2333 20.9 17.8833 21 17.5 21H16V21.8C16 22.0333 15.9 22.1917 15.7 22.275C15.5 22.3583 15.3167 22.3167 15.15 22.15ZM6.32499 21C5.99166 21 5.68749 20.9125 5.41249 20.7375C5.13749 20.5625 4.93332 20.3333 4.79999 20.05C4.66666 19.7833 4.60416 19.5042 4.61249 19.2125C4.62082 18.9208 4.69999 18.65 4.84999 18.4L5.69999 17H8.99999C9.28332 17 9.52082 17.0958 9.71249 17.2875C9.90416 17.4792 9.99999 17.7167 9.99999 18V20C9.99999 20.2833 9.90416 20.5208 9.71249 20.7125C9.52082 20.9042 9.28332 21 8.99999 21H6.32499ZM3.84999 18.15L2.22499 14.9C2.07499 14.6 2.00416 14.2792 2.01249 13.9375C2.02082 13.5958 2.11666 13.275 2.29999 12.975L2.69999 12.3L2.02499 11.9C1.84166 11.7833 1.76666 11.6125 1.79999 11.3875C1.83332 11.1625 1.95832 11.025 2.17499 10.975L5.49999 10.15C5.76666 10.0833 6.02082 10.1208 6.26249 10.2625C6.50416 10.4042 6.65832 10.6083 6.72499 10.875L7.54999 14.225C7.59999 14.4417 7.53332 14.6167 7.34999 14.75C7.16666 14.8833 6.98332 14.8917 6.79999 14.775L6.12499 14.35L3.84999 18.15ZM16.375 9.35L13.05 8.525C12.8333 8.475 12.7125 8.3375 12.6875 8.1125C12.6625 7.8875 12.7417 7.71667 12.925 7.6L13.6 7.2L10.475 2H14C14.35 2 14.6792 2.0875 14.9875 2.2625C15.2958 2.4375 15.5417 2.675 15.725 2.975L17.025 5.15L17.675 4.75C17.8583 4.63333 18.0417 4.64167 18.225 4.775C18.4083 4.90833 18.475 5.08333 18.425 5.3L17.6 8.625C17.5333 8.89167 17.3792 9.09583 17.1375 9.2375C16.8958 9.37917 16.6417 9.41667 16.375 9.35Z" fill="#1F1F1F"/>
</svg>
