<svg width="24" height="24" viewBox="0 0 24 24" fill="none" xmlns="http://www.w3.org/2000/svg">
<path d="M6.125 12.15C6.55833 11.05 7.07917 9.99162 7.6875 8.97495C8.29583 7.95828 8.98333 6.99995 9.75 6.09995L8.45 5.82495C8.11667 5.75828 7.79167 5.77495 7.475 5.87495C7.15833 5.97495 6.88333 6.14162 6.65 6.37495L3.5 9.52495C3.25 9.77495 3.15417 10.075 3.2125 10.425C3.27083 10.775 3.46667 11.0166 3.8 11.15L6.125 12.15ZM20.825 2.39995C19.0583 2.31662 17.3792 2.65828 15.7875 3.42495C14.1958 4.19162 12.775 5.19995 11.525 6.44995C10.725 7.24995 10.0208 8.11662 9.4125 9.04995C8.80417 9.98328 8.275 10.9666 7.825 12C7.74167 12.2166 7.7 12.4375 7.7 12.6625C7.7 12.8875 7.78333 13.0833 7.95 13.25L11.075 16.3749C11.2417 16.5416 11.4375 16.6249 11.6625 16.6249C11.8875 16.6249 12.1083 16.5833 12.325 16.4999C13.3583 16.0499 14.3417 15.5208 15.275 14.9125C16.2083 14.3041 17.075 13.6 17.875 12.8C19.125 11.55 20.1333 10.1291 20.9 8.53745C21.6667 6.94578 22.0083 5.26662 21.925 3.49995C21.925 3.36662 21.8917 3.23328 21.825 3.09995C21.7583 2.96662 21.675 2.84995 21.575 2.74995C21.475 2.64995 21.3583 2.56662 21.225 2.49995C21.0917 2.43328 20.9583 2.39995 20.825 2.39995ZM14.475 9.84995C14.0917 9.46662 13.9 8.99578 13.9 8.43745C13.9 7.87912 14.0917 7.40828 14.475 7.02495C14.8583 6.64162 15.3292 6.44995 15.8875 6.44995C16.4458 6.44995 16.9167 6.64162 17.3 7.02495C17.6833 7.40828 17.875 7.87912 17.875 8.43745C17.875 8.99578 17.6833 9.46662 17.3 9.84995C16.9167 10.2333 16.4458 10.425 15.8875 10.425C15.3292 10.425 14.8583 10.2333 14.475 9.84995ZM12.175 18.1999L13.175 20.5249C13.3083 20.8583 13.55 21.0583 13.9 21.1249C14.25 21.1916 14.55 21.0999 14.8 20.8499L17.95 17.6999C18.1833 17.4666 18.35 17.1874 18.45 16.8624C18.55 16.5374 18.5667 16.2083 18.5 15.8749L18.25 14.575C17.3333 15.3416 16.3708 16.0291 15.3625 16.6374C14.3542 17.2458 13.2917 17.7666 12.175 18.1999ZM4.05 16.0499C4.63333 15.4666 5.34167 15.1708 6.175 15.1625C7.00833 15.1541 7.71667 15.4416 8.3 16.0249C8.88333 16.6083 9.175 17.3166 9.175 18.1499C9.175 18.9833 8.88333 19.6916 8.3 20.2749C7.5 21.0749 6.55417 21.5499 5.4625 21.6999C4.37083 21.8499 3.275 21.9999 2.175 22.1499C2.325 21.0499 2.47917 19.9541 2.6375 18.8624C2.79583 17.7708 3.26667 16.8333 4.05 16.0499Z" fill="#1F1F1F"/>
</svg>
