<svg width="24" height="24" viewBox="0 0 24 24" fill="none" xmlns="http://www.w3.org/2000/svg">
<path d="M12 22C10.6167 22 9.31667 21.7375 8.1 21.2125C6.88333 20.6875 5.825 19.975 4.925 19.075C4.025 18.175 3.3125 17.1167 2.7875 15.9C2.2625 14.6833 2 13.3833 2 12C2 10.6167 2.2625 9.31667 2.7875 8.1C3.3125 6.88333 4.025 5.825 4.925 4.925C5.825 4.025 6.88333 3.3125 8.1 2.7875C9.31667 2.2625 10.6167 2 12 2C13.3833 2 14.6833 2.2625 15.9 2.7875C17.1167 3.3125 18.175 4.025 19.075 4.925C19.975 5.825 20.6875 6.88333 21.2125 8.1C21.7375 9.31667 22 10.6167 22 12C22 13.3833 21.7375 14.6833 21.2125 15.9C20.6875 17.1167 19.975 18.175 19.075 19.075C18.175 19.975 17.1167 20.6875 15.9 21.2125C14.6833 21.7375 13.3833 22 12 22ZM17 9.5L18.35 9.05L18.75 7.7C18.2167 6.9 17.575 6.2125 16.825 5.6375C16.075 5.0625 15.25 4.63333 14.35 4.35L13 5.3V6.7L17 9.5ZM7 9.5L11 6.7V5.3L9.65 4.35C8.75 4.63333 7.925 5.0625 7.175 5.6375C6.425 6.2125 5.78333 6.9 5.25 7.7L5.65 9.05L7 9.5ZM5.95 17.2L7.1 17.1L7.85 15.75L6.4 11.4L5 10.9L4 11.65C4 12.7333 4.15 13.7208 4.45 14.6125C4.75 15.5042 5.25 16.3667 5.95 17.2ZM12 20C12.4333 20 12.8583 19.9667 13.275 19.9C13.6917 19.8333 14.1 19.7333 14.5 19.6L15.2 18.1L14.55 17H9.45L8.8 18.1L9.5 19.6C9.9 19.7333 10.3083 19.8333 10.725 19.9C11.1417 19.9667 11.5667 20 12 20ZM9.75 15H14.25L15.65 11L12 8.45L8.4 11L9.75 15ZM18.05 17.2C18.75 16.3667 19.25 15.5042 19.55 14.6125C19.85 13.7208 20 12.7333 20 11.65L19 10.95L17.6 11.4L16.15 15.75L16.9 17.1L18.05 17.2Z" fill="#1F1F1F"/>
</svg>
