<svg width="48" height="48" viewBox="0 0 48 48" fill="none" xmlns="http://www.w3.org/2000/svg">
<rect width="48" height="48" rx="8" fill="#145AF5"/>
<path d="M13.4978 25.6199C13.0324 24.801 12.7281 23.8971 12.6073 22.9618C12.4865 22.0266 12.5491 21.0735 12.7908 20.1606C13.0324 19.2478 13.4486 18.3931 14.0169 17.6413C14.5852 16.894 15.2922 16.2631 16.0977 15.7932L34.5025 5C34.9679 5.81889 35.2722 6.7228 35.393 7.65803C35.5138 8.59326 35.4512 9.5464 35.2095 10.4593C34.9679 11.3721 34.5517 12.2268 33.9834 12.9786C33.4151 13.7303 32.7081 14.3568 31.9027 14.8267L13.4978 25.6199Z" fill="white"/>
<path d="M18.0798 36.78C17.6145 35.9611 17.3102 35.0572 17.1894 34.1219C17.0685 33.1867 17.1312 32.2336 17.3728 31.3207C17.6145 30.4079 18.0306 29.5532 18.5989 28.8014C19.1672 28.0541 19.8742 27.4232 20.6797 26.9533L30.9046 20.9615C31.37 21.7804 31.6743 22.6843 31.7951 23.6196C31.9159 24.5548 31.8533 25.5079 31.6116 26.4208C31.37 27.3337 30.9538 28.1884 30.3855 28.9401C29.8172 29.6919 29.1102 30.3184 28.3048 30.7882L18.0798 36.78V36.78Z" fill="white"/>
<path d="M18.0798 36.78L24.2237 33.1778C25.159 34.829 25.4096 36.7979 24.9218 38.637C24.434 40.4762 23.2482 42.0468 21.6239 43L18.0798 36.78V36.78Z" fill="#89ADFA"/>
<path d="M30.9002 20.9571L23.5794 19.7087L13.4977 25.6199L20.6753 26.9489L30.9002 20.9571V20.9571Z" fill="#89ADFA"/>
</svg>
