<svg width="124" height="56" viewBox="0 0 124 56" fill="none" xmlns="http://www.w3.org/2000/svg">
<g clip-path="url(#clip0_68_315)">
<path d="M92.812 50C94.892 50 96.556 48.3348 96.556 46.2534V40.3733C97.492 41.5701 99.52 42.4548 102.172 42.4548C107.944 42.4548 112 37.8756 112 31.4751C112 25.1787 108.412 20.5475 102.432 20.5475C99.468 20.5475 97.232 21.8484 96.348 23.2014V21.0679H94.008C91.928 21.0679 90.264 22.733 90.264 24.8145V50H92.812ZM105.812 31.5271C105.812 35.0136 103.628 36.7308 101.132 36.7308C98.688 36.7308 96.504 34.9615 96.504 31.5271C96.504 28.0407 98.688 26.3235 101.132 26.3235C103.628 26.3235 105.812 28.0407 105.812 31.5271Z" fill="#145AF5"/>
<path d="M70.608 42.2986C72.688 42.2986 74.352 40.6335 74.352 38.552V12.0656H71.804C69.724 12.0656 68.06 13.7308 68.06 15.8122V42.2986H70.608Z" fill="#145AF5"/>
<path d="M48.092 42.2986C50.172 42.2986 51.836 40.6335 51.836 38.552V30.7466H58.96C61.04 30.7466 62.704 29.0814 62.704 27V24.7104H51.784V20.6516C51.784 19.4027 52.772 18.414 54.02 18.414H60.416C62.496 18.414 64.16 16.7489 64.16 14.6674V12.1176H52.2C48.352 12.1176 45.18 15.2398 45.18 19.1425V42.4027H48.092V42.2986Z" fill="#145AF5"/>
<path d="M81.736 42.2986C83.816 42.2986 85.48 40.6335 85.48 38.552V21.3801H82.932C80.852 21.3801 79.188 23.0452 79.188 25.1267V42.2986H81.736Z" fill="#145AF5"/>
<path d="M82.308 18.9344C80.332 18.9344 78.668 17.2692 78.668 15.1878C78.668 13.1063 80.332 11.4412 82.308 11.4412C84.388 11.4412 86.052 13.1063 86.052 15.1878C86.052 17.2692 84.336 18.9344 82.308 18.9344Z" fill="#145AF5"/>
<path d="M9.092 27.9887C8.572 27.052 8.208 26.0113 8.052 24.9186C7.948 23.7738 8 22.681 8.26 21.6403C8.52 20.5995 9.04 19.5588 9.664 18.7262C10.34 17.8416 11.12 17.1131 12.108 16.5928L33.532 4C34.052 4.93665 34.416 5.97738 34.572 7.07014C34.728 8.1629 34.624 9.25566 34.364 10.3484C34.104 11.3891 33.584 12.4299 32.96 13.2624C32.284 14.1471 31.504 14.8756 30.516 15.3959L9.092 27.9887Z" fill="#145AF5"/>
<path d="M14.448 40.9457C13.928 40.0091 13.564 38.9683 13.408 37.8756C13.252 36.7828 13.356 35.69 13.616 34.5973C13.876 33.5566 14.396 32.5158 15.02 31.6833C15.696 30.7986 16.476 30.0701 17.464 29.5498L29.32 22.5769C29.84 23.5136 30.204 24.5543 30.36 25.6471C30.516 26.7398 30.412 27.8326 30.152 28.9253C29.892 29.9661 29.372 31.0068 28.748 31.8394C28.072 32.724 27.292 33.4525 26.304 33.9729L14.448 40.9457Z" fill="#145AF5"/>
<path d="M14.448 40.9457L21.572 36.7828C22.664 38.7081 22.924 40.9977 22.404 43.1312C21.832 45.2647 20.48 47.086 18.556 48.2308L14.448 40.9457Z" fill="#80A8F4"/>
<path d="M29.32 22.5769L20.792 21.1199L9.092 27.9887L17.412 29.5498L29.32 22.5769Z" fill="#80A8F4"/>
</g>
<defs>
<clipPath id="clip0_68_315">
<rect width="104" height="46" fill="white" transform="translate(8 4)"/>
</clipPath>
</defs>
</svg>
