<?xml version="1.0" standalone="no"?>
<!DOCTYPE svg PUBLIC "-//W3C//DTD SVG 20010904//EN"
 "http://www.w3.org/TR/2001/REC-SVG-20010904/DTD/svg10.dtd">
<svg version="1.0" xmlns="http://www.w3.org/2000/svg"
 width="700.000000pt" height="700.000000pt" viewBox="0 0 700.000000 700.000000"
 preserveAspectRatio="xMidYMid meet">
<metadata>
Created by potrace 1.14, written by Peter Selinger 2001-2017
</metadata>
<g transform="translate(0.000000,700.000000) scale(0.100000,-0.100000)"
fill="#000000" stroke="none">
<path d="M1050 6995 c-8 -2 -49 -9 -90 -15 -360 -59 -690 -312 -850 -652 -50
-108 -85 -229 -100 -348 -8 -70 -10 -732 -8 -2540 l4 -2445 21 -85 c59 -237
152 -401 323 -570 191 -190 406 -295 673 -330 57 -7 842 -10 2532 -8 l2450 4
85 21 c238 60 427 168 588 337 156 165 258 363 303 591 21 104 21 4986 0 5090
-46 231 -146 427 -305 593 -163 170 -347 275 -586 335 l-85 21 -2470 2 c-1358
1 -2477 0 -2485 -1z m4040 -848 c63 -163 73 -217 73 -397 0 -147 -3 -176 -26
-265 -56 -208 -185 -416 -340 -544 -78 -65 -80 -66 -839 -511 -285 -167 -516
-305 -514 -307 2 -3 436 -78 916 -159 127 -21 127 -21 104 -40 -17 -14 -16
-14 8 0 15 9 30 16 33 16 4 0 22 -33 40 -73 156 -338 124 -738 -86 -1049 -54
-80 -186 -213 -264 -265 -33 -22 -197 -120 -365 -218 -286 -167 -348 -205
-309 -190 29 11 105 -186 129 -337 18 -109 8 -331 -18 -430 -49 -181 -147
-354 -275 -482 -66 -66 -193 -163 -202 -154 -20 20 -504 886 -501 895 3 7 -1
10 -7 7 -8 -3 -24 19 -41 53 -230 466 -75 1049 354 1335 89 59 88 58 61 51
-24 -6 -1031 178 -1025 188 2 4 -4 5 -14 2 -15 -4 -26 12 -56 78 -21 46 -50
126 -64 178 -22 84 -26 117 -26 256 0 136 3 173 23 250 31 117 85 244 146 336
60 92 209 241 295 296 36 22 459 272 940 554 481 282 1080 633 1330 780 523
307 465 291 520 146z"/>
<path d="M3284 4034 c-18 -14 -18 -15 4 -4 12 6 22 13 22 15 0 8 -5 6 -26 -11z"/>
<path d="M4394 3884 c-18 -14 -18 -15 4 -4 12 6 22 13 22 15 0 8 -5 6 -26 -11z"/>
<path d="M2994 3864 c-18 -14 -18 -15 4 -4 12 6 22 13 22 15 0 8 -5 6 -26 -11z"/>
<path d="M4344 3854 c-18 -14 -18 -15 4 -4 12 6 22 13 22 15 0 8 -5 6 -26 -11z"/>
<path d="M4294 3824 c-18 -14 -18 -15 4 -4 12 6 22 13 22 15 0 8 -5 6 -26 -11z"/>
<path d="M4174 3754 c-18 -14 -18 -15 4 -4 12 6 22 13 22 15 0 8 -5 6 -26 -11z"/>
<path d="M2704 3694 c-18 -14 -18 -15 4 -4 12 6 22 13 22 15 0 8 -5 6 -26 -11z"/>
<path d="M4054 3684 c-18 -14 -18 -15 4 -4 12 6 22 13 22 15 0 8 -5 6 -26 -11z"/>
<path d="M4004 3654 c-18 -14 -18 -15 4 -4 12 6 22 13 22 15 0 8 -5 6 -26 -11z"/>
<path d="M3934 3614 c-18 -14 -18 -15 4 -4 12 6 22 13 22 15 0 8 -5 6 -26 -11z"/>
<path d="M3884 3584 c-18 -14 -18 -15 4 -4 12 6 22 13 22 15 0 8 -5 6 -26 -11z"/>
<path d="M2414 3524 c-18 -14 -18 -15 4 -4 12 6 22 13 22 15 0 8 -5 6 -26 -11z"/>
<path d="M3764 3514 c-18 -14 -18 -15 4 -4 12 6 22 13 22 15 0 8 -5 6 -26 -11z"/>
<path d="M3714 3484 c-18 -14 -18 -15 4 -4 12 6 22 13 22 15 0 8 -5 6 -26 -11z"/>
<path d="M2294 3454 c-18 -14 -18 -15 4 -4 12 6 22 13 22 15 0 8 -5 6 -26 -11z"/>
<path d="M3644 3444 c-18 -14 -18 -15 4 -4 12 6 22 13 22 15 0 8 -5 6 -26 -11z"/>
<path d="M3594 3414 c-18 -14 -18 -15 4 -4 12 6 22 13 22 15 0 8 -5 6 -26 -11z"/>
<path d="M2124 3354 c-18 -14 -18 -15 4 -4 12 6 22 13 22 15 0 8 -5 6 -26 -11z"/>
<path d="M3474 3344 c-18 -14 -18 -15 4 -4 12 6 22 13 22 15 0 8 -5 6 -26 -11z"/>
<path d="M3418 3314 c-38 -20 -36 -28 2 -9 17 9 30 18 30 20 0 7 -1 6 -32 -11z"/>
<path d="M3354 3274 c-18 -14 -18 -15 4 -4 12 6 22 13 22 15 0 8 -5 6 -26 -11z"/>
<path d="M3304 3244 c-18 -14 -18 -15 4 -4 12 6 22 13 22 15 0 8 -5 6 -26 -11z"/>
<path d="M3184 3174 c-18 -14 -18 -15 4 -4 12 6 22 13 22 15 0 8 -5 6 -26 -11z"/>
<path d="M3114 3134 c-18 -14 -18 -15 4 -4 12 6 22 13 22 15 0 8 -5 6 -26 -11z"/>
<path d="M3064 3104 c-18 -14 -18 -15 4 -4 12 6 22 13 22 15 0 8 -5 6 -26 -11z"/>
<path d="M3214 1974 c-18 -14 -18 -15 4 -4 12 6 22 13 22 15 0 8 -5 6 -26 -11z"/>
<path d="M3044 1874 c-18 -14 -18 -15 4 -4 12 6 22 13 22 15 0 8 -5 6 -26 -11z"/>
<path d="M2754 1704 c-18 -14 -18 -15 4 -4 12 6 22 13 22 15 0 8 -5 6 -26 -11z"/>
</g>
</svg>
