<svg width="16" height="26" viewBox="0 0 16 26" fill="none" xmlns="http://www.w3.org/2000/svg">
<path d="M0.624238 14.0704C0.326496 13.5351 0.118077 12.9404 0.0287543 12.316C-0.0307941 11.6618 -0.0010199 11.0374 0.147851 10.4427C0.296722 9.848 0.594464 9.2533 0.951754 8.77754C1.33882 8.27205 1.78543 7.85576 2.35114 7.55841L14.6181 0.362549C14.9159 0.897778 15.1243 1.49248 15.2136 2.11691C15.3029 2.74135 15.2434 3.36578 15.0945 3.99022C14.9456 4.58491 14.6479 5.17961 14.2906 5.65537C13.9035 6.16087 13.4569 6.57716 12.8912 6.87451L0.624238 14.0704Z" fill="#145AF5"/>
<path d="M3.69214 21.4742C3.3944 20.939 3.18598 20.3443 3.09666 19.7199C3.00733 19.0954 3.06688 18.471 3.21575 17.8466C3.36462 17.2519 3.66237 16.6572 4.01966 16.1814C4.40672 15.6759 4.85333 15.2596 5.41904 14.9623L12.2076 10.9778C12.5053 11.513 12.7137 12.1077 12.803 12.7321C12.8924 13.3566 12.8328 13.981 12.6839 14.6054C12.5351 15.2001 12.2373 15.7948 11.88 16.2706C11.493 16.7761 11.0464 17.1924 10.4807 17.4897L3.69214 21.4742Z" fill="#145AF5"/>
<path d="M3.69141 21.4738L7.77047 19.095C8.39573 20.1952 8.5446 21.5035 8.24686 22.7226C7.91934 23.9418 7.14521 24.9825 6.04357 25.6367L3.69141 21.4738Z" fill="#80A8F4"/>
<path d="M12.2072 10.9783L7.32419 10.1458L0.625 14.0708L5.38887 14.9628L12.2072 10.9783Z" fill="#80A8F4"/>
</svg>
