<svg width="16" height="16" viewBox="0 0 16 16" fill="none" xmlns="http://www.w3.org/2000/svg">
<path d="M8 12.7666C7.78889 12.7666 7.60845 12.6915 7.45867 12.5413C7.30845 12.3915 7.23334 12.2111 7.23334 11.9999V8.76661H4C3.78889 8.76661 3.60845 8.6915 3.45867 8.54128C3.30845 8.3915 3.23334 8.21105 3.23334 7.99994C3.23334 7.78883 3.30845 7.60839 3.45867 7.45861C3.60845 7.30839 3.78889 7.23328 4 7.23328H7.23334V3.99994C7.23334 3.78883 7.30845 3.60817 7.45867 3.45794C7.60845 3.30817 7.78889 3.23328 8 3.23328C8.21112 3.23328 8.39156 3.30817 8.54134 3.45794C8.69156 3.60817 8.76667 3.78883 8.76667 3.99994V7.23328H12C12.2111 7.23328 12.3916 7.30839 12.5413 7.45861C12.6916 7.60839 12.7667 7.78883 12.7667 7.99994C12.7667 8.21105 12.6916 8.3915 12.5413 8.54128C12.3916 8.6915 12.2111 8.76661 12 8.76661H8.76667V11.9999C8.76667 12.2111 8.69156 12.3915 8.54134 12.5413C8.39156 12.6915 8.21112 12.7666 8 12.7666V12.7666Z" fill="black"/>
</svg>
