<svg width="28" height="28" viewBox="0 0 28 28" fill="none" xmlns="http://www.w3.org/2000/svg">
<path d="M14 22.3417C13.6305 22.3417 13.3148 22.2102 13.0527 21.9473C12.7898 21.6852 12.6583 21.3694 12.6583 21V15.3417H6.99999C6.63055 15.3417 6.31477 15.2102 6.05266 14.9473C5.78977 14.6852 5.65833 14.3694 5.65833 14C5.65833 13.6305 5.78977 13.3148 6.05266 13.0527C6.31477 12.7898 6.63055 12.6583 6.99999 12.6583H12.6583V6.99999C12.6583 6.63055 12.7898 6.31438 13.0527 6.05149C13.3148 5.78938 13.6305 5.65833 14 5.65833C14.3694 5.65833 14.6852 5.78938 14.9473 6.05149C15.2102 6.31438 15.3417 6.63055 15.3417 6.99999V12.6583H21C21.3694 12.6583 21.6852 12.7898 21.9473 13.0527C22.2102 13.3148 22.3417 13.6305 22.3417 14C22.3417 14.3694 22.2102 14.6852 21.9473 14.9473C21.6852 15.2102 21.3694 15.3417 21 15.3417H15.3417V21C15.3417 21.3694 15.2102 21.6852 14.9473 21.9473C14.6852 22.2102 14.3694 22.3417 14 22.3417V22.3417Z" fill="black"/>
</svg>
