<svg width="28" height="28" viewBox="0 0 28 28" fill="none" xmlns="http://www.w3.org/2000/svg">
<path d="M12.8333 15.1667V18.6667C12.8333 18.9972 12.9451 19.2743 13.1687 19.4979C13.3924 19.7215 13.6694 19.8333 14 19.8333C14.3306 19.8333 14.6076 19.7215 14.8313 19.4979C15.0549 19.2743 15.1667 18.9972 15.1667 18.6667V15.1667H18.6667C18.9972 15.1667 19.2743 15.0549 19.4979 14.8313C19.7215 14.6076 19.8333 14.3306 19.8333 14C19.8333 13.6694 19.7215 13.3924 19.4979 13.1687C19.2743 12.9451 18.9972 12.8333 18.6667 12.8333H15.1667V9.33333C15.1667 9.00278 15.0549 8.72569 14.8313 8.50208C14.6076 8.27847 14.3306 8.16667 14 8.16667C13.6694 8.16667 13.3924 8.27847 13.1687 8.50208C12.9451 8.72569 12.8333 9.00278 12.8333 9.33333V12.8333H9.33333C9.00278 12.8333 8.72569 12.9451 8.50208 13.1687C8.27847 13.3924 8.16667 13.6694 8.16667 14C8.16667 14.3306 8.27847 14.6076 8.50208 14.8313C8.72569 15.0549 9.00278 15.1667 9.33333 15.1667H12.8333ZM5.83333 24.5C5.19167 24.5 4.64236 24.2715 4.18542 23.8146C3.72847 23.3576 3.5 22.8083 3.5 22.1667V5.83333C3.5 5.19167 3.72847 4.64236 4.18542 4.18542C4.64236 3.72847 5.19167 3.5 5.83333 3.5H22.1667C22.8083 3.5 23.3576 3.72847 23.8146 4.18542C24.2715 4.64236 24.5 5.19167 24.5 5.83333V22.1667C24.5 22.8083 24.2715 23.3576 23.8146 23.8146C23.3576 24.2715 22.8083 24.5 22.1667 24.5H5.83333ZM5.83333 22.1667H22.1667V5.83333H5.83333V22.1667Z" fill="black"/>
</svg>
