<svg width="16" height="16" viewBox="0 0 16 16" fill="none" xmlns="http://www.w3.org/2000/svg">
<path d="M7.33333 8.66667V10.6667C7.33333 10.8556 7.39722 11.0139 7.525 11.1417C7.65278 11.2694 7.81111 11.3333 8 11.3333C8.18889 11.3333 8.34722 11.2694 8.475 11.1417C8.60278 11.0139 8.66667 10.8556 8.66667 10.6667V8.66667H10.6667C10.8556 8.66667 11.0139 8.60278 11.1417 8.475C11.2694 8.34722 11.3333 8.18889 11.3333 8C11.3333 7.81111 11.2694 7.65278 11.1417 7.525C11.0139 7.39722 10.8556 7.33333 10.6667 7.33333H8.66667V5.33333C8.66667 5.14444 8.60278 4.98611 8.475 4.85833C8.34722 4.73056 8.18889 4.66667 8 4.66667C7.81111 4.66667 7.65278 4.73056 7.525 4.85833C7.39722 4.98611 7.33333 5.14444 7.33333 5.33333V7.33333H5.33333C5.14444 7.33333 4.98611 7.39722 4.85833 7.525C4.73056 7.65278 4.66667 7.81111 4.66667 8C4.66667 8.18889 4.73056 8.34722 4.85833 8.475C4.98611 8.60278 5.14444 8.66667 5.33333 8.66667H7.33333ZM3.33333 14C2.96667 14 2.65278 13.8694 2.39167 13.6083C2.13056 13.3472 2 13.0333 2 12.6667V3.33333C2 2.96667 2.13056 2.65278 2.39167 2.39167C2.65278 2.13056 2.96667 2 3.33333 2H12.6667C13.0333 2 13.3472 2.13056 13.6083 2.39167C13.8694 2.65278 14 2.96667 14 3.33333V12.6667C14 13.0333 13.8694 13.3472 13.6083 13.6083C13.3472 13.8694 13.0333 14 12.6667 14H3.33333ZM3.33333 12.6667H12.6667V3.33333H3.33333V12.6667Z" fill="black"/>
</svg>
