<svg width="28" height="28" viewBox="0 0 28 28" fill="none" xmlns="http://www.w3.org/2000/svg">
<path d="M14 25.6666C11.2972 24.9861 9.06599 23.4354 7.30627 21.0146C5.54655 18.5937 4.66669 15.9055 4.66669 12.95V7.43747C4.66669 6.95136 4.80766 6.51386 5.0896 6.12497C5.37155 5.73608 5.73613 5.45413 6.18335 5.27913L13.1834 2.65413C13.4556 2.55691 13.7278 2.5083 14 2.5083C14.2722 2.5083 14.5445 2.55691 14.8167 2.65413L21.8167 5.27913C22.2639 5.45413 22.6285 5.73608 22.9104 6.12497C23.1924 6.51386 23.3334 6.95136 23.3334 7.43747V12.4541C22.9639 12.2986 22.5847 12.1576 22.1959 12.0312C21.807 11.9048 21.4084 11.8125 21 11.7541V7.46663L14 4.84163L7.00002 7.46663V12.95C7.00002 13.8639 7.12155 14.7777 7.3646 15.6916C7.60766 16.6055 7.94794 17.4757 8.38544 18.3021C8.82294 19.1284 9.3528 19.8916 9.97502 20.5916C10.5972 21.2916 11.2875 21.875 12.0459 22.3416C12.2597 22.9639 12.5417 23.5569 12.8917 24.1208C13.2417 24.6847 13.6403 25.1902 14.0875 25.6375C14.0681 25.6375 14.0535 25.6423 14.0438 25.6521C14.034 25.6618 14.0195 25.6666 14 25.6666ZM19.8334 25.6666C18.2195 25.6666 16.8438 25.0979 15.7063 23.9604C14.5688 22.8229 14 21.4472 14 19.8333C14 18.2194 14.5688 16.8437 15.7063 15.7062C16.8438 14.5687 18.2195 14 19.8334 14C21.4472 14 22.8229 14.5687 23.9604 15.7062C25.0979 16.8437 25.6667 18.2194 25.6667 19.8333C25.6667 21.4472 25.0979 22.8229 23.9604 23.9604C22.8229 25.0979 21.4472 25.6666 19.8334 25.6666ZM19.25 20.4166V22.75C19.25 22.9055 19.3084 23.0416 19.425 23.1583C19.5417 23.275 19.6778 23.3333 19.8334 23.3333C19.9889 23.3333 20.125 23.275 20.2417 23.1583C20.3584 23.0416 20.4167 22.9055 20.4167 22.75V20.4166H22.75C22.9056 20.4166 23.0417 20.3583 23.1584 20.2416C23.275 20.125 23.3334 19.9889 23.3334 19.8333C23.3334 19.6777 23.275 19.5416 23.1584 19.425C23.0417 19.3083 22.9056 19.25 22.75 19.25H20.4167V16.9166C20.4167 16.7611 20.3584 16.625 20.2417 16.5083C20.125 16.3916 19.9889 16.3333 19.8334 16.3333C19.6778 16.3333 19.5417 16.3916 19.425 16.5083C19.3084 16.625 19.25 16.7611 19.25 16.9166V19.25H16.9167C16.7611 19.25 16.625 19.3083 16.5084 19.425C16.3917 19.5416 16.3334 19.6777 16.3334 19.8333C16.3334 19.9889 16.3917 20.125 16.5084 20.2416C16.625 20.3583 16.7611 20.4166 16.9167 20.4166H19.25Z" fill="black"/>
</svg>
