<svg width="24" height="24" viewBox="0 0 24 24" fill="none" xmlns="http://www.w3.org/2000/svg">
<path d="M12 21.9999C9.68333 21.4166 7.77083 20.0874 6.2625 18.0124C4.75417 15.9374 4 13.6332 4 11.0999V6.3749C4 5.95824 4.12083 5.58324 4.3625 5.2499C4.60417 4.91657 4.91667 4.6749 5.3 4.5249L11.3 2.2749C11.5333 2.19157 11.7667 2.1499 12 2.1499C12.2333 2.1499 12.4667 2.19157 12.7 2.2749L18.7 4.5249C19.0833 4.6749 19.3958 4.91657 19.6375 5.2499C19.8792 5.58324 20 5.95824 20 6.3749V10.6749C19.6833 10.5416 19.3583 10.4207 19.025 10.3124C18.6917 10.2041 18.35 10.1249 18 10.0749V6.3999L12 4.1499L6 6.3999V11.0999C6 11.8832 6.10417 12.6666 6.3125 13.4499C6.52083 14.2332 6.8125 14.9791 7.1875 15.6874C7.5625 16.3957 8.01667 17.0499 8.55 17.6499C9.08333 18.2499 9.675 18.7499 10.325 19.1499C10.5083 19.6832 10.75 20.1916 11.05 20.6749C11.35 21.1582 11.6917 21.5916 12.075 21.9749C12.0583 21.9749 12.0458 21.9791 12.0375 21.9874C12.0292 21.9957 12.0167 21.9999 12 21.9999ZM17 21.9999C15.6167 21.9999 14.4375 21.5124 13.4625 20.5374C12.4875 19.5624 12 18.3832 12 16.9999C12 15.6166 12.4875 14.4374 13.4625 13.4624C14.4375 12.4874 15.6167 11.9999 17 11.9999C18.3833 11.9999 19.5625 12.4874 20.5375 13.4624C21.5125 14.4374 22 15.6166 22 16.9999C22 18.3832 21.5125 19.5624 20.5375 20.5374C19.5625 21.5124 18.3833 21.9999 17 21.9999ZM16.5 17.4999V19.4999C16.5 19.6332 16.55 19.7499 16.65 19.8499C16.75 19.9499 16.8667 19.9999 17 19.9999C17.1333 19.9999 17.25 19.9499 17.35 19.8499C17.45 19.7499 17.5 19.6332 17.5 19.4999V17.4999H19.5C19.6333 17.4999 19.75 17.4499 19.85 17.3499C19.95 17.2499 20 17.1332 20 16.9999C20 16.8666 19.95 16.7499 19.85 16.6499C19.75 16.5499 19.6333 16.4999 19.5 16.4999H17.5V14.4999C17.5 14.3666 17.45 14.2499 17.35 14.1499C17.25 14.0499 17.1333 13.9999 17 13.9999C16.8667 13.9999 16.75 14.0499 16.65 14.1499C16.55 14.2499 16.5 14.3666 16.5 14.4999V16.4999H14.5C14.3667 16.4999 14.25 16.5499 14.15 16.6499C14.05 16.7499 14 16.8666 14 16.9999C14 17.1332 14.05 17.2499 14.15 17.3499C14.25 17.4499 14.3667 17.4999 14.5 17.4999H16.5Z" fill="black"/>
</svg>
