<svg width="16" height="16" viewBox="0 0 16 16" fill="none" xmlns="http://www.w3.org/2000/svg">
<path d="M8.00002 14.6664C6.45558 14.2776 5.18058 13.3914 4.17502 12.0081C3.16946 10.6248 2.66669 9.08866 2.66669 7.39977V4.24977C2.66669 3.97199 2.74724 3.72199 2.90835 3.49977C3.06946 3.27755 3.2778 3.11644 3.53335 3.01644L7.53335 1.51644C7.68891 1.46088 7.84447 1.43311 8.00002 1.43311C8.15558 1.43311 8.31113 1.46088 8.46669 1.51644L12.4667 3.01644C12.7222 3.11644 12.9306 3.27755 13.0917 3.49977C13.2528 3.72199 13.3334 3.97199 13.3334 4.24977V7.11644C13.1222 7.02755 12.9056 6.94699 12.6834 6.87477C12.4611 6.80255 12.2334 6.74977 12 6.71644V4.26644L8.00002 2.76644L4.00002 4.26644V7.39977C4.00002 7.92199 4.06946 8.44422 4.20835 8.96644C4.34724 9.48866 4.54169 9.98588 4.79169 10.4581C5.04169 10.9303 5.34446 11.3664 5.70002 11.7664C6.05558 12.1664 6.45002 12.4998 6.88335 12.7664C7.00558 13.122 7.16669 13.4609 7.36669 13.7831C7.56669 14.1053 7.79447 14.3942 8.05002 14.6498C8.03891 14.6498 8.03058 14.6526 8.02502 14.6581C8.01947 14.6637 8.01113 14.6664 8.00002 14.6664ZM11.3334 14.6664C10.4111 14.6664 9.62502 14.3414 8.97502 13.6914C8.32502 13.0414 8.00002 12.2553 8.00002 11.3331C8.00002 10.4109 8.32502 9.62477 8.97502 8.97477C9.62502 8.32477 10.4111 7.99977 11.3334 7.99977C12.2556 7.99977 13.0417 8.32477 13.6917 8.97477C14.3417 9.62477 14.6667 10.4109 14.6667 11.3331C14.6667 12.2553 14.3417 13.0414 13.6917 13.6914C13.0417 14.3414 12.2556 14.6664 11.3334 14.6664ZM11 11.6664V12.9998C11 13.0887 11.0334 13.1664 11.1 13.2331C11.1667 13.2998 11.2445 13.3331 11.3334 13.3331C11.4222 13.3331 11.5 13.2998 11.5667 13.2331C11.6334 13.1664 11.6667 13.0887 11.6667 12.9998V11.6664H13C13.0889 11.6664 13.1667 11.6331 13.2334 11.5664C13.3 11.4998 13.3334 11.422 13.3334 11.3331C13.3334 11.2442 13.3 11.1664 13.2334 11.0998C13.1667 11.0331 13.0889 10.9998 13 10.9998H11.6667V9.66644C11.6667 9.57755 11.6334 9.49977 11.5667 9.43311C11.5 9.36644 11.4222 9.33311 11.3334 9.33311C11.2445 9.33311 11.1667 9.36644 11.1 9.43311C11.0334 9.49977 11 9.57755 11 9.66644V10.9998H9.66669C9.5778 10.9998 9.50002 11.0331 9.43335 11.0998C9.36669 11.1664 9.33335 11.2442 9.33335 11.3331C9.33335 11.422 9.36669 11.4998 9.43335 11.5664C9.50002 11.6331 9.5778 11.6664 9.66669 11.6664H11Z" fill="black"/>
</svg>
