<svg width="28" height="28" viewBox="0 0 28 28" fill="none" xmlns="http://www.w3.org/2000/svg">
<path d="M12.8334 21.5833C14.2917 21.5833 15.5315 21.073 16.5527 20.0526C17.5731 19.0314 18.0834 17.7916 18.0834 16.3333C18.0834 14.8749 17.5731 13.6351 16.5527 12.6139C15.5315 11.5935 14.2917 11.0833 12.8334 11.0833C11.375 11.0833 10.1352 11.5935 9.11402 12.6139C8.09358 13.6351 7.58335 14.8749 7.58335 16.3333C7.58335 17.7916 8.09358 19.0314 9.11402 20.0526C10.1352 21.073 11.375 21.5833 12.8334 21.5833ZM3.50002 25.6666C2.85835 25.6666 2.30924 25.4383 1.85269 24.9818C1.39535 24.5244 1.16669 23.9749 1.16669 23.3333V9.33325C1.16669 8.69159 1.39535 8.14247 1.85269 7.68592C2.30924 7.22859 2.85835 6.99992 3.50002 6.99992H7.17502L8.63335 5.42492C8.84724 5.19159 9.10469 5.00686 9.40569 4.87075C9.70746 4.73464 10.0236 4.66659 10.3542 4.66659H15.1667C15.4972 4.66659 15.7745 4.7782 15.9985 5.00142C16.2217 5.22542 16.3334 5.5027 16.3334 5.83325V9.33325H3.50002V23.3333H22.1667V12.8333H23.3334C23.4889 12.8333 23.6398 12.8624 23.786 12.9208C23.9315 12.9791 24.0579 13.0615 24.1652 13.1681C24.2717 13.2754 24.3542 13.4018 24.4125 13.5473C24.4709 13.6935 24.5 13.8444 24.5 13.9999V23.3333C24.5 23.9749 24.2717 24.5244 23.8152 24.9818C23.3579 25.4383 22.8084 25.6666 22.1667 25.6666H3.50002ZM22.1667 6.99992H21C20.6695 6.99992 20.3926 6.88831 20.1694 6.66509C19.9454 6.44109 19.8334 6.16381 19.8334 5.83325C19.8334 5.5027 19.9454 5.22542 20.1694 5.00142C20.3926 4.7782 20.6695 4.66659 21 4.66659H22.1667V3.49992C22.1667 3.16936 22.2787 2.89209 22.5027 2.66809C22.7259 2.44486 23.0028 2.33325 23.3334 2.33325C23.6639 2.33325 23.9408 2.44486 24.164 2.66809C24.388 2.89209 24.5 3.16936 24.5 3.49992V4.66659H25.6667C25.9972 4.66659 26.2741 4.7782 26.4974 5.00142C26.7214 5.22542 26.8334 5.5027 26.8334 5.83325C26.8334 6.16381 26.7214 6.44109 26.4974 6.66509C26.2741 6.88831 25.9972 6.99992 25.6667 6.99992H24.5V8.16659C24.5 8.49714 24.388 8.77442 24.164 8.99842C23.9408 9.22164 23.6639 9.33325 23.3334 9.33325C23.0028 9.33325 22.7259 9.22164 22.5027 8.99842C22.2787 8.77442 22.1667 8.49714 22.1667 8.16659V6.99992Z" fill="black"/>
</svg>
