<svg width="24" height="24" viewBox="0 0 24 24" fill="none" xmlns="http://www.w3.org/2000/svg">
<path d="M11 18.5C12.25 18.5 13.3127 18.0627 14.188 17.188C15.0627 16.3127 15.5 15.25 15.5 14C15.5 12.75 15.0627 11.6873 14.188 10.812C13.3127 9.93733 12.25 9.5 11 9.5C9.75 9.5 8.68733 9.93733 7.812 10.812C6.93733 11.6873 6.5 12.75 6.5 14C6.5 15.25 6.93733 16.3127 7.812 17.188C8.68733 18.0627 9.75 18.5 11 18.5ZM3 22C2.45 22 1.97933 21.8043 1.588 21.413C1.196 21.021 1 20.55 1 20V8C1 7.45 1.196 6.97933 1.588 6.588C1.97933 6.196 2.45 6 3 6H6.15L7.4 4.65C7.58333 4.45 7.804 4.29167 8.062 4.175C8.32067 4.05833 8.59167 4 8.875 4H13C13.2833 4 13.521 4.09567 13.713 4.287C13.9043 4.479 14 4.71667 14 5V8H3V20H19V11H20C20.1333 11 20.2627 11.025 20.388 11.075C20.5127 11.125 20.621 11.1957 20.713 11.287C20.8043 11.379 20.875 11.4873 20.925 11.612C20.975 11.7373 21 11.8667 21 12V20C21 20.55 20.8043 21.021 20.413 21.413C20.021 21.8043 19.55 22 19 22H3ZM19 6H18C17.7167 6 17.4793 5.90433 17.288 5.713C17.096 5.521 17 5.28333 17 5C17 4.71667 17.096 4.479 17.288 4.287C17.4793 4.09567 17.7167 4 18 4H19V3C19 2.71667 19.096 2.479 19.288 2.287C19.4793 2.09567 19.7167 2 20 2C20.2833 2 20.5207 2.09567 20.712 2.287C20.904 2.479 21 2.71667 21 3V4H22C22.2833 4 22.5207 4.09567 22.712 4.287C22.904 4.479 23 4.71667 23 5C23 5.28333 22.904 5.521 22.712 5.713C22.5207 5.90433 22.2833 6 22 6H21V7C21 7.28333 20.904 7.521 20.712 7.713C20.5207 7.90433 20.2833 8 20 8C19.7167 8 19.4793 7.90433 19.288 7.713C19.096 7.521 19 7.28333 19 7V6Z" fill="black"/>
</svg>
