<svg width="28" height="28" viewBox="0 0 28 28" fill="none" xmlns="http://www.w3.org/2000/svg">
<path d="M3.49999 25.6666C2.85832 25.6666 2.30921 25.4384 1.85266 24.9818C1.39532 24.5245 1.16666 23.975 1.16666 23.3333V9.33331C1.16666 8.69165 1.39532 8.14254 1.85266 7.68598C2.30921 7.22865 2.85832 6.99998 3.49999 6.99998H7.17499L8.63332 5.42498C8.84721 5.19165 9.10466 5.00692 9.40566 4.87081C9.70743 4.7347 10.0236 4.66665 10.3542 4.66665H15.1667C15.4972 4.66665 15.7745 4.77826 15.9985 5.00148C16.2217 5.22548 16.3333 5.50276 16.3333 5.83331V8.16665C16.3333 8.4972 16.4453 8.77448 16.6693 8.99848C16.8925 9.2217 17.1694 9.33331 17.5 9.33331H19.8333V11.6666C19.8333 11.9972 19.9453 12.2741 20.1693 12.4973C20.3925 12.7213 20.6694 12.8333 21 12.8333H23.3333C23.6639 12.8333 23.9408 12.9449 24.164 13.1681C24.388 13.3921 24.5 13.6694 24.5 14V23.3333C24.5 23.975 24.2717 24.5245 23.8152 24.9818C23.3578 25.4384 22.8083 25.6666 22.1667 25.6666H3.49999ZM12.8333 21.5833C14.2917 21.5833 15.5314 21.0731 16.5527 20.0526C17.5731 19.0314 18.0833 17.7916 18.0833 16.3333C18.0833 14.875 17.5731 13.6352 16.5527 12.614C15.5314 11.5935 14.2917 11.0833 12.8333 11.0833C11.375 11.0833 10.1352 11.5935 9.11399 12.614C8.09354 13.6352 7.58332 14.875 7.58332 16.3333C7.58332 17.7916 8.09354 19.0314 9.11399 20.0526C10.1352 21.0731 11.375 21.5833 12.8333 21.5833ZM22.1667 6.99998H21C20.6694 6.99998 20.3925 6.88837 20.1693 6.66515C19.9453 6.44115 19.8333 6.16387 19.8333 5.83331C19.8333 5.50276 19.9453 5.22548 20.1693 5.00148C20.3925 4.77826 20.6694 4.66665 21 4.66665H22.1667V3.49998C22.1667 3.16942 22.2787 2.89215 22.5027 2.66815C22.7259 2.44492 23.0028 2.33331 23.3333 2.33331C23.6639 2.33331 23.9408 2.44492 24.164 2.66815C24.388 2.89215 24.5 3.16942 24.5 3.49998V4.66665H25.6667C25.9972 4.66665 26.2741 4.77826 26.4973 5.00148C26.7213 5.22548 26.8333 5.50276 26.8333 5.83331C26.8333 6.16387 26.7213 6.44115 26.4973 6.66515C26.2741 6.88837 25.9972 6.99998 25.6667 6.99998H24.5V8.16665C24.5 8.4972 24.388 8.77448 24.164 8.99848C23.9408 9.2217 23.6639 9.33331 23.3333 9.33331C23.0028 9.33331 22.7259 9.2217 22.5027 8.99848C22.2787 8.77448 22.1667 8.4972 22.1667 8.16665V6.99998Z" fill="black"/>
</svg>
