<svg width="16" height="16" viewBox="0 0 16 16" fill="none" xmlns="http://www.w3.org/2000/svg">
<path d="M7.33335 12.3333C8.16669 12.3333 8.87513 12.0417 9.45869 11.4586C10.0418 10.875 10.3334 10.1666 10.3334 9.33325C10.3334 8.49992 10.0418 7.79147 9.45869 7.20792C8.87513 6.62481 8.16669 6.33325 7.33335 6.33325C6.50002 6.33325 5.79158 6.62481 5.20802 7.20792C4.62491 7.79147 4.33335 8.49992 4.33335 9.33325C4.33335 10.1666 4.62491 10.875 5.20802 11.4586C5.79158 12.0417 6.50002 12.3333 7.33335 12.3333ZM2.00002 14.6666C1.63335 14.6666 1.31958 14.5361 1.05869 14.2753C0.797354 14.0139 0.666687 13.6999 0.666687 13.3333V5.33325C0.666687 4.96659 0.797354 4.65281 1.05869 4.39192C1.31958 4.13059 1.63335 3.99992 2.00002 3.99992H4.10002L4.93335 3.09992C5.05558 2.96659 5.20269 2.86103 5.37469 2.78325C5.54713 2.70547 5.7278 2.66659 5.91669 2.66659H8.66669C8.85558 2.66659 9.01402 2.73036 9.14202 2.85792C9.26958 2.98592 9.33335 3.14436 9.33335 3.33325V5.33325H2.00002V13.3333H12.6667V7.33325H13.3334C13.4222 7.33325 13.5085 7.34992 13.592 7.38325C13.6751 7.41658 13.7474 7.4637 13.8087 7.52458C13.8696 7.58592 13.9167 7.65814 13.95 7.74125C13.9834 7.82481 14 7.91103 14 7.99992V13.3333C14 13.6999 13.8696 14.0139 13.6087 14.2753C13.3474 14.5361 13.0334 14.6666 12.6667 14.6666H2.00002ZM12.6667 3.99992H12C11.8111 3.99992 11.6529 3.93614 11.5254 3.80859C11.3974 3.68059 11.3334 3.52214 11.3334 3.33325C11.3334 3.14436 11.3974 2.98592 11.5254 2.85792C11.6529 2.73036 11.8111 2.66659 12 2.66659H12.6667V1.99992C12.6667 1.81103 12.7307 1.65259 12.8587 1.52459C12.9862 1.39703 13.1445 1.33325 13.3334 1.33325C13.5222 1.33325 13.6805 1.39703 13.808 1.52459C13.936 1.65259 14 1.81103 14 1.99992V2.66659H14.6667C14.8556 2.66659 15.0138 2.73036 15.1414 2.85792C15.2694 2.98592 15.3334 3.14436 15.3334 3.33325C15.3334 3.52214 15.2694 3.68059 15.1414 3.80859C15.0138 3.93614 14.8556 3.99992 14.6667 3.99992H14V4.66659C14 4.85547 13.936 5.01392 13.808 5.14192C13.6805 5.26947 13.5222 5.33325 13.3334 5.33325C13.1445 5.33325 12.9862 5.26947 12.8587 5.14192C12.7307 5.01392 12.6667 4.85547 12.6667 4.66659V3.99992Z" fill="black"/>
</svg>
