<svg width="16" height="16" viewBox="0 0 16 16" fill="none" xmlns="http://www.w3.org/2000/svg">
<path d="M1.99999 14.6666C1.63332 14.6666 1.31955 14.5362 1.05866 14.2753C0.797323 14.014 0.666656 13.7 0.666656 13.3333V5.33331C0.666656 4.96665 0.797323 4.65287 1.05866 4.39198C1.31955 4.13065 1.63332 3.99998 1.99999 3.99998H4.09999L4.93332 3.09998C5.05555 2.96665 5.20266 2.86109 5.37466 2.78331C5.5471 2.70554 5.72777 2.66665 5.91666 2.66665H8.66666C8.85555 2.66665 9.01399 2.73042 9.14199 2.85798C9.26955 2.98598 9.33332 3.14442 9.33332 3.33331V4.66665C9.33332 4.85553 9.39732 5.01398 9.52532 5.14198C9.65288 5.26953 9.8111 5.33331 9.99999 5.33331H11.3333V6.66665C11.3333 6.85553 11.3973 7.01376 11.5253 7.14131C11.6529 7.26931 11.8111 7.33331 12 7.33331H13.3333C13.5222 7.33331 13.6804 7.39709 13.808 7.52465C13.936 7.65265 14 7.81109 14 7.99998V13.3333C14 13.7 13.8695 14.014 13.6087 14.2753C13.3473 14.5362 13.0333 14.6666 12.6667 14.6666H1.99999ZM7.33332 12.3333C8.16666 12.3333 8.8751 12.0418 9.45866 11.4586C10.0418 10.8751 10.3333 10.1666 10.3333 9.33331C10.3333 8.49998 10.0418 7.79153 9.45866 7.20798C8.8751 6.62487 8.16666 6.33331 7.33332 6.33331C6.49999 6.33331 5.79155 6.62487 5.20799 7.20798C4.62488 7.79153 4.33332 8.49998 4.33332 9.33331C4.33332 10.1666 4.62488 10.8751 5.20799 11.4586C5.79155 12.0418 6.49999 12.3333 7.33332 12.3333ZM12.6667 3.99998H12C11.8111 3.99998 11.6529 3.9362 11.5253 3.80865C11.3973 3.68065 11.3333 3.5222 11.3333 3.33331C11.3333 3.14442 11.3973 2.98598 11.5253 2.85798C11.6529 2.73042 11.8111 2.66665 12 2.66665H12.6667V1.99998C12.6667 1.81109 12.7307 1.65265 12.8587 1.52465C12.9862 1.39709 13.1444 1.33331 13.3333 1.33331C13.5222 1.33331 13.6804 1.39709 13.808 1.52465C13.936 1.65265 14 1.81109 14 1.99998V2.66665H14.6667C14.8555 2.66665 15.0138 2.73042 15.1413 2.85798C15.2693 2.98598 15.3333 3.14442 15.3333 3.33331C15.3333 3.5222 15.2693 3.68065 15.1413 3.80865C15.0138 3.9362 14.8555 3.99998 14.6667 3.99998H14V4.66665C14 4.85553 13.936 5.01398 13.808 5.14198C13.6804 5.26953 13.5222 5.33331 13.3333 5.33331C13.1444 5.33331 12.9862 5.26953 12.8587 5.14198C12.7307 5.01398 12.6667 4.85553 12.6667 4.66665V3.99998Z" fill="black"/>
</svg>
