<svg width="28" height="28" viewBox="0 0 28 28" fill="none" xmlns="http://www.w3.org/2000/svg">
<path d="M14 25.6667C12.3861 25.6667 10.8695 25.3605 9.45001 24.748C8.03057 24.1355 6.79584 23.3042 5.74584 22.2542C4.69584 21.2042 3.86459 19.9695 3.25209 18.5501C2.63959 17.1306 2.33334 15.614 2.33334 14.0001C2.33334 12.3862 2.63959 10.8695 3.25209 9.45008C3.86459 8.03064 4.69584 6.79591 5.74584 5.74591C6.79584 4.69591 8.03057 3.86466 9.45001 3.25216C10.8695 2.63966 12.3861 2.33341 14 2.33341C14.8361 2.33341 15.6431 2.41605 16.4208 2.58133C17.1986 2.74661 17.9472 2.9848 18.6667 3.29591V5.92091C17.9861 5.53203 17.2521 5.22578 16.4646 5.00216C15.6771 4.77855 14.8556 4.66675 14 4.66675C11.4139 4.66675 9.21182 5.57578 7.39376 7.39383C5.5757 9.21189 4.66668 11.414 4.66668 14.0001C4.66668 16.5862 5.5757 18.7883 7.39376 20.6063C9.21182 22.4244 11.4139 23.3334 14 23.3334C16.5861 23.3334 18.7882 22.4244 20.6063 20.6063C22.4243 18.7883 23.3333 16.5862 23.3333 14.0001C23.3333 13.3779 23.2701 12.7751 23.1438 12.1917C23.0174 11.6084 22.8472 11.0445 22.6333 10.5001H25.1417C25.3167 11.064 25.4479 11.6327 25.5354 12.2063C25.6229 12.7799 25.6667 13.3779 25.6667 14.0001C25.6667 15.614 25.3604 17.1306 24.7479 18.5501C24.1354 19.9695 23.3042 21.2042 22.2542 22.2542C21.2042 23.3042 19.9695 24.1355 18.55 24.748C17.1306 25.3605 15.6139 25.6667 14 25.6667ZM23.3333 5.83341H22.1667C21.8361 5.83341 21.559 5.72161 21.3354 5.498C21.1118 5.27439 21 4.9973 21 4.66675C21 4.33619 21.1118 4.05911 21.3354 3.8355C21.559 3.61189 21.8361 3.50008 22.1667 3.50008H23.3333V2.33341C23.3333 2.00286 23.4451 1.72578 23.6688 1.50216C23.8924 1.27855 24.1695 1.16675 24.5 1.16675C24.8306 1.16675 25.1076 1.27855 25.3313 1.50216C25.5549 1.72578 25.6667 2.00286 25.6667 2.33341V3.50008H26.8333C27.1639 3.50008 27.441 3.61189 27.6646 3.8355C27.8882 4.05911 28 4.33619 28 4.66675C28 4.9973 27.8882 5.27439 27.6646 5.498C27.441 5.72161 27.1639 5.83341 26.8333 5.83341H25.6667V7.00008C25.6667 7.33064 25.5549 7.60772 25.3313 7.83133C25.1076 8.05494 24.8306 8.16675 24.5 8.16675C24.1695 8.16675 23.8924 8.05494 23.6688 7.83133C23.4451 7.60772 23.3333 7.33064 23.3333 7.00008V5.83341ZM18.0833 12.8334C18.5695 12.8334 18.9826 12.6633 19.3229 12.323C19.6632 11.9827 19.8333 11.5695 19.8333 11.0834C19.8333 10.5973 19.6632 10.1841 19.3229 9.84383C18.9826 9.50355 18.5695 9.33341 18.0833 9.33341C17.5972 9.33341 17.184 9.50355 16.8438 9.84383C16.5035 10.1841 16.3333 10.5973 16.3333 11.0834C16.3333 11.5695 16.5035 11.9827 16.8438 12.323C17.184 12.6633 17.5972 12.8334 18.0833 12.8334ZM9.91668 12.8334C10.4028 12.8334 10.816 12.6633 11.1563 12.323C11.4965 11.9827 11.6667 11.5695 11.6667 11.0834C11.6667 10.5973 11.4965 10.1841 11.1563 9.84383C10.816 9.50355 10.4028 9.33341 9.91668 9.33341C9.43057 9.33341 9.01737 9.50355 8.67709 9.84383C8.33682 10.1841 8.16668 10.5973 8.16668 11.0834C8.16668 11.5695 8.33682 11.9827 8.67709 12.323C9.01737 12.6633 9.43057 12.8334 9.91668 12.8334ZM14 20.4167C15.1278 20.4167 16.1681 20.1445 17.1208 19.6001C18.0736 19.0556 18.8417 18.3167 19.425 17.3834C19.5417 17.1501 19.532 16.9167 19.3958 16.6834C19.2597 16.4501 19.0556 16.3334 18.7833 16.3334H9.21668C8.94445 16.3334 8.74029 16.4501 8.60418 16.6834C8.46807 16.9167 8.45834 17.1501 8.57501 17.3834C9.15834 18.3167 9.93126 19.0556 10.8938 19.6001C11.8563 20.1445 12.8917 20.4167 14 20.4167Z" fill="black"/>
</svg>
