<svg width="16" height="16" viewBox="0 0 16 16" fill="none" xmlns="http://www.w3.org/2000/svg">
<path d="M7.99998 14.6667C7.07776 14.6667 6.21109 14.4917 5.39998 14.1417C4.58887 13.7917 3.88331 13.3167 3.28331 12.7167C2.68331 12.1167 2.20831 11.4112 1.85831 10.6001C1.50831 9.78897 1.33331 8.9223 1.33331 8.00008C1.33331 7.07786 1.50831 6.21119 1.85831 5.40008C2.20831 4.58897 2.68331 3.88341 3.28331 3.28341C3.88331 2.68341 4.58887 2.20841 5.39998 1.85841C6.21109 1.50841 7.07776 1.33341 7.99998 1.33341C8.47776 1.33341 8.93887 1.38064 9.38331 1.47508C9.82776 1.56953 10.2555 1.70564 10.6666 1.88341V3.38341C10.2778 3.16119 9.85831 2.98619 9.40831 2.85841C8.95831 2.73064 8.48887 2.66675 7.99998 2.66675C6.5222 2.66675 5.26387 3.18619 4.22498 4.22508C3.18609 5.26397 2.66665 6.5223 2.66665 8.00008C2.66665 9.47786 3.18609 10.7362 4.22498 11.7751C5.26387 12.814 6.5222 13.3334 7.99998 13.3334C9.47776 13.3334 10.7361 12.814 11.775 11.7751C12.8139 10.7362 13.3333 9.47786 13.3333 8.00008C13.3333 7.64453 13.2972 7.30008 13.225 6.96675C13.1528 6.63341 13.0555 6.31119 12.9333 6.00008H14.3666C14.4666 6.3223 14.5416 6.6473 14.5916 6.97508C14.6416 7.30286 14.6666 7.64453 14.6666 8.00008C14.6666 8.9223 14.4916 9.78897 14.1416 10.6001C13.7916 11.4112 13.3166 12.1167 12.7166 12.7167C12.1166 13.3167 11.4111 13.7917 10.6 14.1417C9.78887 14.4917 8.9222 14.6667 7.99998 14.6667ZM13.3333 3.33341H12.6666C12.4778 3.33341 12.3194 3.26953 12.1916 3.14175C12.0639 3.01397 12 2.85564 12 2.66675C12 2.47786 12.0639 2.31953 12.1916 2.19175C12.3194 2.06397 12.4778 2.00008 12.6666 2.00008H13.3333V1.33341C13.3333 1.14453 13.3972 0.986192 13.525 0.858415C13.6528 0.730637 13.8111 0.666748 14 0.666748C14.1889 0.666748 14.3472 0.730637 14.475 0.858415C14.6028 0.986192 14.6666 1.14453 14.6666 1.33341V2.00008H15.3333C15.5222 2.00008 15.6805 2.06397 15.8083 2.19175C15.9361 2.31953 16 2.47786 16 2.66675C16 2.85564 15.9361 3.01397 15.8083 3.14175C15.6805 3.26953 15.5222 3.33341 15.3333 3.33341H14.6666V4.00008C14.6666 4.18897 14.6028 4.3473 14.475 4.47508C14.3472 4.60286 14.1889 4.66675 14 4.66675C13.8111 4.66675 13.6528 4.60286 13.525 4.47508C13.3972 4.3473 13.3333 4.18897 13.3333 4.00008V3.33341ZM10.3333 7.33341C10.6111 7.33341 10.8472 7.23619 11.0416 7.04175C11.2361 6.8473 11.3333 6.61119 11.3333 6.33341C11.3333 6.05564 11.2361 5.81953 11.0416 5.62508C10.8472 5.43064 10.6111 5.33341 10.3333 5.33341C10.0555 5.33341 9.81942 5.43064 9.62498 5.62508C9.43054 5.81953 9.33331 6.05564 9.33331 6.33341C9.33331 6.61119 9.43054 6.8473 9.62498 7.04175C9.81942 7.23619 10.0555 7.33341 10.3333 7.33341ZM5.66665 7.33341C5.94442 7.33341 6.18054 7.23619 6.37498 7.04175C6.56942 6.8473 6.66665 6.61119 6.66665 6.33341C6.66665 6.05564 6.56942 5.81953 6.37498 5.62508C6.18054 5.43064 5.94442 5.33341 5.66665 5.33341C5.38887 5.33341 5.15276 5.43064 4.95831 5.62508C4.76387 5.81953 4.66665 6.05564 4.66665 6.33341C4.66665 6.61119 4.76387 6.8473 4.95831 7.04175C5.15276 7.23619 5.38887 7.33341 5.66665 7.33341ZM7.99998 11.6667C8.64442 11.6667 9.23887 11.5112 9.78331 11.2001C10.3278 10.889 10.7666 10.4667 11.1 9.93342C11.1666 9.80008 11.1611 9.66675 11.0833 9.53342C11.0055 9.40008 10.8889 9.33341 10.7333 9.33341H5.26665C5.11109 9.33341 4.99442 9.40008 4.91665 9.53342C4.83887 9.66675 4.83331 9.80008 4.89998 9.93342C5.23331 10.4667 5.67498 10.889 6.22498 11.2001C6.77498 11.5112 7.36665 11.6667 7.99998 11.6667Z" fill="black"/>
</svg>
