<svg width="28" height="28" viewBox="0 0 28 28" fill="none" xmlns="http://www.w3.org/2000/svg">
<path d="M14 25.6665C12.3862 25.6665 10.8695 25.3603 9.45004 24.7478C8.0306 24.1353 6.79587 23.304 5.74587 22.254C4.69587 21.204 3.86462 19.9693 3.25212 18.5498C2.63962 17.1304 2.33337 15.6137 2.33337 13.9998C2.33337 12.3859 2.63962 10.8693 3.25212 9.44984C3.86462 8.03039 4.69587 6.79567 5.74587 5.74567C6.79587 4.69567 8.0306 3.86442 9.45004 3.25192C10.8695 2.63942 12.3862 2.33317 14 2.33317C14.8362 2.33317 15.6431 2.41581 16.4209 2.58109C17.1987 2.74636 17.9473 2.98456 18.6667 3.29567V5.92067C17.9862 5.53178 17.2521 5.22553 16.4646 5.00192C15.6771 4.77831 14.8556 4.6665 14 4.6665C11.4139 4.6665 9.21185 5.57553 7.39379 7.39359C5.57574 9.21164 4.66671 11.4137 4.66671 13.9998C4.66671 16.5859 5.57574 18.788 7.39379 20.6061C9.21185 22.4241 11.4139 23.3332 14 23.3332C16.5862 23.3332 18.7882 22.4241 20.6063 20.6061C22.4243 18.788 23.3334 16.5859 23.3334 13.9998C23.3334 13.3776 23.2702 12.7748 23.1438 12.1915C23.0174 11.6082 22.8473 11.0443 22.6334 10.4998H25.1417C25.3167 11.0637 25.448 11.6325 25.5355 12.2061C25.623 12.7797 25.6667 13.3776 25.6667 13.9998C25.6667 15.6137 25.3605 17.1304 24.748 18.5498C24.1355 19.9693 23.3042 21.204 22.2542 22.254C21.2042 23.304 19.9695 24.1353 18.55 24.7478C17.1306 25.3603 15.6139 25.6665 14 25.6665ZM23.3334 5.83317H22.1667C21.8362 5.83317 21.5591 5.72136 21.3355 5.49775C21.1118 5.27414 21 4.99706 21 4.6665C21 4.33595 21.1118 4.05887 21.3355 3.83525C21.5591 3.61164 21.8362 3.49984 22.1667 3.49984H23.3334V2.33317C23.3334 2.00261 23.4452 1.72553 23.6688 1.50192C23.8924 1.27831 24.1695 1.1665 24.5 1.1665C24.8306 1.1665 25.1077 1.27831 25.3313 1.50192C25.5549 1.72553 25.6667 2.00261 25.6667 2.33317V3.49984H26.8334C27.1639 3.49984 27.441 3.61164 27.6646 3.83525C27.8882 4.05887 28 4.33595 28 4.6665C28 4.99706 27.8882 5.27414 27.6646 5.49775C27.441 5.72136 27.1639 5.83317 26.8334 5.83317H25.6667V6.99984C25.6667 7.33039 25.5549 7.60748 25.3313 7.83109C25.1077 8.0547 24.8306 8.1665 24.5 8.1665C24.1695 8.1665 23.8924 8.0547 23.6688 7.83109C23.4452 7.60748 23.3334 7.33039 23.3334 6.99984V5.83317ZM18.0834 12.8332C18.5695 12.8332 18.9827 12.663 19.323 12.3228C19.6632 11.9825 19.8334 11.5693 19.8334 11.0832C19.8334 10.5971 19.6632 10.1839 19.323 9.84359C18.9827 9.50331 18.5695 9.33317 18.0834 9.33317C17.5973 9.33317 17.1841 9.50331 16.8438 9.84359C16.5035 10.1839 16.3334 10.5971 16.3334 11.0832C16.3334 11.5693 16.5035 11.9825 16.8438 12.3228C17.1841 12.663 17.5973 12.8332 18.0834 12.8332ZM9.91671 12.8332C10.4028 12.8332 10.816 12.663 11.1563 12.3228C11.4966 11.9825 11.6667 11.5693 11.6667 11.0832C11.6667 10.5971 11.4966 10.1839 11.1563 9.84359C10.816 9.50331 10.4028 9.33317 9.91671 9.33317C9.4306 9.33317 9.0174 9.50331 8.67712 9.84359C8.33685 10.1839 8.16671 10.5971 8.16671 11.0832C8.16671 11.5693 8.33685 11.9825 8.67712 12.3228C9.0174 12.663 9.4306 12.8332 9.91671 12.8332ZM14 20.4165C15.1278 20.4165 16.1681 20.1443 17.1209 19.5998C18.0737 19.0554 18.8417 18.3165 19.425 17.3832C19.5417 17.1498 19.532 16.9165 19.3959 16.6832C19.2598 16.4498 19.0556 16.3332 18.7834 16.3332H9.21671C8.94449 16.3332 8.74032 16.4498 8.60421 16.6832C8.4681 16.9165 8.45837 17.1498 8.57504 17.3832C9.15837 18.3165 9.93129 19.0554 10.8938 19.5998C11.8563 20.1443 12.8917 20.4165 14 20.4165Z" fill="black"/>
</svg>
