<svg width="16" height="16" viewBox="0 0 16 16" fill="none" xmlns="http://www.w3.org/2000/svg">
<g clip-path="url(#clip0_336_89)">
<path d="M8.00004 14.6665C7.07782 14.6665 6.21115 14.4915 5.40004 14.1415C4.58893 13.7915 3.88337 13.3165 3.28337 12.7165C2.68337 12.1165 2.20837 11.4109 1.85837 10.5998C1.50837 9.78873 1.33337 8.92206 1.33337 7.99984C1.33337 7.07762 1.50837 6.21095 1.85837 5.39984C2.20837 4.58873 2.68337 3.88317 3.28337 3.28317C3.88337 2.68317 4.58893 2.20817 5.40004 1.85817C6.21115 1.50817 7.07782 1.33317 8.00004 1.33317C8.47782 1.33317 8.93893 1.38039 9.38337 1.47484C9.82782 1.56928 10.2556 1.70539 10.6667 1.88317V3.38317C10.2778 3.16095 9.85837 2.98595 9.40837 2.85817C8.95837 2.73039 8.48893 2.6665 8.00004 2.6665C6.52226 2.6665 5.26393 3.18595 4.22504 4.22484C3.18615 5.26373 2.66671 6.52206 2.66671 7.99984C2.66671 9.47762 3.18615 10.7359 4.22504 11.7748C5.26393 12.8137 6.52226 13.3332 8.00004 13.3332C9.47782 13.3332 10.7362 12.8137 11.775 11.7748C12.8139 10.7359 13.3334 9.47762 13.3334 7.99984C13.3334 7.64428 13.2973 7.29984 13.225 6.9665C13.1528 6.63317 13.0556 6.31095 12.9334 5.99984H14.3667C14.4667 6.32206 14.5417 6.64706 14.5917 6.97484C14.6417 7.30262 14.6667 7.64428 14.6667 7.99984C14.6667 8.92206 14.4917 9.78873 14.1417 10.5998C13.7917 11.4109 13.3167 12.1165 12.7167 12.7165C12.1167 13.3165 11.4112 13.7915 10.6 14.1415C9.78893 14.4915 8.92226 14.6665 8.00004 14.6665ZM13.3334 3.33317H12.6667C12.4778 3.33317 12.3195 3.26928 12.1917 3.1415C12.0639 3.01373 12 2.85539 12 2.6665C12 2.47762 12.0639 2.31928 12.1917 2.1915C12.3195 2.06373 12.4778 1.99984 12.6667 1.99984H13.3334V1.33317C13.3334 1.14428 13.3973 0.985948 13.525 0.858171C13.6528 0.730393 13.8112 0.666504 14 0.666504C14.1889 0.666504 14.3473 0.730393 14.475 0.858171C14.6028 0.985948 14.6667 1.14428 14.6667 1.33317V1.99984H15.3334C15.5223 1.99984 15.6806 2.06373 15.8084 2.1915C15.9362 2.31928 16 2.47762 16 2.6665C16 2.85539 15.9362 3.01373 15.8084 3.1415C15.6806 3.26928 15.5223 3.33317 15.3334 3.33317H14.6667V3.99984C14.6667 4.18873 14.6028 4.34706 14.475 4.47484C14.3473 4.60262 14.1889 4.6665 14 4.6665C13.8112 4.6665 13.6528 4.60262 13.525 4.47484C13.3973 4.34706 13.3334 4.18873 13.3334 3.99984V3.33317ZM10.3334 7.33317C10.6112 7.33317 10.8473 7.23595 11.0417 7.0415C11.2362 6.84706 11.3334 6.61095 11.3334 6.33317C11.3334 6.05539 11.2362 5.81928 11.0417 5.62484C10.8473 5.43039 10.6112 5.33317 10.3334 5.33317C10.0556 5.33317 9.81949 5.43039 9.62504 5.62484C9.4306 5.81928 9.33337 6.05539 9.33337 6.33317C9.33337 6.61095 9.4306 6.84706 9.62504 7.0415C9.81949 7.23595 10.0556 7.33317 10.3334 7.33317ZM5.66671 7.33317C5.94449 7.33317 6.1806 7.23595 6.37504 7.0415C6.56949 6.84706 6.66671 6.61095 6.66671 6.33317C6.66671 6.05539 6.56949 5.81928 6.37504 5.62484C6.1806 5.43039 5.94449 5.33317 5.66671 5.33317C5.38893 5.33317 5.15282 5.43039 4.95837 5.62484C4.76393 5.81928 4.66671 6.05539 4.66671 6.33317C4.66671 6.61095 4.76393 6.84706 4.95837 7.0415C5.15282 7.23595 5.38893 7.33317 5.66671 7.33317ZM8.00004 11.6665C8.64449 11.6665 9.23893 11.5109 9.78337 11.1998C10.3278 10.8887 10.7667 10.4665 11.1 9.93317C11.1667 9.79984 11.1612 9.6665 11.0834 9.53317C11.0056 9.39984 10.8889 9.33317 10.7334 9.33317H5.26671C5.11115 9.33317 4.99449 9.39984 4.91671 9.53317C4.83893 9.6665 4.83337 9.79984 4.90004 9.93317C5.23337 10.4665 5.67504 10.8887 6.22504 11.1998C6.77504 11.5109 7.36671 11.6665 8.00004 11.6665Z" fill="black"/>
</g>
<defs>
<clipPath id="clip0_336_89">
<rect width="16" height="16" fill="white"/>
</clipPath>
</defs>
</svg>
