<svg width="16" height="16" viewBox="0 0 16 16" fill="none" xmlns="http://www.w3.org/2000/svg">
<path d="M11.3333 7.27165C11.56 7.27165 11.78 7.29831 12 7.33165V4.99165C12 4.45831 11.6867 3.97831 11.2 3.77165L7.53333 2.17165C7.19333 2.02498 6.80667 2.02498 6.46667 2.17165L2.8 3.77165C2.31333 3.98498 2 4.46498 2 4.99165V7.39165C2 10.4183 4.13333 13.2516 7 13.9383C7.36667 13.8516 7.72 13.725 8.06667 13.5716C7.60667 12.9183 7.33333 12.125 7.33333 11.2716C7.33333 9.06498 9.12667 7.27165 11.3333 7.27165Z" fill="black"/>
<path d="M11.3333 8.60498C9.86 8.60498 8.66667 9.79831 8.66667 11.2716C8.66667 12.745 9.86 13.9383 11.3333 13.9383C12.8067 13.9383 14 12.745 14 11.2716C14 9.79831 12.8067 8.60498 11.3333 8.60498ZM11.3333 9.52498C11.7467 9.52498 12.08 9.86498 12.08 10.2716C12.08 10.6783 11.74 11.0183 11.3333 11.0183C10.9267 11.0183 10.5867 10.6783 10.5867 10.2716C10.5867 9.86498 10.92 9.52498 11.3333 9.52498ZM11.3333 13.105C10.7133 13.105 10.1733 12.7983 9.84 12.325C9.87333 11.845 10.8467 11.605 11.3333 11.605C11.82 11.605 12.7933 11.845 12.8267 12.325C12.4933 12.7983 11.9533 13.105 11.3333 13.105Z" fill="black"/>
</svg>
