<svg width="28" height="28" viewBox="0 0 28 28" fill="none" xmlns="http://www.w3.org/2000/svg">
<path d="M19.8333 12.7254C20.23 12.7254 20.615 12.7721 21 12.8304V8.73541C21 7.80208 20.4517 6.96208 19.6 6.60041L13.1833 3.80041C12.5883 3.54374 11.9117 3.54374 11.3167 3.80041L4.9 6.60041C4.04833 6.97374 3.5 7.81374 3.5 8.73541V12.9354C3.5 18.2321 7.23333 23.1904 12.25 24.3921C12.8917 24.2404 13.51 24.0187 14.1167 23.7504C13.3117 22.6071 12.8333 21.2187 12.8333 19.7254C12.8333 15.8637 15.9717 12.7254 19.8333 12.7254Z" fill="black"/>
<path d="M19.8333 15.0587C17.255 15.0587 15.1667 17.1471 15.1667 19.7254C15.1667 22.3037 17.255 24.3921 19.8333 24.3921C22.4117 24.3921 24.5 22.3037 24.5 19.7254C24.5 17.1471 22.4117 15.0587 19.8333 15.0587ZM19.8333 16.6687C20.5567 16.6687 21.14 17.2637 21.14 17.9754C21.14 18.6871 20.545 19.2821 19.8333 19.2821C19.1217 19.2821 18.5267 18.6871 18.5267 17.9754C18.5267 17.2637 19.11 16.6687 19.8333 16.6687ZM19.8333 22.9337C18.7483 22.9337 17.8033 22.3971 17.22 21.5687C17.2783 20.7287 18.9817 20.3087 19.8333 20.3087C20.685 20.3087 22.3883 20.7287 22.4467 21.5687C21.8633 22.3971 20.9183 22.9337 19.8333 22.9337Z" fill="black"/>
</svg>
