<svg width="24" height="24" viewBox="0 0 24 24" fill="none" xmlns="http://www.w3.org/2000/svg">
<path d="M16 16.9999C16.4167 16.9999 16.7707 16.8539 17.062 16.5619C17.354 16.2706 17.5 15.9166 17.5 15.4999C17.5 15.0832 17.354 14.7292 17.062 14.4379C16.7707 14.1459 16.4167 13.9999 16 13.9999C15.5833 13.9999 15.2293 14.1459 14.938 14.4379C14.646 14.7292 14.5 15.0832 14.5 15.4999C14.5 15.9166 14.646 16.2706 14.938 16.5619C15.2293 16.8539 15.5833 16.9999 16 16.9999ZM16 19.9999C16.5167 19.9999 16.9917 19.8789 17.425 19.6369C17.8583 19.3956 18.2083 19.0749 18.475 18.6749C18.1083 18.4582 17.7167 18.2916 17.3 18.1749C16.8833 18.0582 16.45 17.9999 16 17.9999C15.55 17.9999 15.1167 18.0582 14.7 18.1749C14.2833 18.2916 13.8917 18.4582 13.525 18.6749C13.7917 19.0749 14.1417 19.3956 14.575 19.6369C15.0083 19.8789 15.4833 19.9999 16 19.9999ZM16 21.9999C14.6167 21.9999 13.4377 21.5126 12.463 20.5379C11.4877 19.5626 11 18.3832 11 16.9999C11 15.6166 11.4877 14.4372 12.463 13.4619C13.4377 12.4872 14.6167 11.9999 16 11.9999C17.3833 11.9999 18.5627 12.4872 19.538 13.4619C20.5127 14.4372 21 15.6166 21 16.9999C21 18.3832 20.5127 19.5626 19.538 20.5379C18.5627 21.5126 17.3833 21.9999 16 21.9999ZM10.762 21.9249C10.6873 21.9249 10.6083 21.9082 10.525 21.8749C8.34167 21.2082 6.54167 19.8582 5.125 17.8249C3.70833 15.7916 3 13.5499 3 11.0999V6.3749C3 5.95824 3.121 5.58324 3.363 5.2499C3.60433 4.91657 3.91667 4.6749 4.3 4.5249L10.3 2.2749C10.5333 2.19157 10.7667 2.1499 11 2.1499C11.2333 2.1499 11.4667 2.19157 11.7 2.2749L17.7 4.5249C18.0833 4.6749 18.396 4.91657 18.638 5.2499C18.8793 5.58324 19 5.95824 19 6.3749V10.6749C18.6833 10.5416 18.3583 10.4206 18.025 10.3119C17.6917 10.2039 17.35 10.1249 17 10.0749V6.3999L11 4.1499L5 6.3999V11.0999C5 11.8832 5.104 12.6666 5.312 13.4499C5.52067 14.2332 5.81267 14.9792 6.188 15.6879C6.56267 16.3959 7.01667 17.0499 7.55 17.6499C8.08333 18.2499 8.675 18.7499 9.325 19.1499C9.50833 19.6832 9.74167 20.1832 10.025 20.6499C10.3083 21.1166 10.6417 21.5416 11.025 21.9249H10.762Z" fill="black"/>
</svg>
