<svg width="16" height="16" viewBox="0 0 16 16" fill="none" xmlns="http://www.w3.org/2000/svg">
<path d="M10.3334 11.3334C10.6111 11.3334 10.8471 11.236 11.0414 11.0414C11.236 10.8471 11.3334 10.6111 11.3334 10.3334C11.3334 10.0556 11.236 9.81957 11.0414 9.62535C10.8471 9.43068 10.6111 9.33335 10.3334 9.33335C10.0556 9.33335 9.81958 9.43068 9.62535 9.62535C9.43069 9.81957 9.33335 10.0556 9.33335 10.3334C9.33335 10.6111 9.43069 10.8471 9.62535 11.0414C9.81958 11.236 10.0556 11.3334 10.3334 11.3334ZM10.3334 13.3334C10.6778 13.3334 10.9945 13.2527 11.2834 13.0913C11.5722 12.9305 11.8056 12.7167 11.9834 12.45C11.7389 12.3056 11.4778 12.1945 11.2 12.1167C10.9222 12.0389 10.6334 12 10.3334 12C10.0334 12 9.74446 12.0389 9.46669 12.1167C9.18891 12.1945 8.9278 12.3056 8.68335 12.45C8.86113 12.7167 9.09446 12.9305 9.38335 13.0913C9.67224 13.2527 9.98891 13.3334 10.3334 13.3334ZM10.3334 14.6667C9.41113 14.6667 8.62513 14.3418 7.97535 13.692C7.32513 13.0418 7.00002 12.2556 7.00002 11.3334C7.00002 10.4111 7.32513 9.62491 7.97535 8.97468C8.62513 8.32491 9.41113 8.00002 10.3334 8.00002C11.2556 8.00002 12.0418 8.32491 12.692 8.97468C13.3418 9.62491 13.6667 10.4111 13.6667 11.3334C13.6667 12.2556 13.3418 13.0418 12.692 13.692C12.0418 14.3418 11.2556 14.6667 10.3334 14.6667ZM6.84135 14.6167C6.79158 14.6167 6.73891 14.6056 6.68335 14.5834C5.2278 14.1389 4.0278 13.2389 3.08335 11.8834C2.13891 10.5278 1.66669 9.03335 1.66669 7.40002V4.25002C1.66669 3.97224 1.74735 3.72224 1.90869 3.50002C2.06958 3.27779 2.2778 3.11668 2.53335 3.01668L6.53335 1.51668C6.68891 1.46113 6.84446 1.43335 7.00002 1.43335C7.15558 1.43335 7.31113 1.46113 7.46669 1.51668L11.4667 3.01668C11.7222 3.11668 11.9307 3.27779 12.092 3.50002C12.2529 3.72224 12.3334 3.97224 12.3334 4.25002V7.11668C12.1222 7.02779 11.9056 6.94713 11.6834 6.87468C11.4611 6.80268 11.2334 6.75002 11 6.71668V4.26668L7.00002 2.76668L3.00002 4.26668V7.40002C3.00002 7.92224 3.06935 8.44446 3.20802 8.96668C3.34713 9.4889 3.5418 9.98624 3.79202 10.4587C4.0418 10.9307 4.34446 11.3667 4.70002 11.7667C5.05558 12.1667 5.45002 12.5 5.88335 12.7667C6.00558 13.1222 6.16113 13.4556 6.35002 13.7667C6.53891 14.0778 6.76113 14.3611 7.01669 14.6167H6.84135Z" fill="black"/>
</svg>
