<svg width="28" height="28" viewBox="0 0 28 28" fill="none" xmlns="http://www.w3.org/2000/svg">
<path d="M18.8334 19.8333C19.3195 19.8333 19.7325 19.663 20.0724 19.3223C20.413 18.9824 20.5834 18.5694 20.5834 18.0833C20.5834 17.5972 20.413 17.1842 20.0724 16.8443C19.7325 16.5036 19.3195 16.3333 18.8334 16.3333C18.3472 16.3333 17.9342 16.5036 17.5944 16.8443C17.2537 17.1842 17.0834 17.5972 17.0834 18.0833C17.0834 18.5694 17.2537 18.9824 17.5944 19.3223C17.9342 19.663 18.3472 19.8333 18.8334 19.8333ZM18.8334 23.3333C19.4361 23.3333 19.9903 23.1921 20.4959 22.9098C21.0014 22.6282 21.4097 22.2541 21.7209 21.7875C21.2931 21.5347 20.8361 21.3402 20.35 21.2041C19.8639 21.068 19.3584 21 18.8334 21C18.3084 21 17.8028 21.068 17.3167 21.2041C16.8306 21.3402 16.3736 21.5347 15.9459 21.7875C16.257 22.2541 16.6653 22.6282 17.1709 22.9098C17.6764 23.1921 18.2306 23.3333 18.8334 23.3333ZM18.8334 25.6666C17.2195 25.6666 15.844 25.0981 14.7069 23.961C13.569 22.8231 13 21.4472 13 19.8333C13 18.2194 13.569 16.8435 14.7069 15.7056C15.844 14.5685 17.2195 14 18.8334 14C20.4472 14 21.8231 14.5685 22.961 15.7056C24.0981 16.8435 24.6667 18.2194 24.6667 19.8333C24.6667 21.4472 24.0981 22.8231 22.961 23.961C21.8231 25.0981 20.4472 25.6666 18.8334 25.6666ZM12.7224 25.5791C12.6352 25.5791 12.5431 25.5597 12.4459 25.5208C9.89863 24.743 7.79863 23.168 6.14585 20.7958C4.49308 18.4236 3.66669 15.8083 3.66669 12.95V7.43747C3.66669 6.95136 3.80785 6.51386 4.09019 6.12497C4.37174 5.73608 4.73613 5.45413 5.18335 5.27913L12.1834 2.65413C12.4556 2.55691 12.7278 2.5083 13 2.5083C13.2722 2.5083 13.5445 2.55691 13.8167 2.65413L20.8167 5.27913C21.2639 5.45413 21.6287 5.73608 21.911 6.12497C22.1926 6.51386 22.3334 6.95136 22.3334 7.43747V12.4541C21.9639 12.2986 21.5847 12.1574 21.1959 12.0306C20.807 11.9046 20.4084 11.8125 20 11.7541V7.46663L13 4.84163L6.00002 7.46663V12.95C6.00002 13.8639 6.12135 14.7777 6.36402 15.6916C6.60746 16.6055 6.94813 17.4759 7.38602 18.3026C7.82313 19.1286 8.3528 19.8916 8.97502 20.5916C9.59724 21.2916 10.2875 21.875 11.0459 22.3416C11.2597 22.9639 11.532 23.5472 11.8625 24.0916C12.1931 24.6361 12.582 25.1319 13.0292 25.5791H12.7224Z" fill="black"/>
</svg>
