<svg width="16" height="16" viewBox="0 0 16 16" fill="none" xmlns="http://www.w3.org/2000/svg">
<path d="M12.6667 14C12.2333 14 11.8444 13.875 11.5 13.625C11.1556 13.375 10.9167 13.0556 10.7833 12.6667H7.33333C6.6 12.6667 5.97222 12.4056 5.45 11.8833C4.92778 11.3611 4.66667 10.7333 4.66667 10C4.66667 9.26667 4.92778 8.63889 5.45 8.11667C5.97222 7.59444 6.6 7.33333 7.33333 7.33333H8.66666C9.03333 7.33333 9.34722 7.20278 9.60833 6.94167C9.86944 6.68056 10 6.36667 10 6C10 5.63333 9.86944 5.31944 9.60833 5.05833C9.34722 4.79722 9.03333 4.66667 8.66666 4.66667H5.21667C5.07222 5.05556 4.83055 5.375 4.49167 5.625C4.15278 5.875 3.76667 6 3.33333 6C2.77778 6 2.30555 5.80556 1.91667 5.41667C1.52778 5.02778 1.33333 4.55556 1.33333 4C1.33333 3.44444 1.52778 2.97222 1.91667 2.58333C2.30555 2.19444 2.77778 2 3.33333 2C3.76667 2 4.15278 2.125 4.49167 2.375C4.83055 2.625 5.07222 2.94444 5.21667 3.33333H8.66666C9.4 3.33333 10.0278 3.59444 10.55 4.11667C11.0722 4.63889 11.3333 5.26667 11.3333 6C11.3333 6.73333 11.0722 7.36111 10.55 7.88333C10.0278 8.40556 9.4 8.66667 8.66666 8.66667H7.33333C6.96667 8.66667 6.65278 8.79722 6.39167 9.05833C6.13055 9.31945 6 9.63333 6 10C6 10.3667 6.13055 10.6806 6.39167 10.9417C6.65278 11.2028 6.96667 11.3333 7.33333 11.3333H10.7833C10.9278 10.9444 11.1694 10.625 11.5083 10.375C11.8472 10.125 12.2333 10 12.6667 10C13.2222 10 13.6944 10.1944 14.0833 10.5833C14.4722 10.9722 14.6667 11.4444 14.6667 12C14.6667 12.5556 14.4722 13.0278 14.0833 13.4167C13.6944 13.8056 13.2222 14 12.6667 14ZM3.80833 4.475C3.93611 4.34722 4 4.18889 4 4C4 3.81111 3.93611 3.65278 3.80833 3.525C3.68055 3.39722 3.52222 3.33333 3.33333 3.33333C3.14444 3.33333 2.98611 3.39722 2.85833 3.525C2.73055 3.65278 2.66667 3.81111 2.66667 4C2.66667 4.18889 2.73055 4.34722 2.85833 4.475C2.98611 4.60278 3.14444 4.66667 3.33333 4.66667C3.52222 4.66667 3.68055 4.60278 3.80833 4.475Z" fill="black"/>
</svg>
