<svg width="16" height="16" viewBox="0 0 16 16" fill="none" xmlns="http://www.w3.org/2000/svg">
<path d="M4.66667 2C5.03333 2 5.33333 2.3 5.33333 2.66667V3.33333C5.33333 4.06667 5.6 4.46667 6.26667 4.6C6.46667 4.66667 6.6 4.86667 6.6 5.06667V5.93333C6.6 6.13333 6.46667 6.33333 6.26667 6.4C5.6 6.53333 5.33333 6.93333 5.33333 7.66667V8.33333C5.33333 9.06667 5.6 9.46667 6.26667 9.6C6.46667 9.66667 6.6 9.86667 6.6 10.0667V10.9333C6.6 11.1333 6.46667 11.3333 6.26667 11.4C5.6 11.5333 5.33333 11.9333 5.33333 12.6667V13.3333C5.33333 13.7 5.03333 14 4.66667 14H4C3.63333 14 3.33333 13.7 3.33333 13.3333V12.6667C3.33333 11.6 2.86667 10.8667 2.06667 10.6C1.86667 10.5333 1.73333 10.3333 1.73333 10.1333V5.86667C1.73333 5.66667 1.86667 5.46667 2.06667 5.4C2.86667 5.13333 3.33333 4.4 3.33333 3.33333V2.66667C3.33333 2.3 3.63333 2 4 2H4.66667ZM12 2C12.3667 2 12.6667 2.3 12.6667 2.66667V3.33333C12.6667 4.4 13.1333 5.13333 13.9333 5.4C14.1333 5.46667 14.2667 5.66667 14.2667 5.86667V10.1333C14.2667 10.3333 14.1333 10.5333 13.9333 10.6C13.1333 10.8667 12.6667 11.6 12.6667 12.6667V13.3333C12.6667 13.7 12.3667 14 12 14H11.3333C10.9667 14 10.6667 13.7 10.6667 13.3333V12.6667C10.6667 11.9333 10.4 11.5333 9.73333 11.4C9.53333 11.3333 9.4 11.1333 9.4 10.9333V10.0667C9.4 9.86667 9.53333 9.66667 9.73333 9.6C10.4 9.46667 10.6667 9.06667 10.6667 8.33333V7.66667C10.6667 6.93333 10.4 6.53333 9.73333 6.4C9.53333 6.33333 9.4 6.13333 9.4 5.93333V5.06667C9.4 4.86667 9.53333 4.66667 9.73333 4.6C10.4 4.46667 10.6667 4.06667 10.6667 3.33333V2.66667C10.6667 2.3 10.9667 2 11.3333 2H12Z" fill="black"/>
</svg>
