<svg width="28" height="28" viewBox="0 0 28 28" fill="none" xmlns="http://www.w3.org/2000/svg">
<path d="M22.1667 24.5C21.4083 24.5 20.7278 24.2812 20.125 23.8437C19.5222 23.4062 19.1042 22.8472 18.8708 22.1667H12.8333C11.55 22.1667 10.4514 21.7097 9.5375 20.7958C8.62361 19.8819 8.16666 18.7833 8.16666 17.5C8.16666 16.2167 8.62361 15.1181 9.5375 14.2042C10.4514 13.2903 11.55 12.8333 12.8333 12.8333H15.1667C15.8083 12.8333 16.3576 12.6049 16.8146 12.1479C17.2715 11.691 17.5 11.1417 17.5 10.5C17.5 9.85833 17.2715 9.30903 16.8146 8.85208C16.3576 8.39514 15.8083 8.16667 15.1667 8.16667H9.12916C8.87638 8.84722 8.45347 9.40625 7.86041 9.84375C7.26736 10.2812 6.59166 10.5 5.83333 10.5C4.86111 10.5 4.03472 10.1597 3.35416 9.47917C2.67361 8.79861 2.33333 7.97222 2.33333 7C2.33333 6.02778 2.67361 5.20139 3.35416 4.52083C4.03472 3.84028 4.86111 3.5 5.83333 3.5C6.59166 3.5 7.26736 3.71875 7.86041 4.15625C8.45347 4.59375 8.87638 5.15278 9.12916 5.83333H15.1667C16.45 5.83333 17.5486 6.29028 18.4625 7.20417C19.3764 8.11806 19.8333 9.21667 19.8333 10.5C19.8333 11.7833 19.3764 12.8819 18.4625 13.7958C17.5486 14.7097 16.45 15.1667 15.1667 15.1667H12.8333C12.1917 15.1667 11.6424 15.3951 11.1854 15.8521C10.7285 16.309 10.5 16.8583 10.5 17.5C10.5 18.1417 10.7285 18.691 11.1854 19.1479C11.6424 19.6049 12.1917 19.8333 12.8333 19.8333H18.8708C19.1236 19.1528 19.5465 18.5937 20.1396 18.1562C20.7326 17.7187 21.4083 17.5 22.1667 17.5C23.1389 17.5 23.9653 17.8403 24.6458 18.5208C25.3264 19.2014 25.6667 20.0278 25.6667 21C25.6667 21.9722 25.3264 22.7986 24.6458 23.4792C23.9653 24.1597 23.1389 24.5 22.1667 24.5ZM6.66458 7.83125C6.88819 7.60764 7 7.33056 7 7C7 6.66944 6.88819 6.39236 6.66458 6.16875C6.44097 5.94514 6.16388 5.83333 5.83333 5.83333C5.50277 5.83333 5.22569 5.94514 5.00208 6.16875C4.77847 6.39236 4.66666 6.66944 4.66666 7C4.66666 7.33056 4.77847 7.60764 5.00208 7.83125C5.22569 8.05486 5.50277 8.16667 5.83333 8.16667C6.16388 8.16667 6.44097 8.05486 6.66458 7.83125Z" fill="black"/>
</svg>
