<svg width="28" height="28" viewBox="0 0 28 28" fill="none" xmlns="http://www.w3.org/2000/svg">
<path d="M8.16667 3.5C8.81667 3.5 9.33333 4.01667 9.33333 4.66667V5.83333C9.33333 7.11667 9.8 7.81667 10.9667 8.05C11.3167 8.11667 11.55 8.4 11.55 8.75V9.91667C11.55 10.2667 11.3167 10.55 10.9667 10.6167C9.8 10.85 9.33333 11.55 9.33333 12.8333V14C9.33333 15.2833 9.8 15.9833 10.9667 16.2167C11.3167 16.2833 11.55 16.5667 11.55 16.9167V18.0833C11.55 18.4333 11.3167 18.7167 10.9667 18.7833C9.8 19.0167 9.33333 19.7167 9.33333 21V22.1667C9.33333 22.8167 8.81667 23.3333 8.16667 23.3333H7C6.35 23.3333 5.83333 22.8167 5.83333 22.1667V21C5.83333 19.1333 5.01667 17.85 3.61667 17.3833C3.26667 17.3167 3.03333 17.0333 3.03333 16.6833V10.15C3.03333 9.8 3.26667 9.51667 3.61667 9.45C5.01667 8.98333 5.83333 7.7 5.83333 5.83333V4.66667C5.83333 4.01667 6.35 3.5 7 3.5H8.16667ZM21 3.5C21.65 3.5 22.1667 4.01667 22.1667 4.66667V5.83333C22.1667 7.7 22.9833 8.98333 24.3833 9.45C24.7333 9.51667 24.9667 9.8 24.9667 10.15V16.6833C24.9667 17.0333 24.7333 17.3167 24.3833 17.3833C22.9833 17.85 22.1667 19.1333 22.1667 21V22.1667C22.1667 22.8167 21.65 23.3333 21 23.3333H19.8333C19.1833 23.3333 18.6667 22.8167 18.6667 22.1667V21C18.6667 19.7167 18.2 19.0167 17.0333 18.7833C16.6833 18.7167 16.45 18.4333 16.45 18.0833V16.9167C16.45 16.5667 16.6833 16.2833 17.0333 16.2167C18.2 15.9833 18.6667 15.2833 18.6667 14V12.8333C18.6667 11.55 18.2 10.85 17.0333 10.6167C16.6833 10.55 16.45 10.2667 16.45 9.91667V8.75C16.45 8.4 16.6833 8.11667 17.0333 8.05C18.2 7.81667 18.6667 7.11667 18.6667 5.83333V4.66667C18.6667 4.01667 19.1833 3.5 19.8333 3.5H21Z" fill="black"/>
</svg>
