<svg width="24" height="24" viewBox="0 0 24 24" fill="none" xmlns="http://www.w3.org/2000/svg">
<path d="M7 3C7.55 3 8 3.45 8 4V5C8 6.1 8.4 6.7 9.4 6.9C9.7 6.95 9.9 7.2 9.9 7.5V8.5C9.9 8.8 9.7 9.05 9.4 9.1C8.4 9.3 8 9.9 8 11V12C8 13.1 8.4 13.7 9.4 13.9C9.7 13.95 9.9 14.2 9.9 14.5V15.5C9.9 15.8 9.7 16.05 9.4 16.1C8.4 16.3 8 16.9 8 18V19C8 19.55 7.55 20 7 20H6C5.45 20 5 19.55 5 19V18C5 16.4 4.3 15.3 3.1 14.9C2.8 14.85 2.6 14.6 2.6 14.3V8.7C2.6 8.4 2.8 8.15 3.1 8.1C4.3 7.7 5 6.6 5 5V4C5 3.45 5.45 3 6 3H7ZM18 3C18.55 3 19 3.45 19 4V5C19 6.6 19.7 7.7 20.9 8.1C21.2 8.15 21.4 8.4 21.4 8.7V14.3C21.4 14.6 21.2 14.85 20.9 14.9C19.7 15.3 19 16.4 19 18V19C19 19.55 18.55 20 18 20H17C16.45 20 16 19.55 16 19V18C16 16.9 15.6 16.3 14.6 16.1C14.3 16.05 14.1 15.8 14.1 15.5V14.5C14.1 14.2 14.3 13.95 14.6 13.9C15.6 13.7 16 13.1 16 12V11C16 9.9 15.6 9.3 14.6 9.1C14.3 9.05 14.1 8.8 14.1 8.5V7.5C14.1 7.2 14.3 6.95 14.6 6.9C15.6 6.7 16 6.1 16 5V4C16 3.45 16.45 3 17 3H18Z" fill="black"/>
</svg>
