<svg width="24" height="24" viewBox="0 0 24 24" fill="none" xmlns="http://www.w3.org/2000/svg">
<path d="M6 10.95L5 11.5C4.76667 11.6333 4.51667 11.6667 4.25 11.6C3.98334 11.5333 3.78334 11.3833 3.65 11.15L1.65 7.65C1.51667 7.41667 1.48334 7.16667 1.55 6.9C1.61667 6.63333 1.76667 6.43333 2 6.3L7.75 3H9.5C9.65 3 9.77084 3.04583 9.8625 3.1375C9.95417 3.22917 10 3.35 10 3.5V4C10 4.55 10.1958 5.02083 10.5875 5.4125C10.9792 5.80417 11.45 6 12 6C12.55 6 13.0208 5.80417 13.4125 5.4125C13.8042 5.02083 14 4.55 14 4V3.5C14 3.35 14.0458 3.22917 14.1375 3.1375C14.2292 3.04583 14.35 3 14.5 3H16.25L22 6.3C22.2333 6.43333 22.3833 6.63333 22.45 6.9C22.5167 7.16667 22.4833 7.41667 22.35 7.65L20.35 11.15C20.2167 11.3833 20.0208 11.5292 19.7625 11.5875C19.5042 11.6458 19.25 11.6083 19 11.475L18 10.975V20C18 20.2833 17.9042 20.5208 17.7125 20.7125C17.5208 20.9042 17.2833 21 17 21H7C6.71667 21 6.47917 20.9042 6.2875 20.7125C6.09584 20.5208 6 20.2833 6 20V10.95ZM8 7.6V19H16V7.6L19.1 9.3L20.15 7.55L15.85 5.05C15.6 5.9 15.1292 6.60417 14.4375 7.1625C13.7458 7.72083 12.9333 8 12 8C11.0667 8 10.2542 7.72083 9.5625 7.1625C8.87084 6.60417 8.4 5.9 8.15 5.05L3.85 7.55L4.9 9.3L8 7.6Z" fill="black"/>
</svg>
