<svg width="28" height="28" viewBox="0 0 28 28" fill="none" xmlns="http://www.w3.org/2000/svg">
<path d="M7 12.775L5.83333 13.4167C5.56111 13.5722 5.26944 13.6111 4.95833 13.5333C4.64722 13.4556 4.41389 13.2806 4.25833 13.0083L1.925 8.925C1.76944 8.65278 1.73056 8.36111 1.80833 8.05C1.88611 7.73889 2.06111 7.50556 2.33333 7.35L9.04167 3.5H11.0833C11.2583 3.5 11.3993 3.55347 11.5063 3.66042C11.6132 3.76736 11.6667 3.90833 11.6667 4.08333V4.66667C11.6667 5.30833 11.8951 5.85764 12.3521 6.31458C12.809 6.77153 13.3583 7 14 7C14.6417 7 15.191 6.77153 15.6479 6.31458C16.1049 5.85764 16.3333 5.30833 16.3333 4.66667V4.08333C16.3333 3.90833 16.3868 3.76736 16.4938 3.66042C16.6007 3.55347 16.7417 3.5 16.9167 3.5H18.9583L25.6667 7.35C25.9389 7.50556 26.1139 7.73889 26.1917 8.05C26.2694 8.36111 26.2306 8.65278 26.075 8.925L23.7417 13.0083C23.5861 13.2806 23.3576 13.4507 23.0562 13.5188C22.7549 13.5868 22.4583 13.5431 22.1667 13.3875L21 12.8042V23.3333C21 23.6639 20.8882 23.941 20.6646 24.1646C20.441 24.3882 20.1639 24.5 19.8333 24.5H8.16667C7.83611 24.5 7.55903 24.3882 7.33542 24.1646C7.11181 23.941 7 23.6639 7 23.3333V12.775ZM9.33333 8.86667V22.1667H18.6667V8.86667L22.2833 10.85L23.5083 8.80833L18.4917 5.89167C18.2 6.88333 17.6507 7.70486 16.8437 8.35625C16.0368 9.00764 15.0889 9.33333 14 9.33333C12.9111 9.33333 11.9632 9.00764 11.1562 8.35625C10.3493 7.70486 9.8 6.88333 9.50833 5.89167L4.49167 8.80833L5.71667 10.85L9.33333 8.86667Z" fill="black"/>
</svg>
