<svg width="16" height="16" viewBox="0 0 16 16" fill="none" xmlns="http://www.w3.org/2000/svg">
<path d="M3.99996 13.3332C3.63329 13.3332 3.3194 13.2026 3.05829 12.9415C2.79718 12.6804 2.66663 12.3665 2.66663 11.9998C2.66663 11.6332 2.79718 11.3193 3.05829 11.0582C3.3194 10.7971 3.63329 10.6665 3.99996 10.6665C4.36663 10.6665 4.68052 10.7971 4.94163 11.0582C5.20274 11.3193 5.33329 11.6332 5.33329 11.9998C5.33329 12.3665 5.20274 12.6804 4.94163 12.9415C4.68052 13.2026 4.36663 13.3332 3.99996 13.3332ZM7.99996 13.3332C7.63329 13.3332 7.3194 13.2026 7.05829 12.9415C6.79718 12.6804 6.66663 12.3665 6.66663 11.9998C6.66663 11.6332 6.79718 11.3193 7.05829 11.0582C7.3194 10.7971 7.63329 10.6665 7.99996 10.6665C8.36663 10.6665 8.68052 10.7971 8.94163 11.0582C9.20274 11.3193 9.33329 11.6332 9.33329 11.9998C9.33329 12.3665 9.20274 12.6804 8.94163 12.9415C8.68052 13.2026 8.36663 13.3332 7.99996 13.3332ZM12 13.3332C11.6333 13.3332 11.3194 13.2026 11.0583 12.9415C10.7972 12.6804 10.6666 12.3665 10.6666 11.9998C10.6666 11.6332 10.7972 11.3193 11.0583 11.0582C11.3194 10.7971 11.6333 10.6665 12 10.6665C12.3666 10.6665 12.6805 10.7971 12.9416 11.0582C13.2027 11.3193 13.3333 11.6332 13.3333 11.9998C13.3333 12.3665 13.2027 12.6804 12.9416 12.9415C12.6805 13.2026 12.3666 13.3332 12 13.3332ZM3.99996 9.33317C3.63329 9.33317 3.3194 9.20262 3.05829 8.9415C2.79718 8.68039 2.66663 8.3665 2.66663 7.99984C2.66663 7.63317 2.79718 7.31928 3.05829 7.05817C3.3194 6.79706 3.63329 6.6665 3.99996 6.6665C4.36663 6.6665 4.68052 6.79706 4.94163 7.05817C5.20274 7.31928 5.33329 7.63317 5.33329 7.99984C5.33329 8.3665 5.20274 8.68039 4.94163 8.9415C4.68052 9.20262 4.36663 9.33317 3.99996 9.33317ZM7.99996 9.33317C7.63329 9.33317 7.3194 9.20262 7.05829 8.9415C6.79718 8.68039 6.66663 8.3665 6.66663 7.99984C6.66663 7.63317 6.79718 7.31928 7.05829 7.05817C7.3194 6.79706 7.63329 6.6665 7.99996 6.6665C8.36663 6.6665 8.68052 6.79706 8.94163 7.05817C9.20274 7.31928 9.33329 7.63317 9.33329 7.99984C9.33329 8.3665 9.20274 8.68039 8.94163 8.9415C8.68052 9.20262 8.36663 9.33317 7.99996 9.33317ZM12 9.33317C11.6333 9.33317 11.3194 9.20262 11.0583 8.9415C10.7972 8.68039 10.6666 8.3665 10.6666 7.99984C10.6666 7.63317 10.7972 7.31928 11.0583 7.05817C11.3194 6.79706 11.6333 6.6665 12 6.6665C12.3666 6.6665 12.6805 6.79706 12.9416 7.05817C13.2027 7.31928 13.3333 7.63317 13.3333 7.99984C13.3333 8.3665 13.2027 8.68039 12.9416 8.9415C12.6805 9.20262 12.3666 9.33317 12 9.33317ZM3.99996 5.33317C3.63329 5.33317 3.3194 5.20262 3.05829 4.9415C2.79718 4.68039 2.66663 4.3665 2.66663 3.99984C2.66663 3.63317 2.79718 3.31928 3.05829 3.05817C3.3194 2.79706 3.63329 2.6665 3.99996 2.6665C4.36663 2.6665 4.68052 2.79706 4.94163 3.05817C5.20274 3.31928 5.33329 3.63317 5.33329 3.99984C5.33329 4.3665 5.20274 4.68039 4.94163 4.9415C4.68052 5.20262 4.36663 5.33317 3.99996 5.33317ZM7.99996 5.33317C7.63329 5.33317 7.3194 5.20262 7.05829 4.9415C6.79718 4.68039 6.66663 4.3665 6.66663 3.99984C6.66663 3.63317 6.79718 3.31928 7.05829 3.05817C7.3194 2.79706 7.63329 2.6665 7.99996 2.6665C8.36663 2.6665 8.68052 2.79706 8.94163 3.05817C9.20274 3.31928 9.33329 3.63317 9.33329 3.99984C9.33329 4.3665 9.20274 4.68039 8.94163 4.9415C8.68052 5.20262 8.36663 5.33317 7.99996 5.33317ZM12 5.33317C11.6333 5.33317 11.3194 5.20262 11.0583 4.9415C10.7972 4.68039 10.6666 4.3665 10.6666 3.99984C10.6666 3.63317 10.7972 3.31928 11.0583 3.05817C11.3194 2.79706 11.6333 2.6665 12 2.6665C12.3666 2.6665 12.6805 2.79706 12.9416 3.05817C13.2027 3.31928 13.3333 3.63317 13.3333 3.99984C13.3333 4.3665 13.2027 4.68039 12.9416 4.9415C12.6805 5.20262 12.3666 5.33317 12 5.33317Z" fill="black"/>
</svg>
