<svg width="28" height="28" viewBox="0 0 28 28" fill="none" xmlns="http://www.w3.org/2000/svg">
<path d="M6.99996 23.3332C6.35829 23.3332 5.80899 23.1047 5.35204 22.6478C4.8951 22.1908 4.66663 21.6415 4.66663 20.9998C4.66663 20.3582 4.8951 19.8089 5.35204 19.3519C5.80899 18.895 6.35829 18.6665 6.99996 18.6665C7.64163 18.6665 8.19093 18.895 8.64788 19.3519C9.10482 19.8089 9.33329 20.3582 9.33329 20.9998C9.33329 21.6415 9.10482 22.1908 8.64788 22.6478C8.19093 23.1047 7.64163 23.3332 6.99996 23.3332ZM14 23.3332C13.3583 23.3332 12.809 23.1047 12.352 22.6478C11.8951 22.1908 11.6666 21.6415 11.6666 20.9998C11.6666 20.3582 11.8951 19.8089 12.352 19.3519C12.809 18.895 13.3583 18.6665 14 18.6665C14.6416 18.6665 15.1909 18.895 15.6479 19.3519C16.1048 19.8089 16.3333 20.3582 16.3333 20.9998C16.3333 21.6415 16.1048 22.1908 15.6479 22.6478C15.1909 23.1047 14.6416 23.3332 14 23.3332ZM21 23.3332C20.3583 23.3332 19.809 23.1047 19.352 22.6478C18.8951 22.1908 18.6666 21.6415 18.6666 20.9998C18.6666 20.3582 18.8951 19.8089 19.352 19.3519C19.809 18.895 20.3583 18.6665 21 18.6665C21.6416 18.6665 22.1909 18.895 22.6479 19.3519C23.1048 19.8089 23.3333 20.3582 23.3333 20.9998C23.3333 21.6415 23.1048 22.1908 22.6479 22.6478C22.1909 23.1047 21.6416 23.3332 21 23.3332ZM6.99996 16.3332C6.35829 16.3332 5.80899 16.1047 5.35204 15.6478C4.8951 15.1908 4.66663 14.6415 4.66663 13.9998C4.66663 13.3582 4.8951 12.8089 5.35204 12.3519C5.80899 11.895 6.35829 11.6665 6.99996 11.6665C7.64163 11.6665 8.19093 11.895 8.64788 12.3519C9.10482 12.8089 9.33329 13.3582 9.33329 13.9998C9.33329 14.6415 9.10482 15.1908 8.64788 15.6478C8.19093 16.1047 7.64163 16.3332 6.99996 16.3332ZM14 16.3332C13.3583 16.3332 12.809 16.1047 12.352 15.6478C11.8951 15.1908 11.6666 14.6415 11.6666 13.9998C11.6666 13.3582 11.8951 12.8089 12.352 12.3519C12.809 11.895 13.3583 11.6665 14 11.6665C14.6416 11.6665 15.1909 11.895 15.6479 12.3519C16.1048 12.8089 16.3333 13.3582 16.3333 13.9998C16.3333 14.6415 16.1048 15.1908 15.6479 15.6478C15.1909 16.1047 14.6416 16.3332 14 16.3332ZM21 16.3332C20.3583 16.3332 19.809 16.1047 19.352 15.6478C18.8951 15.1908 18.6666 14.6415 18.6666 13.9998C18.6666 13.3582 18.8951 12.8089 19.352 12.3519C19.809 11.895 20.3583 11.6665 21 11.6665C21.6416 11.6665 22.1909 11.895 22.6479 12.3519C23.1048 12.8089 23.3333 13.3582 23.3333 13.9998C23.3333 14.6415 23.1048 15.1908 22.6479 15.6478C22.1909 16.1047 21.6416 16.3332 21 16.3332ZM6.99996 9.33317C6.35829 9.33317 5.80899 9.1047 5.35204 8.64775C4.8951 8.19081 4.66663 7.6415 4.66663 6.99984C4.66663 6.35817 4.8951 5.80887 5.35204 5.35192C5.80899 4.89498 6.35829 4.6665 6.99996 4.6665C7.64163 4.6665 8.19093 4.89498 8.64788 5.35192C9.10482 5.80887 9.33329 6.35817 9.33329 6.99984C9.33329 7.6415 9.10482 8.19081 8.64788 8.64775C8.19093 9.1047 7.64163 9.33317 6.99996 9.33317ZM14 9.33317C13.3583 9.33317 12.809 9.1047 12.352 8.64775C11.8951 8.19081 11.6666 7.6415 11.6666 6.99984C11.6666 6.35817 11.8951 5.80887 12.352 5.35192C12.809 4.89498 13.3583 4.6665 14 4.6665C14.6416 4.6665 15.1909 4.89498 15.6479 5.35192C16.1048 5.80887 16.3333 6.35817 16.3333 6.99984C16.3333 7.6415 16.1048 8.19081 15.6479 8.64775C15.1909 9.1047 14.6416 9.33317 14 9.33317ZM21 9.33317C20.3583 9.33317 19.809 9.1047 19.352 8.64775C18.8951 8.19081 18.6666 7.6415 18.6666 6.99984C18.6666 6.35817 18.8951 5.80887 19.352 5.35192C19.809 4.89498 20.3583 4.6665 21 4.6665C21.6416 4.6665 22.1909 4.89498 22.6479 5.35192C23.1048 5.80887 23.3333 6.35817 23.3333 6.99984C23.3333 7.6415 23.1048 8.19081 22.6479 8.64775C22.1909 9.1047 21.6416 9.33317 21 9.33317Z" fill="black"/>
</svg>
