<svg width="28" height="28" viewBox="0 0 28 28" fill="none" xmlns="http://www.w3.org/2000/svg">
<path d="M11.3603 22.9449L19.5406 14.7889C19.6377 14.6756 19.7105 14.5542 19.7591 14.4248C19.8076 14.2953 19.8319 14.1577 19.8319 14.0121C19.8319 13.8665 19.8076 13.7289 19.7591 13.5994C19.7105 13.47 19.6377 13.3486 19.5406 13.2353L11.3603 5.05501C11.1014 4.79609 10.7816 4.66663 10.401 4.66663C10.021 4.66663 9.70158 4.80418 9.44266 5.07928C9.16755 5.33821 9.03 5.64956 9.03 6.01334C9.03 6.37778 9.16755 6.69755 9.44266 6.97265L16.4821 14.0121L9.44266 21.0515C9.18373 21.3105 9.05427 21.6218 9.05427 21.9856C9.05427 22.35 9.19182 22.6698 9.46693 22.9449C9.72585 23.2038 10.0375 23.3333 10.402 23.3333C10.7657 23.3333 11.0852 23.2038 11.3603 22.9449Z" fill="black"/>
</svg>
