<svg width="16" height="16" viewBox="0 0 16 16" fill="none" xmlns="http://www.w3.org/2000/svg">
<path d="M7.46667 12.8667C7.32222 12.7222 7.24733 12.5445 7.242 12.3333C7.23622 12.1222 7.30555 11.9445 7.45 11.8L10.4833 8.76668H3.36667C3.15555 8.76668 2.97511 8.69157 2.82533 8.54135C2.67511 8.39157 2.6 8.21113 2.6 8.00002C2.6 7.7889 2.67511 7.60846 2.82533 7.45868C2.97511 7.30846 3.15555 7.23335 3.36667 7.23335H10.4833L7.45 4.20002C7.30555 4.05557 7.23622 3.87779 7.242 3.66668C7.24733 3.45557 7.32222 3.27779 7.46667 3.13335C7.61111 3.00002 7.78889 2.93335 8 2.93335C8.21111 2.93335 8.38889 3.00002 8.53333 3.13335L12.8667 7.46668C12.9444 7.53335 13 7.61379 13.0333 7.70802C13.0667 7.80268 13.0833 7.90002 13.0833 8.00002C13.0833 8.10002 13.0667 8.19446 13.0333 8.28335C13 8.37224 12.9444 8.45557 12.8667 8.53335L8.53333 12.8667C8.38889 13.0111 8.21111 13.0807 8 13.0753C7.78889 13.0696 7.61111 13 7.46667 12.8667V12.8667Z" fill="black"/>
</svg>
