<svg width="28" height="28" viewBox="0 0 28 28" fill="none" xmlns="http://www.w3.org/2000/svg">
<path d="M14 22.8376C13.8444 22.8376 13.6986 22.8131 13.5625 22.7641C13.4264 22.7159 13.3 22.6334 13.1833 22.5167L5.48333 14.8167C5.25 14.5834 5.13333 14.3061 5.13333 13.9849C5.13333 13.6645 5.25 13.3876 5.48333 13.1542C5.71666 12.9209 5.98889 12.8042 6.3 12.8042C6.61111 12.8042 6.88333 12.9209 7.11666 13.1542L12.8333 18.8709V5.80425C12.8333 5.47369 12.9453 5.20147 13.1693 4.98758C13.3926 4.77369 13.6694 4.66675 14 4.66675C14.3306 4.66675 14.6078 4.77836 14.8318 5.00158C15.0551 5.22558 15.1667 5.50286 15.1667 5.83341V18.8709L20.8833 13.1542C21.1167 12.9209 21.3889 12.8042 21.7 12.8042C22.0111 12.8042 22.2833 12.9209 22.5167 13.1542C22.75 13.3876 22.8667 13.6645 22.8667 13.9849C22.8667 14.3061 22.75 14.5834 22.5167 14.8167L14.8167 22.5167C14.7 22.6334 14.5736 22.7159 14.4375 22.7641C14.3014 22.8131 14.1556 22.8376 14 22.8376Z" fill="black"/>
</svg>
