<svg width="28" height="28" viewBox="0 0 28 28" fill="none" xmlns="http://www.w3.org/2000/svg">
<path d="M16.6383 22.9449L8.45794 14.7889C8.36085 14.6756 8.28803 14.5542 8.23948 14.4248C8.19093 14.2953 8.16666 14.1577 8.16666 14.0121C8.16666 13.8665 8.19093 13.7289 8.23948 13.5994C8.28803 13.47 8.36085 13.3486 8.45794 13.2353L16.6383 5.05501C16.8972 4.79609 17.217 4.66663 17.5976 4.66663C17.9775 4.66663 18.297 4.80418 18.5559 5.07928C18.831 5.33821 18.9686 5.64956 18.9686 6.01334C18.9686 6.37778 18.831 6.69755 18.5559 6.97265L11.5165 14.0121L18.5559 21.0515C18.8148 21.3105 18.9443 21.6218 18.9443 21.9856C18.9443 22.35 18.8067 22.6698 18.5316 22.9449C18.2727 23.2038 17.961 23.3333 17.5966 23.3333C17.2328 23.3333 16.9134 23.2038 16.6383 22.9449V22.9449Z" fill="black"/>
</svg>
