<svg width="28" height="28" viewBox="0 0 28 28" fill="none" xmlns="http://www.w3.org/2000/svg">
<path d="M12.5125 22.5167L4.92917 14.9333C4.79306 14.7972 4.69584 14.6514 4.6375 14.4958C4.57917 14.3403 4.55 14.175 4.55 14C4.55 13.825 4.57917 13.6597 4.6375 13.5042C4.69584 13.3486 4.79306 13.2028 4.92917 13.0667L12.5125 5.48334C12.7653 5.25001 13.0717 5.12829 13.4318 5.11817C13.7912 5.10884 14.1069 5.23056 14.3792 5.48334C14.6514 5.73612 14.7926 6.04723 14.8027 6.41667C14.812 6.78612 14.6806 7.09723 14.4083 7.35001L9.1 12.6583H21.5542C21.9236 12.6583 22.2398 12.7898 22.5027 13.0527C22.7648 13.3148 22.8958 13.6306 22.8958 14C22.8958 14.3695 22.7648 14.6852 22.5027 14.9473C22.2398 15.2102 21.9236 15.3417 21.5542 15.3417H9.1L14.4083 20.65C14.6611 20.8833 14.7926 21.1898 14.8027 21.5693C14.812 21.9481 14.6806 22.2639 14.4083 22.5167C14.1556 22.7695 13.8444 22.8958 13.475 22.8958C13.1056 22.8958 12.7847 22.7695 12.5125 22.5167V22.5167Z" fill="black"/>
</svg>
