<svg width="16" height="16" viewBox="0 0 16 16" fill="none" xmlns="http://www.w3.org/2000/svg">
<path d="M7.15 12.8666L2.81667 8.53327C2.73889 8.45549 2.68333 8.37216 2.65 8.28327C2.61667 8.19438 2.6 8.09993 2.6 7.99993C2.6 7.89993 2.61667 7.80549 2.65 7.7166C2.68333 7.62771 2.73889 7.54438 2.81667 7.4666L7.15 3.13327C7.29444 2.99993 7.46955 2.93038 7.67533 2.9246C7.88066 2.91927 8.06111 2.98882 8.21666 3.13327C8.37222 3.27771 8.45289 3.45549 8.45867 3.6666C8.464 3.87771 8.38889 4.05549 8.23333 4.19993L5.2 7.23327H12.3167C12.5278 7.23327 12.7084 7.30838 12.8587 7.4586C13.0084 7.60838 13.0833 7.78882 13.0833 7.99993C13.0833 8.21105 13.0084 8.39149 12.8587 8.54127C12.7084 8.69149 12.5278 8.7666 12.3167 8.7666H5.2L8.23333 11.7999C8.37778 11.9333 8.45289 12.1084 8.45867 12.3253C8.464 12.5417 8.38889 12.7222 8.23333 12.8666C8.08889 13.011 7.91111 13.0833 7.7 13.0833C7.48889 13.0833 7.30555 13.011 7.15 12.8666V12.8666Z" fill="black"/>
</svg>
