<svg width="16" height="16" viewBox="0 0 16 16" fill="none" xmlns="http://www.w3.org/2000/svg">
<path d="M8 13.3333C7.81111 13.3333 7.65289 13.2693 7.52533 13.1413C7.39733 13.0137 7.33333 12.8555 7.33333 12.6666V5.21662L4.08333 8.46662C3.95 8.59995 3.79156 8.66662 3.608 8.66662C3.42489 8.66662 3.26667 8.59995 3.13333 8.46662C3 8.33328 2.93333 8.17773 2.93333 7.99995C2.93333 7.82217 3 7.66662 3.13333 7.53328L7.53333 3.13328C7.6 3.06662 7.67222 3.01928 7.75 2.99128C7.82778 2.96373 7.91111 2.94995 8 2.94995C8.08889 2.94995 8.17511 2.96373 8.25867 2.99128C8.34178 3.01928 8.41111 3.06662 8.46667 3.13328L12.8667 7.53328C13 7.66662 13.0667 7.82217 13.0667 7.99995C13.0667 8.17773 13 8.33328 12.8667 8.46662C12.7333 8.59995 12.5749 8.66662 12.3913 8.66662C12.2082 8.66662 12.05 8.59995 11.9167 8.46662L8.66667 5.21662V12.6666C8.66667 12.8555 8.60289 13.0137 8.47533 13.1413C8.34733 13.2693 8.18889 13.3333 8 13.3333Z" fill="black"/>
</svg>
