<svg width="28" height="28" viewBox="0 0 28 28" fill="none" xmlns="http://www.w3.org/2000/svg">
<path d="M14 23.3334C13.6694 23.3334 13.3926 23.2214 13.1693 22.9974C12.9453 22.7742 12.8333 22.4973 12.8333 22.1668V9.12926L7.14583 14.8168C6.9125 15.0501 6.63522 15.1668 6.314 15.1668C5.99355 15.1668 5.71666 15.0501 5.48333 14.8168C5.25 14.5834 5.13333 14.3112 5.13333 14.0001C5.13333 13.689 5.25 13.4168 5.48333 13.1834L13.1833 5.48343C13.3 5.36676 13.4264 5.28393 13.5625 5.23493C13.6986 5.18671 13.8444 5.1626 14 5.1626C14.1556 5.1626 14.3064 5.18671 14.4527 5.23493C14.5981 5.28393 14.7194 5.36676 14.8167 5.48343L22.5167 13.1834C22.75 13.4168 22.8667 13.689 22.8667 14.0001C22.8667 14.3112 22.75 14.5834 22.5167 14.8168C22.2833 15.0501 22.0061 15.1668 21.6848 15.1668C21.3644 15.1668 21.0875 15.0501 20.8542 14.8168L15.1667 9.12926V22.1668C15.1667 22.4973 15.0551 22.7742 14.8318 22.9974C14.6078 23.2214 14.3306 23.3334 14 23.3334Z" fill="black"/>
</svg>
