<svg width="28" height="28" viewBox="0 0 28 28" fill="none" xmlns="http://www.w3.org/2000/svg">
<path d="M13.0667 22.5166C12.8139 22.2639 12.6828 21.9527 12.6735 21.5833C12.6634 21.2139 12.7847 20.9027 13.0375 20.65L18.3458 15.3416H5.89167C5.52223 15.3416 5.20645 15.2102 4.94434 14.9473C4.68145 14.6852 4.55 14.3694 4.55 14C4.55 13.6305 4.68145 13.3147 4.94434 13.0526C5.20645 12.7897 5.52223 12.6583 5.89167 12.6583H18.3458L13.0375 7.34997C12.7847 7.09719 12.6634 6.78608 12.6735 6.41663C12.6828 6.04719 12.8139 5.73608 13.0667 5.4833C13.3194 5.24997 13.6306 5.1333 14 5.1333C14.3694 5.1333 14.6806 5.24997 14.9333 5.4833L22.5167 13.0666C22.6528 13.1833 22.75 13.3241 22.8083 13.489C22.8667 13.6546 22.8958 13.825 22.8958 14C22.8958 14.175 22.8667 14.3402 22.8083 14.4958C22.75 14.6514 22.6528 14.7972 22.5167 14.9333L14.9333 22.5166C14.6806 22.7694 14.3694 22.8911 14 22.8818C13.6306 22.8717 13.3194 22.75 13.0667 22.5166V22.5166Z" fill="black"/>
</svg>
