<svg width="16" height="16" viewBox="0 0 16 16" fill="none" xmlns="http://www.w3.org/2000/svg">
<path d="M8 13.0501C7.91111 13.0501 7.82778 13.0361 7.75 13.0081C7.67222 12.9805 7.6 12.9334 7.53333 12.8667L3.13333 8.46675C3 8.33341 2.93333 8.17497 2.93333 7.99141C2.93333 7.8083 3 7.65008 3.13333 7.51675C3.26667 7.38341 3.42222 7.31675 3.6 7.31675C3.77778 7.31675 3.93333 7.38341 4.06667 7.51675L7.33333 10.7834V3.31675C7.33333 3.12786 7.39733 2.9723 7.52533 2.85008C7.65289 2.72786 7.81111 2.66675 8 2.66675C8.18889 2.66675 8.34733 2.73053 8.47533 2.85808C8.60289 2.98608 8.66667 3.14453 8.66667 3.33341V10.7834L11.9333 7.51675C12.0667 7.38341 12.2222 7.31675 12.4 7.31675C12.5778 7.31675 12.7333 7.38341 12.8667 7.51675C13 7.65008 13.0667 7.8083 13.0667 7.99141C13.0667 8.17497 13 8.33341 12.8667 8.46675L8.46667 12.8667C8.4 12.9334 8.32778 12.9805 8.25 13.0081C8.17222 13.0361 8.08889 13.0501 8 13.0501Z" fill="black"/>
</svg>
