<svg width="16" height="16" viewBox="0 0 16 16" fill="none" xmlns="http://www.w3.org/2000/svg">
<path d="M6.4916 13.1114L11.1661 8.45076C11.2216 8.38603 11.2632 8.31668 11.2909 8.2427C11.3187 8.16872 11.3325 8.09012 11.3325 8.00689C11.3325 7.92367 11.3187 7.84507 11.2909 7.77109C11.2632 7.69711 11.2216 7.62776 11.1661 7.56303L6.4916 2.88856C6.34365 2.7406 6.16092 2.66663 5.94343 2.66663C5.7263 2.66663 5.54376 2.74523 5.39581 2.90243C5.2386 3.05039 5.16 3.2283 5.16 3.43618C5.16 3.64443 5.2386 3.82715 5.39581 3.98435L9.41835 8.00689L5.39581 12.0294C5.24785 12.1774 5.17387 12.3553 5.17387 12.5632C5.17387 12.7714 5.25248 12.9542 5.40968 13.1114C5.55763 13.2593 5.73574 13.3333 5.94398 13.3333C6.15186 13.3333 6.3344 13.2593 6.4916 13.1114Z" fill="black"/>
</svg>
