<svg width="16" height="16" viewBox="0 0 16 16" fill="none" xmlns="http://www.w3.org/2000/svg">
<path d="M9.50758 13.1114L4.83311 8.45076C4.77762 8.38603 4.73601 8.31668 4.70827 8.2427C4.68053 8.16872 4.66666 8.09012 4.66666 8.00689C4.66666 7.92367 4.68053 7.84507 4.70827 7.77109C4.73601 7.69711 4.77762 7.62776 4.83311 7.56303L9.50758 2.88856C9.65553 2.7406 9.83826 2.66663 10.0558 2.66663C10.2729 2.66663 10.4554 2.74523 10.6034 2.90243C10.7606 3.05039 10.8392 3.2283 10.8392 3.43618C10.8392 3.64443 10.7606 3.82715 10.6034 3.98435L6.58083 8.00689L10.6034 12.0294C10.7513 12.1774 10.8253 12.3553 10.8253 12.5632C10.8253 12.7714 10.7467 12.9542 10.5895 13.1114C10.4415 13.2593 10.2634 13.3333 10.0552 13.3333C9.84732 13.3333 9.66478 13.2593 9.50758 13.1114V13.1114Z" fill="black"/>
</svg>
