<svg width="16" height="16" viewBox="0 0 16 16" fill="none" xmlns="http://www.w3.org/2000/svg">
<path d="M8.57157 12.8796C7.81732 13.6338 6.91584 14.0089 5.86712 14.0048C4.81809 14.0011 3.92038 13.626 3.17399 12.8796C2.41974 12.1253 2.04073 11.2237 2.03696 10.1747C2.03287 9.12594 2.40795 8.22446 3.1622 7.47021L8.15909 2.47333C8.7012 1.93121 9.35913 1.66204 10.1329 1.66581C10.9069 1.6699 11.565 1.943 12.1071 2.48511C12.6492 3.02723 12.9203 3.68327 12.9203 4.45323C12.9203 5.22319 12.6492 5.87922 12.1071 6.42134L7.60519 10.9233C7.25949 11.2689 6.84513 11.4438 6.3621 11.4479C5.87875 11.4517 5.46423 11.2807 5.11853 10.935C4.76498 10.5815 4.59024 10.1632 4.59433 9.68016C4.5981 9.19681 4.77283 8.78229 5.11853 8.43659L9.21975 4.33537C9.32974 4.22538 9.46127 4.16834 9.61432 4.16425C9.76768 4.16048 9.90329 4.21752 10.0211 4.33537C10.1311 4.44537 10.1842 4.57705 10.1805 4.73041C10.1764 4.88346 10.1193 5.01498 10.0094 5.12498L5.90813 9.2262C5.78243 9.3519 5.71957 9.50118 5.71957 9.67403C5.71957 9.84688 5.78635 10.0001 5.91992 10.1337C6.04563 10.2594 6.1949 10.3222 6.36775 10.3222C6.5406 10.3222 6.68988 10.2594 6.81559 10.1337L11.3175 5.63174C11.6475 5.30175 11.8125 4.90892 11.8125 4.45323C11.8125 3.99753 11.6475 3.6047 11.3175 3.27471C10.9875 2.94473 10.5947 2.77974 10.139 2.77974C9.6833 2.77974 9.29046 2.94473 8.96048 3.27471L3.96359 8.2716C3.43719 8.798 3.17399 9.43424 3.17399 10.1803C3.17399 10.927 3.43719 11.5636 3.96359 12.09C4.48999 12.6164 5.1245 12.8775 5.86712 12.8735C6.60943 12.8697 7.24378 12.6046 7.77018 12.0782L12.3664 7.482C12.4764 7.372 12.6099 7.31701 12.7671 7.31701C12.9242 7.31701 13.0578 7.372 13.1678 7.482C13.2856 7.59985 13.3425 7.7353 13.3384 7.88835C13.3346 8.04171 13.2778 8.17339 13.1678 8.28339L8.57157 12.8796Z" fill="black"/>
</svg>
