<svg width="28" height="28" viewBox="0 0 28 28" fill="none" xmlns="http://www.w3.org/2000/svg">
<path d="M15.0003 22.5393C13.6803 23.8593 12.1027 24.5157 10.2675 24.5085C8.43167 24.5019 6.86068 23.8455 5.55449 22.5393C4.23456 21.2194 3.57129 19.6415 3.56469 17.8057C3.55754 15.9705 4.21394 14.3929 5.53387 13.0729L14.2784 4.32838C15.2271 3.37968 16.3785 2.90863 17.7325 2.91523C19.0871 2.92238 20.2387 3.4003 21.1874 4.34901C22.1361 5.29771 22.6105 6.44578 22.6105 7.79321C22.6105 9.14064 22.1361 10.2887 21.1874 11.2374L13.3091 19.1158C12.7041 19.7207 11.979 20.0268 11.1337 20.0339C10.2878 20.0405 9.56241 19.7413 8.95744 19.1364C8.33873 18.5177 8.03294 17.7856 8.04009 16.9403C8.04669 16.0945 8.35247 15.3691 8.95744 14.7641L16.1346 7.58697C16.3271 7.39448 16.5572 7.29466 16.8251 7.28751C17.0935 7.28091 17.3308 7.38073 17.537 7.58697C17.7295 7.77946 17.8224 8.00989 17.8158 8.27828C17.8087 8.54612 17.7089 8.77628 17.5164 8.96877L10.3392 16.1459C10.1193 16.3659 10.0093 16.6271 10.0093 16.9296C10.0093 17.2321 10.1261 17.5002 10.3599 17.7339C10.5799 17.9539 10.8411 18.0639 11.1436 18.0639C11.4461 18.0639 11.7073 17.9539 11.9273 17.7339L19.8056 9.8556C20.3831 9.27813 20.6718 8.59066 20.6718 7.79321C20.6718 6.99575 20.3831 6.30828 19.8056 5.73081C19.2282 5.15334 18.5407 4.8646 17.7432 4.8646C16.9458 4.8646 16.2583 5.15334 15.6808 5.73081L6.9363 14.4754C6.01509 15.3966 5.55449 16.51 5.55449 17.8156C5.55449 19.1224 6.01509 20.2363 6.9363 21.1575C7.8575 22.0787 8.96789 22.5358 10.2675 22.5286C11.5665 22.522 12.6766 22.0581 13.5978 21.1369L21.6412 13.0936C21.8337 12.9011 22.0674 12.8048 22.3424 12.8048C22.6174 12.8048 22.8511 12.9011 23.0436 13.0936C23.2498 13.2998 23.3494 13.5368 23.3422 13.8047C23.3356 14.0731 23.2361 14.3035 23.0436 14.496L15.0003 22.5393Z" fill="black"/>
</svg>
