<svg width="24" height="24" viewBox="0 0 24 24" fill="none" xmlns="http://www.w3.org/2000/svg">
<path d="M12.8574 19.3194C11.726 20.4507 10.3738 21.0134 8.80068 21.0072C7.22713 21.0016 5.88057 20.439 4.76098 19.3194C3.62961 18.188 3.0611 16.8355 3.05544 15.262C3.04931 13.6889 3.61193 12.3367 4.7433 11.2053L12.2386 3.70999C13.0518 2.89682 14.0387 2.49306 15.1993 2.49872C16.3604 2.50484 17.3475 2.91449 18.1607 3.72767C18.9738 4.54084 19.3804 5.5249 19.3804 6.67984C19.3804 7.83478 18.9738 8.81884 18.1607 9.63201L11.4078 16.3849C10.8892 16.9034 10.2677 17.1658 9.54314 17.1719C8.81812 17.1775 8.19634 16.9211 7.6778 16.4026C7.14747 15.8722 6.88536 15.2448 6.89149 14.5202C6.89715 13.7952 7.15925 13.1734 7.6778 12.6549L13.8296 6.50306C13.9946 6.33807 14.1919 6.25251 14.4215 6.24638C14.6515 6.24072 14.8549 6.32628 15.0317 6.50306C15.1967 6.66805 15.2764 6.86557 15.2707 7.09562C15.2646 7.32519 15.179 7.52247 15.014 7.68747L8.8622 13.8393C8.67364 14.0279 8.57936 14.2518 8.57936 14.511C8.57936 14.7703 8.67953 15.0001 8.87988 15.2005C9.06844 15.389 9.29236 15.4833 9.55163 15.4833C9.8109 15.4833 10.0348 15.389 10.2234 15.2005L16.9762 8.4476C17.4712 7.95263 17.7187 7.36337 17.7187 6.67984C17.7187 5.9963 17.4712 5.40704 16.9762 4.91207C16.4813 4.4171 15.892 4.16961 15.2085 4.16961C14.5249 4.16961 13.9357 4.4171 13.4407 4.91207L5.94538 12.4074C5.15578 13.197 4.76098 14.1514 4.76098 15.2705C4.76098 16.3905 5.15578 17.3454 5.94538 18.135C6.73499 18.9246 7.68675 19.3163 8.80068 19.3102C9.91414 19.3045 10.8657 18.9069 11.6553 18.1173L18.5496 11.223C18.7146 11.058 18.9149 10.9755 19.1506 10.9755C19.3863 10.9755 19.5867 11.058 19.7516 11.223C19.9284 11.3998 20.0137 11.603 20.0076 11.8325C20.002 12.0626 19.9166 12.2601 19.7516 12.4251L12.8574 19.3194Z" fill="black"/>
</svg>
