<svg width="16" height="16" viewBox="0 0 16 16" fill="none" xmlns="http://www.w3.org/2000/svg">
<path d="M7.16667 12.6663C7.58889 12.6663 7.94445 12.5219 8.23333 12.233C8.52222 11.9441 8.66667 11.5886 8.66667 11.1663V8.66634H10C10.1889 8.66634 10.3472 8.60245 10.475 8.47467C10.6028 8.3469 10.6667 8.18856 10.6667 7.99967C10.6667 7.81079 10.6028 7.65245 10.475 7.52467C10.3472 7.3969 10.1889 7.33301 10 7.33301H8.66667C8.47778 7.33301 8.31945 7.3969 8.19167 7.52467C8.06389 7.65245 8 7.81079 8 7.99967V9.91634C7.87778 9.82745 7.74722 9.76356 7.60833 9.72468C7.46945 9.68579 7.32222 9.66634 7.16667 9.66634C6.74445 9.66634 6.38889 9.81079 6.1 10.0997C5.81111 10.3886 5.66667 10.7441 5.66667 11.1663C5.66667 11.5886 5.81111 11.9441 6.1 12.233C6.38889 12.5219 6.74445 12.6663 7.16667 12.6663ZM4 14.6663C3.63333 14.6663 3.31945 14.5358 3.05833 14.2747C2.79722 14.0136 2.66667 13.6997 2.66667 13.333V2.66634C2.66667 2.29967 2.79722 1.98579 3.05833 1.72467C3.31945 1.46356 3.63333 1.33301 4 1.33301H8.78333C8.96111 1.33301 9.13056 1.36634 9.29167 1.43301C9.45278 1.49967 9.59445 1.59412 9.71667 1.71634L12.95 4.94967C13.0722 5.0719 13.1667 5.21356 13.2333 5.37467C13.3 5.53579 13.3333 5.70523 13.3333 5.88301V13.333C13.3333 13.6997 13.2028 14.0136 12.9417 14.2747C12.6806 14.5358 12.3667 14.6663 12 14.6663H4ZM8.66667 5.33301V2.66634H4V13.333H12V5.99967H9.33333C9.14445 5.99967 8.98611 5.93579 8.85833 5.80801C8.73056 5.68023 8.66667 5.5219 8.66667 5.33301Z" fill="#191919"/>
</svg>
