<svg width="28" height="28" viewBox="0 0 28 28" fill="none" xmlns="http://www.w3.org/2000/svg">
<path d="M12.5417 22.1663C13.2806 22.1663 13.9028 21.9136 14.4083 21.408C14.9139 20.9025 15.1667 20.2802 15.1667 19.5413V15.1663H17.5C17.8306 15.1663 18.1076 15.0545 18.3313 14.8309C18.5549 14.6073 18.6667 14.3302 18.6667 13.9997C18.6667 13.6691 18.5549 13.392 18.3313 13.1684C18.1076 12.9448 17.8306 12.833 17.5 12.833H15.1667C14.8361 12.833 14.559 12.9448 14.3354 13.1684C14.1118 13.392 14 13.6691 14 13.9997V17.3538C13.7861 17.1983 13.5576 17.0865 13.3146 17.0184C13.0715 16.9504 12.8139 16.9163 12.5417 16.9163C11.8028 16.9163 11.1806 17.1691 10.675 17.6747C10.1694 18.1802 9.91667 18.8025 9.91667 19.5413C9.91667 20.2802 10.1694 20.9025 10.675 21.408C11.1806 21.9136 11.8028 22.1663 12.5417 22.1663ZM7.00001 25.6663C6.35834 25.6663 5.80903 25.4379 5.35209 24.9809C4.89514 24.524 4.66667 23.9747 4.66667 23.333V4.66634C4.66667 4.02467 4.89514 3.47537 5.35209 3.01842C5.80903 2.56148 6.35834 2.33301 7.00001 2.33301H15.3708C15.682 2.33301 15.9785 2.39134 16.2604 2.50801C16.5424 2.62467 16.7903 2.78995 17.0042 3.00384L22.6625 8.66217C22.8764 8.87606 23.0417 9.12398 23.1583 9.40592C23.275 9.68787 23.3333 9.9844 23.3333 10.2955V23.333C23.3333 23.9747 23.1049 24.524 22.6479 24.9809C22.191 25.4379 21.6417 25.6663 21 25.6663H7.00001ZM15.1667 9.33301V4.66634H7.00001V23.333H21V10.4997H16.3333C16.0028 10.4997 15.7257 10.3879 15.5021 10.1643C15.2785 9.94065 15.1667 9.66356 15.1667 9.33301Z" fill="#191919"/>
</svg>
