<svg width="16" height="16" viewBox="0 0 16 16" fill="none" xmlns="http://www.w3.org/2000/svg">
<path d="M3.99984 8.03328C3.99984 8.21106 4.01095 8.38606 4.03317 8.55828C4.05539 8.73051 4.09428 8.89995 4.14984 9.06662C4.20539 9.25551 4.19984 9.43606 4.13317 9.60828C4.0665 9.78051 3.94984 9.90551 3.78317 9.98328C3.60539 10.0722 3.43039 10.0805 3.25817 10.0083C3.08595 9.93606 2.97206 9.80551 2.9165 9.61662C2.82762 9.36106 2.76373 9.09995 2.72484 8.83328C2.68595 8.56662 2.6665 8.29995 2.6665 8.03328C2.6665 6.5444 3.18317 5.27773 4.2165 4.23328C5.24984 3.18884 6.51095 2.66662 7.99984 2.66662H8.1165L7.5165 2.06662C7.39428 1.9444 7.33317 1.78884 7.33317 1.59995C7.33317 1.41106 7.39428 1.25551 7.5165 1.13328C7.63873 1.01106 7.79428 0.949951 7.98317 0.949951C8.17206 0.949951 8.32762 1.01106 8.44984 1.13328L10.1832 2.86662C10.3165 2.99995 10.3832 3.15551 10.3832 3.33328C10.3832 3.51106 10.3165 3.66662 10.1832 3.79995L8.44984 5.53328C8.32762 5.65551 8.17206 5.71662 7.98317 5.71662C7.79428 5.71662 7.63873 5.65551 7.5165 5.53328C7.39428 5.41106 7.33317 5.25551 7.33317 5.06662C7.33317 4.87773 7.39428 4.72217 7.5165 4.59995L8.1165 3.99995H7.99984C6.88873 3.99995 5.94428 4.39162 5.1665 5.17495C4.38873 5.95828 3.99984 6.91106 3.99984 8.03328ZM11.9998 7.96662C11.9998 7.78884 11.9887 7.61384 11.9665 7.44162C11.9443 7.2694 11.9054 7.09995 11.8498 6.93328C11.7943 6.7444 11.7998 6.56384 11.8665 6.39162C11.9332 6.2194 12.0498 6.0944 12.2165 6.01662C12.3943 5.92773 12.5693 5.9194 12.7415 5.99162C12.9137 6.06384 13.0276 6.1944 13.0832 6.38328C13.1721 6.63884 13.2359 6.89995 13.2748 7.16662C13.3137 7.43328 13.3332 7.69995 13.3332 7.96662C13.3332 9.45551 12.8165 10.7222 11.7832 11.7666C10.7498 12.8111 9.48873 13.3333 7.99984 13.3333H7.88317L8.48317 13.9333C8.60539 14.0555 8.6665 14.2111 8.6665 14.4C8.6665 14.5888 8.60539 14.7444 8.48317 14.8666C8.36095 14.9888 8.20539 15.05 8.0165 15.05C7.82762 15.05 7.67206 14.9888 7.54984 14.8666L5.8165 13.1333C5.68317 13 5.6165 12.8444 5.6165 12.6666C5.6165 12.4888 5.68317 12.3333 5.8165 12.2L7.54984 10.4666C7.67206 10.3444 7.82762 10.2833 8.0165 10.2833C8.20539 10.2833 8.36095 10.3444 8.48317 10.4666C8.60539 10.5888 8.6665 10.7444 8.6665 10.9333C8.6665 11.1222 8.60539 11.2777 8.48317 11.4L7.88317 12H7.99984C9.11095 12 10.0554 11.6083 10.8332 10.825C11.6109 10.0416 11.9998 9.08884 11.9998 7.96662Z" fill="#191919"/>
</svg>
