<svg width="28" height="28" viewBox="0 0 28 28" fill="none" xmlns="http://www.w3.org/2000/svg">
<path d="M6.99984 14.0583C6.99984 14.3694 7.01928 14.6757 7.05817 14.9771C7.09706 15.2784 7.16512 15.575 7.26234 15.8666C7.35956 16.1972 7.34984 16.5132 7.23317 16.8146C7.1165 17.1159 6.91234 17.3347 6.62067 17.4708C6.30956 17.6264 6.00331 17.6409 5.70192 17.5146C5.40053 17.3882 5.20123 17.1597 5.104 16.8291C4.94845 16.3819 4.83664 15.925 4.76859 15.4583C4.70053 14.9916 4.6665 14.525 4.6665 14.0583C4.6665 11.4528 5.57067 9.23609 7.379 7.40831C9.18734 5.58053 11.3943 4.66664 13.9998 4.66664H14.204L13.154 3.61664C12.9401 3.40275 12.8332 3.13053 12.8332 2.79998C12.8332 2.46942 12.9401 2.1972 13.154 1.98331C13.3679 1.76942 13.6401 1.66248 13.9707 1.66248C14.3012 1.66248 14.5734 1.76942 14.7873 1.98331L17.8207 5.01664C18.054 5.24998 18.1707 5.5222 18.1707 5.83331C18.1707 6.14442 18.054 6.41664 17.8207 6.64998L14.7873 9.68331C14.5734 9.8972 14.3012 10.0041 13.9707 10.0041C13.6401 10.0041 13.3679 9.8972 13.154 9.68331C12.9401 9.46942 12.8332 9.1972 12.8332 8.86664C12.8332 8.53609 12.9401 8.26386 13.154 8.04998L14.204 6.99998H13.9998C12.0554 6.99998 10.4026 7.68539 9.0415 9.05623C7.68039 10.4271 6.99984 12.0944 6.99984 14.0583ZM20.9998 13.9416C20.9998 13.6305 20.9804 13.3243 20.9415 13.0229C20.9026 12.7215 20.8346 12.425 20.7373 12.1333C20.6401 11.8028 20.6498 11.4868 20.7665 11.1854C20.8832 10.884 21.0873 10.6653 21.379 10.5291C21.6901 10.3736 21.9964 10.359 22.2978 10.4854C22.5991 10.6118 22.7984 10.8403 22.8957 11.1708C23.0512 11.618 23.163 12.075 23.2311 12.5416C23.2991 13.0083 23.3332 13.475 23.3332 13.9416C23.3332 16.5472 22.429 18.7639 20.6207 20.5916C18.8123 22.4194 16.6054 23.3333 13.9998 23.3333H13.7957L14.8457 24.3833C15.0596 24.5972 15.1665 24.8694 15.1665 25.2C15.1665 25.5305 15.0596 25.8028 14.8457 26.0166C14.6318 26.2305 14.3596 26.3375 14.029 26.3375C13.6984 26.3375 13.4262 26.2305 13.2123 26.0166L10.179 22.9833C9.94567 22.75 9.829 22.4778 9.829 22.1666C9.829 21.8555 9.94567 21.5833 10.179 21.35L13.2123 18.3166C13.4262 18.1028 13.6984 17.9958 14.029 17.9958C14.3596 17.9958 14.6318 18.1028 14.8457 18.3166C15.0596 18.5305 15.1665 18.8028 15.1665 19.1333C15.1665 19.4639 15.0596 19.7361 14.8457 19.95L13.7957 21H13.9998C15.9443 21 17.5971 20.3146 18.9582 18.9437C20.3193 17.5729 20.9998 15.9055 20.9998 13.9416Z" fill="#191919"/>
</svg>
