<svg width="28" height="28" viewBox="0 0 28 28" fill="none" xmlns="http://www.w3.org/2000/svg">
<path d="M3.50004 24.5C3.16949 24.5 2.8924 24.3882 2.66879 24.1646C2.44518 23.941 2.33337 23.6639 2.33337 23.3333C2.33337 23.0028 2.44518 22.7257 2.66879 22.5021C2.8924 22.2785 3.16949 22.1667 3.50004 22.1667H24.5C24.8306 22.1667 25.1077 22.2785 25.3313 22.5021C25.5549 22.7257 25.6667 23.0028 25.6667 23.3333C25.6667 23.6639 25.5549 23.941 25.3313 24.1646C25.1077 24.3882 24.8306 24.5 24.5 24.5H3.50004ZM5.25004 21C4.76393 21 4.35074 20.8299 4.01046 20.4896C3.67018 20.1493 3.50004 19.7361 3.50004 19.25V14.5833C3.50004 14.0972 3.67018 13.684 4.01046 13.3437C4.35074 13.0035 4.76393 12.8333 5.25004 12.8333C5.73615 12.8333 6.14935 13.0035 6.48962 13.3437C6.8299 13.684 7.00004 14.0972 7.00004 14.5833V19.25C7.00004 19.7361 6.8299 20.1493 6.48962 20.4896C6.14935 20.8299 5.73615 21 5.25004 21ZM11.0834 21C10.5973 21 10.1841 20.8299 9.84379 20.4896C9.50351 20.1493 9.33337 19.7361 9.33337 19.25V8.75C9.33337 8.26389 9.50351 7.85069 9.84379 7.51042C10.1841 7.17014 10.5973 7 11.0834 7C11.5695 7 11.9827 7.17014 12.323 7.51042C12.6632 7.85069 12.8334 8.26389 12.8334 8.75V19.25C12.8334 19.7361 12.6632 20.1493 12.323 20.4896C11.9827 20.8299 11.5695 21 11.0834 21ZM16.9167 21C16.4306 21 16.0174 20.8299 15.6771 20.4896C15.3368 20.1493 15.1667 19.7361 15.1667 19.25V12.25C15.1667 11.7639 15.3368 11.3507 15.6771 11.0104C16.0174 10.6701 16.4306 10.5 16.9167 10.5C17.4028 10.5 17.816 10.6701 18.1563 11.0104C18.4966 11.3507 18.6667 11.7639 18.6667 12.25V19.25C18.6667 19.7361 18.4966 20.1493 18.1563 20.4896C17.816 20.8299 17.4028 21 16.9167 21ZM22.75 21C22.2639 21 21.8507 20.8299 21.5105 20.4896C21.1702 20.1493 21 19.7361 21 19.25V5.25C21 4.76389 21.1702 4.35069 21.5105 4.01042C21.8507 3.67014 22.2639 3.5 22.75 3.5C23.2362 3.5 23.6493 3.67014 23.9896 4.01042C24.3299 4.35069 24.5 4.76389 24.5 5.25V19.25C24.5 19.7361 24.3299 20.1493 23.9896 20.4896C23.6493 20.8299 23.2362 21 22.75 21Z" fill="black"/>
</svg>
