<svg width="16" height="16" viewBox="0 0 16 16" fill="none" xmlns="http://www.w3.org/2000/svg">
<path d="M2.00004 14C1.81115 14 1.65282 13.9361 1.52504 13.8083C1.39726 13.6806 1.33337 13.5222 1.33337 13.3333C1.33337 13.1444 1.39726 12.9861 1.52504 12.8583C1.65282 12.7306 1.81115 12.6667 2.00004 12.6667H14C14.1889 12.6667 14.3473 12.7306 14.475 12.8583C14.6028 12.9861 14.6667 13.1444 14.6667 13.3333C14.6667 13.5222 14.6028 13.6806 14.475 13.8083C14.3473 13.9361 14.1889 14 14 14H2.00004ZM3.00004 12C2.72226 12 2.48615 11.9028 2.29171 11.7083C2.09726 11.5139 2.00004 11.2778 2.00004 11V8.33333C2.00004 8.05556 2.09726 7.81944 2.29171 7.625C2.48615 7.43056 2.72226 7.33333 3.00004 7.33333C3.27782 7.33333 3.51393 7.43056 3.70837 7.625C3.90282 7.81944 4.00004 8.05556 4.00004 8.33333V11C4.00004 11.2778 3.90282 11.5139 3.70837 11.7083C3.51393 11.9028 3.27782 12 3.00004 12ZM6.33337 12C6.0556 12 5.81948 11.9028 5.62504 11.7083C5.4306 11.5139 5.33337 11.2778 5.33337 11V5C5.33337 4.72222 5.4306 4.48611 5.62504 4.29167C5.81948 4.09722 6.0556 4 6.33337 4C6.61115 4 6.84726 4.09722 7.04171 4.29167C7.23615 4.48611 7.33337 4.72222 7.33337 5V11C7.33337 11.2778 7.23615 11.5139 7.04171 11.7083C6.84726 11.9028 6.61115 12 6.33337 12ZM9.66671 12C9.38893 12 9.15282 11.9028 8.95837 11.7083C8.76393 11.5139 8.66671 11.2778 8.66671 11V7C8.66671 6.72222 8.76393 6.48611 8.95837 6.29167C9.15282 6.09722 9.38893 6 9.66671 6C9.94448 6 10.1806 6.09722 10.375 6.29167C10.5695 6.48611 10.6667 6.72222 10.6667 7V11C10.6667 11.2778 10.5695 11.5139 10.375 11.7083C10.1806 11.9028 9.94448 12 9.66671 12ZM13 12C12.7223 12 12.4862 11.9028 12.2917 11.7083C12.0973 11.5139 12 11.2778 12 11V3C12 2.72222 12.0973 2.48611 12.2917 2.29167C12.4862 2.09722 12.7223 2 13 2C13.2778 2 13.5139 2.09722 13.7084 2.29167C13.9028 2.48611 14 2.72222 14 3V11C14 11.2778 13.9028 11.5139 13.7084 11.7083C13.5139 11.9028 13.2778 12 13 12Z" fill="black"/>
</svg>
