<svg width="16" height="16" viewBox="0 0 16 16" fill="none" xmlns="http://www.w3.org/2000/svg">
<path d="M12.6336 13.5332L9.33363 10.2332C9.2114 10.111 9.15029 9.95546 9.15029 9.76657C9.15029 9.57768 9.2114 9.42213 9.33363 9.2999C9.45585 9.17768 9.6114 9.11657 9.80029 9.11657C9.98918 9.11657 10.1447 9.17768 10.267 9.2999L13.567 12.5999C13.6892 12.7221 13.7503 12.8777 13.7503 13.0666C13.7503 13.2555 13.6892 13.411 13.567 13.5332C13.4447 13.6555 13.2892 13.7166 13.1003 13.7166C12.9114 13.7166 12.7558 13.6555 12.6336 13.5332ZM5.08363 12.4499C4.77252 12.761 4.40863 12.9082 3.99196 12.8916C3.57529 12.8749 3.25585 12.6943 3.03363 12.3499C2.36696 11.3166 2.01418 10.1971 1.97529 8.99157C1.9364 7.78602 2.2114 6.6499 2.80029 5.58324C2.83363 5.96102 2.92807 6.38602 3.08363 6.85824C3.23918 7.33046 3.45307 7.82768 3.72529 8.3499C3.99752 8.87213 4.32252 9.40824 4.70029 9.95824C5.07807 10.5082 5.49474 11.0499 5.95029 11.5832L5.08363 12.4499ZM6.86696 10.6666C6.33363 10.1332 5.86696 9.55268 5.46696 8.9249C5.06696 8.29713 4.75307 7.68879 4.52529 7.0999C4.29752 6.51102 4.16974 5.9749 4.14196 5.49157C4.11418 5.00824 4.21696 4.6499 4.45029 4.41657C4.68363 4.17213 5.04196 4.06102 5.52529 4.08324C6.00863 4.10546 6.54752 4.23046 7.14196 4.45824C7.7364 4.68602 8.34752 5.00268 8.97529 5.40824C9.60307 5.81379 10.1836 6.28324 10.717 6.81657L6.86696 10.6666ZM12.367 3.01657C12.7114 3.23879 12.8947 3.55546 12.917 3.96657C12.9392 4.37768 12.7947 4.73879 12.4836 5.0499L11.6336 5.8999C11.1114 5.44435 10.5753 5.03324 10.0253 4.66657C9.47529 4.2999 8.94196 3.97768 8.42529 3.6999C7.90863 3.42213 7.41418 3.20268 6.94196 3.04157C6.46974 2.88046 6.04474 2.78324 5.66696 2.7499C6.72252 2.20546 7.85029 1.95546 9.05029 1.9999C10.2503 2.04435 11.3558 2.38324 12.367 3.01657Z" fill="#191919"/>
</svg>
