<svg width="28" height="28" viewBox="0 0 28 28" fill="none" xmlns="http://www.w3.org/2000/svg">
<path d="M22.1086 23.6833L16.3336 17.9083C16.1197 17.6945 16.0128 17.4222 16.0128 17.0917C16.0128 16.7611 16.1197 16.4889 16.3336 16.275C16.5475 16.0611 16.8197 15.9542 17.1503 15.9542C17.4808 15.9542 17.753 16.0611 17.9669 16.275L23.7419 22.05C23.9558 22.2639 24.0628 22.5361 24.0628 22.8667C24.0628 23.1972 23.9558 23.4695 23.7419 23.6833C23.528 23.8972 23.2558 24.0042 22.9253 24.0042C22.5947 24.0042 22.3225 23.8972 22.1086 23.6833ZM8.8961 21.7875C8.35166 22.332 7.71485 22.5896 6.98569 22.5604C6.25652 22.5313 5.69749 22.2153 5.3086 21.6125C4.14194 19.8042 3.52457 17.8452 3.45652 15.7354C3.38846 13.6257 3.86971 11.6375 4.90027 9.77085C4.9586 10.432 5.12388 11.1757 5.3961 12.0021C5.66832 12.8285 6.04263 13.6986 6.51902 14.6125C6.99541 15.5264 7.56416 16.4646 8.22527 17.4271C8.88638 18.3896 9.61555 19.3375 10.4128 20.2708L8.8961 21.7875ZM12.0169 18.6667C11.0836 17.7333 10.2669 16.7174 9.56694 15.6188C8.86694 14.5202 8.31763 13.4556 7.91902 12.425C7.52041 11.3945 7.2968 10.4563 7.24819 9.61043C7.19958 8.7646 7.37944 8.13752 7.78777 7.72918C8.1961 7.3014 8.82319 7.10696 9.66902 7.14585C10.5149 7.18474 11.4579 7.40349 12.4982 7.8021C13.5385 8.20071 14.6079 8.75488 15.7065 9.4646C16.8051 10.1743 17.8211 10.9958 18.7544 11.9292L12.0169 18.6667ZM21.6419 5.27918C22.2447 5.66807 22.5655 6.22224 22.6044 6.94168C22.6433 7.66113 22.3905 8.29307 21.8461 8.83752L20.3586 10.325C19.4447 9.52779 18.5065 8.80835 17.544 8.16668C16.5815 7.52502 15.6482 6.96113 14.744 6.47502C13.8399 5.9889 12.9746 5.60488 12.1482 5.32293C11.3218 5.04099 10.578 4.87085 9.91694 4.81252C11.7642 3.85974 13.7378 3.42224 15.8378 3.50002C17.9378 3.57779 19.8725 4.17085 21.6419 5.27918Z" fill="#191919"/>
</svg>
