<svg width="24" height="24" viewBox="0 0 24 24" fill="none" xmlns="http://www.w3.org/2000/svg">
<path d="M18.95 20.3L14 15.35C13.8166 15.1666 13.725 14.9333 13.725 14.65C13.725 14.3666 13.8166 14.1333 14 13.95C14.1833 13.7666 14.4166 13.675 14.7 13.675C14.9833 13.675 15.2166 13.7666 15.4 13.95L20.35 18.9C20.5333 19.0833 20.625 19.3166 20.625 19.6C20.625 19.8833 20.5333 20.1166 20.35 20.3C20.1666 20.4833 19.9333 20.575 19.65 20.575C19.3666 20.575 19.1333 20.4833 18.95 20.3ZM7.62495 18.675C7.15829 19.1416 6.61245 19.3625 5.98745 19.3375C5.36245 19.3125 4.88329 19.0416 4.54995 18.525C3.54995 16.975 3.02078 15.2958 2.96245 13.4875C2.90412 11.6791 3.31662 9.97498 4.19995 8.37498C4.24995 8.94165 4.39162 9.57915 4.62495 10.2875C4.85829 10.9958 5.17912 11.7416 5.58745 12.525C5.99579 13.3083 6.48329 14.1125 7.04995 14.9375C7.61662 15.7625 8.24162 16.575 8.92495 17.375L7.62495 18.675ZM10.3 16C9.49995 15.2 8.79995 14.3291 8.19995 13.3875C7.59995 12.4458 7.12912 11.5333 6.78745 10.65C6.44579 9.76665 6.25412 8.96248 6.21245 8.23748C6.17079 7.51248 6.32495 6.97498 6.67495 6.62498C7.02495 6.25831 7.56245 6.09165 8.28745 6.12498C9.01245 6.15831 9.82079 6.34581 10.7125 6.68748C11.6041 7.02915 12.5208 7.50415 13.4625 8.11248C14.4041 8.72081 15.275 9.42498 16.075 10.225L10.3 16ZM18.55 4.52498C19.0666 4.85831 19.3416 5.33331 19.375 5.94998C19.4083 6.56665 19.1916 7.10831 18.725 7.57498L17.45 8.84998C16.6666 8.16665 15.8625 7.54998 15.0375 6.99998C14.2125 6.44998 13.4125 5.96665 12.6375 5.54998C11.8625 5.13331 11.1208 4.80415 10.4125 4.56248C9.70412 4.32081 9.06662 4.17498 8.49995 4.12498C10.0833 3.30831 11.775 2.93331 13.575 2.99998C15.375 3.06665 17.0333 3.57498 18.55 4.52498Z" fill="#191919"/>
</svg>
