<svg width="28" height="28" viewBox="0 0 28 28" fill="none" xmlns="http://www.w3.org/2000/svg">
<path d="M22.05 23.6834L16.275 17.9084C16.0611 17.6946 15.9542 17.4223 15.9542 17.0918C15.9542 16.7612 16.0611 16.489 16.275 16.2751C16.4889 16.0612 16.7611 15.9543 17.0917 15.9543C17.4222 15.9543 17.6944 16.0612 17.9083 16.2751L23.6833 22.0501C23.8972 22.264 24.0042 22.5362 24.0042 22.8668C24.0042 23.1973 23.8972 23.4696 23.6833 23.6834C23.4694 23.8973 23.1972 24.0043 22.8667 24.0043C22.5361 24.0043 22.2639 23.8973 22.05 23.6834ZM5.27917 21.5834C4.67639 20.6112 4.22917 19.5953 3.9375 18.5355C3.64583 17.4758 3.5 16.3918 3.5 15.2834C3.5 13.7668 3.78194 12.289 4.34583 10.8501C4.90972 9.41123 5.775 8.10845 6.94167 6.94178C8.10833 5.77511 9.41597 4.90498 10.8646 4.33136C12.3132 3.75775 13.7958 3.47095 15.3125 3.47095C16.4208 3.47095 17.5049 3.62164 18.5646 3.92303C19.6243 4.22442 20.6306 4.6765 21.5833 5.27928C22.1861 5.66817 22.5069 6.22234 22.5458 6.94178C22.5847 7.66123 22.3319 8.29317 21.7875 8.83761L8.8375 21.7876C8.29306 22.3321 7.65625 22.5848 6.92708 22.5459C6.19792 22.5071 5.64861 22.1862 5.27917 21.5834ZM7.175 20.1251L8.75 18.5501C8.43889 18.1418 8.14236 17.7237 7.86042 17.2959C7.57847 16.8682 7.32083 16.4404 7.0875 16.0126C6.85417 15.5848 6.65 15.1571 6.475 14.7293C6.3 14.3015 6.14444 13.8834 6.00833 13.4751C5.79444 14.6223 5.77986 15.7696 5.96458 16.9168C6.14931 18.064 6.55278 19.1334 7.175 20.1251ZM10.4417 16.9168L16.9167 10.3834C16.0806 9.74178 15.2396 9.22164 14.3938 8.82303C13.5479 8.42442 12.7556 8.1522 12.0167 8.00636C11.2778 7.86053 10.6118 7.83623 10.0188 7.93345C9.42569 8.03067 8.96389 8.24456 8.63333 8.57511C8.30278 8.92511 8.08889 9.39664 7.99167 9.9897C7.89444 10.5828 7.91875 11.2536 8.06458 12.0022C8.21042 12.7508 8.48264 13.5432 8.88125 14.3793C9.27986 15.2154 9.8 16.0612 10.4417 16.9168ZM20.1833 7.17511C19.1528 6.55289 18.0639 6.14456 16.9167 5.95011C15.7694 5.75567 14.6222 5.77511 13.475 6.00845C13.9028 6.14456 14.3306 6.30011 14.7583 6.47511C15.1861 6.65011 15.6139 6.84942 16.0417 7.07303C16.4694 7.29664 16.8924 7.54942 17.3104 7.83136C17.7285 8.11331 18.1417 8.41956 18.55 8.75011L20.1833 7.17511Z" fill="#191919"/>
</svg>
