<svg width="24" height="24" viewBox="0 0 24 24" fill="none" xmlns="http://www.w3.org/2000/svg">
<path d="M18.9 20.3001L13.95 15.3501C13.7667 15.1668 13.675 14.9334 13.675 14.6501C13.675 14.3668 13.7667 14.1334 13.95 13.9501C14.1333 13.7668 14.3667 13.6751 14.65 13.6751C14.9333 13.6751 15.1667 13.7668 15.35 13.9501L20.3 18.9001C20.4833 19.0834 20.575 19.3168 20.575 19.6001C20.575 19.8834 20.4833 20.1168 20.3 20.3001C20.1167 20.4834 19.8833 20.5751 19.6 20.5751C19.3167 20.5751 19.0833 20.4834 18.9 20.3001ZM4.525 18.5001C4.00833 17.6668 3.625 16.7959 3.375 15.8876C3.125 14.9793 3 14.0501 3 13.1001C3 11.8001 3.24167 10.5334 3.725 9.3001C4.20833 8.06676 4.95 6.9501 5.95 5.9501C6.95 4.9501 8.07083 4.20426 9.3125 3.7126C10.5542 3.22093 11.825 2.9751 13.125 2.9751C14.075 2.9751 15.0042 3.10426 15.9125 3.3626C16.8208 3.62093 17.6833 4.00843 18.5 4.5251C19.0167 4.85843 19.2917 5.33343 19.325 5.9501C19.3583 6.56676 19.1417 7.10843 18.675 7.5751L7.575 18.6751C7.10833 19.1418 6.5625 19.3584 5.9375 19.3251C5.3125 19.2918 4.84167 19.0168 4.525 18.5001ZM6.15 17.2501L7.5 15.9001C7.23333 15.5501 6.97917 15.1918 6.7375 14.8251C6.49583 14.4584 6.275 14.0918 6.075 13.7251C5.875 13.3584 5.7 12.9918 5.55 12.6251C5.4 12.2584 5.26667 11.9001 5.15 11.5501C4.96667 12.5334 4.95417 13.5168 5.1125 14.5001C5.27083 15.4834 5.61667 16.4001 6.15 17.2501ZM8.95 14.5001L14.5 8.9001C13.7833 8.3501 13.0625 7.90426 12.3375 7.5626C11.6125 7.22093 10.9333 6.9876 10.3 6.8626C9.66667 6.7376 9.09583 6.71676 8.5875 6.8001C8.07917 6.88343 7.68333 7.06676 7.4 7.3501C7.11667 7.6501 6.93333 8.05426 6.85 8.5626C6.76667 9.07093 6.7875 9.64593 6.9125 10.2876C7.0375 10.9293 7.27083 11.6084 7.6125 12.3251C7.95417 13.0418 8.4 13.7668 8.95 14.5001ZM17.3 6.1501C16.4167 5.61676 15.4833 5.26676 14.5 5.1001C13.5167 4.93343 12.5333 4.9501 11.55 5.1501C11.9167 5.26676 12.2833 5.4001 12.65 5.5501C13.0167 5.7001 13.3833 5.87093 13.75 6.0626C14.1167 6.25426 14.4792 6.47093 14.8375 6.7126C15.1958 6.95426 15.55 7.21676 15.9 7.5001L17.3 6.1501Z" fill="#191919"/>
</svg>
