<svg width="16" height="16" viewBox="0 0 16 16" fill="none" xmlns="http://www.w3.org/2000/svg">
<path d="M12.6 13.5334L9.3 10.2334C9.17778 10.1112 9.11667 9.95562 9.11667 9.76673C9.11667 9.57784 9.17778 9.42229 9.3 9.30007C9.42222 9.17784 9.57778 9.11673 9.76667 9.11673C9.95556 9.11673 10.1111 9.17784 10.2333 9.30007L13.5333 12.6001C13.6556 12.7223 13.7167 12.8778 13.7167 13.0667C13.7167 13.2556 13.6556 13.4112 13.5333 13.5334C13.4111 13.6556 13.2556 13.7167 13.0667 13.7167C12.8778 13.7167 12.7222 13.6556 12.6 13.5334ZM3.01667 12.3334C2.67222 11.7778 2.41667 11.1973 2.25 10.5917C2.08333 9.98618 2 9.36673 2 8.7334C2 7.86673 2.16111 7.02229 2.48333 6.20007C2.80556 5.37784 3.3 4.6334 3.96667 3.96673C4.63333 3.30007 5.38056 2.80284 6.20833 2.47507C7.03611 2.14729 7.88333 1.9834 8.75 1.9834C9.38333 1.9834 10.0028 2.06951 10.6083 2.24173C11.2139 2.41395 11.7889 2.67229 12.3333 3.01673C12.6778 3.23895 12.8611 3.55562 12.8833 3.96673C12.9056 4.37784 12.7611 4.73895 12.45 5.05007L5.05 12.4501C4.73889 12.7612 4.375 12.9056 3.95833 12.8834C3.54167 12.8612 3.22778 12.6778 3.01667 12.3334ZM4.1 11.5001L5 10.6001C4.82222 10.3667 4.65278 10.1278 4.49167 9.8834C4.33056 9.63895 4.18333 9.39451 4.05 9.15007C3.91667 8.90562 3.8 8.66118 3.7 8.41673C3.6 8.17229 3.51111 7.9334 3.43333 7.70007C3.31111 8.35562 3.30278 9.01118 3.40833 9.66673C3.51389 10.3223 3.74444 10.9334 4.1 11.5001ZM5.96667 9.66673L9.66667 5.9334C9.18889 5.56673 8.70833 5.26951 8.225 5.04173C7.74167 4.81395 7.28889 4.6584 6.86667 4.57507C6.44444 4.49173 6.06389 4.47784 5.725 4.5334C5.38611 4.58895 5.12222 4.71118 4.93333 4.90007C4.74444 5.10007 4.62222 5.36951 4.56667 5.7084C4.51111 6.04729 4.525 6.43062 4.60833 6.8584C4.69167 7.28618 4.84722 7.73895 5.075 8.21673C5.30278 8.69451 5.6 9.17784 5.96667 9.66673ZM11.5333 4.10007C10.9444 3.74451 10.3222 3.51118 9.66667 3.40007C9.01111 3.28895 8.35556 3.30007 7.7 3.4334C7.94444 3.51118 8.18889 3.60007 8.43333 3.70007C8.67778 3.80007 8.92222 3.91395 9.16667 4.04173C9.41111 4.16951 9.65278 4.31395 9.89167 4.47507C10.1306 4.63618 10.3667 4.81118 10.6 5.00007L11.5333 4.10007Z" fill="#191919"/>
</svg>
