<svg width="28" height="28" viewBox="0 0 28 28" fill="none" xmlns="http://www.w3.org/2000/svg">
<path d="M14 25.6666C12.3861 25.6666 10.8694 25.3601 9.45 24.7473C8.03056 24.1351 6.79584 23.3041 5.74584 22.2541C4.69584 21.2041 3.86478 19.9694 3.25267 18.5499C2.63978 17.1305 2.33334 15.6138 2.33334 13.9999C2.33334 12.386 2.63978 10.8694 3.25267 9.44992C3.86478 8.03048 4.69584 6.79575 5.74584 5.74575C6.79584 4.69575 8.03056 3.86431 9.45 3.25142C10.8694 2.63931 12.3861 2.33325 14 2.33325C15.6139 2.33325 17.1306 2.63931 18.55 3.25142C19.9694 3.86431 21.2042 4.69575 22.2542 5.74575C23.3042 6.79575 24.1352 8.03048 24.7473 9.44992C25.3602 10.8694 25.6667 12.386 25.6667 13.9999C25.6667 15.6138 25.3602 17.1305 24.7473 18.5499C24.1352 19.9694 23.3042 21.2041 22.2542 22.2541C21.2042 23.3041 19.9694 24.1351 18.55 24.7473C17.1306 25.3601 15.6139 25.6666 14 25.6666ZM14 23.3333C16.6056 23.3333 18.8125 22.4291 20.6208 20.6208C22.4292 18.8124 23.3333 16.6055 23.3333 13.9999C23.3333 12.9499 23.163 11.9388 22.8223 10.9666C22.4824 9.99436 21.9917 9.09992 21.35 8.28325L8.28334 21.3499C9.1 21.9916 9.99445 22.4824 10.9667 22.8223C11.9389 23.1629 12.95 23.3333 14 23.3333ZM6.65 19.7166L19.7167 6.64992C18.9 6.00825 18.0056 5.51747 17.0333 5.17759C16.0611 4.83692 15.05 4.66659 14 4.66659C11.3944 4.66659 9.1875 5.57075 7.37917 7.37909C5.57084 9.18742 4.66667 11.3944 4.66667 13.9999C4.66667 15.0499 4.837 16.061 5.17767 17.0333C5.51756 18.0055 6.00834 18.8999 6.65 19.7166Z" fill="black"/>
</svg>
