<svg width="16" height="16" viewBox="0 0 16 16" fill="none" xmlns="http://www.w3.org/2000/svg">
<path d="M8 14.6666C7.07778 14.6666 6.21111 14.4915 5.4 14.1413C4.58889 13.7915 3.88334 13.3166 3.28334 12.7166C2.68334 12.1166 2.20845 11.411 1.85867 10.5999C1.50845 9.78881 1.33334 8.92214 1.33334 7.99992C1.33334 7.0777 1.50845 6.21103 1.85867 5.39992C2.20845 4.58881 2.68334 3.88325 3.28334 3.28325C3.88334 2.68325 4.58889 2.20814 5.4 1.85792C6.21111 1.50814 7.07778 1.33325 8 1.33325C8.92222 1.33325 9.78889 1.50814 10.6 1.85792C11.4111 2.20814 12.1167 2.68325 12.7167 3.28325C13.3167 3.88325 13.7916 4.58881 14.1413 5.39992C14.4916 6.21103 14.6667 7.0777 14.6667 7.99992C14.6667 8.92214 14.4916 9.78881 14.1413 10.5999C13.7916 11.411 13.3167 12.1166 12.7167 12.7166C12.1167 13.3166 11.4111 13.7915 10.6 14.1413C9.78889 14.4915 8.92222 14.6666 8 14.6666ZM8 13.3333C9.48889 13.3333 10.75 12.8166 11.7833 11.7833C12.8167 10.7499 13.3333 9.48881 13.3333 7.99992C13.3333 7.39992 13.236 6.82214 13.0413 6.26658C12.8471 5.71103 12.5667 5.19992 12.2 4.73325L4.73334 12.1999C5.2 12.5666 5.71111 12.847 6.26667 13.0413C6.82222 13.2359 7.4 13.3333 8 13.3333ZM3.8 11.2666L11.2667 3.79992C10.8 3.43325 10.2889 3.15281 9.73334 2.95859C9.17778 2.76392 8.6 2.66659 8 2.66659C6.51111 2.66659 5.25 3.18325 4.21667 4.21658C3.18334 5.24992 2.66667 6.51103 2.66667 7.99992C2.66667 8.59992 2.764 9.1777 2.95867 9.73325C3.15289 10.2888 3.43334 10.7999 3.8 11.2666Z" fill="black"/>
</svg>
