<svg width="28" height="28" viewBox="0 0 28 28" fill="none" xmlns="http://www.w3.org/2000/svg">
<path d="M10.2667 22.1673C9.625 22.1673 9.0757 21.9388 8.61875 21.4819C8.16181 21.025 7.93333 20.4757 7.93333 19.834V8.16732C7.93333 7.52565 8.16181 6.97635 8.61875 6.5194C9.0757 6.06246 9.625 5.83398 10.2667 5.83398H14.3792C15.6431 5.83398 16.8097 6.22287 17.8792 7.00065C18.9486 7.77843 19.4833 8.8576 19.4833 10.2382C19.4833 11.2298 19.2597 11.993 18.8125 12.5277C18.3653 13.0625 17.9472 13.4465 17.5583 13.6798C18.0444 13.8937 18.584 14.2923 19.1771 14.8757C19.7701 15.459 20.0667 16.334 20.0667 17.5007C20.0667 19.2312 19.4347 20.4416 18.1708 21.1319C16.9069 21.8222 15.7208 22.1673 14.6125 22.1673H10.2667ZM11.4625 18.9007H14.4958C15.4292 18.9007 15.9979 18.6625 16.2021 18.1861C16.4063 17.7097 16.5083 17.3645 16.5083 17.1507C16.5083 16.9368 16.4063 16.5916 16.2021 16.1152C15.9979 15.6388 15.4 15.4007 14.4083 15.4007H11.4625V18.9007ZM11.4625 12.2507H14.175C14.8167 12.2507 15.2833 12.0854 15.575 11.7548C15.8667 11.4243 16.0125 11.0548 16.0125 10.6465C16.0125 10.1798 15.8472 9.80065 15.5167 9.50898C15.1861 9.21732 14.7583 9.07148 14.2333 9.07148H11.4625V12.2507Z" fill="#191919"/>
</svg>
