<svg width="16" height="16" viewBox="0 0 16 16" fill="none" xmlns="http://www.w3.org/2000/svg">
<path d="M5.86667 12.6673C5.5 12.6673 5.18611 12.5368 4.925 12.2757C4.66389 12.0145 4.53333 11.7007 4.53333 11.334V4.66732C4.53333 4.30065 4.66389 3.98676 4.925 3.72565C5.18611 3.46454 5.5 3.33398 5.86667 3.33398H8.21667C8.93889 3.33398 9.60556 3.55621 10.2167 4.00065C10.8278 4.4451 11.1333 5.06176 11.1333 5.85065C11.1333 6.41732 11.0056 6.85343 10.75 7.15898C10.4944 7.46454 10.2556 7.68398 10.0333 7.81732C10.3111 7.93954 10.6194 8.16732 10.9583 8.50065C11.2972 8.83398 11.4667 9.33398 11.4667 10.0007C11.4667 10.9895 11.1056 11.6812 10.3833 12.0757C9.66111 12.4701 8.98333 12.6673 8.35 12.6673H5.86667ZM6.55 10.8007H8.28333C8.81667 10.8007 9.14167 10.6645 9.25833 10.3923C9.375 10.1201 9.43333 9.92287 9.43333 9.80065C9.43333 9.67843 9.375 9.48121 9.25833 9.20898C9.14167 8.93676 8.8 8.80065 8.23333 8.80065H6.55V10.8007ZM6.55 7.00065H8.1C8.46667 7.00065 8.73333 6.90621 8.9 6.71732C9.06667 6.52843 9.15 6.31732 9.15 6.08398C9.15 5.81732 9.05556 5.60065 8.86667 5.43398C8.67778 5.26732 8.43333 5.18398 8.13333 5.18398H6.55V7.00065Z" fill="#191919"/>
</svg>
