<svg width="16" height="16" viewBox="0 0 16 16" fill="none" xmlns="http://www.w3.org/2000/svg">
<path d="M4.66666 11.9667L7.99999 10.5333L11.3333 11.9667V3.33333H4.66666V11.9667ZM4.26666 13.6C4.04444 13.6889 3.83333 13.6693 3.63333 13.5413C3.43333 13.4138 3.33333 13.2278 3.33333 12.9833V3.33333C3.33333 2.96667 3.46399 2.65267 3.72533 2.39133C3.98622 2.13044 4.29999 2 4.66666 2H11.3333C11.7 2 12.014 2.13044 12.2753 2.39133C12.5362 2.65267 12.6667 2.96667 12.6667 3.33333V12.9833C12.6667 13.2278 12.5667 13.4138 12.3667 13.5413C12.1667 13.6693 11.9556 13.6889 11.7333 13.6L7.99999 12L4.26666 13.6Z" fill="black"/>
</svg>
