<svg width="28" height="28" viewBox="0 0 28 28" fill="none" xmlns="http://www.w3.org/2000/svg">
<path d="M8.16666 20.9417L14 18.4333L19.8333 20.9417V5.83333H8.16666V20.9417ZM7.46666 23.8C7.07777 23.9556 6.70833 23.9213 6.35833 23.6973C6.00833 23.4741 5.83333 23.1486 5.83333 22.7208V5.83333C5.83333 5.19167 6.06199 4.64217 6.51933 4.18483C6.97588 3.72828 7.525 3.5 8.16666 3.5H19.8333C20.475 3.5 21.0245 3.72828 21.4818 4.18483C21.9384 4.64217 22.1667 5.19167 22.1667 5.83333V22.7208C22.1667 23.1486 21.9917 23.4741 21.6417 23.6973C21.2917 23.9213 20.9222 23.9556 20.5333 23.8L14 21L7.46666 23.8Z" fill="black"/>
</svg>
