<svg width="28" height="28" viewBox="0 0 28 28" fill="none" xmlns="http://www.w3.org/2000/svg">
<path fill-rule="evenodd" clip-rule="evenodd" d="M19.8333 2.33398C20.1639 2.33398 20.4414 2.44533 20.665 2.66895C20.8886 2.89256 21 3.1701 21 3.50065V4.66732H22.1667C22.8083 4.66732 23.3572 4.89625 23.8141 5.35319C24.2711 5.81013 24.5 6.35898 24.5 7.00065V12.834C24.5 13.4783 23.9777 14.0007 23.3333 14.0007C22.689 14.0007 22.1667 13.4783 22.1667 12.834V11.6673H5.83333V23.334H12.8333C13.4777 23.334 14 23.8563 14 24.5007C14 25.145 13.4777 25.6673 12.8333 25.6673H5.83333C5.19167 25.6673 4.64282 25.4384 4.18587 24.9814C3.72893 24.5245 3.5 23.9757 3.5 23.334V7.00065C3.5 6.35898 3.72893 5.81013 4.18587 5.35319C4.64282 4.89625 5.19167 4.66732 5.83333 4.66732H7V3.50065C7 3.1701 7.11135 2.89256 7.33496 2.66895C7.55857 2.44533 7.83611 2.33398 8.16667 2.33398C8.49722 2.33398 8.77476 2.44533 8.99837 2.66895C9.22198 2.89256 9.33333 3.1701 9.33333 3.50065V4.66732H18.6667V3.50065C18.6667 3.1701 18.778 2.89256 19.0016 2.66895C19.2252 2.44533 19.5028 2.33398 19.8333 2.33398ZM5.83333 9.33398H22.1667V7.00065H5.83333V9.33398Z" fill="black"/>
<path d="M16.6751 14.3424C17.1307 13.8869 17.8693 13.8869 18.3249 14.3424C18.7802 14.7981 18.7803 15.5367 18.3249 15.9922L16.8164 17.5007H19.8333C22.4106 17.5008 24.5 19.5901 24.5 22.1673V23.334C24.4998 23.9781 23.9775 24.5005 23.3333 24.5007C22.6892 24.5005 22.1668 23.9781 22.1667 23.334V22.1673C22.1667 20.8787 21.1219 19.8341 19.8333 19.834H16.8164L18.3249 21.3424L18.4046 21.4313C18.7781 21.8895 18.7519 22.5651 18.3249 22.9922C17.8978 23.419 17.2221 23.4454 16.764 23.0719L16.6751 22.9922L13.1751 19.4922C12.7196 19.0367 12.7198 18.2981 13.1751 17.8424L16.6751 14.3424Z" fill="black"/>
</svg>
