<svg width="24" height="24" viewBox="0 0 24 24" fill="none" xmlns="http://www.w3.org/2000/svg">
<path d="M17 19H15C14.7167 19 14.4792 18.9042 14.2875 18.7125C14.0958 18.5208 14 18.2833 14 18C14 17.7167 14.0958 17.4792 14.2875 17.2875C14.4792 17.0958 14.7167 17 15 17H17V15C17 14.7167 17.0958 14.4792 17.2875 14.2875C17.4792 14.0958 17.7167 14 18 14C18.2833 14 18.5208 14.0958 18.7125 14.2875C18.9042 14.4792 19 14.7167 19 15V17H21C21.2833 17 21.5208 17.0958 21.7125 17.2875C21.9042 17.4792 22 17.7167 22 18C22 18.2833 21.9042 18.5208 21.7125 18.7125C21.5208 18.9042 21.2833 19 21 19H19V21C19 21.2833 18.9042 21.5208 18.7125 21.7125C18.5208 21.9042 18.2833 22 18 22C17.7167 22 17.4792 21.9042 17.2875 21.7125C17.0958 21.5208 17 21.2833 17 21V19ZM5 20C4.45 20 3.97917 19.8042 3.5875 19.4125C3.19583 19.0208 3 18.55 3 18V6C3 5.45 3.19583 4.97917 3.5875 4.5875C3.97917 4.19583 4.45 4 5 4H6V3C6 2.71667 6.09583 2.47917 6.2875 2.2875C6.47917 2.09583 6.71667 2 7 2C7.28333 2 7.52083 2.09583 7.7125 2.2875C7.90417 2.47917 8 2.71667 8 3V4H14V3C14 2.71667 14.0958 2.47917 14.2875 2.2875C14.4792 2.09583 14.7167 2 15 2C15.2833 2 15.5208 2.09583 15.7125 2.2875C15.9042 2.47917 16 2.71667 16 3V4H17C17.55 4 18.0208 4.19583 18.4125 4.5875C18.8042 4.97917 19 5.45 19 6V11C19 11.2833 18.9042 11.5208 18.7125 11.7125C18.5208 11.9042 18.2833 12 18 12C17.7167 12 17.4792 11.9042 17.2875 11.7125C17.0958 11.5208 17 11.2833 17 11V10H5V18H11C11.2833 18 11.5208 18.0958 11.7125 18.2875C11.9042 18.4792 12 18.7167 12 19C12 19.2833 11.9042 19.5208 11.7125 19.7125C11.5208 19.9042 11.2833 20 11 20H5Z" fill="#191919"/>
</svg>
