<svg width="28" height="28" viewBox="0 0 28 28" fill="none" xmlns="http://www.w3.org/2000/svg">
<path d="M19.8333 22.1666H17.5C17.1694 22.1666 16.8924 22.0548 16.6688 21.8312C16.4451 21.6076 16.3333 21.3305 16.3333 20.9999C16.3333 20.6694 16.4451 20.3923 16.6688 20.1687C16.8924 19.9451 17.1694 19.8333 17.5 19.8333H19.8333V17.4999C19.8333 17.1694 19.9451 16.8923 20.1688 16.6687C20.3924 16.4451 20.6694 16.3333 21 16.3333C21.3306 16.3333 21.6076 16.4451 21.8313 16.6687C22.0549 16.8923 22.1667 17.1694 22.1667 17.4999V19.8333H24.5C24.8306 19.8333 25.1076 19.9451 25.3313 20.1687C25.5549 20.3923 25.6667 20.6694 25.6667 20.9999C25.6667 21.3305 25.5549 21.6076 25.3313 21.8312C25.1076 22.0548 24.8306 22.1666 24.5 22.1666H22.1667V24.4999C22.1667 24.8305 22.0549 25.1076 21.8313 25.3312C21.6076 25.5548 21.3306 25.6666 21 25.6666C20.6694 25.6666 20.3924 25.5548 20.1688 25.3312C19.9451 25.1076 19.8333 24.8305 19.8333 24.4999V22.1666ZM5.83333 23.3333C5.19167 23.3333 4.64236 23.1048 4.18542 22.6478C3.72847 22.1909 3.5 21.6416 3.5 20.9999V6.99992C3.5 6.35825 3.72847 5.80895 4.18542 5.352C4.64236 4.89506 5.19167 4.66659 5.83333 4.66659H7V3.49992C7 3.16936 7.11181 2.89228 7.33542 2.66867C7.55903 2.44506 7.83611 2.33325 8.16667 2.33325C8.49722 2.33325 8.77431 2.44506 8.99792 2.66867C9.22153 2.89228 9.33333 3.16936 9.33333 3.49992V4.66659H16.3333V3.49992C16.3333 3.16936 16.4451 2.89228 16.6688 2.66867C16.8924 2.44506 17.1694 2.33325 17.5 2.33325C17.8306 2.33325 18.1076 2.44506 18.3313 2.66867C18.5549 2.89228 18.6667 3.16936 18.6667 3.49992V4.66659H19.8333C20.475 4.66659 21.0243 4.89506 21.4813 5.352C21.9382 5.80895 22.1667 6.35825 22.1667 6.99992V12.8333C22.1667 13.1638 22.0549 13.4409 21.8313 13.6645C21.6076 13.8881 21.3306 13.9999 21 13.9999C20.6694 13.9999 20.3924 13.8881 20.1688 13.6645C19.9451 13.4409 19.8333 13.1638 19.8333 12.8333V11.6666H5.83333V20.9999H12.8333C13.1639 20.9999 13.441 21.1117 13.6646 21.3353C13.8882 21.5589 14 21.836 14 22.1666C14 22.4971 13.8882 22.7742 13.6646 22.9978C13.441 23.2214 13.1639 23.3333 12.8333 23.3333H5.83333Z" fill="#191919"/>
</svg>
