<svg width="16" height="16" viewBox="0 0 16 16" fill="none" xmlns="http://www.w3.org/2000/svg">
<path d="M11.3333 12.6666H10C9.81111 12.6666 9.65278 12.6027 9.525 12.4749C9.39722 12.3471 9.33333 12.1888 9.33333 11.9999C9.33333 11.811 9.39722 11.6527 9.525 11.5249C9.65278 11.3971 9.81111 11.3333 10 11.3333H11.3333V9.99992C11.3333 9.81103 11.3972 9.6527 11.525 9.52492C11.6528 9.39714 11.8111 9.33325 12 9.33325C12.1889 9.33325 12.3472 9.39714 12.475 9.52492C12.6028 9.6527 12.6667 9.81103 12.6667 9.99992V11.3333H14C14.1889 11.3333 14.3472 11.3971 14.475 11.5249C14.6028 11.6527 14.6667 11.811 14.6667 11.9999C14.6667 12.1888 14.6028 12.3471 14.475 12.4749C14.3472 12.6027 14.1889 12.6666 14 12.6666H12.6667V13.9999C12.6667 14.1888 12.6028 14.3471 12.475 14.4749C12.3472 14.6027 12.1889 14.6666 12 14.6666C11.8111 14.6666 11.6528 14.6027 11.525 14.4749C11.3972 14.3471 11.3333 14.1888 11.3333 13.9999V12.6666ZM3.33333 13.3333C2.96667 13.3333 2.65278 13.2027 2.39167 12.9416C2.13056 12.6805 2 12.3666 2 11.9999V3.99992C2 3.63325 2.13056 3.31936 2.39167 3.05825C2.65278 2.79714 2.96667 2.66659 3.33333 2.66659H4V1.99992C4 1.81103 4.06389 1.6527 4.19167 1.52492C4.31944 1.39714 4.47778 1.33325 4.66667 1.33325C4.85556 1.33325 5.01389 1.39714 5.14167 1.52492C5.26944 1.6527 5.33333 1.81103 5.33333 1.99992V2.66659H9.33333V1.99992C9.33333 1.81103 9.39722 1.6527 9.525 1.52492C9.65278 1.39714 9.81111 1.33325 10 1.33325C10.1889 1.33325 10.3472 1.39714 10.475 1.52492C10.6028 1.6527 10.6667 1.81103 10.6667 1.99992V2.66659H11.3333C11.7 2.66659 12.0139 2.79714 12.275 3.05825C12.5361 3.31936 12.6667 3.63325 12.6667 3.99992V7.33325C12.6667 7.52214 12.6028 7.68047 12.475 7.80825C12.3472 7.93603 12.1889 7.99992 12 7.99992C11.8111 7.99992 11.6528 7.93603 11.525 7.80825C11.3972 7.68047 11.3333 7.52214 11.3333 7.33325V6.66659H3.33333V11.9999H7.33333C7.52222 11.9999 7.68056 12.0638 7.80833 12.1916C7.93611 12.3194 8 12.4777 8 12.6666C8 12.8555 7.93611 13.0138 7.80833 13.1416C7.68056 13.2694 7.52222 13.3333 7.33333 13.3333H3.33333Z" fill="#191919"/>
</svg>
