<svg width="24" height="24" viewBox="0 0 24 24" fill="none" xmlns="http://www.w3.org/2000/svg">
<path fill-rule="evenodd" clip-rule="evenodd" d="M17 2C17.2833 2 17.5212 2.09544 17.7129 2.28711C17.9046 2.47878 18 2.71667 18 3V4H19C19.55 4 20.0204 4.19622 20.4121 4.58789C20.8038 4.97956 21 5.45 21 6V11C21 11.5523 20.5523 12 20 12C19.4477 12 19 11.5523 19 11V10H5V20H11C11.5523 20 12 20.4477 12 21C12 21.5523 11.5523 22 11 22H5C4.45 22 3.97956 21.8038 3.58789 21.4121C3.19622 21.0204 3 20.55 3 20V6C3 5.45 3.19622 4.97956 3.58789 4.58789C3.97956 4.19622 4.45 4 5 4H6V3C6 2.71667 6.09544 2.47878 6.28711 2.28711C6.47878 2.09544 6.71667 2 7 2C7.28333 2 7.52122 2.09544 7.71289 2.28711C7.90456 2.47878 8 2.71667 8 3V4H16V3C16 2.71667 16.0954 2.47878 16.2871 2.28711C16.4788 2.09544 16.7167 2 17 2ZM5 8H19V6H5V8Z" fill="black"/>
<path d="M14.293 12.293C14.6835 11.9025 15.3165 11.9025 15.707 12.293C16.0973 12.6835 16.0974 13.3166 15.707 13.707L14.4141 15H17C19.2091 15.0001 21 16.7909 21 19V20C20.9998 20.5521 20.5521 20.9999 20 21C19.4479 20.9999 19.0002 20.5521 19 20V19C19 17.8955 18.1045 17.0001 17 17H14.4141L15.707 18.293L15.7754 18.3691C16.0955 18.7619 16.073 19.341 15.707 19.707C15.341 20.0729 14.7618 20.0955 14.3691 19.7754L14.293 19.707L11.293 16.707C10.9025 16.3166 10.9026 15.6835 11.293 15.293L14.293 12.293Z" fill="black"/>
</svg>
