<svg width="16" height="16" viewBox="0 0 16 16" fill="none" xmlns="http://www.w3.org/2000/svg">
<path d="M3.33333 14.6666C2.96667 14.6666 2.65278 14.536 2.39167 14.2749C2.13056 14.0138 2 13.6999 2 13.3333V3.99992C2 3.63325 2.13056 3.31936 2.39167 3.05825C2.65278 2.79714 2.96667 2.66659 3.33333 2.66659H4V1.99992C4 1.81103 4.06389 1.6527 4.19167 1.52492C4.31944 1.39714 4.47778 1.33325 4.66667 1.33325C4.85556 1.33325 5.01389 1.39714 5.14167 1.52492C5.26944 1.6527 5.33333 1.81103 5.33333 1.99992V2.66659H10.6667V1.99992C10.6667 1.81103 10.7306 1.6527 10.8583 1.52492C10.9861 1.39714 11.1444 1.33325 11.3333 1.33325C11.5222 1.33325 11.6806 1.39714 11.8083 1.52492C11.9361 1.6527 12 1.81103 12 1.99992V2.66659H12.6667C13.0333 2.66659 13.3472 2.79714 13.6083 3.05825C13.8694 3.31936 14 3.63325 14 3.99992V13.3333C14 13.6999 13.8694 14.0138 13.6083 14.2749C13.3472 14.536 13.0333 14.6666 12.6667 14.6666H3.33333ZM3.33333 13.3333H12.6667V6.66658H3.33333V13.3333ZM3.33333 5.33325H12.6667V3.99992H3.33333V5.33325Z" fill="#191919"/>
</svg>
