<svg width="28" height="28" viewBox="0 0 28 28" fill="none" xmlns="http://www.w3.org/2000/svg">
<path d="M5.83333 25.6666C5.19167 25.6666 4.64236 25.4381 4.18542 24.9812C3.72847 24.5242 3.5 23.9749 3.5 23.3333V6.99992C3.5 6.35825 3.72847 5.80895 4.18542 5.352C4.64236 4.89506 5.19167 4.66659 5.83333 4.66659H7V3.49992C7 3.16936 7.11181 2.89228 7.33542 2.66867C7.55903 2.44506 7.83611 2.33325 8.16667 2.33325C8.49722 2.33325 8.77431 2.44506 8.99792 2.66867C9.22153 2.89228 9.33333 3.16936 9.33333 3.49992V4.66659H18.6667V3.49992C18.6667 3.16936 18.7785 2.89228 19.0021 2.66867C19.2257 2.44506 19.5028 2.33325 19.8333 2.33325C20.1639 2.33325 20.441 2.44506 20.6646 2.66867C20.8882 2.89228 21 3.16936 21 3.49992V4.66659H22.1667C22.8083 4.66659 23.3576 4.89506 23.8146 5.352C24.2715 5.80895 24.5 6.35825 24.5 6.99992V23.3333C24.5 23.9749 24.2715 24.5242 23.8146 24.9812C23.3576 25.4381 22.8083 25.6666 22.1667 25.6666H5.83333ZM5.83333 23.3333H22.1667V11.6666H5.83333V23.3333ZM5.83333 9.33325H22.1667V6.99992H5.83333V9.33325Z" fill="#191919"/>
</svg>
