<svg width="16" height="16" viewBox="0 0 16 16" fill="none" xmlns="http://www.w3.org/2000/svg">
<path fill-rule="evenodd" clip-rule="evenodd" d="M11.3333 1.33398C11.5222 1.33398 11.6808 1.39761 11.8086 1.52539C11.9364 1.65317 12 1.81176 12 2.00065V2.66732H12.6667C13.0333 2.66732 13.347 2.79813 13.6081 3.05924C13.8692 3.32036 14 3.63398 14 4.00065V7.33398C14 7.70217 13.7015 8.00065 13.3333 8.00065C12.9651 8.00065 12.6667 7.70217 12.6667 7.33398V6.66732H3.33333V13.334H7.33333C7.70152 13.334 8 13.6325 8 14.0007C8 14.3688 7.70152 14.6673 7.33333 14.6673H3.33333C2.96667 14.6673 2.65304 14.5365 2.39193 14.2754C2.13082 14.0143 2 13.7007 2 13.334V4.00065C2 3.63398 2.13082 3.32036 2.39193 3.05924C2.65304 2.79813 2.96667 2.66732 3.33333 2.66732H4V2.00065C4 1.81176 4.06363 1.65317 4.19141 1.52539C4.31918 1.39761 4.47778 1.33398 4.66667 1.33398C4.85556 1.33398 5.01415 1.39761 5.14193 1.52539C5.2697 1.65317 5.33333 1.81176 5.33333 2.00065V2.66732H10.6667V2.00065C10.6667 1.81176 10.7303 1.65317 10.8581 1.52539C10.9859 1.39761 11.1444 1.33398 11.3333 1.33398ZM3.33333 5.33398H12.6667V4.00065H3.33333V5.33398Z" fill="black"/>
<path d="M9.52865 8.19596C9.789 7.93565 10.211 7.93562 10.4714 8.19596C10.7316 8.45631 10.7316 8.87837 10.4714 9.13867L9.60938 10.0007H11.3333C12.806 10.0007 14 11.1946 14 12.6673V13.334C13.9999 13.702 13.7014 14.0006 13.3333 14.0007C12.9653 14.0006 12.6668 13.702 12.6667 13.334V12.6673C12.6667 11.931 12.0697 11.334 11.3333 11.334H9.60938L10.4714 12.196L10.5169 12.2467C10.7303 12.5086 10.7153 12.8946 10.4714 13.1387C10.2273 13.3826 9.84123 13.3977 9.57943 13.1842L9.52865 13.1387L7.52865 11.1387C7.26834 10.8784 7.26843 10.4563 7.52865 10.196L9.52865 8.19596Z" fill="black"/>
</svg>
