<svg width="24" height="24" viewBox="0 0 24 24" fill="none" xmlns="http://www.w3.org/2000/svg">
<path d="M3.39999 16.4L1.09999 14.15C0.899988 13.95 0.799988 13.7167 0.799988 13.45C0.799988 13.1833 0.899988 12.95 1.09999 12.75C2.56665 11.1667 4.25832 9.97917 6.17499 9.1875C8.09165 8.39583 10.0333 8 12 8C13.9667 8 15.9042 8.39583 17.8125 9.1875C19.7208 9.97917 21.4167 11.1667 22.9 12.75C23.1 12.95 23.2 13.1833 23.2 13.45C23.2 13.7167 23.1 13.95 22.9 14.15L20.6 16.4C20.4167 16.5833 20.2042 16.6833 19.9625 16.7C19.7208 16.7167 19.5 16.65 19.3 16.5L16.4 14.3C16.2667 14.2 16.1667 14.0833 16.1 13.95C16.0333 13.8167 16 13.6667 16 13.5V10.65C15.3667 10.45 14.7167 10.2917 14.05 10.175C13.3833 10.0583 12.7 10 12 10C11.3 10 10.6167 10.0583 9.94999 10.175C9.28332 10.2917 8.63332 10.45 7.99999 10.65V13.5C7.99999 13.6667 7.96665 13.8167 7.89999 13.95C7.83332 14.0833 7.73332 14.2 7.59999 14.3L4.69999 16.5C4.49999 16.65 4.27915 16.7167 4.03749 16.7C3.79582 16.6833 3.58332 16.5833 3.39999 16.4ZM5.99999 11.45C5.51665 11.7 5.04999 11.9875 4.59999 12.3125C4.14999 12.6375 3.68332 13 3.19999 13.4L4.19999 14.4L5.99999 13V11.45ZM18 11.5V13L19.8 14.4L20.8 13.45C20.3167 13.0167 19.85 12.6417 19.4 12.325C18.95 12.0083 18.4833 11.7333 18 11.5Z" fill="#191919"/>
</svg>
