<svg width="28" height="28" viewBox="0 0 28 28" fill="none" xmlns="http://www.w3.org/2000/svg">
<path d="M3.96668 19.1333L1.28335 16.5083C1.05002 16.2749 0.93335 16.0027 0.93335 15.6916C0.93335 15.3805 1.05002 15.1083 1.28335 14.8749C2.99446 13.0277 4.96807 11.6423 7.20418 10.7187C9.44029 9.79506 11.7056 9.33325 14 9.33325C16.2945 9.33325 18.5549 9.79506 20.7813 10.7187C23.0077 11.6423 24.9861 13.0277 26.7167 14.8749C26.95 15.1083 27.0667 15.3805 27.0667 15.6916C27.0667 16.0027 26.95 16.2749 26.7167 16.5083L24.0333 19.1333C23.8195 19.3471 23.5715 19.4638 23.2896 19.4833C23.0077 19.5027 22.75 19.4249 22.5167 19.2499L19.1333 16.6833C18.9778 16.5666 18.8611 16.4305 18.7833 16.2749C18.7056 16.1194 18.6667 15.9444 18.6667 15.7499V12.4249C17.9278 12.1916 17.1695 12.0069 16.3917 11.8708C15.6139 11.7346 14.8167 11.6666 14 11.6666C13.1833 11.6666 12.3861 11.7346 11.6083 11.8708C10.8306 12.0069 10.0722 12.1916 9.33335 12.4249V15.7499C9.33335 15.9444 9.29446 16.1194 9.21668 16.2749C9.13891 16.4305 9.02224 16.5666 8.86668 16.6833L5.48335 19.2499C5.25002 19.4249 4.99238 19.5027 4.71043 19.4833C4.42849 19.4638 4.18057 19.3471 3.96668 19.1333ZM7.00002 13.3583C6.43613 13.6499 5.89168 13.9853 5.36668 14.3645C4.84168 14.7437 4.29724 15.1666 3.73335 15.6333L4.90002 16.7999L7.00002 15.1666V13.3583ZM21 13.4166V15.1666L23.1 16.7999L24.2667 15.6916C23.7028 15.186 23.1583 14.7485 22.6333 14.3791C22.1083 14.0096 21.5639 13.6888 21 13.4166Z" fill="#191919"/>
</svg>
