<svg width="28" height="28" viewBox="0 0 28 28" fill="none" xmlns="http://www.w3.org/2000/svg">
<path d="M23.275 24.5C20.8444 24.5 18.4431 23.9701 16.0708 22.9104C13.6986 21.8507 11.5403 20.3486 9.59583 18.4042C7.65139 16.4597 6.14931 14.3014 5.08958 11.9292C4.02986 9.55694 3.5 7.15556 3.5 4.725C3.5 4.375 3.61667 4.08333 3.85 3.85C4.08333 3.61667 4.375 3.5 4.725 3.5H9.45C9.72222 3.5 9.96528 3.59236 10.1792 3.77708C10.3931 3.96181 10.5194 4.18056 10.5583 4.43333L11.3167 8.51667C11.3556 8.82778 11.3458 9.09028 11.2875 9.30417C11.2292 9.51806 11.1222 9.70278 10.9667 9.85833L8.1375 12.7167C8.52639 13.4361 8.98819 14.1313 9.52292 14.8021C10.0576 15.4729 10.6458 16.1194 11.2875 16.7417C11.8903 17.3444 12.5222 17.9035 13.1833 18.4188C13.8444 18.934 14.5444 19.4056 15.2833 19.8333L18.025 17.0917C18.2 16.9167 18.4285 16.7854 18.7104 16.6979C18.9924 16.6104 19.2694 16.5861 19.5417 16.625L23.5667 17.4417C23.8389 17.5194 24.0625 17.6604 24.2375 17.8646C24.4125 18.0688 24.5 18.2972 24.5 18.55V23.275C24.5 23.625 24.3833 23.9167 24.15 24.15C23.9167 24.3833 23.625 24.5 23.275 24.5ZM7.02917 10.5L8.95417 8.575L8.45833 5.83333H5.8625C5.95972 6.63056 6.09583 7.41806 6.27083 8.19583C6.44583 8.97361 6.69861 9.74167 7.02917 10.5ZM17.4708 20.9417C18.2292 21.2722 19.0021 21.5347 19.7896 21.7292C20.5771 21.9236 21.3694 22.05 22.1667 22.1083V19.5417L19.425 18.9875L17.4708 20.9417Z" fill="#191919"/>
</svg>
