<svg width="16" height="16" viewBox="0 0 16 16" fill="none" xmlns="http://www.w3.org/2000/svg">
<path d="M2.26666 10.9333L0.733325 9.43325C0.599992 9.29992 0.533325 9.14436 0.533325 8.96659C0.533325 8.78881 0.599992 8.63325 0.733325 8.49992C1.7111 7.44436 2.83888 6.6527 4.11666 6.12492C5.39444 5.59714 6.68888 5.33325 7.99999 5.33325C9.3111 5.33325 10.6028 5.59714 11.875 6.12492C13.1472 6.6527 14.2778 7.44436 15.2667 8.49992C15.4 8.63325 15.4667 8.78881 15.4667 8.96659C15.4667 9.14436 15.4 9.29992 15.2667 9.43325L13.7333 10.9333C13.6111 11.0555 13.4694 11.1221 13.3083 11.1333C13.1472 11.1444 13 11.0999 12.8667 10.9999L10.9333 9.53325C10.8444 9.46659 10.7778 9.38881 10.7333 9.29992C10.6889 9.21103 10.6667 9.11103 10.6667 8.99992V7.09992C10.2444 6.96659 9.8111 6.86103 9.36666 6.78325C8.92221 6.70547 8.46666 6.66659 7.99999 6.66659C7.53333 6.66659 7.07777 6.70547 6.63333 6.78325C6.18888 6.86103 5.75555 6.96659 5.33333 7.09992V8.99992C5.33333 9.11103 5.3111 9.21103 5.26666 9.29992C5.22221 9.38881 5.15555 9.46659 5.06666 9.53325L3.13333 10.9999C2.99999 11.0999 2.85277 11.1444 2.69166 11.1333C2.53055 11.1221 2.38888 11.0555 2.26666 10.9333ZM3.99999 7.63325C3.67777 7.79992 3.36666 7.99159 3.06666 8.20825C2.76666 8.42492 2.45555 8.66659 2.13333 8.93325L2.79999 9.59992L3.99999 8.66659V7.63325ZM12 7.66659V8.66659L13.2 9.59992L13.8667 8.96659C13.5444 8.6777 13.2333 8.4277 12.9333 8.21659C12.6333 8.00547 12.3222 7.82214 12 7.66659Z" fill="#191919"/>
</svg>
