<svg width="16" height="16" viewBox="0 0 16 16" fill="none" xmlns="http://www.w3.org/2000/svg">
<path d="M7.99967 8.93398L9.93301 10.8673C10.0552 10.9895 10.2108 11.0507 10.3997 11.0507C10.5886 11.0507 10.7441 10.9895 10.8663 10.8673C10.9886 10.7451 11.0497 10.5895 11.0497 10.4007C11.0497 10.2118 10.9886 10.0562 10.8663 9.93398L8.93301 8.00065L10.8663 6.06732C10.9886 5.9451 11.0497 5.78954 11.0497 5.60065C11.0497 5.41176 10.9886 5.25621 10.8663 5.13398C10.7441 5.01176 10.5886 4.95065 10.3997 4.95065C10.2108 4.95065 10.0552 5.01176 9.93301 5.13398L7.99967 7.06732L6.06634 5.13398C5.94412 5.01176 5.78856 4.95065 5.59967 4.95065C5.41079 4.95065 5.25523 5.01176 5.13301 5.13398C5.01079 5.25621 4.94967 5.41176 4.94967 5.60065C4.94967 5.78954 5.01079 5.9451 5.13301 6.06732L7.06634 8.00065L5.13301 9.93398C5.01079 10.0562 4.94967 10.2118 4.94967 10.4007C4.94967 10.5895 5.01079 10.7451 5.13301 10.8673C5.25523 10.9895 5.41079 11.0507 5.59967 11.0507C5.78856 11.0507 5.94412 10.9895 6.06634 10.8673L7.99967 8.93398ZM7.99967 14.6673C7.07745 14.6673 6.21079 14.4923 5.39967 14.1423C4.58856 13.7923 3.88301 13.3173 3.28301 12.7173C2.68301 12.1173 2.20801 11.4118 1.85801 10.6007C1.50801 9.78954 1.33301 8.92287 1.33301 8.00065C1.33301 7.07843 1.50801 6.21176 1.85801 5.40065C2.20801 4.58954 2.68301 3.88398 3.28301 3.28398C3.88301 2.68398 4.58856 2.20898 5.39967 1.85898C6.21079 1.50898 7.07745 1.33398 7.99967 1.33398C8.9219 1.33398 9.78856 1.50898 10.5997 1.85898C11.4108 2.20898 12.1163 2.68398 12.7163 3.28398C13.3163 3.88398 13.7913 4.58954 14.1413 5.40065C14.4913 6.21176 14.6663 7.07843 14.6663 8.00065C14.6663 8.92287 14.4913 9.78954 14.1413 10.6007C13.7913 11.4118 13.3163 12.1173 12.7163 12.7173C12.1163 13.3173 11.4108 13.7923 10.5997 14.1423C9.78856 14.4923 8.9219 14.6673 7.99967 14.6673Z" fill="black"/>
</svg>
