<svg width="28" height="28" viewBox="0 0 28 28" fill="none" xmlns="http://www.w3.org/2000/svg">
<path d="M14 15.633L17.3833 19.0163C17.5972 19.2302 17.8694 19.3372 18.2 19.3372C18.5305 19.3372 18.8028 19.2302 19.0167 19.0163C19.2305 18.8025 19.3375 18.5302 19.3375 18.1997C19.3375 17.8691 19.2305 17.5969 19.0167 17.383L15.6333 13.9997L19.0167 10.6163C19.2305 10.4025 19.3375 10.1302 19.3375 9.79967C19.3375 9.46912 19.2305 9.1969 19.0167 8.98301C18.8028 8.76912 18.5305 8.66217 18.2 8.66217C17.8694 8.66217 17.5972 8.76912 17.3833 8.98301L14 12.3663L10.6167 8.98301C10.4028 8.76912 10.1305 8.66217 9.79999 8.66217C9.46944 8.66217 9.19722 8.76912 8.98333 8.98301C8.76944 9.1969 8.66249 9.46912 8.66249 9.79967C8.66249 10.1302 8.76944 10.4025 8.98333 10.6163L12.3667 13.9997L8.98333 17.383C8.76944 17.5969 8.66249 17.8691 8.66249 18.1997C8.66249 18.5302 8.76944 18.8025 8.98333 19.0163C9.19722 19.2302 9.46944 19.3372 9.79999 19.3372C10.1305 19.3372 10.4028 19.2302 10.6167 19.0163L14 15.633ZM14 25.6663C12.3861 25.6663 10.8694 25.3601 9.44999 24.7476C8.03055 24.1351 6.79583 23.3038 5.74583 22.2538C4.69583 21.2038 3.86458 19.9691 3.25208 18.5497C2.63958 17.1302 2.33333 15.6136 2.33333 13.9997C2.33333 12.3858 2.63958 10.8691 3.25208 9.44967C3.86458 8.03023 4.69583 6.79551 5.74583 5.74551C6.79583 4.69551 8.03055 3.86426 9.44999 3.25176C10.8694 2.63926 12.3861 2.33301 14 2.33301C15.6139 2.33301 17.1305 2.63926 18.55 3.25176C19.9694 3.86426 21.2042 4.69551 22.2542 5.74551C23.3042 6.79551 24.1354 8.03023 24.7479 9.44967C25.3604 10.8691 25.6667 12.3858 25.6667 13.9997C25.6667 15.6136 25.3604 17.1302 24.7479 18.5497C24.1354 19.9691 23.3042 21.2038 22.2542 22.2538C21.2042 23.3038 19.9694 24.1351 18.55 24.7476C17.1305 25.3601 15.6139 25.6663 14 25.6663ZM14 23.333C16.6055 23.333 18.8125 22.4288 20.6208 20.6205C22.4292 18.8122 23.3333 16.6052 23.3333 13.9997C23.3333 11.3941 22.4292 9.18717 20.6208 7.37884C18.8125 5.57051 16.6055 4.66634 14 4.66634C11.3944 4.66634 9.18749 5.57051 7.37916 7.37884C5.57083 9.18717 4.66666 11.3941 4.66666 13.9997C4.66666 16.6052 5.57083 18.8122 7.37916 20.6205C9.18749 22.4288 11.3944 23.333 14 23.333Z" fill="#191919"/>
</svg>
