<svg width="16" height="16" viewBox="0 0 16 16" fill="none" xmlns="http://www.w3.org/2000/svg">
<path d="M8 8.93301L9.93333 10.8663C10.0556 10.9886 10.2111 11.0497 10.4 11.0497C10.5889 11.0497 10.7444 10.9886 10.8667 10.8663C10.9889 10.7441 11.05 10.5886 11.05 10.3997C11.05 10.2108 10.9889 10.0552 10.8667 9.93301L8.93333 7.99967L10.8667 6.06634C10.9889 5.94412 11.05 5.78856 11.05 5.59967C11.05 5.41079 10.9889 5.25523 10.8667 5.13301C10.7444 5.01079 10.5889 4.94967 10.4 4.94967C10.2111 4.94967 10.0556 5.01079 9.93333 5.13301L8 7.06634L6.06667 5.13301C5.94444 5.01079 5.78889 4.94967 5.6 4.94967C5.41111 4.94967 5.25555 5.01079 5.13333 5.13301C5.01111 5.25523 4.95 5.41079 4.95 5.59967C4.95 5.78856 5.01111 5.94412 5.13333 6.06634L7.06667 7.99967L5.13333 9.93301C5.01111 10.0552 4.95 10.2108 4.95 10.3997C4.95 10.5886 5.01111 10.7441 5.13333 10.8663C5.25555 10.9886 5.41111 11.0497 5.6 11.0497C5.78889 11.0497 5.94444 10.9886 6.06667 10.8663L8 8.93301ZM8 14.6663C7.07778 14.6663 6.21111 14.4913 5.4 14.1413C4.58889 13.7913 3.88333 13.3163 3.28333 12.7163C2.68333 12.1163 2.20833 11.4108 1.85833 10.5997C1.50833 9.78856 1.33333 8.9219 1.33333 7.99967C1.33333 7.07745 1.50833 6.21079 1.85833 5.39967C2.20833 4.58856 2.68333 3.88301 3.28333 3.28301C3.88333 2.68301 4.58889 2.20801 5.4 1.85801C6.21111 1.50801 7.07778 1.33301 8 1.33301C8.92222 1.33301 9.78889 1.50801 10.6 1.85801C11.4111 2.20801 12.1167 2.68301 12.7167 3.28301C13.3167 3.88301 13.7917 4.58856 14.1417 5.39967C14.4917 6.21079 14.6667 7.07745 14.6667 7.99967C14.6667 8.9219 14.4917 9.78856 14.1417 10.5997C13.7917 11.4108 13.3167 12.1163 12.7167 12.7163C12.1167 13.3163 11.4111 13.7913 10.6 14.1413C9.78889 14.4913 8.92222 14.6663 8 14.6663ZM8 13.333C9.48889 13.333 10.75 12.8163 11.7833 11.783C12.8167 10.7497 13.3333 9.48856 13.3333 7.99967C13.3333 6.51079 12.8167 5.24967 11.7833 4.21634C10.75 3.18301 9.48889 2.66634 8 2.66634C6.51111 2.66634 5.25 3.18301 4.21667 4.21634C3.18333 5.24967 2.66667 6.51079 2.66667 7.99967C2.66667 9.48856 3.18333 10.7497 4.21667 11.783C5.25 12.8163 6.51111 13.333 8 13.333Z" fill="#191919"/>
</svg>
