<svg width="16" height="16" viewBox="0 0 16 16" fill="none" xmlns="http://www.w3.org/2000/svg">
  <path d="M8 1.33337C4.31334 1.33337 1.33334 4.31337 1.33334 8.00004C1.33334 11.6867 4.31334 14.6667 8 14.6667C11.6867 14.6667 14.6667 11.6867 14.6667 8.00004C14.6667 4.31337 11.6867 1.33337 8 1.33337ZM10.8667 10.8667C10.6067 11.1267 10.1867 11.1267 9.92667 10.8667L8 8.94004L6.07334 10.8667C5.81334 11.1267 5.39334 11.1267 5.13334 10.8667C4.87334 10.6067 4.87334 10.1867 5.13334 9.92671L7.06 8.00004L5.13334 6.07337C4.87334 5.81337 4.87334 5.39337 5.13334 5.13337C5.39334 4.87337 5.81334 4.87337 6.07334 5.13337L8 7.06004L9.92667 5.13337C10.1867 4.87337 10.6067 4.87337 10.8667 5.13337C11.1267 5.39337 11.1267 5.81337 10.8667 6.07337L8.94 8.00004L10.8667 9.92671C11.12 10.18 11.12 10.6067 10.8667 10.8667Z" fill="black"/>
</svg>
