<svg width="28" height="28" viewBox="0 0 28 28" fill="none" xmlns="http://www.w3.org/2000/svg">
  <path d="M14 2.33337C7.54834 2.33337 2.33334 7.54837 2.33334 14C2.33334 20.4517 7.54834 25.6667 14 25.6667C20.4517 25.6667 25.6667 20.4517 25.6667 14C25.6667 7.54837 20.4517 2.33337 14 2.33337ZM19.0167 19.0167C18.5617 19.4717 17.8267 19.4717 17.3717 19.0167L14 15.645L10.6283 19.0167C10.1733 19.4717 9.43834 19.4717 8.98334 19.0167C8.52834 18.5617 8.52834 17.8267 8.98334 17.3717L12.355 14L8.98334 10.6284C8.52834 10.1734 8.52834 9.43837 8.98334 8.98337C9.43834 8.52837 10.1733 8.52837 10.6283 8.98337L14 12.355L17.3717 8.98337C17.8267 8.52837 18.5617 8.52837 19.0167 8.98337C19.4717 9.43837 19.4717 10.1734 19.0167 10.6284L15.645 14L19.0167 17.3717C19.46 17.815 19.46 18.5617 19.0167 19.0167Z" fill="black"/>
</svg>
