<svg width="28" height="28" viewBox="0 0 28 28" fill="none" xmlns="http://www.w3.org/2000/svg">
<path d="M13.9997 15.634L17.383 19.0173C17.5969 19.2312 17.8691 19.3382 18.1997 19.3382C18.5302 19.3382 18.8025 19.2312 19.0163 19.0173C19.2302 18.8034 19.3372 18.5312 19.3372 18.2007C19.3372 17.8701 19.2302 17.5979 19.0163 17.384L15.633 14.0007L19.0163 10.6173C19.2302 10.4034 19.3372 10.1312 19.3372 9.80065C19.3372 9.4701 19.2302 9.19787 19.0163 8.98398C18.8025 8.7701 18.5302 8.66315 18.1997 8.66315C17.8691 8.66315 17.5969 8.7701 17.383 8.98398L13.9997 12.3673L10.6163 8.98398C10.4025 8.7701 10.1302 8.66315 9.79967 8.66315C9.46912 8.66315 9.1969 8.7701 8.98301 8.98398C8.76912 9.19787 8.66217 9.4701 8.66217 9.80065C8.66217 10.1312 8.76912 10.4034 8.98301 10.6173L12.3663 14.0007L8.98301 17.384C8.76912 17.5979 8.66217 17.8701 8.66217 18.2007C8.66217 18.5312 8.76912 18.8034 8.98301 19.0173C9.1969 19.2312 9.46912 19.3382 9.79967 19.3382C10.1302 19.3382 10.4025 19.2312 10.6163 19.0173L13.9997 15.634ZM13.9997 25.6673C12.3858 25.6673 10.8691 25.3611 9.44967 24.7486C8.03023 24.1361 6.79551 23.3048 5.74551 22.2548C4.69551 21.2048 3.86426 19.9701 3.25176 18.5507C2.63926 17.1312 2.33301 15.6145 2.33301 14.0007C2.33301 12.3868 2.63926 10.8701 3.25176 9.45065C3.86426 8.03121 4.69551 6.79648 5.74551 5.74648C6.79551 4.69648 8.03023 3.86523 9.44967 3.25273C10.8691 2.64023 12.3858 2.33398 13.9997 2.33398C15.6136 2.33398 17.1302 2.64023 18.5497 3.25273C19.9691 3.86523 21.2038 4.69648 22.2538 5.74648C23.3038 6.79648 24.1351 8.03121 24.7476 9.45065C25.3601 10.8701 25.6663 12.3868 25.6663 14.0007C25.6663 15.6145 25.3601 17.1312 24.7476 18.5507C24.1351 19.9701 23.3038 21.2048 22.2538 22.2548C21.2038 23.3048 19.9691 24.1361 18.5497 24.7486C17.1302 25.3611 15.6136 25.6673 13.9997 25.6673Z" fill="black"/>
</svg>
