<svg width="21" height="21" viewBox="0 0 21 21" fill="none" xmlns="http://www.w3.org/2000/svg">
<path d="M21.0001 10C21.0001 15.523 16.5231 20 11.0001 20C9.43326 20.0021 7.88806 19.6345 6.49007 18.927L1.94007 20.307C1.76678 20.3594 1.58252 20.3637 1.40696 20.3195C1.23139 20.2754 1.07111 20.1844 0.943205 20.0563C0.8153 19.9282 0.72457 19.7677 0.680694 19.5921C0.636818 19.4165 0.641443 19.2322 0.694074 19.059L2.07307 14.51C1.36558 13.112 0.997953 11.5668 1.00007 10C1.00007 4.477 5.47707 0 11.0001 0C16.5231 0 21.0001 4.477 21.0001 10ZM6.50007 11.5C6.8979 11.5 7.27943 11.342 7.56073 11.0607C7.84204 10.7794 8.00007 10.3978 8.00007 10C8.00007 9.60218 7.84204 9.22064 7.56073 8.93934C7.27943 8.65804 6.8979 8.5 6.50007 8.5C6.10225 8.5 5.72072 8.65804 5.43941 8.93934C5.15811 9.22064 5.00007 9.60218 5.00007 10C5.00007 10.3978 5.15811 10.7794 5.43941 11.0607C5.72072 11.342 6.10225 11.5 6.50007 11.5ZM12.5001 10C12.5001 10.3978 12.342 10.7794 12.0607 11.0607C11.7794 11.342 11.3979 11.5 11.0001 11.5C10.6022 11.5 10.2207 11.342 9.93941 11.0607C9.65811 10.7794 9.50007 10.3978 9.50007 10C9.50007 9.60218 9.65811 9.22064 9.93941 8.93934C10.2207 8.65804 10.6022 8.5 11.0001 8.5C11.3979 8.5 11.7794 8.65804 12.0607 8.93934C12.342 9.22064 12.5001 9.60218 12.5001 10ZM15.5001 11.5C15.8979 11.5 16.2794 11.342 16.5607 11.0607C16.842 10.7794 17.0001 10.3978 17.0001 10C17.0001 9.60218 16.842 9.22064 16.5607 8.93934C16.2794 8.65804 15.8979 8.5 15.5001 8.5C15.1022 8.5 14.7207 8.65804 14.4394 8.93934C14.1581 9.22064 14.0001 9.60218 14.0001 10C14.0001 10.3978 14.1581 10.7794 14.4394 11.0607C14.7207 11.342 15.1022 11.5 15.5001 11.5Z" fill="black"/>
</svg>
