<svg width="24" height="24" viewBox="0 0 24 24" fill="none" xmlns="http://www.w3.org/2000/svg">
<path d="M12 4.5C13.9891 4.5 15.8968 5.29018 17.3033 6.6967C18.7098 8.10322 19.5 10.0109 19.5 12C19.5 13.9891 18.7098 15.8968 17.3033 17.3033C15.8968 18.7098 13.9891 19.5 12 19.5H5.25C5.05109 19.5 4.86032 19.421 4.71967 19.2803C4.57902 19.1397 4.5 18.9489 4.5 18.75V12C4.5 10.0109 5.29018 8.10322 6.6967 6.6967C8.10322 5.29018 10.0109 4.5 12 4.5ZM12 3C9.61305 3 7.32387 3.94821 5.63604 5.63604C3.94821 7.32387 3 9.61305 3 12V18.75C3 19.3467 3.23705 19.919 3.65901 20.341C4.08097 20.7629 4.65326 21 5.25 21H12C14.3869 21 16.6761 20.0518 18.364 18.364C20.0518 16.6761 21 14.3869 21 12C21 9.61305 20.0518 7.32387 18.364 5.63604C16.6761 3.94821 14.3869 3 12 3Z" fill="black"/>
<path d="M9.0075 10.2525H9C8.03488 10.2525 7.2525 11.0349 7.2525 12V12.0075C7.2525 12.9726 8.03488 13.755 9 13.755H9.0075C9.97262 13.755 10.755 12.9726 10.755 12.0075V12C10.755 11.0349 9.97262 10.2525 9.0075 10.2525Z" fill="black"/>
<path d="M14.7525 10.2525H14.745C13.7799 10.2525 12.9975 11.0349 12.9975 12V12.0075C12.9975 12.9726 13.7799 13.755 14.745 13.755H14.7525C15.7176 13.755 16.5 12.9726 16.5 12.0075V12C16.5 11.0349 15.7176 10.2525 14.7525 10.2525Z" fill="black"/>
</svg>
