<svg width="28" height="28" viewBox="0 0 28 28" fill="none" xmlns="http://www.w3.org/2000/svg">
<path d="M14 3.5C11.2152 3.5 8.54451 4.60625 6.57538 6.57538C4.60625 8.54451 3.5 11.2152 3.5 14V21.875C3.5 22.5712 3.77656 23.2389 4.26884 23.7312C4.76113 24.2234 5.42881 24.5 6.125 24.5H14C16.7848 24.5 19.4555 23.3938 21.4246 21.4246C23.3938 19.4555 24.5 16.7848 24.5 14C24.5 11.2152 23.3938 8.54451 21.4246 6.57538C19.4555 4.60625 16.7848 3.5 14 3.5V3.5ZM9.91375 16.3363C9.45168 16.3363 8.99999 16.1992 8.6158 15.9425C8.2316 15.6858 7.93216 15.3209 7.75534 14.894C7.57851 14.4672 7.53225 13.9974 7.62239 13.5442C7.71254 13.091 7.93504 12.6748 8.26177 12.348C8.5885 12.0213 9.00478 11.7988 9.45797 11.7086C9.91116 11.6185 10.3809 11.6648 10.8078 11.8416C11.2347 12.0184 11.5996 12.3179 11.8563 12.702C12.113 13.0862 12.25 13.5379 12.25 14C12.25 14.6196 12.0039 15.2138 11.5657 15.652C11.1276 16.0901 10.5334 16.3363 9.91375 16.3363V16.3363ZM17.7887 16.3363C17.3267 16.3363 16.875 16.1992 16.4908 15.9425C16.1066 15.6858 15.8072 15.3209 15.6303 14.894C15.4535 14.4672 15.4072 13.9974 15.4974 13.5442C15.5875 13.091 15.81 12.6748 16.1368 12.348C16.4635 12.0213 16.8798 11.7988 17.333 11.7086C17.7862 11.6185 18.2559 11.6648 18.6828 11.8416C19.1097 12.0184 19.4746 12.3179 19.7313 12.702C19.988 13.0862 20.125 13.5379 20.125 14C20.125 14.3068 20.0646 14.6106 19.9472 14.894C19.8298 15.1775 19.6577 15.435 19.4407 15.652C19.2238 15.8689 18.9662 16.041 18.6828 16.1584C18.3993 16.2758 18.0956 16.3363 17.7887 16.3363V16.3363Z" fill="black"/>
</svg>
