<svg width="28" height="28" viewBox="0 0 28 28" fill="none" xmlns="http://www.w3.org/2000/svg">
<path d="M6.08915 19.0432L5.66643 18.2081C5.02768 16.9463 4.66671 15.5187 4.66671 13.9999C4.66671 8.84526 8.84538 4.66659 14 4.66659C19.1547 4.66659 23.3334 8.84526 23.3334 13.9999C23.3334 19.1546 19.1547 23.3333 14 23.3333C12.4813 23.3333 11.0536 22.9723 9.79182 22.3335L8.95678 21.9108L4.84175 23.1582L6.08915 19.0432ZM3.58464 19.262L1.97587 24.5691C1.70546 25.4612 2.53875 26.2945 3.43082 26.0241L8.73798 24.4153C10.319 25.2156 12.1068 25.6666 14 25.6666C20.4434 25.6666 25.6667 20.4432 25.6667 13.9999C25.6667 7.5566 20.4434 2.33325 14 2.33325C7.55672 2.33325 2.33337 7.5566 2.33337 13.9999C2.33337 15.8931 2.78431 17.681 3.58464 19.262Z" fill="black"/>
<path d="M10.5 13.9999C10.5 14.9664 9.71654 15.7499 8.75004 15.7499C7.78354 15.7499 7.00004 14.9664 7.00004 13.9999C7.00004 13.0334 7.78354 12.2499 8.75004 12.2499C9.71654 12.2499 10.5 13.0334 10.5 13.9999Z" fill="black"/>
<path d="M15.75 13.9999C15.75 14.9664 14.9665 15.7499 14 15.7499C13.0335 15.7499 12.25 14.9664 12.25 13.9999C12.25 13.0334 13.0335 12.2499 14 12.2499C14.9665 12.2499 15.75 13.0334 15.75 13.9999Z" fill="black"/>
<path d="M21 13.9999C21 14.9664 20.2165 15.7499 19.25 15.7499C18.2835 15.7499 17.5 14.9664 17.5 13.9999C17.5 13.0334 18.2835 12.2499 19.25 12.2499C20.2165 12.2499 21 13.0334 21 13.9999Z" fill="black"/>
</svg>
