<svg width="16" height="16" viewBox="0 0 16 16" fill="none" xmlns="http://www.w3.org/2000/svg">
<path d="M3.47953 10.8818L3.23798 10.4046C2.87298 9.68358 2.66671 8.86777 2.66671 7.99992C2.66671 5.0544 5.05452 2.66659 8.00004 2.66659C10.9456 2.66659 13.3334 5.0544 13.3334 7.99992C13.3334 10.9454 10.9456 13.3333 8.00004 13.3333C7.13219 13.3333 6.31638 13.127 5.59535 12.762L5.11818 12.5204L2.76673 13.2332L3.47953 10.8818ZM2.04838 11.0068L1.12909 14.0395C0.974565 14.5492 1.45073 15.0254 1.96048 14.8709L4.99315 13.9516C5.89658 14.4089 6.91822 14.6666 8.00004 14.6666C11.6819 14.6666 14.6667 11.6818 14.6667 7.99992C14.6667 4.31802 11.6819 1.33325 8.00004 1.33325C4.31814 1.33325 1.33337 4.31802 1.33337 7.99992C1.33337 9.08174 1.59105 10.1034 2.04838 11.0068Z" fill="black"/>
<path d="M6.00004 7.99992C6.00004 8.55221 5.55233 8.99992 5.00004 8.99992C4.44776 8.99992 4.00004 8.55221 4.00004 7.99992C4.00004 7.44764 4.44776 6.99992 5.00004 6.99992C5.55233 6.99992 6.00004 7.44764 6.00004 7.99992Z" fill="black"/>
<path d="M9.00004 7.99992C9.00004 8.55221 8.55233 8.99992 8.00004 8.99992C7.44776 8.99992 7.00004 8.55221 7.00004 7.99992C7.00004 7.44764 7.44776 6.99992 8.00004 6.99992C8.55233 6.99992 9.00004 7.44764 9.00004 7.99992Z" fill="black"/>
<path d="M12 7.99992C12 8.55221 11.5523 8.99992 11 8.99992C10.4478 8.99992 10 8.55221 10 7.99992C10 7.44764 10.4478 6.99992 11 6.99992C11.5523 6.99992 12 7.44764 12 7.99992Z" fill="black"/>
</svg>
