<svg width="16" height="16" viewBox="0 0 16 16" fill="none" xmlns="http://www.w3.org/2000/svg">
<path d="M8 3C9.32608 3 10.5979 3.52678 11.5355 4.46447C12.4732 5.40215 13 6.67392 13 8C13 9.32608 12.4732 10.5979 11.5355 11.5355C10.5979 12.4732 9.32608 13 8 13H3.5C3.36739 13 3.24021 12.9473 3.14645 12.8536C3.05268 12.7598 3 12.6326 3 12.5V8C3 6.67392 3.52678 5.40215 4.46447 4.46447C5.40215 3.52678 6.67392 3 8 3ZM8 2C6.4087 2 4.88258 2.63214 3.75736 3.75736C2.63214 4.88258 2 6.4087 2 8V12.5C2 12.8978 2.15804 13.2794 2.43934 13.5607C2.72064 13.842 3.10218 14 3.5 14H8C9.5913 14 11.1174 13.3679 12.2426 12.2426C13.3679 11.1174 14 9.5913 14 8C14 6.4087 13.3679 4.88258 12.2426 3.75736C11.1174 2.63214 9.5913 2 8 2Z" fill="black"/>
<path d="M6.005 6.835H6C5.35659 6.835 4.835 7.35659 4.835 8V8.005C4.835 8.64841 5.35659 9.17 6 9.17H6.005C6.64841 9.17 7.17 8.64841 7.17 8.005V8C7.17 7.35659 6.64841 6.835 6.005 6.835Z" fill="black"/>
<path d="M9.835 6.835H9.83C9.18659 6.835 8.665 7.35659 8.665 8V8.005C8.665 8.64841 9.18659 9.17 9.83 9.17H9.835C10.4784 9.17 11 8.64841 11 8.005V8C11 7.35659 10.4784 6.835 9.835 6.835Z" fill="black"/>
</svg>
