<svg width="28" height="28" viewBox="0 0 28 28" fill="none" xmlns="http://www.w3.org/2000/svg">
<path d="M14 5.25C16.3206 5.25 18.5462 6.17187 20.1872 7.81282C21.8281 9.45376 22.75 11.6794 22.75 14C22.75 16.3206 21.8281 18.5462 20.1872 20.1872C18.5462 21.8281 16.3206 22.75 14 22.75H6.125C5.89294 22.75 5.67038 22.6578 5.50628 22.4937C5.34219 22.3296 5.25 22.1071 5.25 21.875V14C5.25 11.6794 6.17187 9.45376 7.81282 7.81282C9.45376 6.17187 11.6794 5.25 14 5.25ZM14 3.5C11.2152 3.5 8.54451 4.60625 6.57538 6.57538C4.60625 8.54451 3.5 11.2152 3.5 14V21.875C3.5 22.5712 3.77656 23.2389 4.26884 23.7312C4.76113 24.2234 5.42881 24.5 6.125 24.5H14C16.7848 24.5 19.4555 23.3938 21.4246 21.4246C23.3938 19.4555 24.5 16.7848 24.5 14C24.5 11.2152 23.3938 8.54451 21.4246 6.57538C19.4555 4.60625 16.7848 3.5 14 3.5Z" fill="black"/>
<path d="M10.5088 11.9613H10.5C9.37403 11.9613 8.46125 12.874 8.46125 14V14.0088C8.46125 15.1347 9.37403 16.0475 10.5 16.0475H10.5088C11.6347 16.0475 12.5475 15.1347 12.5475 14.0088V14C12.5475 12.874 11.6347 11.9613 10.5088 11.9613Z" fill="black"/>
<path d="M17.2113 11.9613H17.2025C16.0765 11.9613 15.1637 12.874 15.1637 14V14.0088C15.1637 15.1347 16.0765 16.0475 17.2025 16.0475H17.2113C18.3372 16.0475 19.25 15.1347 19.25 14.0088V14C19.25 12.874 18.3372 11.9613 17.2113 11.9613Z" fill="black"/>
</svg>
