<svg width="16" height="16" viewBox="0 0 16 16" fill="none" xmlns="http://www.w3.org/2000/svg">
<path fill-rule="evenodd" clip-rule="evenodd" d="M14.6667 7.99992C14.6667 11.6818 11.6819 14.6666 8.00004 14.6666C6.91822 14.6666 5.89658 14.4089 4.99315 13.9516L1.96048 14.8709C1.45073 15.0254 0.974565 14.5492 1.12909 14.0395L2.04838 11.0068C1.59105 10.1034 1.33337 9.08174 1.33337 7.99992C1.33337 4.31802 4.31814 1.33325 8.00004 1.33325C11.6819 1.33325 14.6667 4.31802 14.6667 7.99992ZM5.00004 8.99992C5.55233 8.99992 6.00004 8.55221 6.00004 7.99992C6.00004 7.44764 5.55233 6.99992 5.00004 6.99992C4.44776 6.99992 4.00004 7.44764 4.00004 7.99992C4.00004 8.55221 4.44776 8.99992 5.00004 8.99992ZM9.00004 7.99992C9.00004 8.55221 8.55233 8.99992 8.00004 8.99992C7.44776 8.99992 7.00004 8.55221 7.00004 7.99992C7.00004 7.44764 7.44776 6.99992 8.00004 6.99992C8.55233 6.99992 9.00004 7.44764 9.00004 7.99992ZM11 8.99992C11.5523 8.99992 12 8.55221 12 7.99992C12 7.44764 11.5523 6.99992 11 6.99992C10.4478 6.99992 10 7.44764 10 7.99992C10 8.55221 10.4478 8.99992 11 8.99992Z" fill="black"/>
</svg>
