<svg width="16" height="16" viewBox="0 0 16 16" fill="none" xmlns="http://www.w3.org/2000/svg">
<path d="M8 2C6.4087 2 4.88258 2.63214 3.75736 3.75736C2.63214 4.88258 2 6.4087 2 8V12.5C2 12.8978 2.15804 13.2794 2.43934 13.5607C2.72064 13.842 3.10218 14 3.5 14H8C9.5913 14 11.1174 13.3679 12.2426 12.2426C13.3679 11.1174 14 9.5913 14 8C14 6.4087 13.3679 4.88258 12.2426 3.75736C11.1174 2.63214 9.5913 2 8 2V2ZM5.665 9.335C5.40096 9.335 5.14285 9.2567 4.92331 9.11001C4.70377 8.96332 4.53266 8.75482 4.43162 8.51088C4.33058 8.26694 4.30414 7.99852 4.35565 7.73955C4.40716 7.48059 4.53431 7.24272 4.72101 7.05601C4.90772 6.86931 5.14559 6.74216 5.40455 6.69065C5.66352 6.63914 5.93194 6.66558 6.17588 6.76662C6.41982 6.86766 6.62832 7.03877 6.77501 7.25831C6.9217 7.47785 7 7.73596 7 8C7 8.35406 6.85935 8.69363 6.60899 8.94399C6.35863 9.19435 6.01906 9.335 5.665 9.335V9.335ZM10.165 9.335C9.90096 9.335 9.64285 9.2567 9.42331 9.11001C9.20377 8.96332 9.03266 8.75482 8.93162 8.51088C8.83058 8.26694 8.80414 7.99852 8.85565 7.73955C8.90716 7.48059 9.03431 7.24272 9.22101 7.05601C9.40772 6.86931 9.64559 6.74216 9.90455 6.69065C10.1635 6.63914 10.4319 6.66558 10.6759 6.76662C10.9198 6.86766 11.1283 7.03877 11.275 7.25831C11.4217 7.47785 11.5 7.73596 11.5 8C11.5 8.17531 11.4655 8.34891 11.3984 8.51088C11.3313 8.67285 11.233 8.82002 11.109 8.94399C10.985 9.06795 10.8379 9.16629 10.6759 9.23338C10.5139 9.30047 10.3403 9.335 10.165 9.335V9.335Z" fill="black"/>
</svg>
