<svg width="28" height="28" viewBox="0 0 28 28" fill="none" xmlns="http://www.w3.org/2000/svg">
<path fill-rule="evenodd" clip-rule="evenodd" d="M25.6667 13.9999C25.6667 20.4432 20.4434 25.6666 14 25.6666C12.1068 25.6666 10.319 25.2156 8.73798 24.4153L3.43082 26.0241C2.53875 26.2945 1.70546 25.4612 1.97587 24.5691L3.58464 19.262C2.78431 17.681 2.33337 15.8931 2.33337 13.9999C2.33337 7.5566 7.55672 2.33325 14 2.33325C20.4434 2.33325 25.6667 7.5566 25.6667 13.9999ZM8.75004 15.7499C9.71654 15.7499 10.5 14.9664 10.5 13.9999C10.5 13.0334 9.71654 12.2499 8.75004 12.2499C7.78354 12.2499 7.00004 13.0334 7.00004 13.9999C7.00004 14.9664 7.78354 15.7499 8.75004 15.7499ZM15.75 13.9999C15.75 14.9664 14.9665 15.7499 14 15.7499C13.0335 15.7499 12.25 14.9664 12.25 13.9999C12.25 13.0334 13.0335 12.2499 14 12.2499C14.9665 12.2499 15.75 13.0334 15.75 13.9999ZM19.25 15.7499C20.2165 15.7499 21 14.9664 21 13.9999C21 13.0334 20.2165 12.2499 19.25 12.2499C18.2835 12.2499 17.5 13.0334 17.5 13.9999C17.5 14.9664 18.2835 15.7499 19.25 15.7499Z" fill="black"/>
</svg>
