<svg width="24" height="24" viewBox="0 0 24 24" fill="none" xmlns="http://www.w3.org/2000/svg">
<path fill-rule="evenodd" clip-rule="evenodd" d="M5.21923 16.3228L4.15004 19.85L7.67721 18.7808L8.39296 19.1431C9.47451 19.6906 10.6982 20 12 20C16.4183 20 20 16.4183 20 12C20 7.58172 16.4183 4 12 4C7.58172 4 4 7.58172 4 12C4 13.3018 4.30941 14.5255 4.85691 15.607L5.21923 16.3228ZM3.07251 16.5103L1.69357 21.0593C1.46179 21.824 2.17603 22.5382 2.94066 22.3064L7.48966 20.9275C8.8448 21.6135 10.3773 22 12 22C17.5228 22 22 17.5228 22 12C22 6.47715 17.5228 2 12 2C6.47715 2 2 6.47715 2 12C2 13.6227 2.38652 15.1552 3.07251 16.5103Z" fill="black"/>
<path d="M9 12C9 12.8284 8.32843 13.5 7.5 13.5C6.67157 13.5 6 12.8284 6 12C6 11.1716 6.67157 10.5 7.5 10.5C8.32843 10.5 9 11.1716 9 12Z" fill="black"/>
<path d="M13.5 12C13.5 12.8284 12.8284 13.5 12 13.5C11.1716 13.5 10.5 12.8284 10.5 12C10.5 11.1716 11.1716 10.5 12 10.5C12.8284 10.5 13.5 11.1716 13.5 12Z" fill="black"/>
<path d="M18 12C18 12.8284 17.3284 13.5 16.5 13.5C15.6716 13.5 15 12.8284 15 12C15 11.1716 15.6716 10.5 16.5 10.5C17.3284 10.5 18 11.1716 18 12Z" fill="black"/>
</svg>
