<svg width="16" height="16" viewBox="0 0 16 16" fill="none" xmlns="http://www.w3.org/2000/svg">
<path d="M6.36666 11.8166C6.26666 11.8166 6.17222 11.8 6.08333 11.7666C5.99444 11.7333 5.91111 11.6777 5.83333 11.6L2.96666 8.73329C2.82222 8.58885 2.75289 8.40818 2.75866 8.19129C2.764 7.97485 2.83889 7.7944 2.98333 7.64996C3.12778 7.50551 3.30844 7.43329 3.52533 7.43329C3.74178 7.43329 3.91666 7.50551 4.05 7.64996L6.36666 9.96663L11.95 4.38329C12.0833 4.23885 12.2611 4.16663 12.4833 4.16663C12.7056 4.16663 12.8889 4.23885 13.0333 4.38329C13.1667 4.52774 13.2333 4.70818 13.2333 4.92463C13.2333 5.14151 13.1667 5.32218 13.0333 5.46663L6.9 11.6C6.82222 11.6777 6.73889 11.7333 6.65 11.7666C6.56111 11.8 6.46667 11.8166 6.36666 11.8166V11.8166Z" fill="black"/>
</svg>
