<svg width="16" height="16" viewBox="0 0 16 16" fill="none" xmlns="http://www.w3.org/2000/svg">
<path fill-rule="evenodd" clip-rule="evenodd" d="M12 2C13.1046 2 14 2.89543 14 4V12C14 13.1046 13.1046 14 12 14H4C2.89543 14 2 13.1046 2 12V4C2 2.89543 2.89543 2 4 2H12ZM10.8333 5.44987C10.6444 5.44987 10.4888 5.51124 10.3665 5.63346L7.06641 8.93359L5.63346 7.5C5.51126 7.37779 5.35553 7.31642 5.16667 7.31641C4.97778 7.31641 4.82209 7.37778 4.69987 7.5C4.57767 7.62222 4.51693 7.77793 4.51693 7.9668C4.51696 8.15562 4.57768 8.3114 4.69987 8.43359L6.60026 10.3333C6.73351 10.4665 6.88878 10.5332 7.06641 10.5332C7.24417 10.5332 7.39988 10.4666 7.5332 10.3333L11.3001 6.56641C11.4221 6.44428 11.483 6.28891 11.4831 6.10026C11.4831 5.91146 11.4222 5.75566 11.3001 5.63346C11.1779 5.51126 11.0222 5.44988 10.8333 5.44987Z" fill="black"/>
</svg>
