<svg width="16" height="16" viewBox="0 0 16 16" fill="none" xmlns="http://www.w3.org/2000/svg">
<path d="M8.00001 1.33337C4.32001 1.33337 1.33334 4.32004 1.33334 8.00004C1.33334 11.68 4.32001 14.6667 8.00001 14.6667C11.68 14.6667 14.6667 11.68 14.6667 8.00004C14.6667 4.32004 11.68 1.33337 8.00001 1.33337ZM6.19334 10.86L3.80001 8.46671C3.54001 8.20671 3.54001 7.78671 3.80001 7.52671C4.06001 7.26671 4.48001 7.26671 4.74001 7.52671L6.66668 9.44671L11.2533 4.86004C11.5133 4.60004 11.9333 4.60004 12.1933 4.86004C12.4533 5.12004 12.4533 5.54004 12.1933 5.80004L7.13334 10.86C6.88001 11.12 6.45334 11.12 6.19334 10.86Z" fill="black"/>
</svg>
