<svg width="16" height="16" viewBox="0 0 16 16" fill="none" xmlns="http://www.w3.org/2000/svg">
<path d="M7.06665 9.20004L5.61665 7.75004C5.49442 7.62782 5.34176 7.5696 5.15865 7.57537C4.97509 7.58071 4.8222 7.64448 4.69998 7.76671C4.57776 7.88893 4.51665 8.04448 4.51665 8.23337C4.51665 8.42226 4.57776 8.57782 4.69998 8.70004L6.59998 10.6C6.7222 10.7223 6.87776 10.7834 7.06665 10.7834C7.25554 10.7834 7.41109 10.7223 7.53331 10.6L11.3166 6.81671C11.4389 6.69449 11.4973 6.5416 11.492 6.35804C11.4862 6.17493 11.4222 6.02226 11.3 5.90004C11.1778 5.77782 11.0222 5.71671 10.8333 5.71671C10.6444 5.71671 10.4889 5.77782 10.3666 5.90004L7.06665 9.20004ZM7.99998 14.6667C7.07776 14.6667 6.21109 14.4916 5.39998 14.1414C4.58887 13.7916 3.88331 13.3167 3.28331 12.7167C2.68331 12.1167 2.20842 11.4112 1.85865 10.6C1.50842 9.78893 1.33331 8.92226 1.33331 8.00004C1.33331 7.07782 1.50842 6.21115 1.85865 5.40004C2.20842 4.58893 2.68331 3.88337 3.28331 3.28337C3.88331 2.68337 4.58887 2.20826 5.39998 1.85804C6.21109 1.50826 7.07776 1.33337 7.99998 1.33337C8.9222 1.33337 9.78887 1.50826 10.6 1.85804C11.4111 2.20826 12.1166 2.68337 12.7166 3.28337C13.3166 3.88337 13.7915 4.58893 14.1413 5.40004C14.4915 6.21115 14.6666 7.07782 14.6666 8.00004C14.6666 8.92226 14.4915 9.78893 14.1413 10.6C13.7915 11.4112 13.3166 12.1167 12.7166 12.7167C12.1166 13.3167 11.4111 13.7916 10.6 14.1414C9.78887 14.4916 8.9222 14.6667 7.99998 14.6667ZM7.99998 13.3334C9.47776 13.3334 10.7362 12.814 11.7753 11.7754C12.814 10.7363 13.3333 9.47782 13.3333 8.00004C13.3333 6.52226 12.814 5.26382 11.7753 4.22471C10.7362 3.18604 9.47776 2.66671 7.99998 2.66671C6.5222 2.66671 5.26398 3.18604 4.22531 4.22471C3.1862 5.26382 2.66665 6.52226 2.66665 8.00004C2.66665 9.47782 3.1862 10.7363 4.22531 11.7754C5.26398 12.814 6.5222 13.3334 7.99998 13.3334Z" fill="black"/>
</svg>
