<svg width="28" height="28" viewBox="0 0 28 28" fill="none" xmlns="http://www.w3.org/2000/svg">
<path d="M11.1417 20.6791C10.9667 20.6791 10.8014 20.65 10.6458 20.5916C10.4903 20.5333 10.3444 20.4361 10.2083 20.3L5.19167 15.2833C4.93889 15.0305 4.81756 14.7143 4.82767 14.3348C4.837 13.956 4.96806 13.6402 5.22084 13.3875C5.47362 13.1347 5.78978 13.0083 6.16934 13.0083C6.54812 13.0083 6.85417 13.1347 7.0875 13.3875L11.1417 17.4416L20.9125 7.67079C21.1458 7.41801 21.457 7.29163 21.8458 7.29163C22.2347 7.29163 22.5556 7.41801 22.8083 7.67079C23.0417 7.92357 23.1583 8.23935 23.1583 8.61813C23.1583 8.99768 23.0417 9.31385 22.8083 9.56663L12.075 20.3C11.9389 20.4361 11.7931 20.5333 11.6375 20.5916C11.4819 20.65 11.3167 20.6791 11.1417 20.6791V20.6791Z" fill="black"/>
</svg>
