<svg width="28" height="28" viewBox="0 0 28 28" fill="none" xmlns="http://www.w3.org/2000/svg">
<path fill-rule="evenodd" clip-rule="evenodd" d="M21 2.33337C23.5774 2.33337 25.6667 4.42271 25.6667 7.00004V21C25.6667 23.5774 23.5774 25.6667 21 25.6667H7.00004C4.42271 25.6667 2.33337 23.5774 2.33337 21V7.00004C2.33337 4.42271 4.42271 2.33337 7.00004 2.33337H21ZM18.9584 10.0044C18.6279 10.0044 18.3554 10.1108 18.1415 10.3246L12.3663 16.0998L9.82898 13.5625C9.61517 13.3488 9.3483 13.2472 9.02804 13.2572C8.70681 13.2665 8.4387 13.3783 8.22481 13.5922C8.01127 13.8059 7.90475 14.0777 7.90466 14.4079C7.90466 14.7384 8.01107 15.011 8.22481 15.2248L11.5505 18.5505C11.7642 18.764 12.0362 18.8705 12.3663 18.8706C12.6966 18.8706 12.9693 18.7641 13.1831 18.5505L19.8038 11.9288C20.0176 11.7149 20.1207 11.4478 20.1114 11.1267C20.1013 10.8062 19.9892 10.5385 19.7753 10.3246C19.5614 10.1108 19.2889 10.0044 18.9584 10.0044Z" fill="black"/>
</svg>
