<svg width="28" height="28" viewBox="0 0 28 28" fill="none" xmlns="http://www.w3.org/2000/svg">
<path d="M12.3666 16.1L9.82915 13.5625C9.61526 13.3487 9.34809 13.2468 9.02765 13.2569C8.70642 13.2662 8.43887 13.3778 8.22498 13.5917C8.01109 13.8056 7.90415 14.0778 7.90415 14.4084C7.90415 14.7389 8.01109 15.0112 8.22498 15.225L11.55 18.55C11.7639 18.7639 12.0361 18.8709 12.3666 18.8709C12.6972 18.8709 12.9694 18.7639 13.1833 18.55L19.8041 11.9292C20.018 11.7153 20.1203 11.4478 20.111 11.1265C20.1009 10.8061 19.9889 10.5389 19.775 10.325C19.5611 10.1112 19.2889 10.0042 18.9583 10.0042C18.6278 10.0042 18.3555 10.1112 18.1416 10.325L12.3666 16.1ZM14 25.6667C12.3861 25.6667 10.8694 25.3603 9.44998 24.7474C8.03054 24.1353 6.79581 23.3042 5.74581 22.2542C4.69581 21.2042 3.86476 19.9695 3.25265 18.55C2.63976 17.1306 2.33331 15.6139 2.33331 14C2.33331 12.3862 2.63976 10.8695 3.25265 9.45004C3.86476 8.0306 4.69581 6.79587 5.74581 5.74587C6.79581 4.69587 8.03054 3.86443 9.44998 3.25154C10.8694 2.63943 12.3861 2.33337 14 2.33337C15.6139 2.33337 17.1305 2.63943 18.55 3.25154C19.9694 3.86443 21.2041 4.69587 22.2541 5.74587C23.3041 6.79587 24.1352 8.0306 24.7473 9.45004C25.3602 10.8695 25.6666 12.3862 25.6666 14C25.6666 15.6139 25.3602 17.1306 24.7473 18.55C24.1352 19.9695 23.3041 21.2042 22.2541 22.2542C21.2041 23.3042 19.9694 24.1353 18.55 24.7474C17.1305 25.3603 15.6139 25.6667 14 25.6667ZM14 23.3334C16.5861 23.3334 18.7884 22.4245 20.6068 20.6069C22.4245 18.7884 23.3333 16.5862 23.3333 14C23.3333 11.4139 22.4245 9.21165 20.6068 7.39321C18.7884 5.57554 16.5861 4.66671 14 4.66671C11.4139 4.66671 9.21198 5.57554 7.39431 7.39321C5.57587 9.21165 4.66665 11.4139 4.66665 14C4.66665 16.5862 5.57587 18.7884 7.39431 20.6069C9.21198 22.4245 11.4139 23.3334 14 23.3334Z" fill="black"/>
</svg>
