<svg width="28" height="28" viewBox="0 0 28 28" fill="none" xmlns="http://www.w3.org/2000/svg">
<path d="M12.3663 16.1007L9.85801 13.5923C9.64412 13.3784 9.3719 13.2715 9.04134 13.2715C8.71079 13.2715 8.43856 13.3784 8.22467 13.5923C8.01079 13.8062 7.90384 14.0784 7.90384 14.409C7.90384 14.7395 8.01079 15.0118 8.22467 15.2257L11.5497 18.5507C11.783 18.784 12.0552 18.9007 12.3663 18.9007C12.6775 18.9007 12.9497 18.784 13.183 18.5507L19.7747 11.959C19.9886 11.7451 20.0955 11.4729 20.0955 11.1423C20.0955 10.8118 19.9886 10.5395 19.7747 10.3257C19.5608 10.1118 19.2886 10.0048 18.958 10.0048C18.6275 10.0048 18.3552 10.1118 18.1413 10.3257L12.3663 16.1007ZM13.9997 25.6673C12.3858 25.6673 10.8691 25.3611 9.44967 24.7486C8.03023 24.1361 6.79551 23.3048 5.74551 22.2548C4.69551 21.2048 3.86426 19.9701 3.25176 18.5507C2.63926 17.1312 2.33301 15.6145 2.33301 14.0007C2.33301 12.3868 2.63926 10.8701 3.25176 9.45065C3.86426 8.03121 4.69551 6.79648 5.74551 5.74648C6.79551 4.69648 8.03023 3.86523 9.44967 3.25273C10.8691 2.64023 12.3858 2.33398 13.9997 2.33398C15.6136 2.33398 17.1302 2.64023 18.5497 3.25273C19.9691 3.86523 21.2038 4.69648 22.2538 5.74648C23.3038 6.79648 24.1351 8.03121 24.7476 9.45065C25.3601 10.8701 25.6663 12.3868 25.6663 14.0007C25.6663 15.6145 25.3601 17.1312 24.7476 18.5507C24.1351 19.9701 23.3038 21.2048 22.2538 22.2548C21.2038 23.3048 19.9691 24.1361 18.5497 24.7486C17.1302 25.3611 15.6136 25.6673 13.9997 25.6673Z" fill="black"/>
</svg>
