<svg width="28" height="28" viewBox="0 0 28 28" fill="none" xmlns="http://www.w3.org/2000/svg">
<path fill-rule="evenodd" clip-rule="evenodd" d="M21 3.5C22.933 3.5 24.5 5.067 24.5 7V21C24.5 22.933 22.933 24.5 21 24.5H7C5.067 24.5 3.5 22.933 3.5 21V7C3.5 5.067 5.067 3.5 7 3.5H21ZM18.9583 9.53727C18.6278 9.53727 18.3553 9.64467 18.1414 9.85856L12.3662 15.6338L9.85856 13.125C9.6447 12.9111 9.37217 12.8037 9.04167 12.8037C8.71111 12.8037 8.43866 12.9111 8.22477 13.125C8.01093 13.3389 7.90462 13.6114 7.90462 13.9419C7.90467 14.2723 8.01094 14.545 8.22477 14.7588L11.5505 18.0833C11.7836 18.3164 12.0554 18.433 12.3662 18.4331C12.6773 18.4331 12.9498 18.3166 13.1831 18.0833L19.7752 11.4912C19.9888 11.2775 20.0953 11.0056 20.0954 10.6755C20.0954 10.3451 19.9889 10.0724 19.7752 9.85856C19.5614 9.6447 19.2888 9.5373 18.9583 9.53727Z" fill="black"/>
</svg>
