<svg width="24" height="24" viewBox="0 0 24 24" fill="none" xmlns="http://www.w3.org/2000/svg">
<path fill-rule="evenodd" clip-rule="evenodd" d="M18 2C20.2091 2 22 3.79086 22 6V18C22 20.2091 20.2091 22 18 22H6C3.79086 22 2 20.2091 2 18V6C2 3.79086 3.79086 2 6 2H18ZM16.25 8.5752C15.9667 8.5752 15.7331 8.66632 15.5498 8.84961L10.5996 13.7998L8.4248 11.625C8.24154 11.4418 8.0128 11.3547 7.73828 11.3633C7.46295 11.3713 7.23314 11.4671 7.0498 11.6504C6.86677 11.8336 6.77546 12.0666 6.77539 12.3496C6.77539 12.6328 6.86659 12.8665 7.0498 13.0498L9.90039 15.9004C10.0836 16.0834 10.3167 16.1747 10.5996 16.1748C10.8828 16.1748 11.1165 16.0835 11.2998 15.9004L16.9746 10.2246C17.1579 10.0413 17.2462 9.81237 17.2383 9.53711C17.2296 9.26244 17.1335 9.03294 16.9502 8.84961C16.7669 8.66633 16.5333 8.5752 16.25 8.5752Z" fill="black"/>
</svg>
