<svg width="16" height="16" viewBox="0 0 16 16" fill="none" xmlns="http://www.w3.org/2000/svg">
<path d="M7.06634 9.20065L5.63301 7.76732C5.51079 7.6451 5.35523 7.58398 5.16634 7.58398C4.97745 7.58398 4.8219 7.6451 4.69967 7.76732C4.57745 7.88954 4.51634 8.0451 4.51634 8.23398C4.51634 8.42287 4.57745 8.57843 4.69967 8.70065L6.59967 10.6007C6.73301 10.734 6.88856 10.8007 7.06634 10.8007C7.24412 10.8007 7.39967 10.734 7.53301 10.6007L11.2997 6.83398C11.4219 6.71176 11.483 6.55621 11.483 6.36732C11.483 6.17843 11.4219 6.02287 11.2997 5.90065C11.1775 5.77843 11.0219 5.71732 10.833 5.71732C10.6441 5.71732 10.4886 5.77843 10.3663 5.90065L7.06634 9.20065ZM7.99967 14.6673C7.07745 14.6673 6.21079 14.4923 5.39967 14.1423C4.58856 13.7923 3.88301 13.3173 3.28301 12.7173C2.68301 12.1173 2.20801 11.4118 1.85801 10.6007C1.50801 9.78954 1.33301 8.92287 1.33301 8.00065C1.33301 7.07843 1.50801 6.21176 1.85801 5.40065C2.20801 4.58954 2.68301 3.88398 3.28301 3.28398C3.88301 2.68398 4.58856 2.20898 5.39967 1.85898C6.21079 1.50898 7.07745 1.33398 7.99967 1.33398C8.9219 1.33398 9.78856 1.50898 10.5997 1.85898C11.4108 2.20898 12.1163 2.68398 12.7163 3.28398C13.3163 3.88398 13.7913 4.58954 14.1413 5.40065C14.4913 6.21176 14.6663 7.07843 14.6663 8.00065C14.6663 8.92287 14.4913 9.78954 14.1413 10.6007C13.7913 11.4118 13.3163 12.1173 12.7163 12.7173C12.1163 13.3173 11.4108 13.7923 10.5997 14.1423C9.78856 14.4923 8.9219 14.6673 7.99967 14.6673Z" fill="black"/>
</svg>
