<svg width="28" height="28" viewBox="0 0 28 28" fill="none" xmlns="http://www.w3.org/2000/svg">
<path d="M14 2.33337C7.56001 2.33337 2.33334 7.56004 2.33334 14C2.33334 20.44 7.56001 25.6667 14 25.6667C20.44 25.6667 25.6667 20.44 25.6667 14C25.6667 7.56004 20.44 2.33337 14 2.33337ZM10.8383 19.005L6.65001 14.8167C6.19501 14.3617 6.19501 13.6267 6.65001 13.1717C7.10501 12.7167 7.84001 12.7167 8.29501 13.1717L11.6667 16.5317L19.6933 8.50504C20.1483 8.05004 20.8833 8.05004 21.3383 8.50504C21.7933 8.96004 21.7933 9.69504 21.3383 10.15L12.4833 19.005C12.04 19.46 11.2933 19.46 10.8383 19.005Z" fill="black"/>
</svg>
