<svg width="16" height="16" viewBox="0 0 16 16" fill="none" xmlns="http://www.w3.org/2000/svg">
<path fill-rule="evenodd" clip-rule="evenodd" d="M12 1.33337C13.4728 1.33337 14.6667 2.52728 14.6667 4.00004V12C14.6667 13.4728 13.4728 14.6667 12 14.6667H4.00004C2.52728 14.6667 1.33337 13.4728 1.33337 12V4.00004C1.33337 2.52728 2.52728 1.33337 4.00004 1.33337H12ZM10.8334 5.71684C10.6445 5.71684 10.4888 5.77759 10.3666 5.89978L7.06645 9.19991L5.61658 7.75004C5.4944 7.62789 5.3419 7.56982 5.15889 7.57556C4.97534 7.58089 4.82213 7.64475 4.69991 7.76697C4.57788 7.88911 4.51702 8.04444 4.51697 8.23311C4.51697 8.42194 4.57777 8.57771 4.69991 8.69991L6.6003 10.6003C6.72242 10.7223 6.87782 10.7832 7.06645 10.7832C7.25522 10.7832 7.41105 10.7224 7.53324 10.6003L11.3164 6.81645C11.4386 6.69425 11.4975 6.54162 11.4922 6.35811C11.4864 6.175 11.4224 6.022 11.3002 5.89978C11.178 5.7776 11.0222 5.71684 10.8334 5.71684Z" fill="black"/>
</svg>
