<svg width="16" height="16" viewBox="0 0 16 16" fill="none" xmlns="http://www.w3.org/2000/svg">
<path d="M5.73333 11.6C5.58889 11.4556 5.51666 11.2778 5.51666 11.0667C5.51666 10.8556 5.58889 10.6778 5.73333 10.5333L8.26666 8.00002L5.73333 5.46668C5.58889 5.32224 5.51666 5.14446 5.51666 4.93335C5.51666 4.72224 5.58889 4.54446 5.73333 4.40002C5.87777 4.25557 6.05555 4.18335 6.26666 4.18335C6.47777 4.18335 6.65555 4.25557 6.8 4.40002L9.86666 7.46668C9.94444 7.54446 10 7.62779 10.0333 7.71668C10.0667 7.80557 10.0833 7.90002 10.0833 8.00002C10.0833 8.10002 10.0667 8.19446 10.0333 8.28335C10 8.37224 9.94444 8.45557 9.86666 8.53335L6.8 11.6C6.65555 11.7445 6.47777 11.8167 6.26666 11.8167C6.05555 11.8167 5.87777 11.7445 5.73333 11.6V11.6Z" fill="black"/>
</svg>
