<svg width="28" height="28" viewBox="0 0 28 28" fill="none" xmlns="http://www.w3.org/2000/svg">
<path d="M15.4 20.3L10.0333 14.9333C9.89723 14.7972 9.80001 14.6514 9.74168 14.4958C9.68334 14.3402 9.65417 14.175 9.65417 14C9.65417 13.825 9.68334 13.6597 9.74168 13.5041C9.80001 13.3486 9.89723 13.2027 10.0333 13.0666L15.4 7.69997C15.6528 7.44719 15.9639 7.3208 16.3333 7.3208C16.7028 7.3208 17.0139 7.44719 17.2667 7.69997C17.5195 7.95275 17.6458 8.26386 17.6458 8.6333C17.6458 9.00275 17.5195 9.31386 17.2667 9.56663L12.8333 14L17.2667 18.4333C17.5195 18.6861 17.6458 18.9972 17.6458 19.3666C17.6458 19.7361 17.5195 20.0472 17.2667 20.3C17.0139 20.5527 16.7028 20.6791 16.3333 20.6791C15.9639 20.6791 15.6528 20.5527 15.4 20.3V20.3Z" fill="black"/>
</svg>
