<svg width="16" height="16" viewBox="0 0 16 16" fill="none" xmlns="http://www.w3.org/2000/svg">
<path d="M8.8 11.6L5.73333 8.53335C5.65555 8.45557 5.6 8.37224 5.56666 8.28335C5.53333 8.19446 5.51666 8.10002 5.51666 8.00002C5.51666 7.90002 5.53333 7.80557 5.56666 7.71668C5.6 7.62779 5.65555 7.54446 5.73333 7.46668L8.8 4.40002C8.94444 4.25557 9.12222 4.18335 9.33333 4.18335C9.54444 4.18335 9.72222 4.25557 9.86666 4.40002C10.0111 4.54446 10.0833 4.72224 10.0833 4.93335C10.0833 5.14446 10.0111 5.32224 9.86666 5.46668L7.33333 8.00002L9.86666 10.5333C10.0111 10.6778 10.0833 10.8556 10.0833 11.0667C10.0833 11.2778 10.0111 11.4556 9.86666 11.6C9.72222 11.7445 9.54444 11.8167 9.33333 11.8167C9.12222 11.8167 8.94444 11.7445 8.8 11.6V11.6Z" fill="black"/>
</svg>
