<svg width="28" height="28" viewBox="0 0 28 28" fill="none" xmlns="http://www.w3.org/2000/svg">
<path d="M10.0333 20.3C9.78056 20.0472 9.65417 19.7361 9.65417 19.3666C9.65417 18.9972 9.78056 18.6861 10.0333 18.4333L14.4667 14L10.0333 9.56663C9.78056 9.31386 9.65417 9.00275 9.65417 8.6333C9.65417 8.26386 9.78056 7.95275 10.0333 7.69997C10.2861 7.44719 10.5972 7.3208 10.9667 7.3208C11.3361 7.3208 11.6472 7.44719 11.9 7.69997L17.2667 13.0666C17.4028 13.2027 17.5 13.3486 17.5583 13.5041C17.6167 13.6597 17.6458 13.825 17.6458 14C17.6458 14.175 17.6167 14.3402 17.5583 14.4958C17.5 14.6514 17.4028 14.7972 17.2667 14.9333L11.9 20.3C11.6472 20.5527 11.3361 20.6791 10.9667 20.6791C10.5972 20.6791 10.2861 20.5527 10.0333 20.3V20.3Z" fill="black"/>
</svg>
