<svg width="28" height="28" viewBox="0 0 28 28" fill="none" xmlns="http://www.w3.org/2000/svg">
<path d="M14 15.8667L8.40001 21.4667C8.14723 21.7195 7.83612 21.8458 7.46667 21.8458C7.09723 21.8458 6.78612 21.7195 6.53334 21.4667C6.28056 21.2139 6.15417 20.9028 6.15417 20.5333C6.15417 20.1639 6.28056 19.8528 6.53334 19.6L12.1333 14L6.53334 8.40001C6.28056 8.14723 6.15417 7.83612 6.15417 7.46667C6.15417 7.09723 6.28056 6.78612 6.53334 6.53334C6.78612 6.28056 7.09723 6.15417 7.46667 6.15417C7.83612 6.15417 8.14723 6.28056 8.40001 6.53334L14 12.1333L19.6 6.53334C19.8528 6.28056 20.1639 6.15417 20.5333 6.15417C20.9028 6.15417 21.2139 6.28056 21.4667 6.53334C21.7195 6.78612 21.8458 7.09723 21.8458 7.46667C21.8458 7.83612 21.7195 8.14723 21.4667 8.40001L15.8667 14L21.4667 19.6C21.7195 19.8528 21.8458 20.1639 21.8458 20.5333C21.8458 20.9028 21.7195 21.2139 21.4667 21.4667C21.2139 21.7195 20.9028 21.8458 20.5333 21.8458C20.1639 21.8458 19.8528 21.7195 19.6 21.4667L14 15.8667Z" fill="black"/>
</svg>
