<svg width="24" height="24" viewBox="0 0 24 24" fill="none" xmlns="http://www.w3.org/2000/svg">
<path d="M12 13.5999L7.99989 17.5998C7.78322 17.8165 7.51656 17.9248 7.19989 17.9248C6.88322 17.9248 6.61656 17.8165 6.39989 17.5998C6.18322 17.3832 6.07489 17.1165 6.07489 16.7998C6.07489 16.4832 6.18322 16.2165 6.39989 15.9998L10.4 11.9999L6.40008 7.99995C6.18342 7.78328 6.07509 7.51662 6.07509 7.19995C6.07509 6.88328 6.18342 6.61662 6.40008 6.39995C6.61675 6.18328 6.88342 6.07495 7.20009 6.07495C7.51675 6.07495 7.78342 6.18328 8.00008 6.39995L12 10.3999L15.9999 6.40005C16.2166 6.18338 16.4832 6.07505 16.7999 6.07505C17.1166 6.07505 17.3832 6.18338 17.5999 6.40005C17.8166 6.61671 17.9249 6.88338 17.9249 7.20005C17.9249 7.51671 17.8166 7.78338 17.5999 8.00005L13.6 11.9999L17.6002 15.9998C17.8168 16.2165 17.9252 16.4832 17.9252 16.7998C17.9252 17.1165 17.8168 17.3832 17.6002 17.5998C17.3835 17.8165 17.1168 17.9248 16.8002 17.9248C16.4835 17.9248 16.2168 17.8165 16.0002 17.5998L12 13.5999Z" fill="black"/>
</svg>
