<svg width="16" height="16" viewBox="0 0 16 16" fill="none" xmlns="http://www.w3.org/2000/svg">
<path d="M7.99999 9.06671L5.33326 11.7333C5.18882 11.8778 5.01104 11.95 4.79993 11.95C4.58882 11.95 4.41104 11.8778 4.26659 11.7333C4.12215 11.5889 4.04993 11.4111 4.04993 11.2C4.04993 10.9889 4.12215 10.8111 4.26659 10.6666L6.93332 8.00005L4.26672 5.33338C4.12228 5.18894 4.05006 5.01116 4.05006 4.80005C4.05006 4.58894 4.12228 4.41116 4.26672 4.26672C4.41117 4.12227 4.58895 4.05005 4.80006 4.05005C5.01117 4.05005 5.18895 4.12227 5.33339 4.26672L7.99999 6.93338L10.6666 4.26678C10.811 4.12234 10.9888 4.05011 11.1999 4.05011C11.411 4.05011 11.5888 4.12234 11.7333 4.26678C11.8777 4.41122 11.9499 4.589 11.9499 4.80011C11.9499 5.01122 11.8777 5.189 11.7333 5.33345L9.06666 8.00005L11.7335 10.6666C11.8779 10.8111 11.9501 10.9889 11.9501 11.2C11.9501 11.4111 11.8779 11.5889 11.7335 11.7333C11.589 11.8778 11.4112 11.95 11.2001 11.95C10.989 11.95 10.8112 11.8778 10.6668 11.7333L7.99999 9.06671Z" fill="black"/>
</svg>
