<svg width="16" height="16" viewBox="0 0 16 16" fill="none" xmlns="http://www.w3.org/2000/svg">
<path d="M8 9.06672L4.8 12.2667C4.65555 12.4112 4.47777 12.4834 4.26666 12.4834C4.05555 12.4834 3.87777 12.4112 3.73333 12.2667C3.58888 12.1223 3.51666 11.9445 3.51666 11.7334C3.51666 11.5223 3.58888 11.3445 3.73333 11.2001L6.93333 8.00006L3.73333 4.80006C3.58888 4.65561 3.51666 4.47783 3.51666 4.26672C3.51666 4.05561 3.58888 3.87783 3.73333 3.73339C3.87777 3.58895 4.05555 3.51672 4.26666 3.51672C4.47777 3.51672 4.65555 3.58895 4.8 3.73339L8 6.93339L11.2 3.73339C11.3444 3.58895 11.5222 3.51672 11.7333 3.51672C11.9444 3.51672 12.1222 3.58895 12.2667 3.73339C12.4111 3.87783 12.4833 4.05561 12.4833 4.26672C12.4833 4.47783 12.4111 4.65561 12.2667 4.80006L9.06666 8.00006L12.2667 11.2001C12.4111 11.3445 12.4833 11.5223 12.4833 11.7334C12.4833 11.9445 12.4111 12.1223 12.2667 12.2667C12.1222 12.4112 11.9444 12.4834 11.7333 12.4834C11.5222 12.4834 11.3444 12.4112 11.2 12.2667L8 9.06672Z" fill="black"/>
</svg>
