<svg width="16" height="16" viewBox="0 0 16 16" fill="none" xmlns="http://www.w3.org/2000/svg">
<path d="M6.66666 10.2662L2.73333 14.1995C2.61111 14.3218 2.45555 14.3829 2.26666 14.3829C2.07778 14.3829 1.92222 14.3218 1.8 14.1995C1.67778 14.0773 1.61666 13.9218 1.61666 13.7329C1.61666 13.544 1.67778 13.3884 1.8 13.2662L5.73333 9.33288H3.33333C3.14444 9.33288 2.98611 9.26899 2.85833 9.14121C2.73055 9.01343 2.66666 8.8551 2.66666 8.66621C2.66666 8.47732 2.73055 8.31899 2.85833 8.19121C2.98611 8.06343 3.14444 7.99954 3.33333 7.99954H7.33333C7.52222 7.99954 7.68055 8.06343 7.80833 8.19121C7.93611 8.31899 8 8.47732 8 8.66621V12.6662C8 12.8551 7.93611 13.0134 7.80833 13.1412C7.68055 13.269 7.52222 13.3329 7.33333 13.3329C7.14444 13.3329 6.98611 13.269 6.85833 13.1412C6.73055 13.0134 6.66666 12.8551 6.66666 12.6662V10.2662ZM10.2667 6.66621H12.6667C12.8556 6.66621 13.0139 6.7301 13.1417 6.85788C13.2694 6.98565 13.3333 7.14399 13.3333 7.33288C13.3333 7.52177 13.2694 7.6801 13.1417 7.80788C13.0139 7.93566 12.8556 7.99954 12.6667 7.99954H8.66666C8.47778 7.99954 8.31944 7.93566 8.19166 7.80788C8.06389 7.6801 8 7.52177 8 7.33288V3.33288C8 3.14399 8.06389 2.98566 8.19166 2.85788C8.31944 2.7301 8.47778 2.66621 8.66666 2.66621C8.85555 2.66621 9.01389 2.7301 9.14166 2.85788C9.26944 2.98566 9.33333 3.14399 9.33333 3.33288V5.73288L13.2667 1.79954C13.3889 1.67732 13.5444 1.61621 13.7333 1.61621C13.9222 1.61621 14.0778 1.67732 14.2 1.79954C14.3222 1.92177 14.3833 2.07732 14.3833 2.26621C14.3833 2.4551 14.3222 2.61066 14.2 2.73288L10.2667 6.66621Z" fill="#191919"/>
</svg>
