<svg width="24" height="24" viewBox="0 0 24 24" fill="none" xmlns="http://www.w3.org/2000/svg">
<path d="M10 15.3998L4.1 21.2998C3.91667 21.4831 3.68334 21.5748 3.4 21.5748C3.11667 21.5748 2.88334 21.4831 2.7 21.2998C2.51667 21.1165 2.425 20.8831 2.425 20.5998C2.425 20.3165 2.51667 20.0831 2.7 19.8998L8.6 13.9998H5C4.71667 13.9998 4.47917 13.904 4.2875 13.7123C4.09584 13.5206 4 13.2831 4 12.9998C4 12.7165 4.09584 12.479 4.2875 12.2873C4.47917 12.0956 4.71667 11.9998 5 11.9998H11C11.2833 11.9998 11.5208 12.0956 11.7125 12.2873C11.9042 12.479 12 12.7165 12 12.9998V18.9998C12 19.2831 11.9042 19.5206 11.7125 19.7123C11.5208 19.904 11.2833 19.9998 11 19.9998C10.7167 19.9998 10.4792 19.904 10.2875 19.7123C10.0958 19.5206 10 19.2831 10 18.9998V15.3998ZM15.4 9.9998H19C19.2833 9.9998 19.5208 10.0956 19.7125 10.2873C19.9042 10.479 20 10.7165 20 10.9998C20 11.2831 19.9042 11.5206 19.7125 11.7123C19.5208 11.904 19.2833 11.9998 19 11.9998H13C12.7167 11.9998 12.4792 11.904 12.2875 11.7123C12.0958 11.5206 12 11.2831 12 10.9998V4.9998C12 4.71647 12.0958 4.47897 12.2875 4.2873C12.4792 4.09564 12.7167 3.9998 13 3.9998C13.2833 3.9998 13.5208 4.09564 13.7125 4.2873C13.9042 4.47897 14 4.71647 14 4.9998V8.5998L19.9 2.6998C20.0833 2.51647 20.3167 2.4248 20.6 2.4248C20.8833 2.4248 21.1167 2.51647 21.3 2.6998C21.4833 2.88314 21.575 3.11647 21.575 3.3998C21.575 3.68314 21.4833 3.91647 21.3 4.0998L15.4 9.9998Z" fill="#191919"/>
</svg>
