<svg width="28" height="28" viewBox="0 0 28 28" fill="none" xmlns="http://www.w3.org/2000/svg">
<path d="M11.6667 17.9666L4.78333 24.8499C4.56944 25.0638 4.29722 25.1708 3.96666 25.1708C3.63611 25.1708 3.36388 25.0638 3.15 24.8499C2.93611 24.636 2.82916 24.3638 2.82916 24.0333C2.82916 23.7027 2.93611 23.4305 3.15 23.2166L10.0333 16.3333H5.83333C5.50277 16.3333 5.22569 16.2215 5.00208 15.9979C4.77847 15.7742 4.66666 15.4972 4.66666 15.1666C4.66666 14.836 4.77847 14.559 5.00208 14.3354C5.22569 14.1117 5.50277 13.9999 5.83333 13.9999H12.8333C13.1639 13.9999 13.441 14.1117 13.6646 14.3354C13.8882 14.559 14 14.836 14 15.1666V22.1666C14 22.4972 13.8882 22.7742 13.6646 22.9979C13.441 23.2215 13.1639 23.3333 12.8333 23.3333C12.5028 23.3333 12.2257 23.2215 12.0021 22.9979C11.7785 22.7742 11.6667 22.4972 11.6667 22.1666V17.9666ZM17.9667 11.6666H22.1667C22.4972 11.6666 22.7743 11.7784 22.9979 12.002C23.2215 12.2256 23.3333 12.5027 23.3333 12.8333C23.3333 13.1638 23.2215 13.4409 22.9979 13.6645C22.7743 13.8881 22.4972 13.9999 22.1667 13.9999H15.1667C14.8361 13.9999 14.559 13.8881 14.3354 13.6645C14.1118 13.4409 14 13.1638 14 12.8333V5.83327C14 5.50271 14.1118 5.22563 14.3354 5.00202C14.559 4.77841 14.8361 4.6666 15.1667 4.6666C15.4972 4.6666 15.7743 4.77841 15.9979 5.00202C16.2215 5.22563 16.3333 5.50271 16.3333 5.83327V10.0333L23.2167 3.14993C23.4306 2.93605 23.7028 2.8291 24.0333 2.8291C24.3639 2.8291 24.6361 2.93605 24.85 3.14993C25.0639 3.36382 25.1708 3.63605 25.1708 3.9666C25.1708 4.29716 25.0639 4.56938 24.85 4.78327L17.9667 11.6666Z" fill="#191919"/>
</svg>
