<svg width="28" height="28" viewBox="0 0 28 28" fill="none" xmlns="http://www.w3.org/2000/svg">
<path d="M14 15.8667L9.33324 20.5332C9.08046 20.786 8.76935 20.9124 8.3999 20.9124C8.03046 20.9124 7.71935 20.786 7.46657 20.5332C7.21379 20.2805 7.0874 19.9694 7.0874 19.5999C7.0874 19.2305 7.21379 18.9193 7.46657 18.6666L12.1333 14L7.4668 9.33336C7.21402 9.08058 7.08763 8.76947 7.08763 8.40002C7.08763 8.03058 7.21402 7.71947 7.4668 7.46669C7.71957 7.21391 8.03069 7.08752 8.40013 7.08752C8.76957 7.08752 9.08069 7.21391 9.33346 7.46669L14 12.1334L18.6666 7.4668C18.9193 7.21403 19.2305 7.08764 19.5999 7.08764C19.9693 7.08764 20.2805 7.21403 20.5332 7.4668C20.786 7.71958 20.9124 8.03069 20.9124 8.40014C20.9124 8.76958 20.786 9.08069 20.5332 9.33347L15.8667 14L20.5336 18.6666C20.7864 18.9193 20.9127 19.2305 20.9127 19.5999C20.9127 19.9694 20.7864 20.2805 20.5336 20.5332C20.2808 20.786 19.9697 20.9124 19.6002 20.9124C19.2308 20.9124 18.9197 20.786 18.6669 20.5332L14 15.8667Z" fill="black"/>
</svg>
