<svg width="28" height="28" viewBox="0 0 28 28" fill="none" xmlns="http://www.w3.org/2000/svg">
<path d="M7.58335 23.3333C5.81391 23.3333 4.3023 22.7208 3.04852 21.4958C1.79396 20.2708 1.16669 18.7736 1.16669 17.0041C1.16669 15.4875 1.62363 14.1361 2.53752 12.95C3.45141 11.7638 4.64724 11.0055 6.12502 10.675C6.61113 8.88607 7.58335 7.43746 9.04169 6.32913C10.5 5.22079 12.1528 4.66663 14 4.66663C16.275 4.66663 18.2047 5.45879 19.789 7.04313C21.3741 8.62824 22.1667 10.5583 22.1667 12.8333C23.5084 12.9888 24.6217 13.5671 25.5069 14.5681C26.3912 15.5699 26.8334 16.7416 26.8334 18.0833C26.8334 19.5416 26.3231 20.7814 25.3027 21.8026C24.2815 22.8231 23.0417 23.3333 21.5834 23.3333H15.1667C14.525 23.3333 13.9759 23.105 13.5194 22.6485C13.062 22.1911 12.8334 21.6416 12.8334 21V14.9333L11.7834 15.9833C11.5695 16.1972 11.2972 16.3041 10.9667 16.3041C10.6361 16.3041 10.3639 16.1972 10.15 15.9833C9.93613 15.7694 9.82919 15.4972 9.82919 15.1666C9.82919 14.8361 9.93613 14.5638 10.15 14.35L13.1834 11.3166C13.3 11.2 13.4264 11.1171 13.5625 11.0681C13.6986 11.0199 13.8445 10.9958 14 10.9958C14.1556 10.9958 14.3014 11.0199 14.4375 11.0681C14.5736 11.1171 14.7 11.2 14.8167 11.3166L17.85 14.35C18.0639 14.5638 18.1709 14.8361 18.1709 15.1666C18.1709 15.4972 18.0639 15.7694 17.85 15.9833C17.6361 16.1972 17.3639 16.3041 17.0334 16.3041C16.7028 16.3041 16.4306 16.1972 16.2167 15.9833L15.1667 14.9333V21H21.5834C22.4 21 23.0903 20.718 23.6542 20.1541C24.2181 19.5902 24.5 18.9 24.5 18.0833C24.5 17.2666 24.2181 16.5763 23.6542 16.0125C23.0903 15.4486 22.4 15.1666 21.5834 15.1666H19.8334V12.8333C19.8334 11.2194 19.2648 9.84351 18.1277 8.70563C16.9898 7.56851 15.6139 6.99996 14 6.99996C12.3861 6.99996 11.0106 7.56851 9.87352 8.70563C8.73563 9.84351 8.16669 11.2194 8.16669 12.8333H7.58335C6.45558 12.8333 5.49308 13.2319 4.69585 14.0291C3.89863 14.8263 3.50002 15.7888 3.50002 16.9166C3.50002 18.0444 3.89863 19.0069 4.69585 19.8041C5.49308 20.6013 6.45558 21 7.58335 21H9.33335C9.66391 21 9.94119 21.112 10.1652 21.336C10.3884 21.5592 10.5 21.8361 10.5 22.1666C10.5 22.4972 10.3884 22.7741 10.1652 22.9973C9.94119 23.2213 9.66391 23.3333 9.33335 23.3333H7.58335Z" fill="black"/>
</svg>
