<svg width="24" height="24" viewBox="0 0 24 24" fill="none" xmlns="http://www.w3.org/2000/svg">
<path d="M6.5 20C4.98333 20 3.68767 19.475 2.613 18.425C1.53767 17.375 1 16.0917 1 14.575C1 13.275 1.39167 12.1167 2.175 11.1C2.95833 10.0833 3.98333 9.43333 5.25 9.15C5.66667 7.61667 6.5 6.375 7.75 5.425C9 4.475 10.4167 4 12 4C13.95 4 15.604 4.679 16.962 6.037C18.3207 7.39567 19 9.05 19 11C20.15 11.1333 21.1043 11.629 21.863 12.487C22.621 13.3457 23 14.35 23 15.5C23 16.75 22.5627 17.8127 21.688 18.688C20.8127 19.5627 19.75 20 18.5 20H13V12.85L13.9 13.725C14.0833 13.9083 14.3127 14 14.588 14C14.8627 14 15.1 13.9 15.3 13.7C15.4833 13.5167 15.575 13.2833 15.575 13C15.575 12.7167 15.4833 12.4833 15.3 12.3L12.7 9.7C12.5 9.5 12.2667 9.4 12 9.4C11.7333 9.4 11.5 9.5 11.3 9.7L8.7 12.3C8.51667 12.4833 8.421 12.7123 8.413 12.987C8.40433 13.2623 8.5 13.5 8.7 13.7C8.88333 13.8833 9.11233 13.9793 9.387 13.988C9.66233 13.996 9.9 13.9083 10.1 13.725L11 12.85V20H6.5Z" fill="black"/>
</svg>
