<svg width="24" height="24" viewBox="0 0 24 24" fill="none" xmlns="http://www.w3.org/2000/svg">
<path d="M6.5 20C4.98333 20 3.68767 19.475 2.613 18.425C1.53767 17.375 1 16.0917 1 14.575C1 13.275 1.39167 12.1167 2.175 11.1C2.95833 10.0833 3.98333 9.43333 5.25 9.15C5.66667 7.61667 6.5 6.375 7.75 5.425C9 4.475 10.4167 4 12 4C13.95 4 15.604 4.679 16.962 6.037C18.3207 7.39567 19 9.05 19 11C20.15 11.1333 21.1043 11.629 21.863 12.487C22.621 13.3457 23 14.35 23 15.5C23 16.75 22.5627 17.8127 21.688 18.688C20.8127 19.5627 19.75 20 18.5 20H13C12.45 20 11.9793 19.8043 11.588 19.413C11.196 19.021 11 18.55 11 18V12.8L10.1 13.7C9.91667 13.8833 9.68333 13.975 9.4 13.975C9.11667 13.975 8.88333 13.8833 8.7 13.7C8.51667 13.5167 8.425 13.2833 8.425 13C8.425 12.7167 8.51667 12.4833 8.7 12.3L11.3 9.7C11.4 9.6 11.5083 9.529 11.625 9.487C11.7417 9.44567 11.8667 9.425 12 9.425C12.1333 9.425 12.2583 9.44567 12.375 9.487C12.4917 9.529 12.6 9.6 12.7 9.7L15.3 12.3C15.4833 12.4833 15.575 12.7167 15.575 13C15.575 13.2833 15.4833 13.5167 15.3 13.7C15.1167 13.8833 14.8833 13.975 14.6 13.975C14.3167 13.975 14.0833 13.8833 13.9 13.7L13 12.8V18H18.5C19.2 18 19.7917 17.7583 20.275 17.275C20.7583 16.7917 21 16.2 21 15.5C21 14.8 20.7583 14.2083 20.275 13.725C19.7917 13.2417 19.2 13 18.5 13H17V11C17 9.61667 16.5127 8.43733 15.538 7.462C14.5627 6.48733 13.3833 6 12 6C10.6167 6 9.43767 6.48733 8.463 7.462C7.48767 8.43733 7 9.61667 7 11H6.5C5.53333 11 4.70833 11.3417 4.025 12.025C3.34167 12.7083 3 13.5333 3 14.5C3 15.4667 3.34167 16.2917 4.025 16.975C4.70833 17.6583 5.53333 18 6.5 18H8C8.28333 18 8.521 18.096 8.713 18.288C8.90433 18.4793 9 18.7167 9 19C9 19.2833 8.90433 19.5207 8.713 19.712C8.521 19.904 8.28333 20 8 20H6.5Z" fill="black"/>
</svg>
