<svg width="16" height="16" viewBox="0 0 16 16" fill="none" xmlns="http://www.w3.org/2000/svg">
<path d="M4.33333 13.3333C3.32222 13.3333 2.45844 12.9833 1.742 12.2833C1.02511 11.5833 0.666664 10.7277 0.666664 9.71663C0.666664 8.84996 0.927775 8.07774 1.45 7.39996C1.97222 6.72218 2.65555 6.28885 3.5 6.09996C3.77778 5.07774 4.33333 4.24996 5.16666 3.61663C6 2.98329 6.94444 2.66663 8 2.66663C9.3 2.66663 10.4027 3.11929 11.308 4.02463C12.2138 4.9304 12.6667 6.03329 12.6667 7.33329C13.4333 7.42218 14.0696 7.75263 14.5753 8.32463C15.0807 8.89707 15.3333 9.56663 15.3333 10.3333C15.3333 11.1666 15.0418 11.8751 14.4587 12.4586C13.8751 13.0417 13.1667 13.3333 12.3333 13.3333H8.66666V8.56663L9.26666 9.14996C9.38889 9.27218 9.54178 9.33329 9.72533 9.33329C9.90844 9.33329 10.0667 9.26663 10.2 9.13329C10.3222 9.01107 10.3833 8.85552 10.3833 8.66663C10.3833 8.47774 10.3222 8.32218 10.2 8.19996L8.46666 6.46663C8.33333 6.33329 8.17778 6.26663 8 6.26663C7.82222 6.26663 7.66666 6.33329 7.53333 6.46663L5.8 8.19996C5.67778 8.32218 5.614 8.47485 5.60866 8.65796C5.60289 8.84152 5.66666 8.99996 5.8 9.13329C5.92222 9.25551 6.07489 9.31952 6.258 9.32529C6.44155 9.33063 6.6 9.27218 6.73333 9.14996L7.33333 8.56663V13.3333H4.33333Z" fill="black"/>
</svg>
