<svg width="16" height="16" viewBox="0 0 16 16" fill="none" xmlns="http://www.w3.org/2000/svg">
<path d="M4.33335 13.3333C3.32224 13.3333 2.45846 12.9833 1.74202 12.2833C1.02513 11.5833 0.666687 10.7277 0.666687 9.71663C0.666687 8.84996 0.927798 8.07774 1.45002 7.39996C1.97224 6.72218 2.65558 6.28885 3.50002 6.09996C3.7778 5.07774 4.33335 4.24996 5.16669 3.61663C6.00002 2.98329 6.94446 2.66663 8.00002 2.66663C9.30002 2.66663 10.4027 3.11929 11.308 4.02463C12.2138 4.9304 12.6667 6.03329 12.6667 7.33329C13.4334 7.42218 14.0696 7.75263 14.5754 8.32463C15.0807 8.89707 15.3334 9.56663 15.3334 10.3333C15.3334 11.1666 15.0418 11.8751 14.4587 12.4586C13.8751 13.0417 13.1667 13.3333 12.3334 13.3333H8.66669C8.30002 13.3333 7.98624 13.2028 7.72535 12.942C7.46402 12.6806 7.33335 12.3666 7.33335 12V8.53329L6.73335 9.13329C6.61113 9.25551 6.45558 9.31663 6.26669 9.31663C6.0778 9.31663 5.92224 9.25551 5.80002 9.13329C5.6778 9.01107 5.61669 8.85552 5.61669 8.66663C5.61669 8.47774 5.6778 8.32218 5.80002 8.19996L7.53335 6.46663C7.60002 6.39996 7.67224 6.35263 7.75002 6.32463C7.8278 6.29707 7.91113 6.28329 8.00002 6.28329C8.08891 6.28329 8.17224 6.29707 8.25002 6.32463C8.3278 6.35263 8.40002 6.39996 8.46669 6.46663L10.2 8.19996C10.3222 8.32218 10.3834 8.47774 10.3834 8.66663C10.3834 8.85552 10.3222 9.01107 10.2 9.13329C10.0778 9.25551 9.92224 9.31663 9.73335 9.31663C9.54447 9.31663 9.38891 9.25551 9.26669 9.13329L8.66669 8.53329V12H12.3334C12.8 12 13.1945 11.8388 13.5167 11.5166C13.8389 11.1944 14 10.8 14 10.3333C14 9.86663 13.8389 9.47218 13.5167 9.14996C13.1945 8.82774 12.8 8.66663 12.3334 8.66663H11.3334V7.33329C11.3334 6.41107 11.0085 5.62485 10.3587 4.97463C9.70847 4.32485 8.92224 3.99996 8.00002 3.99996C7.0778 3.99996 6.2918 4.32485 5.64202 4.97463C4.9918 5.62485 4.66669 6.41107 4.66669 7.33329H4.33335C3.68891 7.33329 3.13891 7.56107 2.68335 8.01663C2.2278 8.47218 2.00002 9.02218 2.00002 9.66663C2.00002 10.3111 2.2278 10.8611 2.68335 11.3166C3.13891 11.7722 3.68891 12 4.33335 12H5.33335C5.52224 12 5.68069 12.064 5.80869 12.192C5.93624 12.3195 6.00002 12.4777 6.00002 12.6666C6.00002 12.8555 5.93624 13.0137 5.80869 13.1413C5.68069 13.2693 5.52224 13.3333 5.33335 13.3333H4.33335Z" fill="black"/>
</svg>
