<svg width="28" height="28" viewBox="0 0 28 28" fill="none" xmlns="http://www.w3.org/2000/svg">
<path d="M7.58333 23.3333C5.81389 23.3333 4.30227 22.7208 3.0485 21.4958C1.79394 20.2708 1.16666 18.7736 1.16666 17.0041C1.16666 15.4875 1.62361 14.1361 2.5375 12.95C3.45139 11.7638 4.64722 11.0055 6.125 10.675C6.61111 8.88607 7.58333 7.43746 9.04166 6.32913C10.5 5.22079 12.1528 4.66663 14 4.66663C16.275 4.66663 18.2047 5.45879 19.789 7.04313C21.3741 8.62824 22.1667 10.5583 22.1667 12.8333C23.5083 12.9888 24.6217 13.5671 25.5068 14.5681C26.3912 15.5699 26.8333 16.7416 26.8333 18.0833C26.8333 19.5416 26.3231 20.7814 25.3027 21.8026C24.2814 22.8231 23.0417 23.3333 21.5833 23.3333H15.1667V14.9916L16.2167 16.0125C16.4306 16.2263 16.6981 16.3333 17.0193 16.3333C17.3398 16.3333 17.6167 16.2166 17.85 15.9833C18.0639 15.7694 18.1708 15.4972 18.1708 15.1666C18.1708 14.8361 18.0639 14.5638 17.85 14.35L14.8167 11.3166C14.5833 11.0833 14.3111 10.9666 14 10.9666C13.6889 10.9666 13.4167 11.0833 13.1833 11.3166L10.15 14.35C9.93611 14.5638 9.8245 14.831 9.81516 15.1515C9.80505 15.4727 9.91666 15.75 10.15 15.9833C10.3639 16.1972 10.6311 16.3092 10.9515 16.3193C11.2727 16.3286 11.55 16.2263 11.7833 16.0125L12.8333 14.9916V23.3333H7.58333Z" fill="black"/>
</svg>
