<svg width="16" height="16" viewBox="0 0 16 16" fill="none" xmlns="http://www.w3.org/2000/svg">
<path d="M2.66667 12.0001H5.33334V4.00008H2.66667V12.0001ZM6.66667 12.0001H9.33334V4.00008H6.66667V12.0001ZM10.6667 12.0001H13.3333V4.00008H10.6667V12.0001ZM2.66667 13.3334C2.3 13.3334 1.98622 13.203 1.72534 12.9421C1.464 12.6807 1.33334 12.3667 1.33334 12.0001V4.00008C1.33334 3.63341 1.464 3.31964 1.72534 3.05875C1.98622 2.79741 2.3 2.66675 2.66667 2.66675H13.3333C13.7 2.66675 14.014 2.79741 14.2753 3.05875C14.5362 3.31964 14.6667 3.63341 14.6667 4.00008V12.0001C14.6667 12.3667 14.5362 12.6807 14.2753 12.9421C14.014 13.203 13.7 13.3334 13.3333 13.3334H2.66667Z" fill="black"/>
</svg>
