<svg width="28" height="28" viewBox="0 0 28 28" fill="none" xmlns="http://www.w3.org/2000/svg">
<path d="M4.66667 21.0001H9.33334V7.00008H4.66667V21.0001ZM11.6667 21.0001H16.3333V7.00008H11.6667V21.0001ZM18.6667 21.0001H23.3333V7.00008H18.6667V21.0001ZM4.66667 23.3334C4.025 23.3334 3.47589 23.1051 3.01934 22.6486C2.562 22.1912 2.33334 21.6417 2.33334 21.0001V7.00008C2.33334 6.35841 2.562 5.8093 3.01934 5.35275C3.47589 4.89541 4.025 4.66675 4.66667 4.66675H23.3333C23.975 4.66675 24.5245 4.89541 24.9818 5.35275C25.4384 5.8093 25.6667 6.35841 25.6667 7.00008V21.0001C25.6667 21.6417 25.4384 22.1912 24.9818 22.6486C24.5245 23.1051 23.975 23.3334 23.3333 23.3334H4.66667Z" fill="black"/>
</svg>
