<svg width="28" height="28" viewBox="0 0 28 28" fill="none" xmlns="http://www.w3.org/2000/svg">
<path d="M19.8333 4.66659V12.8333C19.8333 14.1219 18.7887 15.1666 17.5 15.1666H7.00001L3.32916 18.8374C2.96168 19.2049 2.33334 18.9447 2.33334 18.425V4.66659C2.33334 3.37792 3.37801 2.33325 4.66668 2.33325H17.5C18.7887 2.33325 19.8333 3.37792 19.8333 4.66659Z" fill="black"/>
<path d="M7.00001 17.4999H22.1667V6.99992H23.3333C24.622 6.99992 25.6667 8.04459 25.6667 9.33325V24.2583C25.6667 24.778 25.0383 25.0383 24.6709 24.6708L21 20.9999H9.33334C8.04468 20.9999 7.00001 19.9552 7.00001 18.6666V17.4999Z" fill="black"/>
</svg>
