<svg width="28" height="28" viewBox="0 0 28 28" fill="none" xmlns="http://www.w3.org/2000/svg">
<path d="M4.32494 18.0084C3.58998 18.7433 2.33331 18.2228 2.33331 17.1834V4.83333C2.33331 3.54467 3.37798 2.5 4.66665 2.5H17.5C18.7886 2.5 19.8333 3.54467 19.8333 4.83333V13C19.8333 14.2887 18.7886 15.3333 17.5 15.3333H6.99998L4.32494 18.0084ZM9.33331 21.1667C8.04465 21.1667 6.99998 20.122 6.99998 18.8333V17.6667H18.6666C20.5996 17.6667 22.1666 16.0997 22.1666 14.1667V7.16667H23.3333C24.622 7.16667 25.6666 8.21134 25.6666 9.5V23.0168C25.6666 24.0561 24.41 24.5767 23.675 23.8417L21 21.1667H9.33331ZM17.5 4.83333H4.66665V14.3708L6.03748 13H17.5V4.83333Z" fill="black"/>
</svg>
