<svg width="16" height="16" viewBox="0 0 16 16" fill="none" xmlns="http://www.w3.org/2000/svg">
<path d="M2.47138 10.8619C2.05141 11.2819 1.33331 10.9845 1.33331 10.3905V3.33333C1.33331 2.59695 1.93027 2 2.66665 2H9.99998C10.7364 2 11.3333 2.59695 11.3333 3.33333V8C11.3333 8.73638 10.7364 9.33333 9.99998 9.33333H3.99998L2.47138 10.8619ZM5.33331 12.6667C4.59693 12.6667 3.99998 12.0697 3.99998 11.3333V10.6667H10.6666C11.7712 10.6667 12.6666 9.77124 12.6666 8.66667V4.66667H13.3333C14.0697 4.66667 14.6666 5.26362 14.6666 6V13.7239C14.6666 14.3178 13.9486 14.6152 13.5286 14.1953L12 12.6667H5.33331ZM9.99998 3.33333H2.66665V8.78333L3.44998 8H9.99998V3.33333Z" fill="black"/>
</svg>
