<svg width="16" height="16" viewBox="0 0 16 16" fill="none" xmlns="http://www.w3.org/2000/svg">
<path d="M11.3333 2.66659V7.33325C11.3333 8.06963 10.7364 8.66659 10 8.66659H4.00001L1.90238 10.7642C1.69239 10.9742 1.33334 10.8255 1.33334 10.5285V2.66659C1.33334 1.93021 1.9303 1.33325 2.66668 1.33325H10C10.7364 1.33325 11.3333 1.93021 11.3333 2.66659Z" fill="black"/>
<path d="M4.00001 9.99992H12.6667V3.99992H13.3333C14.0697 3.99992 14.6667 4.59687 14.6667 5.33325V13.8618C14.6667 14.1588 14.3076 14.3075 14.0976 14.0976L12 11.9999H5.33334C4.59696 11.9999 4.00001 11.403 4.00001 10.6666V9.99992Z" fill="black"/>
</svg>
