<svg width="28" height="28" viewBox="0 0 28 28" fill="none" xmlns="http://www.w3.org/2000/svg">
<path d="M11.6667 8.16634H19.8333C20.1639 8.16634 20.441 8.27815 20.6646 8.50176C20.8882 8.72537 21 9.00245 21 9.33301C21 9.66356 20.8882 9.94065 20.6646 10.1643C20.441 10.3879 20.1639 10.4997 19.8333 10.4997H11.6667C11.3361 10.4997 11.059 10.3879 10.8354 10.1643C10.6118 9.94065 10.5 9.66356 10.5 9.33301C10.5 9.00245 10.6118 8.72537 10.8354 8.50176C11.059 8.27815 11.3361 8.16634 11.6667 8.16634ZM11.6667 11.6663H19.8333C20.1639 11.6663 20.441 11.7781 20.6646 12.0018C20.8882 12.2254 21 12.5025 21 12.833C21 13.1636 20.8882 13.4406 20.6646 13.6643C20.441 13.8879 20.1639 13.9997 19.8333 13.9997H11.6667C11.3361 13.9997 11.059 13.8879 10.8354 13.6643C10.6118 13.4406 10.5 13.1636 10.5 12.833C10.5 12.5025 10.6118 12.2254 10.8354 12.0018C11.059 11.7781 11.3361 11.6663 11.6667 11.6663ZM7 25.6663C6.02778 25.6663 5.20139 25.3261 4.52083 24.6455C3.84028 23.965 3.5 23.1386 3.5 22.1663V19.833C3.5 19.5025 3.61181 19.2254 3.83542 19.0018C4.05903 18.7781 4.33611 18.6663 4.66667 18.6663H7V4.66634C7 4.02467 7.22847 3.47537 7.68542 3.01842C8.14236 2.56148 8.69167 2.33301 9.33333 2.33301H22.1667C22.8083 2.33301 23.3576 2.56148 23.8146 3.01842C24.2715 3.47537 24.5 4.02467 24.5 4.66634V11.6663C24.5 11.9969 24.3882 12.274 24.1646 12.4976C23.941 12.7212 23.6639 12.833 23.3333 12.833C23.0028 12.833 22.7257 12.7212 22.5021 12.4976C22.2785 12.274 22.1667 11.9969 22.1667 11.6663V4.66634H9.33333V18.6663H12.8333C13.1639 18.6663 13.441 18.7781 13.6646 19.0018C13.8882 19.2254 14 19.5025 14 19.833C14 20.1636 13.8882 20.4406 13.6646 20.6643C13.441 20.8879 13.1639 20.9997 12.8333 20.9997H5.83333V22.1663C5.83333 22.4969 5.94514 22.774 6.16875 22.9976C6.39236 23.2212 6.66944 23.333 7 23.333H12.8333C13.1639 23.333 13.441 23.4448 13.6646 23.6684C13.8882 23.892 14 24.1691 14 24.4997C14 24.8302 13.8882 25.1073 13.6646 25.3309C13.441 25.5545 13.1639 25.6663 12.8333 25.6663H7ZM16.3333 24.4997V22.5747C16.3333 22.4191 16.3625 22.2684 16.4208 22.1226C16.4792 21.9768 16.5667 21.8455 16.6833 21.7288L22.7792 15.6622C22.9542 15.4872 23.1486 15.3608 23.3625 15.283C23.5764 15.2052 23.7903 15.1663 24.0042 15.1663C24.2375 15.1663 24.4611 15.2101 24.675 15.2976C24.8889 15.3851 25.0833 15.5163 25.2583 15.6913L26.3375 16.7705C26.4931 16.9455 26.6146 17.14 26.7021 17.3538C26.7896 17.5677 26.8333 17.7816 26.8333 17.9955C26.8333 18.2094 26.7944 18.4281 26.7167 18.6518C26.6389 18.8754 26.5125 19.0747 26.3375 19.2497L20.2708 25.3163C20.1542 25.433 20.0229 25.5205 19.8771 25.5788C19.7313 25.6372 19.5806 25.6663 19.425 25.6663H17.5C17.1694 25.6663 16.8924 25.5545 16.6687 25.3309C16.4451 25.1073 16.3333 24.8302 16.3333 24.4997ZM18.0833 23.9163H19.1917L22.7208 20.358L22.1958 19.8038L21.6417 19.2788L18.0833 22.808V23.9163ZM22.1958 19.8038L21.6417 19.2788L22.7208 20.358L22.1958 19.8038Z" fill="black"/>
</svg>
