<svg width="28" height="28" viewBox="0 0 28 28" fill="none" xmlns="http://www.w3.org/2000/svg">
<path d="M14 25.6666C12.3862 25.6666 10.8695 25.3604 9.45004 24.7479C8.0306 24.1354 6.79587 23.3041 5.74587 22.2541C4.69587 21.2041 3.86462 19.9694 3.25212 18.55C2.63962 17.1305 2.33337 15.6139 2.33337 14C2.33337 12.3861 2.63962 10.8694 3.25212 9.44998C3.86462 8.03054 4.69587 6.79581 5.74587 5.74581C6.79587 4.69581 8.0306 3.86456 9.45004 3.25206C10.8695 2.63956 12.3862 2.33331 14 2.33331C15.6139 2.33331 17.1306 2.63956 18.55 3.25206C19.9695 3.86456 21.2042 4.69581 22.2542 5.74581C23.3042 6.79581 24.1355 8.03054 24.748 9.44998C25.3605 10.8694 25.6667 12.3861 25.6667 14C25.6667 15.6139 25.3605 17.1305 24.748 18.55C24.1355 19.9694 23.3042 21.2041 22.2542 22.2541C21.2042 23.3041 19.9695 24.1354 18.55 24.7479C17.1306 25.3604 15.6139 25.6666 14 25.6666ZM15.1667 23.2458C17.4806 22.9541 19.4202 21.9382 20.9855 20.1979C22.5507 18.4576 23.3334 16.3916 23.3334 14C23.3334 11.6083 22.5507 9.54234 20.9855 7.80206C19.4202 6.06179 17.4806 5.04581 15.1667 4.75415V23.2458Z" fill="black"/>
</svg>
