<svg width="24" height="24" viewBox="0 0 24 24" fill="none" xmlns="http://www.w3.org/2000/svg">
<path d="M10 7H17C17.2833 7 17.5208 7.09583 17.7125 7.2875C17.9042 7.47917 18 7.71667 18 8C18 8.28333 17.9042 8.52083 17.7125 8.7125C17.5208 8.90417 17.2833 9 17 9H10C9.71667 9 9.47917 8.90417 9.2875 8.7125C9.09583 8.52083 9 8.28333 9 8C9 7.71667 9.09583 7.47917 9.2875 7.2875C9.47917 7.09583 9.71667 7 10 7ZM10 10H17C17.2833 10 17.5208 10.0958 17.7125 10.2875C17.9042 10.4792 18 10.7167 18 11C18 11.2833 17.9042 11.5208 17.7125 11.7125C17.5208 11.9042 17.2833 12 17 12H10C9.71667 12 9.47917 11.9042 9.2875 11.7125C9.09583 11.5208 9 11.2833 9 11C9 10.7167 9.09583 10.4792 9.2875 10.2875C9.47917 10.0958 9.71667 10 10 10ZM6 22C5.16667 22 4.45833 21.7083 3.875 21.125C3.29167 20.5417 3 19.8333 3 19V17C3 16.7167 3.09583 16.4792 3.2875 16.2875C3.47917 16.0958 3.71667 16 4 16H6V4C6 3.45 6.19583 2.97917 6.5875 2.5875C6.97917 2.19583 7.45 2 8 2H19C19.55 2 20.0208 2.19583 20.4125 2.5875C20.8042 2.97917 21 3.45 21 4V10C21 10.2833 20.9042 10.5208 20.7125 10.7125C20.5208 10.9042 20.2833 11 20 11C19.7167 11 19.4792 10.9042 19.2875 10.7125C19.0958 10.5208 19 10.2833 19 10V4H8V16H11C11.2833 16 11.5208 16.0958 11.7125 16.2875C11.9042 16.4792 12 16.7167 12 17C12 17.2833 11.9042 17.5208 11.7125 17.7125C11.5208 17.9042 11.2833 18 11 18H5V19C5 19.2833 5.09583 19.5208 5.2875 19.7125C5.47917 19.9042 5.71667 20 6 20H11C11.2833 20 11.5208 20.0958 11.7125 20.2875C11.9042 20.4792 12 20.7167 12 21C12 21.2833 11.9042 21.5208 11.7125 21.7125C11.5208 21.9042 11.2833 22 11 22H6ZM14 21V19.35C14 19.2167 14.025 19.0875 14.075 18.9625C14.125 18.8375 14.2 18.725 14.3 18.625L19.525 13.425C19.675 13.275 19.8417 13.1667 20.025 13.1C20.2083 13.0333 20.3917 13 20.575 13C20.775 13 20.9667 13.0375 21.15 13.1125C21.3333 13.1875 21.5 13.3 21.65 13.45L22.575 14.375C22.7083 14.525 22.8125 14.6917 22.8875 14.875C22.9625 15.0583 23 15.2417 23 15.425C23 15.6083 22.9667 15.7958 22.9 15.9875C22.8333 16.1792 22.725 16.35 22.575 16.5L17.375 21.7C17.275 21.8 17.1625 21.875 17.0375 21.925C16.9125 21.975 16.7833 22 16.65 22H15C14.7167 22 14.4792 21.9042 14.2875 21.7125C14.0958 21.5208 14 21.2833 14 21ZM15.5 20.5H16.45L19.475 17.45L19.025 16.975L18.55 16.525L15.5 19.55V20.5ZM19.025 16.975L18.55 16.525L19.475 17.45L19.025 16.975Z" fill="black"/>
</svg>
