<svg width="16" height="16" viewBox="0 0 16 16" fill="none" xmlns="http://www.w3.org/2000/svg">
<path d="M6.66667 4.66634H11.3333C11.5222 4.66634 11.6806 4.73023 11.8083 4.85801C11.9361 4.98579 12 5.14412 12 5.33301C12 5.5219 11.9361 5.68023 11.8083 5.80801C11.6806 5.93579 11.5222 5.99967 11.3333 5.99967H6.66667C6.47778 5.99967 6.31944 5.93579 6.19167 5.80801C6.06389 5.68023 6 5.5219 6 5.33301C6 5.14412 6.06389 4.98579 6.19167 4.85801C6.31944 4.73023 6.47778 4.66634 6.66667 4.66634ZM6.66667 6.66634H11.3333C11.5222 6.66634 11.6806 6.73023 11.8083 6.85801C11.9361 6.98579 12 7.14412 12 7.33301C12 7.5219 11.9361 7.68023 11.8083 7.80801C11.6806 7.93579 11.5222 7.99967 11.3333 7.99967H6.66667C6.47778 7.99967 6.31944 7.93579 6.19167 7.80801C6.06389 7.68023 6 7.5219 6 7.33301C6 7.14412 6.06389 6.98579 6.19167 6.85801C6.31944 6.73023 6.47778 6.66634 6.66667 6.66634ZM4 14.6663C3.44444 14.6663 2.97222 14.4719 2.58333 14.083C2.19444 13.6941 2 13.2219 2 12.6663V11.333C2 11.1441 2.06389 10.9858 2.19167 10.858C2.31944 10.7302 2.47778 10.6663 2.66667 10.6663H4V2.66634C4 2.29967 4.13056 1.98579 4.39167 1.72467C4.65278 1.46356 4.96667 1.33301 5.33333 1.33301H12.6667C13.0333 1.33301 13.3472 1.46356 13.6083 1.72467C13.8694 1.98579 14 2.29967 14 2.66634V6.66634C14 6.85523 13.9361 7.01356 13.8083 7.14134C13.6806 7.26912 13.5222 7.33301 13.3333 7.33301C13.1444 7.33301 12.9861 7.26912 12.8583 7.14134C12.7306 7.01356 12.6667 6.85523 12.6667 6.66634V2.66634H5.33333V10.6663H7.33333C7.52222 10.6663 7.68056 10.7302 7.80833 10.858C7.93611 10.9858 8 11.1441 8 11.333C8 11.5219 7.93611 11.6802 7.80833 11.808C7.68056 11.9358 7.52222 11.9997 7.33333 11.9997H3.33333V12.6663C3.33333 12.8552 3.39722 13.0136 3.525 13.1413C3.65278 13.2691 3.81111 13.333 4 13.333H7.33333C7.52222 13.333 7.68056 13.3969 7.80833 13.5247C7.93611 13.6525 8 13.8108 8 13.9997C8 14.1886 7.93611 14.3469 7.80833 14.4747C7.68056 14.6025 7.52222 14.6663 7.33333 14.6663H4ZM9.33333 13.9997V12.8997C9.33333 12.8108 9.35 12.7247 9.38333 12.6413C9.41667 12.558 9.46667 12.483 9.53333 12.4163L13.0167 8.94967C13.1167 8.84967 13.2278 8.77745 13.35 8.73301C13.4722 8.68856 13.5944 8.66634 13.7167 8.66634C13.85 8.66634 13.9778 8.69134 14.1 8.74134C14.2222 8.79134 14.3333 8.86634 14.4333 8.96634L15.05 9.58301C15.1389 9.68301 15.2083 9.79412 15.2583 9.91634C15.3083 10.0386 15.3333 10.1608 15.3333 10.283C15.3333 10.4052 15.3111 10.5302 15.2667 10.658C15.2222 10.7858 15.15 10.8997 15.05 10.9997L11.5833 14.4663C11.5167 14.533 11.4417 14.583 11.3583 14.6163C11.275 14.6497 11.1889 14.6663 11.1 14.6663H10C9.81111 14.6663 9.65278 14.6025 9.525 14.4747C9.39722 14.3469 9.33333 14.1886 9.33333 13.9997ZM10.3333 13.6663H10.9667L12.9833 11.633L12.6833 11.3163L12.3667 11.0163L10.3333 13.033V13.6663ZM12.6833 11.3163L12.3667 11.0163L12.9833 11.633L12.6833 11.3163Z" fill="black"/>
</svg>
