<svg width="16" height="16" viewBox="0 0 16 16" fill="none" xmlns="http://www.w3.org/2000/svg">
<path d="M8.00004 14.6666C7.07782 14.6666 6.21115 14.4916 5.40004 14.1416C4.58893 13.7916 3.88337 13.3166 3.28337 12.7166C2.68337 12.1166 2.20837 11.4111 1.85837 10.6C1.50837 9.78887 1.33337 8.9222 1.33337 7.99998C1.33337 7.07776 1.50837 6.21109 1.85837 5.39998C2.20837 4.58887 2.68337 3.88331 3.28337 3.28331C3.88337 2.68331 4.58893 2.20831 5.40004 1.85831C6.21115 1.50831 7.07782 1.33331 8.00004 1.33331C8.92226 1.33331 9.78893 1.50831 10.6 1.85831C11.4112 2.20831 12.1167 2.68331 12.7167 3.28331C13.3167 3.88331 13.7917 4.58887 14.1417 5.39998C14.4917 6.21109 14.6667 7.07776 14.6667 7.99998C14.6667 8.9222 14.4917 9.78887 14.1417 10.6C13.7917 11.4111 13.3167 12.1166 12.7167 12.7166C12.1167 13.3166 11.4112 13.7916 10.6 14.1416C9.78893 14.4916 8.92226 14.6666 8.00004 14.6666ZM8.66671 13.2833C9.98893 13.1166 11.0973 12.5361 11.9917 11.5416C12.8862 10.5472 13.3334 9.36665 13.3334 7.99998C13.3334 6.63331 12.8862 5.45276 11.9917 4.45831C11.0973 3.46387 9.98893 2.88331 8.66671 2.71665V13.2833Z" fill="black"/>
</svg>
