<svg width="16" height="16" viewBox="0 0 16 16" fill="none" xmlns="http://www.w3.org/2000/svg">
<path d="M14 14V3.33333H2.00001V8C2.00001 8.18889 1.93612 8.34722 1.80834 8.475C1.68056 8.60278 1.52223 8.66667 1.33334 8.66667C1.14445 8.66667 0.986116 8.60278 0.858338 8.475C0.730561 8.34722 0.666672 8.18889 0.666672 8V3.33333C0.666672 2.96667 0.797227 2.65278 1.05834 2.39167C1.31945 2.13056 1.63334 2 2.00001 2H14C14.3667 2 14.6806 2.13056 14.9417 2.39167C15.2028 2.65278 15.3333 2.96667 15.3333 3.33333V12.6667C15.3333 13.0333 15.2028 13.3472 14.9417 13.6083C14.6806 13.8694 14.3667 14 14 14ZM4.11667 8.55C3.59445 8.02778 3.33334 7.4 3.33334 6.66667C3.33334 5.93333 3.59445 5.30556 4.11667 4.78333C4.63889 4.26111 5.26667 4 6.00001 4C6.73334 4 7.36112 4.26111 7.88334 4.78333C8.40556 5.30556 8.66667 5.93333 8.66667 6.66667C8.66667 7.4 8.40556 8.02778 7.88334 8.55C7.36112 9.07222 6.73334 9.33333 6.00001 9.33333C5.26667 9.33333 4.63889 9.07222 4.11667 8.55ZM6.94167 7.60833C7.20278 7.34722 7.33334 7.03333 7.33334 6.66667C7.33334 6.3 7.20278 5.98611 6.94167 5.725C6.68056 5.46389 6.36667 5.33333 6.00001 5.33333C5.63334 5.33333 5.31945 5.46389 5.05834 5.725C4.79723 5.98611 4.66667 6.3 4.66667 6.66667C4.66667 7.03333 4.79723 7.34722 5.05834 7.60833C5.31945 7.86944 5.63334 8 6.00001 8C6.36667 8 6.68056 7.86944 6.94167 7.60833ZM2.00001 14.6667C1.63334 14.6667 1.31945 14.5361 1.05834 14.275C0.797227 14.0139 0.666672 13.7 0.666672 13.3333V12.8C0.666672 12.4222 0.763894 12.075 0.958338 11.7583C1.15278 11.4417 1.41112 11.2 1.73334 11.0333C2.42223 10.6889 3.12223 10.4306 3.83334 10.2583C4.54445 10.0861 5.26667 10 6.00001 10C6.73334 10 7.45556 10.0861 8.16667 10.2583C8.87778 10.4306 9.57778 10.6889 10.2667 11.0333C10.5889 11.2 10.8472 11.4417 11.0417 11.7583C11.2361 12.075 11.3333 12.4222 11.3333 12.8V13.3333C11.3333 13.7 11.2028 14.0139 10.9417 14.275C10.6806 14.5361 10.3667 14.6667 10 14.6667H2.00001ZM2.00001 13.3333H10V12.8C10 12.6778 9.96945 12.5667 9.90834 12.4667C9.84723 12.3667 9.76667 12.2889 9.66667 12.2333C9.06667 11.9333 8.46112 11.7083 7.85001 11.5583C7.23889 11.4083 6.62223 11.3333 6.00001 11.3333C5.37778 11.3333 4.76112 11.4083 4.15001 11.5583C3.53889 11.7083 2.93334 11.9333 2.33334 12.2333C2.23334 12.2889 2.15278 12.3667 2.09167 12.4667C2.03056 12.5667 2.00001 12.6778 2.00001 12.8V13.3333Z" fill="black"/>
</svg>
