<svg width="28" height="28" viewBox="0 0 28 28" fill="none" xmlns="http://www.w3.org/2000/svg">
<path d="M24.5 24.5V5.83333H3.5V14C3.5 14.3306 3.38819 14.6076 3.16458 14.8312C2.94097 15.0549 2.66389 15.1667 2.33333 15.1667C2.00278 15.1667 1.72569 15.0549 1.50208 14.8312C1.27847 14.6076 1.16667 14.3306 1.16667 14V5.83333C1.16667 5.19167 1.39514 4.64236 1.85208 4.18542C2.30903 3.72847 2.85833 3.5 3.5 3.5H24.5C25.1417 3.5 25.691 3.72847 26.1479 4.18542C26.6049 4.64236 26.8333 5.19167 26.8333 5.83333V22.1667C26.8333 22.8083 26.6049 23.3576 26.1479 23.8146C25.691 24.2715 25.1417 24.5 24.5 24.5ZM7.20417 14.9625C6.29028 14.0486 5.83333 12.95 5.83333 11.6667C5.83333 10.3833 6.29028 9.28472 7.20417 8.37083C8.11806 7.45694 9.21667 7 10.5 7C11.7833 7 12.8819 7.45694 13.7958 8.37083C14.7097 9.28472 15.1667 10.3833 15.1667 11.6667C15.1667 12.95 14.7097 14.0486 13.7958 14.9625C12.8819 15.8764 11.7833 16.3333 10.5 16.3333C9.21667 16.3333 8.11806 15.8764 7.20417 14.9625ZM12.1479 13.3146C12.6049 12.8576 12.8333 12.3083 12.8333 11.6667C12.8333 11.025 12.6049 10.4757 12.1479 10.0187C11.691 9.56181 11.1417 9.33333 10.5 9.33333C9.85833 9.33333 9.30903 9.56181 8.85208 10.0187C8.39514 10.4757 8.16667 11.025 8.16667 11.6667C8.16667 12.3083 8.39514 12.8576 8.85208 13.3146C9.30903 13.7715 9.85833 14 10.5 14C11.1417 14 11.691 13.7715 12.1479 13.3146ZM3.5 25.6667C2.85833 25.6667 2.30903 25.4382 1.85208 24.9812C1.39514 24.5243 1.16667 23.975 1.16667 23.3333V22.4C1.16667 21.7389 1.33681 21.1312 1.67708 20.5771C2.01736 20.0229 2.46944 19.6 3.03333 19.3083C4.23889 18.7056 5.46389 18.2535 6.70833 17.9521C7.95278 17.6507 9.21667 17.5 10.5 17.5C11.7833 17.5 13.0472 17.6507 14.2917 17.9521C15.5361 18.2535 16.7611 18.7056 17.9667 19.3083C18.5306 19.6 18.9826 20.0229 19.3229 20.5771C19.6632 21.1312 19.8333 21.7389 19.8333 22.4V23.3333C19.8333 23.975 19.6049 24.5243 19.1479 24.9812C18.691 25.4382 18.1417 25.6667 17.5 25.6667H3.5ZM3.5 23.3333H17.5V22.4C17.5 22.1861 17.4465 21.9917 17.3396 21.8167C17.2326 21.6417 17.0917 21.5056 16.9167 21.4083C15.8667 20.8833 14.8069 20.4896 13.7375 20.2271C12.6681 19.9646 11.5889 19.8333 10.5 19.8333C9.41111 19.8333 8.33194 19.9646 7.2625 20.2271C6.19306 20.4896 5.13333 20.8833 4.08333 21.4083C3.90833 21.5056 3.76736 21.6417 3.66042 21.8167C3.55347 21.9917 3.5 22.1861 3.5 22.4V23.3333Z" fill="black"/>
</svg>
