<svg width="28" height="28" viewBox="0 0 28 28" fill="none" xmlns="http://www.w3.org/2000/svg">
<path d="M10.5 21C9.85833 21 9.30922 20.7717 8.85267 20.3152C8.39533 19.8578 8.16667 19.3083 8.16667 18.6667V4.66668C8.16667 4.02501 8.39533 3.47551 8.85267 3.01818C9.30922 2.56162 9.85833 2.33334 10.5 2.33334H21C21.6417 2.33334 22.1912 2.56162 22.6485 3.01818C23.1051 3.47551 23.3333 4.02501 23.3333 4.66668V18.6667C23.3333 19.3083 23.1051 19.8578 22.6485 20.3152C22.1912 20.7717 21.6417 21 21 21H10.5ZM5.83333 25.6667C5.19167 25.6667 4.64217 25.4384 4.18483 24.9818C3.72828 24.5245 3.5 23.975 3.5 23.3333V8.16668C3.5 7.83612 3.612 7.55884 3.836 7.33484C4.05922 7.11162 4.33611 7.00001 4.66667 7.00001C4.99722 7.00001 5.2745 7.11162 5.4985 7.33484C5.72172 7.55884 5.83333 7.83612 5.83333 8.16668V23.3333H17.5C17.8306 23.3333 18.1078 23.4453 18.3318 23.6693C18.5551 23.8926 18.6667 24.1695 18.6667 24.5C18.6667 24.8306 18.5551 25.1075 18.3318 25.3307C18.1078 25.5547 17.8306 25.6667 17.5 25.6667H5.83333Z" fill="black"/>
</svg>
