<svg width="16" height="16" viewBox="0 0 16 16" fill="none" xmlns="http://www.w3.org/2000/svg">
<path d="M6 12C5.63333 12 5.31956 11.8696 5.05867 11.6087C4.79733 11.3473 4.66667 11.0333 4.66667 10.6667V2.66668C4.66667 2.30001 4.79733 1.98601 5.05867 1.72468C5.31956 1.46379 5.63333 1.33334 6 1.33334H12C12.3667 1.33334 12.6807 1.46379 12.942 1.72468C13.2029 1.98601 13.3333 2.30001 13.3333 2.66668V10.6667C13.3333 11.0333 13.2029 11.3473 12.942 11.6087C12.6807 11.8696 12.3667 12 12 12H6ZM3.33333 14.6667C2.96667 14.6667 2.65267 14.5362 2.39133 14.2753C2.13044 14.014 2 13.7 2 13.3333V4.66668C2 4.47779 2.064 4.31934 2.192 4.19134C2.31956 4.06379 2.47778 4.00001 2.66667 4.00001C2.85556 4.00001 3.014 4.06379 3.142 4.19134C3.26956 4.31934 3.33333 4.47779 3.33333 4.66668V13.3333H10C10.1889 13.3333 10.3473 13.3973 10.4753 13.5253C10.6029 13.6529 10.6667 13.8111 10.6667 14C10.6667 14.1889 10.6029 14.3471 10.4753 14.4747C10.3473 14.6027 10.1889 14.6667 10 14.6667H3.33333Z" fill="black"/>
</svg>
