<svg width="28" height="28" viewBox="0 0 28 28" fill="none" xmlns="http://www.w3.org/2000/svg">
<path d="M10.5 20.9999C9.85833 20.9999 9.30922 20.7716 8.85267 20.3151C8.39533 19.8578 8.16667 19.3083 8.16667 18.6666V4.66659C8.16667 4.02492 8.39533 3.47542 8.85267 3.01809C9.30922 2.56153 9.85833 2.33325 10.5 2.33325H21C21.6417 2.33325 22.1912 2.56153 22.6485 3.01809C23.1051 3.47542 23.3333 4.02492 23.3333 4.66659V18.6666C23.3333 19.3083 23.1051 19.8578 22.6485 20.3151C22.1912 20.7716 21.6417 20.9999 21 20.9999H10.5ZM10.5 18.6666H21V4.66659H10.5V18.6666ZM5.83333 25.6666C5.19167 25.6666 4.64217 25.4383 4.18483 24.9818C3.72828 24.5244 3.5 23.9749 3.5 23.3333V8.16659C3.5 7.83603 3.612 7.55875 3.836 7.33475C4.05922 7.11153 4.33611 6.99992 4.66667 6.99992C4.99722 6.99992 5.2745 7.11153 5.4985 7.33475C5.72172 7.55875 5.83333 7.83603 5.83333 8.16659V23.3333H17.5C17.8306 23.3333 18.1078 23.4453 18.3318 23.6693C18.5551 23.8925 18.6667 24.1694 18.6667 24.4999C18.6667 24.8305 18.5551 25.1074 18.3318 25.3306C18.1078 25.5546 17.8306 25.6666 17.5 25.6666H5.83333Z" fill="black"/>
</svg>
