<svg width="16" height="16" viewBox="0 0 16 16" fill="none" xmlns="http://www.w3.org/2000/svg">
<g clip-path="url(#clip0_1497_19)">
<path d="M11.3334 9.99984V4.6665H6.00002V3.33317H11.3334C11.7 3.33317 12.0139 3.46373 12.275 3.72484C12.5361 3.98595 12.6667 4.29984 12.6667 4.6665V9.99984H11.3334ZM12 15.3332C11.8111 15.3332 11.6528 15.2693 11.525 15.1415C11.3972 15.0137 11.3334 14.8554 11.3334 14.6665V12.6665H4.66669C4.30002 12.6665 3.98613 12.5359 3.72502 12.2748C3.46391 12.0137 3.33335 11.6998 3.33335 11.3332V4.6665H1.33335C1.14446 4.6665 0.986131 4.60262 0.858354 4.47484C0.730576 4.34706 0.666687 4.18873 0.666687 3.99984C0.666687 3.81095 0.730576 3.65262 0.858354 3.52484C0.986131 3.39706 1.14446 3.33317 1.33335 3.33317H3.33335V1.33317C3.33335 1.14428 3.39724 0.985948 3.52502 0.858171C3.6528 0.730393 3.81113 0.666504 4.00002 0.666504C4.18891 0.666504 4.34724 0.730393 4.47502 0.858171C4.6028 0.985948 4.66669 1.14428 4.66669 1.33317V11.3332H14.6667C14.8556 11.3332 15.0139 11.3971 15.1417 11.5248C15.2695 11.6526 15.3334 11.8109 15.3334 11.9998C15.3334 12.1887 15.2695 12.3471 15.1417 12.4748C15.0139 12.6026 14.8556 12.6665 14.6667 12.6665H12.6667V14.6665C12.6667 14.8554 12.6028 15.0137 12.475 15.1415C12.3472 15.2693 12.1889 15.3332 12 15.3332Z" fill="black"/>
</g>
<defs>
<clipPath id="clip0_1497_19">
<rect width="16" height="16" fill="white"/>
</clipPath>
</defs>
</svg>
