<svg width="28" height="28" viewBox="0 0 28 28" fill="none" xmlns="http://www.w3.org/2000/svg">
<path d="M19.8334 17.4998V8.1665H10.5V5.83317H19.8334C20.475 5.83317 21.0243 6.06164 21.4813 6.51859C21.9382 6.97553 22.1667 7.52484 22.1667 8.1665V17.4998H19.8334ZM21 26.8332C20.6695 26.8332 20.3924 26.7214 20.1688 26.4978C19.9452 26.2741 19.8334 25.9971 19.8334 25.6665V22.1665H8.16669C7.52502 22.1665 6.97571 21.938 6.51877 21.4811C6.06183 21.0241 5.83335 20.4748 5.83335 19.8332V8.1665H2.33335C2.0028 8.1665 1.72571 8.0547 1.5021 7.83109C1.27849 7.60748 1.16669 7.33039 1.16669 6.99984C1.16669 6.66928 1.27849 6.3922 1.5021 6.16859C1.72571 5.94498 2.0028 5.83317 2.33335 5.83317H5.83335V2.33317C5.83335 2.00261 5.94516 1.72553 6.16877 1.50192C6.39238 1.27831 6.66946 1.1665 7.00002 1.1665C7.33058 1.1665 7.60766 1.27831 7.83127 1.50192C8.05488 1.72553 8.16669 2.00261 8.16669 2.33317V19.8332H25.6667C25.9972 19.8332 26.2743 19.945 26.4979 20.1686C26.7215 20.3922 26.8334 20.6693 26.8334 20.9998C26.8334 21.3304 26.7215 21.6075 26.4979 21.8311C26.2743 22.0547 25.9972 22.1665 25.6667 22.1665H22.1667V25.6665C22.1667 25.9971 22.0549 26.2741 21.8313 26.4978C21.6077 26.7214 21.3306 26.8332 21 26.8332Z" fill="black"/>
</svg>
