<svg width="24" height="24" viewBox="0 0 24 24" fill="none" xmlns="http://www.w3.org/2000/svg">
<path d="M17 15V7H9V5H17C17.55 5 18.0208 5.19583 18.4125 5.5875C18.8042 5.97917 19 6.45 19 7V15H17ZM18 23C17.7167 23 17.4792 22.9042 17.2875 22.7125C17.0958 22.5208 17 22.2833 17 22V19H7C6.45 19 5.97917 18.8042 5.5875 18.4125C5.19583 18.0208 5 17.55 5 17V7H2C1.71667 7 1.47917 6.90417 1.2875 6.7125C1.09583 6.52083 1 6.28333 1 6C1 5.71667 1.09583 5.47917 1.2875 5.2875C1.47917 5.09583 1.71667 5 2 5H5V2C5 1.71667 5.09583 1.47917 5.2875 1.2875C5.47917 1.09583 5.71667 1 6 1C6.28333 1 6.52083 1.09583 6.7125 1.2875C6.90417 1.47917 7 1.71667 7 2V17H22C22.2833 17 22.5208 17.0958 22.7125 17.2875C22.9042 17.4792 23 17.7167 23 18C23 18.2833 22.9042 18.5208 22.7125 18.7125C22.5208 18.9042 22.2833 19 22 19H19V22C19 22.2833 18.9042 22.5208 18.7125 22.7125C18.5208 22.9042 18.2833 23 18 23Z" fill="black"/>
</svg>
