<svg width="28" height="28" viewBox="0 0 28 28" fill="none" xmlns="http://www.w3.org/2000/svg">
<path d="M14 24.5C11.0639 24.5 8.57967 23.4838 6.54733 21.4515C4.51578 19.4199 3.5 16.9361 3.5 14C3.5 11.3166 4.375 8.98797 6.125 7.01397C7.875 5.04075 10.1111 3.88886 12.8333 3.5583C13.3194 3.49997 13.6986 3.67497 13.9708 4.0833C14.2431 4.49163 14.2333 4.91941 13.9417 5.36663C13.6111 5.87219 13.363 6.40691 13.1973 6.9708C13.0324 7.53469 12.95 8.12774 12.95 8.74997C12.95 10.5 13.5625 11.9875 14.7875 13.2125C16.0125 14.4375 17.5 15.05 19.25 15.05C19.8528 15.05 20.4509 14.9625 21.0443 14.7875C21.637 14.6125 22.1667 14.3694 22.6333 14.0583C23.0417 13.7861 23.4597 13.7713 23.8875 14.014C24.3153 14.2574 24.5 14.6416 24.4417 15.1666C24.1694 17.85 23.0273 20.0764 21.0152 21.8458C19.0023 23.6152 16.6639 24.5 14 24.5ZM14 22.1666C15.7111 22.1666 17.2472 21.6953 18.6083 20.7526C19.9694 19.8092 20.9611 18.5791 21.5833 17.0625C21.1944 17.1597 20.8056 17.2375 20.4167 17.2958C20.0278 17.3541 19.6389 17.3833 19.25 17.3833C16.8583 17.3833 14.8213 16.5425 13.139 14.861C11.4574 13.1786 10.6167 11.1416 10.6167 8.74997C10.6167 8.36108 10.6458 7.97219 10.7042 7.5833C10.7625 7.19441 10.8403 6.80552 10.9375 6.41663C9.42083 7.03886 8.19117 8.03052 7.2485 9.39163C6.30506 10.7527 5.83333 12.2889 5.83333 14C5.83333 16.2555 6.63056 18.1805 8.225 19.775C9.81944 21.3694 11.7444 22.1666 14 22.1666Z" fill="black"/>
</svg>
