<svg width="24" height="24" viewBox="0 0 24 24" fill="none" xmlns="http://www.w3.org/2000/svg">
<path d="M12 20.9999C9.48333 20.9999 7.354 20.1289 5.612 18.3869C3.87067 16.6456 3 14.5166 3 11.9999C3 9.6999 3.75 7.7039 5.25 6.0119C6.75 4.32057 8.66667 3.33324 11 3.0499C11.4167 2.9999 11.7417 3.1499 11.975 3.4999C12.2083 3.8499 12.2 4.21657 11.95 4.5999C11.6667 5.03324 11.454 5.49157 11.312 5.9749C11.1707 6.45824 11.1 6.96657 11.1 7.4999C11.1 8.9999 11.625 10.2749 12.675 11.3249C13.725 12.3749 15 12.8999 16.5 12.8999C17.0167 12.8999 17.5293 12.8249 18.038 12.6749C18.546 12.5249 19 12.3166 19.4 12.0499C19.75 11.8166 20.1083 11.8039 20.475 12.0119C20.8417 12.2206 21 12.5499 20.95 12.9999C20.7167 15.2999 19.7377 17.2082 18.013 18.7249C16.2877 20.2416 14.2833 20.9999 12 20.9999ZM12 18.9999C13.4667 18.9999 14.7833 18.5959 15.95 17.7879C17.1167 16.9792 17.9667 15.9249 18.5 14.6249C18.1667 14.7082 17.8333 14.7749 17.5 14.8249C17.1667 14.8749 16.8333 14.8999 16.5 14.8999C14.45 14.8999 12.704 14.1792 11.262 12.7379C9.82067 11.2959 9.1 9.5499 9.1 7.4999C9.1 7.16657 9.125 6.83324 9.175 6.4999C9.225 6.16657 9.29167 5.83324 9.375 5.4999C8.075 6.03324 7.021 6.88324 6.213 8.0499C5.40433 9.21657 5 10.5332 5 11.9999C5 13.9332 5.68333 15.5832 7.05 16.9499C8.41667 18.3166 10.0667 18.9999 12 18.9999Z" fill="black"/>
</svg>
