<svg width="16" height="16" viewBox="0 0 16 16" fill="none" xmlns="http://www.w3.org/2000/svg">
<path d="M10 13.3333q-0.2833 0-0.475-0.1916T9.3333 12.6667q0-0.2833 0.1917-0.475T10 12h1.3333q0.2833 0 0.475-0.1917T12 11.3333v-1.3333q0-0.6333 0.3667-1.15t0.9666-0.7333v-0.2334q-0.6-0.2167-0.9666-0.7333t-0.3667-1.15v-1.3333q0-0.2833-0.1917-0.475T11.3333 4h-1.3333q-0.2833 0-0.475-0.1917T9.3333 3.3333q0-0.2833 0.1917-0.475T10 2.6667h1.3333q0.8333 0 1.4167 0.5833t0.5833 1.4167v1.3333q0 0.2833 0.1917 0.475T14 6.6667t0.475 0.1916Q14.6667 7.05 14.6667 7.3333v1.3334q0 0.2833-0.1917 0.475T14 9.3333t-0.475 0.1917Q13.3333 9.7167 13.3333 10v1.3333q0 0.8333-0.5833 1.4167t-1.4167 0.5833h-1.3333Zm-5.3333 0q-0.8333 0-1.4167-0.5833t-0.5833-1.4167v-1.3333q0-0.2833-0.1917-0.475T2 9.3333t-0.475-0.1916Q1.3333 8.95 1.3333 8.6667v-1.3334q0-0.2833 0.1917-0.475T2 6.6667t0.475-0.1917Q2.6667 6.2833 2.6667 6v-1.3333q0-0.8333 0.5833-1.4167t1.4167-0.5833h1.3333q0.2833 0 0.475 0.1916T6.6667 3.3333q0 0.2833-0.1917 0.475T6 4h-1.3333q-0.2833 0-0.475 0.1917T4 4.6667v1.3333q0 0.6333-0.3667 1.15t-0.9666 0.7333v0.2334q0.6 0.2167 0.9666 0.7333t0.3667 1.15v1.3333q0 0.2833 0.1917 0.475T4.6667 12h1.3333q0.2833 0 0.475 0.1917T6.6667 12.6667q0 0.2833-0.1917 0.475T6 13.3333h-1.3333Z" fill="black"/>
</svg>
