<svg width="24" height="24" viewBox="0 0 24 24" fill="none" xmlns="http://www.w3.org/2000/svg">
<path d="M15 20q-0.425 0-0.7125-0.2875T14 19q0-0.425 0.2875-0.7125T15 18h2q0.425 0 0.7125-0.2875T18 17v-2q0-0.95 0.55-1.725t1.45-1.1v-0.35q-0.9-0.325-1.45-1.1t-0.55-1.725v-2q0-0.425-0.2875-0.7125T17 6h-2q-0.425 0-0.7125-0.2875T14 5q0-0.425 0.2875-0.7125T15 4h2q1.25 0 2.125 0.875t0.875 2.125v2q0 0.425 0.2875 0.7125T21 10t0.7125 0.2875Q22 10.575 22 11v2q0 0.425-0.2875 0.7125T21 14t-0.7125 0.2875Q20 14.575 20 15v2q0 1.25-0.875 2.125t-2.125 0.875h-2Zm-8 0q-1.25 0-2.125-0.875t-0.875-2.125v-2q0-0.425-0.2875-0.7125T3 14t-0.7125-0.2875Q2 13.425 2 13v-2q0-0.425 0.2875-0.7125T3 10t0.7125-0.2875Q4 9.425 4 9v-2q0-1.25 0.875-2.125t2.125-0.875h2q0.425 0 0.7125 0.2875T10 5q0 0.425-0.2875 0.7125T9 6h-2q-0.425 0-0.7125 0.2875T6 7v2q0 0.95-0.55 1.725t-1.45 1.1v0.35q0.9 0.325 1.45 1.1t0.55 1.725v2q0 0.425 0.2875 0.7125T7 18h2q0.425 0 0.7125 0.2875T10 19q0 0.425-0.2875 0.7125T9 20h-2Z" fill="black"/>
</svg>
