<svg width="28" height="28" viewBox="0 0 28 28" fill="none" xmlns="http://www.w3.org/2000/svg">
<path d="M17.5 23.3333q-0.4958 0-0.8313-0.3354T16.3333 22.1667q0-0.4958 0.3354-0.8313T17.5 21h2.3333q0.4958 0 0.8313-0.3354T21 19.8333v-2.3333q0-1.1083 0.6417-2.0125t1.6916-1.2833v-0.4084q-1.05-0.3792-1.6916-1.2833t-0.6417-2.0125v-2.3333q0-0.4958-0.3354-0.8313T19.8333 7h-2.3333q-0.4958 0-0.8313-0.3354T16.3333 5.8333q0-0.4958 0.3354-0.8312T17.5 4.6667h2.3333q1.4583 0 2.4792 1.0208t1.0208 2.4792v2.3333q0 0.4958 0.3355 0.8313T24.5 11.6667t0.8313 0.3354Q25.6667 12.3375 25.6667 12.8333v2.3334q0 0.4958-0.3354 0.8312T24.5 16.3333t-0.8313 0.3355Q23.3333 17.0042 23.3333 17.5v2.3333q0 1.4583-1.0208 2.4792t-2.4792 1.0208h-2.3333Zm-9.3333 0q-1.4583 0-2.4792-1.0208t-1.0208-2.4792v-2.3333q0-0.4958-0.3355-0.8313T3.5 16.3333t-0.8313-0.3354Q2.3333 15.6625 2.3333 15.1667v-2.3334q0-0.4958 0.3355-0.8312T3.5 11.6667t0.8313-0.3354Q4.6667 10.9958 4.6667 10.5v-2.3333q0-1.4583 1.0208-2.4792t2.4792-1.0208h2.3333q0.4958 0 0.8313 0.3354T11.6667 5.8333q0 0.4958-0.3355 0.8313T10.5 7h-2.3333q-0.4958 0-0.8313 0.3354T7 8.1667v2.3333q0 1.1083-0.6417 2.0125t-1.6916 1.2833v0.4084q1.05 0.3792 1.6916 1.2833t0.6417 2.0125v2.3333q0 0.4958 0.3354 0.8313T8.1667 21h2.3333q0.4958 0 0.8312 0.3354T11.6667 22.1667q0 0.4958-0.3355 0.8312T10.5 23.3333h-2.3333Z" fill="black"/>
</svg>
