<svg width="16" height="16" viewBox="0 0 16 16" fill="none" xmlns="http://www.w3.org/2000/svg">
<path d="M12.6667 2.66671H12V2.00004C12 1.63337 11.7 1.33337 11.3333 1.33337C10.9667 1.33337 10.6667 1.63337 10.6667 2.00004V2.66671H5.33333V2.00004C5.33333 1.63337 5.03333 1.33337 4.66667 1.33337C4.3 1.33337 4 1.63337 4 2.00004V2.66671H3.33333C2.59333 2.66671 2.00667 3.26671 2.00667 4.00004L2 13.3334C2 14.0667 2.59333 14.6667 3.33333 14.6667H12.6667C13.4 14.6667 14 14.0667 14 13.3334V4.00004C14 3.26671 13.4 2.66671 12.6667 2.66671ZM12.6667 12.6667C12.6667 13.0334 12.3667 13.3334 12 13.3334H4C3.63333 13.3334 3.33333 13.0334 3.33333 12.6667V6.00004H12.6667V12.6667ZM4.66667 7.33337H6V8.66671H4.66667V7.33337ZM7.33333 7.33337H8.66667V8.66671H7.33333V7.33337ZM10 7.33337H11.3333V8.66671H10V7.33337Z" fill="black"/>
</svg>
