<svg width="28" height="28" viewBox="0 0 28 28" fill="none" xmlns="http://www.w3.org/2000/svg">
<path d="M22.1667 4.66671H21V3.50004C21 2.85837 20.475 2.33337 19.8333 2.33337C19.1917 2.33337 18.6667 2.85837 18.6667 3.50004V4.66671H9.33333V3.50004C9.33333 2.85837 8.80833 2.33337 8.16667 2.33337C7.525 2.33337 7 2.85837 7 3.50004V4.66671H5.83333C4.53833 4.66671 3.51167 5.71671 3.51167 7.00004L3.5 23.3334C3.5 24.6167 4.53833 25.6667 5.83333 25.6667H22.1667C23.45 25.6667 24.5 24.6167 24.5 23.3334V7.00004C24.5 5.71671 23.45 4.66671 22.1667 4.66671ZM22.1667 22.1667C22.1667 22.8084 21.6417 23.3334 21 23.3334H7C6.35833 23.3334 5.83333 22.8084 5.83333 22.1667V10.5H22.1667V22.1667ZM8.16667 12.8334H10.5V15.1667H8.16667V12.8334ZM12.8333 12.8334H15.1667V15.1667H12.8333V12.8334ZM17.5 12.8334H19.8333V15.1667H17.5V12.8334Z" fill="black"/>
</svg>
