<svg width="16" height="16" viewBox="0 0 16 16" fill="none" xmlns="http://www.w3.org/2000/svg">
<path d="M5.66668 2.66667H4.16668C3.70644 2.66667 3.33334 3.03976 3.33334 3.5C3.33334 3.96024 3.70644 4.33333 4.16668 4.33333H11.8333C12.2936 4.33333 12.6667 3.96024 12.6667 3.5C12.6667 3.03976 12.2936 2.66667 11.8333 2.66667H10.3333L9.86194 2.19526C9.73691 2.07024 9.56734 2 9.39053 2H6.60949C6.43267 2 6.26311 2.07024 6.13808 2.19526L5.66668 2.66667Z" fill="black"/>
<path d="M5.33334 5.33333H10.6667C11.4031 5.33333 12 5.93029 12 6.66667V12.6667C12 13.403 11.4031 14 10.6667 14H5.33334C4.59696 14 4.00001 13.403 4.00001 12.6667V6.66667C4.00001 5.93029 4.59696 5.33333 5.33334 5.33333Z" fill="black"/>
</svg>
