<svg width="24" height="24" viewBox="0 0 24 24" fill="none" xmlns="http://www.w3.org/2000/svg">
<path d="M8.5 4H6.25C5.55964 4 5 4.55964 5 5.25C5 5.94036 5.55964 6.5 6.25 6.5H17.75C18.4404 6.5 19 5.94036 19 5.25C19 4.55964 18.4404 4 17.75 4H15.5L14.7929 3.29289C14.6054 3.10536 14.351 3 14.0858 3H9.91421C9.649 3 9.39464 3.10536 9.20711 3.29289L8.5 4Z" fill="black"/>
<path d="M8 8H16C17.1046 8 18 8.89543 18 10V19C18 20.1046 17.1046 21 16 21H8C6.89543 21 6 20.1046 6 19V10C6 8.89543 6.89543 8 8 8Z" fill="black"/>
</svg>
