<svg width="28" height="28" viewBox="0 0 28 28" fill="none" xmlns="http://www.w3.org/2000/svg">
<path d="M9.91668 4.66667H7.29168C6.48626 4.66667 5.83334 5.31958 5.83334 6.125C5.83334 6.93042 6.48626 7.58333 7.29168 7.58333H20.7083C21.5138 7.58333 22.1667 6.93042 22.1667 6.125C22.1667 5.31958 21.5138 4.66667 20.7083 4.66667H18.0833L17.2584 3.84171C17.0396 3.62292 16.7428 3.5 16.4334 3.5H11.5666C11.2572 3.5 10.9604 3.62292 10.7416 3.84171L9.91668 4.66667Z" fill="black"/>
<path d="M9.33334 9.33333H18.6667C19.9553 9.33333 21 10.378 21 11.6667V22.1667C21 23.4553 19.9553 24.5 18.6667 24.5H9.33334C8.04468 24.5 7.00001 23.4553 7.00001 22.1667V11.6667C7.00001 10.378 8.04468 9.33333 9.33334 9.33333Z" fill="black"/>
</svg>
