<svg width="28" height="28" viewBox="0 0 28 28" fill="none" xmlns="http://www.w3.org/2000/svg">
<path d="M8.16669 24.5C7.52502 24.5 6.97591 24.2717 6.51935 23.8152C6.06202 23.3578 5.83335 22.8083 5.83335 22.1667V7C5.5028 7 5.22552 6.88839 5.00152 6.66517C4.7783 6.44117 4.66669 6.16389 4.66669 5.83333C4.66669 5.50278 4.7783 5.2255 5.00152 5.0015C5.22552 4.77828 5.5028 4.66667 5.83335 4.66667H10.5C10.5 4.33611 10.612 4.05883 10.836 3.83483C11.0592 3.61161 11.3361 3.5 11.6667 3.5H16.3334C16.6639 3.5 16.9412 3.61161 17.1652 3.83483C17.3884 4.05883 17.5 4.33611 17.5 4.66667H22.1667C22.4972 4.66667 22.7741 4.77828 22.9974 5.0015C23.2214 5.2255 23.3334 5.50278 23.3334 5.83333C23.3334 6.16389 23.2214 6.44117 22.9974 6.66517C22.7741 6.88839 22.4972 7 22.1667 7V22.1667C22.1667 22.8083 21.9384 23.3578 21.4819 23.8152C21.0245 24.2717 20.475 24.5 19.8334 24.5H8.16669ZM8.16669 7V22.1667H19.8334V7H8.16669ZM10.5 18.6667C10.5 18.9972 10.612 19.2741 10.836 19.4973C11.0592 19.7213 11.3361 19.8333 11.6667 19.8333C11.9972 19.8333 12.2745 19.7213 12.4985 19.4973C12.7217 19.2741 12.8334 18.9972 12.8334 18.6667V10.5C12.8334 10.1694 12.7217 9.89217 12.4985 9.66817C12.2745 9.44494 11.9972 9.33333 11.6667 9.33333C11.3361 9.33333 11.0592 9.44494 10.836 9.66817C10.612 9.89217 10.5 10.1694 10.5 10.5V18.6667ZM15.1667 18.6667C15.1667 18.9972 15.2787 19.2741 15.5027 19.4973C15.7259 19.7213 16.0028 19.8333 16.3334 19.8333C16.6639 19.8333 16.9412 19.7213 17.1652 19.4973C17.3884 19.2741 17.5 18.9972 17.5 18.6667V10.5C17.5 10.1694 17.3884 9.89217 17.1652 9.66817C16.9412 9.44494 16.6639 9.33333 16.3334 9.33333C16.0028 9.33333 15.7259 9.44494 15.5027 9.66817C15.2787 9.89217 15.1667 10.1694 15.1667 10.5V18.6667Z" fill="black"/>
</svg>
