<svg width="16" height="16" viewBox="0 0 16 16" fill="none" xmlns="http://www.w3.org/2000/svg">
<path d="M4.66669 14C4.30002 14 3.98624 13.8696 3.72535 13.6087C3.46402 13.3473 3.33335 13.0333 3.33335 12.6667V4C3.14446 4 2.98602 3.93622 2.85802 3.80867C2.73046 3.68067 2.66669 3.52222 2.66669 3.33333C2.66669 3.14444 2.73046 2.986 2.85802 2.858C2.98602 2.73044 3.14446 2.66667 3.33335 2.66667H6.00002C6.00002 2.47778 6.06402 2.31933 6.19202 2.19133C6.31958 2.06378 6.4778 2 6.66669 2H9.33335C9.52224 2 9.68069 2.06378 9.80869 2.19133C9.93624 2.31933 10 2.47778 10 2.66667H12.6667C12.8556 2.66667 13.0138 2.73044 13.1414 2.858C13.2694 2.986 13.3334 3.14444 13.3334 3.33333C13.3334 3.52222 13.2694 3.68067 13.1414 3.80867C13.0138 3.93622 12.8556 4 12.6667 4V12.6667C12.6667 13.0333 12.5362 13.3473 12.2754 13.6087C12.014 13.8696 11.7 14 11.3334 14H4.66669ZM4.66669 4V12.6667H11.3334V4H4.66669ZM6.00002 10.6667C6.00002 10.8556 6.06402 11.0138 6.19202 11.1413C6.31958 11.2693 6.4778 11.3333 6.66669 11.3333C6.85558 11.3333 7.01402 11.2693 7.14202 11.1413C7.26958 11.0138 7.33335 10.8556 7.33335 10.6667V6C7.33335 5.81111 7.26958 5.65267 7.14202 5.52467C7.01402 5.39711 6.85558 5.33333 6.66669 5.33333C6.4778 5.33333 6.31958 5.39711 6.19202 5.52467C6.06402 5.65267 6.00002 5.81111 6.00002 6V10.6667ZM8.66669 10.6667C8.66669 10.8556 8.73069 11.0138 8.85869 11.1413C8.98624 11.2693 9.14446 11.3333 9.33335 11.3333C9.52224 11.3333 9.68069 11.2693 9.80869 11.1413C9.93624 11.0138 10 10.8556 10 10.6667V6C10 5.81111 9.93624 5.65267 9.80869 5.52467C9.68069 5.39711 9.52224 5.33333 9.33335 5.33333C9.14446 5.33333 8.98624 5.39711 8.85869 5.52467C8.73069 5.65267 8.66669 5.81111 8.66669 6V10.6667Z" fill="black"/>
</svg>
