<svg width="28" height="28" viewBox="0 0 28 28" fill="none" xmlns="http://www.w3.org/2000/svg">
<path d="M12.8333 22.6624V14.6708L5.83333 10.6166V18.6083L12.8333 22.6624ZM15.1667 22.6624L22.1667 18.6083V10.6166L15.1667 14.6708V22.6624ZM14 12.6583L20.9125 8.66242L14 4.66659L7.0875 8.66242L14 12.6583ZM4.66667 20.6499C4.29722 20.436 4.01042 20.1541 3.80625 19.8041C3.60208 19.4541 3.5 19.0652 3.5 18.6374V9.36242C3.5 8.93464 3.60208 8.54575 3.80625 8.19575C4.01042 7.84575 4.29722 7.56381 4.66667 7.34992L12.8333 2.65409C13.2028 2.4402 13.5917 2.33325 14 2.33325C14.4083 2.33325 14.7972 2.4402 15.1667 2.65409L23.3333 7.34992C23.7028 7.56381 23.9896 7.84575 24.1938 8.19575C24.3979 8.54575 24.5 8.93464 24.5 9.36242V18.6374C24.5 19.0652 24.3979 19.4541 24.1938 19.8041C23.9896 20.1541 23.7028 20.436 23.3333 20.6499L15.1667 25.3458C14.7972 25.5596 14.4083 25.6666 14 25.6666C13.5917 25.6666 13.2028 25.5596 12.8333 25.3458L4.66667 20.6499Z" fill="black"/>
</svg>
