<svg width="16" height="16" viewBox="0 0 16 16" fill="none" xmlns="http://www.w3.org/2000/svg">
<path d="M7.33333 12.9499V8.38325L3.33333 6.06659V10.6333L7.33333 12.9499ZM8.66667 12.9499L12.6667 10.6333V6.06659L8.66667 8.38325V12.9499ZM8 7.23325L11.95 4.94992L8 2.66659L4.05 4.94992L8 7.23325ZM2.66667 11.7999C2.45556 11.6777 2.29167 11.5166 2.175 11.3166C2.05833 11.1166 2 10.8944 2 10.6499V5.34992C2 5.10547 2.05833 4.88325 2.175 4.68325C2.29167 4.48325 2.45556 4.32214 2.66667 4.19992L7.33333 1.51659C7.54444 1.39436 7.76667 1.33325 8 1.33325C8.23333 1.33325 8.45556 1.39436 8.66667 1.51659L13.3333 4.19992C13.5444 4.32214 13.7083 4.48325 13.825 4.68325C13.9417 4.88325 14 5.10547 14 5.34992V10.6499C14 10.8944 13.9417 11.1166 13.825 11.3166C13.7083 11.5166 13.5444 11.6777 13.3333 11.7999L8.66667 14.4833C8.45556 14.6055 8.23333 14.6666 8 14.6666C7.76667 14.6666 7.54444 14.6055 7.33333 14.4833L2.66667 11.7999Z" fill="black"/>
</svg>
