<svg width="28" height="28" viewBox="0 0 28 28" fill="none" xmlns="http://www.w3.org/2000/svg">
<path d="M10.5 21H17.5C17.8306 21 18.1079 20.888 18.3319 20.664C18.5551 20.4408 18.6667 20.1639 18.6667 19.8334C18.6667 19.5028 18.5551 19.2259 18.3319 19.0027C18.1079 18.7787 17.8306 18.6667 17.5 18.6667H10.5C10.1695 18.6667 9.89258 18.7787 9.66935 19.0027C9.44535 19.2259 9.33335 19.5028 9.33335 19.8334C9.33335 20.1639 9.44535 20.4408 9.66935 20.664C9.89258 20.888 10.1695 21 10.5 21ZM10.5 16.3334H17.5C17.8306 16.3334 18.1079 16.2214 18.3319 15.9974C18.5551 15.7742 18.6667 15.4973 18.6667 15.1667C18.6667 14.8362 18.5551 14.5589 18.3319 14.3349C18.1079 14.1117 17.8306 14 17.5 14H10.5C10.1695 14 9.89258 14.1117 9.66935 14.3349C9.44535 14.5589 9.33335 14.8362 9.33335 15.1667C9.33335 15.4973 9.44535 15.7742 9.66935 15.9974C9.89258 16.2214 10.1695 16.3334 10.5 16.3334ZM7.00002 25.6667C6.35835 25.6667 5.80924 25.4384 5.35269 24.9819C4.89535 24.5245 4.66669 23.975 4.66669 23.3334V4.66671C4.66669 4.02504 4.89535 3.47554 5.35269 3.01821C5.80924 2.56165 6.35835 2.33337 7.00002 2.33337H15.3709C15.682 2.33337 15.9787 2.39171 16.261 2.50837C16.5426 2.62504 16.7903 2.79032 17.0042 3.00421L22.6625 8.66254C22.8764 8.87643 23.0417 9.12415 23.1584 9.40571C23.275 9.68804 23.3334 9.98476 23.3334 10.2959V23.3334C23.3334 23.975 23.1051 24.5245 22.6485 24.9819C22.1912 25.4384 21.6417 25.6667 21 25.6667H7.00002ZM15.1667 9.33337V4.66671H7.00002V23.3334H21V10.5H16.3334C16.0028 10.5 15.7259 10.388 15.5027 10.164C15.2787 9.94082 15.1667 9.66393 15.1667 9.33337Z" fill="black"/>
</svg>
