<svg width="16" height="16" viewBox="0 0 16 16" fill="none" xmlns="http://www.w3.org/2000/svg">
<path d="M9.72666 1.72668C9.47332 1.47334 9.13332 1.33334 8.77999 1.33334H3.99999C3.26666 1.33334 2.66666 1.93334 2.66666 2.66668V13.3333C2.66666 14.0667 3.25999 14.6667 3.99332 14.6667H12C12.7333 14.6667 13.3333 14.0667 13.3333 13.3333V5.88668C13.3333 5.53334 13.1933 5.19334 12.94 4.94668L9.72666 1.72668ZM9.99999 12H5.99999C5.63332 12 5.33332 11.7 5.33332 11.3333C5.33332 10.9667 5.63332 10.6667 5.99999 10.6667H9.99999C10.3667 10.6667 10.6667 10.9667 10.6667 11.3333C10.6667 11.7 10.3667 12 9.99999 12ZM9.99999 9.33334H5.99999C5.63332 9.33334 5.33332 9.03334 5.33332 8.66668C5.33332 8.30001 5.63332 8.00001 5.99999 8.00001H9.99999C10.3667 8.00001 10.6667 8.30001 10.6667 8.66668C10.6667 9.03334 10.3667 9.33334 9.99999 9.33334ZM8.66666 5.33334V2.33334L12.3333 6.00001H9.33332C8.96666 6.00001 8.66666 5.70001 8.66666 5.33334Z" fill="black"/>
</svg>
