<svg width="16" height="16" viewBox="0 0 16 16" fill="none" xmlns="http://www.w3.org/2000/svg">
<path d="M6.00002 12H10C10.1889 12 10.3474 11.936 10.4754 11.808C10.6029 11.6805 10.6667 11.5223 10.6667 11.3334C10.6667 11.1445 10.6029 10.9863 10.4754 10.8587C10.3474 10.7307 10.1889 10.6667 10 10.6667H6.00002C5.81113 10.6667 5.65291 10.7307 5.52535 10.8587C5.39735 10.9863 5.33335 11.1445 5.33335 11.3334C5.33335 11.5223 5.39735 11.6805 5.52535 11.808C5.65291 11.936 5.81113 12 6.00002 12ZM6.00002 9.33337H10C10.1889 9.33337 10.3474 9.26937 10.4754 9.14137C10.6029 9.01382 10.6667 8.8556 10.6667 8.66671C10.6667 8.47782 10.6029 8.31937 10.4754 8.19137C10.3474 8.06382 10.1889 8.00004 10 8.00004H6.00002C5.81113 8.00004 5.65291 8.06382 5.52535 8.19137C5.39735 8.31937 5.33335 8.47782 5.33335 8.66671C5.33335 8.8556 5.39735 9.01382 5.52535 9.14137C5.65291 9.26937 5.81113 9.33337 6.00002 9.33337ZM4.00002 14.6667C3.63335 14.6667 3.31958 14.5363 3.05869 14.2754C2.79735 14.014 2.66669 13.7 2.66669 13.3334V2.66671C2.66669 2.30004 2.79735 1.98604 3.05869 1.72471C3.31958 1.46382 3.63335 1.33337 4.00002 1.33337H8.78335C8.96113 1.33337 9.13069 1.36671 9.29202 1.43337C9.45291 1.50004 9.59446 1.59449 9.71669 1.71671L12.95 4.95004C13.0722 5.07226 13.1667 5.21382 13.2334 5.37471C13.3 5.53604 13.3334 5.7056 13.3334 5.88337V13.3334C13.3334 13.7 13.2029 14.014 12.942 14.2754C12.6807 14.5363 12.3667 14.6667 12 14.6667H4.00002ZM8.66669 5.33337V2.66671H4.00002V13.3334H12V6.00004H9.33335C9.14446 6.00004 8.98624 5.93604 8.85869 5.80804C8.73069 5.68048 8.66669 5.52226 8.66669 5.33337Z" fill="black"/>
</svg>
