<svg width="28" height="28" viewBox="0 0 28 28" fill="none" xmlns="http://www.w3.org/2000/svg">
<path d="M17.0217 3.02168C16.5783 2.57834 15.9833 2.33334 15.365 2.33334H6.99999C5.71666 2.33334 4.66666 3.38334 4.66666 4.66668V23.3333C4.66666 24.6167 5.70499 25.6667 6.98832 25.6667H21C22.2833 25.6667 23.3333 24.6167 23.3333 23.3333V10.3017C23.3333 9.68334 23.0883 9.08834 22.645 8.65668L17.0217 3.02168ZM17.5 21H10.5C9.85832 21 9.33332 20.475 9.33332 19.8333C9.33332 19.1917 9.85832 18.6667 10.5 18.6667H17.5C18.1417 18.6667 18.6667 19.1917 18.6667 19.8333C18.6667 20.475 18.1417 21 17.5 21ZM17.5 16.3333H10.5C9.85832 16.3333 9.33332 15.8083 9.33332 15.1667C9.33332 14.525 9.85832 14 10.5 14H17.5C18.1417 14 18.6667 14.525 18.6667 15.1667C18.6667 15.8083 18.1417 16.3333 17.5 16.3333ZM15.1667 9.33334V4.08334L21.5833 10.5H16.3333C15.6917 10.5 15.1667 9.97501 15.1667 9.33334Z" fill="black"/>
</svg>
