<svg width="16" height="16" viewBox="0 0 16 16" fill="none" xmlns="http://www.w3.org/2000/svg">
<path d="M6.66665 12.6667V11.3333H2.66665C2.29998 11.3333 1.98609 11.2028 1.72498 10.9417C1.46387 10.6806 1.33331 10.3667 1.33331 10V3.33333C1.33331 2.96667 1.46387 2.65278 1.72498 2.39167C1.98609 2.13056 2.29998 2 2.66665 2H13.3333C13.7 2 14.0139 2.13056 14.275 2.39167C14.5361 2.65278 14.6666 2.96667 14.6666 3.33333V10C14.6666 10.3667 14.5361 10.6806 14.275 10.9417C14.0139 11.2028 13.7 11.3333 13.3333 11.3333H9.33331V12.6667H9.99998C10.1889 12.6667 10.3472 12.7306 10.475 12.8583C10.6028 12.9861 10.6666 13.1444 10.6666 13.3333C10.6666 13.5222 10.6028 13.6806 10.475 13.8083C10.3472 13.9361 10.1889 14 9.99998 14H5.99998C5.81109 14 5.65276 13.9361 5.52498 13.8083C5.3972 13.6806 5.33331 13.5222 5.33331 13.3333C5.33331 13.1444 5.3972 12.9861 5.52498 12.8583C5.65276 12.7306 5.81109 12.6667 5.99998 12.6667H6.66665ZM2.66665 10H13.3333V3.33333H2.66665V10Z" fill="black"/>
</svg>
