<svg width="28" height="28" viewBox="0 0 28 28" fill="none" xmlns="http://www.w3.org/2000/svg">
<path d="M11.6666 22.1667V19.8333H4.66665C4.02498 19.8333 3.47567 19.6049 3.01873 19.1479C2.56179 18.691 2.33331 18.1417 2.33331 17.5V5.83333C2.33331 5.19167 2.56179 4.64236 3.01873 4.18542C3.47567 3.72847 4.02498 3.5 4.66665 3.5H23.3333C23.975 3.5 24.5243 3.72847 24.9812 4.18542C25.4382 4.64236 25.6666 5.19167 25.6666 5.83333V17.5C25.6666 18.1417 25.4382 18.691 24.9812 19.1479C24.5243 19.6049 23.975 19.8333 23.3333 19.8333H16.3333V22.1667H17.5C17.8305 22.1667 18.1076 22.2785 18.3312 22.5021C18.5548 22.7257 18.6666 23.0028 18.6666 23.3333C18.6666 23.6639 18.5548 23.941 18.3312 24.1646C18.1076 24.3882 17.8305 24.5 17.5 24.5H10.5C10.1694 24.5 9.89234 24.3882 9.66873 24.1646C9.44512 23.941 9.33331 23.6639 9.33331 23.3333C9.33331 23.0028 9.44512 22.7257 9.66873 22.5021C9.89234 22.2785 10.1694 22.1667 10.5 22.1667H11.6666ZM4.66665 17.5H23.3333V5.83333H4.66665V17.5Z" fill="black"/>
</svg>
