<svg width="24" height="24" viewBox="0 0 24 24" fill="none" xmlns="http://www.w3.org/2000/svg">
<path d="M5 21.9997C4.45 21.9997 3.97917 21.8038 3.5875 21.4122C3.19583 21.0205 3 20.5497 3 19.9997V15.9997C3 15.4497 3.19583 14.9788 3.5875 14.5872C3.97917 14.1955 4.45 13.9997 5 13.9997H19C19.55 13.9997 20.0208 14.1955 20.4125 14.5872C20.8042 14.9788 21 15.4497 21 15.9997V19.9997C21 20.5497 20.8042 21.0205 20.4125 21.4122C20.0208 21.8038 19.55 21.9997 19 21.9997H5ZM5 19.9997H19V15.9997H5V19.9997ZM10.85 6.29967L12.8 2.84967C12.8833 2.69967 13 2.59134 13.15 2.52467C13.3 2.45801 13.45 2.44134 13.6 2.47467C13.75 2.50801 13.8792 2.57051 13.9875 2.66217C14.0958 2.75384 14.1667 2.89134 14.2 3.07467L14.85 6.99967L18.7 5.94967C18.8833 5.89967 19.0458 5.89967 19.1875 5.94967C19.3292 5.99967 19.4417 6.09134 19.525 6.22467C19.6083 6.35801 19.65 6.49967 19.65 6.64967C19.65 6.79967 19.6 6.94967 19.5 7.09967L17.2 10.3497L17.925 10.7747C18.1583 10.908 18.3125 11.108 18.3875 11.3747C18.4625 11.6413 18.4333 11.8913 18.3 12.1247C18.1667 12.358 17.9667 12.5122 17.7 12.5872C17.4333 12.6622 17.1833 12.633 16.95 12.4997L15.25 11.5497C14.9833 11.3997 14.8167 11.1788 14.75 10.8872C14.6833 10.5955 14.7417 10.333 14.925 10.0997L15.85 8.79967L13.25 9.52467L12.8 6.87467L11.5 9.19967L9.3 7.64967L10.025 10.2497L7.375 10.6997L7.5 10.7747C7.73333 10.908 7.8875 11.108 7.9625 11.3747C8.0375 11.6413 8.00833 11.8913 7.875 12.1247C7.74167 12.358 7.54167 12.5122 7.275 12.5872C7.00833 12.6622 6.75833 12.633 6.525 12.4997L3.325 10.6997C3.175 10.6163 3.07083 10.4997 3.0125 10.3497C2.95417 10.1997 2.94167 10.0497 2.975 9.89967C3.00833 9.74967 3.07083 9.62051 3.1625 9.51217C3.25417 9.40384 3.39167 9.33301 3.575 9.29967L7.5 8.64967L6.45 4.79967C6.4 4.61634 6.4 4.45384 6.45 4.31217C6.5 4.17051 6.59167 4.05801 6.725 3.97467C6.85833 3.89134 7 3.84967 7.15 3.84967C7.3 3.84967 7.45 3.89967 7.6 3.99967L10.85 6.29967Z" fill="black"/>
</svg>
