<svg width="28" height="28" viewBox="0 0 28 28" fill="none" xmlns="http://www.w3.org/2000/svg">
<path d="M5.83333 25.6668C5.19167 25.6668 4.64236 25.4383 4.18542 24.9814C3.72847 24.5244 3.5 23.9751 3.5 23.3334V18.6668C3.5 18.0251 3.72847 17.4758 4.18542 17.0189C4.64236 16.5619 5.19167 16.3334 5.83333 16.3334H22.1667C22.8083 16.3334 23.3576 16.5619 23.8146 17.0189C24.2715 17.4758 24.5 18.0251 24.5 18.6668V23.3334C24.5 23.9751 24.2715 24.5244 23.8146 24.9814C23.3576 25.4383 22.8083 25.6668 22.1667 25.6668H5.83333ZM5.83333 23.3334H22.1667V18.6668H5.83333V23.3334ZM12.6583 7.35011L14.9333 3.32511C15.0306 3.15011 15.1667 3.02372 15.3417 2.94594C15.5167 2.86816 15.6917 2.84872 15.8667 2.88761C16.0417 2.9265 16.1924 2.99941 16.3187 3.10636C16.4451 3.2133 16.5278 3.37372 16.5667 3.58761L17.325 8.16678L21.8167 6.94178C22.0306 6.88344 22.2201 6.88344 22.3854 6.94178C22.5507 7.00011 22.6819 7.10705 22.7792 7.26261C22.8764 7.41816 22.925 7.58344 22.925 7.75844C22.925 7.93344 22.8667 8.10844 22.75 8.28344L20.0667 12.0751L20.9125 12.5709C21.1847 12.7265 21.3646 12.9598 21.4521 13.2709C21.5396 13.5821 21.5056 13.8737 21.35 14.1459C21.1944 14.4182 20.9611 14.598 20.65 14.6855C20.3389 14.773 20.0472 14.739 19.775 14.5834L17.7917 13.4751C17.4806 13.3001 17.2861 13.0425 17.2083 12.7022C17.1306 12.3619 17.1986 12.0557 17.4125 11.7834L18.4917 10.2668L15.4583 11.1126L14.9333 8.02094L13.4167 10.7334L10.85 8.92511L11.6958 11.9584L8.60417 12.4834L8.75 12.5709C9.02222 12.7265 9.20208 12.9598 9.28958 13.2709C9.37708 13.5821 9.34306 13.8737 9.1875 14.1459C9.03194 14.4182 8.79861 14.598 8.4875 14.6855C8.17639 14.773 7.88472 14.739 7.6125 14.5834L3.87917 12.4834C3.70417 12.3862 3.58264 12.2501 3.51458 12.0751C3.44653 11.9001 3.43194 11.7251 3.47083 11.5501C3.50972 11.3751 3.58264 11.2244 3.68958 11.098C3.79653 10.9716 3.95694 10.889 4.17083 10.8501L8.75 10.0918L7.525 5.60011C7.46667 5.38622 7.46667 5.19664 7.525 5.03136C7.58333 4.86608 7.69028 4.73483 7.84583 4.63761C8.00139 4.54039 8.16667 4.49178 8.34167 4.49178C8.51667 4.49178 8.69167 4.55011 8.86667 4.66678L12.6583 7.35011Z" fill="black"/>
</svg>
