<svg width="16" height="16" viewBox="0 0 16 16" fill="none" xmlns="http://www.w3.org/2000/svg">
<path d="M3.33333 14.6665C2.96666 14.6665 2.65277 14.5359 2.39166 14.2748C2.13055 14.0137 1.99999 13.6998 1.99999 13.3331V10.6665C1.99999 10.2998 2.13055 9.98589 2.39166 9.72478C2.65277 9.46367 2.96666 9.33312 3.33333 9.33312H12.6667C13.0333 9.33312 13.3472 9.46367 13.6083 9.72478C13.8694 9.98589 14 10.2998 14 10.6665V13.3331C14 13.6998 13.8694 14.0137 13.6083 14.2748C13.3472 14.5359 13.0333 14.6665 12.6667 14.6665H3.33333ZM3.33333 13.3331H12.6667V10.6665H3.33333V13.3331ZM7.23333 4.19978L8.53333 1.89978C8.58888 1.79978 8.66666 1.72756 8.76666 1.68312C8.86666 1.63867 8.96666 1.62756 9.06666 1.64978C9.16666 1.67201 9.25277 1.71367 9.32499 1.77478C9.39722 1.83589 9.44444 1.92756 9.46666 2.04978L9.89999 4.66645L12.4667 3.96645C12.5889 3.93312 12.6972 3.93312 12.7917 3.96645C12.8861 3.99978 12.9611 4.06089 13.0167 4.14978C13.0722 4.23867 13.1 4.33312 13.1 4.43312C13.1 4.53312 13.0667 4.63312 13 4.73312L11.4667 6.89978L11.95 7.18312C12.1056 7.27201 12.2083 7.40534 12.2583 7.58312C12.3083 7.76089 12.2889 7.92756 12.2 8.08312C12.1111 8.23867 11.9778 8.34145 11.8 8.39145C11.6222 8.44145 11.4556 8.42201 11.3 8.33312L10.1667 7.69978C9.98888 7.59978 9.87777 7.45256 9.83333 7.25812C9.78888 7.06367 9.82777 6.88867 9.95 6.73312L10.5667 5.86645L8.83333 6.34978L8.53333 4.58312L7.66666 6.13312L6.2 5.09978L6.68333 6.83312L4.91666 7.13312L4.99999 7.18312C5.15555 7.27201 5.25833 7.40534 5.30833 7.58312C5.35833 7.76089 5.33888 7.92756 5.24999 8.08312C5.16111 8.23867 5.02777 8.34145 4.84999 8.39145C4.67222 8.44145 4.50555 8.42201 4.34999 8.33312L2.21666 7.13312C2.11666 7.07756 2.04722 6.99978 2.00833 6.89978C1.96944 6.79978 1.96111 6.69978 1.98333 6.59978C2.00555 6.49978 2.04722 6.41367 2.10833 6.34145C2.16944 6.26923 2.26111 6.22201 2.38333 6.19978L4.99999 5.76645L4.29999 3.19978C4.26666 3.07756 4.26666 2.96923 4.29999 2.87478C4.33333 2.78034 4.39444 2.70534 4.48333 2.64978C4.57222 2.59423 4.66666 2.56645 4.76666 2.56645C4.86666 2.56645 4.96666 2.59978 5.06666 2.66645L7.23333 4.19978Z" fill="black"/>
</svg>
