<svg width="24" height="24" viewBox="0 0 24 24" fill="none" xmlns="http://www.w3.org/2000/svg">
<path d="M1 6C1 5.44772 1.44772 5 2 5C2.55228 5 3 5.44772 3 6V18C3 18.5523 2.55228 19 2 19C1.44772 19 1 18.5523 1 18V6Z" fill="black"/>
<path fill-rule="evenodd" clip-rule="evenodd" d="M7 21C5.34315 21 4 19.6569 4 18V6C4 4.34315 5.34315 3 7 3H19C20.6569 3 22 4.34315 22 6V18C22 19.6569 20.6569 21 19 21H7ZM7 5H19C19.5523 5 20 5.44772 20 6V18C20 18.5523 19.5523 19 19 19H18.7457C17.4808 17.1865 15.3791 16 13.0004 16C10.6217 16 8.52004 17.1865 7.25509 19H7C6.44772 19 6 18.5523 6 18V6C6 5.44772 6.44772 5 7 5ZM9.99938 19H16.0014C15.1647 18.3712 14.1255 18 13.0004 18C11.8753 18 10.8361 18.3712 9.99938 19Z" fill="black"/>
<path fill-rule="evenodd" clip-rule="evenodd" d="M13 12C13.5523 12 14 11.5523 14 11C14 10.4477 13.5523 10 13 10C12.4477 10 12 10.4477 12 11C12 11.5523 12.4477 12 13 12ZM13 14C14.6569 14 16 12.6569 16 11C16 9.34315 14.6569 8 13 8C11.3431 8 10 9.34315 10 11C10 12.6569 11.3431 14 13 14Z" fill="black"/>
</svg>
