<svg width="16" height="16" viewBox="0 0 16 16" fill="none" xmlns="http://www.w3.org/2000/svg">
<path d="M0.666626 4C0.666626 3.63181 0.965103 3.33333 1.33329 3.33333C1.70148 3.33333 1.99996 3.63181 1.99996 4V12C1.99996 12.3682 1.70148 12.6667 1.33329 12.6667C0.965103 12.6667 0.666626 12.3682 0.666626 12V4Z" fill="black"/>
<path d="M2.66663 4C2.66663 2.89543 3.56206 2 4.66663 2H12.6666C13.7712 2 14.6666 2.89543 14.6666 4V12C14.6666 13.1046 13.7712 14 12.6666 14H4.66663C3.56206 14 2.66663 13.1046 2.66663 12V4ZM4.83671 12.6667H12.4971C11.6538 11.4577 10.2527 10.6667 8.66692 10.6667C7.08109 10.6667 5.68001 11.4577 4.83671 12.6667ZM8.66663 9.33333C9.7712 9.33333 10.6666 8.4379 10.6666 7.33333C10.6666 6.22876 9.7712 5.33333 8.66663 5.33333C7.56206 5.33333 6.66663 6.22876 6.66663 7.33333C6.66663 8.4379 7.56206 9.33333 8.66663 9.33333Z" fill="black"/>
</svg>
