<svg width="28" height="28" viewBox="0 0 28 28" fill="none" xmlns="http://www.w3.org/2000/svg">
<path d="M1.16663 7C1.16663 6.35567 1.68896 5.83333 2.33329 5.83333C2.97762 5.83333 3.49996 6.35567 3.49996 7V21C3.49996 21.6443 2.97762 22.1667 2.33329 22.1667C1.68896 22.1667 1.16663 21.6443 1.16663 21V7Z" fill="black"/>
<path fill-rule="evenodd" clip-rule="evenodd" d="M8.16663 24.5C6.23363 24.5 4.66663 22.933 4.66663 21V7C4.66663 5.067 6.23363 3.5 8.16663 3.5H22.1666C24.0996 3.5 25.6666 5.067 25.6666 7V21C25.6666 22.933 24.0996 24.5 22.1666 24.5H8.16663ZM8.16663 5.83333H22.1666C22.811 5.83333 23.3333 6.35567 23.3333 7V21C23.3333 21.6443 22.811 22.1667 22.1666 22.1667H21.87C20.3942 20.0509 17.9423 18.6667 15.1671 18.6667C12.3919 18.6667 9.94001 20.0509 8.46423 22.1667H8.16663C7.52229 22.1667 6.99996 21.6443 6.99996 21V7C6.99996 6.35567 7.52229 5.83333 8.16663 5.83333ZM11.6659 22.1667H18.6683C17.6921 21.433 16.4798 21 15.1671 21C13.8544 21 12.6421 21.433 11.6659 22.1667Z" fill="black"/>
<path fill-rule="evenodd" clip-rule="evenodd" d="M15.1666 14C15.811 14 16.3333 13.4777 16.3333 12.8333C16.3333 12.189 15.811 11.6667 15.1666 11.6667C14.5223 11.6667 14 12.189 14 12.8333C14 13.4777 14.5223 14 15.1666 14ZM15.1666 16.3333C17.0996 16.3333 18.6666 14.7663 18.6666 12.8333C18.6666 10.9003 17.0996 9.33333 15.1666 9.33333C13.2336 9.33333 11.6666 10.9003 11.6666 12.8333C11.6666 14.7663 13.2336 16.3333 15.1666 16.3333Z" fill="black"/>
</svg>
