<svg width="24" height="24" viewBox="0 0 24 24" fill="none" xmlns="http://www.w3.org/2000/svg">
<path d="M1 6C1 5.44772 1.44772 5 2 5C2.55228 5 3 5.44772 3 6V18C3 18.5523 2.55228 19 2 19C1.44772 19 1 18.5523 1 18V6Z" fill="black"/>
<path d="M7 21C5.34315 21 4 19.6569 4 18V6C4 4.34315 5.34315 3 7 3H19C20.6569 3 22 4.34315 22 6V18C22 19.6569 20.6569 21 19 21H7ZM7 5C6.44772 5 6 5.44772 6 6V18C6 18.5523 6.44772 19 7 19H7.25509C8.52004 17.1865 10.6217 16 13.0004 16C15.3791 16 17.4808 17.1865 18.7457 19H19C19.5523 19 20 18.5523 20 18V6C20 5.44772 19.5523 5 19 5H7ZM9.99938 19H16.0014C15.1647 18.3712 14.1255 18 13.0004 18C11.8753 18 10.8361 18.3712 9.99938 19Z" fill="black"/>
<path d="M13 12C12.4477 12 12 11.5523 12 11C12 10.4477 12.4477 10 13 10C13.5523 10 14 10.4477 14 11C14 11.5523 13.5523 12 13 12ZM13 14C14.6569 14 16 12.6569 16 11C16 9.34315 14.6569 8 13 8C11.3431 8 10 9.34315 10 11C10 12.6569 11.3431 14 13 14Z" fill="black"/>
</svg>
