<svg width="28" height="28" viewBox="0 0 28 28" fill="none" xmlns="http://www.w3.org/2000/svg">
<path d="M14 15.1666C13.6694 15.1666 13.3923 15.0548 13.1687 14.8312C12.9451 14.6076 12.8333 14.3305 12.8333 13.9999C12.8333 13.6694 12.9451 13.3923 13.1687 13.1687C13.3923 12.9451 13.6694 12.8333 14 12.8333C14.3305 12.8333 14.6076 12.9451 14.8312 13.1687C15.0548 13.3923 15.1666 13.6694 15.1666 13.9999C15.1666 14.3305 15.0548 14.6076 14.8312 14.8312C14.6076 15.0548 14.3305 15.1666 14 15.1666ZM14 25.6666C12.3861 25.6666 10.8694 25.3603 9.44998 24.7478C8.03054 24.1353 6.79581 23.3041 5.74581 22.2541C4.69581 21.2041 3.86456 19.9694 3.25206 18.5499C2.63956 17.1305 2.33331 15.6138 2.33331 13.9999C2.33331 12.386 2.63956 10.8694 3.25206 9.44992C3.86456 8.03047 4.69581 6.79575 5.74581 5.74575C6.79581 4.69575 8.03054 3.8645 9.44998 3.252C10.8694 2.6395 12.3861 2.33325 14 2.33325C15.6139 2.33325 17.1305 2.6395 18.55 3.252C19.9694 3.8645 21.2041 4.69575 22.2541 5.74575C23.3041 6.79575 24.1354 8.03047 24.7479 9.44992C25.3604 10.8694 25.6666 12.386 25.6666 13.9999C25.6666 15.6138 25.3604 17.1305 24.7479 18.5499C24.1354 19.9694 23.3041 21.2041 22.2541 22.2541C21.2041 23.3041 19.9694 24.1353 18.55 24.7478C17.1305 25.3603 15.6139 25.6666 14 25.6666ZM14 23.3333C16.6055 23.3333 18.8125 22.4291 20.6208 20.6208C22.4291 18.8124 23.3333 16.6055 23.3333 13.9999C23.3333 11.3944 22.4291 9.18742 20.6208 7.37909C18.8125 5.57075 16.6055 4.66659 14 4.66659C11.3944 4.66659 9.18748 5.57075 7.37915 7.37909C5.57081 9.18742 4.66665 11.3944 4.66665 13.9999C4.66665 16.6055 5.57081 18.8124 7.37915 20.6208C9.18748 22.4291 11.3944 23.3333 14 23.3333ZM8.66248 19.9208L15.9541 16.5083C16.0708 16.4499 16.1778 16.3721 16.275 16.2749C16.3722 16.1777 16.45 16.0708 16.5083 15.9541L19.9208 8.66242C20.018 8.46797 19.9937 8.29784 19.8479 8.152C19.7021 8.00617 19.5319 7.98186 19.3375 8.07909L12.0458 11.4916C11.9291 11.5499 11.8222 11.6277 11.725 11.7249C11.6278 11.8221 11.55 11.9291 11.4916 12.0458L8.07915 19.3374C7.98192 19.5319 8.00623 19.702 8.15206 19.8478C8.2979 19.9937 8.46804 20.018 8.66248 19.9208Z" fill="black"/>
</svg>
