<svg width="16" height="16" viewBox="0 0 16 16" fill="none" xmlns="http://www.w3.org/2000/svg">
<path d="M7.99998 8.66658C7.81109 8.66658 7.65276 8.6027 7.52498 8.47492C7.3972 8.34714 7.33331 8.18881 7.33331 7.99992C7.33331 7.81103 7.3972 7.6527 7.52498 7.52492C7.65276 7.39714 7.81109 7.33325 7.99998 7.33325C8.18887 7.33325 8.3472 7.39714 8.47498 7.52492C8.60276 7.6527 8.66665 7.81103 8.66665 7.99992C8.66665 8.18881 8.60276 8.34714 8.47498 8.47492C8.3472 8.6027 8.18887 8.66658 7.99998 8.66658ZM7.99998 14.6666C7.07776 14.6666 6.21109 14.4916 5.39998 14.1416C4.58887 13.7916 3.88331 13.3166 3.28331 12.7166C2.68331 12.1166 2.20831 11.411 1.85831 10.5999C1.50831 9.78881 1.33331 8.92214 1.33331 7.99992C1.33331 7.0777 1.50831 6.21103 1.85831 5.39992C2.20831 4.58881 2.68331 3.88325 3.28331 3.28325C3.88331 2.68325 4.58887 2.20825 5.39998 1.85825C6.21109 1.50825 7.07776 1.33325 7.99998 1.33325C8.9222 1.33325 9.78887 1.50825 10.6 1.85825C11.4111 2.20825 12.1166 2.68325 12.7166 3.28325C13.3166 3.88325 13.7916 4.58881 14.1416 5.39992C14.4916 6.21103 14.6666 7.0777 14.6666 7.99992C14.6666 8.92214 14.4916 9.78881 14.1416 10.5999C13.7916 11.411 13.3166 12.1166 12.7166 12.7166C12.1166 13.3166 11.4111 13.7916 10.6 14.1416C9.78887 14.4916 8.9222 14.6666 7.99998 14.6666ZM7.99998 13.3333C9.48887 13.3333 10.75 12.8166 11.7833 11.7833C12.8166 10.7499 13.3333 9.48881 13.3333 7.99992C13.3333 6.51103 12.8166 5.24992 11.7833 4.21659C10.75 3.18325 9.48887 2.66659 7.99998 2.66659C6.51109 2.66659 5.24998 3.18325 4.21665 4.21659C3.18331 5.24992 2.66665 6.51103 2.66665 7.99992C2.66665 9.48881 3.18331 10.7499 4.21665 11.7833C5.24998 12.8166 6.51109 13.3333 7.99998 13.3333ZM4.94998 11.3833L9.11665 9.43325C9.18331 9.39992 9.24442 9.35547 9.29998 9.29992C9.35553 9.24436 9.39998 9.18325 9.43331 9.11658L11.3833 4.94992C11.4389 4.83881 11.425 4.74159 11.3416 4.65825C11.2583 4.57492 11.1611 4.56103 11.05 4.61659L6.88331 6.56658C6.81665 6.59992 6.75554 6.64436 6.69998 6.69992C6.64442 6.75547 6.59998 6.81658 6.56665 6.88325L4.61665 11.0499C4.56109 11.161 4.57498 11.2583 4.65831 11.3416C4.74165 11.4249 4.83887 11.4388 4.94998 11.3833Z" fill="black"/>
</svg>
