<svg width="16" height="16" viewBox="0 0 16 16" fill="none" xmlns="http://www.w3.org/2000/svg">
<path d="M8.33333 6.13333V9.86667C8.33333 10.0222 8.4 10.1278 8.53333 10.1833C8.66667 10.2389 8.78889 10.2111 8.9 10.1L10.5333 8.46667C10.6667 8.33333 10.7333 8.17778 10.7333 8C10.7333 7.82222 10.6667 7.66667 10.5333 7.53333L8.9 5.9C8.78889 5.78889 8.66667 5.76111 8.53333 5.81667C8.4 5.87222 8.33333 5.97778 8.33333 6.13333ZM3.33333 14C2.96667 14 2.65278 13.8694 2.39167 13.6083C2.13056 13.3472 2 13.0333 2 12.6667V3.33333C2 2.96667 2.13056 2.65278 2.39167 2.39167C2.65278 2.13056 2.96667 2 3.33333 2H12.6667C13.0333 2 13.3472 2.13056 13.6083 2.39167C13.8694 2.65278 14 2.96667 14 3.33333V12.6667C14 13.0333 13.8694 13.3472 13.6083 13.6083C13.3472 13.8694 13.0333 14 12.6667 14H3.33333ZM5.33333 12.6667V3.33333H3.33333V12.6667H5.33333ZM6.66667 12.6667H12.6667V3.33333H6.66667V12.6667Z" fill="black"/>
</svg>
