<svg width="16" height="16" viewBox="0 0 16 16" fill="none" xmlns="http://www.w3.org/2000/svg">
<path d="M11 9.86667V6.13333C11 5.97778 10.9333 5.87222 10.8 5.81667C10.6667 5.76111 10.5444 5.78889 10.4333 5.9L8.8 7.53333C8.66667 7.66667 8.6 7.82222 8.6 8C8.6 8.17778 8.66667 8.33333 8.8 8.46667L10.4333 10.1C10.5444 10.2111 10.6667 10.2389 10.8 10.1833C10.9333 10.1278 11 10.0222 11 9.86667ZM3.33333 14C2.96667 14 2.65278 13.8694 2.39167 13.6083C2.13056 13.3472 2 13.0333 2 12.6667V3.33333C2 2.96667 2.13056 2.65278 2.39167 2.39167C2.65278 2.13056 2.96667 2 3.33333 2H12.6667C13.0333 2 13.3472 2.13056 13.6083 2.39167C13.8694 2.65278 14 2.96667 14 3.33333V12.6667C14 13.0333 13.8694 13.3472 13.6083 13.6083C13.3472 13.8694 13.0333 14 12.6667 14H3.33333ZM5.33333 12.6667V3.33333H3.33333V12.6667H5.33333ZM6.66667 12.6667H12.6667V3.33333H6.66667V12.6667Z" fill="black"/>
</svg>
