<svg width="24" height="24" viewBox="0 0 24 24" fill="none" xmlns="http://www.w3.org/2000/svg">
<path d="M12.5 9.2V14.8C12.5 15.0333 12.6 15.1917 12.8 15.275C13 15.3583 13.1833 15.3167 13.35 15.15L15.8 12.7C16 12.5 16.1 12.2667 16.1 12C16.1 11.7333 16 11.5 15.8 11.3L13.35 8.85C13.1833 8.68333 13 8.64167 12.8 8.725C12.6 8.80833 12.5 8.96667 12.5 9.2ZM5 21C4.45 21 3.97917 20.8042 3.5875 20.4125C3.19583 20.0208 3 19.55 3 19V5C3 4.45 3.19583 3.97917 3.5875 3.5875C3.97917 3.19583 4.45 3 5 3H19C19.55 3 20.0208 3.19583 20.4125 3.5875C20.8042 3.97917 21 4.45 21 5V19C21 19.55 20.8042 20.0208 20.4125 20.4125C20.0208 20.8042 19.55 21 19 21H5ZM8 19V5H5V19H8ZM10 19H19V5H10V19Z" fill="black"/>
</svg>
