<svg width="28" height="28" viewBox="0 0 28 28" fill="none" xmlns="http://www.w3.org/2000/svg">
<path d="M19.25 17.2667V10.7333C19.25 10.4611 19.1333 10.2764 18.9 10.1792C18.6667 10.0819 18.4528 10.1306 18.2583 10.325L15.4 13.1833C15.1667 13.4167 15.05 13.6889 15.05 14C15.05 14.3111 15.1667 14.5833 15.4 14.8167L18.2583 17.675C18.4528 17.8694 18.6667 17.9181 18.9 17.8208C19.1333 17.7236 19.25 17.5389 19.25 17.2667ZM5.83333 24.5C5.19167 24.5 4.64236 24.2715 4.18542 23.8146C3.72847 23.3576 3.5 22.8083 3.5 22.1667V5.83333C3.5 5.19167 3.72847 4.64236 4.18542 4.18542C4.64236 3.72847 5.19167 3.5 5.83333 3.5H22.1667C22.8083 3.5 23.3576 3.72847 23.8146 4.18542C24.2715 4.64236 24.5 5.19167 24.5 5.83333V22.1667C24.5 22.8083 24.2715 23.3576 23.8146 23.8146C23.3576 24.2715 22.8083 24.5 22.1667 24.5H5.83333ZM9.33333 22.1667V5.83333H5.83333V22.1667H9.33333ZM11.6667 22.1667H22.1667V5.83333H11.6667V22.1667Z" fill="black"/>
</svg>
