<svg width="28" height="28" viewBox="0 0 28 28" fill="none" xmlns="http://www.w3.org/2000/svg">
<path d="M14.5833 10.7333V17.2667C14.5833 17.5389 14.7 17.7236 14.9333 17.8208C15.1667 17.9181 15.3806 17.8694 15.575 17.675L18.4333 14.8167C18.6667 14.5833 18.7833 14.3111 18.7833 14C18.7833 13.6889 18.6667 13.4167 18.4333 13.1833L15.575 10.325C15.3806 10.1306 15.1667 10.0819 14.9333 10.1792C14.7 10.2764 14.5833 10.4611 14.5833 10.7333ZM5.83333 24.5C5.19167 24.5 4.64236 24.2715 4.18542 23.8146C3.72847 23.3576 3.5 22.8083 3.5 22.1667V5.83333C3.5 5.19167 3.72847 4.64236 4.18542 4.18542C4.64236 3.72847 5.19167 3.5 5.83333 3.5H22.1667C22.8083 3.5 23.3576 3.72847 23.8146 4.18542C24.2715 4.64236 24.5 5.19167 24.5 5.83333V22.1667C24.5 22.8083 24.2715 23.3576 23.8146 23.8146C23.3576 24.2715 22.8083 24.5 22.1667 24.5H5.83333ZM9.33333 22.1667V5.83333H5.83333V22.1667H9.33333ZM11.6667 22.1667H22.1667V5.83333H11.6667V22.1667Z" fill="black"/>
</svg>
