<svg width="28" height="28" viewBox="0 0 28 28" fill="none" xmlns="http://www.w3.org/2000/svg">
<path d="M12.8333 15.1667C13.1639 15.1667 13.441 15.0549 13.6646 14.8313C13.8882 14.6076 14 14.3306 14 14C14 13.6694 13.8882 13.3924 13.6646 13.1688C13.441 12.9451 13.1639 12.8333 12.8333 12.8333C12.5028 12.8333 12.2257 12.9451 12.0021 13.1688C11.7785 13.3924 11.6667 13.6694 11.6667 14C11.6667 14.3306 11.7785 14.6076 12.0021 14.8313C12.2257 15.0549 12.5028 15.1667 12.8333 15.1667ZM8.16667 24.5V22.1667L15.1667 21V8.02083C15.1667 7.72917 15.0792 7.46667 14.9042 7.23333C14.7292 7 14.5056 6.86389 14.2333 6.825L8.16667 5.83333V3.5L14.5833 4.55C15.4389 4.70556 16.1389 5.10417 16.6833 5.74583C17.2278 6.3875 17.5 7.13611 17.5 7.99167V20.9417C17.5 21.5056 17.3153 22.0063 16.9458 22.4438C16.5764 22.8813 16.1097 23.1486 15.5458 23.2458L8.16667 24.5ZM8.16667 22.1667H19.8333V5.83333H8.16667V22.1667ZM4.66667 24.5C4.33611 24.5 4.05903 24.3882 3.83542 24.1646C3.61181 23.941 3.5 23.6639 3.5 23.3333C3.5 23.0028 3.61181 22.7257 3.83542 22.5021C4.05903 22.2785 4.33611 22.1667 4.66667 22.1667H5.83333V5.83333C5.83333 5.19167 6.06181 4.64236 6.51875 4.18542C6.97569 3.72847 7.525 3.5 8.16667 3.5H19.8333C20.475 3.5 21.0243 3.72847 21.4813 4.18542C21.9382 4.64236 22.1667 5.19167 22.1667 5.83333V22.1667H23.3333C23.6639 22.1667 23.941 22.2785 24.1646 22.5021C24.3882 22.7257 24.5 23.0028 24.5 23.3333C24.5 23.6639 24.3882 23.941 24.1646 24.1646C23.941 24.3882 23.6639 24.5 23.3333 24.5H4.66667Z" fill="black"/>
</svg>
