<svg width="16" height="16" viewBox="0 0 16 16" fill="none" xmlns="http://www.w3.org/2000/svg">
<path d="M7.33333 8.66667C7.52222 8.66667 7.68056 8.60278 7.80833 8.475C7.93611 8.34722 8 8.18889 8 8C8 7.81111 7.93611 7.65278 7.80833 7.525C7.68056 7.39722 7.52222 7.33333 7.33333 7.33333C7.14444 7.33333 6.98611 7.39722 6.85833 7.525C6.73056 7.65278 6.66667 7.81111 6.66667 8C6.66667 8.18889 6.73056 8.34722 6.85833 8.475C6.98611 8.60278 7.14444 8.66667 7.33333 8.66667ZM4.66667 14V12.6667L8.66667 12V4.58333C8.66667 4.41667 8.61667 4.26667 8.51667 4.13333C8.41667 4 8.28889 3.92222 8.13333 3.9L4.66667 3.33333V2L8.33333 2.6C8.82222 2.68889 9.22222 2.91667 9.53333 3.28333C9.84444 3.65 10 4.07778 10 4.56667V11.9667C10 12.2889 9.89444 12.575 9.68333 12.825C9.47222 13.075 9.20556 13.2278 8.88333 13.2833L4.66667 14ZM4.66667 12.6667H11.3333V3.33333H4.66667V12.6667ZM2.66667 14C2.47778 14 2.31944 13.9361 2.19167 13.8083C2.06389 13.6806 2 13.5222 2 13.3333C2 13.1444 2.06389 12.9861 2.19167 12.8583C2.31944 12.7306 2.47778 12.6667 2.66667 12.6667H3.33333V3.33333C3.33333 2.96667 3.46389 2.65278 3.725 2.39167C3.98611 2.13056 4.3 2 4.66667 2H11.3333C11.7 2 12.0139 2.13056 12.275 2.39167C12.5361 2.65278 12.6667 2.96667 12.6667 3.33333V12.6667H13.3333C13.5222 12.6667 13.6806 12.7306 13.8083 12.8583C13.9361 12.9861 14 13.1444 14 13.3333C14 13.5222 13.9361 13.6806 13.8083 13.8083C13.6806 13.9361 13.5222 14 13.3333 14H2.66667Z" fill="black"/>
</svg>
