<svg width="24" height="24" viewBox="0 0 24 24" fill="none" xmlns="http://www.w3.org/2000/svg">
<path d="M11 13C11.2833 13 11.5208 12.9042 11.7125 12.7125C11.9042 12.5208 12 12.2833 12 12C12 11.7167 11.9042 11.4792 11.7125 11.2875C11.5208 11.0958 11.2833 11 11 11C10.7167 11 10.4792 11.0958 10.2875 11.2875C10.0958 11.4792 10 11.7167 10 12C10 12.2833 10.0958 12.5208 10.2875 12.7125C10.4792 12.9042 10.7167 13 11 13ZM7 21V19L13 18V6.875C13 6.625 12.925 6.4 12.775 6.2C12.625 6 12.4333 5.88333 12.2 5.85L7 5V3L12.5 3.9C13.2333 4.03333 13.8333 4.375 14.3 4.925C14.7667 5.475 15 6.11667 15 6.85V17.95C15 18.4333 14.8417 18.8625 14.525 19.2375C14.2083 19.6125 13.8083 19.8417 13.325 19.925L7 21ZM7 19H17V5H7V19ZM4 21C3.71667 21 3.47917 20.9042 3.2875 20.7125C3.09583 20.5208 3 20.2833 3 20C3 19.7167 3.09583 19.4792 3.2875 19.2875C3.47917 19.0958 3.71667 19 4 19H5V5C5 4.45 5.19583 3.97917 5.5875 3.5875C5.97917 3.19583 6.45 3 7 3H17C17.55 3 18.0208 3.19583 18.4125 3.5875C18.8042 3.97917 19 4.45 19 5V19H20C20.2833 19 20.5208 19.0958 20.7125 19.2875C20.9042 19.4792 21 19.7167 21 20C21 20.2833 20.9042 20.5208 20.7125 20.7125C20.5208 20.9042 20.2833 21 20 21H4Z" fill="black"/>
</svg>
