<svg width="28" height="28" viewBox="0 0 28 28" fill="none" xmlns="http://www.w3.org/2000/svg">
<path d="M19.2208 20.191L13.8542 14.8243C13.7375 14.7077 13.6551 14.5813 13.6068 14.4452C13.5578 14.3091 13.5333 14.1632 13.5333 14.0077C13.5333 13.8521 13.5578 13.7063 13.6068 13.5702C13.6551 13.4341 13.7375 13.3077 13.8542 13.191L19.2208 7.82433C19.4347 7.61044 19.7019 7.49844 20.0223 7.48833C20.3436 7.479 20.6208 7.591 20.8542 7.82433C21.0681 8.03822 21.175 8.31044 21.175 8.641C21.175 8.97155 21.0681 9.24378 20.8542 9.45766L16.3333 14.0077L20.8542 18.5577C21.0681 18.7716 21.1797 19.0387 21.189 19.3592C21.1991 19.6804 21.0875 19.9577 20.8542 20.191C20.6403 20.4049 20.3681 20.5118 20.0375 20.5118C19.7069 20.5118 19.4347 20.4049 19.2208 20.191ZM11.5208 20.191L6.15417 14.8243C6.0375 14.7077 5.95506 14.5813 5.90684 14.4452C5.85784 14.3091 5.83334 14.1632 5.83334 14.0077C5.83334 13.8521 5.85784 13.7063 5.90684 13.5702C5.95506 13.4341 6.0375 13.3077 6.15417 13.191L11.5208 7.82433C11.7347 7.61044 12.0023 7.49844 12.3235 7.48833C12.6439 7.479 12.9208 7.591 13.1542 7.82433C13.3681 8.03822 13.475 8.31044 13.475 8.641C13.475 8.97155 13.3681 9.24378 13.1542 9.45766L8.63334 14.0077L13.1542 18.5577C13.3681 18.7716 13.4801 19.0387 13.4902 19.3592C13.4995 19.6804 13.3875 19.9577 13.1542 20.191C12.9403 20.4049 12.6681 20.5118 12.3375 20.5118C12.0069 20.5118 11.7347 20.4049 11.5208 20.191Z" fill="black"/>
</svg>
