<svg width="28" height="28" viewBox="0 0 28 28" fill="none" xmlns="http://www.w3.org/2000/svg">
<path d="M7.14879 20.176C6.93491 19.9621 6.82796 19.6899 6.82796 19.3594C6.82796 19.0288 6.93491 18.7566 7.14879 18.5427L11.6696 13.9927L7.14879 9.44269C6.93491 9.2288 6.82329 8.96125 6.81396 8.64003C6.80385 8.31958 6.91546 8.04269 7.14879 7.80936C7.36268 7.59547 7.63491 7.48853 7.96546 7.48853C8.29602 7.48853 8.56824 7.59547 8.78213 7.80936L14.1488 13.176C14.2655 13.2927 14.3483 13.4191 14.3973 13.5552C14.4455 13.6913 14.4696 13.8371 14.4696 13.9927C14.4696 14.1482 14.4455 14.2941 14.3973 14.4302C14.3483 14.5663 14.2655 14.6927 14.1488 14.8094L8.78213 20.176C8.56824 20.3899 8.30068 20.5015 7.97946 20.5109C7.65902 20.521 7.38213 20.4094 7.14879 20.176ZM14.8488 20.176C14.6349 19.9621 14.528 19.6899 14.528 19.3594C14.528 19.0288 14.6349 18.7566 14.8488 18.5427L19.3696 13.9927L14.8488 9.44269C14.6349 9.2288 14.5229 8.96125 14.5128 8.64003C14.5035 8.31958 14.6155 8.04269 14.8488 7.80936C15.0627 7.59547 15.3349 7.48853 15.6655 7.48853C15.996 7.48853 16.2682 7.59547 16.4821 7.80936L21.8488 13.176C21.9655 13.2927 22.0479 13.4191 22.0961 13.5552C22.1451 13.6913 22.1696 13.8371 22.1696 13.9927C22.1696 14.1482 22.1451 14.2941 22.0961 14.4302C22.0479 14.5663 21.9655 14.6927 21.8488 14.8094L16.4821 20.176C16.2682 20.3899 16.0011 20.5015 15.6806 20.5109C15.3594 20.521 15.0821 20.4094 14.8488 20.176Z" fill="black"/>
</svg>
