<svg width="24" height="24" viewBox="0 0 24 24" fill="none" xmlns="http://www.w3.org/2000/svg">
<path d="M6.12754 17.2937C5.94421 17.1104 5.85254 16.877 5.85254 16.5937C5.85254 16.3104 5.94421 16.077 6.12754 15.8937L10.0025 11.9937L6.12754 8.0937C5.94421 7.91037 5.84854 7.68103 5.84054 7.4057C5.83187 7.13103 5.92754 6.8937 6.12754 6.6937C6.31087 6.51037 6.54421 6.4187 6.82754 6.4187C7.11087 6.4187 7.34421 6.51037 7.52754 6.6937L12.1275 11.2937C12.2275 11.3937 12.2985 11.502 12.3405 11.6187C12.3819 11.7354 12.4025 11.8604 12.4025 11.9937C12.4025 12.127 12.3819 12.252 12.3405 12.3687C12.2985 12.4854 12.2275 12.5937 12.1275 12.6937L7.52754 17.2937C7.34421 17.477 7.11487 17.5727 6.83954 17.5807C6.56487 17.5894 6.32754 17.4937 6.12754 17.2937ZM12.7275 17.2937C12.5442 17.1104 12.4525 16.877 12.4525 16.5937C12.4525 16.3104 12.5442 16.077 12.7275 15.8937L16.6025 11.9937L12.7275 8.0937C12.5442 7.91037 12.4482 7.68103 12.4395 7.4057C12.4315 7.13103 12.5275 6.8937 12.7275 6.6937C12.9109 6.51037 13.1442 6.4187 13.4275 6.4187C13.7109 6.4187 13.9442 6.51037 14.1275 6.6937L18.7275 11.2937C18.8275 11.3937 18.8982 11.502 18.9395 11.6187C18.9815 11.7354 19.0025 11.8604 19.0025 11.9937C19.0025 12.127 18.9815 12.252 18.9395 12.3687C18.8982 12.4854 18.8275 12.5937 18.7275 12.6937L14.1275 17.2937C13.9442 17.477 13.7152 17.5727 13.4405 17.5807C13.1652 17.5894 12.9275 17.4937 12.7275 17.2937Z" fill="black"/>
</svg>
