<svg width="24" height="24" viewBox="0 0 24 24" fill="none" xmlns="http://www.w3.org/2000/svg">
<path d="M16.475 17.3067L11.875 12.7067C11.775 12.6067 11.7043 12.4983 11.663 12.3817C11.621 12.265 11.6 12.14 11.6 12.0067C11.6 11.8733 11.621 11.7483 11.663 11.6317C11.7043 11.515 11.775 11.4067 11.875 11.3067L16.475 6.70667C16.6583 6.52334 16.8873 6.42734 17.162 6.41867C17.4373 6.41067 17.675 6.50667 17.875 6.70667C18.0583 6.89001 18.15 7.12334 18.15 7.40667C18.15 7.69001 18.0583 7.92334 17.875 8.10667L14 12.0067L17.875 15.9067C18.0583 16.09 18.154 16.319 18.162 16.5937C18.1707 16.869 18.075 17.1067 17.875 17.3067C17.6917 17.49 17.4583 17.5817 17.175 17.5817C16.8917 17.5817 16.6583 17.49 16.475 17.3067ZM9.875 17.3067L5.275 12.7067C5.175 12.6067 5.10433 12.4983 5.063 12.3817C5.021 12.265 5 12.14 5 12.0067C5 11.8733 5.021 11.7483 5.063 11.6317C5.10433 11.515 5.175 11.4067 5.275 11.3067L9.875 6.70667C10.0583 6.52334 10.2877 6.42734 10.563 6.41867C10.8377 6.41067 11.075 6.50667 11.275 6.70667C11.4583 6.89001 11.55 7.12334 11.55 7.40667C11.55 7.69001 11.4583 7.92334 11.275 8.10667L7.4 12.0067L11.275 15.9067C11.4583 16.09 11.5543 16.319 11.563 16.5937C11.571 16.869 11.475 17.1067 11.275 17.3067C11.0917 17.49 10.8583 17.5817 10.575 17.5817C10.2917 17.5817 10.0583 17.49 9.875 17.3067Z" fill="black"/>
</svg>
