<svg width="16" height="16" viewBox="0 0 16 16" fill="none" xmlns="http://www.w3.org/2000/svg">
<path d="M10.9833 11.5378L7.91667 8.47112C7.85 8.40445 7.80289 8.33223 7.77534 8.25445C7.74734 8.17667 7.73334 8.09334 7.73334 8.00445C7.73334 7.91556 7.74734 7.83223 7.77534 7.75445C7.80289 7.67667 7.85 7.60445 7.91667 7.53778L10.9833 4.47112C11.1056 4.34889 11.2582 4.28489 11.4413 4.27912C11.6249 4.27378 11.7833 4.33778 11.9167 4.47112C12.0389 4.59334 12.1 4.74889 12.1 4.93778C12.1 5.12667 12.0389 5.28223 11.9167 5.40445L9.33334 8.00445L11.9167 10.6044C12.0389 10.7267 12.1027 10.8793 12.108 11.0624C12.1138 11.246 12.05 11.4044 11.9167 11.5378C11.7944 11.66 11.6389 11.7211 11.45 11.7211C11.2611 11.7211 11.1056 11.66 10.9833 11.5378ZM6.58334 11.5378L3.51667 8.47112C3.45 8.40445 3.40289 8.33223 3.37534 8.25445C3.34734 8.17667 3.33334 8.09334 3.33334 8.00445C3.33334 7.91556 3.34734 7.83223 3.37534 7.75445C3.40289 7.67667 3.45 7.60445 3.51667 7.53778L6.58334 4.47112C6.70556 4.34889 6.85845 4.28489 7.042 4.27912C7.22511 4.27378 7.38334 4.33778 7.51667 4.47112C7.63889 4.59334 7.7 4.74889 7.7 4.93778C7.7 5.12667 7.63889 5.28223 7.51667 5.40445L4.93334 8.00445L7.51667 10.6044C7.63889 10.7267 7.70289 10.8793 7.70867 11.0624C7.714 11.246 7.65 11.4044 7.51667 11.5378C7.39445 11.66 7.23889 11.7211 7.05 11.7211C6.86111 11.7211 6.70556 11.66 6.58334 11.5378Z" fill="black"/>
</svg>
