<svg width="16" height="16" viewBox="0 0 16 16" fill="none" xmlns="http://www.w3.org/2000/svg">
<path d="M4.08503 11.5291C3.9628 11.4068 3.90169 11.2513 3.90169 11.0624C3.90169 10.8735 3.9628 10.7179 4.08503 10.5957L6.66836 7.99572L4.08503 5.39572C3.9628 5.2735 3.89903 5.12061 3.89369 4.93705C3.88792 4.75394 3.95169 4.59572 4.08503 4.46239C4.20725 4.34016 4.3628 4.27905 4.55169 4.27905C4.74058 4.27905 4.89614 4.34016 5.01836 4.46239L8.08503 7.52905C8.15169 7.59572 8.19903 7.66794 8.22703 7.74572C8.25458 7.8235 8.26836 7.90683 8.26836 7.99572C8.26836 8.08461 8.25458 8.16794 8.22703 8.24572C8.19903 8.3235 8.15169 8.39572 8.08503 8.46239L5.01836 11.5291C4.89614 11.6513 4.74325 11.7151 4.55969 11.7204C4.37658 11.7262 4.21836 11.6624 4.08503 11.5291ZM8.48503 11.5291C8.3628 11.4068 8.30169 11.2513 8.30169 11.0624C8.30169 10.8735 8.3628 10.7179 8.48503 10.5957L11.0684 7.99572L8.48503 5.39572C8.3628 5.2735 8.2988 5.12061 8.29303 4.93705C8.28769 4.75394 8.35169 4.59572 8.48503 4.46239C8.60725 4.34016 8.7628 4.27905 8.95169 4.27905C9.14058 4.27905 9.29614 4.34016 9.41836 4.46239L12.485 7.52905C12.5517 7.59572 12.5988 7.66794 12.6264 7.74572C12.6544 7.8235 12.6684 7.90683 12.6684 7.99572C12.6684 8.08461 12.6544 8.16794 12.6264 8.24572C12.5988 8.3235 12.5517 8.39572 12.485 8.46239L9.41836 11.5291C9.29614 11.6513 9.14347 11.7151 8.96036 11.7204C8.7768 11.7262 8.61836 11.6624 8.48503 11.5291Z" fill="black"/>
</svg>
