<svg width="16" height="16" viewBox="0 0 16 16" fill="none" xmlns="http://www.w3.org/2000/svg">
<path d="M7.99999 10.2333C7.89999 10.2333 7.80555 10.2167 7.71666 10.1833C7.62777 10.15 7.54444 10.0944 7.46666 10.0167L5.01666 7.56665C4.87222 7.42221 4.79999 7.24443 4.79999 7.03332C4.79999 6.82221 4.87222 6.64443 5.01666 6.49999C5.14999 6.36665 5.32488 6.29732 5.54133 6.29199C5.75822 6.28621 5.93888 6.34999 6.08333 6.48332L7.23333 7.64999V3.04999C7.23333 2.83888 7.30844 2.6611 7.45866 2.51665C7.60844 2.37221 7.78888 2.29999 7.99999 2.29999C8.2111 2.29999 8.39155 2.37221 8.54133 2.51665C8.69155 2.6611 8.76666 2.83888 8.76666 3.04999V7.64999L9.91666 6.48332C10.0611 6.34999 10.2418 6.28621 10.4587 6.29199C10.6751 6.29732 10.85 6.36665 10.9833 6.49999C11.1278 6.64443 11.2 6.82221 11.2 7.03332C11.2 7.24443 11.1278 7.42221 10.9833 7.56665L8.53333 10.0167C8.45555 10.0944 8.37222 10.15 8.28333 10.1833C8.19444 10.2167 8.09999 10.2333 7.99999 10.2333ZM3.91666 13.5833C3.49444 13.5833 3.13622 13.436 2.84199 13.1413C2.54733 12.8471 2.39999 12.4889 2.39999 12.0667V10.5833C2.39999 10.3722 2.47511 10.1944 2.62533 10.05C2.77511 9.90554 2.95555 9.83332 3.16666 9.83332C3.37777 9.83332 3.55555 9.90554 3.69999 10.05C3.84444 10.1944 3.91666 10.3722 3.91666 10.5833V12.0667H12.0667V10.5833C12.0667 10.3722 12.1418 10.1944 12.292 10.05C12.4418 9.90554 12.6222 9.83332 12.8333 9.83332C13.0444 9.83332 13.2222 9.90554 13.3667 10.05C13.5111 10.1944 13.5833 10.3722 13.5833 10.5833V12.0667C13.5833 12.4889 13.436 12.8471 13.1413 13.1413C12.8471 13.436 12.4889 13.5833 12.0667 13.5833H3.91666Z" fill="black"/>
</svg>
