<svg width="24" height="24" viewBox="0 0 24 24" fill="none" xmlns="http://www.w3.org/2000/svg">
<path d="M12 15.35C11.85 15.35 11.7083 15.325 11.575 15.275C11.4417 15.225 11.3167 15.1417 11.2 15.025L7.52501 11.35C7.30834 11.1333 7.20001 10.8667 7.20001 10.55C7.20001 10.2333 7.30834 9.96668 7.52501 9.75001C7.72501 9.55001 7.98734 9.44601 8.31201 9.43801C8.63734 9.42935 8.90834 9.52501 9.12501 9.72501L10.85 11.475V4.57501C10.85 4.25835 10.9627 3.99168 11.188 3.77501C11.4127 3.55835 11.6833 3.45001 12 3.45001C12.3167 3.45001 12.5873 3.55835 12.812 3.77501C13.0373 3.99168 13.15 4.25835 13.15 4.57501V11.475L14.875 9.72501C15.0917 9.52501 15.3627 9.42935 15.688 9.43801C16.0127 9.44601 16.275 9.55001 16.475 9.75001C16.6917 9.96668 16.8 10.2333 16.8 10.55C16.8 10.8667 16.6917 11.1333 16.475 11.35L12.8 15.025C12.6833 15.1417 12.5583 15.225 12.425 15.275C12.2917 15.325 12.15 15.35 12 15.35ZM5.87501 20.375C5.24167 20.375 4.70434 20.154 4.26301 19.712C3.82101 19.2707 3.60001 18.7333 3.60001 18.1V15.875C3.60001 15.5583 3.71267 15.2917 3.93801 15.075C4.16267 14.8583 4.43334 14.75 4.75001 14.75C5.06667 14.75 5.33334 14.8583 5.55001 15.075C5.76667 15.2917 5.87501 15.5583 5.87501 15.875V18.1H18.1V15.875C18.1 15.5583 18.2127 15.2917 18.438 15.075C18.6627 14.8583 18.9333 14.75 19.25 14.75C19.5667 14.75 19.8333 14.8583 20.05 15.075C20.2667 15.2917 20.375 15.5583 20.375 15.875V18.1C20.375 18.7333 20.154 19.2707 19.712 19.712C19.2707 20.154 18.7333 20.375 18.1 20.375H5.87501Z" fill="black"/>
</svg>
