<svg width="28" height="28" viewBox="0 0 28 28" fill="none" xmlns="http://www.w3.org/2000/svg">
<path d="M14 17.9084C13.825 17.9084 13.6597 17.8792 13.5042 17.8209C13.3486 17.7625 13.2028 17.6653 13.0667 17.5292L8.77918 13.2417C8.5264 12.9889 8.40001 12.6778 8.40001 12.3084C8.40001 11.9389 8.5264 11.6278 8.77918 11.375C9.01251 11.1417 9.31857 11.0204 9.69735 11.011C10.0769 11.0009 10.3931 11.1125 10.6458 11.3459L12.6583 13.3875V5.33752C12.6583 4.96808 12.7898 4.65697 13.0527 4.40419C13.3148 4.15141 13.6306 4.02502 14 4.02502C14.3695 4.02502 14.6852 4.15141 14.9473 4.40419C15.2102 4.65697 15.3417 4.96808 15.3417 5.33752V13.3875L17.3542 11.3459C17.607 11.1125 17.9231 11.0009 18.3027 11.011C18.6815 11.0204 18.9875 11.1417 19.2208 11.375C19.4736 11.6278 19.6 11.9389 19.6 12.3084C19.6 12.6778 19.4736 12.9889 19.2208 13.2417L14.9333 17.5292C14.7972 17.6653 14.6514 17.7625 14.4958 17.8209C14.3403 17.8792 14.175 17.9084 14 17.9084ZM6.85418 23.7709C6.11529 23.7709 5.4884 23.513 4.97351 22.9974C4.45785 22.4825 4.20001 21.8556 4.20001 21.1167V18.5209C4.20001 18.1514 4.33146 17.8403 4.59435 17.5875C4.85646 17.3347 5.17223 17.2084 5.54168 17.2084C5.91112 17.2084 6.22223 17.3347 6.47501 17.5875C6.72779 17.8403 6.85418 18.1514 6.85418 18.5209V21.1167H21.1167V18.5209C21.1167 18.1514 21.2481 17.8403 21.511 17.5875C21.7731 17.3347 22.0889 17.2084 22.4583 17.2084C22.8278 17.2084 23.1389 17.3347 23.3917 17.5875C23.6445 17.8403 23.7708 18.1514 23.7708 18.5209V21.1167C23.7708 21.8556 23.513 22.4825 22.9973 22.9974C22.4825 23.513 21.8556 23.7709 21.1167 23.7709H6.85418Z" fill="black"/>
</svg>
