<svg width="24" height="24" viewBox="0 0 24 24" fill="none" xmlns="http://www.w3.org/2000/svg">
<path d="M19.0538 9.09041L14.868 4.94795L16.2469 3.56712C16.6244 3.18904 17.0883 3 17.6385 3C18.1881 3 18.6516 3.18904 19.0292 3.56712L20.408 4.94795C20.7856 5.32603 20.9826 5.78236 20.999 6.31693C21.0154 6.85085 20.8348 7.30685 20.4573 7.68493L19.0538 9.09041ZM3.9849 21C3.70584 21 3.47209 20.9053 3.28365 20.7159C3.09455 20.5272 3 20.2931 3 20.0137V17.2274C3 17.0959 3.02462 16.9687 3.07387 16.8457C3.12311 16.7221 3.19698 16.611 3.29547 16.5123L13.4399 6.35342L17.6257 10.5452L7.48128 20.7041C7.38279 20.8027 7.27215 20.8767 7.14937 20.926C7.02593 20.9753 6.89855 21 6.76723 21H3.9849Z" fill="black"/>
</svg>
