<svg width="16" height="16" viewBox="0 0 16 16" fill="none" xmlns="http://www.w3.org/2000/svg">
<path d="M3.33333 12.6666H4.26667L10.0167 6.91659L9.08333 5.98325L3.33333 11.7333V12.6666ZM12.8667 5.94992L10.0333 3.14992L10.9667 2.21659C11.2222 1.96103 11.5362 1.83325 11.9087 1.83325C12.2807 1.83325 12.5944 1.96103 12.85 2.21659L13.7833 3.14992C14.0389 3.40547 14.1722 3.71392 14.1833 4.07525C14.1944 4.43614 14.0722 4.74436 13.8167 4.99992L12.8667 5.94992ZM2.66667 13.9999C2.47778 13.9999 2.31956 13.9359 2.192 13.8079C2.064 13.6804 2 13.5221 2 13.3333V11.4499C2 11.361 2.01667 11.275 2.05 11.1919C2.08333 11.1084 2.13333 11.0333 2.2 10.9666L9.06667 4.09992L11.9 6.93325L5.03333 13.7999C4.96667 13.8666 4.89178 13.9166 4.80867 13.9499C4.72511 13.9833 4.63889 13.9999 4.55 13.9999H2.66667Z" fill="black"/>
</svg>
