<svg width="16" height="16" viewBox="0 0 16 16" fill="none" xmlns="http://www.w3.org/2000/svg">
<path d="M3.33329 9.33366C3.1444 9.33366 2.98607 9.26977 2.85829 9.14199C2.73051 9.01421 2.66663 8.85588 2.66663 8.66699C2.66663 8.4781 2.73051 8.31977 2.85829 8.19199C2.98607 8.06421 3.1444 8.00033 3.33329 8.00033H6.66663C6.85552 8.00033 7.01385 8.06421 7.14163 8.19199C7.2694 8.31977 7.33329 8.4781 7.33329 8.66699C7.33329 8.85588 7.2694 9.01421 7.14163 9.14199C7.01385 9.26977 6.85552 9.33366 6.66663 9.33366H3.33329ZM3.33329 6.66699C3.1444 6.66699 2.98607 6.6031 2.85829 6.47533C2.73051 6.34755 2.66663 6.18921 2.66663 6.00033C2.66663 5.81144 2.73051 5.6531 2.85829 5.52533C2.98607 5.39755 3.1444 5.33366 3.33329 5.33366H9.33329C9.52218 5.33366 9.68052 5.39755 9.80829 5.52533C9.93607 5.6531 9.99996 5.81144 9.99996 6.00033C9.99996 6.18921 9.93607 6.34755 9.80829 6.47533C9.68052 6.6031 9.52218 6.66699 9.33329 6.66699H3.33329ZM3.33329 4.00033C3.1444 4.00033 2.98607 3.93644 2.85829 3.80866C2.73051 3.68088 2.66663 3.52255 2.66663 3.33366C2.66663 3.14477 2.73051 2.98644 2.85829 2.85866C2.98607 2.73088 3.1444 2.66699 3.33329 2.66699H9.33329C9.52218 2.66699 9.68052 2.73088 9.80829 2.85866C9.93607 2.98644 9.99996 3.14477 9.99996 3.33366C9.99996 3.52255 9.93607 3.68088 9.80829 3.80866C9.68052 3.93644 9.52218 4.00033 9.33329 4.00033H3.33329ZM8.66663 12.667V11.567C8.66663 11.4781 8.68329 11.392 8.71663 11.3087C8.74996 11.2253 8.79996 11.1503 8.86663 11.0837L12.35 7.61699C12.45 7.51699 12.5611 7.44477 12.6833 7.40033C12.8055 7.35588 12.9277 7.33366 13.05 7.33366C13.1833 7.33366 13.3111 7.35866 13.4333 7.40866C13.5555 7.45866 13.6666 7.53366 13.7666 7.63366L14.3833 8.25033C14.4722 8.35033 14.5416 8.46144 14.5916 8.58366C14.6416 8.70588 14.6666 8.8281 14.6666 8.95033C14.6666 9.07255 14.6444 9.19755 14.6 9.32533C14.5555 9.4531 14.4833 9.56699 14.3833 9.66699L10.9166 13.1337C10.85 13.2003 10.775 13.2503 10.6916 13.2837C10.6083 13.317 10.5222 13.3337 10.4333 13.3337H9.33329C9.1444 13.3337 8.98607 13.2698 8.85829 13.142C8.73052 13.0142 8.66663 12.8559 8.66663 12.667ZM9.66663 12.3337H10.3L12.3166 10.3003L12.0166 9.98366L11.7 9.68366L9.66663 11.7003V12.3337ZM12.0166 9.98366L11.7 9.68366L12.3166 10.3003L12.0166 9.98366Z" fill="black"/>
</svg>
