<svg width="28" height="28" viewBox="0 0 28 28" fill="none" xmlns="http://www.w3.org/2000/svg">
<path d="M22.2294 10.6055L17.346 5.7726L18.9547 4.16164C19.3951 3.72055 19.9363 3.5 20.5783 3.5C21.2194 3.5 21.7602 3.72055 22.2007 4.16164L23.8094 5.7726C24.2498 6.2137 24.4797 6.74608 24.4988 7.36975C24.518 7.99266 24.3073 8.52466 23.8668 8.96575L22.2294 10.6055ZM4.64905 24.5C4.32348 24.5 4.05078 24.3895 3.83093 24.1686C3.61031 23.9484 3.5 23.6753 3.5 23.3493V20.0986C3.5 19.9452 3.52873 19.7968 3.58618 19.6533C3.64363 19.5091 3.72981 19.3795 3.84471 19.2644L15.6799 7.41233L20.5633 12.3027L8.72816 24.1548C8.61325 24.2699 8.48418 24.3562 8.34093 24.4137C8.19691 24.4712 8.0483 24.5 7.8951 24.5H4.64905Z" fill="black"/>
</svg>
