<svg width="28" height="28" viewBox="0 0 28 28" fill="none" xmlns="http://www.w3.org/2000/svg">
<path d="M5.83335 16.3337C5.5028 16.3337 5.22571 16.2219 5.0021 15.9982C4.77849 15.7746 4.66669 15.4975 4.66669 15.167C4.66669 14.8364 4.77849 14.5594 5.0021 14.3357C5.22571 14.1121 5.5028 14.0003 5.83335 14.0003H11.6667C11.9972 14.0003 12.2743 14.1121 12.4979 14.3357C12.7215 14.5594 12.8334 14.8364 12.8334 15.167C12.8334 15.4975 12.7215 15.7746 12.4979 15.9982C12.2743 16.2219 11.9972 16.3337 11.6667 16.3337H5.83335ZM5.83335 11.667C5.5028 11.667 5.22571 11.5552 5.0021 11.3316C4.77849 11.108 4.66669 10.8309 4.66669 10.5003C4.66669 10.1698 4.77849 9.89269 5.0021 9.66908C5.22571 9.44546 5.5028 9.33366 5.83335 9.33366H16.3334C16.6639 9.33366 16.941 9.44546 17.1646 9.66908C17.3882 9.89269 17.5 10.1698 17.5 10.5003C17.5 10.8309 17.3882 11.108 17.1646 11.3316C16.941 11.5552 16.6639 11.667 16.3334 11.667H5.83335ZM5.83335 7.00033C5.5028 7.00033 5.22571 6.88852 5.0021 6.66491C4.77849 6.4413 4.66669 6.16421 4.66669 5.83366C4.66669 5.5031 4.77849 5.22602 5.0021 5.00241C5.22571 4.7788 5.5028 4.66699 5.83335 4.66699H16.3334C16.6639 4.66699 16.941 4.7788 17.1646 5.00241C17.3882 5.22602 17.5 5.5031 17.5 5.83366C17.5 6.16421 17.3882 6.4413 17.1646 6.66491C16.941 6.88852 16.6639 7.00033 16.3334 7.00033H5.83335ZM15.1667 22.167V20.242C15.1667 20.0864 15.1959 19.9357 15.2542 19.7899C15.3125 19.6441 15.4 19.5128 15.5167 19.3962L21.6125 13.3295C21.7875 13.1545 21.982 13.0281 22.1959 12.9503C22.4097 12.8725 22.6236 12.8337 22.8375 12.8337C23.0709 12.8337 23.2945 12.8774 23.5084 12.9649C23.7222 13.0524 23.9167 13.1837 24.0917 13.3587L25.1709 14.4378C25.3264 14.6128 25.4479 14.8073 25.5354 15.0212C25.6229 15.235 25.6667 15.4489 25.6667 15.6628C25.6667 15.8767 25.6278 16.0955 25.55 16.3191C25.4722 16.5427 25.3459 16.742 25.1709 16.917L19.1042 22.9837C18.9875 23.1003 18.8563 23.1878 18.7104 23.2462C18.5646 23.3045 18.4139 23.3337 18.2584 23.3337H16.3334C16.0028 23.3337 15.7257 23.2219 15.5021 22.9982C15.2785 22.7746 15.1667 22.4975 15.1667 22.167ZM16.9167 21.5837H18.025L21.5542 18.0253L21.0292 17.4712L20.475 16.9462L16.9167 20.4753V21.5837ZM21.0292 17.4712L20.475 16.9462L21.5542 18.0253L21.0292 17.4712Z" fill="black"/>
</svg>
