<svg width="28" height="28" viewBox="0 0 28 28" fill="none" xmlns="http://www.w3.org/2000/svg">
<path d="M5.83333 22.1666H7.46667L17.5292 12.1041L15.8958 10.4708L5.83333 20.5333V22.1666ZM22.5167 10.4124L17.5583 5.51242L19.1917 3.87909C19.6389 3.43186 20.1884 3.20825 20.8402 3.20825C21.4912 3.20825 22.0403 3.43186 22.4875 3.87909L24.1208 5.51242C24.5681 5.95964 24.8014 6.49942 24.8208 7.13175C24.8403 7.76331 24.6264 8.3027 24.1792 8.74992L22.5167 10.4124ZM4.66667 24.4999C4.33611 24.4999 4.05922 24.3879 3.836 24.1639C3.612 23.9407 3.5 23.6638 3.5 23.3333V20.0374C3.5 19.8819 3.52917 19.7314 3.5875 19.5859C3.64583 19.4397 3.73333 19.3083 3.85 19.1916L15.8667 7.17492L20.825 12.1333L8.80833 24.1499C8.69167 24.2666 8.56061 24.3541 8.41517 24.4124C8.26894 24.4708 8.11806 24.4999 7.9625 24.4999H4.66667Z" fill="black"/>
</svg>
