<svg width="16" height="16" viewBox="0 0 16 16" fill="none" xmlns="http://www.w3.org/2000/svg">
<path d="M6.66667 2.66671H2.66667C2.47778 2.66671 2.31944 2.60282 2.19167 2.47504C2.06389 2.34726 2 2.18893 2 2.00004C2 1.81115 2.06389 1.65282 2.19167 1.52504C2.31944 1.39726 2.47778 1.33337 2.66667 1.33337H6.66667C6.85556 1.33337 7.01389 1.39726 7.14167 1.52504C7.26944 1.65282 7.33333 1.81115 7.33333 2.00004C7.33333 2.18893 7.26944 2.34726 7.14167 2.47504C7.01389 2.60282 6.85556 2.66671 6.66667 2.66671ZM4 4.66671H2.66667C2.47778 4.66671 2.31944 4.60282 2.19167 4.47504C2.06389 4.34726 2 4.18893 2 4.00004C2 3.81115 2.06389 3.65282 2.19167 3.52504C2.31944 3.39726 2.47778 3.33337 2.66667 3.33337H6.66667C6.85556 3.33337 7.01389 3.39726 7.14167 3.52504C7.26944 3.65282 7.33333 3.81115 7.33333 4.00004C7.33333 4.18893 7.26944 4.34726 7.14167 4.47504C7.01389 4.60282 6.85556 4.66671 6.66667 4.66671H5.33333V6.66671C5.33333 6.8556 5.26944 7.01393 5.14167 7.14171C5.01389 7.26949 4.85556 7.33337 4.66667 7.33337C4.47778 7.33337 4.31944 7.26949 4.19167 7.14171C4.06389 7.01393 4 6.8556 4 6.66671V4.66671ZM9.6 13.9334C9.47778 14.0556 9.32222 14.1167 9.13333 14.1167C8.94444 14.1167 8.78889 14.0556 8.66667 13.9334C8.54444 13.8112 8.48333 13.6556 8.48333 13.4667C8.48333 13.2778 8.54444 13.1223 8.66667 13L12.9333 8.73338C13.0556 8.61115 13.2111 8.55004 13.4 8.55004C13.5889 8.55004 13.7444 8.61115 13.8667 8.73338C13.9889 8.8556 14.05 9.01115 14.05 9.20004C14.05 9.38893 13.9889 9.54449 13.8667 9.66671L9.6 13.9334ZM9.66667 10.6667C9.37778 10.6667 9.13889 10.5723 8.95 10.3834C8.76111 10.1945 8.66667 9.9556 8.66667 9.66671C8.66667 9.37782 8.76111 9.13893 8.95 8.95004C9.13889 8.76115 9.37778 8.66671 9.66667 8.66671C9.95556 8.66671 10.1944 8.76115 10.3833 8.95004C10.5722 9.13893 10.6667 9.37782 10.6667 9.66671C10.6667 9.9556 10.5722 10.1945 10.3833 10.3834C10.1944 10.5723 9.95556 10.6667 9.66667 10.6667ZM13 14C12.7111 14 12.4722 13.9056 12.2833 13.7167C12.0944 13.5278 12 13.2889 12 13C12 12.7112 12.0944 12.4723 12.2833 12.2834C12.4722 12.0945 12.7111 12 13 12C13.2889 12 13.5278 12.0945 13.7167 12.2834C13.9056 12.4723 14 12.7112 14 13C14 13.2889 13.9056 13.5278 13.7167 13.7167C13.5278 13.9056 13.2889 14 13 14ZM10.3333 7.33337C9.87778 7.33337 9.48611 7.16949 9.15833 6.84171C8.83056 6.51393 8.66667 6.12226 8.66667 5.66671C8.66667 5.21115 8.83056 4.81393 9.15833 4.47504C9.48611 4.13615 9.87778 3.96671 10.3333 3.96671C10.4667 3.96671 10.5861 3.97504 10.6917 3.99171C10.7972 4.00837 10.9 4.03337 11 4.06671V2.00004C11 1.81115 11.0639 1.65282 11.1917 1.52504C11.3194 1.39726 11.4778 1.33337 11.6667 1.33337H13.3333C13.5222 1.33337 13.6806 1.39726 13.8083 1.52504C13.9361 1.65282 14 1.81115 14 2.00004C14 2.18893 13.9361 2.34726 13.8083 2.47504C13.6806 2.60282 13.5222 2.66671 13.3333 2.66671H12V5.66671C12 6.12226 11.8361 6.51393 11.5083 6.84171C11.1806 7.16949 10.7889 7.33337 10.3333 7.33337ZM3.66667 14.6667C3.21111 14.6667 2.81944 14.4973 2.49167 14.1584C2.16389 13.8195 2 13.4223 2 12.9667C2 12.7667 2.04167 12.5639 2.125 12.3584C2.20833 12.1528 2.33333 11.9667 2.5 11.8L3.2 11.1L2.96667 10.8667C2.8 10.7 2.675 10.5195 2.59167 10.325C2.50833 10.1306 2.46667 9.92226 2.46667 9.70004C2.46667 9.24449 2.63056 8.85282 2.95833 8.52504C3.28611 8.19726 3.67778 8.03338 4.13333 8.03338C4.58889 8.03338 4.98056 8.19726 5.30833 8.52504C5.63611 8.85282 5.8 9.24449 5.8 9.70004C5.8 9.92226 5.76389 10.1306 5.69167 10.325C5.61944 10.5195 5.5 10.7 5.33333 10.8667L5.1 11.1L5.56667 11.5667L6.01667 11.1167C6.15 10.9834 6.30833 10.9195 6.49167 10.925C6.675 10.9306 6.83333 11 6.96667 11.1334C7.08889 11.2667 7.15278 11.4223 7.15833 11.6C7.16389 11.7778 7.1 11.9334 6.96667 12.0667L6.5 12.5334L6.96667 13C7.08889 13.1223 7.15 13.2778 7.15 13.4667C7.15 13.6556 7.08889 13.8112 6.96667 13.9334C6.84444 14.0556 6.68889 14.1167 6.5 14.1167C6.31111 14.1167 6.15556 14.0556 6.03333 13.9334L5.56667 13.4667L4.86667 14.1667C4.7 14.3334 4.51389 14.4584 4.30833 14.5417C4.10278 14.625 3.88889 14.6667 3.66667 14.6667ZM4.13333 10.1667L4.36667 9.93338C4.4 9.90004 4.425 9.86671 4.44167 9.83337C4.45833 9.80004 4.46667 9.7556 4.46667 9.70004C4.46667 9.60004 4.43333 9.51949 4.36667 9.45837C4.3 9.39726 4.22222 9.36671 4.13333 9.36671C4.04444 9.36671 3.96667 9.39726 3.9 9.45837C3.83333 9.51949 3.8 9.60004 3.8 9.70004C3.8 9.73338 3.80833 9.77226 3.825 9.81671C3.84167 9.86115 3.86667 9.90004 3.9 9.93338L4.13333 10.1667ZM3.63333 13.3334C3.66667 13.3334 3.71111 13.325 3.76667 13.3084C3.82222 13.2917 3.86667 13.2667 3.9 13.2334L4.63333 12.5334L4.16667 12.0667L3.43333 12.7667C3.4 12.8 3.375 12.8389 3.35833 12.8834C3.34167 12.9278 3.33333 12.9778 3.33333 13.0334C3.33333 13.1223 3.36111 13.1945 3.41667 13.25C3.47222 13.3056 3.54444 13.3334 3.63333 13.3334Z" fill="black"/>
</svg>
