<svg width="24" height="24" viewBox="0 0 24 24" fill="none" xmlns="http://www.w3.org/2000/svg">
<path d="M15.45 11.05C15.9 11.05 16.2707 10.904 16.562 10.612C16.854 10.3207 17 9.94999 17 9.49999C17 9.04999 16.854 8.67899 16.562 8.38699C16.2707 8.09565 15.9 7.94999 15.45 7.94999C15 7.94999 14.6293 8.09565 14.338 8.38699C14.046 8.67899 13.9 9.04999 13.9 9.49999C13.9 9.94999 14.046 10.3207 14.338 10.612C14.6293 10.904 15 11.05 15.45 11.05ZM8.54999 11.05C8.99999 11.05 9.37099 10.904 9.66299 10.612C9.95432 10.3207 10.1 9.94999 10.1 9.49999C10.1 9.04999 9.95432 8.67899 9.66299 8.38699C9.37099 8.09565 8.99999 7.94999 8.54999 7.94999C8.09999 7.94999 7.72932 8.09565 7.43799 8.38699C7.14599 8.67899 6.99999 9.04999 6.99999 9.49999C6.99999 9.94999 7.14599 10.3207 7.43799 10.612C7.72932 10.904 8.09999 11.05 8.54999 11.05ZM12 17.5C12.9333 17.5 13.7873 17.2917 14.562 16.875C15.3373 16.4583 15.9417 15.9417 16.375 15.325C16.5917 15.0083 16.625 14.7083 16.475 14.425C16.325 14.1417 16.0917 14 15.775 14C15.6583 14 15.5333 14.0377 15.4 14.113C15.2667 14.1877 15.1583 14.275 15.075 14.375C14.725 14.8417 14.2877 15.2127 13.763 15.488C13.2377 15.7627 12.65 15.9 12 15.9C11.35 15.9 10.7627 15.7627 10.238 15.488C9.71265 15.2127 9.27499 14.8417 8.92499 14.375C8.84165 14.275 8.72932 14.1877 8.58799 14.113C8.44599 14.0377 8.31665 14 8.19999 14C7.89999 14 7.67499 14.1373 7.52499 14.412C7.37499 14.6873 7.40832 14.9833 7.62499 15.3C8.05832 15.9333 8.66265 16.4583 9.43799 16.875C10.2127 17.2917 11.0667 17.5 12 17.5ZM12 22.2C10.5833 22.2 9.25399 21.9333 8.01199 21.4C6.77065 20.8667 5.69165 20.1417 4.77499 19.225C3.85832 18.3083 3.13332 17.2293 2.59999 15.988C2.06665 14.746 1.79999 13.4167 1.79999 12C1.79999 10.5833 2.06665 9.25399 2.59999 8.01199C3.13332 6.77065 3.85832 5.69165 4.77499 4.77499C5.69165 3.85832 6.77065 3.13332 8.01199 2.59999C9.25399 2.06665 10.5833 1.79999 12 1.79999C13.4167 1.79999 14.746 2.06665 15.988 2.59999C17.2293 3.13332 18.3083 3.85832 19.225 4.77499C20.1417 5.69165 20.8667 6.77065 21.4 8.01199C21.9333 9.25399 22.2 10.5833 22.2 12C22.2 13.4167 21.9333 14.746 21.4 15.988C20.8667 17.2293 20.1417 18.3083 19.225 19.225C18.3083 20.1417 17.2293 20.8667 15.988 21.4C14.746 21.9333 13.4167 22.2 12 22.2ZM12 19.925C14.2 19.925 16.071 19.1543 17.613 17.613C19.1543 16.071 19.925 14.2 19.925 12C19.925 9.79999 19.1543 7.92899 17.613 6.38699C16.071 4.84565 14.2 4.07499 12 4.07499C9.79999 4.07499 7.92932 4.84565 6.38799 6.38699C4.84599 7.92899 4.07499 9.79999 4.07499 12C4.07499 14.2 4.84599 16.071 6.38799 17.613C7.92932 19.1543 9.79999 19.925 12 19.925Z" fill="black"/>
</svg>
