<svg width="16" height="16" viewBox="0 0 16 16" fill="none" xmlns="http://www.w3.org/2000/svg">
<path d="M10.3 7.36668C10.6 7.36668 10.8471 7.26935 11.0413 7.07468C11.236 6.88046 11.3333 6.63335 11.3333 6.33335C11.3333 6.03335 11.236 5.78601 11.0413 5.59135C10.8471 5.39712 10.6 5.30001 10.3 5.30001C10 5.30001 9.7529 5.39712 9.55868 5.59135C9.36401 5.78601 9.26668 6.03335 9.26668 6.33335C9.26668 6.63335 9.36401 6.88046 9.55868 7.07468C9.7529 7.26935 10 7.36668 10.3 7.36668V7.36668ZM5.70001 7.36668C6.00001 7.36668 6.24735 7.26935 6.44201 7.07468C6.63623 6.88046 6.73335 6.63335 6.73335 6.33335C6.73335 6.03335 6.63623 5.78601 6.44201 5.59135C6.24735 5.39712 6.00001 5.30001 5.70001 5.30001C5.40001 5.30001 5.1529 5.39712 4.95868 5.59135C4.76401 5.78601 4.66668 6.03335 4.66668 6.33335C4.66668 6.63335 4.76401 6.88046 4.95868 7.07468C5.1529 7.26935 5.40001 7.36668 5.70001 7.36668V7.36668ZM8.00001 11.6667C8.6889 11.6667 9.30557 11.5 9.85001 11.1667C10.3945 10.8333 10.8278 10.3945 11.15 9.85001C11.2389 9.70557 11.2445 9.57512 11.1667 9.45868C11.0889 9.34179 10.9611 9.28335 10.7833 9.28335H5.21668C5.0389 9.28335 4.91112 9.34179 4.83335 9.45868C4.75557 9.57512 4.76112 9.70557 4.85001 9.85001C5.17223 10.3945 5.60557 10.8333 6.15001 11.1667C6.69446 11.5 7.31112 11.6667 8.00001 11.6667ZM8.00001 14.8C7.05557 14.8 6.16935 14.6222 5.34135 14.2667C4.51379 13.9111 3.79446 13.4278 3.18335 12.8167C2.57223 12.2056 2.0889 11.4862 1.73335 10.6587C1.37779 9.83068 1.20001 8.94446 1.20001 8.00001C1.20001 7.05557 1.37779 6.16935 1.73335 5.34135C2.0889 4.51379 2.57223 3.79446 3.18335 3.18335C3.79446 2.57223 4.51379 2.0889 5.34135 1.73335C6.16935 1.37779 7.05557 1.20001 8.00001 1.20001C8.94446 1.20001 9.83068 1.37779 10.6587 1.73335C11.4862 2.0889 12.2056 2.57223 12.8167 3.18335C13.4278 3.79446 13.9111 4.51379 14.2667 5.34135C14.6222 6.16935 14.8 7.05557 14.8 8.00001C14.8 8.94446 14.6222 9.83068 14.2667 10.6587C13.9111 11.4862 13.4278 12.2056 12.8167 12.8167C12.2056 13.4278 11.4862 13.9111 10.6587 14.2667C9.83068 14.6222 8.94446 14.8 8.00001 14.8ZM8.00001 13.2833C9.46668 13.2833 10.714 12.7696 11.742 11.742C12.7696 10.714 13.2833 9.46668 13.2833 8.00001C13.2833 6.53335 12.7696 5.28601 11.742 4.25801C10.714 3.23046 9.46668 2.71668 8.00001 2.71668C6.53335 2.71668 5.28623 3.23046 4.25868 4.25801C3.23068 5.28601 2.71668 6.53335 2.71668 8.00001C2.71668 9.46668 3.23068 10.714 4.25868 11.742C5.28623 12.7696 6.53335 13.2833 8.00001 13.2833Z" fill="black"/>
</svg>
