<svg width="28" height="28" viewBox="0 0 28 28" fill="none" xmlns="http://www.w3.org/2000/svg">
<path d="M11.6667 4.66671H4.66667C4.33611 4.66671 4.05903 4.5549 3.83542 4.33129C3.61181 4.10768 3.5 3.8306 3.5 3.50004C3.5 3.16949 3.61181 2.8924 3.83542 2.66879C4.05903 2.44518 4.33611 2.33337 4.66667 2.33337H11.6667C11.9972 2.33337 12.2743 2.44518 12.4979 2.66879C12.7215 2.8924 12.8333 3.16949 12.8333 3.50004C12.8333 3.8306 12.7215 4.10768 12.4979 4.33129C12.2743 4.5549 11.9972 4.66671 11.6667 4.66671ZM7 8.16671H4.66667C4.33611 8.16671 4.05903 8.0549 3.83542 7.83129C3.61181 7.60768 3.5 7.3306 3.5 7.00004C3.5 6.66949 3.61181 6.3924 3.83542 6.16879C4.05903 5.94518 4.33611 5.83337 4.66667 5.83337H11.6667C11.9972 5.83337 12.2743 5.94518 12.4979 6.16879C12.7215 6.3924 12.8333 6.66949 12.8333 7.00004C12.8333 7.3306 12.7215 7.60768 12.4979 7.83129C12.2743 8.0549 11.9972 8.16671 11.6667 8.16671H9.33333V11.6667C9.33333 11.9973 9.22153 12.2743 8.99792 12.498C8.77431 12.7216 8.49722 12.8334 8.16667 12.8334C7.83611 12.8334 7.55903 12.7216 7.33542 12.498C7.11181 12.2743 7 11.9973 7 11.6667V8.16671ZM16.8 24.3834C16.5861 24.5973 16.3139 24.7042 15.9833 24.7042C15.6528 24.7042 15.3806 24.5973 15.1667 24.3834C14.9528 24.1695 14.8458 23.8973 14.8458 23.5667C14.8458 23.2362 14.9528 22.9639 15.1667 22.75L22.6333 15.2834C22.8472 15.0695 23.1194 14.9625 23.45 14.9625C23.7806 14.9625 24.0528 15.0695 24.2667 15.2834C24.4806 15.4973 24.5875 15.7695 24.5875 16.1C24.5875 16.4306 24.4806 16.7028 24.2667 16.9167L16.8 24.3834ZM16.9167 18.6667C16.4111 18.6667 15.9931 18.5014 15.6625 18.1709C15.3319 17.8403 15.1667 17.4223 15.1667 16.9167C15.1667 16.4112 15.3319 15.9931 15.6625 15.6625C15.9931 15.332 16.4111 15.1667 16.9167 15.1667C17.4222 15.1667 17.8403 15.332 18.1708 15.6625C18.5014 15.9931 18.6667 16.4112 18.6667 16.9167C18.6667 17.4223 18.5014 17.8403 18.1708 18.1709C17.8403 18.5014 17.4222 18.6667 16.9167 18.6667ZM22.75 24.5C22.2444 24.5 21.8264 24.3348 21.4958 24.0042C21.1653 23.6737 21 23.2556 21 22.75C21 22.2445 21.1653 21.8264 21.4958 21.4959C21.8264 21.1653 22.2444 21 22.75 21C23.2556 21 23.6736 21.1653 24.0042 21.4959C24.3347 21.8264 24.5 22.2445 24.5 22.75C24.5 23.2556 24.3347 23.6737 24.0042 24.0042C23.6736 24.3348 23.2556 24.5 22.75 24.5ZM18.0833 12.8334C17.2861 12.8334 16.6007 12.5466 16.0271 11.973C15.4535 11.3993 15.1667 10.7139 15.1667 9.91671C15.1667 9.11949 15.4535 8.42435 16.0271 7.83129C16.6007 7.23824 17.2861 6.94171 18.0833 6.94171C18.3167 6.94171 18.5257 6.95629 18.7104 6.98546C18.8951 7.01462 19.075 7.05837 19.25 7.11671V3.50004C19.25 3.16949 19.3618 2.8924 19.5854 2.66879C19.809 2.44518 20.0861 2.33337 20.4167 2.33337H23.3333C23.6639 2.33337 23.941 2.44518 24.1646 2.66879C24.3882 2.8924 24.5 3.16949 24.5 3.50004C24.5 3.8306 24.3882 4.10768 24.1646 4.33129C23.941 4.5549 23.6639 4.66671 23.3333 4.66671H21V9.91671C21 10.7139 20.7132 11.3993 20.1396 11.973C19.566 12.5466 18.8806 12.8334 18.0833 12.8334ZM6.41667 25.6667C5.61944 25.6667 4.93403 25.3702 4.36042 24.7771C3.78681 24.1841 3.5 23.4889 3.5 22.6917C3.5 22.3417 3.57292 21.9868 3.71875 21.6271C3.86458 21.2674 4.08333 20.9417 4.375 20.65L5.6 19.425L5.19167 19.0167C4.9 18.725 4.68125 18.4091 4.53542 18.0688C4.38958 17.7285 4.31667 17.3639 4.31667 16.975C4.31667 16.1778 4.60347 15.4924 5.17708 14.9188C5.75069 14.3452 6.43611 14.0584 7.23333 14.0584C8.03056 14.0584 8.71597 14.3452 9.28958 14.9188C9.86319 15.4924 10.15 16.1778 10.15 16.975C10.15 17.3639 10.0868 17.7285 9.96042 18.0688C9.83403 18.4091 9.625 18.725 9.33333 19.0167L8.925 19.425L9.74167 20.2417L10.5292 19.4542C10.7625 19.2209 11.0396 19.1091 11.3604 19.1188C11.6813 19.1285 11.9583 19.25 12.1917 19.4834C12.4056 19.7167 12.5174 19.9889 12.5271 20.3C12.5368 20.6112 12.425 20.8834 12.1917 21.1167L11.375 21.9334L12.1917 22.75C12.4056 22.9639 12.5125 23.2362 12.5125 23.5667C12.5125 23.8973 12.4056 24.1695 12.1917 24.3834C11.9778 24.5973 11.7056 24.7042 11.375 24.7042C11.0444 24.7042 10.7722 24.5973 10.5583 24.3834L9.74167 23.5667L8.51667 24.7917C8.225 25.0834 7.89931 25.3021 7.53958 25.448C7.17986 25.5938 6.80556 25.6667 6.41667 25.6667ZM7.23333 17.7917L7.64167 17.3834C7.7 17.325 7.74375 17.2667 7.77292 17.2084C7.80208 17.15 7.81667 17.0723 7.81667 16.975C7.81667 16.8 7.75833 16.6591 7.64167 16.5521C7.525 16.4452 7.38889 16.3917 7.23333 16.3917C7.07778 16.3917 6.94167 16.4452 6.825 16.5521C6.70833 16.6591 6.65 16.8 6.65 16.975C6.65 17.0334 6.66458 17.1014 6.69375 17.1792C6.72292 17.257 6.76667 17.325 6.825 17.3834L7.23333 17.7917ZM6.35833 23.3334C6.41667 23.3334 6.49444 23.3188 6.59167 23.2896C6.68889 23.2605 6.76667 23.2167 6.825 23.1584L8.10833 21.9334L7.29167 21.1167L6.00833 22.3417C5.95 22.4 5.90625 22.4681 5.87708 22.5459C5.84792 22.6237 5.83333 22.7112 5.83333 22.8084C5.83333 22.9639 5.88194 23.0903 5.97917 23.1875C6.07639 23.2848 6.20278 23.3334 6.35833 23.3334Z" fill="black"/>
</svg>
