<svg width="28" height="28" viewBox="0 0 28 28" fill="none" xmlns="http://www.w3.org/2000/svg">
<path d="M18.025 12.8916C18.55 12.8916 18.9825 12.7213 19.3223 12.3806C19.663 12.0408 19.8333 11.6083 19.8333 11.0833C19.8333 10.5583 19.663 10.1255 19.3223 9.78481C18.9825 9.44492 18.55 9.27497 18.025 9.27497C17.5 9.27497 17.0676 9.44492 16.7277 9.78481C16.387 10.1255 16.2167 10.5583 16.2167 11.0833C16.2167 11.6083 16.387 12.0408 16.7277 12.3806C17.0676 12.7213 17.5 12.8916 18.025 12.8916V12.8916ZM9.97501 12.8916C10.5 12.8916 10.9328 12.7213 11.2735 12.3806C11.6134 12.0408 11.7833 11.6083 11.7833 11.0833C11.7833 10.5583 11.6134 10.1255 11.2735 9.78481C10.9328 9.44492 10.5 9.27497 9.97501 9.27497C9.45001 9.27497 9.01756 9.44492 8.67767 9.78481C8.33701 10.1255 8.16667 10.5583 8.16667 11.0833C8.16667 11.6083 8.33701 12.0408 8.67767 12.3806C9.01756 12.7213 9.45001 12.8916 9.97501 12.8916V12.8916ZM14 20.4166C15.0889 20.4166 16.0852 20.1736 16.989 19.6875C17.8936 19.2014 18.5986 18.5986 19.1042 17.8791C19.3569 17.5097 19.3958 17.1597 19.2208 16.8291C19.0458 16.4986 18.7736 16.3333 18.4042 16.3333C18.2681 16.3333 18.1222 16.3773 17.9667 16.4651C17.8111 16.5523 17.6847 16.6541 17.5875 16.7708C17.1792 17.3153 16.6689 17.7481 16.0568 18.0693C15.4439 18.3898 14.7583 18.55 14 18.55C13.2417 18.55 12.5564 18.3898 11.9443 18.0693C11.3314 17.7481 10.8208 17.3153 10.4125 16.7708C10.3153 16.6541 10.1842 16.5523 10.0193 16.4651C9.85367 16.3773 9.70278 16.3333 9.56667 16.3333C9.21667 16.3333 8.95417 16.4935 8.77917 16.814C8.60417 17.1352 8.64306 17.4805 8.89584 17.85C9.40139 18.5889 10.1064 19.2014 11.011 19.6875C11.9148 20.1736 12.9111 20.4166 14 20.4166ZM14 25.9C12.3472 25.9 10.7963 25.5889 9.34734 24.9666C7.89912 24.3444 6.64028 23.4986 5.57084 22.4291C4.5014 21.3597 3.65556 20.1009 3.03334 18.6526C2.41112 17.2036 2.10001 15.6528 2.10001 14C2.10001 12.3472 2.41112 10.7963 3.03334 9.34731C3.65556 7.89909 4.5014 6.64025 5.57084 5.57081C6.64028 4.50136 7.89912 3.65553 9.34734 3.03331C10.7963 2.41109 12.3472 2.09998 14 2.09998C15.6528 2.09998 17.2037 2.41109 18.6527 3.03331C20.1009 3.65553 21.3597 4.50136 22.4292 5.57081C23.4986 6.64025 24.3445 7.89909 24.9667 9.34731C25.5889 10.7963 25.9 12.3472 25.9 14C25.9 15.6528 25.5889 17.2036 24.9667 18.6526C24.3445 20.1009 23.4986 21.3597 22.4292 22.4291C21.3597 23.4986 20.1009 24.3444 18.6527 24.9666C17.2037 25.5889 15.6528 25.9 14 25.9ZM14 23.2458C16.5667 23.2458 18.7495 22.3467 20.5485 20.5485C22.3467 18.7495 23.2458 16.5666 23.2458 14C23.2458 11.4333 22.3467 9.25048 20.5485 7.45148C18.7495 5.65325 16.5667 4.75414 14 4.75414C11.4333 4.75414 9.2509 5.65325 7.45267 7.45148C5.65367 9.25048 4.75417 11.4333 4.75417 14C4.75417 16.5666 5.65367 18.7495 7.45267 20.5485C9.2509 22.3467 11.4333 23.2458 14 23.2458Z" fill="black"/>
</svg>
