<svg width="24" height="24" viewBox="0 0 24 24" fill="none" xmlns="http://www.w3.org/2000/svg">
<path d="M10 4H4C3.71667 4 3.47917 3.90417 3.2875 3.7125C3.09583 3.52083 3 3.28333 3 3C3 2.71667 3.09583 2.47917 3.2875 2.2875C3.47917 2.09583 3.71667 2 4 2H10C10.2833 2 10.5208 2.09583 10.7125 2.2875C10.9042 2.47917 11 2.71667 11 3C11 3.28333 10.9042 3.52083 10.7125 3.7125C10.5208 3.90417 10.2833 4 10 4ZM6 7H4C3.71667 7 3.47917 6.90417 3.2875 6.7125C3.09583 6.52083 3 6.28333 3 6C3 5.71667 3.09583 5.47917 3.2875 5.2875C3.47917 5.09583 3.71667 5 4 5H10C10.2833 5 10.5208 5.09583 10.7125 5.2875C10.9042 5.47917 11 5.71667 11 6C11 6.28333 10.9042 6.52083 10.7125 6.7125C10.5208 6.90417 10.2833 7 10 7H8V10C8 10.2833 7.90417 10.5208 7.7125 10.7125C7.52083 10.9042 7.28333 11 7 11C6.71667 11 6.47917 10.9042 6.2875 10.7125C6.09583 10.5208 6 10.2833 6 10V7ZM14.4 20.9C14.2167 21.0833 13.9833 21.175 13.7 21.175C13.4167 21.175 13.1833 21.0833 13 20.9C12.8167 20.7167 12.725 20.4833 12.725 20.2C12.725 19.9167 12.8167 19.6833 13 19.5L19.4 13.1C19.5833 12.9167 19.8167 12.825 20.1 12.825C20.3833 12.825 20.6167 12.9167 20.8 13.1C20.9833 13.2833 21.075 13.5167 21.075 13.8C21.075 14.0833 20.9833 14.3167 20.8 14.5L14.4 20.9ZM14.5 16C14.0667 16 13.7083 15.8583 13.425 15.575C13.1417 15.2917 13 14.9333 13 14.5C13 14.0667 13.1417 13.7083 13.425 13.425C13.7083 13.1417 14.0667 13 14.5 13C14.9333 13 15.2917 13.1417 15.575 13.425C15.8583 13.7083 16 14.0667 16 14.5C16 14.9333 15.8583 15.2917 15.575 15.575C15.2917 15.8583 14.9333 16 14.5 16ZM19.5 21C19.0667 21 18.7083 20.8583 18.425 20.575C18.1417 20.2917 18 19.9333 18 19.5C18 19.0667 18.1417 18.7083 18.425 18.425C18.7083 18.1417 19.0667 18 19.5 18C19.9333 18 20.2917 18.1417 20.575 18.425C20.8583 18.7083 21 19.0667 21 19.5C21 19.9333 20.8583 20.2917 20.575 20.575C20.2917 20.8583 19.9333 21 19.5 21ZM15.5 11C14.8167 11 14.2292 10.7542 13.7375 10.2625C13.2458 9.77083 13 9.18333 13 8.5C13 7.81667 13.2458 7.22083 13.7375 6.7125C14.2292 6.20417 14.8167 5.95 15.5 5.95C15.7 5.95 15.8792 5.9625 16.0375 5.9875C16.1958 6.0125 16.35 6.05 16.5 6.1V3C16.5 2.71667 16.5958 2.47917 16.7875 2.2875C16.9792 2.09583 17.2167 2 17.5 2H20C20.2833 2 20.5208 2.09583 20.7125 2.2875C20.9042 2.47917 21 2.71667 21 3C21 3.28333 20.9042 3.52083 20.7125 3.7125C20.5208 3.90417 20.2833 4 20 4H18V8.5C18 9.18333 17.7542 9.77083 17.2625 10.2625C16.7708 10.7542 16.1833 11 15.5 11ZM5.5 22C4.81667 22 4.22917 21.7458 3.7375 21.2375C3.24583 20.7292 3 20.1333 3 19.45C3 19.15 3.0625 18.8458 3.1875 18.5375C3.3125 18.2292 3.5 17.95 3.75 17.7L4.8 16.65L4.45 16.3C4.2 16.05 4.0125 15.7792 3.8875 15.4875C3.7625 15.1958 3.7 14.8833 3.7 14.55C3.7 13.8667 3.94583 13.2792 4.4375 12.7875C4.92917 12.2958 5.51667 12.05 6.2 12.05C6.88333 12.05 7.47083 12.2958 7.9625 12.7875C8.45417 13.2792 8.7 13.8667 8.7 14.55C8.7 14.8833 8.64583 15.1958 8.5375 15.4875C8.42917 15.7792 8.25 16.05 8 16.3L7.65 16.65L8.35 17.35L9.025 16.675C9.225 16.475 9.4625 16.3792 9.7375 16.3875C10.0125 16.3958 10.25 16.5 10.45 16.7C10.6333 16.9 10.7292 17.1333 10.7375 17.4C10.7458 17.6667 10.65 17.9 10.45 18.1L9.75 18.8L10.45 19.5C10.6333 19.6833 10.725 19.9167 10.725 20.2C10.725 20.4833 10.6333 20.7167 10.45 20.9C10.2667 21.0833 10.0333 21.175 9.75 21.175C9.46667 21.175 9.23333 21.0833 9.05 20.9L8.35 20.2L7.3 21.25C7.05 21.5 6.77083 21.6875 6.4625 21.8125C6.15417 21.9375 5.83333 22 5.5 22ZM6.2 15.25L6.55 14.9C6.6 14.85 6.6375 14.8 6.6625 14.75C6.6875 14.7 6.7 14.6333 6.7 14.55C6.7 14.4 6.65 14.2792 6.55 14.1875C6.45 14.0958 6.33333 14.05 6.2 14.05C6.06667 14.05 5.95 14.0958 5.85 14.1875C5.75 14.2792 5.7 14.4 5.7 14.55C5.7 14.6 5.7125 14.6583 5.7375 14.725C5.7625 14.7917 5.8 14.85 5.85 14.9L6.2 15.25ZM5.45 20C5.5 20 5.56667 19.9875 5.65 19.9625C5.73333 19.9375 5.8 19.9 5.85 19.85L6.95 18.8L6.25 18.1L5.15 19.15C5.1 19.2 5.0625 19.2583 5.0375 19.325C5.0125 19.3917 5 19.4667 5 19.55C5 19.6833 5.04167 19.7917 5.125 19.875C5.20833 19.9583 5.31667 20 5.45 20Z" fill="black"/>
</svg>
