<svg width="16" height="16" viewBox="0 0 16 16" fill="none" xmlns="http://www.w3.org/2000/svg">
<path d="M6.35 12.0171C6.12778 12.1616 5.90278 12.1699 5.675 12.0421C5.44722 11.9143 5.33333 11.7171 5.33333 11.4504V8.66712H2C1.81111 8.66712 1.65278 8.60323 1.525 8.47545C1.39722 8.34767 1.33333 8.18934 1.33333 8.00045C1.33333 7.81156 1.39722 7.65323 1.525 7.52545C1.65278 7.39767 1.81111 7.33378 2 7.33378H5.33333V4.55045C5.33333 4.28378 5.44722 4.08656 5.675 3.95878C5.90278 3.831 6.12778 3.83934 6.35 3.98378L11.7833 7.43378C11.9944 7.56712 12.1 7.756 12.1 8.00045C12.1 8.24489 11.9944 8.43378 11.7833 8.56712L6.35 12.0171ZM6.66667 10.2338L10.1833 8.00045L6.66667 5.76711V10.2338Z" fill="#191919"/>
<path d="M12.6667 4.33366C12.6667 3.96547 12.9651 3.66699 13.3333 3.66699C13.7015 3.66699 14 3.96547 14 4.33366V11.667C14 12.0352 13.7015 12.3337 13.3333 12.3337C12.9651 12.3337 12.6667 12.0352 12.6667 11.667V4.33366Z" fill="#191919"/>
</svg>
