<svg width="28" height="28" viewBox="0 0 28 28" fill="none" xmlns="http://www.w3.org/2000/svg">
<path d="M11.1125 21.0297C10.7236 21.2825 10.3299 21.2971 9.93124 21.0735C9.53263 20.8498 9.33333 20.5047 9.33333 20.038V15.1672H3.49999C3.16944 15.1672 2.89236 15.0554 2.66874 14.8318C2.44513 14.6082 2.33333 14.3311 2.33333 14.0005C2.33333 13.67 2.44513 13.3929 2.66874 13.1693C2.89236 12.9457 3.16944 12.8339 3.49999 12.8339H9.33333V7.96304C9.33333 7.49637 9.53263 7.15123 9.93124 6.92762C10.3299 6.70401 10.7236 6.71859 11.1125 6.97137L20.6208 13.0089C20.9903 13.2422 21.175 13.5728 21.175 14.0005C21.175 14.4283 20.9903 14.7589 20.6208 14.9922L11.1125 21.0297ZM11.6667 17.9089L17.8208 14.0005L11.6667 10.0922V17.9089Z" fill="#191919"/>
<path d="M22.1667 7.58366C22.1667 6.93933 22.689 6.41699 23.3333 6.41699C23.9777 6.41699 24.5 6.93933 24.5 7.58366V20.417C24.5 21.0613 23.9777 21.5837 23.3333 21.5837C22.689 21.5837 22.1667 21.0613 22.1667 20.417V7.58366Z" fill="#191919"/>
</svg>
