<svg width="24" height="24" viewBox="0 0 24 24" fill="none" xmlns="http://www.w3.org/2000/svg">
<path d="M9.525 18.0252C9.19167 18.2419 8.85417 18.2544 8.5125 18.0627C8.17083 17.871 8 17.5752 8 17.1752V13.0002H3C2.71667 13.0002 2.47917 12.9044 2.2875 12.7127C2.09583 12.521 2 12.2835 2 12.0002C2 11.7169 2.09583 11.4794 2.2875 11.2877C2.47917 11.096 2.71667 11.0002 3 11.0002H8V6.82518C8 6.42518 8.17083 6.12935 8.5125 5.93768C8.85417 5.74602 9.19167 5.75852 9.525 5.97518L17.675 11.1502C17.9917 11.3502 18.15 11.6335 18.15 12.0002C18.15 12.3669 17.9917 12.6502 17.675 12.8502L9.525 18.0252ZM10 15.3502L15.275 12.0002L10 8.65018V15.3502Z" fill="#191919"/>
<path d="M19 6.5C19 5.94772 19.4477 5.5 20 5.5C20.5523 5.5 21 5.94772 21 6.5V17.5C21 18.0523 20.5523 18.5 20 18.5C19.4477 18.5 19 18.0523 19 17.5V6.5Z" fill="#191919"/>
</svg>
