<svg width="28" height="28" viewBox="0 0 28 28" fill="none" xmlns="http://www.w3.org/2000/svg">
<path d="M10.5875 24.5C10.2764 24.5 9.97967 24.4417 9.69733 24.325C9.41578 24.2083 9.16806 24.0431 8.95417 23.8292L4.17083 19.0458C3.95694 18.8319 3.79167 18.5842 3.675 18.3027C3.55833 18.0203 3.5 17.7236 3.5 17.4125V10.5875C3.5 10.2764 3.55833 9.97967 3.675 9.69733C3.79167 9.41578 3.95694 9.16806 4.17083 8.95417L8.95417 4.17083C9.16806 3.95694 9.41578 3.79167 9.69733 3.675C9.97967 3.55833 10.2764 3.5 10.5875 3.5H17.4125C17.7236 3.5 18.0203 3.55833 18.3027 3.675C18.5842 3.79167 18.8319 3.95694 19.0458 4.17083L23.8292 8.95417C24.0431 9.16806 24.2083 9.41578 24.325 9.69733C24.4417 9.97967 24.5 10.2764 24.5 10.5875V17.4125C24.5 17.7236 24.4417 18.0203 24.325 18.3027C24.2083 18.5842 24.0431 18.8319 23.8292 19.0458L19.0458 23.8292C18.8319 24.0431 18.5842 24.2083 18.3027 24.325C18.0203 24.4417 17.7236 24.5 17.4125 24.5H10.5875ZM14 19.8333C14.3306 19.8333 14.6078 19.7213 14.8318 19.4973C15.0551 19.2741 15.1667 18.9972 15.1667 18.6667C15.1667 18.3361 15.0551 18.0588 14.8318 17.8348C14.6078 17.6116 14.3306 17.5 14 17.5C13.6694 17.5 13.3926 17.6116 13.1693 17.8348C12.9453 18.0588 12.8333 18.3361 12.8333 18.6667C12.8333 18.9972 12.9453 19.2741 13.1693 19.4973C13.3926 19.7213 13.6694 19.8333 14 19.8333ZM14 15.1667C14.3306 15.1667 14.6078 15.0547 14.8318 14.8307C15.0551 14.6074 15.1667 14.3306 15.1667 14V9.33333C15.1667 9.00278 15.0551 8.7255 14.8318 8.5015C14.6078 8.27828 14.3306 8.16667 14 8.16667C13.6694 8.16667 13.3926 8.27828 13.1693 8.5015C12.9453 8.7255 12.8333 9.00278 12.8333 9.33333V14C12.8333 14.3306 12.9453 14.6074 13.1693 14.8307C13.3926 15.0547 13.6694 15.1667 14 15.1667ZM10.6167 22.1667H17.3833L22.1667 17.3833V10.6167L17.3833 5.83333H10.6167L5.83333 10.6167V17.3833L10.6167 22.1667Z" fill="black"/>
</svg>
