<svg width="16" height="16" viewBox="0 0 16 16" fill="none" xmlns="http://www.w3.org/2000/svg">
<path d="M4.39999 9.85C4.25554 9.70556 4.18332 9.52778 4.18332 9.31667C4.18332 9.10556 4.25554 8.92778 4.39999 8.78333L7.46665 5.71667C7.54443 5.63889 7.62776 5.58333 7.71665 5.55C7.80554 5.51667 7.89999 5.5 7.99999 5.5C8.09999 5.5 8.19443 5.51667 8.28332 5.55C8.37221 5.58333 8.45554 5.63889 8.53332 5.71667L11.6167 8.8C11.7611 8.94444 11.8307 9.11667 11.8253 9.31667C11.8195 9.51667 11.7444 9.69444 11.6 9.85C11.4555 9.98333 11.2778 10.05 11.0667 10.05C10.8555 10.05 10.6778 9.98333 10.5333 9.85L7.99999 7.3L5.44999 9.86667C5.30554 10 5.13332 10.0667 4.93332 10.0667C4.73332 10.0667 4.55554 9.99444 4.39999 9.85V9.85Z" fill="black"/>
</svg>
