<svg width="16" height="16" viewBox="0 0 16 16" fill="none" xmlns="http://www.w3.org/2000/svg">
<path d="M7.99999 10.05C7.89999 10.05 7.80554 10.0334 7.71665 10C7.62777 9.9667 7.54443 9.9167 7.46665 9.85003L4.38332 6.7667C4.23888 6.62225 4.16954 6.44714 4.17532 6.24137C4.18065 6.03603 4.25554 5.86114 4.39999 5.7167C4.54443 5.57225 4.72221 5.50003 4.93332 5.50003C5.14443 5.50003 5.32221 5.57225 5.46665 5.7167L7.99999 8.25003L10.55 5.70003C10.6944 5.55559 10.8695 5.48625 11.0753 5.49203C11.2807 5.49737 11.4555 5.57225 11.6 5.7167C11.7444 5.86114 11.8167 6.03892 11.8167 6.25003C11.8167 6.46114 11.7444 6.63892 11.6 6.78337L8.53332 9.85003C8.45554 9.9167 8.37221 9.9667 8.28332 10C8.19443 10.0334 8.09999 10.05 7.99999 10.05V10.05Z" fill="black"/>
</svg>
