<svg width="28" height="28" viewBox="0 0 28 28" fill="none" xmlns="http://www.w3.org/2000/svg">
<path d="M7.7 17.2375C7.44722 16.9847 7.32083 16.6736 7.32083 16.3042C7.32083 15.9347 7.44722 15.6236 7.7 15.3708L13.0667 10.0042C13.2028 9.86806 13.3486 9.77083 13.5042 9.7125C13.6597 9.65417 13.825 9.625 14 9.625C14.175 9.625 14.3403 9.65417 14.4958 9.7125C14.6514 9.77083 14.7972 9.86806 14.9333 10.0042L20.3292 15.4C20.5819 15.6528 20.7037 15.9542 20.6943 16.3042C20.6842 16.6542 20.5528 16.9653 20.3 17.2375C20.0472 17.4708 19.7361 17.5875 19.3667 17.5875C18.9972 17.5875 18.6861 17.4708 18.4333 17.2375L14 12.775L9.5375 17.2667C9.28472 17.5 8.98333 17.6167 8.63333 17.6167C8.28333 17.6167 7.97222 17.4903 7.7 17.2375V17.2375Z" fill="black"/>
</svg>
