<svg width="28" height="28" viewBox="0 0 28 28" fill="none" xmlns="http://www.w3.org/2000/svg">
<path d="M14 17.5876C13.825 17.5876 13.6597 17.5584 13.5042 17.5001C13.3486 17.4417 13.2028 17.3542 13.0667 17.2376L7.67083 11.8417C7.41805 11.5889 7.29672 11.2825 7.30683 10.9224C7.31616 10.5631 7.44722 10.257 7.69999 10.0042C7.95277 9.75145 8.26388 9.62506 8.63333 9.62506C9.00277 9.62506 9.31388 9.75145 9.56666 10.0042L14 14.4376L18.4625 9.97506C18.7153 9.72228 19.0217 9.60095 19.3818 9.61106C19.7412 9.62039 20.0472 9.75145 20.3 10.0042C20.5528 10.257 20.6792 10.5681 20.6792 10.9376C20.6792 11.307 20.5528 11.6181 20.3 11.8709L14.9333 17.2376C14.7972 17.3542 14.6514 17.4417 14.4958 17.5001C14.3403 17.5584 14.175 17.5876 14 17.5876V17.5876Z" fill="black"/>
</svg>
