<svg width="28" height="28" viewBox="0 0 28 28" fill="none" xmlns="http://www.w3.org/2000/svg">
<path d="M5.83332 24.5C4.84166 24.5 4.1368 24.0576 3.71874 23.1729C3.30069 22.2882 3.40277 21.4667 4.02499 20.7083L10.5 12.8333V5.83333H9.33332C9.00277 5.83333 8.72569 5.72153 8.50207 5.49792C8.27846 5.27431 8.16666 4.99722 8.16666 4.66667C8.16666 4.33611 8.27846 4.05903 8.50207 3.83542C8.72569 3.61181 9.00277 3.5 9.33332 3.5H18.6667C18.9972 3.5 19.2743 3.61181 19.4979 3.83542C19.7215 4.05903 19.8333 4.33611 19.8333 4.66667C19.8333 4.99722 19.7215 5.27431 19.4979 5.49792C19.2743 5.72153 18.9972 5.83333 18.6667 5.83333H17.5V12.8333L23.975 20.7083C24.5972 21.4667 24.6993 22.2882 24.2812 23.1729C23.8632 24.0576 23.1583 24.5 22.1667 24.5H5.83332ZM8.16666 21H19.8333L15.8667 16.3333H12.1333L8.16666 21ZM5.83332 22.1667H22.1667L15.1667 13.65V5.83333H12.8333V13.65L5.83332 22.1667Z" fill="black"/>
</svg>
