<svg width="24" height="24" viewBox="0 0 24 24" fill="none" xmlns="http://www.w3.org/2000/svg">
<path d="M5 21C4.15 21 3.54583 20.6208 3.1875 19.8625C2.82917 19.1042 2.91667 18.4 3.45 17.75L9 11V5H8C7.71667 5 7.47917 4.90417 7.2875 4.7125C7.09583 4.52083 7 4.28333 7 4C7 3.71667 7.09583 3.47917 7.2875 3.2875C7.47917 3.09583 7.71667 3 8 3H16C16.2833 3 16.5208 3.09583 16.7125 3.2875C16.9042 3.47917 17 3.71667 17 4C17 4.28333 16.9042 4.52083 16.7125 4.7125C16.5208 4.90417 16.2833 5 16 5H15V11L20.55 17.75C21.0833 18.4 21.1708 19.1042 20.8125 19.8625C20.4542 20.6208 19.85 21 19 21H5ZM7 18H17L13.6 14H10.4L7 18ZM5 19H19L13 11.7V5H11V11.7L5 19Z" fill="black"/>
</svg>
