<svg width="16" height="16" viewBox="0 0 16 16" fill="none" xmlns="http://www.w3.org/2000/svg">
<path d="M3.33335 14C2.76669 14 2.36391 13.7472 2.12502 13.2417C1.88613 12.7361 1.94447 12.2667 2.30002 11.8333L6.00002 7.33333V3.33333H5.33335C5.14447 3.33333 4.98613 3.26944 4.85835 3.14167C4.73058 3.01389 4.66669 2.85556 4.66669 2.66667C4.66669 2.47778 4.73058 2.31944 4.85835 2.19167C4.98613 2.06389 5.14447 2 5.33335 2H10.6667C10.8556 2 11.0139 2.06389 11.1417 2.19167C11.2695 2.31944 11.3334 2.47778 11.3334 2.66667C11.3334 2.85556 11.2695 3.01389 11.1417 3.14167C11.0139 3.26944 10.8556 3.33333 10.6667 3.33333H10V7.33333L13.7 11.8333C14.0556 12.2667 14.1139 12.7361 13.875 13.2417C13.6361 13.7472 13.2334 14 12.6667 14H3.33335ZM4.66669 12H11.3334L9.06669 9.33333H6.93335L4.66669 12ZM3.33335 12.6667H12.6667L8.66669 7.8V3.33333H7.33335V7.8L3.33335 12.6667Z" fill="black"/>
</svg>
