<svg width="28" height="28" viewBox="0 0 28 28" fill="none" xmlns="http://www.w3.org/2000/svg">
<path d="M4.66732 24.5C4.02565 24.5 3.47635 24.2715 3.0194 23.8146C2.56246 23.3576 2.33398 22.8083 2.33398 22.1667V5.83333C2.33398 5.19167 2.56246 4.64236 3.0194 4.18542C3.47635 3.72847 4.02565 3.5 4.66732 3.5H23.334C23.9757 3.5 24.525 3.72847 24.9819 4.18542C25.4388 4.64236 25.6673 5.19167 25.6673 5.83333V22.1667C25.6673 22.8083 25.4388 23.3576 24.9819 23.8146C24.525 24.2715 23.9757 24.5 23.334 24.5H4.66732ZM4.66732 22.1667H23.334V5.83333H4.66732V22.1667ZM5.83398 19.8333H11.6673V17.5H5.83398V19.8333ZM16.9757 17.5L22.7507 11.725L21.0882 10.0625L16.9757 14.2042L15.3132 12.5417L13.6798 14.2042L16.9757 17.5ZM5.83398 15.1667H11.6673V12.8333H5.83398V15.1667ZM5.83398 10.5H11.6673V8.16667H5.83398V10.5Z" fill="#6E6E6E"/>
</svg>
