<svg width="24" height="24" viewBox="0 0 24 24" fill="none" xmlns="http://www.w3.org/2000/svg">
<path d="M6 22C5.45 22 4.97933 21.8043 4.588 21.413C4.196 21.021 4 20.55 4 20V4C4 3.45 4.196 2.979 4.588 2.587C4.97933 2.19567 5.45 2 6 2H13.175C13.4417 2 13.696 2.05 13.938 2.15C14.1793 2.25 14.3917 2.39167 14.575 2.575L19.425 7.425C19.6083 7.60833 19.75 7.82067 19.85 8.062C19.95 8.304 20 8.55833 20 8.825V20C20 20.55 19.8043 21.021 19.413 21.413C19.021 21.8043 18.55 22 18 22H6ZM13 8V4H6V20H18V9H14C13.7167 9 13.4793 8.904 13.288 8.712C13.096 8.52067 13 8.28333 13 8Z" fill="black"/>
</svg>
