<svg width="28" height="28" viewBox="0 0 28 28" fill="none" xmlns="http://www.w3.org/2000/svg">
<path d="M22.1667 22.1667H9.33334C8.69167 22.1667 8.14236 21.9383 7.68542 21.4813C7.22847 21.0244 7 20.4751 7 19.8334V3.50008C7 2.85841 7.22847 2.30911 7.68542 1.85216C8.14236 1.39522 8.69167 1.16675 9.33334 1.16675H16.5375C16.8486 1.16675 17.1451 1.22508 17.4271 1.34175C17.709 1.45841 17.9569 1.62369 18.1708 1.83758L23.8292 7.49591C24.0431 7.7098 24.2083 7.95772 24.325 8.23966C24.4417 8.52161 24.5 8.81814 24.5 9.12925V19.8334C24.5 20.4751 24.2715 21.0244 23.8146 21.4813C23.3576 21.9383 22.8083 22.1667 22.1667 22.1667ZM16.3333 3.50008H9.33334V19.8334H22.1667V9.33341H17.5C17.1694 9.33341 16.8924 9.22161 16.6688 8.998C16.4451 8.77439 16.3333 8.4973 16.3333 8.16675V3.50008ZM4.66667 26.8334C4.025 26.8334 3.4757 26.6049 3.01875 26.148C2.56181 25.6911 2.33334 25.1417 2.33334 24.5001V9.33341C2.33334 9.00286 2.44514 8.72578 2.66875 8.50216C2.89236 8.27855 3.16945 8.16675 3.5 8.16675C3.83056 8.16675 4.10764 8.27855 4.33125 8.50216C4.55486 8.72578 4.66667 9.00286 4.66667 9.33341V24.5001H16.3333C16.6639 24.5001 16.941 24.6119 17.1646 24.8355C17.3882 25.0591 17.5 25.3362 17.5 25.6667C17.5 25.9973 17.3882 26.2744 17.1646 26.498C16.941 26.7216 16.6639 26.8334 16.3333 26.8334H4.66667Z" fill="black"/>
</svg>
