<svg width="28" height="28" viewBox="0 0 28 28" fill="none" xmlns="http://www.w3.org/2000/svg">
<path d="M7.00002 25.6666C6.35835 25.6666 5.80924 25.4384 5.35269 24.9818C4.89535 24.5245 4.66669 23.975 4.66669 23.3333V4.66665C4.66669 4.02498 4.89535 3.47548 5.35269 3.01815C5.80924 2.56159 6.35835 2.33331 7.00002 2.33331H15.3709C15.682 2.33331 15.9787 2.39165 16.261 2.50831C16.5426 2.62498 16.7903 2.79026 17.0042 3.00415L22.6625 8.66248C22.8764 8.87637 23.0417 9.12409 23.1584 9.40565C23.275 9.68798 23.3334 9.9847 23.3334 10.2958V23.3333C23.3334 23.975 23.1051 24.5245 22.6485 24.9818C22.1912 25.4384 21.6417 25.6666 21 25.6666H7.00002ZM15.1667 9.33331V4.66665H7.00002V23.3333H21V10.5H16.3334C16.0028 10.5 15.7259 10.388 15.5027 10.164C15.2787 9.94076 15.1667 9.66387 15.1667 9.33331Z" fill="black"/>
</svg>
