<svg width="16" height="16" viewBox="0 0 16 16" fill="none" xmlns="http://www.w3.org/2000/svg">
<path d="M4.00002 14.6666C3.63335 14.6666 3.31958 14.5362 3.05869 14.2753C2.79735 14.014 2.66669 13.7 2.66669 13.3333V2.66665C2.66669 2.29998 2.79735 1.98598 3.05869 1.72465C3.31958 1.46376 3.63335 1.33331 4.00002 1.33331H8.78335C8.96113 1.33331 9.13069 1.36665 9.29202 1.43331C9.45291 1.49998 9.59446 1.59442 9.71669 1.71665L12.95 4.94998C13.0722 5.0722 13.1667 5.21376 13.2334 5.37465C13.3 5.53598 13.3334 5.70553 13.3334 5.88331V13.3333C13.3334 13.7 13.2029 14.014 12.942 14.2753C12.6807 14.5362 12.3667 14.6666 12 14.6666H4.00002ZM8.66669 5.33331V2.66665H4.00002V13.3333H12V5.99998H9.33335C9.14446 5.99998 8.98624 5.93598 8.85869 5.80798C8.73069 5.68042 8.66669 5.5222 8.66669 5.33331Z" fill="black"/>
</svg>
