<svg width="16" height="16" viewBox="0 0 16 16" fill="none" xmlns="http://www.w3.org/2000/svg">
<path d="M12.6667 12.6667H5.33334C4.96667 12.6667 4.65278 12.5362 4.39167 12.2751C4.13056 12.014 4 11.7001 4 11.3334V2.00008C4 1.63341 4.13056 1.31953 4.39167 1.05841C4.65278 0.797304 4.96667 0.666748 5.33334 0.666748H9.45C9.62778 0.666748 9.79723 0.700081 9.95834 0.766748C10.1194 0.833415 10.2611 0.927859 10.3833 1.05008L13.6167 4.28341C13.7389 4.40564 13.8333 4.5473 13.9 4.70841C13.9667 4.86953 14 5.03897 14 5.21675V11.3334C14 11.7001 13.8694 12.014 13.6083 12.2751C13.3472 12.5362 13.0333 12.6667 12.6667 12.6667ZM9.33334 2.00008H5.33334V11.3334H12.6667V5.33341H10C9.81111 5.33341 9.65278 5.26953 9.525 5.14175C9.39723 5.01397 9.33334 4.85564 9.33334 4.66675V2.00008ZM2.66667 15.3334C2.3 15.3334 1.98611 15.2029 1.725 14.9417C1.46389 14.6806 1.33334 14.3667 1.33334 14.0001V5.33341C1.33334 5.14453 1.39722 4.98619 1.525 4.85841C1.65278 4.73064 1.81111 4.66675 2 4.66675C2.18889 4.66675 2.34722 4.73064 2.475 4.85841C2.60278 4.98619 2.66667 5.14453 2.66667 5.33341V14.0001H9.33334C9.52223 14.0001 9.68056 14.064 9.80834 14.1917C9.93611 14.3195 10 14.4779 10 14.6667C10 14.8556 9.93611 15.014 9.80834 15.1417C9.68056 15.2695 9.52223 15.3334 9.33334 15.3334H2.66667Z" fill="black"/>
</svg>
