<svg width="28" height="28" viewBox="0 0 28 28" fill="none" xmlns="http://www.w3.org/2000/svg">
<path d="M12.8333 21C12.5028 21 12.2259 20.888 12.0027 20.664C11.7787 20.4408 11.6667 20.1639 11.6667 19.8333C11.6667 19.5028 11.7787 19.2259 12.0027 19.0027C12.2259 18.7787 12.5028 18.6667 12.8333 18.6667H15.1667C15.4972 18.6667 15.7745 18.7787 15.9985 19.0027C16.2217 19.2259 16.3333 19.5028 16.3333 19.8333C16.3333 20.1639 16.2217 20.4408 15.9985 20.664C15.7745 20.888 15.4972 21 15.1667 21H12.8333ZM4.66667 9.33333C4.33611 9.33333 4.05922 9.22172 3.836 8.9985C3.612 8.7745 3.5 8.49722 3.5 8.16667C3.5 7.83611 3.612 7.55883 3.836 7.33483C4.05922 7.11161 4.33611 7 4.66667 7H23.3333C23.6639 7 23.9408 7.11161 24.164 7.33483C24.388 7.55883 24.5 7.83611 24.5 8.16667C24.5 8.49722 24.388 8.7745 24.164 8.9985C23.9408 9.22172 23.6639 9.33333 23.3333 9.33333H4.66667ZM8.16667 15.1667C7.83611 15.1667 7.55883 15.0547 7.33483 14.8307C7.11161 14.6074 7 14.3306 7 14C7 13.6694 7.11161 13.3922 7.33483 13.1682C7.55883 12.9449 7.83611 12.8333 8.16667 12.8333H19.8333C20.1639 12.8333 20.4408 12.9449 20.664 13.1682C20.888 13.3922 21 13.6694 21 14C21 14.3306 20.888 14.6074 20.664 14.8307C20.4408 15.0547 20.1639 15.1667 19.8333 15.1667H8.16667Z" fill="black"/>
</svg>
