<svg width="16" height="16" viewBox="0 0 16 16" fill="none" xmlns="http://www.w3.org/2000/svg">
<path d="M7.33333 12C7.14444 12 6.98622 11.936 6.85867 11.808C6.73067 11.6804 6.66667 11.5222 6.66667 11.3333C6.66667 11.1444 6.73067 10.9862 6.85867 10.8587C6.98622 10.7307 7.14444 10.6667 7.33333 10.6667H8.66667C8.85556 10.6667 9.014 10.7307 9.142 10.8587C9.26956 10.9862 9.33333 11.1444 9.33333 11.3333C9.33333 11.5222 9.26956 11.6804 9.142 11.808C9.014 11.936 8.85556 12 8.66667 12H7.33333ZM2.66667 5.33333C2.47778 5.33333 2.31956 5.26956 2.192 5.142C2.064 5.014 2 4.85556 2 4.66667C2 4.47778 2.064 4.31933 2.192 4.19133C2.31956 4.06378 2.47778 4 2.66667 4H13.3333C13.5222 4 13.6804 4.06378 13.808 4.19133C13.936 4.31933 14 4.47778 14 4.66667C14 4.85556 13.936 5.014 13.808 5.142C13.6804 5.26956 13.5222 5.33333 13.3333 5.33333H2.66667ZM4.66667 8.66667C4.47778 8.66667 4.31933 8.60267 4.19133 8.47467C4.06378 8.34711 4 8.18889 4 8C4 7.81111 4.06378 7.65267 4.19133 7.52467C4.31933 7.39711 4.47778 7.33333 4.66667 7.33333H11.3333C11.5222 7.33333 11.6804 7.39711 11.808 7.52467C11.936 7.65267 12 7.81111 12 8C12 8.18889 11.936 8.34711 11.808 8.47467C11.6804 8.60267 11.5222 8.66667 11.3333 8.66667H4.66667Z" fill="black"/>
</svg>
