<svg width="16" height="16" viewBox="0 0 16 16" fill="none" xmlns="http://www.w3.org/2000/svg">
<path d="M9.99998 8.66669C10.3666 8.66669 10.6806 8.53602 10.942 8.27469C11.2029 8.0138 11.3333 7.70002 11.3333 7.33335C11.3333 6.96669 11.2029 6.65269 10.942 6.39135C10.6806 6.13046 10.3666 6.00002 9.99998 6.00002C9.63331 6.00002 9.31953 6.13046 9.05865 6.39135C8.79731 6.65269 8.66665 6.96669 8.66665 7.33335C8.66665 7.70002 8.79731 8.0138 9.05865 8.27469C9.31953 8.53602 9.63331 8.66669 9.99998 8.66669ZM7.33331 11.3334H12.6666V10.9667C12.6666 10.4667 12.4222 10.0694 11.9333 9.77469C11.4444 9.48046 10.8 9.33335 9.99998 9.33335C9.19998 9.33335 8.55553 9.48046 8.06665 9.77469C7.57776 10.0694 7.33331 10.4667 7.33331 10.9667V11.3334ZM2.66665 13.3334C2.29998 13.3334 1.9862 13.2029 1.72531 12.942C1.46398 12.6807 1.33331 12.3667 1.33331 12V4.00002C1.33331 3.63335 1.46398 3.31958 1.72531 3.05869C1.9862 2.79735 2.29998 2.66669 2.66665 2.66669H6.11665C6.29442 2.66669 6.46398 2.70002 6.62531 2.76669C6.7862 2.83335 6.92776 2.9278 7.04998 3.05002L7.99998 4.00002H13.3333C13.7 4.00002 14.014 4.13069 14.2753 4.39202C14.5362 4.65291 14.6666 4.96669 14.6666 5.33335V12C14.6666 12.3667 14.5362 12.6807 14.2753 12.942C14.014 13.2029 13.7 13.3334 13.3333 13.3334H2.66665ZM2.66665 4.00002V12H13.3333V5.33335H7.44998L6.11665 4.00002H2.66665Z" fill="black"/>
</svg>
