<svg width="16" height="17" viewBox="0 0 16 17" fill="none" xmlns="http://www.w3.org/2000/svg">
<path d="M2.66668 14.1482C2.30001 14.1482 1.98623 14.0177 1.72534 13.7568C1.46401 13.4955 1.33334 13.1815 1.33334 12.8148V4.81484C1.33334 4.44817 1.46401 4.1344 1.72534 3.87351C1.98623 3.61217 2.30001 3.48151 2.66668 3.48151H6.11668C6.29445 3.48151 6.46401 3.51484 6.62534 3.58151C6.78623 3.64817 6.92779 3.74262 7.05001 3.86484L8.00001 4.81484H13.3333C13.7 4.81484 14.014 4.94551 14.2753 5.20684C14.5362 5.46773 14.6667 5.78151 14.6667 6.14817V12.8148C14.6667 13.1815 14.5362 13.4955 14.2753 13.7568C14.014 14.0177 13.7 14.1482 13.3333 14.1482H2.66668Z" fill="#1C1B1F"/>
</svg>
