<svg width="16" height="16" viewBox="0 0 16 16" fill="none" xmlns="http://www.w3.org/2000/svg">
<path d="M13.3333 3.99996H8.00001L7.06001 3.05996C6.80668 2.80663 6.46668 2.66663 6.11334 2.66663H2.66668C1.93334 2.66663 1.34001 3.26663 1.34001 3.99996L1.33334 12C1.33334 12.7333 1.93334 13.3333 2.66668 13.3333H13.3333C14.0667 13.3333 14.6667 12.7333 14.6667 12V5.33329C14.6667 4.59996 14.0667 3.99996 13.3333 3.99996ZM10 5.99996C10.7333 5.99996 11.3333 6.59996 11.3333 7.33329C11.3333 8.06663 10.7333 8.66663 10 8.66663C9.26668 8.66663 8.66668 8.06663 8.66668 7.33329C8.66668 6.59996 9.26668 5.99996 10 5.99996ZM12.6667 11.3333H7.33334V10.6666C7.33334 9.77996 9.11334 9.33329 10 9.33329C10.8867 9.33329 12.6667 9.77996 12.6667 10.6666V11.3333Z" fill="black"/>
</svg>
