<svg width="28" height="28" viewBox="0 0 28 28" fill="none" xmlns="http://www.w3.org/2000/svg">
<path d="M4.66665 23.3334C4.02498 23.3334 3.47587 23.1051 3.01931 22.6485C2.56198 22.1912 2.33331 21.6417 2.33331 21V7.00002C2.33331 6.35835 2.56198 5.80924 3.01931 5.35269C3.47587 4.89535 4.02498 4.66669 4.66665 4.66669H10.7041C11.0153 4.66669 11.312 4.72502 11.5943 4.84169C11.8759 4.95835 12.1236 5.12363 12.3375 5.33752L14 7.00002H23.3333C23.975 7.00002 24.5245 7.22869 24.9818 7.68602C25.4384 8.14258 25.6666 8.69169 25.6666 9.33335V21C25.6666 21.6417 25.4384 22.1912 24.9818 22.6485C24.5245 23.1051 23.975 23.3334 23.3333 23.3334H4.66665ZM4.66665 7.00002V21H23.3333V9.33335H13.0375L10.7041 7.00002H4.66665Z" fill="black"/>
</svg>
