<svg width="16" height="16" viewBox="0 0 16 16" fill="none" xmlns="http://www.w3.org/2000/svg">
<path d="M2.66665 13.3334C2.29998 13.3334 1.9862 13.2029 1.72531 12.942C1.46398 12.6807 1.33331 12.3667 1.33331 12V4.00002C1.33331 3.63335 1.46398 3.31958 1.72531 3.05869C1.9862 2.79735 2.29998 2.66669 2.66665 2.66669H6.11665C6.29442 2.66669 6.46398 2.70002 6.62531 2.76669C6.7862 2.83335 6.92776 2.9278 7.04998 3.05002L7.99998 4.00002H13.3333C13.7 4.00002 14.014 4.13069 14.2753 4.39202C14.5362 4.65291 14.6666 4.96669 14.6666 5.33335V12C14.6666 12.3667 14.5362 12.6807 14.2753 12.942C14.014 13.2029 13.7 13.3334 13.3333 13.3334H2.66665ZM2.66665 4.00002V12H13.3333V5.33335H7.44998L6.11665 4.00002H2.66665Z" fill="black"/>
</svg>
