<svg width="28" height="28" viewBox="0 0 28 28" fill="none" xmlns="http://www.w3.org/2000/svg">
<path d="M17.5 15.1667C18.1416 15.1667 18.6911 14.938 19.1485 14.4807C19.605 14.0241 19.8333 13.475 19.8333 12.8334C19.8333 12.1917 19.605 11.6422 19.1485 11.1849C18.6911 10.7283 18.1416 10.5 17.5 10.5C16.8583 10.5 16.3092 10.7283 15.8526 11.1849C15.3953 11.6422 15.1666 12.1917 15.1666 12.8334C15.1666 13.475 15.3953 14.0241 15.8526 14.4807C16.3092 14.938 16.8583 15.1667 17.5 15.1667ZM12.8333 19.8334H22.1666V19.1917C22.1666 18.3167 21.7389 17.6214 20.8833 17.1057C20.0278 16.5908 18.9 16.3334 17.5 16.3334C16.1 16.3334 14.9722 16.5908 14.1166 17.1057C13.2611 17.6214 12.8333 18.3167 12.8333 19.1917V19.8334ZM4.66665 23.3334C4.02498 23.3334 3.47587 23.1051 3.01931 22.6485C2.56198 22.1912 2.33331 21.6417 2.33331 21V7.00002C2.33331 6.35835 2.56198 5.80924 3.01931 5.35269C3.47587 4.89535 4.02498 4.66669 4.66665 4.66669H10.7041C11.0153 4.66669 11.312 4.72502 11.5943 4.84169C11.8759 4.95835 12.1236 5.12363 12.3375 5.33752L14 7.00002H23.3333C23.975 7.00002 24.5245 7.22869 24.9818 7.68602C25.4384 8.14258 25.6666 8.69169 25.6666 9.33335V21C25.6666 21.6417 25.4384 22.1912 24.9818 22.6485C24.5245 23.1051 23.975 23.3334 23.3333 23.3334H4.66665ZM4.66665 7.00002V21H23.3333V9.33335H13.0375L10.7041 7.00002H4.66665Z" fill="black"/>
</svg>
