<svg width="28" height="28" viewBox="0 0 28 28" fill="none" xmlns="http://www.w3.org/2000/svg">
<path d="M23.3333 6.99996H14L12.355 5.35496C11.9117 4.91163 11.3167 4.66663 10.6983 4.66663H4.66668C3.38334 4.66663 2.34501 5.71663 2.34501 6.99996L2.33334 21C2.33334 22.2833 3.38334 23.3333 4.66668 23.3333H23.3333C24.6167 23.3333 25.6667 22.2833 25.6667 21V9.33329C25.6667 8.04996 24.6167 6.99996 23.3333 6.99996ZM17.5 10.5C18.7833 10.5 19.8333 11.55 19.8333 12.8333C19.8333 14.1166 18.7833 15.1666 17.5 15.1666C16.2167 15.1666 15.1667 14.1166 15.1667 12.8333C15.1667 11.55 16.2167 10.5 17.5 10.5ZM22.1667 19.8333H12.8333V18.6666C12.8333 17.115 15.9483 16.3333 17.5 16.3333C19.0517 16.3333 22.1667 17.115 22.1667 18.6666V19.8333Z" fill="black"/>
</svg>
