<svg width="28" height="28" viewBox="0 0 28 28" fill="none" xmlns="http://www.w3.org/2000/svg">
<path d="M4.66668 23.3334C4.02501 23.3334 3.4759 23.1051 3.01934 22.6485C2.56201 22.1912 2.33334 21.6417 2.33334 21V7.00002C2.33334 6.35835 2.56201 5.80924 3.01934 5.35269C3.4759 4.89535 4.02501 4.66669 4.66668 4.66669H10.7042C11.0153 4.66669 11.312 4.72502 11.5943 4.84169C11.8759 4.95835 12.1236 5.12363 12.3375 5.33752L14 7.00002H23.3333C23.975 7.00002 24.5245 7.22869 24.9818 7.68602C25.4384 8.14258 25.6667 8.69169 25.6667 9.33335V21C25.6667 21.6417 25.4384 22.1912 24.9818 22.6485C24.5245 23.1051 23.975 23.3334 23.3333 23.3334H4.66668Z" fill="#1C1B1F"/>
</svg>
