<svg width="28" height="28" viewBox="0 0 28 28" fill="none" xmlns="http://www.w3.org/2000/svg">
<path d="M4.375 25.6663C4.12222 25.6663 3.91319 25.5837 3.74792 25.4184C3.58264 25.2531 3.5 25.0441 3.5 24.7913C3.5 24.5386 3.58264 24.3295 3.74792 24.1643C3.91319 23.999 4.12222 23.9163 4.375 23.9163H6.41667V23.0413H5.54167C5.28889 23.0413 5.07986 22.9587 4.91458 22.7934C4.74931 22.6281 4.66667 22.4191 4.66667 22.1663C4.66667 21.9136 4.74931 21.7045 4.91458 21.5393C5.07986 21.374 5.28889 21.2913 5.54167 21.2913H6.41667V20.4163H4.375C4.12222 20.4163 3.91319 20.3337 3.74792 20.1684C3.58264 20.0031 3.5 19.7941 3.5 19.5413C3.5 19.2886 3.58264 19.0795 3.74792 18.9143C3.91319 18.749 4.12222 18.6663 4.375 18.6663H7C7.33056 18.6663 7.60764 18.7781 7.83125 19.0018C8.05486 19.2254 8.16667 19.5025 8.16667 19.833V20.9997C8.16667 21.3302 8.05486 21.6073 7.83125 21.8309C7.60764 22.0545 7.33056 22.1663 7 22.1663C7.33056 22.1663 7.60764 22.2781 7.83125 22.5018C8.05486 22.7254 8.16667 23.0025 8.16667 23.333V24.4997C8.16667 24.8302 8.05486 25.1073 7.83125 25.3309C7.60764 25.5545 7.33056 25.6663 7 25.6663H4.375ZM4.375 17.4997C4.12222 17.4997 3.91319 17.417 3.74792 17.2518C3.58264 17.0865 3.5 16.8775 3.5 16.6247V14.2913C3.5 13.9608 3.61181 13.6837 3.83542 13.4601C4.05903 13.2365 4.33611 13.1247 4.66667 13.1247H6.41667V12.2497H4.375C4.12222 12.2497 3.91319 12.167 3.74792 12.0018C3.58264 11.8365 3.5 11.6275 3.5 11.3747C3.5 11.1219 3.58264 10.9129 3.74792 10.7476C3.91319 10.5823 4.12222 10.4997 4.375 10.4997H7C7.33056 10.4997 7.60764 10.6115 7.83125 10.8351C8.05486 11.0587 8.16667 11.3358 8.16667 11.6663V13.708C8.16667 14.0386 8.05486 14.3156 7.83125 14.5393C7.60764 14.7629 7.33056 14.8747 7 14.8747H5.25V15.7497H7.29167C7.54444 15.7497 7.75347 15.8323 7.91875 15.9976C8.08403 16.1629 8.16667 16.3719 8.16667 16.6247C8.16667 16.8775 8.08403 17.0865 7.91875 17.2518C7.75347 17.417 7.54444 17.4997 7.29167 17.4997H4.375ZM6.125 9.33301C5.87222 9.33301 5.66319 9.25037 5.49792 9.08509C5.33264 8.91981 5.25 8.71079 5.25 8.45801V4.08301H4.375C4.12222 4.08301 3.91319 4.00037 3.74792 3.83509C3.58264 3.66981 3.5 3.46079 3.5 3.20801C3.5 2.95523 3.58264 2.7462 3.74792 2.58092C3.91319 2.41565 4.12222 2.33301 4.375 2.33301H6.125C6.37778 2.33301 6.58681 2.41565 6.75208 2.58092C6.91736 2.7462 7 2.95523 7 3.20801V8.45801C7 8.71079 6.91736 8.91981 6.75208 9.08509C6.58681 9.25037 6.37778 9.33301 6.125 9.33301ZM11.6667 22.1663C11.3361 22.1663 11.059 22.0545 10.8354 21.8309C10.6118 21.6073 10.5 21.3302 10.5 20.9997C10.5 20.6691 10.6118 20.392 10.8354 20.1684C11.059 19.9448 11.3361 19.833 11.6667 19.833H23.3333C23.6639 19.833 23.941 19.9448 24.1646 20.1684C24.3882 20.392 24.5 20.6691 24.5 20.9997C24.5 21.3302 24.3882 21.6073 24.1646 21.8309C23.941 22.0545 23.6639 22.1663 23.3333 22.1663H11.6667ZM11.6667 15.1663C11.3361 15.1663 11.059 15.0545 10.8354 14.8309C10.6118 14.6073 10.5 14.3302 10.5 13.9997C10.5 13.6691 10.6118 13.392 10.8354 13.1684C11.059 12.9448 11.3361 12.833 11.6667 12.833H23.3333C23.6639 12.833 23.941 12.9448 24.1646 13.1684C24.3882 13.392 24.5 13.6691 24.5 13.9997C24.5 14.3302 24.3882 14.6073 24.1646 14.8309C23.941 15.0545 23.6639 15.1663 23.3333 15.1663H11.6667ZM11.6667 8.16634C11.3361 8.16634 11.059 8.05454 10.8354 7.83092C10.6118 7.60731 10.5 7.33023 10.5 6.99967C10.5 6.66912 10.6118 6.39204 10.8354 6.16842C11.059 5.94481 11.3361 5.83301 11.6667 5.83301H23.3333C23.6639 5.83301 23.941 5.94481 24.1646 6.16842C24.3882 6.39204 24.5 6.66912 24.5 6.99967C24.5 7.33023 24.3882 7.60731 24.1646 7.83092C23.941 8.05454 23.6639 8.16634 23.3333 8.16634H11.6667Z" fill="#191919"/>
</svg>
