<svg width="16" height="16" viewBox="0 0 16 16" fill="none" xmlns="http://www.w3.org/2000/svg">
<path d="M4.00004 11.3334C3.81115 11.3334 3.65271 11.2694 3.52471 11.1414C3.39715 11.0138 3.33337 10.8556 3.33337 10.6667V5.33335C3.33337 5.14446 3.39715 4.98602 3.52471 4.85802C3.65271 4.73046 3.81115 4.66669 4.00004 4.66669C4.18893 4.66669 4.34737 4.73046 4.47537 4.85802C4.60293 4.98602 4.66671 5.14446 4.66671 5.33335V7.33335H7.33337V5.33335C7.33337 5.14446 7.39737 4.98602 7.52537 4.85802C7.65293 4.73046 7.81115 4.66669 8.00004 4.66669C8.18893 4.66669 8.34737 4.73046 8.47537 4.85802C8.60293 4.98602 8.66671 5.14446 8.66671 5.33335V10.6667C8.66671 10.8556 8.60293 11.0138 8.47537 11.1414C8.34737 11.2694 8.18893 11.3334 8.00004 11.3334C7.81115 11.3334 7.65293 11.2694 7.52537 11.1414C7.39737 11.0138 7.33337 10.8556 7.33337 10.6667V8.66669H4.66671V10.6667C4.66671 10.8556 4.60293 11.0138 4.47537 11.1414C4.34737 11.2694 4.18893 11.3334 4.00004 11.3334ZM12 11.3334C11.8112 11.3334 11.6529 11.2694 11.5254 11.1414C11.3974 11.0138 11.3334 10.8556 11.3334 10.6667V6.00002H10.6667C10.4778 6.00002 10.3196 5.93602 10.192 5.80802C10.064 5.68046 10 5.52224 10 5.33335C10 5.14446 10.064 4.98602 10.192 4.85802C10.3196 4.73046 10.4778 4.66669 10.6667 4.66669H12C12.1889 4.66669 12.3472 4.73046 12.4747 4.85802C12.6027 4.98602 12.6667 5.14446 12.6667 5.33335V10.6667C12.6667 10.8556 12.6027 11.0138 12.4747 11.1414C12.3472 11.2694 12.1889 11.3334 12 11.3334Z" fill="black"/>
</svg>
