<svg width="24" height="24" viewBox="0 0 24 24" fill="none" xmlns="http://www.w3.org/2000/svg">
<path d="M6 17C5.71667 17 5.479 16.904 5.287 16.712C5.09567 16.5207 5 16.2833 5 16V8C5 7.71667 5.09567 7.479 5.287 7.287C5.479 7.09567 5.71667 7 6 7C6.28333 7 6.521 7.09567 6.713 7.287C6.90433 7.479 7 7.71667 7 8V11H11V8C11 7.71667 11.096 7.479 11.288 7.287C11.4793 7.09567 11.7167 7 12 7C12.2833 7 12.521 7.09567 12.713 7.287C12.9043 7.479 13 7.71667 13 8V16C13 16.2833 12.9043 16.5207 12.713 16.712C12.521 16.904 12.2833 17 12 17C11.7167 17 11.4793 16.904 11.288 16.712C11.096 16.5207 11 16.2833 11 16V13H7V16C7 16.2833 6.90433 16.5207 6.713 16.712C6.521 16.904 6.28333 17 6 17ZM18 17C17.7167 17 17.4793 16.904 17.288 16.712C17.096 16.5207 17 16.2833 17 16V9H16C15.7167 9 15.4793 8.904 15.288 8.712C15.096 8.52067 15 8.28333 15 8C15 7.71667 15.096 7.479 15.288 7.287C15.4793 7.09567 15.7167 7 16 7H18C18.2833 7 18.5207 7.09567 18.712 7.287C18.904 7.479 19 7.71667 19 8V16C19 16.2833 18.904 16.5207 18.712 16.712C18.5207 16.904 18.2833 17 18 17Z" fill="black"/>
</svg>
