<svg width="28" height="28" viewBox="0 0 28 28" fill="none" xmlns="http://www.w3.org/2000/svg">
<path d="M7.00004 19.8334C6.66949 19.8334 6.39221 19.7214 6.16821 19.4974C5.94499 19.2741 5.83337 18.9972 5.83337 18.6667V9.33335C5.83337 9.0028 5.94499 8.72552 6.16821 8.50152C6.39221 8.2783 6.66949 8.16669 7.00004 8.16669C7.3306 8.16669 7.60787 8.2783 7.83187 8.50152C8.0551 8.72552 8.16671 9.0028 8.16671 9.33335V12.8334H12.8334V9.33335C12.8334 9.0028 12.9454 8.72552 13.1694 8.50152C13.3926 8.2783 13.6695 8.16669 14 8.16669C14.3306 8.16669 14.6079 8.2783 14.8319 8.50152C15.0551 8.72552 15.1667 9.0028 15.1667 9.33335V18.6667C15.1667 18.9972 15.0551 19.2741 14.8319 19.4974C14.6079 19.7214 14.3306 19.8334 14 19.8334C13.6695 19.8334 13.3926 19.7214 13.1694 19.4974C12.9454 19.2741 12.8334 18.9972 12.8334 18.6667V15.1667H8.16671V18.6667C8.16671 18.9972 8.0551 19.2741 7.83187 19.4974C7.60787 19.7214 7.3306 19.8334 7.00004 19.8334ZM21 19.8334C20.6695 19.8334 20.3926 19.7214 20.1694 19.4974C19.9454 19.2741 19.8334 18.9972 19.8334 18.6667V10.5H18.6667C18.3362 10.5 18.0593 10.388 17.836 10.164C17.612 9.9408 17.5 9.66391 17.5 9.33335C17.5 9.0028 17.612 8.72552 17.836 8.50152C18.0593 8.2783 18.3362 8.16669 18.6667 8.16669H21C21.3306 8.16669 21.6075 8.2783 21.8307 8.50152C22.0547 8.72552 22.1667 9.0028 22.1667 9.33335V18.6667C22.1667 18.9972 22.0547 19.2741 21.8307 19.4974C21.6075 19.7214 21.3306 19.8334 21 19.8334Z" fill="black"/>
</svg>
