<svg width="16" height="16" viewBox="0 0 16 16" fill="none" xmlns="http://www.w3.org/2000/svg">
<path d="M6.66667 12.6667C6.47778 12.6667 6.31944 12.6029 6.19167 12.4751C6.06389 12.3473 6 12.189 6 12.0001C6 11.8112 6.06389 11.6529 6.19167 11.5251C6.31944 11.3973 6.47778 11.3334 6.66667 11.3334H13.3333C13.5222 11.3334 13.6806 11.3973 13.8083 11.5251C13.9361 11.6529 14 11.8112 14 12.0001C14 12.189 13.9361 12.3473 13.8083 12.4751C13.6806 12.6029 13.5222 12.6667 13.3333 12.6667H6.66667ZM6.66667 8.66675C6.47778 8.66675 6.31944 8.60286 6.19167 8.47508C6.06389 8.3473 6 8.18897 6 8.00008C6 7.81119 6.06389 7.65286 6.19167 7.52508C6.31944 7.3973 6.47778 7.33341 6.66667 7.33341H13.3333C13.5222 7.33341 13.6806 7.3973 13.8083 7.52508C13.9361 7.65286 14 7.81119 14 8.00008C14 8.18897 13.9361 8.3473 13.8083 8.47508C13.6806 8.60286 13.5222 8.66675 13.3333 8.66675H6.66667ZM6.66667 4.66675C6.47778 4.66675 6.31944 4.60286 6.19167 4.47508C6.06389 4.3473 6 4.18897 6 4.00008C6 3.81119 6.06389 3.65286 6.19167 3.52508C6.31944 3.3973 6.47778 3.33341 6.66667 3.33341H13.3333C13.5222 3.33341 13.6806 3.3973 13.8083 3.52508C13.9361 3.65286 14 3.81119 14 4.00008C14 4.18897 13.9361 4.3473 13.8083 4.47508C13.6806 4.60286 13.5222 4.66675 13.3333 4.66675H6.66667ZM3.33333 13.3334C2.96667 13.3334 2.65278 13.2029 2.39167 12.9417C2.13056 12.6806 2 12.3667 2 12.0001C2 11.6334 2.13056 11.3195 2.39167 11.0584C2.65278 10.7973 2.96667 10.6667 3.33333 10.6667C3.7 10.6667 4.01389 10.7973 4.275 11.0584C4.53611 11.3195 4.66667 11.6334 4.66667 12.0001C4.66667 12.3667 4.53611 12.6806 4.275 12.9417C4.01389 13.2029 3.7 13.3334 3.33333 13.3334ZM3.33333 9.33341C2.96667 9.33341 2.65278 9.20286 2.39167 8.94175C2.13056 8.68064 2 8.36675 2 8.00008C2 7.63341 2.13056 7.31953 2.39167 7.05841C2.65278 6.7973 2.96667 6.66675 3.33333 6.66675C3.7 6.66675 4.01389 6.7973 4.275 7.05841C4.53611 7.31953 4.66667 7.63341 4.66667 8.00008C4.66667 8.36675 4.53611 8.68064 4.275 8.94175C4.01389 9.20286 3.7 9.33341 3.33333 9.33341ZM3.33333 5.33341C2.96667 5.33341 2.65278 5.20286 2.39167 4.94175C2.13056 4.68064 2 4.36675 2 4.00008C2 3.63341 2.13056 3.31953 2.39167 3.05841C2.65278 2.7973 2.96667 2.66675 3.33333 2.66675C3.7 2.66675 4.01389 2.7973 4.275 3.05841C4.53611 3.31953 4.66667 3.63341 4.66667 4.00008C4.66667 4.36675 4.53611 4.68064 4.275 4.94175C4.01389 5.20286 3.7 5.33341 3.33333 5.33341Z" fill="#191919"/>
</svg>
