<svg width="16" height="16" viewBox="0 0 16 16" fill="none" xmlns="http://www.w3.org/2000/svg">
<path d="M2.5 14.6663C2.35556 14.6663 2.23611 14.6191 2.14167 14.5247C2.04722 14.4302 2 14.3108 2 14.1663C2 14.0219 2.04722 13.9025 2.14167 13.808C2.23611 13.7136 2.35556 13.6663 2.5 13.6663H3.66667V13.1663H3.16667C3.02222 13.1663 2.90278 13.1191 2.80833 13.0247C2.71389 12.9302 2.66667 12.8108 2.66667 12.6663C2.66667 12.5219 2.71389 12.4025 2.80833 12.308C2.90278 12.2136 3.02222 12.1663 3.16667 12.1663H3.66667V11.6663H2.5C2.35556 11.6663 2.23611 11.6191 2.14167 11.5247C2.04722 11.4302 2 11.3108 2 11.1663C2 11.0219 2.04722 10.9025 2.14167 10.808C2.23611 10.7136 2.35556 10.6663 2.5 10.6663H4C4.18889 10.6663 4.34722 10.7302 4.475 10.858C4.60278 10.9858 4.66667 11.1441 4.66667 11.333V11.9997C4.66667 12.1886 4.60278 12.3469 4.475 12.4747C4.34722 12.6025 4.18889 12.6663 4 12.6663C4.18889 12.6663 4.34722 12.7302 4.475 12.858C4.60278 12.9858 4.66667 13.1441 4.66667 13.333V13.9997C4.66667 14.1886 4.60278 14.3469 4.475 14.4747C4.34722 14.6025 4.18889 14.6663 4 14.6663H2.5ZM2.5 9.99967C2.35556 9.99967 2.23611 9.95245 2.14167 9.85801C2.04722 9.76356 2 9.64412 2 9.49967V8.16634C2 7.97745 2.06389 7.81912 2.19167 7.69134C2.31944 7.56356 2.47778 7.49967 2.66667 7.49967H3.66667V6.99967H2.5C2.35556 6.99967 2.23611 6.95245 2.14167 6.85801C2.04722 6.76356 2 6.64412 2 6.49967C2 6.35523 2.04722 6.23579 2.14167 6.14134C2.23611 6.0469 2.35556 5.99967 2.5 5.99967H4C4.18889 5.99967 4.34722 6.06356 4.475 6.19134C4.60278 6.31912 4.66667 6.47745 4.66667 6.66634V7.83301C4.66667 8.0219 4.60278 8.18023 4.475 8.30801C4.34722 8.43579 4.18889 8.49967 4 8.49967H3V8.99967H4.16667C4.31111 8.99967 4.43056 9.0469 4.525 9.14134C4.61944 9.23579 4.66667 9.35523 4.66667 9.49967C4.66667 9.64412 4.61944 9.76356 4.525 9.85801C4.43056 9.95245 4.31111 9.99967 4.16667 9.99967H2.5ZM3.5 5.33301C3.35556 5.33301 3.23611 5.28579 3.14167 5.19134C3.04722 5.0969 3 4.97745 3 4.83301V2.33301H2.5C2.35556 2.33301 2.23611 2.28579 2.14167 2.19134C2.04722 2.0969 2 1.97745 2 1.83301C2 1.68856 2.04722 1.56912 2.14167 1.47467C2.23611 1.38023 2.35556 1.33301 2.5 1.33301H3.5C3.64444 1.33301 3.76389 1.38023 3.85833 1.47467C3.95278 1.56912 4 1.68856 4 1.83301V4.83301C4 4.97745 3.95278 5.0969 3.85833 5.19134C3.76389 5.28579 3.64444 5.33301 3.5 5.33301ZM6.66667 12.6663C6.47778 12.6663 6.31944 12.6025 6.19167 12.4747C6.06389 12.3469 6 12.1886 6 11.9997C6 11.8108 6.06389 11.6525 6.19167 11.5247C6.31944 11.3969 6.47778 11.333 6.66667 11.333H13.3333C13.5222 11.333 13.6806 11.3969 13.8083 11.5247C13.9361 11.6525 14 11.8108 14 11.9997C14 12.1886 13.9361 12.3469 13.8083 12.4747C13.6806 12.6025 13.5222 12.6663 13.3333 12.6663H6.66667ZM6.66667 8.66634C6.47778 8.66634 6.31944 8.60245 6.19167 8.47467C6.06389 8.3469 6 8.18856 6 7.99967C6 7.81079 6.06389 7.65245 6.19167 7.52467C6.31944 7.3969 6.47778 7.33301 6.66667 7.33301H13.3333C13.5222 7.33301 13.6806 7.3969 13.8083 7.52467C13.9361 7.65245 14 7.81079 14 7.99967C14 8.18856 13.9361 8.3469 13.8083 8.47467C13.6806 8.60245 13.5222 8.66634 13.3333 8.66634H6.66667ZM6.66667 4.66634C6.47778 4.66634 6.31944 4.60245 6.19167 4.47467C6.06389 4.3469 6 4.18856 6 3.99967C6 3.81079 6.06389 3.65245 6.19167 3.52467C6.31944 3.3969 6.47778 3.33301 6.66667 3.33301H13.3333C13.5222 3.33301 13.6806 3.3969 13.8083 3.52467C13.9361 3.65245 14 3.81079 14 3.99967C14 4.18856 13.9361 4.3469 13.8083 4.47467C13.6806 4.60245 13.5222 4.66634 13.3333 4.66634H6.66667Z" fill="#191919"/>
</svg>
