<svg width="28" height="28" viewBox="0 0 28 28" fill="none" xmlns="http://www.w3.org/2000/svg">
<path d="M11.6667 22.1667C11.3361 22.1667 11.059 22.0549 10.8354 21.8313C10.6118 21.6077 10.5 21.3306 10.5 21.0001C10.5 20.6695 10.6118 20.3924 10.8354 20.1688C11.059 19.9452 11.3361 19.8334 11.6667 19.8334H23.3333C23.6639 19.8334 23.941 19.9452 24.1646 20.1688C24.3882 20.3924 24.5 20.6695 24.5 21.0001C24.5 21.3306 24.3882 21.6077 24.1646 21.8313C23.941 22.0549 23.6639 22.1667 23.3333 22.1667H11.6667ZM11.6667 15.1667C11.3361 15.1667 11.059 15.0549 10.8354 14.8313C10.6118 14.6077 10.5 14.3306 10.5 14.0001C10.5 13.6695 10.6118 13.3924 10.8354 13.1688C11.059 12.9452 11.3361 12.8334 11.6667 12.8334H23.3333C23.6639 12.8334 23.941 12.9452 24.1646 13.1688C24.3882 13.3924 24.5 13.6695 24.5 14.0001C24.5 14.3306 24.3882 14.6077 24.1646 14.8313C23.941 15.0549 23.6639 15.1667 23.3333 15.1667H11.6667ZM11.6667 8.16675C11.3361 8.16675 11.059 8.05494 10.8354 7.83133C10.6118 7.60772 10.5 7.33064 10.5 7.00008C10.5 6.66953 10.6118 6.39244 10.8354 6.16883C11.059 5.94522 11.3361 5.83341 11.6667 5.83341H23.3333C23.6639 5.83341 23.941 5.94522 24.1646 6.16883C24.3882 6.39244 24.5 6.66953 24.5 7.00008C24.5 7.33064 24.3882 7.60772 24.1646 7.83133C23.941 8.05494 23.6639 8.16675 23.3333 8.16675H11.6667ZM5.83333 23.3334C5.19167 23.3334 4.64236 23.1049 4.18542 22.648C3.72847 22.1911 3.5 21.6417 3.5 21.0001C3.5 20.3584 3.72847 19.8091 4.18542 19.3522C4.64236 18.8952 5.19167 18.6667 5.83333 18.6667C6.475 18.6667 7.02431 18.8952 7.48125 19.3522C7.93819 19.8091 8.16667 20.3584 8.16667 21.0001C8.16667 21.6417 7.93819 22.1911 7.48125 22.648C7.02431 23.1049 6.475 23.3334 5.83333 23.3334ZM5.83333 16.3334C5.19167 16.3334 4.64236 16.1049 4.18542 15.648C3.72847 15.1911 3.5 14.6417 3.5 14.0001C3.5 13.3584 3.72847 12.8091 4.18542 12.3522C4.64236 11.8952 5.19167 11.6667 5.83333 11.6667C6.475 11.6667 7.02431 11.8952 7.48125 12.3522C7.93819 12.8091 8.16667 13.3584 8.16667 14.0001C8.16667 14.6417 7.93819 15.1911 7.48125 15.648C7.02431 16.1049 6.475 16.3334 5.83333 16.3334ZM5.83333 9.33341C5.19167 9.33341 4.64236 9.10494 4.18542 8.648C3.72847 8.19105 3.5 7.64175 3.5 7.00008C3.5 6.35841 3.72847 5.80911 4.18542 5.35216C4.64236 4.89522 5.19167 4.66675 5.83333 4.66675C6.475 4.66675 7.02431 4.89522 7.48125 5.35216C7.93819 5.80911 8.16667 6.35841 8.16667 7.00008C8.16667 7.64175 7.93819 8.19105 7.48125 8.648C7.02431 9.10494 6.475 9.33341 5.83333 9.33341Z" fill="#191919"/>
</svg>
