<svg width="24" height="24" viewBox="0 0 24 24" fill="none" xmlns="http://www.w3.org/2000/svg">
<path d="M14.8284 14.5049V18.173L21 12.0043L14.8284 5.82989V9.50492H12.8283C8.21151 9.50492 4.40665 12.9812 3.88851 17.4592C6.38443 15.6043 9.47923 14.5049 12.8283 14.5049H14.8284ZM10.8284 16.6578C8.03108 17.0898 5.52814 18.4135 3.61928 20.3294C3.0414 20.9093 2.01925 20.7146 1.91631 19.9025C1.85828 19.4448 1.82837 18.9783 1.82837 18.5049C1.82837 12.4298 6.75325 7.50491 12.8283 7.50491V4.62239C12.8283 3.28587 14.4444 2.61669 15.3893 3.56198L22.4145 10.5904C23.1954 11.3716 23.1951 12.638 22.4138 13.4188L15.3888 20.4406C14.4437 21.3853 12.8283 20.7159 12.8283 19.3797V16.5049H12.8249C12.146 16.5051 11.4792 16.5573 10.8284 16.6578Z" fill="#191919"/>
</svg>
