<svg width="16" height="16" viewBox="0 0 16 16" fill="none" xmlns="http://www.w3.org/2000/svg">
<path d="M9.88562 9.66993V12.1154L14 8.00284L9.88562 3.88659V6.33662H8.55225C5.47436 6.33662 2.93779 8.65416 2.59236 11.6395C4.2563 10.4028 6.3195 9.66993 8.55225 9.66993H9.88562ZM7.21893 11.1052C5.35408 11.3932 3.68545 12.2756 2.41288 13.5529C2.02762 13.9395 1.34619 13.8098 1.27756 13.2683C1.23888 12.9632 1.21893 12.6522 1.21893 12.3366C1.21893 8.2865 4.50219 5.00327 8.55225 5.00327V3.08159C8.55225 2.19058 9.62962 1.74446 10.2596 2.37465L14.943 7.06027C15.4636 7.58107 15.4634 8.4253 14.9426 8.94587L10.2592 13.6271C9.62916 14.2568 8.55225 13.8106 8.55225 12.9198V11.0032H8.54996C8.09733 11.0034 7.65282 11.0382 7.21893 11.1052Z" fill="#191919"/>
</svg>
