<svg width="28" height="28" viewBox="0 0 28 28" fill="none" xmlns="http://www.w3.org/2000/svg">
<path d="M17.2998 16.9225V21.202L24.5 14.0051L17.2998 6.80166V11.0892H14.9664C9.58012 11.0892 5.14112 15.1449 4.53662 20.3692C7.44852 18.2051 11.0591 16.9225 14.9664 16.9225H17.2998ZM12.6331 19.4342C9.36962 19.9382 6.44952 21.4825 4.22252 23.7177C3.54832 24.3943 2.35582 24.1672 2.23572 23.2197C2.16802 22.6857 2.13312 22.1415 2.13312 21.5892C2.13312 14.5015 7.87882 8.75585 14.9664 8.75585V5.39291C14.9664 3.83364 16.8518 3.05293 17.9542 4.15576L26.1503 12.3556C27.0613 13.267 27.0609 14.7444 26.1495 15.6554L17.9536 23.8475C16.851 24.9496 14.9664 24.1687 14.9664 22.6098V19.2558H14.9624C14.1703 19.2561 13.3924 19.317 12.6331 19.4342Z" fill="#191919"/>
</svg>
