<svg width="28" height="28" viewBox="0 0 28 28" fill="none" xmlns="http://www.w3.org/2000/svg">
<path d="M10.5 22.4291C10.1306 22.4291 9.81478 22.3027 9.55266 22.05C9.28978 21.7972 9.15833 21.4861 9.15833 21.1166V18.8416H6.88333C6.51389 18.8416 6.20278 18.7102 5.95 18.4473C5.69722 18.1852 5.57083 17.8694 5.57083 17.5C5.57083 17.1305 5.69722 16.8147 5.95 16.5526C6.20278 16.2897 6.51389 16.1583 6.88333 16.1583H10.5C10.8694 16.1583 11.1852 16.2897 11.4473 16.5526C11.7102 16.8147 11.8417 17.1305 11.8417 17.5V21.1166C11.8417 21.4861 11.7102 21.7972 11.4473 22.05C11.1852 22.3027 10.8694 22.4291 10.5 22.4291V22.4291ZM6.88333 11.8416C6.51389 11.8416 6.20278 11.7102 5.95 11.4473C5.69722 11.1852 5.57083 10.8694 5.57083 10.5C5.57083 10.1305 5.69722 9.81436 5.95 9.55147C6.20278 9.28936 6.51389 9.1583 6.88333 9.1583H9.15833V6.8833C9.15833 6.51386 9.28978 6.20274 9.55266 5.94997C9.81478 5.69719 10.1306 5.5708 10.5 5.5708C10.8694 5.5708 11.1852 5.69719 11.4473 5.94997C11.7102 6.20274 11.8417 6.51386 11.8417 6.8833V10.5C11.8417 10.8694 11.7102 11.1852 11.4473 11.4473C11.1852 11.7102 10.8694 11.8416 10.5 11.8416H6.88333ZM17.5 22.4291C17.1306 22.4291 16.8148 22.3027 16.5527 22.05C16.2898 21.7972 16.1583 21.4861 16.1583 21.1166V17.5C16.1583 17.1305 16.2898 16.8147 16.5527 16.5526C16.8148 16.2897 17.1306 16.1583 17.5 16.1583H21.1167C21.4861 16.1583 21.7972 16.2897 22.05 16.5526C22.3028 16.8147 22.4292 17.1305 22.4292 17.5C22.4292 17.8694 22.3028 18.1852 22.05 18.4473C21.7972 18.7102 21.4861 18.8416 21.1167 18.8416H18.8417V21.1166C18.8417 21.4861 18.7106 21.7972 18.4485 22.05C18.1856 22.3027 17.8694 22.4291 17.5 22.4291V22.4291ZM17.5 11.8416C17.1306 11.8416 16.8148 11.7102 16.5527 11.4473C16.2898 11.1852 16.1583 10.8694 16.1583 10.5V6.8833C16.1583 6.51386 16.2898 6.20274 16.5527 5.94997C16.8148 5.69719 17.1306 5.5708 17.5 5.5708C17.8694 5.5708 18.1856 5.69719 18.4485 5.94997C18.7106 6.20274 18.8417 6.51386 18.8417 6.8833V9.1583H21.1167C21.4861 9.1583 21.7972 9.28936 22.05 9.55147C22.3028 9.81436 22.4292 10.1305 22.4292 10.5C22.4292 10.8694 22.3028 11.1852 22.05 11.4473C21.7972 11.7102 21.4861 11.8416 21.1167 11.8416H17.5Z" fill="black"/>
</svg>
