<svg width="16" height="16" viewBox="0 0 16 16" fill="none" xmlns="http://www.w3.org/2000/svg">
<path d="M6 12.8167C5.78889 12.8167 5.60845 12.7445 5.45867 12.6C5.30845 12.4556 5.23333 12.2778 5.23333 12.0667V10.7667H3.93333C3.72222 10.7667 3.54445 10.6916 3.4 10.5414C3.25556 10.3916 3.18333 10.2111 3.18333 10C3.18333 9.78891 3.25556 9.60846 3.4 9.45868C3.54445 9.30846 3.72222 9.23335 3.93333 9.23335H6C6.21111 9.23335 6.39156 9.30846 6.54133 9.45868C6.69156 9.60846 6.76667 9.78891 6.76667 10V12.0667C6.76667 12.2778 6.69156 12.4556 6.54133 12.6C6.39156 12.7445 6.21111 12.8167 6 12.8167V12.8167ZM3.93333 6.76668C3.72222 6.76668 3.54445 6.69157 3.4 6.54135C3.25556 6.39157 3.18333 6.21113 3.18333 6.00002C3.18333 5.78891 3.25556 5.60824 3.4 5.45802C3.54445 5.30824 3.72222 5.23335 3.93333 5.23335H5.23333V3.93335C5.23333 3.72224 5.30845 3.54446 5.45867 3.40002C5.60845 3.25557 5.78889 3.18335 6 3.18335C6.21111 3.18335 6.39156 3.25557 6.54133 3.40002C6.69156 3.54446 6.76667 3.72224 6.76667 3.93335V6.00002C6.76667 6.21113 6.69156 6.39157 6.54133 6.54135C6.39156 6.69157 6.21111 6.76668 6 6.76668H3.93333ZM10 12.8167C9.78889 12.8167 9.60845 12.7445 9.45867 12.6C9.30845 12.4556 9.23334 12.2778 9.23334 12.0667V10C9.23334 9.78891 9.30845 9.60846 9.45867 9.45868C9.60845 9.30846 9.78889 9.23335 10 9.23335H12.0667C12.2778 9.23335 12.4556 9.30846 12.6 9.45868C12.7444 9.60846 12.8167 9.78891 12.8167 10C12.8167 10.2111 12.7444 10.3916 12.6 10.5414C12.4556 10.6916 12.2778 10.7667 12.0667 10.7667H10.7667V12.0667C10.7667 12.2778 10.6918 12.4556 10.542 12.6C10.3918 12.7445 10.2111 12.8167 10 12.8167V12.8167ZM10 6.76668C9.78889 6.76668 9.60845 6.69157 9.45867 6.54135C9.30845 6.39157 9.23334 6.21113 9.23334 6.00002V3.93335C9.23334 3.72224 9.30845 3.54446 9.45867 3.40002C9.60845 3.25557 9.78889 3.18335 10 3.18335C10.2111 3.18335 10.3918 3.25557 10.542 3.40002C10.6918 3.54446 10.7667 3.72224 10.7667 3.93335V5.23335H12.0667C12.2778 5.23335 12.4556 5.30824 12.6 5.45802C12.7444 5.60824 12.8167 5.78891 12.8167 6.00002C12.8167 6.21113 12.7444 6.39157 12.6 6.54135C12.4556 6.69157 12.2778 6.76668 12.0667 6.76668H10Z" fill="black"/>
</svg>
