<svg width="28" height="28" viewBox="0 0 28 28" fill="none" xmlns="http://www.w3.org/2000/svg">
<path d="M6.88333 22.4291C6.51389 22.4291 6.20278 22.3027 5.95 22.05C5.69722 21.7972 5.57083 21.4861 5.57083 21.1166V17.5C5.57083 17.1305 5.69722 16.8147 5.95 16.5526C6.20278 16.2897 6.51389 16.1583 6.88333 16.1583C7.27222 16.1583 7.59305 16.2897 7.84583 16.5526C8.09861 16.8147 8.225 17.1305 8.225 17.5V19.775H10.5C10.8694 19.775 11.1852 19.9014 11.4473 20.1541C11.7102 20.4069 11.8417 20.7277 11.8417 21.1166C11.8417 21.4861 11.7102 21.7972 11.4473 22.05C11.1852 22.3027 10.8694 22.4291 10.5 22.4291H6.88333ZM6.88333 11.8416C6.51389 11.8416 6.20278 11.7102 5.95 11.4473C5.69722 11.1852 5.57083 10.8694 5.57083 10.5V6.8833C5.57083 6.51386 5.69722 6.20274 5.95 5.94997C6.20278 5.69719 6.51389 5.5708 6.88333 5.5708H10.5C10.8694 5.5708 11.1852 5.69719 11.4473 5.94997C11.7102 6.20274 11.8417 6.51386 11.8417 6.8833C11.8417 7.27219 11.7102 7.59302 11.4473 7.8458C11.1852 8.09858 10.8694 8.22497 10.5 8.22497H8.225V10.5C8.225 10.8694 8.09861 11.1852 7.84583 11.4473C7.59305 11.7102 7.27222 11.8416 6.88333 11.8416V11.8416ZM17.5 22.4291C17.1306 22.4291 16.8148 22.3027 16.5527 22.05C16.2898 21.7972 16.1583 21.4861 16.1583 21.1166C16.1583 20.7277 16.2898 20.4069 16.5527 20.1541C16.8148 19.9014 17.1306 19.775 17.5 19.775H19.775V17.5C19.775 17.1305 19.9014 16.8147 20.1542 16.5526C20.4069 16.2897 20.7278 16.1583 21.1167 16.1583C21.4861 16.1583 21.7972 16.2897 22.05 16.5526C22.3028 16.8147 22.4292 17.1305 22.4292 17.5V21.1166C22.4292 21.4861 22.3028 21.7972 22.05 22.05C21.7972 22.3027 21.4861 22.4291 21.1167 22.4291H17.5ZM21.1167 11.8416C20.7278 11.8416 20.4069 11.7102 20.1542 11.4473C19.9014 11.1852 19.775 10.8694 19.775 10.5V8.22497H17.5C17.1306 8.22497 16.8148 8.09858 16.5527 7.8458C16.2898 7.59302 16.1583 7.27219 16.1583 6.8833C16.1583 6.51386 16.2898 6.20274 16.5527 5.94997C16.8148 5.69719 17.1306 5.5708 17.5 5.5708H21.1167C21.4861 5.5708 21.7972 5.69719 22.05 5.94997C22.3028 6.20274 22.4292 6.51386 22.4292 6.8833V10.5C22.4292 10.8694 22.3028 11.1852 22.05 11.4473C21.7972 11.7102 21.4861 11.8416 21.1167 11.8416V11.8416Z" fill="black"/>
</svg>
