<svg width="24" height="24" viewBox="0 0 24 24" fill="none" xmlns="http://www.w3.org/2000/svg">
<path d="M5.9 19.225C5.58333 19.225 5.31667 19.1167 5.1 18.9C4.88333 18.6834 4.775 18.4167 4.775 18.1V15C4.775 14.6834 4.88333 14.4127 5.1 14.188C5.31667 13.9627 5.58333 13.85 5.9 13.85C6.23333 13.85 6.50833 13.9627 6.725 14.188C6.94167 14.4127 7.05 14.6834 7.05 15V16.95H9C9.31667 16.95 9.58733 17.0584 9.812 17.275C10.0373 17.4917 10.15 17.7667 10.15 18.1C10.15 18.4167 10.0373 18.6834 9.812 18.9C9.58733 19.1167 9.31667 19.225 9 19.225H5.9ZM5.9 10.15C5.58333 10.15 5.31667 10.0374 5.1 9.81202C4.88333 9.58736 4.775 9.31669 4.775 9.00002V5.90002C4.775 5.58336 4.88333 5.31669 5.1 5.10002C5.31667 4.88336 5.58333 4.77502 5.9 4.77502H9C9.31667 4.77502 9.58733 4.88336 9.812 5.10002C10.0373 5.31669 10.15 5.58336 10.15 5.90002C10.15 6.23336 10.0373 6.50836 9.812 6.72502C9.58733 6.94169 9.31667 7.05002 9 7.05002H7.05V9.00002C7.05 9.31669 6.94167 9.58736 6.725 9.81202C6.50833 10.0374 6.23333 10.15 5.9 10.15V10.15ZM15 19.225C14.6833 19.225 14.4127 19.1167 14.188 18.9C13.9627 18.6834 13.85 18.4167 13.85 18.1C13.85 17.7667 13.9627 17.4917 14.188 17.275C14.4127 17.0584 14.6833 16.95 15 16.95H16.95V15C16.95 14.6834 17.0583 14.4127 17.275 14.188C17.4917 13.9627 17.7667 13.85 18.1 13.85C18.4167 13.85 18.6833 13.9627 18.9 14.188C19.1167 14.4127 19.225 14.6834 19.225 15V18.1C19.225 18.4167 19.1167 18.6834 18.9 18.9C18.6833 19.1167 18.4167 19.225 18.1 19.225H15ZM18.1 10.15C17.7667 10.15 17.4917 10.0374 17.275 9.81202C17.0583 9.58736 16.95 9.31669 16.95 9.00002V7.05002H15C14.6833 7.05002 14.4127 6.94169 14.188 6.72502C13.9627 6.50836 13.85 6.23336 13.85 5.90002C13.85 5.58336 13.9627 5.31669 14.188 5.10002C14.4127 4.88336 14.6833 4.77502 15 4.77502H18.1C18.4167 4.77502 18.6833 4.88336 18.9 5.10002C19.1167 5.31669 19.225 5.58336 19.225 5.90002V9.00002C19.225 9.31669 19.1167 9.58736 18.9 9.81202C18.6833 10.0374 18.4167 10.15 18.1 10.15V10.15Z" fill="black"/>
</svg>
