<svg width="16" height="16" viewBox="0 0 16 16" fill="none" xmlns="http://www.w3.org/2000/svg">
<path d="M3.93333 12.8167C3.72222 12.8167 3.54445 12.7445 3.4 12.6C3.25556 12.4556 3.18333 12.2778 3.18333 12.0667V10C3.18333 9.78891 3.25556 9.60846 3.4 9.45868C3.54445 9.30846 3.72222 9.23335 3.93333 9.23335C4.15556 9.23335 4.33889 9.30846 4.48333 9.45868C4.62778 9.60846 4.7 9.78891 4.7 10V11.3H6C6.21111 11.3 6.39156 11.3722 6.54133 11.5167C6.69156 11.6611 6.76667 11.8445 6.76667 12.0667C6.76667 12.2778 6.69156 12.4556 6.54133 12.6C6.39156 12.7445 6.21111 12.8167 6 12.8167H3.93333ZM3.93333 6.76668C3.72222 6.76668 3.54445 6.69157 3.4 6.54135C3.25556 6.39157 3.18333 6.21113 3.18333 6.00002V3.93335C3.18333 3.72224 3.25556 3.54446 3.4 3.40002C3.54445 3.25557 3.72222 3.18335 3.93333 3.18335H6C6.21111 3.18335 6.39156 3.25557 6.54133 3.40002C6.69156 3.54446 6.76667 3.72224 6.76667 3.93335C6.76667 4.15557 6.69156 4.33891 6.54133 4.48335C6.39156 4.62779 6.21111 4.70002 6 4.70002H4.7V6.00002C4.7 6.21113 4.62778 6.39157 4.48333 6.54135C4.33889 6.69157 4.15556 6.76668 3.93333 6.76668V6.76668ZM10 12.8167C9.78889 12.8167 9.60845 12.7445 9.45867 12.6C9.30845 12.4556 9.23334 12.2778 9.23334 12.0667C9.23334 11.8445 9.30845 11.6611 9.45867 11.5167C9.60845 11.3722 9.78889 11.3 10 11.3H11.3V10C11.3 9.78891 11.3722 9.60846 11.5167 9.45868C11.6611 9.30846 11.8444 9.23335 12.0667 9.23335C12.2778 9.23335 12.4556 9.30846 12.6 9.45868C12.7444 9.60846 12.8167 9.78891 12.8167 10V12.0667C12.8167 12.2778 12.7444 12.4556 12.6 12.6C12.4556 12.7445 12.2778 12.8167 12.0667 12.8167H10ZM12.0667 6.76668C11.8444 6.76668 11.6611 6.69157 11.5167 6.54135C11.3722 6.39157 11.3 6.21113 11.3 6.00002V4.70002H10C9.78889 4.70002 9.60845 4.62779 9.45867 4.48335C9.30845 4.33891 9.23334 4.15557 9.23334 3.93335C9.23334 3.72224 9.30845 3.54446 9.45867 3.40002C9.60845 3.25557 9.78889 3.18335 10 3.18335H12.0667C12.2778 3.18335 12.4556 3.25557 12.6 3.40002C12.7444 3.54446 12.8167 3.72224 12.8167 3.93335V6.00002C12.8167 6.21113 12.7444 6.39157 12.6 6.54135C12.4556 6.69157 12.2778 6.76668 12.0667 6.76668V6.76668Z" fill="black"/>
</svg>
