<svg width="24" height="24" viewBox="0 0 24 24" fill="none" xmlns="http://www.w3.org/2000/svg">
<path d="M9 19.225C8.68333 19.225 8.41267 19.1167 8.188 18.9C7.96267 18.6834 7.85 18.4167 7.85 18.1V16.15H5.9C5.58333 16.15 5.31667 16.0374 5.1 15.812C4.88333 15.5874 4.775 15.3167 4.775 15C4.775 14.6834 4.88333 14.4127 5.1 14.188C5.31667 13.9627 5.58333 13.85 5.9 13.85H9C9.31667 13.85 9.58733 13.9627 9.812 14.188C10.0373 14.4127 10.15 14.6834 10.15 15V18.1C10.15 18.4167 10.0373 18.6834 9.812 18.9C9.58733 19.1167 9.31667 19.225 9 19.225V19.225ZM5.9 10.15C5.58333 10.15 5.31667 10.0374 5.1 9.81202C4.88333 9.58736 4.775 9.31669 4.775 9.00002C4.775 8.68336 4.88333 8.41236 5.1 8.18702C5.31667 7.96236 5.58333 7.85002 5.9 7.85002H7.85V5.90002C7.85 5.58336 7.96267 5.31669 8.188 5.10002C8.41267 4.88336 8.68333 4.77502 9 4.77502C9.31667 4.77502 9.58733 4.88336 9.812 5.10002C10.0373 5.31669 10.15 5.58336 10.15 5.90002V9.00002C10.15 9.31669 10.0373 9.58736 9.812 9.81202C9.58733 10.0374 9.31667 10.15 9 10.15H5.9ZM15 19.225C14.6833 19.225 14.4127 19.1167 14.188 18.9C13.9627 18.6834 13.85 18.4167 13.85 18.1V15C13.85 14.6834 13.9627 14.4127 14.188 14.188C14.4127 13.9627 14.6833 13.85 15 13.85H18.1C18.4167 13.85 18.6833 13.9627 18.9 14.188C19.1167 14.4127 19.225 14.6834 19.225 15C19.225 15.3167 19.1167 15.5874 18.9 15.812C18.6833 16.0374 18.4167 16.15 18.1 16.15H16.15V18.1C16.15 18.4167 16.0377 18.6834 15.813 18.9C15.5877 19.1167 15.3167 19.225 15 19.225V19.225ZM15 10.15C14.6833 10.15 14.4127 10.0374 14.188 9.81202C13.9627 9.58736 13.85 9.31669 13.85 9.00002V5.90002C13.85 5.58336 13.9627 5.31669 14.188 5.10002C14.4127 4.88336 14.6833 4.77502 15 4.77502C15.3167 4.77502 15.5877 4.88336 15.813 5.10002C16.0377 5.31669 16.15 5.58336 16.15 5.90002V7.85002H18.1C18.4167 7.85002 18.6833 7.96236 18.9 8.18702C19.1167 8.41236 19.225 8.68336 19.225 9.00002C19.225 9.31669 19.1167 9.58736 18.9 9.81202C18.6833 10.0374 18.4167 10.15 18.1 10.15H15Z" fill="black"/>
</svg>
