<svg width="16" height="16" viewBox="0 0 16 16" fill="none" xmlns="http://www.w3.org/2000/svg">
<path d="M8.16671 10C8.02226 10 7.90282 9.95278 7.80837 9.85833C7.71393 9.76389 7.66671 9.64444 7.66671 9.5V6.5C7.66671 6.35556 7.71393 6.23611 7.80837 6.14167C7.90282 6.04722 8.02226 6 8.16671 6C8.31115 6 8.4306 6.04722 8.52504 6.14167C8.61948 6.23611 8.66671 6.35556 8.66671 6.5V9.5C8.66671 9.64444 8.61948 9.76389 8.52504 9.85833C8.4306 9.95278 8.31115 10 8.16671 10ZM4.00004 10C3.80004 10 3.63893 9.93056 3.51671 9.79167C3.39449 9.65278 3.33337 9.5 3.33337 9.33333V6.66667C3.33337 6.5 3.39449 6.34722 3.51671 6.20833C3.63893 6.06944 3.80004 6 4.00004 6H6.16671C6.31115 6 6.4306 6.04722 6.52504 6.14167C6.61948 6.23611 6.66671 6.35556 6.66671 6.5C6.66671 6.64444 6.61948 6.76389 6.52504 6.85833C6.4306 6.95278 6.31115 7 6.16671 7H4.33337V9H5.66671V8.5C5.66671 8.35556 5.71393 8.23611 5.80837 8.14167C5.90282 8.04722 6.02226 8 6.16671 8C6.31115 8 6.4306 8.04722 6.52504 8.14167C6.61948 8.23611 6.66671 8.35556 6.66671 8.5V9.33333C6.66671 9.5 6.6056 9.65278 6.48337 9.79167C6.36115 9.93056 6.20004 10 6.00004 10H4.00004ZM10.1667 10C10.0223 10 9.90282 9.95278 9.80837 9.85833C9.71393 9.76389 9.66671 9.64444 9.66671 9.5V6.66667C9.66671 6.47778 9.7306 6.31944 9.85837 6.19167C9.98615 6.06389 10.1445 6 10.3334 6H12.1667C12.3112 6 12.4306 6.04722 12.525 6.14167C12.6195 6.23611 12.6667 6.35556 12.6667 6.5C12.6667 6.64444 12.6195 6.76389 12.525 6.85833C12.4306 6.95278 12.3112 7 12.1667 7H10.6667V7.66667H11.5C11.6445 7.66667 11.7639 7.71389 11.8584 7.80833C11.9528 7.90278 12 8.02222 12 8.16667C12 8.31111 11.9528 8.43056 11.8584 8.525C11.7639 8.61944 11.6445 8.66667 11.5 8.66667H10.6667V9.5C10.6667 9.64444 10.6195 9.76389 10.525 9.85833C10.4306 9.95278 10.3112 10 10.1667 10Z" fill="black"/>
</svg>
