<svg width="16" height="16" viewBox="0 0 16 16" fill="none" xmlns="http://www.w3.org/2000/svg">
<path d="M2.66665 11.3333C2.29998 11.3333 1.98609 11.2028 1.72498 10.9417C1.46387 10.6806 1.33331 10.3667 1.33331 10V6.00001C1.33331 5.63334 1.46387 5.31945 1.72498 5.05834C1.98609 4.79723 2.29998 4.66667 2.66665 4.66667H5.99998C6.18887 4.66667 6.3472 4.73056 6.47498 4.85834C6.60276 4.98612 6.66665 5.14445 6.66665 5.33334C6.66665 5.52223 6.60276 5.68056 6.47498 5.80834C6.3472 5.93612 6.18887 6.00001 5.99998 6.00001H2.66665V10H5.33331V8.66667H4.66665C4.47776 8.66667 4.31942 8.60278 4.19165 8.47501C4.06387 8.34723 3.99998 8.18889 3.99998 8.00001C3.99998 7.81112 4.06387 7.65278 4.19165 7.52501C4.31942 7.39723 4.47776 7.33334 4.66665 7.33334H5.99998C6.18887 7.33334 6.3472 7.39723 6.47498 7.52501C6.60276 7.65278 6.66665 7.81112 6.66665 8.00001V10C6.66665 10.3667 6.53609 10.6806 6.27498 10.9417C6.01387 11.2028 5.69998 11.3333 5.33331 11.3333H2.66665ZM7.99998 10.6667V5.33334C7.99998 5.14445 8.06387 4.98612 8.19165 4.85834C8.31942 4.73056 8.47776 4.66667 8.66665 4.66667C8.85554 4.66667 9.01387 4.73056 9.14165 4.85834C9.26942 4.98612 9.33331 5.14445 9.33331 5.33334V10.6667C9.33331 10.8556 9.26942 11.0139 9.14165 11.1417C9.01387 11.2695 8.85554 11.3333 8.66665 11.3333C8.47776 11.3333 8.31942 11.2695 8.19165 11.1417C8.06387 11.0139 7.99998 10.8556 7.99998 10.6667ZM10.6666 10.6667V5.33334C10.6666 5.14445 10.7305 4.98612 10.8583 4.85834C10.9861 4.73056 11.1444 4.66667 11.3333 4.66667H14.6666C14.8555 4.66667 15.0139 4.73056 15.1416 4.85834C15.2694 4.98612 15.3333 5.14445 15.3333 5.33334C15.3333 5.52223 15.2694 5.68056 15.1416 5.80834C15.0139 5.93612 14.8555 6.00001 14.6666 6.00001H12V7.33334H14C14.1889 7.33334 14.3472 7.39723 14.475 7.52501C14.6028 7.65278 14.6666 7.81112 14.6666 8.00001C14.6666 8.18889 14.6028 8.34723 14.475 8.47501C14.3472 8.60278 14.1889 8.66667 14 8.66667H12V10.6667C12 10.8556 11.9361 11.0139 11.8083 11.1417C11.6805 11.2695 11.5222 11.3333 11.3333 11.3333C11.1444 11.3333 10.9861 11.2695 10.8583 11.1417C10.7305 11.0139 10.6666 10.8556 10.6666 10.6667Z" fill="black"/>
</svg>
