<svg width="28" height="28" viewBox="0 0 28 28" fill="none" xmlns="http://www.w3.org/2000/svg">
<path d="M14.2917 17.5C14.0389 17.5 13.8299 17.4174 13.6646 17.2521C13.4993 17.0868 13.4167 16.8778 13.4167 16.625V11.375C13.4167 11.1222 13.4993 10.9132 13.6646 10.7479C13.8299 10.5826 14.0389 10.5 14.2917 10.5C14.5445 10.5 14.7535 10.5826 14.9188 10.7479C15.0841 10.9132 15.1667 11.1222 15.1667 11.375V16.625C15.1667 16.8778 15.0841 17.0868 14.9188 17.2521C14.7535 17.4174 14.5445 17.5 14.2917 17.5ZM7.00004 17.5C6.65004 17.5 6.3681 17.3785 6.15421 17.1354C5.94032 16.8924 5.83337 16.625 5.83337 16.3333V11.6667C5.83337 11.375 5.94032 11.1076 6.15421 10.8646C6.3681 10.6215 6.65004 10.5 7.00004 10.5H10.7917C11.0445 10.5 11.2535 10.5826 11.4188 10.7479C11.5841 10.9132 11.6667 11.1222 11.6667 11.375C11.6667 11.6278 11.5841 11.8368 11.4188 12.0021C11.2535 12.1674 11.0445 12.25 10.7917 12.25H7.58337V15.75H9.91671V14.875C9.91671 14.6222 9.99935 14.4132 10.1646 14.2479C10.3299 14.0826 10.5389 14 10.7917 14C11.0445 14 11.2535 14.0826 11.4188 14.2479C11.5841 14.4132 11.6667 14.6222 11.6667 14.875V16.3333C11.6667 16.625 11.5598 16.8924 11.3459 17.1354C11.132 17.3785 10.85 17.5 10.5 17.5H7.00004ZM17.7917 17.5C17.5389 17.5 17.3299 17.4174 17.1646 17.2521C16.9993 17.0868 16.9167 16.8778 16.9167 16.625V11.6667C16.9167 11.3361 17.0285 11.059 17.2521 10.8354C17.4757 10.6118 17.7528 10.5 18.0834 10.5H21.2917C21.5445 10.5 21.7535 10.5826 21.9188 10.7479C22.0841 10.9132 22.1667 11.1222 22.1667 11.375C22.1667 11.6278 22.0841 11.8368 21.9188 12.0021C21.7535 12.1674 21.5445 12.25 21.2917 12.25H18.6667V13.4167H20.125C20.3778 13.4167 20.5868 13.4993 20.7521 13.6646C20.9174 13.8299 21 14.0389 21 14.2917C21 14.5444 20.9174 14.7535 20.7521 14.9187C20.5868 15.084 20.3778 15.1667 20.125 15.1667H18.6667V16.625C18.6667 16.8778 18.5841 17.0868 18.4188 17.2521C18.2535 17.4174 18.0445 17.5 17.7917 17.5Z" fill="black"/>
</svg>
