<svg width="24" height="24" viewBox="0 0 24 24" fill="none" xmlns="http://www.w3.org/2000/svg">
<path d="M4 17C3.45 17 2.97917 16.8042 2.5875 16.4125C2.19583 16.0208 2 15.55 2 15V9C2 8.45 2.19583 7.97917 2.5875 7.5875C2.97917 7.19583 3.45 7 4 7H9C9.28333 7 9.52083 7.09583 9.7125 7.2875C9.90417 7.47917 10 7.71667 10 8C10 8.28333 9.90417 8.52083 9.7125 8.7125C9.52083 8.90417 9.28333 9 9 9H4V15H8V13H7C6.71667 13 6.47917 12.9042 6.2875 12.7125C6.09583 12.5208 6 12.2833 6 12C6 11.7167 6.09583 11.4792 6.2875 11.2875C6.47917 11.0958 6.71667 11 7 11H9C9.28333 11 9.52083 11.0958 9.7125 11.2875C9.90417 11.4792 10 11.7167 10 12V15C10 15.55 9.80417 16.0208 9.4125 16.4125C9.02083 16.8042 8.55 17 8 17H4ZM12 16V8C12 7.71667 12.0958 7.47917 12.2875 7.2875C12.4792 7.09583 12.7167 7 13 7C13.2833 7 13.5208 7.09583 13.7125 7.2875C13.9042 7.47917 14 7.71667 14 8V16C14 16.2833 13.9042 16.5208 13.7125 16.7125C13.5208 16.9042 13.2833 17 13 17C12.7167 17 12.4792 16.9042 12.2875 16.7125C12.0958 16.5208 12 16.2833 12 16ZM16 16V8C16 7.71667 16.0958 7.47917 16.2875 7.2875C16.4792 7.09583 16.7167 7 17 7H22C22.2833 7 22.5208 7.09583 22.7125 7.2875C22.9042 7.47917 23 7.71667 23 8C23 8.28333 22.9042 8.52083 22.7125 8.7125C22.5208 8.90417 22.2833 9 22 9H18V11H21C21.2833 11 21.5208 11.0958 21.7125 11.2875C21.9042 11.4792 22 11.7167 22 12C22 12.2833 21.9042 12.5208 21.7125 12.7125C21.5208 12.9042 21.2833 13 21 13H18V16C18 16.2833 17.9042 16.5208 17.7125 16.7125C17.5208 16.9042 17.2833 17 17 17C16.7167 17 16.4792 16.9042 16.2875 16.7125C16.0958 16.5208 16 16.2833 16 16Z" fill="black"/>
</svg>
