<svg width="28" height="28" viewBox="0 0 28 28" fill="none" xmlns="http://www.w3.org/2000/svg">
<path d="M4.66665 19.8333C4.02498 19.8333 3.47567 19.6049 3.01873 19.1479C2.56179 18.691 2.33331 18.1417 2.33331 17.5V10.5C2.33331 9.85834 2.56179 9.30903 3.01873 8.85209C3.47567 8.39514 4.02498 8.16667 4.66665 8.16667H10.5C10.8305 8.16667 11.1076 8.27848 11.3312 8.50209C11.5548 8.7257 11.6666 9.00278 11.6666 9.33334C11.6666 9.66389 11.5548 9.94098 11.3312 10.1646C11.1076 10.3882 10.8305 10.5 10.5 10.5H4.66665V17.5H9.33331V15.1667H8.16665C7.83609 15.1667 7.55901 15.0549 7.3354 14.8313C7.11178 14.6076 6.99998 14.3306 6.99998 14C6.99998 13.6694 7.11178 13.3924 7.3354 13.1688C7.55901 12.9451 7.83609 12.8333 8.16665 12.8333H10.5C10.8305 12.8333 11.1076 12.9451 11.3312 13.1688C11.5548 13.3924 11.6666 13.6694 11.6666 14V17.5C11.6666 18.1417 11.4382 18.691 10.9812 19.1479C10.5243 19.6049 9.97498 19.8333 9.33331 19.8333H4.66665ZM14 18.6667V9.33334C14 9.00278 14.1118 8.7257 14.3354 8.50209C14.559 8.27848 14.8361 8.16667 15.1666 8.16667C15.4972 8.16667 15.7743 8.27848 15.9979 8.50209C16.2215 8.7257 16.3333 9.00278 16.3333 9.33334V18.6667C16.3333 18.9972 16.2215 19.2743 15.9979 19.4979C15.7743 19.7215 15.4972 19.8333 15.1666 19.8333C14.8361 19.8333 14.559 19.7215 14.3354 19.4979C14.1118 19.2743 14 18.9972 14 18.6667ZM18.6666 18.6667V9.33334C18.6666 9.00278 18.7785 8.7257 19.0021 8.50209C19.2257 8.27848 19.5028 8.16667 19.8333 8.16667H25.6666C25.9972 8.16667 26.2743 8.27848 26.4979 8.50209C26.7215 8.7257 26.8333 9.00278 26.8333 9.33334C26.8333 9.66389 26.7215 9.94098 26.4979 10.1646C26.2743 10.3882 25.9972 10.5 25.6666 10.5H21V12.8333H24.5C24.8305 12.8333 25.1076 12.9451 25.3312 13.1688C25.5548 13.3924 25.6666 13.6694 25.6666 14C25.6666 14.3306 25.5548 14.6076 25.3312 14.8313C25.1076 15.0549 24.8305 15.1667 24.5 15.1667H21V18.6667C21 18.9972 20.8882 19.2743 20.6646 19.4979C20.441 19.7215 20.1639 19.8333 19.8333 19.8333C19.5028 19.8333 19.2257 19.7215 19.0021 19.4979C18.7785 19.2743 18.6666 18.9972 18.6666 18.6667Z" fill="black"/>
</svg>
