<svg width="24" height="24" viewBox="0 0 24 24" fill="none" xmlns="http://www.w3.org/2000/svg">
<path d="M12.25 15C12.0333 15 11.8542 14.9292 11.7125 14.7875C11.5708 14.6458 11.5 14.4667 11.5 14.25V9.75C11.5 9.53333 11.5708 9.35417 11.7125 9.2125C11.8542 9.07083 12.0333 9 12.25 9C12.4667 9 12.6458 9.07083 12.7875 9.2125C12.9292 9.35417 13 9.53333 13 9.75V14.25C13 14.4667 12.9292 14.6458 12.7875 14.7875C12.6458 14.9292 12.4667 15 12.25 15ZM6 15C5.7 15 5.45833 14.8958 5.275 14.6875C5.09167 14.4792 5 14.25 5 14V10C5 9.75 5.09167 9.52083 5.275 9.3125C5.45833 9.10417 5.7 9 6 9H9.25C9.46667 9 9.64583 9.07083 9.7875 9.2125C9.92917 9.35417 10 9.53333 10 9.75C10 9.96667 9.92917 10.1458 9.7875 10.2875C9.64583 10.4292 9.46667 10.5 9.25 10.5H6.5V13.5H8.5V12.75C8.5 12.5333 8.57083 12.3542 8.7125 12.2125C8.85417 12.0708 9.03333 12 9.25 12C9.46667 12 9.64583 12.0708 9.7875 12.2125C9.92917 12.3542 10 12.5333 10 12.75V14C10 14.25 9.90833 14.4792 9.725 14.6875C9.54167 14.8958 9.3 15 9 15H6ZM15.25 15C15.0333 15 14.8542 14.9292 14.7125 14.7875C14.5708 14.6458 14.5 14.4667 14.5 14.25V10C14.5 9.71667 14.5958 9.47917 14.7875 9.2875C14.9792 9.09583 15.2167 9 15.5 9H18.25C18.4667 9 18.6458 9.07083 18.7875 9.2125C18.9292 9.35417 19 9.53333 19 9.75C19 9.96667 18.9292 10.1458 18.7875 10.2875C18.6458 10.4292 18.4667 10.5 18.25 10.5H16V11.5H17.25C17.4667 11.5 17.6458 11.5708 17.7875 11.7125C17.9292 11.8542 18 12.0333 18 12.25C18 12.4667 17.9292 12.6458 17.7875 12.7875C17.6458 12.9292 17.4667 13 17.25 13H16V14.25C16 14.4667 15.9292 14.6458 15.7875 14.7875C15.6458 14.9292 15.4667 15 15.25 15Z" fill="black"/>
</svg>
