<svg width="16" height="16" viewBox="0 0 16 16" fill="none" xmlns="http://www.w3.org/2000/svg">
<path d="M2.66667 8.62572C2.66667 8.69608 2.67998 8.76581 2.70703 8.83077C2.73408 8.89573 2.77427 8.95437 2.82422 9.00394C2.87417 9.05352 2.93353 9.09261 2.9987 9.11918C3.06387 9.14574 3.13405 9.15942 3.20443 9.15889C3.27372 9.15894 3.34245 9.14491 3.40625 9.11787C3.47005 9.09084 3.52736 9.05115 3.57552 9.00134L4.95573 7.62178C5.05567 7.52177 5.11198 7.38556 5.11198 7.24418C5.11198 7.10279 5.05567 6.96723 4.95573 6.86722L3.57552 5.48767C3.50067 5.41352 3.4055 5.36327 3.30208 5.34314C3.19866 5.323 3.092 5.33373 2.99479 5.37439C2.89759 5.41504 2.81351 5.48324 2.75521 5.571C2.69691 5.65876 2.66645 5.76186 2.66667 5.86722V6.57881H0.666667C0.489856 6.57881 0.320337 6.6491 0.195312 6.77412C0.0702883 6.89915 0 7.06867 0 7.24548C0.00104951 7.42197 0.0718171 7.59073 0.196615 7.71553C0.321412 7.84033 0.49018 7.9111 0.666667 7.91215H2.66667V8.62572Z" fill="black"/>
<path d="M4.54545 12.0605C4.39091 12.0605 4.26145 12.0082 4.15709 11.9034C4.05236 11.7991 4 11.6696 4 11.5151V10.5333C4 10.2242 4.07964 9.93998 4.23891 9.68071C4.39782 9.4218 4.60909 9.22416 4.87273 9.0878C5.43636 8.80598 6.00909 8.59452 6.59091 8.45343C7.17273 8.31271 7.76364 8.24234 8.36364 8.24234C8.96364 8.24234 9.55455 8.31271 10.1364 8.45343C10.7182 8.59452 11.2909 8.80598 11.8545 9.0878C12.1182 9.22416 12.3295 9.4218 12.4884 9.68071C12.6476 9.93998 12.7273 10.2242 12.7273 10.5333V11.5151C12.7273 11.6696 12.6749 11.7991 12.5702 11.9034C12.4658 12.0082 12.3364 12.0605 12.1818 12.0605H4.54545ZM13.5591 12.0605C13.6409 11.9969 13.7045 11.9173 13.75 11.8216C13.7955 11.7263 13.8182 11.6196 13.8182 11.5014V10.4242C13.8182 10.0242 13.7069 9.63998 13.4844 9.27162C13.2615 8.90362 12.9455 8.5878 12.5364 8.32416C13 8.37871 13.4364 8.4718 13.8455 8.60343C14.2545 8.73543 14.6364 8.89689 14.9909 9.0878C15.3182 9.26962 15.5682 9.4718 15.7409 9.69434C15.9136 9.91725 16 10.1605 16 10.4242V11.5151C16 11.6696 15.9476 11.7991 15.8429 11.9034C15.7385 12.0082 15.6091 12.0605 15.4545 12.0605H13.5591ZM8.36364 7.69689C7.76364 7.69689 7.25 7.48325 6.82273 7.05598C6.39545 6.62871 6.18182 6.11507 6.18182 5.51507C6.18182 4.91507 6.39545 4.40143 6.82273 3.97416C7.25 3.54689 7.76364 3.33325 8.36364 3.33325C8.96364 3.33325 9.47727 3.54689 9.90455 3.97416C10.3318 4.40143 10.5455 4.91507 10.5455 5.51507C10.5455 6.11507 10.3318 6.62871 9.90455 7.05598C9.47727 7.48325 8.96364 7.69689 8.36364 7.69689ZM13.8182 5.51507C13.8182 6.11507 13.6045 6.62871 13.1773 7.05598C12.75 7.48325 12.2364 7.69689 11.6364 7.69689C11.5364 7.69689 11.4091 7.68562 11.2545 7.66307C11.1 7.64016 10.9727 7.61507 10.8727 7.5878C11.1182 7.29689 11.3067 6.97416 11.4384 6.61962C11.5704 6.26507 11.6364 5.89689 11.6364 5.51507C11.6364 5.13325 11.5704 4.76507 11.4384 4.41052C11.3067 4.05598 11.1182 3.73325 10.8727 3.44234C11 3.39689 11.1273 3.36725 11.2545 3.35343C11.3818 3.33998 11.5091 3.33325 11.6364 3.33325C12.2364 3.33325 12.75 3.54689 13.1773 3.97416C13.6045 4.40143 13.8182 4.91507 13.8182 5.51507ZM5.09091 10.9696H11.6364V10.5333C11.6364 10.4333 11.6115 10.3423 11.5616 10.2605C11.5115 10.1787 11.4455 10.1151 11.3636 10.0696C10.8727 9.82416 10.3773 9.63998 9.87727 9.51707C9.37727 9.39453 8.87273 9.33325 8.36364 9.33325C7.85455 9.33325 7.35 9.39453 6.85 9.51707C6.35 9.63998 5.85455 9.82416 5.36364 10.0696C5.28182 10.1151 5.216 10.1787 5.16618 10.2605C5.116 10.3423 5.09091 10.4333 5.09091 10.5333V10.9696ZM8.36364 6.60598C8.66364 6.60598 8.92055 6.49907 9.13436 6.28525C9.34782 6.0718 9.45455 5.81507 9.45455 5.51507C9.45455 5.21507 9.34782 4.95834 9.13436 4.74489C8.92055 4.53107 8.66364 4.42416 8.36364 4.42416C8.06364 4.42416 7.80691 4.53107 7.59345 4.74489C7.37964 4.95834 7.27273 5.21507 7.27273 5.51507C7.27273 5.81507 7.37964 6.0718 7.59345 6.28525C7.80691 6.49907 8.06364 6.60598 8.36364 6.60598Z" fill="black"/>
</svg>
