<svg width="28" height="28" viewBox="0 0 28 28" fill="none" xmlns="http://www.w3.org/2000/svg">
<path fill-rule="evenodd" clip-rule="evenodd" d="M10.5 18.0833V20.4167H17.5V18.0833C17.5 16.7947 16.4553 15.75 15.1666 15.75H12.8333C11.5446 15.75 10.5 16.7947 10.5 18.0833ZM11.0361 13.7753C9.3509 14.4792 8.16665 16.1429 8.16665 18.0833V20.4167C8.16665 21.7053 9.21132 22.75 10.5 22.75H17.5C18.7886 22.75 19.8333 21.7053 19.8333 20.4167V18.0833C19.8333 16.1429 18.6491 14.4792 16.9639 13.7753C16.4107 13.5443 15.8036 13.4167 15.1666 13.4167H12.8333C12.1964 13.4167 11.5892 13.5443 11.0361 13.7753ZM11.5088 11.2085C11.8771 11.5816 12.3287 11.8725 12.8333 12.0508C13.1982 12.1798 13.5909 12.25 14 12.25C14.4091 12.25 14.8017 12.1798 15.1666 12.0508C15.6713 11.8725 16.1228 11.5816 16.4912 11.2085C17.1149 10.5764 17.5 9.70818 17.5 8.75C17.5 6.817 15.933 5.25 14 5.25C12.067 5.25 10.5 6.817 10.5 8.75C10.5 9.70818 10.885 10.5764 11.5088 11.2085ZM14 9.91667C14.6443 9.91667 15.1666 9.39433 15.1666 8.75C15.1666 8.10567 14.6443 7.58333 14 7.58333C13.3556 7.58333 12.8333 8.10567 12.8333 8.75C12.8333 9.39433 13.3556 9.91667 14 9.91667Z" fill="black"/>
<path d="M25.6666 19.25C25.6666 20.2165 24.8831 21 23.9166 21H21.5833V18.1662C21.5833 16.6191 20.9687 15.1354 19.8748 14.0415L19.8333 14H22.1666C24.0996 14 25.6666 15.567 25.6666 17.5V19.25Z" fill="black"/>
<path d="M18.9583 10.2083C18.9583 11.3359 19.8724 12.25 21 12.25C22.1276 12.25 23.0416 11.3359 23.0416 10.2083C23.0416 9.08075 22.1276 8.16667 21 8.16667C19.8724 8.16667 18.9583 9.08075 18.9583 10.2083Z" fill="black"/>
<path d="M2.33331 19.25C2.33331 20.2165 3.11681 21 4.08331 21H6.41665V18.1662C6.41665 16.6191 7.03123 15.1354 8.12519 14.0415L8.16665 14H5.83331C3.90032 14 2.33331 15.567 2.33331 17.5V19.25Z" fill="black"/>
<path d="M4.95831 10.2083C4.95831 11.3359 5.8724 12.25 6.99998 12.25C8.12756 12.25 9.04165 11.3359 9.04165 10.2083C9.04165 9.08075 8.12756 8.16667 6.99998 8.16667C5.8724 8.16667 4.95831 9.08075 4.95831 10.2083Z" fill="black"/>
</svg>
