<svg width="28" height="28" viewBox="0 0 28 28" fill="none" xmlns="http://www.w3.org/2000/svg">
<path d="M14 14.875C15.9017 14.875 17.5817 15.33 18.9467 15.925C20.2067 16.485 21 17.745 21 19.11V19.8333C21 20.475 20.475 21 19.8333 21H8.16667C7.525 21 7 20.475 7 19.8333V19.1217C7 17.745 7.79333 16.485 9.05333 15.9367C10.4183 15.33 12.0983 14.875 14 14.875ZM4.66667 15.1667C5.95 15.1667 7 14.1167 7 12.8333C7 11.55 5.95 10.5 4.66667 10.5C3.38333 10.5 2.33333 11.55 2.33333 12.8333C2.33333 14.1167 3.38333 15.1667 4.66667 15.1667ZM5.985 16.45C5.55333 16.38 5.12167 16.3333 4.66667 16.3333C3.51167 16.3333 2.415 16.5783 1.42333 17.01C0.56 17.3833 0 18.2233 0 19.1683V19.8333C0 20.475 0.525 21 1.16667 21H5.25V19.1217C5.25 18.1533 5.51833 17.2433 5.985 16.45ZM23.3333 15.1667C24.6167 15.1667 25.6667 14.1167 25.6667 12.8333C25.6667 11.55 24.6167 10.5 23.3333 10.5C22.05 10.5 21 11.55 21 12.8333C21 14.1167 22.05 15.1667 23.3333 15.1667ZM28 19.1683C28 18.2233 27.44 17.3833 26.5767 17.01C25.585 16.5783 24.4883 16.3333 23.3333 16.3333C22.8783 16.3333 22.4467 16.38 22.015 16.45C22.4817 17.2433 22.75 18.1533 22.75 19.1217V21H26.8333C27.475 21 28 20.475 28 19.8333V19.1683ZM14 7C15.9367 7 17.5 8.56333 17.5 10.5C17.5 12.4367 15.9367 14 14 14C12.0633 14 10.5 12.4367 10.5 10.5C10.5 8.56333 12.0633 7 14 7Z" fill="black"/>
</svg>
