<svg width="28" height="28" viewBox="0 0 28 28" fill="none" xmlns="http://www.w3.org/2000/svg">
<path d="M7.00001 12.25C6.59627 12.25 6.20159 12.1303 5.86589 11.906C5.53018 11.6817 5.26854 11.3628 5.11403 10.9898C4.95952 10.6168 4.9191 10.2064 4.99786 9.81037C5.07663 9.41439 5.27105 9.05065 5.55654 8.76516C5.84204 8.47966 6.20577 8.28524 6.60176 8.20648C6.99775 8.12771 7.4082 8.16814 7.78121 8.32264C8.15423 8.47715 8.47305 8.7388 8.69736 9.0745C8.92166 9.4102 9.04139 9.80488 9.04139 10.2086C9.0415 10.4767 8.98878 10.7422 8.88623 10.99C8.78369 11.2377 8.63332 11.4628 8.44374 11.6524C8.25416 11.8419 8.02907 11.9923 7.78135 12.0948C7.53363 12.1974 7.26812 12.2501 7.00001 12.25Z" fill="black"/>
<path d="M21 12.25C20.5963 12.25 20.2016 12.1303 19.8659 11.906C19.5302 11.6817 19.2685 11.3628 19.114 10.9898C18.9595 10.6168 18.9191 10.2064 18.9979 9.81037C19.0766 9.41439 19.2711 9.05065 19.5565 8.76516C19.842 8.47966 20.2058 8.28524 20.6018 8.20648C20.9978 8.12771 21.4082 8.16814 21.7812 8.32264C22.1542 8.47715 22.473 8.7388 22.6974 9.0745C22.9217 9.4102 23.0414 9.80488 23.0414 10.2086C23.0415 10.4767 22.9888 10.7422 22.8862 10.99C22.7837 11.2377 22.6333 11.4628 22.4437 11.6524C22.2542 11.8419 22.0291 11.9923 21.7814 12.0948C21.5336 12.1974 21.2681 12.2501 21 12.25Z" fill="black"/>
<path d="M22.1664 14H20.1626C20.6092 14.4068 20.9662 14.9023 21.2107 15.4547C21.4552 16.0072 21.5819 16.6045 21.5828 17.2086V21H23.4789C23.7662 21 24.0506 20.9434 24.316 20.8335C24.5814 20.7236 24.8226 20.5624 25.0257 20.3593C25.2288 20.1562 25.3899 19.915 25.4999 19.6496C25.6098 19.3842 25.6664 19.0998 25.6664 18.8125V17.5C25.6664 16.5717 25.2976 15.6815 24.6413 15.0251C23.9849 14.3688 23.0946 14 22.1664 14Z" fill="black"/>
<path d="M14 12.25C13.3078 12.25 12.6311 12.0447 12.0555 11.6601C11.4799 11.2756 11.0313 10.7289 10.7664 10.0894C10.5015 9.44985 10.4322 8.74612 10.5673 8.06719C10.7023 7.38825 11.0357 6.76461 11.5251 6.27513C12.0146 5.78564 12.6383 5.4523 13.3172 5.31725C13.9961 5.1822 14.6999 5.25152 15.3394 5.51642C15.9789 5.78133 16.5256 6.22993 16.9102 6.80551C17.2947 7.38108 17.5 8.05777 17.5 8.75C17.5 9.67826 17.1313 10.5685 16.4749 11.2249C15.8185 11.8813 14.9283 12.25 14 12.25Z" fill="black"/>
<path d="M17.2086 22.75H10.7923C10.0961 22.75 9.42839 22.4734 8.93611 21.9812C8.44383 21.4889 8.16726 20.8212 8.16726 20.125V18.2289C8.16726 16.9525 8.67429 15.7284 9.57681 14.8259C10.4793 13.9234 11.7034 13.4164 12.9798 13.4164H15.0211C16.2975 13.4164 17.5216 13.9234 18.4241 14.8259C19.3266 15.7284 19.8336 16.9525 19.8336 18.2289V20.125C19.8336 20.8212 19.5571 21.4889 19.0648 21.9812C18.5725 22.4734 17.9048 22.75 17.2086 22.75Z" fill="black"/>
<path d="M6.41639 17.2086C6.41741 16.6044 6.54429 16.0071 6.78895 15.4547C7.03361 14.9022 7.39067 14.4068 7.83739 14H5.83276C4.90451 14 4.01427 14.3688 3.35789 15.0251C2.70151 15.6815 2.33276 16.5717 2.33276 17.5V18.8125C2.33276 19.0998 2.38935 19.3842 2.49928 19.6496C2.60921 19.915 2.77034 20.1562 2.97347 20.3593C3.1766 20.5624 3.41774 20.7236 3.68314 20.8335C3.94854 20.9434 4.233 21 4.52026 21H6.41639V17.2086Z" fill="black"/>
</svg>
