<svg width="16" height="16" viewBox="0 0 16 16" fill="none" xmlns="http://www.w3.org/2000/svg">
<g clip-path="url(#clip0_336_48)">
<path d="M8.33333 7.96675C8.65556 7.61119 8.90278 7.20564 9.075 6.75008C9.24722 6.29453 9.33333 5.8223 9.33333 5.33341C9.33333 4.84453 9.24722 4.3723 9.075 3.91675C8.90278 3.46119 8.65556 3.05564 8.33333 2.70008C9 2.78897 9.55556 3.08341 10 3.58341C10.4444 4.08341 10.6667 4.66675 10.6667 5.33341C10.6667 6.00008 10.4444 6.58341 10 7.08341C9.55556 7.58341 9 7.87786 8.33333 7.96675ZM11.6833 13.3334C11.7833 13.2556 11.8611 13.1584 11.9167 13.0417C11.9722 12.9251 12 12.7945 12 12.6501V11.3334C12 10.9334 11.9111 10.5529 11.7333 10.1917C11.5556 9.83064 11.3222 9.51119 11.0333 9.23342C11.6 9.43342 12.125 9.69175 12.6083 10.0084C13.0917 10.3251 13.3333 10.7667 13.3333 11.3334V12.6667C13.3333 12.8556 13.2694 13.014 13.1417 13.1417C13.0139 13.2695 12.8556 13.3334 12.6667 13.3334H11.6833ZM14 8.66675C13.8111 8.66675 13.6528 8.60286 13.525 8.47508C13.3972 8.3473 13.3333 8.18897 13.3333 8.00008V7.33341H12.6667C12.4778 7.33341 12.3194 7.26953 12.1917 7.14175C12.0639 7.01397 12 6.85564 12 6.66675C12 6.47786 12.0639 6.31953 12.1917 6.19175C12.3194 6.06397 12.4778 6.00008 12.6667 6.00008H13.3333V5.33341C13.3333 5.14453 13.3972 4.98619 13.525 4.85841C13.6528 4.73064 13.8111 4.66675 14 4.66675C14.1889 4.66675 14.3472 4.73064 14.475 4.85841C14.6028 4.98619 14.6667 5.14453 14.6667 5.33341V6.00008H15.3333C15.5222 6.00008 15.6806 6.06397 15.8083 6.19175C15.9361 6.31953 16 6.47786 16 6.66675C16 6.85564 15.9361 7.01397 15.8083 7.14175C15.6806 7.26953 15.5222 7.33341 15.3333 7.33341H14.6667V8.00008C14.6667 8.18897 14.6028 8.3473 14.475 8.47508C14.3472 8.60286 14.1889 8.66675 14 8.66675ZM5.33333 8.00008C4.6 8.00008 3.97222 7.73897 3.45 7.21675C2.92778 6.69453 2.66667 6.06675 2.66667 5.33341C2.66667 4.60008 2.92778 3.9723 3.45 3.45008C3.97222 2.92786 4.6 2.66675 5.33333 2.66675C6.06667 2.66675 6.69444 2.92786 7.21667 3.45008C7.73889 3.9723 8 4.60008 8 5.33341C8 6.06675 7.73889 6.69453 7.21667 7.21675C6.69444 7.73897 6.06667 8.00008 5.33333 8.00008ZM0.666667 13.3334C0.477778 13.3334 0.319444 13.2695 0.191667 13.1417C0.0638889 13.014 0 12.8556 0 12.6667V11.4667C0 11.089 0.0972222 10.7417 0.291667 10.4251C0.486111 10.1084 0.744444 9.86675 1.06667 9.70008C1.75556 9.35564 2.45556 9.0973 3.16667 8.92508C3.87778 8.75286 4.6 8.66675 5.33333 8.66675C6.06667 8.66675 6.78889 8.75286 7.5 8.92508C8.21111 9.0973 8.91111 9.35564 9.6 9.70008C9.92222 9.86675 10.1806 10.1084 10.375 10.4251C10.5694 10.7417 10.6667 11.089 10.6667 11.4667V12.6667C10.6667 12.8556 10.6028 13.014 10.475 13.1417C10.3472 13.2695 10.1889 13.3334 10 13.3334H0.666667ZM5.33333 6.66675C5.7 6.66675 6.01389 6.53619 6.275 6.27508C6.53611 6.01397 6.66667 5.70008 6.66667 5.33341C6.66667 4.96675 6.53611 4.65286 6.275 4.39175C6.01389 4.13064 5.7 4.00008 5.33333 4.00008C4.96667 4.00008 4.65278 4.13064 4.39167 4.39175C4.13056 4.65286 4 4.96675 4 5.33341C4 5.70008 4.13056 6.01397 4.39167 6.27508C4.65278 6.53619 4.96667 6.66675 5.33333 6.66675ZM1.33333 12.0001H9.33333V11.4667C9.33333 11.3445 9.30278 11.2334 9.24167 11.1334C9.18056 11.0334 9.1 10.9556 9 10.9001C8.4 10.6001 7.79445 10.3751 7.18333 10.2251C6.57222 10.0751 5.95556 10.0001 5.33333 10.0001C4.71111 10.0001 4.09444 10.0751 3.48333 10.2251C2.87222 10.3751 2.26667 10.6001 1.66667 10.9001C1.56667 10.9556 1.48611 11.0334 1.425 11.1334C1.36389 11.2334 1.33333 11.3445 1.33333 11.4667V12.0001Z" fill="black"/>
</g>
<defs>
<clipPath id="clip0_336_48">
<rect width="16" height="16" fill="white"/>
</clipPath>
</defs>
</svg>
