<svg width="28" height="28" viewBox="0 0 28 28" fill="none" xmlns="http://www.w3.org/2000/svg">
<path d="M14.5833 13.9417C15.1472 13.3195 15.5799 12.6098 15.8812 11.8126C16.1826 11.0154 16.3333 10.189 16.3333 9.33341C16.3333 8.47786 16.1826 7.65147 15.8812 6.85425C15.5799 6.05703 15.1472 5.3473 14.5833 4.72508C15.75 4.88064 16.7222 5.39591 17.5 6.27091C18.2778 7.14591 18.6667 8.16675 18.6667 9.33341C18.6667 10.5001 18.2778 11.5209 17.5 12.3959C16.7222 13.2709 15.75 13.7862 14.5833 13.9417ZM20.4458 23.3334C20.6208 23.1973 20.7569 23.0272 20.8542 22.823C20.9514 22.6188 21 22.3904 21 22.1376V19.8334C21 19.1334 20.8444 18.4674 20.5333 17.8355C20.2222 17.2036 19.8139 16.6445 19.3083 16.1584C20.3 16.5084 21.2187 16.9605 22.0646 17.5147C22.9104 18.0688 23.3333 18.8417 23.3333 19.8334V22.1667C23.3333 22.4973 23.2215 22.7744 22.9979 22.998C22.7743 23.2216 22.4972 23.3334 22.1667 23.3334H20.4458ZM24.5 15.1667C24.1694 15.1667 23.8924 15.0549 23.6687 14.8313C23.4451 14.6077 23.3333 14.3306 23.3333 14.0001V12.8334H22.1667C21.8361 12.8334 21.559 12.7216 21.3354 12.498C21.1118 12.2744 21 11.9973 21 11.6667C21 11.3362 21.1118 11.0591 21.3354 10.8355C21.559 10.6119 21.8361 10.5001 22.1667 10.5001H23.3333V9.33341C23.3333 9.00286 23.4451 8.72578 23.6687 8.50216C23.8924 8.27855 24.1694 8.16675 24.5 8.16675C24.8306 8.16675 25.1076 8.27855 25.3312 8.50216C25.5549 8.72578 25.6667 9.00286 25.6667 9.33341V10.5001H26.8333C27.1639 10.5001 27.441 10.6119 27.6646 10.8355C27.8882 11.0591 28 11.3362 28 11.6667C28 11.9973 27.8882 12.2744 27.6646 12.498C27.441 12.7216 27.1639 12.8334 26.8333 12.8334H25.6667V14.0001C25.6667 14.3306 25.5549 14.6077 25.3312 14.8313C25.1076 15.0549 24.8306 15.1667 24.5 15.1667ZM9.33333 14.0001C8.05 14.0001 6.95139 13.5431 6.0375 12.6292C5.12361 11.7154 4.66667 10.6167 4.66667 9.33341C4.66667 8.05008 5.12361 6.95147 6.0375 6.03758C6.95139 5.12369 8.05 4.66675 9.33333 4.66675C10.6167 4.66675 11.7153 5.12369 12.6292 6.03758C13.5431 6.95147 14 8.05008 14 9.33341C14 10.6167 13.5431 11.7154 12.6292 12.6292C11.7153 13.5431 10.6167 14.0001 9.33333 14.0001ZM1.16667 23.3334C0.836111 23.3334 0.559028 23.2216 0.335417 22.998C0.111806 22.7744 0 22.4973 0 22.1667V20.0667C0 19.4056 0.170139 18.798 0.510417 18.2438C0.850694 17.6897 1.30278 17.2667 1.86667 16.9751C3.07222 16.3723 4.29722 15.9202 5.54167 15.6188C6.78611 15.3174 8.05 15.1667 9.33333 15.1667C10.6167 15.1667 11.8806 15.3174 13.125 15.6188C14.3694 15.9202 15.5944 16.3723 16.8 16.9751C17.3639 17.2667 17.816 17.6897 18.1562 18.2438C18.4965 18.798 18.6667 19.4056 18.6667 20.0667V22.1667C18.6667 22.4973 18.5549 22.7744 18.3313 22.998C18.1076 23.2216 17.8306 23.3334 17.5 23.3334H1.16667ZM9.33333 11.6667C9.975 11.6667 10.5243 11.4383 10.9813 10.9813C11.4382 10.5244 11.6667 9.97508 11.6667 9.33341C11.6667 8.69175 11.4382 8.14244 10.9813 7.6855C10.5243 7.22855 9.975 7.00008 9.33333 7.00008C8.69167 7.00008 8.14236 7.22855 7.68542 7.6855C7.22847 8.14244 7 8.69175 7 9.33341C7 9.97508 7.22847 10.5244 7.68542 10.9813C8.14236 11.4383 8.69167 11.6667 9.33333 11.6667ZM2.33333 21.0001H16.3333V20.0667C16.3333 19.8529 16.2799 19.6584 16.1729 19.4834C16.066 19.3084 15.925 19.1723 15.75 19.0751C14.7 18.5501 13.6403 18.1563 12.5708 17.8938C11.5014 17.6313 10.4222 17.5001 9.33333 17.5001C8.24444 17.5001 7.16528 17.6313 6.09583 17.8938C5.02639 18.1563 3.96667 18.5501 2.91667 19.0751C2.74167 19.1723 2.60069 19.3084 2.49375 19.4834C2.38681 19.6584 2.33333 19.8529 2.33333 20.0667V21.0001Z" fill="black"/>
</svg>
