<svg width="16" height="16" viewBox="0 0 16 16" fill="none" xmlns="http://www.w3.org/2000/svg">
<path d="M4.00001 7C3.7693 7 3.54377 6.93159 3.35194 6.80341C3.16011 6.67523 3.01059 6.49305 2.9223 6.2799C2.83401 6.06675 2.81091 5.83221 2.85592 5.60593C2.90093 5.37965 3.01203 5.1718 3.17517 5.00866C3.33831 4.84552 3.54616 4.73442 3.77243 4.68941C3.99871 4.64441 4.23326 4.66751 4.44641 4.7558C4.65956 4.84408 4.84174 4.9936 4.96992 5.18543C5.09809 5.37726 5.16651 5.60279 5.16651 5.8335C5.16657 5.98671 5.13645 6.13842 5.07785 6.27998C5.01925 6.42153 4.93333 6.55016 4.82499 6.65849C4.71666 6.76682 4.58804 6.85274 4.44649 6.91134C4.30493 6.96994 4.15321 7.00007 4.00001 7Z" fill="black"/>
<path d="M12 7C11.7693 7 11.5438 6.93159 11.3519 6.80341C11.1601 6.67523 11.0106 6.49305 10.9223 6.2799C10.834 6.06675 10.8109 5.83221 10.8559 5.60593C10.9009 5.37965 11.012 5.1718 11.1752 5.00866C11.3383 4.84552 11.5462 4.73442 11.7724 4.68941C11.9987 4.64441 12.2333 4.66751 12.4464 4.7558C12.6596 4.84408 12.8417 4.9936 12.9699 5.18543C13.0981 5.37726 13.1665 5.60279 13.1665 5.8335C13.1666 5.98671 13.1364 6.13842 13.0778 6.27998C13.0192 6.42153 12.9333 6.55016 12.825 6.65849C12.7167 6.76682 12.588 6.85274 12.4465 6.91134C12.3049 6.96994 12.1532 7.00007 12 7Z" fill="black"/>
<path d="M12.6665 8H11.5215C11.7767 8.23248 11.9807 8.51559 12.1204 8.83127C12.2601 9.14695 12.3325 9.48828 12.333 9.8335V12H13.4165C13.5807 12 13.7432 11.9677 13.8949 11.9049C14.0465 11.842 14.1843 11.75 14.3004 11.6339C14.4165 11.5178 14.5085 11.38 14.5714 11.2284C14.6342 11.0767 14.6665 10.9142 14.6665 10.75V10C14.6665 9.46957 14.4558 8.96086 14.0807 8.58579C13.7056 8.21072 13.1969 8 12.6665 8Z" fill="black"/>
<path d="M8.00001 7C7.60445 7 7.21777 6.8827 6.88887 6.66294C6.55997 6.44318 6.30362 6.13082 6.15225 5.76537C6.00087 5.39992 5.96127 4.99778 6.03844 4.60982C6.11561 4.22186 6.30609 3.86549 6.58579 3.58579C6.8655 3.30608 7.22187 3.1156 7.60983 3.03843C7.99779 2.96126 8.39992 3.00087 8.76537 3.15224C9.13083 3.30362 9.44318 3.55996 9.66295 3.88886C9.88271 4.21776 10 4.60444 10 5C10 5.53043 9.78929 6.03914 9.41422 6.41421C9.03915 6.78929 8.53044 7 8.00001 7Z" fill="black"/>
<path d="M9.83351 13H6.16701C5.76918 13 5.38765 12.842 5.10635 12.5607C4.82504 12.2794 4.66701 11.8978 4.66701 11.5V10.4165C4.66701 9.68716 4.95674 8.98768 5.47246 8.47196C5.98819 7.95623 6.68766 7.6665 7.41701 7.6665H8.58351C9.31285 7.6665 10.0123 7.95623 10.5281 8.47196C11.0438 8.98768 11.3335 9.68716 11.3335 10.4165V11.5C11.3335 11.8978 11.1755 12.2794 10.8942 12.5607C10.6129 12.842 10.2313 13 9.83351 13Z" fill="black"/>
<path d="M3.66651 9.8335C3.66709 9.48825 3.73959 9.14691 3.8794 8.83123C4.0192 8.51555 4.22324 8.23246 4.47851 8H3.33301C2.80257 8 2.29387 8.21072 1.91879 8.58579C1.54372 8.96086 1.33301 9.46957 1.33301 10V10.75C1.33301 10.9142 1.36534 11.0767 1.42816 11.2284C1.49098 11.38 1.58305 11.5178 1.69912 11.6339C1.8152 11.75 1.953 11.842 2.10465 11.9049C2.25631 11.9677 2.41886 12 2.58301 12H3.66651V9.8335Z" fill="black"/>
</svg>
