<svg width="28" height="28" viewBox="0 0 28 28" fill="none" xmlns="http://www.w3.org/2000/svg">
<path d="M1.16667 21C0.836111 21 0.559222 20.888 0.336 20.664C0.112 20.4408 0 20.1639 0 19.8333V19.1625C0 18.3069 0.427778 17.6213 1.28333 17.1057C2.13889 16.5908 3.26667 16.3333 4.66667 16.3333C4.91944 16.3333 5.15783 16.3431 5.38183 16.3625C5.60506 16.3819 5.82361 16.4111 6.0375 16.45C5.76528 16.8389 5.56578 17.2569 5.439 17.7042C5.313 18.1514 5.25 18.6278 5.25 19.1333V21H1.16667ZM8.16667 21C7.83611 21 7.55883 20.888 7.33483 20.664C7.11161 20.4408 7 20.1639 7 19.8333V19.1333C7 17.8694 7.64672 16.8436 8.94017 16.0557C10.2328 15.2686 11.9194 14.875 14 14.875C16.1 14.875 17.7917 15.2686 19.075 16.0557C20.3583 16.8436 21 17.8694 21 19.1333V19.8333C21 20.1639 20.888 20.4408 20.664 20.664C20.4408 20.888 20.1639 21 19.8333 21H8.16667ZM22.75 21V19.1333C22.75 18.6278 22.6819 18.1514 22.5458 17.7042C22.4097 17.2569 22.2153 16.8389 21.9625 16.45C22.1764 16.4111 22.3953 16.3819 22.6193 16.3625C22.8426 16.3431 23.0806 16.3333 23.3333 16.3333C24.7333 16.3333 25.8611 16.5908 26.7167 17.1057C27.5722 17.6213 28 18.3069 28 19.1625V19.8333C28 20.1639 27.888 20.4408 27.664 20.664C27.4408 20.888 27.1639 21 26.8333 21H22.75ZM14 17.2083C12.8917 17.2083 11.9 17.3588 11.025 17.6598C10.15 17.9616 9.63472 18.2972 9.47917 18.6667H18.5208C18.3458 18.2778 17.8259 17.9375 16.961 17.6458C16.0953 17.3542 15.1083 17.2083 14 17.2083ZM4.66667 15.1667C4.025 15.1667 3.47589 14.938 3.01933 14.4807C2.562 14.0241 2.33333 13.475 2.33333 12.8333C2.33333 12.1917 2.562 11.6422 3.01933 11.1848C3.47589 10.7283 4.025 10.5 4.66667 10.5C5.30833 10.5 5.85744 10.7283 6.314 11.1848C6.77133 11.6422 7 12.1917 7 12.8333C7 13.475 6.77133 14.0241 6.314 14.4807C5.85744 14.938 5.30833 15.1667 4.66667 15.1667ZM23.3333 15.1667C22.6917 15.1667 22.1422 14.938 21.6848 14.4807C21.2283 14.0241 21 13.475 21 12.8333C21 12.1917 21.2283 11.6422 21.6848 11.1848C22.1422 10.7283 22.6917 10.5 23.3333 10.5C23.975 10.5 24.5245 10.7283 24.9818 11.1848C25.4384 11.6422 25.6667 12.1917 25.6667 12.8333C25.6667 13.475 25.4384 14.0241 24.9818 14.4807C24.5245 14.938 23.975 15.1667 23.3333 15.1667ZM14 14C13.0278 14 12.2014 13.6597 11.5208 12.9792C10.8403 12.2986 10.5 11.4722 10.5 10.5C10.5 9.52778 10.8403 8.70139 11.5208 8.02083C12.2014 7.34028 13.0278 7 14 7C14.9722 7 15.7986 7.34028 16.4792 8.02083C17.1597 8.70139 17.5 9.52778 17.5 10.5C17.5 11.4722 17.1597 12.2986 16.4792 12.9792C15.7986 13.6597 14.9722 14 14 14ZM14 9.33333C13.6694 9.33333 13.3926 9.44494 13.1693 9.66817C12.9453 9.89217 12.8333 10.1694 12.8333 10.5C12.8333 10.8306 12.9453 11.1074 13.1693 11.3307C13.3926 11.5547 13.6694 11.6667 14 11.6667C14.3306 11.6667 14.6078 11.5547 14.8318 11.3307C15.0551 11.1074 15.1667 10.8306 15.1667 10.5C15.1667 10.1694 15.0551 9.89217 14.8318 9.66817C14.6078 9.44494 14.3306 9.33333 14 9.33333Z" fill="black"/>
</svg>
