<svg width="16" height="16" viewBox="0 0 16 16" fill="none" xmlns="http://www.w3.org/2000/svg">
<path d="M0.666667 12C0.477778 12 0.319556 11.936 0.192 11.808C0.064 11.6804 0 11.5222 0 11.3333V10.95C0 10.4611 0.244444 10.0693 0.733333 9.77467C1.22222 9.48044 1.86667 9.33333 2.66667 9.33333C2.81111 9.33333 2.94733 9.33889 3.07533 9.35C3.20289 9.36111 3.32778 9.37778 3.45 9.4C3.29444 9.62222 3.18044 9.86111 3.108 10.1167C3.036 10.3722 3 10.6444 3 10.9333V12H0.666667ZM4.66667 12C4.47778 12 4.31933 11.936 4.19133 11.808C4.06378 11.6804 4 11.5222 4 11.3333V10.9333C4 10.2111 4.36956 9.62489 5.10867 9.17467C5.84733 8.72489 6.81111 8.5 8 8.5C9.2 8.5 10.1667 8.72489 10.9 9.17467C11.6333 9.62489 12 10.2111 12 10.9333V11.3333C12 11.5222 11.936 11.6804 11.808 11.808C11.6804 11.936 11.5222 12 11.3333 12H4.66667ZM13 12V10.9333C13 10.6444 12.9611 10.3722 12.8833 10.1167C12.8056 9.86111 12.6944 9.62222 12.55 9.4C12.6722 9.37778 12.7973 9.36111 12.9253 9.35C13.0529 9.33889 13.1889 9.33333 13.3333 9.33333C14.1333 9.33333 14.7778 9.48044 15.2667 9.77467C15.7556 10.0693 16 10.4611 16 10.95V11.3333C16 11.5222 15.936 11.6804 15.808 11.808C15.6804 11.936 15.5222 12 15.3333 12H13ZM8 9.83333C7.36667 9.83333 6.8 9.91933 6.3 10.0913C5.8 10.2638 5.50556 10.4556 5.41667 10.6667H10.5833C10.4833 10.4444 10.1862 10.25 9.692 10.0833C9.19733 9.91667 8.63333 9.83333 8 9.83333ZM2.66667 8.66667C2.3 8.66667 1.98622 8.536 1.72533 8.27467C1.464 8.01378 1.33333 7.7 1.33333 7.33333C1.33333 6.96667 1.464 6.65267 1.72533 6.39133C1.98622 6.13044 2.3 6 2.66667 6C3.03333 6 3.34711 6.13044 3.608 6.39133C3.86933 6.65267 4 6.96667 4 7.33333C4 7.7 3.86933 8.01378 3.608 8.27467C3.34711 8.536 3.03333 8.66667 2.66667 8.66667ZM13.3333 8.66667C12.9667 8.66667 12.6527 8.536 12.3913 8.27467C12.1304 8.01378 12 7.7 12 7.33333C12 6.96667 12.1304 6.65267 12.3913 6.39133C12.6527 6.13044 12.9667 6 13.3333 6C13.7 6 14.014 6.13044 14.2753 6.39133C14.5362 6.65267 14.6667 6.96667 14.6667 7.33333C14.6667 7.7 14.5362 8.01378 14.2753 8.27467C14.014 8.536 13.7 8.66667 13.3333 8.66667ZM8 8C7.44444 8 6.97222 7.80556 6.58333 7.41667C6.19444 7.02778 6 6.55556 6 6C6 5.44444 6.19444 4.97222 6.58333 4.58333C6.97222 4.19444 7.44444 4 8 4C8.55556 4 9.02778 4.19444 9.41667 4.58333C9.80556 4.97222 10 5.44444 10 6C10 6.55556 9.80556 7.02778 9.41667 7.41667C9.02778 7.80556 8.55556 8 8 8ZM8 5.33333C7.81111 5.33333 7.65289 5.39711 7.52533 5.52467C7.39733 5.65267 7.33333 5.81111 7.33333 6C7.33333 6.18889 7.39733 6.34711 7.52533 6.47467C7.65289 6.60267 7.81111 6.66667 8 6.66667C8.18889 6.66667 8.34733 6.60267 8.47533 6.47467C8.60289 6.34711 8.66667 6.18889 8.66667 6C8.66667 5.81111 8.60289 5.65267 8.47533 5.52467C8.34733 5.39711 8.18889 5.33333 8 5.33333Z" fill="black"/>
</svg>
