<svg width="16" height="16" viewBox="0 0 16 16" fill="none" xmlns="http://www.w3.org/2000/svg">
<path d="M13.9661 11.9999C13.9894 11.8903 14.001 11.7786 14.0013 11.6666V10.6666C13.9969 10.3024 13.9118 9.94346 13.7526 9.61581C13.5934 9.28816 13.3643 9.00001 13.0807 8.77141C14.4221 9.00408 16.0013 9.63793 16.0013 10.6666V11.6666C16.002 11.7106 15.9944 11.7541 15.9779 11.7948C15.9614 11.8356 15.936 11.8731 15.9049 11.9042C15.8738 11.9353 15.8376 11.9593 15.7969 11.9758C15.7561 11.9923 15.7119 12.0006 15.668 11.9999H13.9661ZM5.33333 11.9999C5.15652 11.9999 4.987 11.9296 4.86198 11.8046C4.73695 11.6796 4.66667 11.5101 4.66667 11.3333V10.6666C4.66667 9.33326 7.33333 8.66659 8.66667 8.66659C10 8.66659 12.6667 9.33326 12.6667 10.6666V11.3333C12.6667 11.5101 12.5964 11.6796 12.4714 11.8046C12.3463 11.9296 12.1768 11.9999 12 11.9999H5.33333ZM2.66667 8.71477V7.99993H0.666667C0.490179 7.99888 0.321412 7.92811 0.196615 7.80331C0.0718171 7.67851 0.00104951 7.50975 0 7.33326C0 7.15645 0.0702882 6.98693 0.195312 6.8619C0.320337 6.73688 0.489856 6.66659 0.666667 6.66659H2.66667V5.955C2.66645 5.84964 2.69691 5.74654 2.75521 5.65878C2.81351 5.57102 2.89759 5.50282 2.99479 5.46217C3.092 5.42151 3.19866 5.41078 3.30208 5.43092C3.4055 5.45105 3.50067 5.5013 3.57552 5.57545L4.95573 6.955C5.05567 7.05501 5.11198 7.19057 5.11198 7.33196C5.11198 7.47334 5.05567 7.60955 4.95573 7.70956L3.57552 9.08912C3.52736 9.13893 3.47005 9.17862 3.40625 9.20565C3.34245 9.23269 3.27371 9.24672 3.20443 9.24667C3.13405 9.2472 3.06387 9.23352 2.9987 9.20696C2.93353 9.18039 2.87417 9.1413 2.82422 9.09172C2.77427 9.04214 2.73408 8.98351 2.70703 8.91855C2.67998 8.85358 2.66666 8.78384 2.66667 8.71347V8.71477ZM11.3945 7.24276C11.7838 6.68255 11.9934 6.01677 11.9948 5.33456C11.9974 4.65195 11.7875 3.98518 11.3945 3.42701C11.5908 3.36532 11.7956 3.33449 12.0013 3.33521C12.2636 3.33503 12.5233 3.38701 12.7656 3.48756C13.0079 3.5881 13.2276 3.73529 13.4128 3.92115C13.5979 4.10701 13.7442 4.32755 13.8437 4.57024C13.9433 4.81292 13.9947 5.0729 13.9935 5.33521C13.9944 5.59743 13.9434 5.85701 13.8437 6.09953C13.7441 6.34206 13.5978 6.56284 13.4128 6.74862C13.2277 6.93441 13.0077 7.08155 12.7656 7.18222C12.5235 7.28289 12.2635 7.33504 12.0013 7.33521C11.7959 7.33515 11.5916 7.30369 11.3958 7.24146L11.3945 7.24276ZM6.66667 5.33326C6.66596 5.07042 6.71745 4.80995 6.81771 4.56698C6.91797 4.32401 7.06544 4.1031 7.2513 3.91724C7.43716 3.73139 7.65807 3.58456 7.90104 3.4843C8.14401 3.38404 8.40383 3.33256 8.66667 3.33326C8.92915 3.33273 9.18977 3.3839 9.43229 3.4843C9.67481 3.5847 9.89414 3.73263 10.0794 3.91855C10.2647 4.10446 10.4121 4.32478 10.5117 4.56763C10.6113 4.81049 10.6616 5.07078 10.6602 5.33326C10.6613 5.59566 10.6101 5.8555 10.5104 6.09823C10.4107 6.34096 10.2647 6.56211 10.0794 6.74797C9.89419 6.93383 9.67339 7.08107 9.43099 7.18157C9.18859 7.28206 8.92907 7.33352 8.66667 7.33326C8.13623 7.33326 7.62768 7.12239 7.2526 6.74732C6.87753 6.37225 6.66667 5.86369 6.66667 5.33326Z" fill="black"/>
</svg>
