<svg width="24" height="24" viewBox="0 0 24 24" fill="none" xmlns="http://www.w3.org/2000/svg">
<path d="M9 15.5C9 14.3954 9.89543 13.5 11 13.5H13C14.1046 13.5 15 14.3954 15 15.5V17.5H9V15.5ZM9.45951 11.8074C8.01508 12.4107 7 13.8368 7 15.5V17.5C7 18.6046 7.89543 19.5 9 19.5H15C16.1046 19.5 17 18.6046 17 17.5V15.5C17 13.8368 15.9849 12.4107 14.5405 11.8074C14.0664 11.6094 13.5459 11.5 13 11.5H11C10.4541 11.5 9.93365 11.6094 9.45951 11.8074ZM9.86471 9.60726C10.1804 9.92712 10.5674 10.1764 11 10.3293C11.3128 10.4398 11.6494 10.5 12 10.5C12.3506 10.5 12.6872 10.4398 13 10.3293C13.4326 10.1764 13.8196 9.92712 14.1353 9.60726C14.67 9.06551 15 8.3213 15 7.5C15 5.84315 13.6569 4.5 12 4.5C10.3431 4.5 9 5.84315 9 7.5C9 8.3213 9.33003 9.06551 9.86471 9.60726ZM12 8.5C11.4477 8.5 11 8.05228 11 7.5C11 6.94772 11.4477 6.5 12 6.5C12.5523 6.5 13 6.94772 13 7.5C13 8.05228 12.5523 8.5 12 8.5Z" fill="black"/>
<path d="M22 16.5C22 17.3284 21.3284 18 20.5 18H18.5V15.5711C18.5 14.245 17.9732 12.9732 17.0355 12.0355L17 12H19C20.6569 12 22 13.3431 22 15V16.5Z" fill="black"/>
<path d="M16.25 8.75C16.25 9.7165 17.0335 10.5 18 10.5C18.9665 10.5 19.75 9.7165 19.75 8.75C19.75 7.7835 18.9665 7 18 7C17.0335 7 16.25 7.7835 16.25 8.75Z" fill="black"/>
<path d="M2 16.5C2 17.3284 2.67157 18 3.5 18H5.5V15.5711C5.5 14.245 6.02678 12.9732 6.96447 12.0355L7 12H5C3.34315 12 2 13.3431 2 15V16.5Z" fill="black"/>
<path d="M4.25 8.75C4.25 9.7165 5.0335 10.5 6 10.5C6.9665 10.5 7.75 9.7165 7.75 8.75C7.75 7.7835 6.9665 7 6 7C5.0335 7 4.25 7.7835 4.25 8.75Z" fill="black"/>
</svg>
