<svg width="16" height="16" viewBox="0 0 16 16" fill="none" xmlns="http://www.w3.org/2000/svg">
<path d="M5.99998 10.3333C5.99998 9.59695 6.59693 9 7.33331 9H8.66665C9.40303 9 9.99998 9.59695 9.99998 10.3333V11.6667H5.99998V10.3333ZM6.30632 7.87161C5.34336 8.2738 4.66665 9.22454 4.66665 10.3333V11.6667C4.66665 12.403 5.2636 13 5.99998 13H9.99998C10.7364 13 11.3333 12.403 11.3333 11.6667V10.3333C11.3333 9.22454 10.6566 8.2738 9.69364 7.87161C9.37755 7.73958 9.03061 7.66667 8.66665 7.66667H7.33331C6.96935 7.66667 6.62241 7.73958 6.30632 7.87161ZM6.57645 6.40484C6.78691 6.61808 7.04494 6.78427 7.33331 6.8862C7.54183 6.9599 7.76622 7 7.99998 7C8.23374 7 8.45813 6.9599 8.66665 6.8862C8.95502 6.78427 9.21304 6.61808 9.4235 6.40484C9.77996 6.04367 9.99998 5.54753 9.99998 5C9.99998 3.89543 9.10455 3 7.99998 3C6.89541 3 5.99998 3.89543 5.99998 5C5.99998 5.54753 6.22 6.04367 6.57645 6.40484ZM7.99998 5.66667C7.63179 5.66667 7.33331 5.36819 7.33331 5C7.33331 4.63181 7.63179 4.33333 7.99998 4.33333C8.36817 4.33333 8.66665 4.63181 8.66665 5C8.66665 5.36819 8.36817 5.66667 7.99998 5.66667Z" fill="black"/>
<path d="M14.6666 11C14.6666 11.5523 14.2189 12 13.6666 12H12.3333V10.3807C12.3333 9.49666 11.9821 8.64881 11.357 8.02369L11.3333 8H12.6666C13.7712 8 14.6666 8.89543 14.6666 10V11Z" fill="black"/>
<path d="M10.8333 5.83333C10.8333 6.47767 11.3556 7 12 7C12.6443 7 13.1666 6.47767 13.1666 5.83333C13.1666 5.189 12.6443 4.66667 12 4.66667C11.3556 4.66667 10.8333 5.189 10.8333 5.83333Z" fill="black"/>
<path d="M1.33331 11C1.33331 11.5523 1.78103 12 2.33331 12H3.66665V10.3807C3.66665 9.49666 4.01784 8.64881 4.64296 8.02369L4.66665 8H3.33331C2.22874 8 1.33331 8.89543 1.33331 10V11Z" fill="black"/>
<path d="M2.83331 5.83333C2.83331 6.47767 3.35565 7 3.99998 7C4.64431 7 5.16665 6.47767 5.16665 5.83333C5.16665 5.189 4.64431 4.66667 3.99998 4.66667C3.35565 4.66667 2.83331 5.189 2.83331 5.83333Z" fill="black"/>
</svg>
