<svg width="24" height="24" viewBox="0 0 24 24" fill="none" xmlns="http://www.w3.org/2000/svg">
<path d="M1 18C0.716667 18 0.479333 17.904 0.288 17.712C0.096 17.5207 0 17.2833 0 17V16.425C0 15.6917 0.366667 15.104 1.1 14.662C1.83333 14.2207 2.8 14 4 14C4.21667 14 4.421 14.0083 4.613 14.025C4.80433 14.0417 4.99167 14.0667 5.175 14.1C4.94167 14.4333 4.77067 14.7917 4.662 15.175C4.554 15.5583 4.5 15.9667 4.5 16.4V18H1ZM7 18C6.71667 18 6.479 17.904 6.287 17.712C6.09567 17.5207 6 17.2833 6 17V16.4C6 15.3167 6.55433 14.4373 7.663 13.762C8.771 13.0873 10.2167 12.75 12 12.75C13.8 12.75 15.25 13.0873 16.35 13.762C17.45 14.4373 18 15.3167 18 16.4V17C18 17.2833 17.904 17.5207 17.712 17.712C17.5207 17.904 17.2833 18 17 18H7ZM19.5 18V16.4C19.5 15.9667 19.4417 15.5583 19.325 15.175C19.2083 14.7917 19.0417 14.4333 18.825 14.1C19.0083 14.0667 19.196 14.0417 19.388 14.025C19.5793 14.0083 19.7833 14 20 14C21.2 14 22.1667 14.2207 22.9 14.662C23.6333 15.104 24 15.6917 24 16.425V17C24 17.2833 23.904 17.5207 23.712 17.712C23.5207 17.904 23.2833 18 23 18H19.5ZM12 14.75C11.05 14.75 10.2 14.879 9.45 15.137C8.7 15.3957 8.25833 15.6833 8.125 16H15.875C15.725 15.6667 15.2793 15.375 14.538 15.125C13.796 14.875 12.95 14.75 12 14.75ZM4 13C3.45 13 2.97933 12.804 2.588 12.412C2.196 12.0207 2 11.55 2 11C2 10.45 2.196 9.979 2.588 9.587C2.97933 9.19567 3.45 9 4 9C4.55 9 5.02067 9.19567 5.412 9.587C5.804 9.979 6 10.45 6 11C6 11.55 5.804 12.0207 5.412 12.412C5.02067 12.804 4.55 13 4 13ZM20 13C19.45 13 18.979 12.804 18.587 12.412C18.1957 12.0207 18 11.55 18 11C18 10.45 18.1957 9.979 18.587 9.587C18.979 9.19567 19.45 9 20 9C20.55 9 21.021 9.19567 21.413 9.587C21.8043 9.979 22 10.45 22 11C22 11.55 21.8043 12.0207 21.413 12.412C21.021 12.804 20.55 13 20 13ZM12 12C11.1667 12 10.4583 11.7083 9.875 11.125C9.29167 10.5417 9 9.83333 9 9C9 8.16667 9.29167 7.45833 9.875 6.875C10.4583 6.29167 11.1667 6 12 6C12.8333 6 13.5417 6.29167 14.125 6.875C14.7083 7.45833 15 8.16667 15 9C15 9.83333 14.7083 10.5417 14.125 11.125C13.5417 11.7083 12.8333 12 12 12ZM12 8C11.7167 8 11.4793 8.09567 11.288 8.287C11.096 8.479 11 8.71667 11 9C11 9.28333 11.096 9.52067 11.288 9.712C11.4793 9.904 11.7167 10 12 10C12.2833 10 12.521 9.904 12.713 9.712C12.9043 9.52067 13 9.28333 13 9C13 8.71667 12.9043 8.479 12.713 8.287C12.521 8.09567 12.2833 8 12 8Z" fill="black"/>
</svg>
