<svg width="28" height="28" viewBox="0 0 28 28" fill="none" xmlns="http://www.w3.org/2000/svg">
<path d="M14 7C14.3461 7 14.6845 7.10264 14.9722 7.29493C15.26 7.48722 15.4843 7.76053 15.6168 8.0803C15.7492 8.40007 15.7839 8.75194 15.7164 9.09141C15.6488 9.43087 15.4822 9.74269 15.2374 9.98744C14.9927 10.2322 14.6809 10.3989 14.3414 10.4664C14.0019 10.5339 13.6501 10.4992 13.3303 10.3668C13.0105 10.2343 12.7372 10.01 12.5449 9.72225C12.3526 9.43446 12.25 9.09612 12.25 8.75C12.25 8.28587 12.4344 7.84075 12.7626 7.51256C13.0907 7.18437 13.5359 7 14 7ZM14 5.25C13.3078 5.25 12.6311 5.45527 12.0555 5.83986C11.4799 6.22444 11.0313 6.77107 10.7664 7.41061C10.5015 8.05015 10.4322 8.75388 10.5672 9.43282C10.7023 10.1117 11.0356 10.7354 11.5251 11.2249C12.0146 11.7144 12.6382 12.0477 13.3172 12.1827C13.9961 12.3178 14.6998 12.2485 15.3394 11.9836C15.9789 11.7187 16.5256 11.2701 16.9101 10.6945C17.2947 10.1189 17.5 9.44223 17.5 8.75C17.5 7.82174 17.1312 6.9315 16.4749 6.27513C15.8185 5.61875 14.9283 5.25 14 5.25Z" fill="black"/>
<path d="M15.0202 15.1664C15.8325 15.1664 16.6114 15.489 17.1858 16.0634C17.7601 16.6377 18.0827 17.4166 18.0827 18.2289V20.125C18.0827 20.3571 17.9906 20.5796 17.8265 20.7437C17.6624 20.9078 17.4398 21 17.2077 21H10.7914C10.5593 21 10.3367 20.9078 10.1727 20.7437C10.0086 20.5796 9.91637 20.3571 9.91637 20.125V18.2289C9.91637 17.4166 10.239 16.6377 10.8134 16.0634C11.3877 15.489 12.1666 15.1664 12.9789 15.1664H15.0202ZM15.0202 13.4164H12.9789C11.7025 13.4164 10.4784 13.9234 9.57592 14.8259C8.6734 15.7284 8.16637 16.9525 8.16637 18.2289V20.125C8.16637 20.8212 8.44293 21.4889 8.93521 21.9812C9.4275 22.4734 10.0952 22.75 10.7914 22.75H17.2077C17.9039 22.75 18.5716 22.4734 19.0639 21.9812C19.5562 21.4889 19.8327 20.8212 19.8327 20.125V18.2289C19.8327 16.9525 19.3257 15.7284 18.4232 14.8259C17.5207 13.9234 16.2966 13.4164 15.0202 13.4164Z" fill="black"/>
<path d="M23.4789 21H22.1664C21.9343 21 21.7117 20.9078 21.5476 20.7437C21.3836 20.5796 21.2914 20.3571 21.2914 20.125C21.2914 19.8929 21.3836 19.6704 21.5476 19.5063C21.7117 19.3422 21.9343 19.25 22.1664 19.25H23.4789C23.5949 19.25 23.7062 19.2039 23.7882 19.1219C23.8703 19.0398 23.9164 18.9285 23.9164 18.8125V17.5C23.9164 17.0359 23.732 16.5908 23.4038 16.2626C23.0756 15.9344 22.6305 15.75 22.1664 15.75H21.2914C21.0593 15.75 20.8367 15.6578 20.6726 15.4937C20.5086 15.3296 20.4164 15.1071 20.4164 14.875C20.4164 14.6429 20.5086 14.4204 20.6726 14.2563C20.8367 14.0922 21.0593 14 21.2914 14H22.1664C23.0946 14 23.9849 14.3687 24.6412 15.0251C25.2976 15.6815 25.6664 16.5717 25.6664 17.5V18.8125C25.6664 19.0998 25.6098 19.3842 25.4999 19.6496C25.3899 19.915 25.2288 20.1562 25.0257 20.3593C24.8225 20.5624 24.5814 20.7236 24.316 20.8335C24.0506 20.9434 23.7661 21 23.4789 21Z" fill="black"/>
<path d="M5.83362 21H4.52112C4.23385 21 3.9494 20.9434 3.684 20.8335C3.4186 20.7236 3.17745 20.5624 2.97432 20.3593C2.77119 20.1562 2.61006 19.915 2.50013 19.6496C2.3902 19.3842 2.33362 19.0998 2.33362 18.8125V17.5C2.33362 16.5717 2.70237 15.6815 3.35874 15.0251C4.01512 14.3687 4.90536 14 5.83362 14H6.70862C6.94068 14 7.16324 14.0922 7.32734 14.2563C7.49143 14.4204 7.58362 14.6429 7.58362 14.875C7.58362 15.1071 7.49143 15.3296 7.32734 15.4937C7.16324 15.6578 6.94068 15.75 6.70862 15.75H5.83362C5.36949 15.75 4.92437 15.9344 4.59618 16.2626C4.26799 16.5908 4.08362 17.0359 4.08362 17.5V18.8125C4.08362 18.9285 4.12971 19.0398 4.21176 19.1219C4.29381 19.2039 4.40509 19.25 4.52112 19.25H5.83362C6.06568 19.25 6.28824 19.3422 6.45234 19.5063C6.61643 19.6704 6.70862 19.8929 6.70862 20.125C6.70862 20.3571 6.61643 20.5796 6.45234 20.7437C6.28824 20.9078 6.06568 21 5.83362 21Z" fill="black"/>
<path d="M6.99999 12.25C6.65388 12.25 6.31553 12.1474 6.02775 11.9551C5.73996 11.7628 5.51566 11.4895 5.3832 11.1697C5.25075 10.8499 5.21609 10.4981 5.28362 10.1586C5.35114 9.81913 5.51781 9.50731 5.76256 9.26256C6.0073 9.01782 6.31912 8.85115 6.65859 8.78363C6.99805 8.7161 7.34992 8.75076 7.66969 8.88321C7.98946 9.01566 8.26277 9.23997 8.45507 9.52775C8.64736 9.81554 8.74999 10.1539 8.74999 10.5C8.74999 10.9641 8.56562 11.4092 8.23743 11.7374C7.90924 12.0656 7.46412 12.25 6.99999 12.25Z" fill="black"/>
<path d="M21 12.25C20.6539 12.25 20.3155 12.1474 20.0277 11.9551C19.74 11.7628 19.5157 11.4895 19.3832 11.1697C19.2507 10.8499 19.2161 10.4981 19.2836 10.1586C19.3511 9.81913 19.5178 9.50731 19.7626 9.26256C20.0073 9.01782 20.3191 8.85115 20.6586 8.78363C20.9981 8.7161 21.3499 8.75076 21.6697 8.88321C21.9895 9.01566 22.2628 9.23997 22.4551 9.52775C22.6474 9.81554 22.75 10.1539 22.75 10.5C22.75 10.9641 22.5656 11.4092 22.2374 11.7374C21.9092 12.0656 21.4641 12.25 21 12.25Z" fill="black"/>
</svg>
