<svg width="28" height="28" viewBox="0 0 28 28" fill="none" xmlns="http://www.w3.org/2000/svg">
<g clip-path="url(#clip0_675_15304)">
<path d="M24.4408 20.9999C24.4814 20.8081 24.5018 20.6127 24.5023 20.4166V18.6666C24.4946 18.0292 24.3456 17.4011 24.0671 16.8277C23.7885 16.2543 23.3876 15.7501 22.8913 15.35C25.2386 15.7572 28.0023 16.8664 28.0023 18.6666V20.4166C28.0035 20.4935 27.9901 20.5697 27.9613 20.641C27.9324 20.7124 27.8881 20.778 27.8337 20.8324C27.7792 20.8869 27.7159 20.9289 27.6445 20.9578C27.5732 20.9866 27.4959 21.0012 27.4189 20.9999H24.4408ZM9.33333 20.9999C9.02391 20.9999 8.72726 20.8769 8.50846 20.6581C8.28967 20.4393 8.16667 20.1427 8.16667 19.8333V18.6666C8.16667 16.3333 12.8333 15.1666 15.1667 15.1666C17.5 15.1666 22.1667 16.3333 22.1667 18.6666V19.8333C22.1667 20.1427 22.0437 20.4393 21.8249 20.6581C21.6061 20.8769 21.3094 20.9999 21 20.9999H9.33333ZM4.66667 15.2509V13.9999H1.16667C0.857814 13.9981 0.562471 13.8743 0.344076 13.6559C0.12568 13.4375 0.00183663 13.1421 0 12.8333C0 12.5238 0.123004 12.2272 0.341797 12.0084C0.560589 11.7896 0.857247 11.6666 1.16667 11.6666H4.66667V10.4213C4.66629 10.2369 4.71959 10.0565 4.82161 9.90293C4.92363 9.74934 5.07078 9.62999 5.24089 9.55885C5.41099 9.48771 5.59766 9.46893 5.77865 9.50416C5.95963 9.5394 6.12617 9.62733 6.25716 9.75709L8.67253 12.1713C8.84743 12.3463 8.94596 12.5836 8.94596 12.831C8.94596 13.0784 8.84743 13.3168 8.67253 13.4918L6.25716 15.906C6.17288 15.9932 6.07258 16.0627 5.96094 16.11C5.84929 16.1573 5.729 16.1818 5.60775 16.1817C5.48459 16.1827 5.36177 16.1587 5.24772 16.1122C5.13367 16.0657 5.02979 15.9973 4.94238 15.9106C4.85497 15.8238 4.78465 15.7212 4.7373 15.6075C4.68996 15.4938 4.66666 15.3718 4.66667 15.2486V15.2509ZM19.9404 12.6749C20.6217 11.6945 20.9885 10.5294 20.9909 9.33554C20.9955 8.14097 20.6281 6.97413 19.9404 5.99733C20.2839 5.88937 20.6422 5.83542 21.0023 5.83668C21.4613 5.83637 21.9158 5.92733 22.3398 6.10328C22.7638 6.27924 23.1484 6.53682 23.4723 6.86207C23.7963 7.18732 24.0523 7.57328 24.2266 7.99798C24.4008 8.42268 24.4908 8.87763 24.4886 9.33668C24.4901 9.79556 24.401 10.2498 24.2266 10.6742C24.0521 11.0987 23.7962 11.485 23.4723 11.8102C23.1485 12.1353 22.7636 12.3928 22.3398 12.5689C21.9161 12.7451 21.4612 12.8364 21.0023 12.8367C20.6428 12.8366 20.2853 12.7815 19.9427 12.6726L19.9404 12.6749ZM11.6667 9.33326C11.6654 8.87329 11.7555 8.41748 11.931 7.99228C12.1064 7.56709 12.3645 7.18049 12.6898 6.85524C13.015 6.52999 13.4016 6.27304 13.8268 6.09759C14.252 5.92213 14.7067 5.83203 15.1667 5.83326C15.626 5.83233 16.0821 5.92188 16.5065 6.09759C16.9309 6.27329 17.3147 6.53217 17.639 6.85752C17.9633 7.18286 18.2212 7.56843 18.3955 7.99342C18.5698 8.41841 18.6577 8.87393 18.6553 9.33326C18.6573 9.79247 18.5677 10.2472 18.3932 10.672C18.2188 11.0967 17.9632 11.4838 17.639 11.809C17.3148 12.1343 16.9284 12.3919 16.5042 12.5678C16.08 12.7437 15.6259 12.8337 15.1667 12.8333C14.2384 12.8333 13.3484 12.4643 12.6921 11.8079C12.0357 11.1515 11.6667 10.2615 11.6667 9.33326Z" fill="black"/>
</g>
<defs>
<clipPath id="clip0_675_15304">
<rect width="28" height="28" fill="white"/>
</clipPath>
</defs>
</svg>
