<svg width="24" height="24" viewBox="0 0 24 24" fill="none" xmlns="http://www.w3.org/2000/svg">
<path d="M12.5 11.95C12.9833 11.4167 13.3542 10.8083 13.6125 10.125C13.8708 9.44167 14 8.73333 14 8C14 7.26667 13.8708 6.55833 13.6125 5.875C13.3542 5.19167 12.9833 4.58333 12.5 4.05C13.5 4.18333 14.3333 4.625 15 5.375C15.6667 6.125 16 7 16 8C16 9 15.6667 9.875 15 10.625C14.3333 11.375 13.5 11.8167 12.5 11.95ZM17.525 20C17.675 19.8833 17.7917 19.7375 17.875 19.5625C17.9583 19.3875 18 19.1917 18 18.975V17C18 16.4 17.8667 15.8292 17.6 15.2875C17.3333 14.7458 16.9833 14.2667 16.55 13.85C17.4 14.15 18.1875 14.5375 18.9125 15.0125C19.6375 15.4875 20 16.15 20 17V19C20 19.2833 19.9042 19.5208 19.7125 19.7125C19.5208 19.9042 19.2833 20 19 20H17.525ZM21 13C20.7167 13 20.4792 12.9042 20.2875 12.7125C20.0958 12.5208 20 12.2833 20 12V11H19C18.7167 11 18.4792 10.9042 18.2875 10.7125C18.0958 10.5208 18 10.2833 18 10C18 9.71667 18.0958 9.47917 18.2875 9.2875C18.4792 9.09583 18.7167 9 19 9H20V8C20 7.71667 20.0958 7.47917 20.2875 7.2875C20.4792 7.09583 20.7167 7 21 7C21.2833 7 21.5208 7.09583 21.7125 7.2875C21.9042 7.47917 22 7.71667 22 8V9H23C23.2833 9 23.5208 9.09583 23.7125 9.2875C23.9042 9.47917 24 9.71667 24 10C24 10.2833 23.9042 10.5208 23.7125 10.7125C23.5208 10.9042 23.2833 11 23 11H22V12C22 12.2833 21.9042 12.5208 21.7125 12.7125C21.5208 12.9042 21.2833 13 21 13ZM8 12C6.9 12 5.95833 11.6083 5.175 10.825C4.39167 10.0417 4 9.1 4 8C4 6.9 4.39167 5.95833 5.175 5.175C5.95833 4.39167 6.9 4 8 4C9.1 4 10.0417 4.39167 10.825 5.175C11.6083 5.95833 12 6.9 12 8C12 9.1 11.6083 10.0417 10.825 10.825C10.0417 11.6083 9.1 12 8 12ZM1 20C0.716667 20 0.479167 19.9042 0.2875 19.7125C0.0958333 19.5208 0 19.2833 0 19V17.2C0 16.6333 0.145833 16.1125 0.4375 15.6375C0.729167 15.1625 1.11667 14.8 1.6 14.55C2.63333 14.0333 3.68333 13.6458 4.75 13.3875C5.81667 13.1292 6.9 13 8 13C9.1 13 10.1833 13.1292 11.25 13.3875C12.3167 13.6458 13.3667 14.0333 14.4 14.55C14.8833 14.8 15.2708 15.1625 15.5625 15.6375C15.8542 16.1125 16 16.6333 16 17.2V19C16 19.2833 15.9042 19.5208 15.7125 19.7125C15.5208 19.9042 15.2833 20 15 20H1ZM8 10C8.55 10 9.02083 9.80417 9.4125 9.4125C9.80417 9.02083 10 8.55 10 8C10 7.45 9.80417 6.97917 9.4125 6.5875C9.02083 6.19583 8.55 6 8 6C7.45 6 6.97917 6.19583 6.5875 6.5875C6.19583 6.97917 6 7.45 6 8C6 8.55 6.19583 9.02083 6.5875 9.4125C6.97917 9.80417 7.45 10 8 10ZM2 18H14V17.2C14 17.0167 13.9542 16.85 13.8625 16.7C13.7708 16.55 13.65 16.4333 13.5 16.35C12.6 15.9 11.6917 15.5625 10.775 15.3375C9.85833 15.1125 8.93333 15 8 15C7.06667 15 6.14167 15.1125 5.225 15.3375C4.30833 15.5625 3.4 15.9 2.5 16.35C2.35 16.4333 2.22917 16.55 2.1375 16.7C2.04583 16.85 2 17.0167 2 17.2V18Z" fill="black"/>
</svg>
