<svg width="16" height="16" viewBox="0 0 16 16" fill="none" xmlns="http://www.w3.org/2000/svg">
<path d="M8 4C8.19778 4 8.39112 4.05865 8.55557 4.16853C8.72002 4.27841 8.84819 4.43459 8.92388 4.61732C8.99956 4.80004 9.01937 5.00111 8.98078 5.19509C8.9422 5.38907 8.84696 5.56725 8.7071 5.70711C8.56725 5.84696 8.38907 5.9422 8.19509 5.98079C8.00111 6.01937 7.80004 5.99957 7.61731 5.92388C7.43459 5.84819 7.27841 5.72002 7.16853 5.55557C7.05865 5.39112 7 5.19778 7 5C7 4.73478 7.10535 4.48043 7.29289 4.29289C7.48043 4.10536 7.73478 4 8 4ZM8 3C7.60443 3 7.21775 3.1173 6.88886 3.33706C6.55996 3.55682 6.30361 3.86918 6.15224 4.23463C6.00086 4.60009 5.96126 5.00222 6.03843 5.39018C6.1156 5.77814 6.30608 6.13451 6.58578 6.41421C6.86549 6.69392 7.22185 6.8844 7.60982 6.96157C7.99778 7.03874 8.39991 6.99913 8.76536 6.84776C9.13081 6.69638 9.44317 6.44004 9.66294 6.11114C9.8827 5.78224 10 5.39556 10 5C10 4.46957 9.78928 3.96086 9.41421 3.58579C9.03914 3.21071 8.53043 3 8 3Z" fill="black"/>
<path d="M8.583 8.6665C9.04713 8.6665 9.49224 8.85087 9.82043 9.17906C10.1486 9.50725 10.333 9.95237 10.333 10.4165V11.5C10.333 11.6326 10.2803 11.7598 10.1865 11.8536C10.0928 11.9473 9.9656 12 9.833 12H6.1665C6.03389 12 5.90671 11.9473 5.81294 11.8536C5.71917 11.7598 5.6665 11.6326 5.6665 11.5V10.4165C5.6665 9.95237 5.85087 9.50725 6.17906 9.17906C6.50725 8.85087 6.95237 8.6665 7.4165 8.6665H8.583ZM8.583 7.6665H7.4165C6.68715 7.6665 5.98768 7.95623 5.47195 8.47196C4.95623 8.98768 4.6665 9.68715 4.6665 10.4165V11.5C4.6665 11.8978 4.82453 12.2794 5.10584 12.5607C5.38714 12.842 5.76867 13 6.1665 13H9.833C10.2308 13 10.6124 12.842 10.8937 12.5607C11.175 12.2794 11.333 11.8978 11.333 11.5V10.4165C11.333 9.68715 11.0433 8.98768 10.5275 8.47196C10.0118 7.95623 9.31234 7.6665 8.583 7.6665Z" fill="black"/>
<path d="M13.4165 12H12.6665C12.5339 12 12.4067 11.9473 12.3129 11.8536C12.2192 11.7598 12.1665 11.6326 12.1665 11.5C12.1665 11.3674 12.2192 11.2402 12.3129 11.1464C12.4067 11.0527 12.5339 11 12.6665 11H13.4165C13.4828 11 13.5464 10.9737 13.5933 10.9268C13.6402 10.8799 13.6665 10.8163 13.6665 10.75V10C13.6665 9.73478 13.5611 9.48043 13.3736 9.29289C13.1861 9.10536 12.9317 9 12.6665 9H12.1665C12.0339 9 11.9067 8.94732 11.8129 8.85355C11.7192 8.75979 11.6665 8.63261 11.6665 8.5C11.6665 8.36739 11.7192 8.24021 11.8129 8.14645C11.9067 8.05268 12.0339 8 12.1665 8H12.6665C13.1969 8 13.7056 8.21071 14.0807 8.58579C14.4558 8.96086 14.6665 9.46957 14.6665 10V10.75C14.6665 10.9142 14.6342 11.0767 14.5713 11.2284C14.5085 11.38 14.4165 11.5178 14.3004 11.6339C14.1843 11.75 14.0465 11.842 13.8949 11.9048C13.7432 11.9677 13.5806 12 13.4165 12Z" fill="black"/>
<path d="M3.3335 12H2.5835C2.41934 12 2.2568 11.9677 2.10514 11.9048C1.95348 11.842 1.81569 11.75 1.69961 11.6339C1.58354 11.5178 1.49147 11.38 1.42865 11.2284C1.36583 11.0767 1.3335 10.9142 1.3335 10.75V10C1.3335 9.46957 1.54421 8.96086 1.91928 8.58579C2.29436 8.21071 2.80306 8 3.3335 8H3.8335C3.9661 8 4.09328 8.05268 4.18705 8.14645C4.28082 8.24021 4.3335 8.36739 4.3335 8.5C4.3335 8.63261 4.28082 8.75979 4.18705 8.85355C4.09328 8.94732 3.9661 9 3.8335 9H3.3335C3.06828 9 2.81393 9.10536 2.62639 9.29289C2.43885 9.48043 2.3335 9.73478 2.3335 10V10.75C2.3335 10.8163 2.35984 10.8799 2.40672 10.9268C2.4536 10.9737 2.51719 11 2.5835 11H3.3335C3.4661 11 3.59328 11.0527 3.68705 11.1464C3.78082 11.2402 3.8335 11.3674 3.8335 11.5C3.8335 11.6326 3.78082 11.7598 3.68705 11.8536C3.59328 11.9473 3.4661 12 3.3335 12Z" fill="black"/>
<path d="M4 7C3.80221 7 3.60888 6.94135 3.44443 6.83147C3.27998 6.72159 3.1518 6.56541 3.07612 6.38268C3.00043 6.19996 2.98063 5.99889 3.01921 5.80491C3.0578 5.61093 3.15304 5.43275 3.29289 5.29289C3.43274 5.15304 3.61092 5.0578 3.80491 5.01921C3.99889 4.98063 4.19995 5.00043 4.38268 5.07612C4.56541 5.15181 4.72158 5.27998 4.83147 5.44443C4.94135 5.60888 5 5.80222 5 6C5 6.26522 4.89464 6.51957 4.7071 6.70711C4.51957 6.89464 4.26521 7 4 7Z" fill="black"/>
<path d="M12 7C11.8022 7 11.6089 6.94135 11.4444 6.83147C11.28 6.72159 11.1518 6.56541 11.0761 6.38268C11.0004 6.19996 10.9806 5.99889 11.0192 5.80491C11.0578 5.61093 11.153 5.43275 11.2929 5.29289C11.4327 5.15304 11.6109 5.0578 11.8049 5.01921C11.9989 4.98063 12.2 5.00043 12.3827 5.07612C12.5654 5.15181 12.7216 5.27998 12.8315 5.44443C12.9413 5.60888 13 5.80222 13 6C13 6.26522 12.8946 6.51957 12.7071 6.70711C12.5196 6.89464 12.2652 7 12 7Z" fill="black"/>
</svg>
