<svg width="24" height="24" viewBox="0 0 24 24" fill="none" xmlns="http://www.w3.org/2000/svg">
<path d="M6.00001 10.5C5.65394 10.5 5.31565 10.3974 5.0279 10.2051C4.74016 10.0128 4.51589 9.73958 4.38345 9.41985C4.25102 9.10013 4.21637 8.74831 4.28388 8.40889C4.3514 8.06947 4.51804 7.7577 4.76275 7.51299C5.00746 7.26828 5.31923 7.10164 5.65865 7.03412C5.99807 6.96661 6.34989 7.00126 6.66961 7.13369C6.98934 7.26613 7.26261 7.4904 7.45488 7.77814C7.64714 8.06589 7.74976 8.40418 7.74976 8.75025C7.74986 8.98006 7.70467 9.20763 7.61677 9.41997C7.52887 9.6323 7.39999 9.82523 7.23749 9.98773C7.07499 10.1502 6.88206 10.2791 6.66973 10.367C6.45739 10.4549 6.22982 10.5001 6.00001 10.5Z" fill="black"/>
<path d="M18 10.5C17.6539 10.5 17.3156 10.3974 17.0279 10.2051C16.7402 10.0128 16.5159 9.73958 16.3835 9.41985C16.251 9.10013 16.2164 8.74831 16.2839 8.40889C16.3514 8.06947 16.518 7.7577 16.7628 7.51299C17.0075 7.26828 17.3192 7.10164 17.6587 7.03412C17.9981 6.96661 18.3499 7.00126 18.6696 7.13369C18.9893 7.26613 19.2626 7.4904 19.4549 7.77814C19.6471 8.06589 19.7498 8.40418 19.7498 8.75025C19.7499 8.98006 19.7047 9.20763 19.6168 9.41997C19.5289 9.6323 19.4 9.82523 19.2375 9.98773C19.075 10.1502 18.8821 10.2791 18.6697 10.367C18.4574 10.4549 18.2298 10.5001 18 10.5Z" fill="black"/>
<path d="M18.9998 12H17.2823C17.6651 12.3487 17.971 12.7734 18.1806 13.2469C18.3902 13.7204 18.4988 14.2324 18.4995 14.7503V18H20.1248C20.371 18 20.6148 17.9515 20.8423 17.8573C21.0698 17.763 21.2765 17.6249 21.4506 17.4508C21.6247 17.2767 21.7628 17.07 21.857 16.8425C21.9513 16.615 21.9998 16.3712 21.9998 16.125V15C21.9998 14.2044 21.6837 13.4413 21.1211 12.8787C20.5585 12.3161 19.7954 12 18.9998 12Z" fill="black"/>
<path d="M12 10.5C11.4067 10.5 10.8266 10.3241 10.3333 9.99441C9.83995 9.66477 9.45544 9.19623 9.22837 8.64805C9.00131 8.09987 8.9419 7.49667 9.05766 6.91473C9.17341 6.33279 9.45913 5.79824 9.87869 5.37868C10.2982 4.95912 10.8328 4.6734 11.4147 4.55765C11.9967 4.44189 12.5999 4.5013 13.1481 4.72836C13.6962 4.95543 14.1648 5.33994 14.4944 5.83329C14.8241 6.32664 15 6.90666 15 7.5C15 8.29565 14.6839 9.05871 14.1213 9.62132C13.5587 10.1839 12.7957 10.5 12 10.5Z" fill="black"/>
<path d="M14.7503 19.5H9.25051C8.65377 19.5 8.08148 19.2629 7.65952 18.841C7.23757 18.419 7.00051 17.8467 7.00051 17.25V15.6248C7.00051 14.5307 7.43511 13.4815 8.2087 12.7079C8.98228 11.9343 10.0315 11.4998 11.1255 11.4998H12.8753C13.9693 11.4998 15.0185 11.9343 15.7921 12.7079C16.5657 13.4815 17.0003 14.5307 17.0003 15.6248V17.25C17.0003 17.8467 16.7632 18.419 16.3413 18.841C15.9193 19.2629 15.347 19.5 14.7503 19.5Z" fill="black"/>
<path d="M5.49976 14.7503C5.50064 14.2324 5.60939 13.7204 5.8191 13.2468C6.0288 12.7733 6.33486 12.3487 6.71776 12H4.99951C4.20386 12 3.4408 12.3161 2.87819 12.8787C2.31558 13.4413 1.99951 14.2044 1.99951 15V16.125C1.99951 16.3712 2.04801 16.615 2.14224 16.8425C2.23647 17.07 2.37458 17.2767 2.54869 17.4508C2.7228 17.6249 2.92949 17.763 3.15698 17.8573C3.38447 17.9515 3.62828 18 3.87451 18H5.49976V14.7503Z" fill="black"/>
</svg>
