<svg width="28" height="28" viewBox="0 0 28 28" fill="none" xmlns="http://www.w3.org/2000/svg">
<path d="M4.66667 15.0951C4.66667 15.2182 4.68997 15.3402 4.7373 15.4539C4.78465 15.5676 4.85497 15.6702 4.94238 15.757C5.02979 15.8437 5.13367 15.9121 5.24772 15.9586C5.36177 16.0051 5.48459 16.029 5.60775 16.0281C5.729 16.0282 5.84929 16.0036 5.96094 15.9563C6.07258 15.909 6.17288 15.8396 6.25716 15.7524L8.67253 13.3382C8.84743 13.1632 8.94596 12.9248 8.94596 12.6774C8.94596 12.4299 8.84743 12.1927 8.67253 12.0177L6.25716 9.60348C6.12617 9.47372 5.95963 9.38578 5.77865 9.35055C5.59766 9.31531 5.41099 9.3341 5.24089 9.40524C5.07078 9.47637 4.92363 9.59572 4.82161 9.74931C4.71959 9.9029 4.66629 10.0833 4.66667 10.2677V11.513H1.16667C0.857247 11.513 0.560589 11.636 0.341797 11.8548C0.123004 12.0736 0 12.3702 0 12.6796C0.00183663 12.9885 0.12568 13.2838 0.344076 13.5022C0.562471 13.7206 0.857814 13.8445 1.16667 13.8463H4.66667V15.0951Z" fill="black"/>
<path d="M7.95455 21.106C7.68409 21.106 7.45755 21.0143 7.27491 20.8311C7.09164 20.6484 7 20.4219 7 20.1514V18.4333C7 17.8923 7.13936 17.395 7.41809 16.9413C7.69618 16.4882 8.06591 16.1423 8.52727 15.9037C9.51364 15.4105 10.5159 15.0405 11.5341 14.7936C12.5523 14.5473 13.5864 14.4242 14.6364 14.4242C15.6864 14.4242 16.7205 14.5473 17.7386 14.7936C18.7568 15.0405 19.7591 15.4105 20.7455 15.9037C21.2068 16.1423 21.5765 16.4882 21.8546 16.9413C22.1334 17.395 22.2727 17.8923 22.2727 18.4333V20.1514C22.2727 20.4219 22.1811 20.6484 21.9978 20.8311C21.8152 21.0143 21.5886 21.106 21.3182 21.106H7.95455ZM23.7284 21.106C23.8716 20.9946 23.983 20.8553 24.0625 20.6879C24.142 20.5212 24.1818 20.3344 24.1818 20.1276V18.2423C24.1818 17.5423 23.9871 16.87 23.5976 16.2254C23.2075 15.5814 22.6545 15.0287 21.9386 14.5673C22.75 14.6628 23.5136 14.8257 24.2295 15.0561C24.9455 15.2871 25.6136 15.5696 26.2341 15.9037C26.8068 16.2219 27.2443 16.5757 27.5466 16.9652C27.8489 17.3553 28 17.781 28 18.2423V20.1514C28 20.4219 27.9084 20.6484 27.7251 20.8311C27.5425 21.0143 27.3159 21.106 27.0455 21.106H23.7284ZM14.6364 13.4696C13.5864 13.4696 12.6875 13.0958 11.9398 12.348C11.192 11.6003 10.8182 10.7014 10.8182 9.65143C10.8182 8.60143 11.192 7.70257 11.9398 6.95484C12.6875 6.20712 13.5864 5.83325 14.6364 5.83325C15.6864 5.83325 16.5852 6.20712 17.333 6.95484C18.0807 7.70257 18.4545 8.60143 18.4545 9.65143C18.4545 10.7014 18.0807 11.6003 17.333 12.348C16.5852 13.0958 15.6864 13.4696 14.6364 13.4696ZM24.1818 9.65143C24.1818 10.7014 23.808 11.6003 23.0602 12.348C22.3125 13.0958 21.4136 13.4696 20.3636 13.4696C20.1886 13.4696 19.9659 13.4499 19.6955 13.4104C19.425 13.3703 19.2023 13.3264 19.0273 13.2787C19.4568 12.7696 19.7868 12.2048 20.0171 11.5844C20.2481 10.9639 20.3636 10.3196 20.3636 9.65143C20.3636 8.98325 20.2481 8.33893 20.0171 7.71848C19.7868 7.09802 19.4568 6.53325 19.0273 6.02416C19.25 5.94462 19.4727 5.89275 19.6955 5.86857C19.9182 5.84502 20.1409 5.83325 20.3636 5.83325C21.4136 5.83325 22.3125 6.20712 23.0602 6.95484C23.808 7.70257 24.1818 8.60143 24.1818 9.65143ZM8.90909 19.1969H20.3636V18.4333C20.3636 18.2583 20.32 18.0992 20.2329 17.956C20.145 17.8128 20.0295 17.7014 19.8864 17.6219C19.0273 17.1923 18.1602 16.87 17.2852 16.6549C16.4102 16.4405 15.5273 16.3333 14.6364 16.3333C13.7455 16.3333 12.8625 16.4405 11.9875 16.6549C11.1125 16.87 10.2455 17.1923 9.38636 17.6219C9.24318 17.7014 9.128 17.8128 9.04082 17.956C8.953 18.0992 8.90909 18.2583 8.90909 18.4333V19.1969ZM14.6364 11.5605C15.1614 11.5605 15.611 11.3734 15.9851 10.9993C16.3587 10.6257 16.5455 10.1764 16.5455 9.65143C16.5455 9.12643 16.3587 8.67716 15.9851 8.30362C15.611 7.92943 15.1614 7.74234 14.6364 7.74234C14.1114 7.74234 13.6621 7.92943 13.2885 8.30362C12.9144 8.67716 12.7273 9.12643 12.7273 9.65143C12.7273 10.1764 12.9144 10.6257 13.2885 10.9993C13.6621 11.3734 14.1114 11.5605 14.6364 11.5605Z" fill="black"/>
</svg>
