<svg width="24" height="24" viewBox="0 0 24 24" fill="none" xmlns="http://www.w3.org/2000/svg">
<path d="M4 12.9387C4 13.0442 4.01997 13.1488 4.06055 13.2463C4.10113 13.3437 4.1614 13.4317 4.23633 13.506C4.31125 13.5804 4.40029 13.639 4.49805 13.6789C4.5958 13.7187 4.70108 13.7392 4.80664 13.7385C4.91057 13.7385 5.01368 13.7175 5.10938 13.6769C5.20507 13.6364 5.29104 13.5768 5.36328 13.5021L7.43359 11.4328C7.58351 11.2828 7.66797 11.0785 7.66797 10.8664C7.66797 10.6543 7.58351 10.451 7.43359 10.301L5.36328 8.23162C5.251 8.1204 5.10825 8.04503 4.95312 8.01482C4.798 7.98462 4.63799 8.00072 4.49219 8.0617C4.34638 8.12268 4.22026 8.22498 4.13281 8.35662C4.04537 8.48827 3.99968 8.64292 4 8.80096V9.86834H1C0.734784 9.86834 0.480505 9.97377 0.292969 10.1613C0.105432 10.3488 0 10.6031 0 10.8683C0.00157426 11.1331 0.107726 11.3862 0.294922 11.5734C0.482118 11.7606 0.735269 11.8668 1 11.8683H4V12.9387Z" fill="black"/>
<path d="M6.81818 18.0909C6.58636 18.0909 6.39218 18.0124 6.23564 17.8553C6.07855 17.6987 6 17.5045 6 17.2727V15.8C6 15.3364 6.11945 14.9101 6.35836 14.5212C6.59673 14.1328 6.91364 13.8364 7.30909 13.6318C8.15454 13.2091 9.01364 12.8919 9.88636 12.6803C10.7591 12.4692 11.6455 12.3636 12.5455 12.3636C13.4455 12.3636 14.3318 12.4692 15.2045 12.6803C16.0773 12.8919 16.9364 13.2091 17.7818 13.6318C18.1773 13.8364 18.4942 14.1328 18.7325 14.5212C18.9715 14.9101 19.0909 15.3364 19.0909 15.8V17.2727C19.0909 17.5045 19.0124 17.6987 18.8553 17.8553C18.6987 18.0124 18.5045 18.0909 18.2727 18.0909H6.81818ZM20.3386 18.0909C20.4614 17.9955 20.5568 17.876 20.625 17.7325C20.6932 17.5896 20.7273 17.4295 20.7273 17.2523V15.6364C20.7273 15.0364 20.5604 14.4601 20.2265 13.9075C19.8922 13.3555 19.4182 12.8818 18.8045 12.4864C19.5 12.5682 20.1545 12.7078 20.7682 12.9053C21.3818 13.1033 21.9545 13.3455 22.4864 13.6318C22.9773 13.9045 23.3523 14.2078 23.6114 14.5416C23.8705 14.876 24 15.2409 24 15.6364V17.2727C24 17.5045 23.9215 17.6987 23.7644 17.8553C23.6078 18.0124 23.4136 18.0909 23.1818 18.0909H20.3386ZM12.5455 11.5455C11.6455 11.5455 10.875 11.225 10.2341 10.5841C9.59318 9.94318 9.27273 9.17273 9.27273 8.27273C9.27273 7.37273 9.59318 6.60227 10.2341 5.96136C10.875 5.32045 11.6455 5 12.5455 5C13.4455 5 14.2159 5.32045 14.8568 5.96136C15.4977 6.60227 15.8182 7.37273 15.8182 8.27273C15.8182 9.17273 15.4977 9.94318 14.8568 10.5841C14.2159 11.225 13.4455 11.5455 12.5455 11.5455ZM20.7273 8.27273C20.7273 9.17273 20.4068 9.94318 19.7659 10.5841C19.125 11.225 18.3545 11.5455 17.4545 11.5455C17.3045 11.5455 17.1136 11.5285 16.8818 11.4947C16.65 11.4604 16.4591 11.4227 16.3091 11.3818C16.6773 10.9455 16.9601 10.4614 17.1575 9.92955C17.3555 9.39773 17.4545 8.84545 17.4545 8.27273C17.4545 7.7 17.3555 7.14773 17.1575 6.61591C16.9601 6.08409 16.6773 5.6 16.3091 5.16364C16.5 5.09545 16.6909 5.051 16.8818 5.03027C17.0727 5.01009 17.2636 5 17.4545 5C18.3545 5 19.125 5.32045 19.7659 5.96136C20.4068 6.60227 20.7273 7.37273 20.7273 8.27273ZM7.63636 16.4545H17.4545V15.8C17.4545 15.65 17.4172 15.5136 17.3425 15.3909C17.2672 15.2682 17.1682 15.1727 17.0455 15.1045C16.3091 14.7364 15.5659 14.4601 14.8159 14.2757C14.0659 14.0919 13.3091 14 12.5455 14C11.7818 14 11.025 14.0919 10.275 14.2757C9.525 14.4601 8.78182 14.7364 8.04545 15.1045C7.92273 15.1727 7.824 15.2682 7.74927 15.3909C7.674 15.5136 7.63636 15.65 7.63636 15.8V16.4545ZM12.5455 9.90909C12.9955 9.90909 13.3808 9.74873 13.7015 9.428C14.0217 9.10782 14.1818 8.72273 14.1818 8.27273C14.1818 7.82273 14.0217 7.43764 13.7015 7.11745C13.3808 6.79673 12.9955 6.63636 12.5455 6.63636C12.0955 6.63636 11.7104 6.79673 11.3902 7.11745C11.0695 7.43764 10.9091 7.82273 10.9091 8.27273C10.9091 8.72273 11.0695 9.10782 11.3902 9.428C11.7104 9.74873 12.0955 9.90909 12.5455 9.90909Z" fill="black"/>
</svg>
