<svg width="16" height="16" viewBox="0 0 16 16" fill="none" xmlns="http://www.w3.org/2000/svg">
<path fill-rule="evenodd" clip-rule="evenodd" d="M6.30638 7.87161C5.34343 8.2738 4.66671 9.22454 4.66671 10.3333V11.6667C4.66671 12.403 5.26366 13 6.00004 13H10C10.7364 13 11.3334 12.403 11.3334 11.6667V10.3333C11.3334 9.22454 10.6567 8.2738 9.6937 7.87161C9.37761 7.73958 9.03067 7.66667 8.66671 7.66667H7.33337C6.96941 7.66667 6.62247 7.73958 6.30638 7.87161ZM6.57652 6.40484C6.78698 6.61808 7.045 6.78427 7.33337 6.8862C7.54189 6.9599 7.76628 7 8.00004 7C8.2338 7 8.45819 6.9599 8.66671 6.8862C8.95508 6.78427 9.21311 6.61808 9.42357 6.40484C9.78002 6.04367 10 5.54753 10 5C10 3.89543 9.10461 3 8.00004 3C6.89547 3 6.00004 3.89543 6.00004 5C6.00004 5.54753 6.22006 6.04367 6.57652 6.40484Z" fill="black"/>
<path d="M14.6667 11C14.6667 11.5523 14.219 12 13.6667 12H12.3334V10.3807C12.3334 9.49666 11.9822 8.64881 11.3571 8.02369L11.3334 8H12.6667C13.7713 8 14.6667 8.89543 14.6667 10V11Z" fill="black"/>
<path d="M10.8334 5.83333C10.8334 6.47767 11.3557 7 12 7C12.6444 7 13.1667 6.47767 13.1667 5.83333C13.1667 5.189 12.6444 4.66667 12 4.66667C11.3557 4.66667 10.8334 5.189 10.8334 5.83333Z" fill="black"/>
<path d="M1.33337 11C1.33337 11.5523 1.78109 12 2.33337 12H3.66671V10.3807C3.66671 9.49666 4.0179 8.64881 4.64302 8.02369L4.66671 8H3.33337C2.2288 8 1.33337 8.89543 1.33337 10V11Z" fill="black"/>
<path d="M2.83337 5.83333C2.83337 6.47767 3.35571 7 4.00004 7C4.64437 7 5.16671 6.47767 5.16671 5.83333C5.16671 5.189 4.64437 4.66667 4.00004 4.66667C3.35571 4.66667 2.83337 5.189 2.83337 5.83333Z" fill="black"/>
</svg>
