<svg width="24" height="24" viewBox="0 0 24 24" fill="none" xmlns="http://www.w3.org/2000/svg">
<path d="M12 6C12.2967 6 12.5867 6.08797 12.8334 6.2528C13.08 6.41762 13.2723 6.65189 13.3858 6.92598C13.4993 7.20006 13.5291 7.50166 13.4712 7.79264C13.4133 8.08361 13.2704 8.35088 13.0607 8.56066C12.8509 8.77044 12.5836 8.9133 12.2926 8.97118C12.0017 9.02906 11.7001 8.99935 11.426 8.88582C11.1519 8.77229 10.9176 8.58003 10.7528 8.33336C10.588 8.08668 10.5 7.79667 10.5 7.5C10.5 7.10218 10.658 6.72064 10.9393 6.43934C11.2206 6.15804 11.6022 6 12 6ZM12 4.5C11.4067 4.5 10.8266 4.67595 10.3333 5.00559C9.83994 5.33524 9.45542 5.80377 9.22836 6.35195C9.00129 6.90013 8.94188 7.50333 9.05764 8.08527C9.17339 8.66721 9.45912 9.20176 9.87867 9.62132C10.2982 10.0409 10.8328 10.3266 11.4147 10.4424C11.9967 10.5581 12.5999 10.4987 13.148 10.2716C13.6962 10.0446 14.1648 9.66006 14.4944 9.16671C14.824 8.67336 15 8.09334 15 7.5C15 6.70435 14.6839 5.94129 14.1213 5.37868C13.5587 4.81607 12.7956 4.5 12 4.5Z" fill="black"/>
<path d="M12.8745 12.9998C13.5707 12.9998 14.2384 13.2763 14.7306 13.7686C15.2229 14.2609 15.4995 14.9286 15.4995 15.6248V17.25C15.4995 17.4489 15.4205 17.6397 15.2798 17.7803C15.1392 17.921 14.9484 18 14.7495 18H9.24974C9.05083 18 8.86007 17.921 8.71941 17.7803C8.57876 17.6397 8.49974 17.4489 8.49974 17.25V15.6248C8.49974 14.9286 8.77631 14.2609 9.26859 13.7686C9.76087 13.2763 10.4286 12.9998 11.1247 12.9998H12.8745ZM12.8745 11.4998H11.1247C10.0307 11.4998 8.98152 11.9343 8.20793 12.7079C7.43434 13.4815 6.99974 14.5307 6.99974 15.6248V17.25C6.99974 17.8467 7.2368 18.419 7.65875 18.841C8.08071 19.2629 8.65301 19.5 9.24974 19.5H14.7495C15.3462 19.5 15.9185 19.2629 16.3405 18.841C16.7624 18.419 16.9995 17.8467 16.9995 17.25V15.6248C16.9995 14.5307 16.5649 13.4815 15.7913 12.7079C15.0177 11.9343 13.9685 11.4998 12.8745 11.4998Z" fill="black"/>
<path d="M20.1247 18H18.9997C18.8008 18 18.6101 17.921 18.4694 17.7803C18.3288 17.6397 18.2497 17.4489 18.2497 17.25C18.2497 17.0511 18.3288 16.8603 18.4694 16.7197C18.6101 16.579 18.8008 16.5 18.9997 16.5H20.1247C20.2242 16.5 20.3196 16.4605 20.3899 16.3902C20.4602 16.3198 20.4997 16.2245 20.4997 16.125V15C20.4997 14.6022 20.3417 14.2206 20.0604 13.9393C19.7791 13.658 19.3976 13.5 18.9997 13.5H18.2497C18.0508 13.5 17.8601 13.421 17.7194 13.2803C17.5788 13.1397 17.4997 12.9489 17.4997 12.75C17.4997 12.5511 17.5788 12.3603 17.7194 12.2197C17.8601 12.079 18.0508 12 18.2497 12H18.9997C19.7954 12 20.5585 12.3161 21.1211 12.8787C21.6837 13.4413 21.9997 14.2044 21.9997 15V16.125C21.9997 16.3712 21.9512 16.615 21.857 16.8425C21.7628 17.07 21.6247 17.2767 21.4506 17.4508C21.2765 17.6249 21.0698 17.763 20.8423 17.8573C20.6148 17.9515 20.371 18 20.1247 18Z" fill="black"/>
<path d="M5.00024 18H3.87524C3.62902 18 3.3852 17.9515 3.15771 17.8573C2.93023 17.763 2.72353 17.6249 2.54942 17.4508C2.37531 17.2767 2.2372 17.07 2.14297 16.8425C2.04874 16.615 2.00024 16.3712 2.00024 16.125V15C2.00024 14.2044 2.31631 13.4413 2.87892 12.8787C3.44153 12.3161 4.20459 12 5.00024 12H5.75024C5.94916 12 6.13992 12.079 6.28057 12.2197C6.42123 12.3603 6.50024 12.5511 6.50024 12.75C6.50024 12.9489 6.42123 13.1397 6.28057 13.2803C6.13992 13.421 5.94916 13.5 5.75024 13.5H5.00024C4.60242 13.5 4.22089 13.658 3.93958 13.9393C3.65828 14.2206 3.50024 14.6022 3.50024 15V16.125C3.50024 16.2245 3.53975 16.3198 3.61008 16.3902C3.68041 16.4605 3.77579 16.5 3.87524 16.5H5.00024C5.19916 16.5 5.38992 16.579 5.53057 16.7197C5.67123 16.8603 5.75024 17.0511 5.75024 17.25C5.75024 17.4489 5.67123 17.6397 5.53057 17.7803C5.38992 17.921 5.19916 18 5.00024 18Z" fill="black"/>
<path d="M5.99999 10.5C5.70332 10.5 5.41331 10.412 5.16664 10.2472C4.91997 10.0824 4.72771 9.84811 4.61417 9.57402C4.50064 9.29994 4.47094 8.99834 4.52882 8.70736C4.58669 8.41639 4.72956 8.14912 4.93933 7.93934C5.14911 7.72956 5.41639 7.5867 5.70736 7.52882C5.99833 7.47094 6.29993 7.50065 6.57402 7.61418C6.84811 7.72771 7.08238 7.91997 7.2472 8.16664C7.41202 8.41332 7.49999 8.70333 7.49999 9C7.49999 9.39782 7.34196 9.77936 7.06065 10.0607C6.77935 10.342 6.39782 10.5 5.99999 10.5Z" fill="black"/>
<path d="M18 10.5C17.7033 10.5 17.4133 10.412 17.1666 10.2472C16.92 10.0824 16.7277 9.84811 16.6142 9.57402C16.5006 9.29994 16.4709 8.99834 16.5288 8.70736C16.5867 8.41639 16.7296 8.14912 16.9393 7.93934C17.1491 7.72956 17.4164 7.5867 17.7074 7.52882C17.9983 7.47094 18.2999 7.50065 18.574 7.61418C18.8481 7.72771 19.0824 7.91997 19.2472 8.16664C19.412 8.41332 19.5 8.70333 19.5 9C19.5 9.39782 19.342 9.77936 19.0607 10.0607C18.7793 10.342 18.3978 10.5 18 10.5Z" fill="black"/>
</svg>
