<svg width="24" height="24" viewBox="0 0 24 24" fill="none" xmlns="http://www.w3.org/2000/svg">
<g clip-path="url(#clip0_675_14488)">
<path d="M20.9492 18C20.984 17.8356 21.0015 17.6681 21.002 17.5V16C20.9954 15.4537 20.8676 14.9153 20.6289 14.4238C20.3902 13.9324 20.0465 13.5001 19.6211 13.1572C21.6331 13.5062 24.002 14.457 24.002 16V17.5C24.003 17.566 23.9915 17.6312 23.9668 17.6924C23.9421 17.7535 23.9041 17.8098 23.8574 17.8565C23.8108 17.9031 23.7565 17.9391 23.6953 17.9639C23.6342 17.9886 23.5679 18.0011 23.502 18H20.9492ZM8 18C7.73478 18 7.4805 17.8946 7.29297 17.707C7.10543 17.5195 7 17.2652 7 17V16C7 14 11 13 13 13C15 13 19 14 19 16V17C19 17.2652 18.8946 17.5195 18.707 17.707C18.5195 17.8946 18.2652 18 18 18H8ZM4 13.0723V12H1C0.735269 11.9984 0.482118 11.8923 0.294922 11.7051C0.107726 11.5179 0.00157426 11.2647 0 11C0 10.7348 0.105432 10.4805 0.292969 10.293C0.480505 10.1054 0.734784 10 1 10H4V8.93263C3.99968 8.77459 4.04537 8.61994 4.13281 8.48829C4.22026 8.35665 4.34638 8.25435 4.49219 8.19337C4.63799 8.13239 4.798 8.11629 4.95312 8.1465C5.10825 8.1767 5.251 8.25207 5.36328 8.36329L7.43359 10.4326C7.58351 10.5826 7.66797 10.786 7.66797 10.9981C7.66797 11.2101 7.58351 11.4144 7.43359 11.5645L5.36328 13.6338C5.29104 13.7085 5.20507 13.7681 5.10938 13.8086C5.01368 13.8492 4.91057 13.8702 4.80664 13.8701C4.70108 13.8709 4.5958 13.8504 4.49805 13.8106C4.40029 13.7707 4.31125 13.7121 4.23633 13.6377C4.1614 13.5633 4.10113 13.4754 4.06055 13.3779C4.01997 13.2805 4 13.1759 4 13.0703V13.0723ZM17.0918 10.8643C17.6758 10.0239 17.9901 9.02527 17.9922 8.00196C17.9961 6.97804 17.6812 5.9779 17.0918 5.14064C17.3862 5.0481 17.6933 5.00186 18.002 5.00294C18.3954 5.00267 18.785 5.08064 19.1484 5.23146C19.5119 5.38227 19.8415 5.60306 20.1191 5.88185C20.3968 6.16063 20.6163 6.49145 20.7656 6.85548C20.915 7.21951 20.9921 7.60947 20.9902 8.00294C20.9916 8.39627 20.9152 8.78564 20.7656 9.14942C20.6161 9.51321 20.3967 9.84438 20.1191 10.1231C19.8416 10.4017 19.5116 10.6224 19.1484 10.7734C18.7853 10.9245 18.3953 11.0027 18.002 11.0029C17.6938 11.0028 17.3874 10.9557 17.0938 10.8623L17.0918 10.8643ZM10 8.00001C9.99894 7.60575 10.0762 7.21505 10.2266 6.8506C10.377 6.48614 10.5982 6.15477 10.877 5.87599C11.1557 5.5972 11.4871 5.37696 11.8516 5.22657C12.216 5.07618 12.6057 4.99896 13 5.00001C13.3937 4.99921 13.7847 5.07597 14.1484 5.22657C14.5122 5.37718 14.8412 5.59907 15.1191 5.87794C15.3971 6.15681 15.6182 6.4873 15.7676 6.85157C15.917 7.21585 15.9923 7.6063 15.9902 8.00001C15.9919 8.39361 15.9152 8.78337 15.7656 9.14747C15.6161 9.51157 15.397 9.84329 15.1191 10.1221C14.8413 10.4009 14.5101 10.6217 14.1465 10.7725C13.7829 10.9232 13.3936 11.0004 13 11C12.2044 11 11.4415 10.6837 10.8789 10.1211C10.3163 9.5585 10 8.79566 10 8.00001Z" fill="black"/>
</g>
<defs>
<clipPath id="clip0_675_14488">
<rect width="24" height="24" fill="white"/>
</clipPath>
</defs>
</svg>
