<svg width="28" height="28" viewBox="0 0 28 28" fill="none" xmlns="http://www.w3.org/2000/svg">
<path d="M10.5 18.0833C10.5 16.7947 11.5447 15.75 12.8334 15.75H15.1667C16.4554 15.75 17.5 16.7947 17.5 18.0833V20.4167H10.5V18.0833ZM11.0361 13.7753C9.35096 14.4792 8.16671 16.1429 8.16671 18.0833V20.4167C8.16671 21.7053 9.21138 22.75 10.5 22.75H17.5C18.7887 22.75 19.8334 21.7053 19.8334 20.4167V18.0833C19.8334 16.1429 18.6491 14.4792 16.9639 13.7753C16.4108 13.5443 15.8036 13.4167 15.1667 13.4167H12.8334C12.1964 13.4167 11.5893 13.5443 11.0361 13.7753ZM11.5089 11.2085C11.8772 11.5816 12.3287 11.8725 12.8334 12.0508C13.1983 12.1798 13.591 12.25 14 12.25C14.4091 12.25 14.8018 12.1798 15.1667 12.0508C15.6714 11.8725 16.1229 11.5816 16.4912 11.2085C17.115 10.5764 17.5 9.70818 17.5 8.75C17.5 6.817 15.933 5.25 14 5.25C12.067 5.25 10.5 6.817 10.5 8.75C10.5 9.70818 10.8851 10.5764 11.5089 11.2085ZM14 9.91667C13.3557 9.91667 12.8334 9.39433 12.8334 8.75C12.8334 8.10567 13.3557 7.58333 14 7.58333C14.6444 7.58333 15.1667 8.10567 15.1667 8.75C15.1667 9.39433 14.6444 9.91667 14 9.91667Z" fill="black"/>
<path d="M25.6667 19.25C25.6667 20.2165 24.8832 21 23.9167 21H21.5834V18.1662C21.5834 16.6191 20.9688 15.1354 19.8748 14.0415L19.8334 14H22.1667C24.0997 14 25.6667 15.567 25.6667 17.5V19.25Z" fill="black"/>
<path d="M18.9584 10.2083C18.9584 11.3359 19.8725 12.25 21 12.25C22.1276 12.25 23.0417 11.3359 23.0417 10.2083C23.0417 9.08075 22.1276 8.16667 21 8.16667C19.8725 8.16667 18.9584 9.08075 18.9584 10.2083Z" fill="black"/>
<path d="M2.33337 19.25C2.33337 20.2165 3.11688 21 4.08337 21H6.41671V18.1662C6.41671 16.6191 7.03129 15.1354 8.12525 14.0415L8.16671 14H5.83337C3.90038 14 2.33337 15.567 2.33337 17.5V19.25Z" fill="black"/>
<path d="M4.95837 10.2083C4.95837 11.3359 5.87246 12.25 7.00004 12.25C8.12762 12.25 9.04171 11.3359 9.04171 10.2083C9.04171 9.08075 8.12762 8.16667 7.00004 8.16667C5.87246 8.16667 4.95837 9.08075 4.95837 10.2083Z" fill="black"/>
</svg>
