<svg width="28" height="28" viewBox="0 0 28 28" fill="none" xmlns="http://www.w3.org/2000/svg">
<path d="M4.66667 21C4.33611 21 4.05922 20.888 3.836 20.664C3.612 20.4408 3.5 20.1639 3.5 19.8333C3.5 19.5028 3.612 19.2259 3.836 19.0027C4.05922 18.7787 4.33611 18.6667 4.66667 18.6667H23.3333C23.6639 18.6667 23.9408 18.7787 24.164 19.0027C24.388 19.2259 24.5 19.5028 24.5 19.8333C24.5 20.1639 24.388 20.4408 24.164 20.664C23.9408 20.888 23.6639 21 23.3333 21H4.66667ZM4.66667 15.1667C4.33611 15.1667 4.05922 15.0547 3.836 14.8307C3.612 14.6074 3.5 14.3306 3.5 14C3.5 13.6694 3.612 13.3922 3.836 13.1682C4.05922 12.9449 4.33611 12.8333 4.66667 12.8333H23.3333C23.6639 12.8333 23.9408 12.9449 24.164 13.1682C24.388 13.3922 24.5 13.6694 24.5 14C24.5 14.3306 24.388 14.6074 24.164 14.8307C23.9408 15.0547 23.6639 15.1667 23.3333 15.1667H4.66667ZM4.66667 9.33333C4.33611 9.33333 4.05922 9.22172 3.836 8.9985C3.612 8.7745 3.5 8.49722 3.5 8.16667C3.5 7.83611 3.612 7.55883 3.836 7.33483C4.05922 7.11161 4.33611 7 4.66667 7H23.3333C23.6639 7 23.9408 7.11161 24.164 7.33483C24.388 7.55883 24.5 7.83611 24.5 8.16667C24.5 8.49722 24.388 8.7745 24.164 8.9985C23.9408 9.22172 23.6639 9.33333 23.3333 9.33333H4.66667Z" fill="#1C1B1F"/>
</svg>
