<svg width="16" height="16" viewBox="0 0 16 16" fill="none" xmlns="http://www.w3.org/2000/svg">
<path d="M7.00033 8.66668V9.66668C7.00033 9.85557 7.06421 10.0139 7.19199 10.1417C7.31977 10.2695 7.4781 10.3334 7.66699 10.3334H8.33366C8.52255 10.3334 8.68088 10.2695 8.80866 10.1417C8.93644 10.0139 9.00033 9.85557 9.00033 9.66668V8.66668H10.0003C10.1892 8.66668 10.3475 8.60279 10.4753 8.47502C10.6031 8.34724 10.667 8.18891 10.667 8.00002V7.33335C10.667 7.14446 10.6031 6.98613 10.4753 6.85835C10.3475 6.73057 10.1892 6.66668 10.0003 6.66668H9.00033V5.66668C9.00033 5.47779 8.93644 5.31946 8.80866 5.19168C8.68088 5.06391 8.52255 5.00002 8.33366 5.00002H7.66699C7.4781 5.00002 7.31977 5.06391 7.19199 5.19168C7.06421 5.31946 7.00033 5.47779 7.00033 5.66668V6.66668H6.00033C5.81144 6.66668 5.6531 6.73057 5.52533 6.85835C5.39755 6.98613 5.33366 7.14446 5.33366 7.33335V8.00002C5.33366 8.18891 5.39755 8.34724 5.52533 8.47502C5.6531 8.60279 5.81144 8.66668 6.00033 8.66668H7.00033ZM8.00033 14.6C7.92255 14.6 7.85033 14.5945 7.78366 14.5834C7.71699 14.5722 7.65033 14.5556 7.58366 14.5333C6.08366 14.0333 4.88921 13.1083 4.00033 11.7584C3.11144 10.4083 2.66699 8.95557 2.66699 7.40002V4.25002C2.66699 3.97224 2.74755 3.72224 2.90866 3.50002C3.06977 3.27779 3.2781 3.11668 3.53366 3.01668L7.53366 1.51668C7.68921 1.46113 7.84477 1.43335 8.00033 1.43335C8.15588 1.43335 8.31144 1.46113 8.46699 1.51668L12.467 3.01668C12.7225 3.11668 12.9309 3.27779 13.092 3.50002C13.2531 3.72224 13.3337 3.97224 13.3337 4.25002V7.40002C13.3337 8.95557 12.8892 10.4083 12.0003 11.7584C11.1114 13.1083 9.91699 14.0333 8.41699 14.5333C8.35033 14.5556 8.28366 14.5722 8.21699 14.5834C8.15033 14.5945 8.0781 14.6 8.00033 14.6ZM8.00033 13.2667C9.15588 12.9 10.1114 12.1667 10.867 11.0667C11.6225 9.96668 12.0003 8.74446 12.0003 7.40002V4.25002L8.00033 2.75002L4.00033 4.25002V7.40002C4.00033 8.74446 4.3781 9.96668 5.13366 11.0667C5.88921 12.1667 6.84477 12.9 8.00033 13.2667Z" fill="#191919"/>
</svg>
