<svg width="28" height="28" viewBox="0 0 28 28" fill="none" xmlns="http://www.w3.org/2000/svg">
<path d="M12.2503 15.1666V16.9166C12.2503 17.2472 12.3621 17.5243 12.5857 17.7479C12.8094 17.9715 13.0864 18.0833 13.417 18.0833H14.5837C14.9142 18.0833 15.1913 17.9715 15.4149 17.7479C15.6385 17.5243 15.7503 17.2472 15.7503 16.9166V15.1666H17.5003C17.8309 15.1666 18.108 15.0548 18.3316 14.8312C18.5552 14.6076 18.667 14.3305 18.667 14V12.8333C18.667 12.5027 18.5552 12.2257 18.3316 12.0021C18.108 11.7784 17.8309 11.6666 17.5003 11.6666H15.7503V9.91663C15.7503 9.58608 15.6385 9.309 15.4149 9.08538C15.1913 8.86177 14.9142 8.74997 14.5837 8.74997H13.417C13.0864 8.74997 12.8094 8.86177 12.5857 9.08538C12.3621 9.309 12.2503 9.58608 12.2503 9.91663V11.6666H10.5003C10.1698 11.6666 9.89269 11.7784 9.66908 12.0021C9.44546 12.2257 9.33366 12.5027 9.33366 12.8333V14C9.33366 14.3305 9.44546 14.6076 9.66908 14.8312C9.89269 15.0548 10.1698 15.1666 10.5003 15.1666H12.2503ZM14.0003 25.55C13.8642 25.55 13.7378 25.5402 13.6212 25.5208C13.5045 25.5014 13.3878 25.4722 13.2712 25.4333C10.6462 24.5583 8.55588 22.9396 7.00033 20.5771C5.44477 18.2146 4.66699 15.6722 4.66699 12.95V7.43747C4.66699 6.95136 4.80796 6.51386 5.08991 6.12497C5.37185 5.73608 5.73644 5.45413 6.18366 5.27913L13.1837 2.65413C13.4559 2.55691 13.7281 2.5083 14.0003 2.5083C14.2725 2.5083 14.5448 2.55691 14.817 2.65413L21.817 5.27913C22.2642 5.45413 22.6288 5.73608 22.9107 6.12497C23.1927 6.51386 23.3337 6.95136 23.3337 7.43747V12.95C23.3337 15.6722 22.5559 18.2146 21.0003 20.5771C19.4448 22.9396 17.3545 24.5583 14.7295 25.4333C14.6128 25.4722 14.4962 25.5014 14.3795 25.5208C14.2628 25.5402 14.1364 25.55 14.0003 25.55ZM14.0003 23.2166C16.0225 22.575 17.6948 21.2916 19.017 19.3666C20.3392 17.4416 21.0003 15.3027 21.0003 12.95V7.43747L14.0003 4.81247L7.00033 7.43747V12.95C7.00033 15.3027 7.66144 17.4416 8.98366 19.3666C10.3059 21.2916 11.9781 22.575 14.0003 23.2166Z" fill="#191919"/>
</svg>
