<svg width="16" height="16" viewBox="0 0 16 16" fill="none" xmlns="http://www.w3.org/2000/svg">
  <path d="M7.96665 11.9987C8.19998 11.9987 8.39731 11.918 8.55865 11.7567C8.71953 11.5958 8.79998 11.3987 8.79998 11.1654C8.79998 10.932 8.71953 10.7349 8.55865 10.574C8.39731 10.4127 8.19998 10.332 7.96665 10.332C7.73331 10.332 7.53598 10.4127 7.37465 10.574C7.21376 10.7349 7.13331 10.932 7.13331 11.1654C7.13331 11.3987 7.21376 11.5958 7.37465 11.7567C7.53598 11.918 7.73331 11.9987 7.96665 11.9987ZM8.06665 5.13203C8.37776 5.13203 8.62776 5.21803 8.81665 5.39003C9.00554 5.56248 9.09998 5.78759 9.09998 6.06536C9.09998 6.25425 9.0362 6.44581 8.90865 6.64003C8.78065 6.8347 8.59998 7.03759 8.36665 7.2487C8.03331 7.53759 7.78887 7.81536 7.63331 8.08203C7.47776 8.3487 7.39998 8.61536 7.39998 8.88203C7.39998 9.03759 7.45842 9.16803 7.57531 9.27336C7.69176 9.37914 7.82776 9.43203 7.98331 9.43203C8.13887 9.43203 8.27776 9.37648 8.39998 9.26536C8.5222 9.15425 8.59998 9.01536 8.63331 8.8487C8.66665 8.65981 8.74176 8.48492 8.85865 8.32403C8.97509 8.1627 9.16665 7.95425 9.43331 7.6987C9.77776 7.37648 10.0195 7.08203 10.1586 6.81536C10.2973 6.5487 10.3666 6.25425 10.3666 5.93203C10.3666 5.36536 10.1529 4.90136 9.72531 4.54003C9.29731 4.17914 8.74442 3.9987 8.06665 3.9987C7.59998 3.9987 7.1862 4.08759 6.82531 4.26536C6.46398 4.44314 6.18331 4.71536 5.98331 5.08203C5.90554 5.22648 5.87776 5.36803 5.89998 5.5067C5.9222 5.64581 5.99998 5.75981 6.13331 5.8487C6.27776 5.93759 6.4362 5.96536 6.60865 5.93203C6.78065 5.8987 6.9222 5.80425 7.03331 5.6487C7.15554 5.48203 7.30287 5.35425 7.47531 5.26536C7.64731 5.17648 7.84442 5.13203 8.06665 5.13203ZM7.99998 14.6654C7.08887 14.6654 6.22776 14.4903 5.41665 14.14C4.60554 13.7903 3.89731 13.3154 3.29198 12.7154C2.6862 12.1154 2.20842 11.4098 1.85865 10.5987C1.50842 9.78759 1.33331 8.92092 1.33331 7.9987C1.33331 7.07648 1.50842 6.20981 1.85865 5.3987C2.20842 4.58759 2.6862 3.88203 3.29198 3.28203C3.89731 2.68203 4.60554 2.20692 5.41665 1.8567C6.22776 1.50692 7.08887 1.33203 7.99998 1.33203C8.93331 1.33203 9.80553 1.50692 10.6166 1.8567C11.4278 2.20692 12.1333 2.68203 12.7333 3.28203C13.3333 3.88203 13.8055 4.58759 14.15 5.3987C14.4944 6.20981 14.6666 7.07648 14.6666 7.9987C14.6666 8.92092 14.4944 9.78759 14.15 10.5987C13.8055 11.4098 13.3333 12.1154 12.7333 12.7154C12.1333 13.3154 11.4278 13.7903 10.6166 14.14C9.80553 14.4903 8.93331 14.6654 7.99998 14.6654ZM7.99998 13.332C9.48887 13.332 10.75 12.8127 11.7833 11.774C12.8166 10.7349 13.3333 9.47647 13.3333 7.9987C13.3333 6.52092 12.8166 5.26248 11.7833 4.22336C10.75 3.1847 9.48887 2.66536 7.99998 2.66536C6.54442 2.66536 5.29153 3.1847 4.24131 4.22336C3.19154 5.26248 2.66665 6.52092 2.66665 7.9987C2.66665 9.47647 3.19154 10.7349 4.24131 11.774C5.29153 12.8127 6.54442 13.332 7.99998 13.332Z" fill="black" />
</svg>
