<svg width="28" height="28" viewBox="0 0 28 28" fill="none" xmlns="http://www.w3.org/2000/svg">
<path d="M13.9413 21.0007C14.3497 21.0007 14.6948 20.8597 14.9768 20.5777C15.2587 20.2958 15.3997 19.9507 15.3997 19.5423C15.3997 19.134 15.2587 18.7888 14.9768 18.5069C14.6948 18.225 14.3497 18.084 13.9413 18.084C13.533 18.084 13.1879 18.225 12.9059 18.5069C12.624 18.7888 12.483 19.134 12.483 19.5423C12.483 19.9507 12.624 20.2958 12.9059 20.5777C13.1879 20.8597 13.533 21.0007 13.9413 21.0007ZM13.9997 25.6673C12.3858 25.6673 10.8691 25.3611 9.44967 24.7486C8.03023 24.1361 6.79551 23.3048 5.74551 22.2548C4.69551 21.2048 3.86426 19.9701 3.25176 18.5507C2.63926 17.1312 2.33301 15.6145 2.33301 14.0007C2.33301 12.3868 2.63926 10.8701 3.25176 9.45065C3.86426 8.03121 4.69551 6.79648 5.74551 5.74648C6.79551 4.69648 8.03023 3.86523 9.44967 3.25273C10.8691 2.64023 12.3858 2.33398 13.9997 2.33398C15.6136 2.33398 17.1302 2.64023 18.5497 3.25273C19.9691 3.86523 21.2038 4.69648 22.2538 5.74648C23.3038 6.79648 24.1351 8.03121 24.7476 9.45065C25.3601 10.8701 25.6663 12.3868 25.6663 14.0007C25.6663 15.6145 25.3601 17.1312 24.7476 18.5507C24.1351 19.9701 23.3038 21.2048 22.2538 22.2548C21.2038 23.3048 19.9691 24.1361 18.5497 24.7486C17.1302 25.3611 15.6136 25.6673 13.9997 25.6673ZM14.1163 8.98398C14.6025 8.98398 15.0254 9.13954 15.3851 9.45065C15.7448 9.76176 15.9247 10.1507 15.9247 10.6173C15.9247 11.0451 15.7934 11.4243 15.5309 11.7548C15.2684 12.0854 14.9719 12.3965 14.6413 12.6882C14.1941 13.077 13.8004 13.5048 13.4601 13.9715C13.1198 14.4382 12.9497 14.9632 12.9497 15.5465C12.9497 15.8187 13.0518 16.0472 13.2559 16.2319C13.4601 16.4166 13.6983 16.509 13.9705 16.509C14.2622 16.509 14.5101 16.4118 14.7143 16.2173C14.9184 16.0229 15.0497 15.7798 15.108 15.4882C15.1858 15.0798 15.3608 14.7152 15.633 14.3944C15.9052 14.0736 16.1969 13.7673 16.508 13.4757C16.9552 13.0479 17.3393 12.5812 17.6601 12.0757C17.9809 11.5701 18.1413 11.0062 18.1413 10.384C18.1413 9.39232 17.7379 8.58051 16.9309 7.94857C16.124 7.31662 15.1858 7.00065 14.1163 7.00065C13.3775 7.00065 12.6726 7.15621 12.0018 7.46732C11.3309 7.77843 10.8205 8.25482 10.4705 8.89648C10.3344 9.12982 10.2906 9.37773 10.3393 9.64023C10.3879 9.90273 10.5191 10.102 10.733 10.2382C11.0052 10.3937 11.2872 10.4423 11.5788 10.384C11.8705 10.3257 12.1136 10.1604 12.308 9.88815C12.5219 9.59648 12.7893 9.37287 13.1101 9.21732C13.4309 9.06176 13.7663 8.98398 14.1163 8.98398Z" fill="black"/>
</svg>
