<svg width="28" height="28" viewBox="0 0 28 28" fill="none" xmlns="http://www.w3.org/2000/svg">
  <path d="M13.9417 20.9999C14.35 20.9999 14.6953 20.8588 14.9777 20.5764C15.2592 20.2949 15.4 19.9499 15.4 19.5416C15.4 19.1333 15.2592 18.7883 14.9777 18.5068C14.6953 18.2244 14.35 18.0833 13.9417 18.0833C13.5333 18.0833 13.188 18.2244 12.9057 18.5068C12.6241 18.7883 12.4833 19.1333 12.4833 19.5416C12.4833 19.9499 12.6241 20.2949 12.9057 20.5764C13.188 20.8588 13.5333 20.9999 13.9417 20.9999ZM14.1167 8.98325C14.6611 8.98325 15.0986 9.13375 15.4292 9.43475C15.7597 9.73653 15.925 10.1305 15.925 10.6166C15.925 10.9471 15.8134 11.2824 15.5902 11.6223C15.3662 11.9629 15.05 12.318 14.6417 12.6874C14.0583 13.193 13.6306 13.6791 13.3583 14.1458C13.0861 14.6124 12.95 15.0791 12.95 15.5458C12.95 15.818 13.0523 16.0463 13.2568 16.2306C13.4606 16.4157 13.6986 16.5083 13.9708 16.5083C14.2431 16.5083 14.4861 16.411 14.7 16.2166C14.9139 16.0221 15.05 15.7791 15.1083 15.4874C15.1667 15.1569 15.2981 14.8508 15.5027 14.5693C15.7064 14.2869 16.0417 13.9221 16.5083 13.4749C17.1111 12.911 17.5342 12.3958 17.7777 11.9291C18.0203 11.4624 18.1417 10.9471 18.1417 10.3833C18.1417 9.39159 17.7676 8.57959 17.0193 7.94725C16.2703 7.3157 15.3028 6.99992 14.1167 6.99992C13.3 6.99992 12.5759 7.15547 11.9443 7.46659C11.312 7.7777 10.8208 8.25409 10.4708 8.89575C10.3347 9.14853 10.2861 9.39625 10.325 9.63892C10.3639 9.88236 10.5 10.0819 10.7333 10.2374C10.9861 10.393 11.2634 10.4416 11.5652 10.3833C11.8662 10.3249 12.1139 10.1596 12.3083 9.88742C12.5222 9.59575 12.7801 9.37214 13.0818 9.21659C13.3828 9.06103 13.7278 8.98325 14.1167 8.98325ZM14 25.6666C12.4056 25.6666 10.8986 25.3601 9.47917 24.7473C8.05973 24.1351 6.82034 23.3041 5.761 22.2541C4.70089 21.2041 3.86478 19.9694 3.25267 18.5499C2.63978 17.1305 2.33334 15.6138 2.33334 13.9999C2.33334 12.386 2.63978 10.8694 3.25267 9.44992C3.86478 8.03048 4.70089 6.79575 5.761 5.74575C6.82034 4.69575 8.05973 3.86431 9.47917 3.25142C10.8986 2.63931 12.4056 2.33325 14 2.33325C15.6333 2.33325 17.1597 2.63931 18.5792 3.25142C19.9986 3.86431 21.2333 4.69575 22.2833 5.74575C23.3333 6.79575 24.1597 8.03048 24.7625 9.44992C25.3653 10.8694 25.6667 12.386 25.6667 13.9999C25.6667 15.6138 25.3653 17.1305 24.7625 18.5499C24.1597 19.9694 23.3333 21.2041 22.2833 22.2541C21.2333 23.3041 19.9986 24.1351 18.5792 24.7473C17.1597 25.3601 15.6333 25.6666 14 25.6666ZM14 23.3333C16.6056 23.3333 18.8125 22.4244 20.6208 20.6068C22.4292 18.7883 23.3333 16.586 23.3333 13.9999C23.3333 11.4138 22.4292 9.21153 20.6208 7.39309C18.8125 5.57542 16.6056 4.66659 14 4.66659C11.4528 4.66659 9.26023 5.57542 7.42234 7.39309C5.58523 9.21153 4.66667 11.4138 4.66667 13.9999C4.66667 16.586 5.58523 18.7883 7.42234 20.6068C9.26023 22.4244 11.4528 23.3333 14 23.3333Z" fill="black" />
</svg>
