<svg width="16" height="16" viewBox="0 0 16 16" fill="none" xmlns="http://www.w3.org/2000/svg">
<path d="M7.96634 12.0007C8.19967 12.0007 8.3969 11.9201 8.55801 11.759C8.71912 11.5979 8.79967 11.4007 8.79967 11.1673C8.79967 10.934 8.71912 10.7368 8.55801 10.5757C8.3969 10.4145 8.19967 10.334 7.96634 10.334C7.73301 10.334 7.53579 10.4145 7.37467 10.5757C7.21356 10.7368 7.13301 10.934 7.13301 11.1673C7.13301 11.4007 7.21356 11.5979 7.37467 11.759C7.53579 11.9201 7.73301 12.0007 7.96634 12.0007ZM7.99967 14.6673C7.07745 14.6673 6.21079 14.4923 5.39967 14.1423C4.58856 13.7923 3.88301 13.3173 3.28301 12.7173C2.68301 12.1173 2.20801 11.4118 1.85801 10.6007C1.50801 9.78954 1.33301 8.92287 1.33301 8.00065C1.33301 7.07843 1.50801 6.21176 1.85801 5.40065C2.20801 4.58954 2.68301 3.88398 3.28301 3.28398C3.88301 2.68398 4.58856 2.20898 5.39967 1.85898C6.21079 1.50898 7.07745 1.33398 7.99967 1.33398C8.9219 1.33398 9.78856 1.50898 10.5997 1.85898C11.4108 2.20898 12.1163 2.68398 12.7163 3.28398C13.3163 3.88398 13.7913 4.58954 14.1413 5.40065C14.4913 6.21176 14.6663 7.07843 14.6663 8.00065C14.6663 8.92287 14.4913 9.78954 14.1413 10.6007C13.7913 11.4118 13.3163 12.1173 12.7163 12.7173C12.1163 13.3173 11.4108 13.7923 10.5997 14.1423C9.78856 14.4923 8.9219 14.6673 7.99967 14.6673ZM8.06634 5.13398C8.34412 5.13398 8.58579 5.22287 8.79134 5.40065C8.9969 5.57843 9.09967 5.80065 9.09967 6.06732C9.09967 6.31176 9.02467 6.52843 8.87467 6.71732C8.72467 6.90621 8.55523 7.08398 8.36634 7.25065C8.11079 7.47287 7.88579 7.71732 7.69134 7.98398C7.4969 8.25065 7.39967 8.55065 7.39967 8.88398C7.39967 9.03954 7.45801 9.1701 7.57467 9.27565C7.69134 9.38121 7.82745 9.43398 7.98301 9.43398C8.14967 9.43398 8.29134 9.37843 8.40801 9.26732C8.52467 9.15621 8.59967 9.01732 8.63301 8.85065C8.67745 8.61732 8.77745 8.40898 8.93301 8.22565C9.08856 8.04232 9.25523 7.86732 9.43301 7.70065C9.68856 7.45621 9.90801 7.18954 10.0913 6.90065C10.2747 6.61176 10.3663 6.28954 10.3663 5.93398C10.3663 5.36732 10.1358 4.90343 9.67467 4.54232C9.21356 4.18121 8.67745 4.00065 8.06634 4.00065C7.64412 4.00065 7.24134 4.08954 6.85801 4.26732C6.47467 4.4451 6.18301 4.71732 5.98301 5.08398C5.90523 5.21732 5.88023 5.35898 5.90801 5.50898C5.93579 5.65898 6.01079 5.77287 6.13301 5.85065C6.28856 5.93954 6.44967 5.96732 6.61634 5.93398C6.78301 5.90065 6.9219 5.80621 7.03301 5.65065C7.15523 5.48398 7.30801 5.35621 7.49134 5.26732C7.67467 5.17843 7.86634 5.13398 8.06634 5.13398Z" fill="black"/>
</svg>
