<svg width="28" height="28" viewBox="0 0 28 28" fill="none" xmlns="http://www.w3.org/2000/svg">
<path d="M22.1667 15.1667C21.8362 15.1667 21.5591 15.0548 21.3355 14.8312C21.1118 14.6076 21 14.3305 21 14C21 13.6694 21.1118 13.3923 21.3355 13.1687C21.5591 12.9451 21.8362 12.8333 22.1667 12.8333H24.5C24.8306 12.8333 25.1077 12.9451 25.3313 13.1687C25.5549 13.3923 25.6667 13.6694 25.6667 14C25.6667 14.3305 25.5549 14.6076 25.3313 14.8312C25.1077 15.0548 24.8306 15.1667 24.5 15.1667H22.1667ZM21.4667 22.6333L19.6 21.2333C19.3278 21.0389 19.1723 20.7861 19.1334 20.475C19.0945 20.1639 19.1723 19.8722 19.3667 19.6C19.5612 19.3278 19.8139 19.1722 20.125 19.1333C20.4362 19.0944 20.7278 19.1722 21 19.3667L22.8667 20.7667C23.1389 20.9611 23.2945 21.2139 23.3334 21.525C23.3723 21.8361 23.2945 22.1278 23.1 22.4C22.9056 22.6722 22.6528 22.8278 22.3417 22.8667C22.0306 22.9055 21.7389 22.8278 21.4667 22.6333ZM21 8.63332C20.7278 8.82776 20.4362 8.90554 20.125 8.86665C19.8139 8.82776 19.5612 8.67221 19.3667 8.39999C19.1723 8.12776 19.0945 7.8361 19.1334 7.52499C19.1723 7.21387 19.3278 6.9611 19.6 6.76665L21.4667 5.36665C21.7389 5.17221 22.0306 5.09443 22.3417 5.13332C22.6528 5.17221 22.9056 5.32776 23.1 5.59999C23.2945 5.87221 23.3723 6.16387 23.3334 6.47499C23.2945 6.7861 23.1389 7.03887 22.8667 7.23332L21 8.63332ZM5.83337 22.1667V17.5H4.66671C4.02504 17.5 3.47574 17.2715 3.01879 16.8146C2.56185 16.3576 2.33337 15.8083 2.33337 15.1667V12.8333C2.33337 12.1917 2.56185 11.6423 3.01879 11.1854C3.47574 10.7285 4.02504 10.5 4.66671 10.5H9.33337L13.3875 8.04999C13.7764 7.81665 14.1702 7.81665 14.5688 8.04999C14.9674 8.28332 15.1667 8.6236 15.1667 9.07082V18.9292C15.1667 19.3764 14.9674 19.7167 14.5688 19.95C14.1702 20.1833 13.7764 20.1833 13.3875 19.95L9.33337 17.5H8.16671V22.1667H5.83337ZM16.3334 17.9083V10.0917C16.8584 10.5583 17.2813 11.1271 17.6021 11.7979C17.923 12.4687 18.0834 13.2028 18.0834 14C18.0834 14.7972 17.923 15.5312 17.6021 16.2021C17.2813 16.8729 16.8584 17.4417 16.3334 17.9083Z" fill="black"/>
</svg>
