<svg width="16" height="16" viewBox="0 0 16 16" fill="none" xmlns="http://www.w3.org/2000/svg">
<path d="M12.6667 8.66665C12.4778 8.66665 12.3195 8.60277 12.1917 8.47499C12.0639 8.34721 12 8.18888 12 7.99999C12 7.8111 12.0639 7.65277 12.1917 7.52499C12.3195 7.39721 12.4778 7.33332 12.6667 7.33332H14C14.1889 7.33332 14.3473 7.39721 14.475 7.52499C14.6028 7.65277 14.6667 7.8111 14.6667 7.99999C14.6667 8.18888 14.6028 8.34721 14.475 8.47499C14.3473 8.60277 14.1889 8.66665 14 8.66665H12.6667ZM12.2667 12.9333L11.2 12.1333C11.0445 12.0222 10.9556 11.8778 10.9334 11.7C10.9112 11.5222 10.9556 11.3555 11.0667 11.2C11.1778 11.0444 11.3223 10.9555 11.5 10.9333C11.6778 10.9111 11.8445 10.9555 12 11.0667L13.0667 11.8667C13.2223 11.9778 13.3112 12.1222 13.3334 12.3C13.3556 12.4778 13.3112 12.6444 13.2 12.8C13.0889 12.9555 12.9445 13.0444 12.7667 13.0667C12.5889 13.0889 12.4223 13.0444 12.2667 12.9333ZM12 4.93332C11.8445 5.04443 11.6778 5.08888 11.5 5.06665C11.3223 5.04443 11.1778 4.95554 11.0667 4.79999C10.9556 4.64443 10.9112 4.47776 10.9334 4.29999C10.9556 4.12221 11.0445 3.97776 11.2 3.86665L12.2667 3.06665C12.4223 2.95554 12.5889 2.9111 12.7667 2.93332C12.9445 2.95554 13.0889 3.04443 13.2 3.19999C13.3112 3.35554 13.3556 3.52221 13.3334 3.69999C13.3112 3.87776 13.2223 4.02221 13.0667 4.13332L12 4.93332ZM3.33337 12.6667V9.99999H2.66671C2.30004 9.99999 1.98615 9.86943 1.72504 9.60832C1.46393 9.34721 1.33337 9.03332 1.33337 8.66665V7.33332C1.33337 6.96665 1.46393 6.65277 1.72504 6.39165C1.98615 6.13054 2.30004 5.99999 2.66671 5.99999H5.33337L7.65004 4.59999C7.87226 4.46665 8.09726 4.46665 8.32504 4.59999C8.55282 4.73332 8.66671 4.92776 8.66671 5.18332V10.8167C8.66671 11.0722 8.55282 11.2667 8.32504 11.4C8.09726 11.5333 7.87226 11.5333 7.65004 11.4L5.33337 9.99999H4.66671V12.6667H3.33337ZM9.33337 10.2333V5.76665C9.63337 6.03332 9.87504 6.35832 10.0584 6.74165C10.2417 7.12499 10.3334 7.54443 10.3334 7.99999C10.3334 8.45554 10.2417 8.87499 10.0584 9.25832C9.87504 9.64165 9.63337 9.96665 9.33337 10.2333Z" fill="black"/>
</svg>
