<svg width="28" height="28" viewBox="0 0 28 28" fill="none" xmlns="http://www.w3.org/2000/svg">
<path d="M14 24.5C11.55 24.5 9.38194 23.7563 7.49583 22.2687C5.60972 20.7812 4.38472 18.8806 3.82083 16.5667C3.74306 16.275 3.80139 16.0076 3.99583 15.7646C4.19028 15.5215 4.45278 15.3806 4.78333 15.3417C5.09444 15.3028 5.37639 15.3611 5.62917 15.5167C5.88194 15.6722 6.05694 15.9056 6.15417 16.2167C6.62083 17.9667 7.58333 19.3958 9.04167 20.5042C10.5 21.6125 12.1528 22.1667 14 22.1667C16.275 22.1667 18.2049 21.3743 19.7896 19.7896C21.3743 18.2049 22.1667 16.275 22.1667 14C22.1667 11.725 21.3743 9.79514 19.7896 8.21042C18.2049 6.62569 16.275 5.83333 14 5.83333C12.6583 5.83333 11.4042 6.14444 10.2375 6.76667C9.07083 7.38889 8.08889 8.24444 7.29167 9.33333H9.33333C9.66389 9.33333 9.94097 9.44514 10.1646 9.66875C10.3882 9.89236 10.5 10.1694 10.5 10.5C10.5 10.8306 10.3882 11.1076 10.1646 11.3313C9.94097 11.5549 9.66389 11.6667 9.33333 11.6667H4.66667C4.33611 11.6667 4.05903 11.5549 3.83542 11.3313C3.61181 11.1076 3.5 10.8306 3.5 10.5V5.83333C3.5 5.50278 3.61181 5.22569 3.83542 5.00208C4.05903 4.77847 4.33611 4.66667 4.66667 4.66667C4.99722 4.66667 5.27431 4.77847 5.49792 5.00208C5.72153 5.22569 5.83333 5.50278 5.83333 5.83333V7.40833C6.825 6.16389 8.03542 5.20139 9.46458 4.52083C10.8938 3.84028 12.4056 3.5 14 3.5C15.4583 3.5 16.8243 3.77708 18.0979 4.33125C19.3715 4.88542 20.4799 5.63403 21.4229 6.57708C22.366 7.52014 23.1146 8.62847 23.6688 9.90208C24.2229 11.1757 24.5 12.5417 24.5 14C24.5 15.4583 24.2229 16.8243 23.6688 18.0979C23.1146 19.3715 22.366 20.4799 21.4229 21.4229C20.4799 22.366 19.3715 23.1146 18.0979 23.6688C16.8243 24.2229 15.4583 24.5 14 24.5ZM15.1667 13.5333L18.0833 16.45C18.2972 16.6639 18.4042 16.9361 18.4042 17.2667C18.4042 17.5972 18.2972 17.8694 18.0833 18.0833C17.8694 18.2972 17.5972 18.4042 17.2667 18.4042C16.9361 18.4042 16.6639 18.2972 16.45 18.0833L13.1833 14.8167C13.0667 14.7 12.9792 14.5688 12.9208 14.4229C12.8625 14.2771 12.8333 14.1264 12.8333 13.9708V9.33333C12.8333 9.00278 12.9451 8.72569 13.1687 8.50208C13.3924 8.27847 13.6694 8.16667 14 8.16667C14.3306 8.16667 14.6076 8.27847 14.8313 8.50208C15.0549 8.72569 15.1667 9.00278 15.1667 9.33333V13.5333Z" fill="#191919"/>
</svg>
