<svg width="16" height="16" viewBox="0 0 16 16" fill="none" xmlns="http://www.w3.org/2000/svg">
<path d="M2.66663 12.6663V6.66634C2.66663 6.45523 2.71385 6.25523 2.80829 6.06634C2.90274 5.87745 3.03329 5.7219 3.19996 5.59967L7.19996 2.59967C7.43329 2.4219 7.69996 2.33301 7.99996 2.33301C8.29996 2.33301 8.56663 2.4219 8.79996 2.59967L12.8 5.59967C12.9666 5.7219 13.0972 5.87745 13.1916 6.06634C13.2861 6.25523 13.3333 6.45523 13.3333 6.66634V12.6663C13.3333 13.033 13.2027 13.3469 12.9416 13.608C12.6805 13.8691 12.3666 13.9997 12 13.9997H9.99996C9.81107 13.9997 9.65274 13.9358 9.52496 13.808C9.39718 13.6802 9.33329 13.5219 9.33329 13.333V9.99967C9.33329 9.81079 9.2694 9.65245 9.14163 9.52467C9.01385 9.3969 8.85552 9.33301 8.66663 9.33301H7.33329C7.1444 9.33301 6.98607 9.3969 6.85829 9.52467C6.73052 9.65245 6.66663 9.81079 6.66663 9.99967V13.333C6.66663 13.5219 6.60274 13.6802 6.47496 13.808C6.34718 13.9358 6.18885 13.9997 5.99996 13.9997H3.99996C3.63329 13.9997 3.3194 13.8691 3.05829 13.608C2.79718 13.3469 2.66663 13.033 2.66663 12.6663Z" fill="#191919"/>
</svg>
