<svg width="16" height="16" viewBox="0 0 16 16" fill="none" xmlns="http://www.w3.org/2000/svg">
<path d="M4.00002 12.6667H6.00002V8.66667H10V12.6667H12V6.66667L8.00002 3.66667L4.00002 6.66667V12.6667ZM4.00002 14C3.63335 14 3.31946 13.8694 3.05835 13.6083C2.79724 13.3472 2.66669 13.0333 2.66669 12.6667V6.66667C2.66669 6.45555 2.71391 6.25555 2.80835 6.06667C2.9028 5.87778 3.03335 5.72222 3.20002 5.6L7.20002 2.6C7.32224 2.51111 7.45002 2.44444 7.58335 2.4C7.71669 2.35555 7.85558 2.33333 8.00002 2.33333C8.14446 2.33333 8.28335 2.35555 8.41669 2.4C8.55002 2.44444 8.6778 2.51111 8.80002 2.6L12.8 5.6C12.9667 5.72222 13.0972 5.87778 13.1917 6.06667C13.2861 6.25555 13.3334 6.45555 13.3334 6.66667V12.6667C13.3334 13.0333 13.2028 13.3472 12.9417 13.6083C12.6806 13.8694 12.3667 14 12 14H8.66669V10H7.33335V14H4.00002Z" fill="black"/>
</svg>
