<svg width="28" height="28" viewBox="0 0 28 28" fill="none" xmlns="http://www.w3.org/2000/svg">
<path d="M4.66663 22.1663V11.6663C4.66663 11.2969 4.74926 10.9469 4.91454 10.6163C5.07982 10.2858 5.30829 10.0136 5.59996 9.79967L12.6 4.54967C13.0083 4.23856 13.475 4.08301 14 4.08301C14.525 4.08301 14.9916 4.23856 15.4 4.54967L22.4 9.79967C22.6916 10.0136 22.9201 10.2858 23.0854 10.6163C23.2507 10.9469 23.3333 11.2969 23.3333 11.6663V22.1663C23.3333 22.808 23.1048 23.3573 22.6479 23.8143C22.1909 24.2712 21.6416 24.4997 21 24.4997H17.5C17.1694 24.4997 16.8923 24.3879 16.6687 24.1643C16.4451 23.9406 16.3333 23.6636 16.3333 23.333V17.4997C16.3333 17.1691 16.2215 16.892 15.9979 16.6684C15.7743 16.4448 15.4972 16.333 15.1666 16.333H12.8333C12.5027 16.333 12.2257 16.4448 12.002 16.6684C11.7784 16.892 11.6666 17.1691 11.6666 17.4997V23.333C11.6666 23.6636 11.5548 23.9406 11.3312 24.1643C11.1076 24.3879 10.8305 24.4997 10.5 24.4997H6.99996C6.35829 24.4997 5.80899 24.2712 5.35204 23.8143C4.8951 23.3573 4.66663 22.808 4.66663 22.1663Z" fill="#191919"/>
</svg>
