<svg width="16" height="16" viewBox="0 0 16 16" fill="none" xmlns="http://www.w3.org/2000/svg">
<path d="M3.99996 14C3.63329 14 3.3194 13.8694 3.05829 13.6083C2.79718 13.3472 2.66663 13.0333 2.66663 12.6667V6.66667C2.66663 6.45556 2.71385 6.25556 2.80829 6.06667C2.90274 5.87778 3.03329 5.72222 3.19996 5.6L7.19996 2.6C7.32218 2.51111 7.44996 2.44445 7.58329 2.4C7.71663 2.35556 7.85552 2.33334 7.99996 2.33334C8.1444 2.33334 8.28329 2.35556 8.41663 2.4C8.54996 2.44445 8.67774 2.51111 8.79996 2.6L12.8 5.6C12.9666 5.72222 13.0972 5.87778 13.1916 6.06667C13.2861 6.25556 13.3333 6.45556 13.3333 6.66667V12.6667C13.3333 13.0333 13.2027 13.3472 12.9416 13.6083C12.6805 13.8694 12.3666 14 12 14H9.33329V9.33334H6.66663V14H3.99996Z" fill="black"/>
</svg>
