<svg width="28" height="28" viewBox="0 0 28 28" fill="none" xmlns="http://www.w3.org/2000/svg">
<path d="M6.99999 22.1667H10.5V15.1667H17.5V22.1667H21V11.6667L14 6.41667L6.99999 11.6667V22.1667ZM6.99999 24.5C6.35832 24.5 5.80902 24.2715 5.35207 23.8146C4.89513 23.3576 4.66666 22.8083 4.66666 22.1667V11.6667C4.66666 11.2972 4.7493 10.9472 4.91457 10.6167C5.07985 10.2861 5.30832 10.0139 5.59999 9.8L12.6 4.55C12.8139 4.39445 13.0375 4.27778 13.2708 4.2C13.5042 4.12222 13.7472 4.08334 14 4.08334C14.2528 4.08334 14.4958 4.12222 14.7292 4.2C14.9625 4.27778 15.1861 4.39445 15.4 4.55L22.4 9.8C22.6917 10.0139 22.9201 10.2861 23.0854 10.6167C23.2507 10.9472 23.3333 11.2972 23.3333 11.6667V22.1667C23.3333 22.8083 23.1049 23.3576 22.6479 23.8146C22.191 24.2715 21.6417 24.5 21 24.5H15.1667V17.5H12.8333V24.5H6.99999Z" fill="black"/>
</svg>
