<svg width="24" height="24" viewBox="0 0 24 24" fill="none" xmlns="http://www.w3.org/2000/svg">
<path d="M4 21C3.71667 21 3.47917 20.9042 3.2875 20.7125C3.09583 20.5208 3 20.2833 3 20C3 19.7167 3.09583 19.4792 3.2875 19.2875C3.47917 19.0958 3.71667 19 4 19H20C20.2833 19 20.5208 19.0958 20.7125 19.2875C20.9042 19.4792 21 19.7167 21 20C21 20.2833 20.9042 20.5208 20.7125 20.7125C20.5208 20.9042 20.2833 21 20 21H4ZM5.425 11.4C4.94167 10.95 4.5875 10.4167 4.3625 9.8C4.1375 9.18333 4.025 8.55 4.025 7.9C4.025 6.55 4.4875 5.39583 5.4125 4.4375C6.3375 3.47917 7.46667 3 8.8 3C9.4 3 9.975 3.10833 10.525 3.325C11.075 3.54167 11.5667 3.85833 12 4.275C12.4333 3.85833 12.925 3.54167 13.475 3.325C14.025 3.10833 14.6 3 15.2 3C16.55 3 17.6875 3.48333 18.6125 4.45C19.5375 5.41667 20 6.575 20 7.925C20 8.575 19.8792 9.19583 19.6375 9.7875C19.3958 10.3792 19.05 10.9083 18.6 11.375L13.375 16.45C13.1917 16.6333 12.9833 16.7708 12.75 16.8625C12.5167 16.9542 12.2667 17 12 17C11.7333 17 11.4833 16.9542 11.25 16.8625C11.0167 16.7708 10.8083 16.6333 10.625 16.45L5.425 11.4ZM6.825 10L12 15L17.2 9.975C17.4833 9.70833 17.6917 9.39583 17.825 9.0375C17.9583 8.67917 18.025 8.30833 18.025 7.925C18.025 7.125 17.7542 6.44167 17.2125 5.875C16.6708 5.30833 16.0083 5.025 15.225 5.025C14.8583 5.025 14.5042 5.09583 14.1625 5.2375C13.8208 5.37917 13.525 5.58333 13.275 5.85L12.725 6.4C12.625 6.5 12.5125 6.575 12.3875 6.625C12.2625 6.675 12.1333 6.7 12 6.7C11.8667 6.7 11.7417 6.675 11.625 6.625C11.5083 6.575 11.4 6.5 11.3 6.4L10.75 5.85C10.4833 5.58333 10.1875 5.375 9.8625 5.225C9.5375 5.075 9.18333 5 8.8 5C8.01667 5 7.35417 5.28333 6.8125 5.85C6.27083 6.41667 6 7.1 6 7.9C6 8.28333 6.06667 8.65833 6.2 9.025C6.33333 9.39167 6.54167 9.71667 6.825 10Z" fill="black"/>
</svg>
