<svg width="16" height="16" viewBox="0 0 16 16" fill="none" xmlns="http://www.w3.org/2000/svg">
<path d="M2.66667 14C2.47778 14 2.31944 13.9361 2.19167 13.8083C2.06389 13.6806 2 13.5222 2 13.3333C2 13.1444 2.06389 12.9861 2.19167 12.8583C2.31944 12.7306 2.47778 12.6667 2.66667 12.6667H13.3333C13.5222 12.6667 13.6806 12.7306 13.8083 12.8583C13.9361 12.9861 14 13.1444 14 13.3333C14 13.5222 13.9361 13.6806 13.8083 13.8083C13.6806 13.9361 13.5222 14 13.3333 14H2.66667ZM3.61667 7.6C3.29444 7.3 3.05833 6.94444 2.90833 6.53333C2.75833 6.12222 2.68333 5.7 2.68333 5.26667C2.68333 4.36667 2.99167 3.59722 3.60833 2.95833C4.225 2.31944 4.97778 2 5.86667 2C6.26667 2 6.65 2.07222 7.01667 2.21667C7.38333 2.36111 7.71111 2.57222 8 2.85C8.28889 2.57222 8.61667 2.36111 8.98333 2.21667C9.35 2.07222 9.73333 2 10.1333 2C11.0333 2 11.7917 2.32222 12.4083 2.96667C13.025 3.61111 13.3333 4.38333 13.3333 5.28333C13.3333 5.71667 13.2528 6.13056 13.0917 6.525C12.9306 6.91944 12.7 7.27222 12.4 7.58333L8.91667 10.9667C8.79444 11.0889 8.65556 11.1806 8.5 11.2417C8.34444 11.3028 8.17778 11.3333 8 11.3333C7.82222 11.3333 7.65556 11.3028 7.5 11.2417C7.34444 11.1806 7.20556 11.0889 7.08333 10.9667L3.61667 7.6ZM4.55 6.66667L8 10L11.4667 6.65C11.6556 6.47222 11.7944 6.26389 11.8833 6.025C11.9722 5.78611 12.0167 5.53889 12.0167 5.28333C12.0167 4.75 11.8361 4.29444 11.475 3.91667C11.1139 3.53889 10.6722 3.35 10.15 3.35C9.90556 3.35 9.66944 3.39722 9.44167 3.49167C9.21389 3.58611 9.01667 3.72222 8.85 3.9L8.48333 4.26667C8.41667 4.33333 8.34167 4.38333 8.25833 4.41667C8.175 4.45 8.08889 4.46667 8 4.46667C7.91111 4.46667 7.82778 4.45 7.75 4.41667C7.67222 4.38333 7.6 4.33333 7.53333 4.26667L7.16667 3.9C6.98889 3.72222 6.79167 3.58333 6.575 3.48333C6.35833 3.38333 6.12222 3.33333 5.86667 3.33333C5.34444 3.33333 4.90278 3.52222 4.54167 3.9C4.18056 4.27778 4 4.73333 4 5.26667C4 5.52222 4.04444 5.77222 4.13333 6.01667C4.22222 6.26111 4.36111 6.47778 4.55 6.66667Z" fill="black"/>
</svg>
