<svg width="28" height="28" viewBox="0 0 28 28" fill="none" xmlns="http://www.w3.org/2000/svg">
<path d="M4.66667 24.5C4.33611 24.5 4.05903 24.3882 3.83542 24.1646C3.61181 23.941 3.5 23.6639 3.5 23.3333C3.5 23.0028 3.61181 22.7257 3.83542 22.5021C4.05903 22.2785 4.33611 22.1667 4.66667 22.1667H23.3333C23.6639 22.1667 23.941 22.2785 24.1646 22.5021C24.3882 22.7257 24.5 23.0028 24.5 23.3333C24.5 23.6639 24.3882 23.941 24.1646 24.1646C23.941 24.3882 23.6639 24.5 23.3333 24.5H4.66667ZM6.32917 13.3C5.76528 12.775 5.35208 12.1528 5.08958 11.4333C4.82708 10.7139 4.69583 9.975 4.69583 9.21667C4.69583 7.64167 5.23542 6.29514 6.31458 5.17708C7.39375 4.05903 8.71111 3.5 10.2667 3.5C10.9667 3.5 11.6375 3.62639 12.2792 3.87917C12.9208 4.13194 13.4944 4.50139 14 4.9875C14.5056 4.50139 15.0792 4.13194 15.7208 3.87917C16.3625 3.62639 17.0333 3.5 17.7333 3.5C19.3083 3.5 20.6354 4.06389 21.7146 5.19167C22.7938 6.31944 23.3333 7.67083 23.3333 9.24583C23.3333 10.0042 23.1924 10.7285 22.9104 11.4188C22.6285 12.109 22.225 12.7264 21.7 13.2708L15.6042 19.1917C15.3903 19.4056 15.1472 19.566 14.875 19.6729C14.6028 19.7799 14.3111 19.8333 14 19.8333C13.6889 19.8333 13.3972 19.7799 13.125 19.6729C12.8528 19.566 12.6097 19.4056 12.3958 19.1917L6.32917 13.3ZM7.9625 11.6667L14 17.5L20.0667 11.6375C20.3972 11.3264 20.6403 10.9618 20.7958 10.5438C20.9514 10.1257 21.0292 9.69306 21.0292 9.24583C21.0292 8.3125 20.7132 7.51528 20.0813 6.85417C19.4493 6.19306 18.6764 5.8625 17.7625 5.8625C17.3347 5.8625 16.9215 5.94514 16.5229 6.11042C16.1243 6.27569 15.7792 6.51389 15.4875 6.825L14.8458 7.46667C14.7292 7.58333 14.5979 7.67083 14.4521 7.72917C14.3063 7.7875 14.1556 7.81667 14 7.81667C13.8444 7.81667 13.6986 7.7875 13.5625 7.72917C13.4264 7.67083 13.3 7.58333 13.1833 7.46667L12.5417 6.825C12.2306 6.51389 11.8854 6.27083 11.5063 6.09583C11.1271 5.92083 10.7139 5.83333 10.2667 5.83333C9.35278 5.83333 8.57986 6.16389 7.94792 6.825C7.31597 7.48611 7 8.28333 7 9.21667C7 9.66389 7.07778 10.1014 7.23333 10.5292C7.38889 10.9569 7.63194 11.3361 7.9625 11.6667Z" fill="black"/>
</svg>
