<svg width="28" height="28" viewBox="0 0 28 28" fill="none" xmlns="http://www.w3.org/2000/svg">
<path d="M8.16667 19.8333H19.8333C20.0667 19.8333 20.2417 19.7264 20.3583 19.5125C20.475 19.2986 20.4556 19.0944 20.3 18.9L17.0917 14.6125C16.975 14.4569 16.8194 14.3792 16.625 14.3792C16.4306 14.3792 16.275 14.4569 16.1583 14.6125L13.125 18.6667L10.9667 15.7792C10.85 15.6236 10.6944 15.5458 10.5 15.5458C10.3056 15.5458 10.15 15.6236 10.0333 15.7792L7.7 18.9C7.54444 19.0944 7.525 19.2986 7.64167 19.5125C7.75833 19.7264 7.93333 19.8333 8.16667 19.8333ZM5.83333 24.5C5.19167 24.5 4.64217 24.2717 4.18483 23.8152C3.72828 23.3578 3.5 22.8083 3.5 22.1667V5.83333C3.5 5.19167 3.72828 4.64217 4.18483 4.18483C4.64217 3.72828 5.19167 3.5 5.83333 3.5H22.1667C22.8083 3.5 23.3578 3.72828 23.8152 4.18483C24.2717 4.64217 24.5 5.19167 24.5 5.83333V22.1667C24.5 22.8083 24.2717 23.3578 23.8152 23.8152C23.3578 24.2717 22.8083 24.5 22.1667 24.5H5.83333Z" fill="black"/>
</svg>
