<svg width="24" height="24" viewBox="0 0 24 24" fill="none" xmlns="http://www.w3.org/2000/svg">
<path d="M7 17H17C17.2 17 17.35 16.9083 17.45 16.725C17.55 16.5417 17.5333 16.3667 17.4 16.2L14.65 12.525C14.55 12.3917 14.4167 12.325 14.25 12.325C14.0833 12.325 13.95 12.3917 13.85 12.525L11.25 16L9.4 13.525C9.3 13.3917 9.16667 13.325 9 13.325C8.83333 13.325 8.7 13.3917 8.6 13.525L6.6 16.2C6.46667 16.3667 6.45 16.5417 6.55 16.725C6.65 16.9083 6.8 17 7 17ZM5 21C4.45 21 3.979 20.8043 3.587 20.413C3.19567 20.021 3 19.55 3 19V5C3 4.45 3.19567 3.979 3.587 3.587C3.979 3.19567 4.45 3 5 3H19C19.55 3 20.021 3.19567 20.413 3.587C20.8043 3.979 21 4.45 21 5V19C21 19.55 20.8043 20.021 20.413 20.413C20.021 20.8043 19.55 21 19 21H5Z" fill="black"/>
</svg>
