<svg width="16" height="16" viewBox="0 0 16 16" fill="none" xmlns="http://www.w3.org/2000/svg">
<path d="M4.66667 11.3333H11.3333C11.4667 11.3333 11.5667 11.2722 11.6333 11.15C11.7 11.0278 11.6889 10.9111 11.6 10.8L9.76667 8.35C9.7 8.26111 9.61111 8.21667 9.5 8.21667C9.38889 8.21667 9.3 8.26111 9.23333 8.35L7.5 10.6667L6.26667 9.01667C6.2 8.92778 6.11111 8.88333 6 8.88333C5.88889 8.88333 5.8 8.92778 5.73333 9.01667L4.4 10.8C4.31111 10.9111 4.3 11.0278 4.36667 11.15C4.43333 11.2722 4.53333 11.3333 4.66667 11.3333ZM3.33333 14C2.96667 14 2.65267 13.8696 2.39133 13.6087C2.13044 13.3473 2 13.0333 2 12.6667V3.33333C2 2.96667 2.13044 2.65267 2.39133 2.39133C2.65267 2.13044 2.96667 2 3.33333 2H12.6667C13.0333 2 13.3473 2.13044 13.6087 2.39133C13.8696 2.65267 14 2.96667 14 3.33333V12.6667C14 13.0333 13.8696 13.3473 13.6087 13.6087C13.3473 13.8696 13.0333 14 12.6667 14H3.33333Z" fill="black"/>
</svg>
