<svg width="16" height="16" viewBox="0 0 16 16" fill="none" xmlns="http://www.w3.org/2000/svg">
<path d="M2.66667 6C2.47778 6 2.31944 5.93611 2.19167 5.80833C2.06389 5.68056 2 5.52222 2 5.33333C2 5.14444 2.06389 4.98611 2.19167 4.85833C2.31944 4.73056 2.47778 4.66667 2.66667 4.66667H13.3333C13.5222 4.66667 13.6806 4.73056 13.8083 4.85833C13.9361 4.98611 14 5.14444 14 5.33333C14 5.52222 13.9361 5.68056 13.8083 5.80833C13.6806 5.93611 13.5222 6 13.3333 6H2.66667ZM2.66667 8.66667C2.47778 8.66667 2.31944 8.60278 2.19167 8.475C2.06389 8.34722 2 8.18889 2 8C2 7.81111 2.06389 7.65278 2.19167 7.525C2.31944 7.39722 2.47778 7.33333 2.66667 7.33333H13.3333C13.5222 7.33333 13.6806 7.39722 13.8083 7.525C13.9361 7.65278 14 7.81111 14 8C14 8.18889 13.9361 8.34722 13.8083 8.475C13.6806 8.60278 13.5222 8.66667 13.3333 8.66667H2.66667ZM2.66667 11.3333C2.47778 11.3333 2.31944 11.2694 2.19167 11.1417C2.06389 11.0139 2 10.8556 2 10.6667C2 10.4778 2.06389 10.3194 2.19167 10.1917C2.31944 10.0639 2.47778 10 2.66667 10H7.33333C7.52222 10 7.68056 10.0639 7.80833 10.1917C7.93611 10.3194 8 10.4778 8 10.6667C8 10.8556 7.93611 11.0139 7.80833 11.1417C7.68056 11.2694 7.52222 11.3333 7.33333 11.3333H2.66667ZM2.66667 14C2.47778 14 2.31944 13.9361 2.19167 13.8083C2.06389 13.6806 2 13.5222 2 13.3333C2 13.1444 2.06389 12.9861 2.19167 12.8583C2.31944 12.7306 2.47778 12.6667 2.66667 12.6667H7.33333C7.52222 12.6667 7.68056 12.7306 7.80833 12.8583C7.93611 12.9861 8 13.1444 8 13.3333C8 13.5222 7.93611 13.6806 7.80833 13.8083C7.68056 13.9361 7.52222 14 7.33333 14H2.66667ZM2.66667 3.33333C2.47778 3.33333 2.31944 3.26944 2.19167 3.14167C2.06389 3.01389 2 2.85556 2 2.66667C2 2.47778 2.06389 2.31944 2.19167 2.19167C2.31944 2.06389 2.47778 2 2.66667 2H13.3333C13.5222 2 13.6806 2.06389 13.8083 2.19167C13.9361 2.31944 14 2.47778 14 2.66667C14 2.85556 13.9361 3.01389 13.8083 3.14167C13.6806 3.26944 13.5222 3.33333 13.3333 3.33333H2.66667Z" fill="black"/>
<path d="M11.1667 12.8333L12 14.6667L12.8333 12.8333L14.6667 12L12.8333 11.1667L12 9.33333L11.1667 11.1667L9.33333 12L11.1667 12.8333Z" fill="black"/>
</svg>
