<svg width="28" height="28" viewBox="0 0 28 28" fill="none" xmlns="http://www.w3.org/2000/svg">
<path d="M4.66667 10.5C4.33611 10.5 4.05903 10.3882 3.83542 10.1646C3.61181 9.94097 3.5 9.66389 3.5 9.33333C3.5 9.00278 3.61181 8.72569 3.83542 8.50208C4.05903 8.27847 4.33611 8.16667 4.66667 8.16667H23.3333C23.6639 8.16667 23.941 8.27847 24.1646 8.50208C24.3882 8.72569 24.5 9.00278 24.5 9.33333C24.5 9.66389 24.3882 9.94097 24.1646 10.1646C23.941 10.3882 23.6639 10.5 23.3333 10.5H4.66667ZM4.66667 15.1667C4.33611 15.1667 4.05903 15.0549 3.83542 14.8313C3.61181 14.6076 3.5 14.3306 3.5 14C3.5 13.6694 3.61181 13.3924 3.83542 13.1688C4.05903 12.9451 4.33611 12.8333 4.66667 12.8333H23.3333C23.6639 12.8333 23.941 12.9451 24.1646 13.1688C24.3882 13.3924 24.5 13.6694 24.5 14C24.5 14.3306 24.3882 14.6076 24.1646 14.8313C23.941 15.0549 23.6639 15.1667 23.3333 15.1667H4.66667ZM4.66667 19.8333C4.33611 19.8333 4.05903 19.7215 3.83542 19.4979C3.61181 19.2743 3.5 18.9972 3.5 18.6667C3.5 18.3361 3.61181 18.059 3.83542 17.8354C4.05903 17.6118 4.33611 17.5 4.66667 17.5H12.8333C13.1639 17.5 13.441 17.6118 13.6646 17.8354C13.8882 18.059 14 18.3361 14 18.6667C14 18.9972 13.8882 19.2743 13.6646 19.4979C13.441 19.7215 13.1639 19.8333 12.8333 19.8333H4.66667ZM4.66667 24.5C4.33611 24.5 4.05903 24.3882 3.83542 24.1646C3.61181 23.941 3.5 23.6639 3.5 23.3333C3.5 23.0028 3.61181 22.7257 3.83542 22.5021C4.05903 22.2785 4.33611 22.1667 4.66667 22.1667H12.8333C13.1639 22.1667 13.441 22.2785 13.6646 22.5021C13.8882 22.7257 14 23.0028 14 23.3333C14 23.6639 13.8882 23.941 13.6646 24.1646C13.441 24.3882 13.1639 24.5 12.8333 24.5H4.66667ZM4.66667 5.83333C4.33611 5.83333 4.05903 5.72153 3.83542 5.49792C3.61181 5.27431 3.5 4.99722 3.5 4.66667C3.5 4.33611 3.61181 4.05903 3.83542 3.83542C4.05903 3.61181 4.33611 3.5 4.66667 3.5H23.3333C23.6639 3.5 23.941 3.61181 24.1646 3.83542C24.3882 4.05903 24.5 4.33611 24.5 4.66667C24.5 4.99722 24.3882 5.27431 24.1646 5.49792C23.941 5.72153 23.6639 5.83333 23.3333 5.83333H4.66667Z" fill="black"/>
<path d="M19.5417 22.4583L21 25.6667L22.4583 22.4583L25.6667 21L22.4583 19.5417L21 16.3333L19.5417 19.5417L16.3333 21L19.5417 22.4583Z" fill="black"/>
</svg>
