<svg width="16" height="16" viewBox="0 0 16 16" fill="none" xmlns="http://www.w3.org/2000/svg">
<path d="M7.99998 11.3333C8.18887 11.3333 8.34731 11.2693 8.47531 11.1413C8.60287 11.0138 8.66665 10.8555 8.66665 10.6666V7.98331C8.66665 7.79442 8.60287 7.63887 8.47531 7.51665C8.34731 7.39442 8.18887 7.33331 7.99998 7.33331C7.81109 7.33331 7.65287 7.39709 7.52531 7.52465C7.39731 7.65265 7.33331 7.81109 7.33331 7.99998V10.6833C7.33331 10.8722 7.39731 11.0278 7.52531 11.15C7.65287 11.2722 7.81109 11.3333 7.99998 11.3333ZM7.99998 5.99998C8.18887 5.99998 8.34731 5.93598 8.47531 5.80798C8.60287 5.68042 8.66665 5.5222 8.66665 5.33331C8.66665 5.14442 8.60287 4.98598 8.47531 4.85798C8.34731 4.73042 8.18887 4.66665 7.99998 4.66665C7.81109 4.66665 7.65287 4.73042 7.52531 4.85798C7.39731 4.98598 7.33331 5.14442 7.33331 5.33331C7.33331 5.5222 7.39731 5.68042 7.52531 5.80798C7.65287 5.93598 7.81109 5.99998 7.99998 5.99998ZM7.99998 14.6666C7.07776 14.6666 6.21109 14.4915 5.39998 14.1413C4.58887 13.7915 3.88331 13.3166 3.28331 12.7166C2.68331 12.1166 2.20842 11.4111 1.85865 10.6C1.50842 9.78887 1.33331 8.9222 1.33331 7.99998C1.33331 7.07776 1.50842 6.21109 1.85865 5.39998C2.20842 4.58887 2.68331 3.88331 3.28331 3.28331C3.88331 2.68331 4.58887 2.2082 5.39998 1.85798C6.21109 1.5082 7.07776 1.33331 7.99998 1.33331C8.9222 1.33331 9.78887 1.5082 10.6 1.85798C11.4111 2.2082 12.1166 2.68331 12.7166 3.28331C13.3166 3.88331 13.7915 4.58887 14.1413 5.39998C14.4915 6.21109 14.6666 7.07776 14.6666 7.99998C14.6666 8.9222 14.4915 9.78887 14.1413 10.6C13.7915 11.4111 13.3166 12.1166 12.7166 12.7166C12.1166 13.3166 11.4111 13.7915 10.6 14.1413C9.78887 14.4915 8.9222 14.6666 7.99998 14.6666ZM7.99998 13.3333C9.47776 13.3333 10.7362 12.814 11.7753 11.7753C12.814 10.7362 13.3333 9.47776 13.3333 7.99998C13.3333 6.5222 12.814 5.26376 11.7753 4.22465C10.7362 3.18598 9.47776 2.66665 7.99998 2.66665C6.5222 2.66665 5.26398 3.18598 4.22531 4.22465C3.1862 5.26376 2.66665 6.5222 2.66665 7.99998C2.66665 9.47776 3.1862 10.7362 4.22531 11.7753C5.26398 12.814 6.5222 13.3333 7.99998 13.3333Z" fill="black"/>
</svg>
