<svg width="16" height="16" viewBox="0 0 16 16" fill="none" xmlns="http://www.w3.org/2000/svg">
<path d="M8.00001 1.33333C4.32001 1.33333 1.33334 4.32 1.33334 8C1.33334 11.68 4.32001 14.6667 8.00001 14.6667C11.68 14.6667 14.6667 11.68 14.6667 8C14.6667 4.32 11.68 1.33333 8.00001 1.33333ZM8.00001 11.3333C7.63334 11.3333 7.33334 11.0333 7.33334 10.6667V8C7.33334 7.63333 7.63334 7.33333 8.00001 7.33333C8.36668 7.33333 8.66668 7.63333 8.66668 8V10.6667C8.66668 11.0333 8.36668 11.3333 8.00001 11.3333ZM8.66668 6H7.33334V4.66667H8.66668V6Z" fill="black"/>
</svg>
