<svg width="28" height="28" viewBox="0 0 28 28" fill="none" xmlns="http://www.w3.org/2000/svg">
<path d="M14 2.33333C7.56001 2.33333 2.33334 7.56 2.33334 14C2.33334 20.44 7.56001 25.6667 14 25.6667C20.44 25.6667 25.6667 20.44 25.6667 14C25.6667 7.56 20.44 2.33333 14 2.33333ZM14 19.8333C13.3583 19.8333 12.8333 19.3083 12.8333 18.6667V14C12.8333 13.3583 13.3583 12.8333 14 12.8333C14.6417 12.8333 15.1667 13.3583 15.1667 14V18.6667C15.1667 19.3083 14.6417 19.8333 14 19.8333ZM15.1667 9.33333C15.1667 9.97767 14.6443 10.5 14 10.5C13.3557 10.5 12.8333 9.97767 12.8333 9.33333C12.8333 8.689 13.3557 8.16667 14 8.16667C14.6443 8.16667 15.1667 8.689 15.1667 9.33333Z" fill="black"/>
</svg>
