<svg width="28" height="28" viewBox="0 0 28 28" fill="none" xmlns="http://www.w3.org/2000/svg">
<path d="M14 19.8333C14.3305 19.8333 14.6078 19.7213 14.8318 19.4973C15.055 19.2741 15.1666 18.9972 15.1666 18.6666V13.9708C15.1666 13.6403 15.055 13.368 14.8318 13.1541C14.6078 12.9403 14.3305 12.8333 14 12.8333C13.6694 12.8333 13.3925 12.9449 13.1693 13.1681C12.9453 13.3921 12.8333 13.6694 12.8333 14V18.6958C12.8333 19.0264 12.9453 19.2986 13.1693 19.5125C13.3925 19.7264 13.6694 19.8333 14 19.8333ZM14 10.5C14.3305 10.5 14.6078 10.388 14.8318 10.164C15.055 9.94076 15.1666 9.66387 15.1666 9.33331C15.1666 9.00276 15.055 8.72548 14.8318 8.50148C14.6078 8.27826 14.3305 8.16665 14 8.16665C13.6694 8.16665 13.3925 8.27826 13.1693 8.50148C12.9453 8.72548 12.8333 9.00276 12.8333 9.33331C12.8333 9.66387 12.9453 9.94076 13.1693 10.164C13.3925 10.388 13.6694 10.5 14 10.5ZM14 25.6666C12.3861 25.6666 10.8694 25.3602 9.44998 24.7473C8.03054 24.1352 6.79581 23.3041 5.74581 22.2541C4.69581 21.2041 3.86476 19.9694 3.25265 18.55C2.63976 17.1305 2.33331 15.6139 2.33331 14C2.33331 12.3861 2.63976 10.8694 3.25265 9.44998C3.86476 8.03054 4.69581 6.79581 5.74581 5.74581C6.79581 4.69581 8.03054 3.86437 9.44998 3.25148C10.8694 2.63937 12.3861 2.33331 14 2.33331C15.6139 2.33331 17.1305 2.63937 18.55 3.25148C19.9694 3.86437 21.2041 4.69581 22.2541 5.74581C23.3041 6.79581 24.1352 8.03054 24.7473 9.44998C25.3602 10.8694 25.6666 12.3861 25.6666 14C25.6666 15.6139 25.3602 17.1305 24.7473 18.55C24.1352 19.9694 23.3041 21.2041 22.2541 22.2541C21.2041 23.3041 19.9694 24.1352 18.55 24.7473C17.1305 25.3602 15.6139 25.6666 14 25.6666ZM14 23.3333C16.5861 23.3333 18.7884 22.4245 20.6068 20.6068C22.4245 18.7884 23.3333 16.5861 23.3333 14C23.3333 11.4139 22.4245 9.21159 20.6068 7.39315C18.7884 5.57548 16.5861 4.66665 14 4.66665C11.4139 4.66665 9.21198 5.57548 7.39431 7.39315C5.57587 9.21159 4.66665 11.4139 4.66665 14C4.66665 16.5861 5.57587 18.7884 7.39431 20.6068C9.21198 22.4245 11.4139 23.3333 14 23.3333Z" fill="black"/>
</svg>
