<svg width="28" height="28" viewBox="0 0 28 28" fill="none" xmlns="http://www.w3.org/2000/svg">
<path d="M5.83332 14.25C5.50277 14.25 5.22568 14.3618 5.00207 14.5854C4.77846 14.809 4.66666 15.0861 4.66666 15.4167C4.66666 15.7472 4.77846 16.0243 5.00207 16.2479C5.22568 16.4715 5.50277 16.5833 5.83332 16.5833H20.125C21.35 16.5833 22.3854 16.1604 23.2312 15.3146C24.0771 14.4687 24.5 13.4333 24.5 12.2083C24.5 10.9833 24.0771 9.94792 23.2312 9.10208C22.3854 8.25625 21.35 7.83333 20.125 7.83333H17.325L17.9667 7.19167C18.2 6.95833 18.3167 6.68125 18.3167 6.36042C18.3167 6.03958 18.2 5.7625 17.9667 5.52917C17.7333 5.29583 17.4562 5.17917 17.1354 5.17917C16.8146 5.17917 16.5375 5.29583 16.3042 5.52917L13.65 8.18333C13.5333 8.3 13.4507 8.42639 13.4021 8.5625C13.3535 8.69861 13.3292 8.84444 13.3292 9C13.3292 9.15556 13.3535 9.30139 13.4021 9.4375C13.4507 9.57361 13.5333 9.7 13.65 9.81667L16.3333 12.5C16.5472 12.7139 16.8146 12.8208 17.1354 12.8208C17.4562 12.8208 17.7333 12.7042 17.9667 12.4708C18.2 12.2375 18.3118 11.9556 18.3021 11.625C18.2924 11.2944 18.1708 11.0125 17.9375 10.7792L17.325 10.1667H20.125C20.6889 10.1667 21.1701 10.366 21.5687 10.7646C21.9674 11.1632 22.1667 11.6444 22.1667 12.2083C22.1667 12.7722 21.9674 13.2535 21.5687 13.6521C21.1701 14.0507 20.6889 14.25 20.125 14.25H5.83332ZM5.83332 20.6667C5.50277 20.6667 5.22568 20.7785 5.00207 21.0021C4.77846 21.2257 4.66666 21.5028 4.66666 21.8333C4.66666 22.1639 4.77846 22.441 5.00207 22.6646C5.22568 22.8882 5.50277 23 5.83332 23H22.1667C22.4972 23 22.7743 22.8882 22.9979 22.6646C23.2215 22.441 23.3333 22.1639 23.3333 21.8333C23.3333 21.5028 23.2215 21.2257 22.9979 21.0021C22.7743 20.7785 22.4972 20.6667 22.1667 20.6667H5.83332ZM5.83332 7.83333C5.50277 7.83333 5.22568 7.94514 5.00207 8.16875C4.77846 8.39236 4.66666 8.66944 4.66666 9C4.66666 9.33056 4.77846 9.60764 5.00207 9.83125C5.22568 10.0549 5.50277 10.1667 5.83332 10.1667H9.36249C9.69305 10.1667 9.96527 10.0549 10.1792 9.83125C10.393 9.60764 10.5 9.33056 10.5 9C10.5 8.66944 10.3882 8.39236 10.1646 8.16875C9.94096 7.94514 9.66388 7.83333 9.33332 7.83333H5.83332Z" fill="black"/>
</svg>
