<svg width="24" height="24" viewBox="0 0 24 24" fill="none" xmlns="http://www.w3.org/2000/svg">
<path d="M5 11.5C4.71667 11.5 4.47917 11.5958 4.2875 11.7875C4.09583 11.9792 4 12.2167 4 12.5C4 12.7833 4.09583 13.0208 4.2875 13.2125C4.47917 13.4042 4.71667 13.5 5 13.5H17.25C18.3 13.5 19.1875 13.1375 19.9125 12.4125C20.6375 11.6875 21 10.8 21 9.75C21 8.7 20.6375 7.8125 19.9125 7.0875C19.1875 6.3625 18.3 6 17.25 6H14.85L15.4 5.45C15.6 5.25 15.7 5.0125 15.7 4.7375C15.7 4.4625 15.6 4.225 15.4 4.025C15.2 3.825 14.9625 3.725 14.6875 3.725C14.4125 3.725 14.175 3.825 13.975 4.025L11.7 6.3C11.6 6.4 11.5292 6.50833 11.4875 6.625C11.4458 6.74167 11.425 6.86667 11.425 7C11.425 7.13333 11.4458 7.25833 11.4875 7.375C11.5292 7.49167 11.6 7.6 11.7 7.7L14 10C14.1833 10.1833 14.4125 10.275 14.6875 10.275C14.9625 10.275 15.2 10.175 15.4 9.975C15.6 9.775 15.6958 9.53333 15.6875 9.25C15.6792 8.96667 15.575 8.725 15.375 8.525L14.85 8H17.25C17.7333 8 18.1458 8.17083 18.4875 8.5125C18.8292 8.85417 19 9.26667 19 9.75C19 10.2333 18.8292 10.6458 18.4875 10.9875C18.1458 11.3292 17.7333 11.5 17.25 11.5H5ZM5 17C4.71667 17 4.47917 17.0958 4.2875 17.2875C4.09583 17.4792 4 17.7167 4 18C4 18.2833 4.09583 18.5208 4.2875 18.7125C4.47917 18.9042 4.71667 19 5 19H19C19.2833 19 19.5208 18.9042 19.7125 18.7125C19.9042 18.5208 20 18.2833 20 18C20 17.7167 19.9042 17.4792 19.7125 17.2875C19.5208 17.0958 19.2833 17 19 17H5ZM5 6C4.71667 6 4.47917 6.09583 4.2875 6.2875C4.09583 6.47917 4 6.71667 4 7C4 7.28333 4.09583 7.52083 4.2875 7.7125C4.47917 7.90417 4.71667 8 5 8H8.025C8.30833 8 8.54167 7.90417 8.725 7.7125C8.90833 7.52083 9 7.28333 9 7C9 6.71667 8.90417 6.47917 8.7125 6.2875C8.52083 6.09583 8.28333 6 8 6H5Z" fill="black"/>
</svg>
