<svg width="24" height="24" viewBox="0 0 24 24" fill="none" xmlns="http://www.w3.org/2000/svg">
<path d="M5 12.5C4.71667 12.5 4.47917 12.4042 4.2875 12.2125C4.09583 12.0208 4 11.7833 4 11.5C4 11.2167 4.09583 10.9792 4.2875 10.7875C4.47917 10.5958 4.71667 10.5 5 10.5H17.25C18.3 10.5 19.1875 10.8625 19.9125 11.5875C20.6375 12.3125 21 13.2 21 14.25C21 15.3 20.6375 16.1875 19.9125 16.9125C19.1875 17.6375 18.3 18 17.25 18H14.85L15.4 18.55C15.6 18.75 15.7 18.9875 15.7 19.2625C15.7 19.5375 15.6 19.775 15.4 19.975C15.2 20.175 14.9625 20.275 14.6875 20.275C14.4125 20.275 14.175 20.175 13.975 19.975L11.7 17.7C11.6 17.6 11.5292 17.4917 11.4875 17.375C11.4458 17.2583 11.425 17.1333 11.425 17C11.425 16.8667 11.4458 16.7417 11.4875 16.625C11.5292 16.5083 11.6 16.4 11.7 16.3L14 14C14.1833 13.8167 14.4125 13.725 14.6875 13.725C14.9625 13.725 15.2 13.825 15.4 14.025C15.6 14.225 15.6958 14.4667 15.6875 14.75C15.6792 15.0333 15.575 15.275 15.375 15.475L14.85 16H17.25C17.7333 16 18.1458 15.8292 18.4875 15.4875C18.8292 15.1458 19 14.7333 19 14.25C19 13.7667 18.8292 13.3542 18.4875 13.0125C18.1458 12.6708 17.7333 12.5 17.25 12.5H5ZM5 7C4.71667 7 4.47917 6.90417 4.2875 6.7125C4.09583 6.52083 4 6.28333 4 6C4 5.71667 4.09583 5.47917 4.2875 5.2875C4.47917 5.09583 4.71667 5 5 5H19C19.2833 5 19.5208 5.09583 19.7125 5.2875C19.9042 5.47917 20 5.71667 20 6C20 6.28333 19.9042 6.52083 19.7125 6.7125C19.5208 6.90417 19.2833 7 19 7H5ZM5 18C4.71667 18 4.47917 17.9042 4.2875 17.7125C4.09583 17.5208 4 17.2833 4 17C4 16.7167 4.09583 16.4792 4.2875 16.2875C4.47917 16.0958 4.71667 16 5 16H8.025C8.30833 16 8.54167 16.0958 8.725 16.2875C8.90833 16.4792 9 16.7167 9 17C9 17.2833 8.90417 17.5208 8.7125 17.7125C8.52083 17.9042 8.28333 18 8 18H5Z" fill="black"/>
</svg>
