<svg width="28" height="28" viewBox="0 0 28 28" fill="none" xmlns="http://www.w3.org/2000/svg">
<path d="M5.83333 24.5C5.19167 24.5 4.64236 24.2715 4.18542 23.8146C3.72847 23.3576 3.5 22.8083 3.5 22.1667V5.83333C3.5 5.19167 3.72847 4.64236 4.18542 4.18542C4.64236 3.72847 5.19167 3.5 5.83333 3.5H22.1667C22.8083 3.5 23.3576 3.72847 23.8146 4.18542C24.2715 4.64236 24.5 5.19167 24.5 5.83333V22.1667C24.5 22.8083 24.2715 23.3576 23.8146 23.8146C23.3576 24.2715 22.8083 24.5 22.1667 24.5H5.83333ZM5.83333 22.1667H22.1667V5.83333H5.83333V22.1667ZM9.33333 11.6667C9.00278 11.6667 8.72569 11.7785 8.50208 12.0021C8.27847 12.2257 8.16667 12.5028 8.16667 12.8333V18.6667C8.16667 18.9972 8.27847 19.2743 8.50208 19.4979C8.72569 19.7215 9.00278 19.8333 9.33333 19.8333C9.66389 19.8333 9.94097 19.7215 10.1646 19.4979C10.3882 19.2743 10.5 18.9972 10.5 18.6667V12.8333C10.5 12.5028 10.3882 12.2257 10.1646 12.0021C9.94097 11.7785 9.66389 11.6667 9.33333 11.6667ZM14 8.16667C13.6694 8.16667 13.3924 8.27847 13.1687 8.50208C12.9451 8.72569 12.8333 9.00278 12.8333 9.33333V18.6667C12.8333 18.9972 12.9451 19.2743 13.1687 19.4979C13.3924 19.7215 13.6694 19.8333 14 19.8333C14.3306 19.8333 14.6076 19.7215 14.8313 19.4979C15.0549 19.2743 15.1667 18.9972 15.1667 18.6667V9.33333C15.1667 9.00278 15.0549 8.72569 14.8313 8.50208C14.6076 8.27847 14.3306 8.16667 14 8.16667ZM18.6667 15.1667C18.3361 15.1667 18.059 15.2785 17.8354 15.5021C17.6118 15.7257 17.5 16.0028 17.5 16.3333V18.6667C17.5 18.9972 17.6118 19.2743 17.8354 19.4979C18.059 19.7215 18.3361 19.8333 18.6667 19.8333C18.9972 19.8333 19.2743 19.7215 19.4979 19.4979C19.7215 19.2743 19.8333 18.9972 19.8333 18.6667V16.3333C19.8333 16.0028 19.7215 15.7257 19.4979 15.5021C19.2743 15.2785 18.9972 15.1667 18.6667 15.1667Z" fill="#191919"/>
</svg>
