<svg width="16" height="16" viewBox="0 0 16 16" fill="none" xmlns="http://www.w3.org/2000/svg">
<path d="M3.33333 14C2.96667 14 2.65278 13.8694 2.39167 13.6083C2.13056 13.3472 2 13.0333 2 12.6667V3.33333C2 2.96667 2.13056 2.65278 2.39167 2.39167C2.65278 2.13056 2.96667 2 3.33333 2H12.6667C13.0333 2 13.3472 2.13056 13.6083 2.39167C13.8694 2.65278 14 2.96667 14 3.33333V12.6667C14 13.0333 13.8694 13.3472 13.6083 13.6083C13.3472 13.8694 13.0333 14 12.6667 14H3.33333ZM3.33333 12.6667H12.6667V3.33333H3.33333V12.6667ZM5.33333 6.66667C5.14444 6.66667 4.98611 6.73056 4.85833 6.85833C4.73056 6.98611 4.66667 7.14444 4.66667 7.33333V10.6667C4.66667 10.8556 4.73056 11.0139 4.85833 11.1417C4.98611 11.2694 5.14444 11.3333 5.33333 11.3333C5.52222 11.3333 5.68056 11.2694 5.80833 11.1417C5.93611 11.0139 6 10.8556 6 10.6667V7.33333C6 7.14444 5.93611 6.98611 5.80833 6.85833C5.68056 6.73056 5.52222 6.66667 5.33333 6.66667ZM8 4.66667C7.81111 4.66667 7.65278 4.73056 7.525 4.85833C7.39722 4.98611 7.33333 5.14444 7.33333 5.33333V10.6667C7.33333 10.8556 7.39722 11.0139 7.525 11.1417C7.65278 11.2694 7.81111 11.3333 8 11.3333C8.18889 11.3333 8.34722 11.2694 8.475 11.1417C8.60278 11.0139 8.66667 10.8556 8.66667 10.6667V5.33333C8.66667 5.14444 8.60278 4.98611 8.475 4.85833C8.34722 4.73056 8.18889 4.66667 8 4.66667ZM10.6667 8.66667C10.4778 8.66667 10.3194 8.73056 10.1917 8.85833C10.0639 8.98611 10 9.14444 10 9.33333V10.6667C10 10.8556 10.0639 11.0139 10.1917 11.1417C10.3194 11.2694 10.4778 11.3333 10.6667 11.3333C10.8556 11.3333 11.0139 11.2694 11.1417 11.1417C11.2694 11.0139 11.3333 10.8556 11.3333 10.6667V9.33333C11.3333 9.14444 11.2694 8.98611 11.1417 8.85833C11.0139 8.73056 10.8556 8.66667 10.6667 8.66667Z" fill="#191919"/>
</svg>
