<svg width="16" height="16" viewBox="0 0 16 16" fill="none" xmlns="http://www.w3.org/2000/svg">
<path d="M3.33335 8C3.14446 8 2.98613 8.06389 2.85835 8.19167C2.73058 8.31944 2.66669 8.47778 2.66669 8.66667C2.66669 8.85556 2.73058 9.01389 2.85835 9.14167C2.98613 9.26944 3.14446 9.33333 3.33335 9.33333H11.5C12.2 9.33333 12.7917 9.09167 13.275 8.60833C13.7584 8.125 14 7.53333 14 6.83333C14 6.13333 13.7584 5.54167 13.275 5.05833C12.7917 4.575 12.2 4.33333 11.5 4.33333H9.90002L10.2667 3.96667C10.4 3.83333 10.4667 3.675 10.4667 3.49167C10.4667 3.30833 10.4 3.15 10.2667 3.01667C10.1334 2.88333 9.97502 2.81667 9.79169 2.81667C9.60835 2.81667 9.45002 2.88333 9.31669 3.01667L7.80002 4.53333C7.73335 4.6 7.68613 4.67222 7.65835 4.75C7.63058 4.82778 7.61669 4.91111 7.61669 5C7.61669 5.08889 7.63058 5.17222 7.65835 5.25C7.68613 5.32778 7.73335 5.4 7.80002 5.46667L9.33335 7C9.45558 7.12222 9.60835 7.18333 9.79169 7.18333C9.97502 7.18333 10.1334 7.11667 10.2667 6.98333C10.4 6.85 10.4639 6.68889 10.4584 6.5C10.4528 6.31111 10.3834 6.15 10.25 6.01667L9.90002 5.66667H11.5C11.8222 5.66667 12.0972 5.78056 12.325 6.00833C12.5528 6.23611 12.6667 6.51111 12.6667 6.83333C12.6667 7.15556 12.5528 7.43056 12.325 7.65833C12.0972 7.88611 11.8222 8 11.5 8H3.33335ZM3.33335 11.6667C3.14446 11.6667 2.98613 11.7306 2.85835 11.8583C2.73058 11.9861 2.66669 12.1444 2.66669 12.3333C2.66669 12.5222 2.73058 12.6806 2.85835 12.8083C2.98613 12.9361 3.14446 13 3.33335 13H12.6667C12.8556 13 13.0139 12.9361 13.1417 12.8083C13.2695 12.6806 13.3334 12.5222 13.3334 12.3333C13.3334 12.1444 13.2695 11.9861 13.1417 11.8583C13.0139 11.7306 12.8556 11.6667 12.6667 11.6667H3.33335ZM3.33335 4.33333C3.14446 4.33333 2.98613 4.39722 2.85835 4.525C2.73058 4.65278 2.66669 4.81111 2.66669 5C2.66669 5.18889 2.73058 5.34722 2.85835 5.475C2.98613 5.60278 3.14446 5.66667 3.33335 5.66667H5.35002C5.53891 5.66667 5.69446 5.60278 5.81669 5.475C5.93891 5.34722 6.00002 5.18889 6.00002 5C6.00002 4.81111 5.93613 4.65278 5.80835 4.525C5.68058 4.39722 5.52224 4.33333 5.33335 4.33333H3.33335Z" fill="black"/>
</svg>
