<svg width="28" height="28" viewBox="0 0 28 28" fill="none" xmlns="http://www.w3.org/2000/svg">
<path d="M5.83332 14.5835C5.50277 14.5835 5.22568 14.4717 5.00207 14.2481C4.77846 14.0245 4.66666 13.7474 4.66666 13.4168C4.66666 13.0863 4.77846 12.8092 5.00207 12.5856C5.22568 12.362 5.50277 12.2502 5.83332 12.2502H20.125C21.35 12.2502 22.3854 12.6731 23.2312 13.5189C24.0771 14.3647 24.5 15.4002 24.5 16.6252C24.5 17.8502 24.0771 18.8856 23.2312 19.7314C22.3854 20.5772 21.35 21.0002 20.125 21.0002H17.325L17.9667 21.6418C18.2 21.8752 18.3167 22.1522 18.3167 22.4731C18.3167 22.7939 18.2 23.071 17.9667 23.3043C17.7333 23.5377 17.4562 23.6543 17.1354 23.6543C16.8146 23.6543 16.5375 23.5377 16.3042 23.3043L13.65 20.6502C13.5333 20.5335 13.4507 20.4071 13.4021 20.271C13.3535 20.1349 13.3292 19.9891 13.3292 19.8335C13.3292 19.6779 13.3535 19.5321 13.4021 19.396C13.4507 19.2599 13.5333 19.1335 13.65 19.0168L16.3333 16.3335C16.5472 16.1196 16.8146 16.0127 17.1354 16.0127C17.4562 16.0127 17.7333 16.1293 17.9667 16.3627C18.2 16.596 18.3118 16.8779 18.3021 17.2085C18.2924 17.5391 18.1708 17.821 17.9375 18.0543L17.325 18.6668H20.125C20.6889 18.6668 21.1701 18.4675 21.5687 18.0689C21.9674 17.6703 22.1667 17.1891 22.1667 16.6252C22.1667 16.0613 21.9674 15.58 21.5687 15.1814C21.1701 14.7828 20.6889 14.5835 20.125 14.5835H5.83332ZM5.83332 8.16683C5.50277 8.16683 5.22568 8.05502 5.00207 7.83141C4.77846 7.6078 4.66666 7.33072 4.66666 7.00016C4.66666 6.66961 4.77846 6.39252 5.00207 6.16891C5.22568 5.9453 5.50277 5.8335 5.83332 5.8335H22.1667C22.4972 5.8335 22.7743 5.9453 22.9979 6.16891C23.2215 6.39252 23.3333 6.66961 23.3333 7.00016C23.3333 7.33072 23.2215 7.6078 22.9979 7.83141C22.7743 8.05502 22.4972 8.16683 22.1667 8.16683H5.83332ZM5.83332 21.0002C5.50277 21.0002 5.22568 20.8884 5.00207 20.6647C4.77846 20.4411 4.66666 20.1641 4.66666 19.8335C4.66666 19.5029 4.77846 19.2259 5.00207 19.0022C5.22568 18.7786 5.50277 18.6668 5.83332 18.6668H9.36249C9.69305 18.6668 9.96527 18.7786 10.1792 19.0022C10.393 19.2259 10.5 19.5029 10.5 19.8335C10.5 20.1641 10.3882 20.4411 10.1646 20.6647C9.94096 20.8884 9.66388 21.0002 9.33332 21.0002H5.83332Z" fill="black"/>
</svg>
