<svg width="16" height="16" viewBox="0 0 16 16" fill="none" xmlns="http://www.w3.org/2000/svg">
<path d="M3.33335 8.3335C3.14446 8.3335 2.98613 8.26961 2.85835 8.14183C2.73058 8.01405 2.66669 7.85572 2.66669 7.66683C2.66669 7.47794 2.73058 7.31961 2.85835 7.19183C2.98613 7.06405 3.14446 7.00016 3.33335 7.00016H11.5C12.2 7.00016 12.7917 7.24183 13.275 7.72516C13.7584 8.2085 14 8.80016 14 9.50016C14 10.2002 13.7584 10.7918 13.275 11.2752C12.7917 11.7585 12.2 12.0002 11.5 12.0002H9.90002L10.2667 12.3668C10.4 12.5002 10.4667 12.6585 10.4667 12.8418C10.4667 13.0252 10.4 13.1835 10.2667 13.3168C10.1334 13.4502 9.97502 13.5168 9.79169 13.5168C9.60835 13.5168 9.45002 13.4502 9.31669 13.3168L7.80002 11.8002C7.73335 11.7335 7.68613 11.6613 7.65835 11.5835C7.63058 11.5057 7.61669 11.4224 7.61669 11.3335C7.61669 11.2446 7.63058 11.1613 7.65835 11.0835C7.68613 11.0057 7.73335 10.9335 7.80002 10.8668L9.33335 9.3335C9.45558 9.21127 9.60835 9.15016 9.79169 9.15016C9.97502 9.15016 10.1334 9.21683 10.2667 9.35016C10.4 9.4835 10.4639 9.64461 10.4584 9.8335C10.4528 10.0224 10.3834 10.1835 10.25 10.3168L9.90002 10.6668H11.5C11.8222 10.6668 12.0972 10.5529 12.325 10.3252C12.5528 10.0974 12.6667 9.82239 12.6667 9.50016C12.6667 9.17794 12.5528 8.90294 12.325 8.67516C12.0972 8.44739 11.8222 8.3335 11.5 8.3335H3.33335ZM3.33335 4.66683C3.14446 4.66683 2.98613 4.60294 2.85835 4.47516C2.73058 4.34738 2.66669 4.18905 2.66669 4.00016C2.66669 3.81127 2.73058 3.65294 2.85835 3.52516C2.98613 3.39738 3.14446 3.3335 3.33335 3.3335H12.6667C12.8556 3.3335 13.0139 3.39738 13.1417 3.52516C13.2695 3.65294 13.3334 3.81127 13.3334 4.00016C13.3334 4.18905 13.2695 4.34738 13.1417 4.47516C13.0139 4.60294 12.8556 4.66683 12.6667 4.66683H3.33335ZM3.33335 12.0002C3.14446 12.0002 2.98613 11.9363 2.85835 11.8085C2.73058 11.6807 2.66669 11.5224 2.66669 11.3335C2.66669 11.1446 2.73058 10.9863 2.85835 10.8585C2.98613 10.7307 3.14446 10.6668 3.33335 10.6668H5.35002C5.53891 10.6668 5.69446 10.7307 5.81669 10.8585C5.93891 10.9863 6.00002 11.1446 6.00002 11.3335C6.00002 11.5224 5.93613 11.6807 5.80835 11.8085C5.68058 11.9363 5.52224 12.0002 5.33335 12.0002H3.33335Z" fill="black"/>
</svg>
