<svg width="16" height="16" viewBox="0 0 16 16" fill="none" xmlns="http://www.w3.org/2000/svg">
<path d="M13.3333 1.33334H2.66668C2.00001 1.33334 1.33334 1.93334 1.33334 2.66668V4.67334C1.33334 5.15334 1.62001 5.56668 2.00001 5.80001V13.3333C2.00001 14.0667 2.73334 14.6667 3.33334 14.6667H12.6667C13.2667 14.6667 14 14.0667 14 13.3333V5.80001C14.38 5.56668 14.6667 5.15334 14.6667 4.67334V2.66668C14.6667 1.93334 14 1.33334 13.3333 1.33334ZM9.33334 9.33334H6.66668C6.30001 9.33334 6.00001 9.03334 6.00001 8.66668C6.00001 8.30001 6.30001 8.00001 6.66668 8.00001H9.33334C9.70001 8.00001 10 8.30001 10 8.66668C10 9.03334 9.70001 9.33334 9.33334 9.33334ZM13.3333 4.66668H2.66668V2.66668H13.3333V4.66668Z" fill="black"/>
</svg>
