<svg width="28" height="28" viewBox="0 0 28 28" fill="none" xmlns="http://www.w3.org/2000/svg">
<path d="M23.3333 2.33334H4.66668C3.50001 2.33334 2.33334 3.38334 2.33334 4.66668V8.17834C2.33334 9.01834 2.83501 9.74168 3.50001 10.15V23.3333C3.50001 24.6167 4.78334 25.6667 5.83334 25.6667H22.1667C23.2167 25.6667 24.5 24.6167 24.5 23.3333V10.15C25.165 9.74168 25.6667 9.01834 25.6667 8.17834V4.66668C25.6667 3.38334 24.5 2.33334 23.3333 2.33334ZM16.3333 16.3333H11.6667C11.025 16.3333 10.5 15.8083 10.5 15.1667C10.5 14.525 11.025 14 11.6667 14H16.3333C16.975 14 17.5 14.525 17.5 15.1667C17.5 15.8083 16.975 16.3333 16.3333 16.3333ZM23.3333 8.16668H4.66668V4.66668H23.3333V8.16668Z" fill="black"/>
</svg>
