<svg width="16" height="16" viewBox="0 0 16 16" fill="none" xmlns="http://www.w3.org/2000/svg">
<g id="InventoryOff16">
<g id="Vector">
<path d="M13.3334 4.66671H5.33335L6.66669 6.00004H12.6667V12L14 13.3334V5.80004C14.1889 5.67782 14.3471 5.52226 14.4747 5.33337C14.6027 5.14449 14.6667 4.92226 14.6667 4.66671V2.66671C14.6667 2.30004 14.5362 1.98604 14.2754 1.72471C14.014 1.46382 13.7 1.33337 13.3334 1.33337H2.66669C2.46738 1.33337 2.2837 1.37192 2.11565 1.449L3.33335 2.66671H13.3334V4.66671Z" fill="black"/>
<path fill-rule="evenodd" clip-rule="evenodd" d="M2.00003 4.93338L0.85002 3.78337C0.727798 3.66115 0.666687 3.5056 0.666687 3.31671C0.666687 3.12782 0.727798 2.97226 0.85002 2.85004C0.972243 2.72782 1.1278 2.66671 1.31669 2.66671C1.50558 2.66671 1.66113 2.72782 1.78335 2.85004L13.1167 14.1834C13.209 14.2757 13.2681 14.3855 13.2938 14.5128C13.2938 14.5128 13.2939 14.5128 13.2938 14.5128C13.3021 14.5539 13.307 14.597 13.3084 14.6417C13.3139 14.825 13.25 14.9834 13.1167 15.1167C12.9945 15.2389 12.8389 15.3 12.65 15.3C12.4611 15.3 12.3056 15.2389 12.1834 15.1167L11.7256 14.6667H3.33335C2.96669 14.6667 2.65269 14.5363 2.39135 14.2754C2.13046 14.014 2.00002 13.7 2.00002 13.3334L2.00003 4.93338ZM10.3693 13.3334H3.33335V6.26671L8.91669 11.85L10.2167 13.1834L10.3693 13.3334Z" fill="black"/>
</g>
</g>
</svg>
