<svg width="16" height="16" viewBox="0 0 16 16" fill="none" xmlns="http://www.w3.org/2000/svg">
<path d="M3.33331 14.6666C2.96665 14.6666 2.65265 14.5362 2.39131 14.2753C2.13042 14.014 1.99998 13.7 1.99998 13.3333V5.79998C1.81109 5.67776 1.65287 5.5222 1.52531 5.33331C1.39731 5.14442 1.33331 4.9222 1.33331 4.66665V2.66665C1.33331 2.29998 1.46398 1.98598 1.72531 1.72465C1.9862 1.46376 2.29998 1.33331 2.66665 1.33331H13.3333C13.7 1.33331 14.014 1.46376 14.2753 1.72465C14.5362 1.98598 14.6666 2.29998 14.6666 2.66665V4.66665C14.6666 4.9222 14.6026 5.14442 14.4746 5.33331C14.3471 5.5222 14.1889 5.67776 14 5.79998V13.3333C14 13.7 13.8695 14.014 13.6086 14.2753C13.3473 14.5362 13.0333 14.6666 12.6666 14.6666H3.33331ZM3.33331 5.99998V13.3333H12.6666V5.99998H3.33331ZM13.3333 4.66665V2.66665H2.66665V4.66665H13.3333ZM6.66665 9.33331H9.33331C9.5222 9.33331 9.68065 9.26931 9.80865 9.14131C9.9362 9.01376 9.99998 8.85553 9.99998 8.66665C9.99998 8.47776 9.9362 8.31931 9.80865 8.19131C9.68065 8.06376 9.5222 7.99998 9.33331 7.99998H6.66665C6.47776 7.99998 6.31953 8.06376 6.19198 8.19131C6.06398 8.31931 5.99998 8.47776 5.99998 8.66665C5.99998 8.85553 6.06398 9.01376 6.19198 9.14131C6.31953 9.26931 6.47776 9.33331 6.66665 9.33331Z" fill="black"/>
</svg>
