<svg width="28" height="28" viewBox="0 0 28 28" fill="none" xmlns="http://www.w3.org/2000/svg">
<path d="M5.83331 25.6666C5.19165 25.6666 4.64215 25.4384 4.18481 24.9818C3.72826 24.5245 3.49998 23.975 3.49998 23.3333V10.15C3.16942 9.93609 2.89254 9.66387 2.66931 9.33331C2.44531 9.00276 2.33331 8.61387 2.33331 8.16665V4.66665C2.33331 4.02498 2.56198 3.47548 3.01931 3.01815C3.47587 2.56159 4.02498 2.33331 4.66665 2.33331H23.3333C23.975 2.33331 24.5245 2.56159 24.9818 3.01815C25.4384 3.47548 25.6666 4.02498 25.6666 4.66665V8.16665C25.6666 8.61387 25.5546 9.00276 25.3306 9.33331C25.1074 9.66387 24.8305 9.93609 24.5 10.15V23.3333C24.5 23.975 24.2717 24.5245 23.8151 24.9818C23.3578 25.4384 22.8083 25.6666 22.1666 25.6666H5.83331ZM5.83331 10.5V23.3333H22.1666V10.5H5.83331ZM23.3333 8.16665V4.66665H4.66665V8.16665H23.3333ZM11.6666 16.3333H16.3333C16.6639 16.3333 16.9411 16.2213 17.1651 15.9973C17.3884 15.7741 17.5 15.4972 17.5 15.1666C17.5 14.8361 17.3884 14.5588 17.1651 14.3348C16.9411 14.1116 16.6639 14 16.3333 14H11.6666C11.3361 14 11.0592 14.1116 10.836 14.3348C10.612 14.5588 10.5 14.8361 10.5 15.1666C10.5 15.4972 10.612 15.7741 10.836 15.9973C11.0592 16.2213 11.3361 16.3333 11.6666 16.3333Z" fill="black"/>
</svg>
