<svg width="24" height="24" viewBox="0 0 24 24" fill="none" xmlns="http://www.w3.org/2000/svg">
<g id="InventoryOff24">
<g id="Vector">
<path d="M20 7H8L10 9H19V18L21 20V8.7C21.2833 8.51667 21.5207 8.28333 21.712 8C21.904 7.71667 22 7.38333 22 7V4C22 3.45 21.8043 2.979 21.413 2.587C21.021 2.19567 20.55 2 20 2H4C3.70104 2 3.42552 2.05781 3.17344 2.17344L5 4H20V7Z" fill="black"/>
<path fill-rule="evenodd" clip-rule="evenodd" d="M3.00001 7.40001L1.275 5.675C1.09167 5.49167 1 5.25833 1 4.975C1 4.69167 1.09167 4.45833 1.275 4.275C1.45833 4.09167 1.69167 4 1.975 4C2.25833 4 2.49167 4.09167 2.675 4.275L19.675 21.275C19.8135 21.4135 19.9021 21.5783 19.9407 21.7691C19.9407 21.7692 19.9408 21.7691 19.9407 21.7691C19.9532 21.8307 19.9605 21.8955 19.9625 21.9625C19.9708 22.2375 19.875 22.475 19.675 22.675C19.4917 22.8583 19.2583 22.95 18.975 22.95C18.6917 22.95 18.4583 22.8583 18.275 22.675L17.5884 22H5C4.45 22 3.979 21.8043 3.587 21.413C3.19567 21.021 3 20.55 3 20L3.00001 7.40001ZM15.5539 20H5V9.4L13.375 17.775L15.325 19.775L15.5539 20Z" fill="black"/>
</g>
</g>
</svg>
