<svg width="28" height="28" viewBox="0 0 28 28" fill="none" xmlns="http://www.w3.org/2000/svg">
<g id="InventoryOff28">
<g id="Vector">
<path d="M23.3334 8.16671H9.33335L11.6667 10.5H22.1667V21L24.5 23.3334V10.15C24.8306 9.93615 25.1075 9.66393 25.3307 9.33337C25.5547 9.00282 25.6667 8.61393 25.6667 8.16671V4.66671C25.6667 4.02504 25.4384 3.47554 24.9819 3.01821C24.5245 2.56165 23.975 2.33337 23.3334 2.33337H4.66669C4.3179 2.33337 3.99646 2.40082 3.70236 2.53572L5.83335 4.66671H23.3334V8.16671Z" fill="black"/>
<path fill-rule="evenodd" clip-rule="evenodd" d="M3.50003 8.63338L1.48752 6.62087C1.27363 6.40699 1.16669 6.13476 1.16669 5.80421C1.16669 5.47365 1.27363 5.20143 1.48752 4.98754C1.70141 4.77365 1.97363 4.66671 2.30419 4.66671C2.63474 4.66671 2.90696 4.77365 3.12085 4.98754L22.9542 24.8209C23.1158 24.9825 23.2192 25.1747 23.2642 25.3974C23.2641 25.3974 23.2643 25.3973 23.2642 25.3974C23.2787 25.4692 23.2872 25.5447 23.2896 25.623C23.2993 25.9438 23.1875 26.2209 22.9542 26.4542C22.7403 26.6681 22.4681 26.775 22.1375 26.775C21.807 26.775 21.5347 26.6681 21.3209 26.4542L20.5198 25.6667H5.83335C5.19169 25.6667 4.64219 25.4384 4.18485 24.9819C3.7283 24.5245 3.50002 23.975 3.50002 23.3334L3.50003 8.63338ZM18.1462 23.3334H5.83335V10.9667L15.6042 20.7375L17.8792 23.0709L18.1462 23.3334Z" fill="black"/>
</g>
</g>
</svg>
