<svg width="28" height="28" viewBox="0 0 28 28" fill="none" xmlns="http://www.w3.org/2000/svg">
<path d="M8.16659 26.8334C7.52492 26.8334 6.97561 26.6049 6.51867 26.148C6.06172 25.6911 5.83325 25.1417 5.83325 24.5001V3.50008C5.83325 2.85841 6.06172 2.30911 6.51867 1.85216C6.97561 1.39522 7.52492 1.16675 8.16659 1.16675H19.8333C20.4749 1.16675 21.0242 1.39522 21.4812 1.85216C21.9381 2.30911 22.1666 2.85841 22.1666 3.50008V24.5001C22.1666 25.1417 21.9381 25.6911 21.4812 26.148C21.0242 26.6049 20.4749 26.8334 19.8333 26.8334H8.16659ZM8.16659 21.0001V24.5001H19.8333V21.0001H8.16659ZM13.9999 23.9167C14.3305 23.9167 14.6076 23.8049 14.8312 23.5813C15.0548 23.3577 15.1666 23.0806 15.1666 22.7501C15.1666 22.4195 15.0548 22.1424 14.8312 21.9188C14.6076 21.6952 14.3305 21.5834 13.9999 21.5834C13.6694 21.5834 13.3923 21.6952 13.1687 21.9188C12.9451 22.1424 12.8333 22.4195 12.8333 22.7501C12.8333 23.0806 12.9451 23.3577 13.1687 23.5813C13.3923 23.8049 13.6694 23.9167 13.9999 23.9167ZM8.16659 18.6667H19.8333V7.00008H8.16659V18.6667ZM8.16659 4.66675H19.8333V3.50008H8.16659V4.66675Z" fill="#191919"/>
</svg>
