<svg width="16" height="16" viewBox="0 0 16 16" fill="none" xmlns="http://www.w3.org/2000/svg">
<path d="M4.66659 15.3334C4.29992 15.3334 3.98603 15.2029 3.72492 14.9417C3.46381 14.6806 3.33325 14.3667 3.33325 14.0001V2.00008C3.33325 1.63341 3.46381 1.31953 3.72492 1.05841C3.98603 0.797304 4.29992 0.666748 4.66659 0.666748H11.3333C11.6999 0.666748 12.0138 0.797304 12.2749 1.05841C12.536 1.31953 12.6666 1.63341 12.6666 2.00008V14.0001C12.6666 14.3667 12.536 14.6806 12.2749 14.9417C12.0138 15.2029 11.6999 15.3334 11.3333 15.3334H4.66659ZM4.66659 12.0001V14.0001H11.3333V12.0001H4.66659ZM7.99992 13.6667C8.18881 13.6667 8.34714 13.6029 8.47492 13.4751C8.6027 13.3473 8.66658 13.189 8.66658 13.0001C8.66658 12.8112 8.6027 12.6529 8.47492 12.5251C8.34714 12.3973 8.18881 12.3334 7.99992 12.3334C7.81103 12.3334 7.6527 12.3973 7.52492 12.5251C7.39714 12.6529 7.33325 12.8112 7.33325 13.0001C7.33325 13.189 7.39714 13.3473 7.52492 13.4751C7.6527 13.6029 7.81103 13.6667 7.99992 13.6667ZM4.66659 10.6667H11.3333V4.00008H4.66659V10.6667ZM4.66659 2.66675H11.3333V2.00008H4.66659V2.66675Z" fill="#191919"/>
</svg>
