<svg width="28" height="28" viewBox="0 0 28 28" fill="none" xmlns="http://www.w3.org/2000/svg">
<path d="M7.29166 22.1663C6.88333 22.1663 6.53819 22.0254 6.25624 21.7434C5.9743 21.4615 5.83333 21.1163 5.83333 20.708C5.83333 20.2997 5.9743 19.9545 6.25624 19.6726C6.53819 19.3906 6.88333 19.2497 7.29166 19.2497H10.5L14 8.74967H10.7917C10.3833 8.74967 10.0382 8.6087 9.75624 8.32676C9.4743 8.04481 9.33333 7.69967 9.33333 7.29134C9.33333 6.88301 9.4743 6.53787 9.75624 6.25592C10.0382 5.97398 10.3833 5.83301 10.7917 5.83301H19.5417C19.95 5.83301 20.2951 5.97398 20.5771 6.25592C20.859 6.53787 21 6.88301 21 7.29134C21 7.69967 20.859 8.04481 20.5771 8.32676C20.2951 8.6087 19.95 8.74967 19.5417 8.74967H16.9167L13.4167 19.2497H16.0417C16.45 19.2497 16.7951 19.3906 17.0771 19.6726C17.359 19.9545 17.5 20.2997 17.5 20.708C17.5 21.1163 17.359 21.4615 17.0771 21.7434C16.7951 22.0254 16.45 22.1663 16.0417 22.1663H7.29166Z" fill="#191919"/>
</svg>
