<svg width="16" height="16" viewBox="0 0 16 16" fill="none" xmlns="http://www.w3.org/2000/svg">
<path d="M4.16667 12.6663C3.93333 12.6663 3.73611 12.5858 3.575 12.4247C3.41389 12.2636 3.33333 12.0663 3.33333 11.833C3.33333 11.5997 3.41389 11.4025 3.575 11.2413C3.73611 11.0802 3.93333 10.9997 4.16667 10.9997H6L8 4.99967H6.16667C5.93333 4.99967 5.73611 4.91912 5.575 4.75801C5.41389 4.5969 5.33333 4.39967 5.33333 4.16634C5.33333 3.93301 5.41389 3.73579 5.575 3.57467C5.73611 3.41356 5.93333 3.33301 6.16667 3.33301H11.1667C11.4 3.33301 11.5972 3.41356 11.7583 3.57467C11.9194 3.73579 12 3.93301 12 4.16634C12 4.39967 11.9194 4.5969 11.7583 4.75801C11.5972 4.91912 11.4 4.99967 11.1667 4.99967H9.66667L7.66667 10.9997H9.16667C9.4 10.9997 9.59722 11.0802 9.75833 11.2413C9.91944 11.4025 10 11.5997 10 11.833C10 12.0663 9.91944 12.2636 9.75833 12.4247C9.59722 12.5858 9.4 12.6663 9.16667 12.6663H4.16667Z" fill="#191919"/>
</svg>
