<svg width="16" height="16" viewBox="0 0 16 16" fill="none" xmlns="http://www.w3.org/2000/svg">
<path d="M4.66669 9.33333C4.30002 9.33333 3.98613 9.20278 3.72502 8.94167C3.46391 8.68056 3.33335 8.36667 3.33335 8C3.33335 7.63333 3.46391 7.31944 3.72502 7.05833C3.98613 6.79722 4.30002 6.66667 4.66669 6.66667C5.03335 6.66667 5.34724 6.79722 5.60835 7.05833C5.86946 7.31944 6.00002 7.63333 6.00002 8C6.00002 8.36667 5.86946 8.68056 5.60835 8.94167C5.34724 9.20278 5.03335 9.33333 4.66669 9.33333ZM4.66669 12C3.55558 12 2.61113 11.6111 1.83335 10.8333C1.05558 10.0556 0.666687 9.11111 0.666687 8C0.666687 6.88889 1.05558 5.94444 1.83335 5.16667C2.61113 4.38889 3.55558 4 4.66669 4C5.41113 4 6.08613 4.18333 6.69169 4.55C7.29724 4.91667 7.7778 5.4 8.13335 6H13.7167C13.8056 6 13.8917 6.01667 13.975 6.05C14.0584 6.08333 14.1334 6.13333 14.2 6.2L15.5334 7.53333C15.6 7.6 15.6472 7.67222 15.675 7.75C15.7028 7.82778 15.7167 7.91111 15.7167 8C15.7167 8.08889 15.7028 8.17222 15.675 8.25C15.6472 8.32778 15.6 8.4 15.5334 8.46667L13.4167 10.5833C13.3611 10.6389 13.2945 10.6833 13.2167 10.7167C13.1389 10.75 13.0611 10.7722 12.9834 10.7833C12.9056 10.7944 12.8278 10.7889 12.75 10.7667C12.6722 10.7444 12.6 10.7056 12.5334 10.65L11.6667 10L10.7167 10.7167C10.6611 10.7611 10.6 10.7944 10.5334 10.8167C10.4667 10.8389 10.4 10.85 10.3334 10.85C10.2667 10.85 10.1972 10.8389 10.125 10.8167C10.0528 10.7944 9.98891 10.7611 9.93335 10.7167L8.91669 10H8.13335C7.7778 10.6 7.29724 11.0833 6.69169 11.45C6.08613 11.8167 5.41113 12 4.66669 12ZM4.66669 10.6667C5.28891 10.6667 5.83613 10.4778 6.30835 10.1C6.78058 9.72222 7.09447 9.24444 7.25002 8.66667H9.33335L10.3 9.35L11.6667 8.33333L12.85 9.25L14.1 8L13.4334 7.33333H7.25002C7.09447 6.75556 6.78058 6.27778 6.30835 5.9C5.83613 5.52222 5.28891 5.33333 4.66669 5.33333C3.93335 5.33333 3.30558 5.59444 2.78335 6.11667C2.26113 6.63889 2.00002 7.26667 2.00002 8C2.00002 8.73333 2.26113 9.36111 2.78335 9.88333C3.30558 10.4056 3.93335 10.6667 4.66669 10.6667Z" fill="black"/>
</svg>
