<svg width="28" height="28" viewBox="0 0 28 28" fill="none" xmlns="http://www.w3.org/2000/svg">
<path d="M8.16669 16.3333C7.52502 16.3333 6.97572 16.1049 6.51877 15.6479C6.06183 15.191 5.83335 14.6417 5.83335 14C5.83335 13.3583 6.06183 12.809 6.51877 12.3521C6.97572 11.8951 7.52502 11.6667 8.16669 11.6667C8.80835 11.6667 9.35766 11.8951 9.8146 12.3521C10.2715 12.809 10.5 13.3583 10.5 14C10.5 14.6417 10.2715 15.191 9.8146 15.6479C9.35766 16.1049 8.80835 16.3333 8.16669 16.3333ZM8.16669 21C6.22224 21 4.56947 20.3194 3.20835 18.9583C1.84724 17.5972 1.16669 15.9444 1.16669 14C1.16669 12.0556 1.84724 10.4028 3.20835 9.04167C4.56947 7.68056 6.22224 7 8.16669 7C9.46947 7 10.6507 7.32083 11.7104 7.9625C12.7702 8.60417 13.6111 9.45 14.2334 10.5H24.0042C24.1597 10.5 24.3104 10.5292 24.4563 10.5875C24.6021 10.6458 24.7334 10.7333 24.85 10.85L27.1834 13.1833C27.3 13.3 27.3827 13.4264 27.4313 13.5625C27.4799 13.6986 27.5042 13.8444 27.5042 14C27.5042 14.1556 27.4799 14.3014 27.4313 14.4375C27.3827 14.5736 27.3 14.7 27.1834 14.8167L23.4792 18.5208C23.382 18.6181 23.2653 18.6958 23.1292 18.7542C22.9931 18.8125 22.857 18.8514 22.7209 18.8708C22.5847 18.8903 22.4486 18.8806 22.3125 18.8417C22.1764 18.8028 22.05 18.7347 21.9334 18.6375L20.4167 17.5L18.7542 18.7542C18.657 18.8319 18.55 18.8903 18.4334 18.9292C18.3167 18.9681 18.2 18.9875 18.0834 18.9875C17.9667 18.9875 17.8452 18.9681 17.7188 18.9292C17.5924 18.8903 17.4806 18.8319 17.3834 18.7542L15.6042 17.5H14.2334C13.6111 18.55 12.7702 19.3958 11.7104 20.0375C10.6507 20.6792 9.46947 21 8.16669 21ZM8.16669 18.6667C9.25558 18.6667 10.2132 18.3361 11.0396 17.675C11.866 17.0139 12.4153 16.1778 12.6875 15.1667H16.3334L18.025 16.3625L20.4167 14.5833L22.4875 16.1875L24.675 14L23.5084 12.8333H12.6875C12.4153 11.8222 11.866 10.9861 11.0396 10.325C10.2132 9.66389 9.25558 9.33333 8.16669 9.33333C6.88335 9.33333 5.78474 9.79028 4.87085 10.7042C3.95696 11.6181 3.50002 12.7167 3.50002 14C3.50002 15.2833 3.95696 16.3819 4.87085 17.2958C5.78474 18.2097 6.88335 18.6667 8.16669 18.6667Z" fill="black"/>
</svg>
