<svg width="24" height="24" viewBox="0 0 24 24" fill="none" xmlns="http://www.w3.org/2000/svg">
<path d="M4 19C3.45 19 2.97917 18.8042 2.5875 18.4125C2.19583 18.0208 2 17.55 2 17V7C2 6.45 2.19583 5.97917 2.5875 5.5875C2.97917 5.19583 3.45 5 4 5H20C20.55 5 21.0208 5.19583 21.4125 5.5875C21.8042 5.97917 22 6.45 22 7V17C22 17.55 21.8042 18.0208 21.4125 18.4125C21.0208 18.8042 20.55 19 20 19H4ZM4 17H20V7H4V17ZM9 16H15C15.2833 16 15.5208 15.9042 15.7125 15.7125C15.9042 15.5208 16 15.2833 16 15C16 14.7167 15.9042 14.4792 15.7125 14.2875C15.5208 14.0958 15.2833 14 15 14H9C8.71667 14 8.47917 14.0958 8.2875 14.2875C8.09583 14.4792 8 14.7167 8 15C8 15.2833 8.09583 15.5208 8.2875 15.7125C8.47917 15.9042 8.71667 16 9 16ZM6 10C6.28333 10 6.52083 9.90417 6.7125 9.7125C6.90417 9.52083 7 9.28333 7 9C7 8.71667 6.90417 8.47917 6.7125 8.2875C6.52083 8.09583 6.28333 8 6 8C5.71667 8 5.47917 8.09583 5.2875 8.2875C5.09583 8.47917 5 8.71667 5 9C5 9.28333 5.09583 9.52083 5.2875 9.7125C5.47917 9.90417 5.71667 10 6 10ZM9 10C9.28333 10 9.52083 9.90417 9.7125 9.7125C9.90417 9.52083 10 9.28333 10 9C10 8.71667 9.90417 8.47917 9.7125 8.2875C9.52083 8.09583 9.28333 8 9 8C8.71667 8 8.47917 8.09583 8.2875 8.2875C8.09583 8.47917 8 8.71667 8 9C8 9.28333 8.09583 9.52083 8.2875 9.7125C8.47917 9.90417 8.71667 10 9 10ZM12 10C12.2833 10 12.5208 9.90417 12.7125 9.7125C12.9042 9.52083 13 9.28333 13 9C13 8.71667 12.9042 8.47917 12.7125 8.2875C12.5208 8.09583 12.2833 8 12 8C11.7167 8 11.4792 8.09583 11.2875 8.2875C11.0958 8.47917 11 8.71667 11 9C11 9.28333 11.0958 9.52083 11.2875 9.7125C11.4792 9.90417 11.7167 10 12 10ZM15 10C15.2833 10 15.5208 9.90417 15.7125 9.7125C15.9042 9.52083 16 9.28333 16 9C16 8.71667 15.9042 8.47917 15.7125 8.2875C15.5208 8.09583 15.2833 8 15 8C14.7167 8 14.4792 8.09583 14.2875 8.2875C14.0958 8.47917 14 8.71667 14 9C14 9.28333 14.0958 9.52083 14.2875 9.7125C14.4792 9.90417 14.7167 10 15 10ZM18 10C18.2833 10 18.5208 9.90417 18.7125 9.7125C18.9042 9.52083 19 9.28333 19 9C19 8.71667 18.9042 8.47917 18.7125 8.2875C18.5208 8.09583 18.2833 8 18 8C17.7167 8 17.4792 8.09583 17.2875 8.2875C17.0958 8.47917 17 8.71667 17 9C17 9.28333 17.0958 9.52083 17.2875 9.7125C17.4792 9.90417 17.7167 10 18 10ZM6 13C6.28333 13 6.52083 12.9042 6.7125 12.7125C6.90417 12.5208 7 12.2833 7 12C7 11.7167 6.90417 11.4792 6.7125 11.2875C6.52083 11.0958 6.28333 11 6 11C5.71667 11 5.47917 11.0958 5.2875 11.2875C5.09583 11.4792 5 11.7167 5 12C5 12.2833 5.09583 12.5208 5.2875 12.7125C5.47917 12.9042 5.71667 13 6 13ZM9 13C9.28333 13 9.52083 12.9042 9.7125 12.7125C9.90417 12.5208 10 12.2833 10 12C10 11.7167 9.90417 11.4792 9.7125 11.2875C9.52083 11.0958 9.28333 11 9 11C8.71667 11 8.47917 11.0958 8.2875 11.2875C8.09583 11.4792 8 11.7167 8 12C8 12.2833 8.09583 12.5208 8.2875 12.7125C8.47917 12.9042 8.71667 13 9 13ZM12 13C12.2833 13 12.5208 12.9042 12.7125 12.7125C12.9042 12.5208 13 12.2833 13 12C13 11.7167 12.9042 11.4792 12.7125 11.2875C12.5208 11.0958 12.2833 11 12 11C11.7167 11 11.4792 11.0958 11.2875 11.2875C11.0958 11.4792 11 11.7167 11 12C11 12.2833 11.0958 12.5208 11.2875 12.7125C11.4792 12.9042 11.7167 13 12 13ZM15 13C15.2833 13 15.5208 12.9042 15.7125 12.7125C15.9042 12.5208 16 12.2833 16 12C16 11.7167 15.9042 11.4792 15.7125 11.2875C15.5208 11.0958 15.2833 11 15 11C14.7167 11 14.4792 11.0958 14.2875 11.2875C14.0958 11.4792 14 11.7167 14 12C14 12.2833 14.0958 12.5208 14.2875 12.7125C14.4792 12.9042 14.7167 13 15 13ZM18 13C18.2833 13 18.5208 12.9042 18.7125 12.7125C18.9042 12.5208 19 12.2833 19 12C19 11.7167 18.9042 11.4792 18.7125 11.2875C18.5208 11.0958 18.2833 11 18 11C17.7167 11 17.4792 11.0958 17.2875 11.2875C17.0958 11.4792 17 11.7167 17 12C17 12.2833 17.0958 12.5208 17.2875 12.7125C17.4792 12.9042 17.7167 13 18 13Z" fill="black"/>
</svg>
