<svg width="24" height="24" viewBox="0 0 24 24" fill="none" xmlns="http://www.w3.org/2000/svg">
<path d="M11.65 22.65L8.85 19.85C8.68333 19.6833 8.64167 19.5 8.725 19.3C8.80833 19.1 8.96667 19 9.2 19H14.8C15.0333 19 15.1917 19.1 15.275 19.3C15.3583 19.5 15.3167 19.6833 15.15 19.85L12.35 22.65C12.25 22.75 12.1333 22.8 12 22.8C11.8667 22.8 11.75 22.75 11.65 22.65ZM4 17C3.45 17 2.97917 16.8042 2.5875 16.4125C2.19583 16.0208 2 15.55 2 15V5C2 4.45 2.19583 3.97917 2.5875 3.5875C2.97917 3.19583 3.45 3 4 3H20C20.55 3 21.0208 3.19583 21.4125 3.5875C21.8042 3.97917 22 4.45 22 5V15C22 15.55 21.8042 16.0208 21.4125 16.4125C21.0208 16.8042 20.55 17 20 17H4ZM4 15H20V5H4V15ZM9 14H15C15.2833 14 15.5208 13.9042 15.7125 13.7125C15.9042 13.5208 16 13.2833 16 13C16 12.7167 15.9042 12.4792 15.7125 12.2875C15.5208 12.0958 15.2833 12 15 12H9C8.71667 12 8.47917 12.0958 8.2875 12.2875C8.09583 12.4792 8 12.7167 8 13C8 13.2833 8.09583 13.5208 8.2875 13.7125C8.47917 13.9042 8.71667 14 9 14ZM6 8C6.28333 8 6.52083 7.90417 6.7125 7.7125C6.90417 7.52083 7 7.28333 7 7C7 6.71667 6.90417 6.47917 6.7125 6.2875C6.52083 6.09583 6.28333 6 6 6C5.71667 6 5.47917 6.09583 5.2875 6.2875C5.09583 6.47917 5 6.71667 5 7C5 7.28333 5.09583 7.52083 5.2875 7.7125C5.47917 7.90417 5.71667 8 6 8ZM9 8C9.28333 8 9.52083 7.90417 9.7125 7.7125C9.90417 7.52083 10 7.28333 10 7C10 6.71667 9.90417 6.47917 9.7125 6.2875C9.52083 6.09583 9.28333 6 9 6C8.71667 6 8.47917 6.09583 8.2875 6.2875C8.09583 6.47917 8 6.71667 8 7C8 7.28333 8.09583 7.52083 8.2875 7.7125C8.47917 7.90417 8.71667 8 9 8ZM12 8C12.2833 8 12.5208 7.90417 12.7125 7.7125C12.9042 7.52083 13 7.28333 13 7C13 6.71667 12.9042 6.47917 12.7125 6.2875C12.5208 6.09583 12.2833 6 12 6C11.7167 6 11.4792 6.09583 11.2875 6.2875C11.0958 6.47917 11 6.71667 11 7C11 7.28333 11.0958 7.52083 11.2875 7.7125C11.4792 7.90417 11.7167 8 12 8ZM15 8C15.2833 8 15.5208 7.90417 15.7125 7.7125C15.9042 7.52083 16 7.28333 16 7C16 6.71667 15.9042 6.47917 15.7125 6.2875C15.5208 6.09583 15.2833 6 15 6C14.7167 6 14.4792 6.09583 14.2875 6.2875C14.0958 6.47917 14 6.71667 14 7C14 7.28333 14.0958 7.52083 14.2875 7.7125C14.4792 7.90417 14.7167 8 15 8ZM18 8C18.2833 8 18.5208 7.90417 18.7125 7.7125C18.9042 7.52083 19 7.28333 19 7C19 6.71667 18.9042 6.47917 18.7125 6.2875C18.5208 6.09583 18.2833 6 18 6C17.7167 6 17.4792 6.09583 17.2875 6.2875C17.0958 6.47917 17 6.71667 17 7C17 7.28333 17.0958 7.52083 17.2875 7.7125C17.4792 7.90417 17.7167 8 18 8ZM6 11C6.28333 11 6.52083 10.9042 6.7125 10.7125C6.90417 10.5208 7 10.2833 7 10C7 9.71667 6.90417 9.47917 6.7125 9.2875C6.52083 9.09583 6.28333 9 6 9C5.71667 9 5.47917 9.09583 5.2875 9.2875C5.09583 9.47917 5 9.71667 5 10C5 10.2833 5.09583 10.5208 5.2875 10.7125C5.47917 10.9042 5.71667 11 6 11ZM9 11C9.28333 11 9.52083 10.9042 9.7125 10.7125C9.90417 10.5208 10 10.2833 10 10C10 9.71667 9.90417 9.47917 9.7125 9.2875C9.52083 9.09583 9.28333 9 9 9C8.71667 9 8.47917 9.09583 8.2875 9.2875C8.09583 9.47917 8 9.71667 8 10C8 10.2833 8.09583 10.5208 8.2875 10.7125C8.47917 10.9042 8.71667 11 9 11ZM12 11C12.2833 11 12.5208 10.9042 12.7125 10.7125C12.9042 10.5208 13 10.2833 13 10C13 9.71667 12.9042 9.47917 12.7125 9.2875C12.5208 9.09583 12.2833 9 12 9C11.7167 9 11.4792 9.09583 11.2875 9.2875C11.0958 9.47917 11 9.71667 11 10C11 10.2833 11.0958 10.5208 11.2875 10.7125C11.4792 10.9042 11.7167 11 12 11ZM15 11C15.2833 11 15.5208 10.9042 15.7125 10.7125C15.9042 10.5208 16 10.2833 16 10C16 9.71667 15.9042 9.47917 15.7125 9.2875C15.5208 9.09583 15.2833 9 15 9C14.7167 9 14.4792 9.09583 14.2875 9.2875C14.0958 9.47917 14 9.71667 14 10C14 10.2833 14.0958 10.5208 14.2875 10.7125C14.4792 10.9042 14.7167 11 15 11ZM18 11C18.2833 11 18.5208 10.9042 18.7125 10.7125C18.9042 10.5208 19 10.2833 19 10C19 9.71667 18.9042 9.47917 18.7125 9.2875C18.5208 9.09583 18.2833 9 18 9C17.7167 9 17.4792 9.09583 17.2875 9.2875C17.0958 9.47917 17 9.71667 17 10C17 10.2833 17.0958 10.5208 17.2875 10.7125C17.4792 10.9042 17.7167 11 18 11Z" fill="black"/>
</svg>
