<svg width="28" height="28" viewBox="0 0 28 28" fill="none" xmlns="http://www.w3.org/2000/svg">
<path d="M4.66665 22.1668C4.02498 22.1668 3.47567 21.9384 3.01873 21.4814C2.56179 21.0245 2.33331 20.4752 2.33331 19.8335V8.16683C2.33331 7.52516 2.56179 6.97586 3.01873 6.51891C3.47567 6.06197 4.02498 5.8335 4.66665 5.8335H23.3333C23.975 5.8335 24.5243 6.06197 24.9812 6.51891C25.4382 6.97586 25.6666 7.52516 25.6666 8.16683V19.8335C25.6666 20.4752 25.4382 21.0245 24.9812 21.4814C24.5243 21.9384 23.975 22.1668 23.3333 22.1668H4.66665ZM4.66665 19.8335H23.3333V8.16683H4.66665V19.8335ZM10.5 18.6668H17.5C17.8305 18.6668 18.1076 18.555 18.3312 18.3314C18.5548 18.1078 18.6666 17.8307 18.6666 17.5002C18.6666 17.1696 18.5548 16.8925 18.3312 16.6689C18.1076 16.4453 17.8305 16.3335 17.5 16.3335H10.5C10.1694 16.3335 9.89234 16.4453 9.66873 16.6689C9.44512 16.8925 9.33331 17.1696 9.33331 17.5002C9.33331 17.8307 9.44512 18.1078 9.66873 18.3314C9.89234 18.555 10.1694 18.6668 10.5 18.6668ZM6.99998 11.6668C7.33054 11.6668 7.60762 11.555 7.83123 11.3314C8.05484 11.1078 8.16665 10.8307 8.16665 10.5002C8.16665 10.1696 8.05484 9.89252 7.83123 9.66891C7.60762 9.4453 7.33054 9.3335 6.99998 9.3335C6.66942 9.3335 6.39234 9.4453 6.16873 9.66891C5.94512 9.89252 5.83331 10.1696 5.83331 10.5002C5.83331 10.8307 5.94512 11.1078 6.16873 11.3314C6.39234 11.555 6.66942 11.6668 6.99998 11.6668ZM10.5 11.6668C10.8305 11.6668 11.1076 11.555 11.3312 11.3314C11.5548 11.1078 11.6666 10.8307 11.6666 10.5002C11.6666 10.1696 11.5548 9.89252 11.3312 9.66891C11.1076 9.4453 10.8305 9.3335 10.5 9.3335C10.1694 9.3335 9.89234 9.4453 9.66873 9.66891C9.44512 9.89252 9.33331 10.1696 9.33331 10.5002C9.33331 10.8307 9.44512 11.1078 9.66873 11.3314C9.89234 11.555 10.1694 11.6668 10.5 11.6668ZM14 11.6668C14.3305 11.6668 14.6076 11.555 14.8312 11.3314C15.0548 11.1078 15.1666 10.8307 15.1666 10.5002C15.1666 10.1696 15.0548 9.89252 14.8312 9.66891C14.6076 9.4453 14.3305 9.3335 14 9.3335C13.6694 9.3335 13.3923 9.4453 13.1687 9.66891C12.9451 9.89252 12.8333 10.1696 12.8333 10.5002C12.8333 10.8307 12.9451 11.1078 13.1687 11.3314C13.3923 11.555 13.6694 11.6668 14 11.6668ZM17.5 11.6668C17.8305 11.6668 18.1076 11.555 18.3312 11.3314C18.5548 11.1078 18.6666 10.8307 18.6666 10.5002C18.6666 10.1696 18.5548 9.89252 18.3312 9.66891C18.1076 9.4453 17.8305 9.3335 17.5 9.3335C17.1694 9.3335 16.8923 9.4453 16.6687 9.66891C16.4451 9.89252 16.3333 10.1696 16.3333 10.5002C16.3333 10.8307 16.4451 11.1078 16.6687 11.3314C16.8923 11.555 17.1694 11.6668 17.5 11.6668ZM21 11.6668C21.3305 11.6668 21.6076 11.555 21.8312 11.3314C22.0548 11.1078 22.1666 10.8307 22.1666 10.5002C22.1666 10.1696 22.0548 9.89252 21.8312 9.66891C21.6076 9.4453 21.3305 9.3335 21 9.3335C20.6694 9.3335 20.3923 9.4453 20.1687 9.66891C19.9451 9.89252 19.8333 10.1696 19.8333 10.5002C19.8333 10.8307 19.9451 11.1078 20.1687 11.3314C20.3923 11.555 20.6694 11.6668 21 11.6668ZM6.99998 15.1668C7.33054 15.1668 7.60762 15.055 7.83123 14.8314C8.05484 14.6078 8.16665 14.3307 8.16665 14.0002C8.16665 13.6696 8.05484 13.3925 7.83123 13.1689C7.60762 12.9453 7.33054 12.8335 6.99998 12.8335C6.66942 12.8335 6.39234 12.9453 6.16873 13.1689C5.94512 13.3925 5.83331 13.6696 5.83331 14.0002C5.83331 14.3307 5.94512 14.6078 6.16873 14.8314C6.39234 15.055 6.66942 15.1668 6.99998 15.1668ZM10.5 15.1668C10.8305 15.1668 11.1076 15.055 11.3312 14.8314C11.5548 14.6078 11.6666 14.3307 11.6666 14.0002C11.6666 13.6696 11.5548 13.3925 11.3312 13.1689C11.1076 12.9453 10.8305 12.8335 10.5 12.8335C10.1694 12.8335 9.89234 12.9453 9.66873 13.1689C9.44512 13.3925 9.33331 13.6696 9.33331 14.0002C9.33331 14.3307 9.44512 14.6078 9.66873 14.8314C9.89234 15.055 10.1694 15.1668 10.5 15.1668ZM14 15.1668C14.3305 15.1668 14.6076 15.055 14.8312 14.8314C15.0548 14.6078 15.1666 14.3307 15.1666 14.0002C15.1666 13.6696 15.0548 13.3925 14.8312 13.1689C14.6076 12.9453 14.3305 12.8335 14 12.8335C13.6694 12.8335 13.3923 12.9453 13.1687 13.1689C12.9451 13.3925 12.8333 13.6696 12.8333 14.0002C12.8333 14.3307 12.9451 14.6078 13.1687 14.8314C13.3923 15.055 13.6694 15.1668 14 15.1668ZM17.5 15.1668C17.8305 15.1668 18.1076 15.055 18.3312 14.8314C18.5548 14.6078 18.6666 14.3307 18.6666 14.0002C18.6666 13.6696 18.5548 13.3925 18.3312 13.1689C18.1076 12.9453 17.8305 12.8335 17.5 12.8335C17.1694 12.8335 16.8923 12.9453 16.6687 13.1689C16.4451 13.3925 16.3333 13.6696 16.3333 14.0002C16.3333 14.3307 16.4451 14.6078 16.6687 14.8314C16.8923 15.055 17.1694 15.1668 17.5 15.1668ZM21 15.1668C21.3305 15.1668 21.6076 15.055 21.8312 14.8314C22.0548 14.6078 22.1666 14.3307 22.1666 14.0002C22.1666 13.6696 22.0548 13.3925 21.8312 13.1689C21.6076 12.9453 21.3305 12.8335 21 12.8335C20.6694 12.8335 20.3923 12.9453 20.1687 13.1689C19.9451 13.3925 19.8333 13.6696 19.8333 14.0002C19.8333 14.3307 19.9451 14.6078 20.1687 14.8314C20.3923 15.055 20.6694 15.1668 21 15.1668Z" fill="black"/>
</svg>
