<svg width="16" height="16" viewBox="0 0 16 16" fill="none" xmlns="http://www.w3.org/2000/svg">
<path d="M2.66665 12.6668C2.29998 12.6668 1.98609 12.5363 1.72498 12.2752C1.46387 12.0141 1.33331 11.7002 1.33331 11.3335V4.66683C1.33331 4.30016 1.46387 3.98627 1.72498 3.72516C1.98609 3.46405 2.29998 3.3335 2.66665 3.3335H13.3333C13.7 3.3335 14.0139 3.46405 14.275 3.72516C14.5361 3.98627 14.6666 4.30016 14.6666 4.66683V11.3335C14.6666 11.7002 14.5361 12.0141 14.275 12.2752C14.0139 12.5363 13.7 12.6668 13.3333 12.6668H2.66665ZM2.66665 11.3335H13.3333V4.66683H2.66665V11.3335ZM5.99998 10.6668H9.99998C10.1889 10.6668 10.3472 10.6029 10.475 10.4752C10.6028 10.3474 10.6666 10.1891 10.6666 10.0002C10.6666 9.81127 10.6028 9.65294 10.475 9.52516C10.3472 9.39738 10.1889 9.3335 9.99998 9.3335H5.99998C5.81109 9.3335 5.65276 9.39738 5.52498 9.52516C5.3972 9.65294 5.33331 9.81127 5.33331 10.0002C5.33331 10.1891 5.3972 10.3474 5.52498 10.4752C5.65276 10.6029 5.81109 10.6668 5.99998 10.6668ZM3.99998 6.66683C4.18887 6.66683 4.3472 6.60294 4.47498 6.47516C4.60276 6.34738 4.66665 6.18905 4.66665 6.00016C4.66665 5.81127 4.60276 5.65294 4.47498 5.52516C4.3472 5.39738 4.18887 5.3335 3.99998 5.3335C3.81109 5.3335 3.65276 5.39738 3.52498 5.52516C3.3972 5.65294 3.33331 5.81127 3.33331 6.00016C3.33331 6.18905 3.3972 6.34738 3.52498 6.47516C3.65276 6.60294 3.81109 6.66683 3.99998 6.66683ZM5.99998 6.66683C6.18887 6.66683 6.3472 6.60294 6.47498 6.47516C6.60276 6.34738 6.66665 6.18905 6.66665 6.00016C6.66665 5.81127 6.60276 5.65294 6.47498 5.52516C6.3472 5.39738 6.18887 5.3335 5.99998 5.3335C5.81109 5.3335 5.65276 5.39738 5.52498 5.52516C5.3972 5.65294 5.33331 5.81127 5.33331 6.00016C5.33331 6.18905 5.3972 6.34738 5.52498 6.47516C5.65276 6.60294 5.81109 6.66683 5.99998 6.66683ZM7.99998 6.66683C8.18887 6.66683 8.3472 6.60294 8.47498 6.47516C8.60276 6.34738 8.66665 6.18905 8.66665 6.00016C8.66665 5.81127 8.60276 5.65294 8.47498 5.52516C8.3472 5.39738 8.18887 5.3335 7.99998 5.3335C7.81109 5.3335 7.65276 5.39738 7.52498 5.52516C7.3972 5.65294 7.33331 5.81127 7.33331 6.00016C7.33331 6.18905 7.3972 6.34738 7.52498 6.47516C7.65276 6.60294 7.81109 6.66683 7.99998 6.66683ZM9.99998 6.66683C10.1889 6.66683 10.3472 6.60294 10.475 6.47516C10.6028 6.34738 10.6666 6.18905 10.6666 6.00016C10.6666 5.81127 10.6028 5.65294 10.475 5.52516C10.3472 5.39738 10.1889 5.3335 9.99998 5.3335C9.81109 5.3335 9.65276 5.39738 9.52498 5.52516C9.3972 5.65294 9.33331 5.81127 9.33331 6.00016C9.33331 6.18905 9.3972 6.34738 9.52498 6.47516C9.65276 6.60294 9.81109 6.66683 9.99998 6.66683ZM12 6.66683C12.1889 6.66683 12.3472 6.60294 12.475 6.47516C12.6028 6.34738 12.6666 6.18905 12.6666 6.00016C12.6666 5.81127 12.6028 5.65294 12.475 5.52516C12.3472 5.39738 12.1889 5.3335 12 5.3335C11.8111 5.3335 11.6528 5.39738 11.525 5.52516C11.3972 5.65294 11.3333 5.81127 11.3333 6.00016C11.3333 6.18905 11.3972 6.34738 11.525 6.47516C11.6528 6.60294 11.8111 6.66683 12 6.66683ZM3.99998 8.66683C4.18887 8.66683 4.3472 8.60294 4.47498 8.47516C4.60276 8.34738 4.66665 8.18905 4.66665 8.00016C4.66665 7.81127 4.60276 7.65294 4.47498 7.52516C4.3472 7.39738 4.18887 7.3335 3.99998 7.3335C3.81109 7.3335 3.65276 7.39738 3.52498 7.52516C3.3972 7.65294 3.33331 7.81127 3.33331 8.00016C3.33331 8.18905 3.3972 8.34738 3.52498 8.47516C3.65276 8.60294 3.81109 8.66683 3.99998 8.66683ZM5.99998 8.66683C6.18887 8.66683 6.3472 8.60294 6.47498 8.47516C6.60276 8.34738 6.66665 8.18905 6.66665 8.00016C6.66665 7.81127 6.60276 7.65294 6.47498 7.52516C6.3472 7.39738 6.18887 7.3335 5.99998 7.3335C5.81109 7.3335 5.65276 7.39738 5.52498 7.52516C5.3972 7.65294 5.33331 7.81127 5.33331 8.00016C5.33331 8.18905 5.3972 8.34738 5.52498 8.47516C5.65276 8.60294 5.81109 8.66683 5.99998 8.66683ZM7.99998 8.66683C8.18887 8.66683 8.3472 8.60294 8.47498 8.47516C8.60276 8.34738 8.66665 8.18905 8.66665 8.00016C8.66665 7.81127 8.60276 7.65294 8.47498 7.52516C8.3472 7.39738 8.18887 7.3335 7.99998 7.3335C7.81109 7.3335 7.65276 7.39738 7.52498 7.52516C7.3972 7.65294 7.33331 7.81127 7.33331 8.00016C7.33331 8.18905 7.3972 8.34738 7.52498 8.47516C7.65276 8.60294 7.81109 8.66683 7.99998 8.66683ZM9.99998 8.66683C10.1889 8.66683 10.3472 8.60294 10.475 8.47516C10.6028 8.34738 10.6666 8.18905 10.6666 8.00016C10.6666 7.81127 10.6028 7.65294 10.475 7.52516C10.3472 7.39738 10.1889 7.3335 9.99998 7.3335C9.81109 7.3335 9.65276 7.39738 9.52498 7.52516C9.3972 7.65294 9.33331 7.81127 9.33331 8.00016C9.33331 8.18905 9.3972 8.34738 9.52498 8.47516C9.65276 8.60294 9.81109 8.66683 9.99998 8.66683ZM12 8.66683C12.1889 8.66683 12.3472 8.60294 12.475 8.47516C12.6028 8.34738 12.6666 8.18905 12.6666 8.00016C12.6666 7.81127 12.6028 7.65294 12.475 7.52516C12.3472 7.39738 12.1889 7.3335 12 7.3335C11.8111 7.3335 11.6528 7.39738 11.525 7.52516C11.3972 7.65294 11.3333 7.81127 11.3333 8.00016C11.3333 8.18905 11.3972 8.34738 11.525 8.47516C11.6528 8.60294 11.8111 8.66683 12 8.66683Z" fill="black"/>
</svg>
