<svg width="28" height="28" viewBox="0 0 28 28" fill="none" xmlns="http://www.w3.org/2000/svg">
<path d="M13.5916 26.425L10.325 23.1583C10.1305 22.9639 10.0819 22.75 10.1791 22.5167C10.2764 22.2833 10.4611 22.1667 10.7333 22.1667H17.2666C17.5389 22.1667 17.7236 22.2833 17.8208 22.5167C17.918 22.75 17.8694 22.9639 17.675 23.1583L14.4083 26.425C14.2916 26.5417 14.1555 26.6 14 26.6C13.8444 26.6 13.7083 26.5417 13.5916 26.425ZM4.66665 19.8333C4.02498 19.8333 3.47567 19.6049 3.01873 19.1479C2.56179 18.691 2.33331 18.1417 2.33331 17.5V5.83333C2.33331 5.19167 2.56179 4.64236 3.01873 4.18542C3.47567 3.72847 4.02498 3.5 4.66665 3.5H23.3333C23.975 3.5 24.5243 3.72847 24.9812 4.18542C25.4382 4.64236 25.6666 5.19167 25.6666 5.83333V17.5C25.6666 18.1417 25.4382 18.691 24.9812 19.1479C24.5243 19.6049 23.975 19.8333 23.3333 19.8333H4.66665ZM4.66665 17.5H23.3333V5.83333H4.66665V17.5ZM10.5 16.3333H17.5C17.8305 16.3333 18.1076 16.2215 18.3312 15.9979C18.5548 15.7743 18.6666 15.4972 18.6666 15.1667C18.6666 14.8361 18.5548 14.559 18.3312 14.3354C18.1076 14.1118 17.8305 14 17.5 14H10.5C10.1694 14 9.89234 14.1118 9.66873 14.3354C9.44512 14.559 9.33331 14.8361 9.33331 15.1667C9.33331 15.4972 9.44512 15.7743 9.66873 15.9979C9.89234 16.2215 10.1694 16.3333 10.5 16.3333ZM6.99998 9.33333C7.33054 9.33333 7.60762 9.22153 7.83123 8.99792C8.05484 8.77431 8.16665 8.49722 8.16665 8.16667C8.16665 7.83611 8.05484 7.55903 7.83123 7.33542C7.60762 7.11181 7.33054 7 6.99998 7C6.66942 7 6.39234 7.11181 6.16873 7.33542C5.94512 7.55903 5.83331 7.83611 5.83331 8.16667C5.83331 8.49722 5.94512 8.77431 6.16873 8.99792C6.39234 9.22153 6.66942 9.33333 6.99998 9.33333ZM10.5 9.33333C10.8305 9.33333 11.1076 9.22153 11.3312 8.99792C11.5548 8.77431 11.6666 8.49722 11.6666 8.16667C11.6666 7.83611 11.5548 7.55903 11.3312 7.33542C11.1076 7.11181 10.8305 7 10.5 7C10.1694 7 9.89234 7.11181 9.66873 7.33542C9.44512 7.55903 9.33331 7.83611 9.33331 8.16667C9.33331 8.49722 9.44512 8.77431 9.66873 8.99792C9.89234 9.22153 10.1694 9.33333 10.5 9.33333ZM14 9.33333C14.3305 9.33333 14.6076 9.22153 14.8312 8.99792C15.0548 8.77431 15.1666 8.49722 15.1666 8.16667C15.1666 7.83611 15.0548 7.55903 14.8312 7.33542C14.6076 7.11181 14.3305 7 14 7C13.6694 7 13.3923 7.11181 13.1687 7.33542C12.9451 7.55903 12.8333 7.83611 12.8333 8.16667C12.8333 8.49722 12.9451 8.77431 13.1687 8.99792C13.3923 9.22153 13.6694 9.33333 14 9.33333ZM17.5 9.33333C17.8305 9.33333 18.1076 9.22153 18.3312 8.99792C18.5548 8.77431 18.6666 8.49722 18.6666 8.16667C18.6666 7.83611 18.5548 7.55903 18.3312 7.33542C18.1076 7.11181 17.8305 7 17.5 7C17.1694 7 16.8923 7.11181 16.6687 7.33542C16.4451 7.55903 16.3333 7.83611 16.3333 8.16667C16.3333 8.49722 16.4451 8.77431 16.6687 8.99792C16.8923 9.22153 17.1694 9.33333 17.5 9.33333ZM21 9.33333C21.3305 9.33333 21.6076 9.22153 21.8312 8.99792C22.0548 8.77431 22.1666 8.49722 22.1666 8.16667C22.1666 7.83611 22.0548 7.55903 21.8312 7.33542C21.6076 7.11181 21.3305 7 21 7C20.6694 7 20.3923 7.11181 20.1687 7.33542C19.9451 7.55903 19.8333 7.83611 19.8333 8.16667C19.8333 8.49722 19.9451 8.77431 20.1687 8.99792C20.3923 9.22153 20.6694 9.33333 21 9.33333ZM6.99998 12.8333C7.33054 12.8333 7.60762 12.7215 7.83123 12.4979C8.05484 12.2743 8.16665 11.9972 8.16665 11.6667C8.16665 11.3361 8.05484 11.059 7.83123 10.8354C7.60762 10.6118 7.33054 10.5 6.99998 10.5C6.66942 10.5 6.39234 10.6118 6.16873 10.8354C5.94512 11.059 5.83331 11.3361 5.83331 11.6667C5.83331 11.9972 5.94512 12.2743 6.16873 12.4979C6.39234 12.7215 6.66942 12.8333 6.99998 12.8333ZM10.5 12.8333C10.8305 12.8333 11.1076 12.7215 11.3312 12.4979C11.5548 12.2743 11.6666 11.9972 11.6666 11.6667C11.6666 11.3361 11.5548 11.059 11.3312 10.8354C11.1076 10.6118 10.8305 10.5 10.5 10.5C10.1694 10.5 9.89234 10.6118 9.66873 10.8354C9.44512 11.059 9.33331 11.3361 9.33331 11.6667C9.33331 11.9972 9.44512 12.2743 9.66873 12.4979C9.89234 12.7215 10.1694 12.8333 10.5 12.8333ZM14 12.8333C14.3305 12.8333 14.6076 12.7215 14.8312 12.4979C15.0548 12.2743 15.1666 11.9972 15.1666 11.6667C15.1666 11.3361 15.0548 11.059 14.8312 10.8354C14.6076 10.6118 14.3305 10.5 14 10.5C13.6694 10.5 13.3923 10.6118 13.1687 10.8354C12.9451 11.059 12.8333 11.3361 12.8333 11.6667C12.8333 11.9972 12.9451 12.2743 13.1687 12.4979C13.3923 12.7215 13.6694 12.8333 14 12.8333ZM17.5 12.8333C17.8305 12.8333 18.1076 12.7215 18.3312 12.4979C18.5548 12.2743 18.6666 11.9972 18.6666 11.6667C18.6666 11.3361 18.5548 11.059 18.3312 10.8354C18.1076 10.6118 17.8305 10.5 17.5 10.5C17.1694 10.5 16.8923 10.6118 16.6687 10.8354C16.4451 11.059 16.3333 11.3361 16.3333 11.6667C16.3333 11.9972 16.4451 12.2743 16.6687 12.4979C16.8923 12.7215 17.1694 12.8333 17.5 12.8333ZM21 12.8333C21.3305 12.8333 21.6076 12.7215 21.8312 12.4979C22.0548 12.2743 22.1666 11.9972 22.1666 11.6667C22.1666 11.3361 22.0548 11.059 21.8312 10.8354C21.6076 10.6118 21.3305 10.5 21 10.5C20.6694 10.5 20.3923 10.6118 20.1687 10.8354C19.9451 11.059 19.8333 11.3361 19.8333 11.6667C19.8333 11.9972 19.9451 12.2743 20.1687 12.4979C20.3923 12.7215 20.6694 12.8333 21 12.8333Z" fill="black"/>
</svg>
