<svg width="16" height="16" viewBox="0 0 16 16" fill="none" xmlns="http://www.w3.org/2000/svg">
<path d="M7.76665 15.1L5.89998 13.2333C5.78887 13.1222 5.76109 13 5.81665 12.8667C5.8722 12.7333 5.97776 12.6667 6.13331 12.6667H9.86665C10.0222 12.6667 10.1278 12.7333 10.1833 12.8667C10.2389 13 10.2111 13.1222 10.1 13.2333L8.23331 15.1C8.16665 15.1667 8.08887 15.2 7.99998 15.2C7.91109 15.2 7.83331 15.1667 7.76665 15.1ZM2.66665 11.3333C2.29998 11.3333 1.98609 11.2028 1.72498 10.9417C1.46387 10.6806 1.33331 10.3667 1.33331 10V3.33333C1.33331 2.96667 1.46387 2.65278 1.72498 2.39167C1.98609 2.13056 2.29998 2 2.66665 2H13.3333C13.7 2 14.0139 2.13056 14.275 2.39167C14.5361 2.65278 14.6666 2.96667 14.6666 3.33333V10C14.6666 10.3667 14.5361 10.6806 14.275 10.9417C14.0139 11.2028 13.7 11.3333 13.3333 11.3333H2.66665ZM2.66665 10H13.3333V3.33333H2.66665V10ZM5.99998 9.33333H9.99998C10.1889 9.33333 10.3472 9.26945 10.475 9.14167C10.6028 9.01389 10.6666 8.85556 10.6666 8.66667C10.6666 8.47778 10.6028 8.31944 10.475 8.19167C10.3472 8.06389 10.1889 8 9.99998 8H5.99998C5.81109 8 5.65276 8.06389 5.52498 8.19167C5.3972 8.31944 5.33331 8.47778 5.33331 8.66667C5.33331 8.85556 5.3972 9.01389 5.52498 9.14167C5.65276 9.26945 5.81109 9.33333 5.99998 9.33333ZM3.99998 5.33333C4.18887 5.33333 4.3472 5.26944 4.47498 5.14167C4.60276 5.01389 4.66665 4.85556 4.66665 4.66667C4.66665 4.47778 4.60276 4.31944 4.47498 4.19167C4.3472 4.06389 4.18887 4 3.99998 4C3.81109 4 3.65276 4.06389 3.52498 4.19167C3.3972 4.31944 3.33331 4.47778 3.33331 4.66667C3.33331 4.85556 3.3972 5.01389 3.52498 5.14167C3.65276 5.26944 3.81109 5.33333 3.99998 5.33333ZM5.99998 5.33333C6.18887 5.33333 6.3472 5.26944 6.47498 5.14167C6.60276 5.01389 6.66665 4.85556 6.66665 4.66667C6.66665 4.47778 6.60276 4.31944 6.47498 4.19167C6.3472 4.06389 6.18887 4 5.99998 4C5.81109 4 5.65276 4.06389 5.52498 4.19167C5.3972 4.31944 5.33331 4.47778 5.33331 4.66667C5.33331 4.85556 5.3972 5.01389 5.52498 5.14167C5.65276 5.26944 5.81109 5.33333 5.99998 5.33333ZM7.99998 5.33333C8.18887 5.33333 8.3472 5.26944 8.47498 5.14167C8.60276 5.01389 8.66665 4.85556 8.66665 4.66667C8.66665 4.47778 8.60276 4.31944 8.47498 4.19167C8.3472 4.06389 8.18887 4 7.99998 4C7.81109 4 7.65276 4.06389 7.52498 4.19167C7.3972 4.31944 7.33331 4.47778 7.33331 4.66667C7.33331 4.85556 7.3972 5.01389 7.52498 5.14167C7.65276 5.26944 7.81109 5.33333 7.99998 5.33333ZM9.99998 5.33333C10.1889 5.33333 10.3472 5.26944 10.475 5.14167C10.6028 5.01389 10.6666 4.85556 10.6666 4.66667C10.6666 4.47778 10.6028 4.31944 10.475 4.19167C10.3472 4.06389 10.1889 4 9.99998 4C9.81109 4 9.65276 4.06389 9.52498 4.19167C9.3972 4.31944 9.33331 4.47778 9.33331 4.66667C9.33331 4.85556 9.3972 5.01389 9.52498 5.14167C9.65276 5.26944 9.81109 5.33333 9.99998 5.33333ZM12 5.33333C12.1889 5.33333 12.3472 5.26944 12.475 5.14167C12.6028 5.01389 12.6666 4.85556 12.6666 4.66667C12.6666 4.47778 12.6028 4.31944 12.475 4.19167C12.3472 4.06389 12.1889 4 12 4C11.8111 4 11.6528 4.06389 11.525 4.19167C11.3972 4.31944 11.3333 4.47778 11.3333 4.66667C11.3333 4.85556 11.3972 5.01389 11.525 5.14167C11.6528 5.26944 11.8111 5.33333 12 5.33333ZM3.99998 7.33333C4.18887 7.33333 4.3472 7.26944 4.47498 7.14167C4.60276 7.01389 4.66665 6.85556 4.66665 6.66667C4.66665 6.47778 4.60276 6.31944 4.47498 6.19167C4.3472 6.06389 4.18887 6 3.99998 6C3.81109 6 3.65276 6.06389 3.52498 6.19167C3.3972 6.31944 3.33331 6.47778 3.33331 6.66667C3.33331 6.85556 3.3972 7.01389 3.52498 7.14167C3.65276 7.26944 3.81109 7.33333 3.99998 7.33333ZM5.99998 7.33333C6.18887 7.33333 6.3472 7.26944 6.47498 7.14167C6.60276 7.01389 6.66665 6.85556 6.66665 6.66667C6.66665 6.47778 6.60276 6.31944 6.47498 6.19167C6.3472 6.06389 6.18887 6 5.99998 6C5.81109 6 5.65276 6.06389 5.52498 6.19167C5.3972 6.31944 5.33331 6.47778 5.33331 6.66667C5.33331 6.85556 5.3972 7.01389 5.52498 7.14167C5.65276 7.26944 5.81109 7.33333 5.99998 7.33333ZM7.99998 7.33333C8.18887 7.33333 8.3472 7.26944 8.47498 7.14167C8.60276 7.01389 8.66665 6.85556 8.66665 6.66667C8.66665 6.47778 8.60276 6.31944 8.47498 6.19167C8.3472 6.06389 8.18887 6 7.99998 6C7.81109 6 7.65276 6.06389 7.52498 6.19167C7.3972 6.31944 7.33331 6.47778 7.33331 6.66667C7.33331 6.85556 7.3972 7.01389 7.52498 7.14167C7.65276 7.26944 7.81109 7.33333 7.99998 7.33333ZM9.99998 7.33333C10.1889 7.33333 10.3472 7.26944 10.475 7.14167C10.6028 7.01389 10.6666 6.85556 10.6666 6.66667C10.6666 6.47778 10.6028 6.31944 10.475 6.19167C10.3472 6.06389 10.1889 6 9.99998 6C9.81109 6 9.65276 6.06389 9.52498 6.19167C9.3972 6.31944 9.33331 6.47778 9.33331 6.66667C9.33331 6.85556 9.3972 7.01389 9.52498 7.14167C9.65276 7.26944 9.81109 7.33333 9.99998 7.33333ZM12 7.33333C12.1889 7.33333 12.3472 7.26944 12.475 7.14167C12.6028 7.01389 12.6666 6.85556 12.6666 6.66667C12.6666 6.47778 12.6028 6.31944 12.475 6.19167C12.3472 6.06389 12.1889 6 12 6C11.8111 6 11.6528 6.06389 11.525 6.19167C11.3972 6.31944 11.3333 6.47778 11.3333 6.66667C11.3333 6.85556 11.3972 7.01389 11.525 7.14167C11.6528 7.26944 11.8111 7.33333 12 7.33333Z" fill="black"/>
</svg>
