<svg width="16" height="16" viewBox="0 0 16 16" fill="none" xmlns="http://www.w3.org/2000/svg">
<path d="M8 14.6663C7.08889 14.6663 6.22778 14.4913 5.41667 14.1413C4.60555 13.7913 3.89722 13.3136 3.29167 12.708C2.68611 12.1025 2.20833 11.3941 1.85833 10.583C1.50833 9.7719 1.33333 8.91079 1.33333 7.99967C1.33333 7.07745 1.50833 6.21356 1.85833 5.40801C2.20833 4.60245 2.68611 3.8969 3.29167 3.29134C3.89722 2.68579 4.60555 2.20801 5.41667 1.85801C6.22778 1.50801 7.08889 1.33301 8 1.33301C8.92222 1.33301 9.78611 1.50801 10.5917 1.85801C11.3972 2.20801 12.1028 2.68579 12.7083 3.29134C13.3139 3.8969 13.7917 4.60245 14.1417 5.40801C14.4917 6.21356 14.6667 7.07745 14.6667 7.99967C14.6667 8.91079 14.4917 9.7719 14.1417 10.583C13.7917 11.3941 13.3139 12.1025 12.7083 12.708C12.1028 13.3136 11.3972 13.7913 10.5917 14.1413C9.78611 14.4913 8.92222 14.6663 8 14.6663ZM8 13.2997C8.28889 12.8997 8.53889 12.483 8.75 12.0497C8.96111 11.6163 9.13333 11.1552 9.26667 10.6663H6.73333C6.86667 11.1552 7.03889 11.6163 7.25 12.0497C7.46111 12.483 7.71111 12.8997 8 13.2997ZM6.26667 13.033C6.06667 12.6663 5.89167 12.2858 5.74167 11.8913C5.59167 11.4969 5.46667 11.0886 5.36667 10.6663H3.4C3.72222 11.2219 4.125 11.7052 4.60833 12.1163C5.09167 12.5275 5.64444 12.833 6.26667 13.033ZM9.73333 13.033C10.3556 12.833 10.9083 12.5275 11.3917 12.1163C11.875 11.7052 12.2778 11.2219 12.6 10.6663H10.6333C10.5333 11.0886 10.4083 11.4969 10.2583 11.8913C10.1083 12.2858 9.93333 12.6663 9.73333 13.033ZM2.83333 9.33301H5.1C5.06667 9.11079 5.04167 8.89134 5.025 8.67467C5.00833 8.45801 5 8.23301 5 7.99967C5 7.76634 5.00833 7.54134 5.025 7.32467C5.04167 7.10801 5.06667 6.88856 5.1 6.66634H2.83333C2.77778 6.88856 2.73611 7.10801 2.70833 7.32467C2.68055 7.54134 2.66667 7.76634 2.66667 7.99967C2.66667 8.23301 2.68055 8.45801 2.70833 8.67467C2.73611 8.89134 2.77778 9.11079 2.83333 9.33301ZM6.43333 9.33301H9.56667C9.6 9.11079 9.625 8.89134 9.64167 8.67467C9.65833 8.45801 9.66666 8.23301 9.66666 7.99967C9.66666 7.76634 9.65833 7.54134 9.64167 7.32467C9.625 7.10801 9.6 6.88856 9.56667 6.66634H6.43333C6.4 6.88856 6.375 7.10801 6.35833 7.32467C6.34167 7.54134 6.33333 7.76634 6.33333 7.99967C6.33333 8.23301 6.34167 8.45801 6.35833 8.67467C6.375 8.89134 6.4 9.11079 6.43333 9.33301ZM10.9 9.33301H13.1667C13.2222 9.11079 13.2639 8.89134 13.2917 8.67467C13.3194 8.45801 13.3333 8.23301 13.3333 7.99967C13.3333 7.76634 13.3194 7.54134 13.2917 7.32467C13.2639 7.10801 13.2222 6.88856 13.1667 6.66634H10.9C10.9333 6.88856 10.9583 7.10801 10.975 7.32467C10.9917 7.54134 11 7.76634 11 7.99967C11 8.23301 10.9917 8.45801 10.975 8.67467C10.9583 8.89134 10.9333 9.11079 10.9 9.33301ZM10.6333 5.33301H12.6C12.2778 4.77745 11.875 4.29412 11.3917 3.88301C10.9083 3.4719 10.3556 3.16634 9.73333 2.96634C9.93333 3.33301 10.1083 3.71356 10.2583 4.10801C10.4083 4.50245 10.5333 4.91079 10.6333 5.33301ZM6.73333 5.33301H9.26667C9.13333 4.84412 8.96111 4.38301 8.75 3.94967C8.53889 3.51634 8.28889 3.09967 8 2.69967C7.71111 3.09967 7.46111 3.51634 7.25 3.94967C7.03889 4.38301 6.86667 4.84412 6.73333 5.33301ZM3.4 5.33301H5.36667C5.46667 4.91079 5.59167 4.50245 5.74167 4.10801C5.89167 3.71356 6.06667 3.33301 6.26667 2.96634C5.64444 3.16634 5.09167 3.4719 4.60833 3.88301C4.125 4.29412 3.72222 4.77745 3.4 5.33301Z" fill="#191919"/>
</svg>
