<svg width="28" height="28" viewBox="0 0 28 28" fill="none" xmlns="http://www.w3.org/2000/svg">
<path d="M14 25.6663C12.4056 25.6663 10.8986 25.3601 9.47916 24.7476C8.05972 24.1351 6.82013 23.299 5.76041 22.2393C4.70069 21.1795 3.86458 19.94 3.25208 18.5205C2.63958 17.1011 2.33333 15.5941 2.33333 13.9997C2.33333 12.3858 2.63958 10.874 3.25208 9.46426C3.86458 8.05454 4.70069 6.81981 5.76041 5.76009C6.82013 4.70037 8.05972 3.86426 9.47916 3.25176C10.8986 2.63926 12.4056 2.33301 14 2.33301C15.6139 2.33301 17.1257 2.63926 18.5354 3.25176C19.9451 3.86426 21.1799 4.70037 22.2396 5.76009C23.2993 6.81981 24.1354 8.05454 24.7479 9.46426C25.3604 10.874 25.6667 12.3858 25.6667 13.9997C25.6667 15.5941 25.3604 17.1011 24.7479 18.5205C24.1354 19.94 23.2993 21.1795 22.2396 22.2393C21.1799 23.299 19.9451 24.1351 18.5354 24.7476C17.1257 25.3601 15.6139 25.6663 14 25.6663ZM14 23.2747C14.5056 22.5747 14.9431 21.8455 15.3125 21.0872C15.6819 20.3288 15.9833 19.5219 16.2167 18.6663H11.7833C12.0167 19.5219 12.3181 20.3288 12.6875 21.0872C13.0569 21.8455 13.4944 22.5747 14 23.2747ZM10.9667 22.808C10.6167 22.1663 10.3104 21.5004 10.0479 20.8101C9.78541 20.1198 9.56666 19.4052 9.39166 18.6663H5.95C6.51388 19.6386 7.21875 20.4844 8.06458 21.2038C8.91041 21.9233 9.87777 22.458 10.9667 22.808ZM17.0333 22.808C18.1222 22.458 19.0896 21.9233 19.9354 21.2038C20.7812 20.4844 21.4861 19.6386 22.05 18.6663H18.6083C18.4333 19.4052 18.2146 20.1198 17.9521 20.8101C17.6896 21.5004 17.3833 22.1663 17.0333 22.808ZM4.95833 16.333H8.925C8.86666 15.9441 8.82291 15.5601 8.79375 15.1809C8.76458 14.8018 8.75 14.408 8.75 13.9997C8.75 13.5913 8.76458 13.1976 8.79375 12.8184C8.82291 12.4393 8.86666 12.0552 8.925 11.6663H4.95833C4.86111 12.0552 4.78819 12.4393 4.73958 12.8184C4.69097 13.1976 4.66666 13.5913 4.66666 13.9997C4.66666 14.408 4.69097 14.8018 4.73958 15.1809C4.78819 15.5601 4.86111 15.9441 4.95833 16.333ZM11.2583 16.333H16.7417C16.8 15.9441 16.8437 15.5601 16.8729 15.1809C16.9021 14.8018 16.9167 14.408 16.9167 13.9997C16.9167 13.5913 16.9021 13.1976 16.8729 12.8184C16.8437 12.4393 16.8 12.0552 16.7417 11.6663H11.2583C11.2 12.0552 11.1562 12.4393 11.1271 12.8184C11.0979 13.1976 11.0833 13.5913 11.0833 13.9997C11.0833 14.408 11.0979 14.8018 11.1271 15.1809C11.1562 15.5601 11.2 15.9441 11.2583 16.333ZM19.075 16.333H23.0417C23.1389 15.9441 23.2118 15.5601 23.2604 15.1809C23.309 14.8018 23.3333 14.408 23.3333 13.9997C23.3333 13.5913 23.309 13.1976 23.2604 12.8184C23.2118 12.4393 23.1389 12.0552 23.0417 11.6663H19.075C19.1333 12.0552 19.1771 12.4393 19.2062 12.8184C19.2354 13.1976 19.25 13.5913 19.25 13.9997C19.25 14.408 19.2354 14.8018 19.2062 15.1809C19.1771 15.5601 19.1333 15.9441 19.075 16.333ZM18.6083 9.33301H22.05C21.4861 8.36079 20.7812 7.51495 19.9354 6.79551C19.0896 6.07606 18.1222 5.54134 17.0333 5.19134C17.3833 5.83301 17.6896 6.49898 17.9521 7.18926C18.2146 7.87954 18.4333 8.59412 18.6083 9.33301ZM11.7833 9.33301H16.2167C15.9833 8.47745 15.6819 7.67051 15.3125 6.91217C14.9431 6.15384 14.5056 5.42467 14 4.72467C13.4944 5.42467 13.0569 6.15384 12.6875 6.91217C12.3181 7.67051 12.0167 8.47745 11.7833 9.33301ZM5.95 9.33301H9.39166C9.56666 8.59412 9.78541 7.87954 10.0479 7.18926C10.3104 6.49898 10.6167 5.83301 10.9667 5.19134C9.87777 5.54134 8.91041 6.07606 8.06458 6.79551C7.21875 7.51495 6.51388 8.36079 5.95 9.33301Z" fill="#191919"/>
</svg>
