<svg width="16" height="16" viewBox="0 0 16 16" fill="none" xmlns="http://www.w3.org/2000/svg">
<path d="M8.00002 9.99984C8.55558 9.99984 9.0278 9.80539 9.41669 9.4165C9.80558 9.02762 10 8.55539 10 7.99984C10 7.44428 9.80558 6.97206 9.41669 6.58317C9.0278 6.19428 8.55558 5.99984 8.00002 5.99984C7.44447 5.99984 6.97224 6.19428 6.58335 6.58317C6.19447 6.97206 6.00002 7.44428 6.00002 7.99984C6.00002 8.55539 6.19447 9.02762 6.58335 9.4165C6.97224 9.80539 7.44447 9.99984 8.00002 9.99984ZM8.00002 11.3332C7.0778 11.3332 6.2918 11.0081 5.64202 10.3578C4.9918 9.70806 4.66669 8.92206 4.66669 7.99984C4.66669 7.07762 4.9918 6.29139 5.64202 5.64117C6.2918 4.99139 7.0778 4.6665 8.00002 4.6665C8.92224 4.6665 9.70847 4.99139 10.3587 5.64117C11.0085 6.29139 11.3334 7.07762 11.3334 7.99984C11.3334 8.92206 11.0085 9.70806 10.3587 10.3578C9.70847 11.0081 8.92224 11.3332 8.00002 11.3332ZM1.33335 8.6665C1.14446 8.6665 0.986243 8.6025 0.858687 8.4745C0.730687 8.34695 0.666687 8.18873 0.666687 7.99984C0.666687 7.81095 0.730687 7.6525 0.858687 7.5245C0.986243 7.39695 1.14446 7.33317 1.33335 7.33317H2.66669C2.85558 7.33317 3.01402 7.39695 3.14202 7.5245C3.26958 7.6525 3.33335 7.81095 3.33335 7.99984C3.33335 8.18873 3.26958 8.34695 3.14202 8.4745C3.01402 8.6025 2.85558 8.6665 2.66669 8.6665H1.33335ZM13.3334 8.6665C13.1445 8.6665 12.9862 8.6025 12.8587 8.4745C12.7307 8.34695 12.6667 8.18873 12.6667 7.99984C12.6667 7.81095 12.7307 7.6525 12.8587 7.5245C12.9862 7.39695 13.1445 7.33317 13.3334 7.33317H14.6667C14.8556 7.33317 15.0138 7.39695 15.1414 7.5245C15.2694 7.6525 15.3334 7.81095 15.3334 7.99984C15.3334 8.18873 15.2694 8.34695 15.1414 8.4745C15.0138 8.6025 14.8556 8.6665 14.6667 8.6665H13.3334ZM8.00002 3.33317C7.81113 3.33317 7.65291 3.26917 7.52535 3.14117C7.39735 3.01362 7.33335 2.85539 7.33335 2.6665V1.33317C7.33335 1.14428 7.39735 0.985837 7.52535 0.857837C7.65291 0.730282 7.81113 0.666504 8.00002 0.666504C8.18891 0.666504 8.34735 0.730282 8.47535 0.857837C8.60291 0.985837 8.66669 1.14428 8.66669 1.33317V2.6665C8.66669 2.85539 8.60291 3.01362 8.47535 3.14117C8.34735 3.26917 8.18891 3.33317 8.00002 3.33317ZM8.00002 15.3332C7.81113 15.3332 7.65291 15.2692 7.52535 15.1412C7.39735 15.0136 7.33335 14.8554 7.33335 14.6665V13.3332C7.33335 13.1443 7.39735 12.9861 7.52535 12.8585C7.65291 12.7305 7.81113 12.6665 8.00002 12.6665C8.18891 12.6665 8.34735 12.7305 8.47535 12.8585C8.60291 12.9861 8.66669 13.1443 8.66669 13.3332V14.6665C8.66669 14.8554 8.60291 15.0136 8.47535 15.1412C8.34735 15.2692 8.18891 15.3332 8.00002 15.3332ZM3.76669 4.69984L3.05002 3.99984C2.91669 3.87762 2.85269 3.72206 2.85802 3.53317C2.8638 3.34428 2.9278 3.18317 3.05002 3.04984C3.18335 2.9165 3.34447 2.84984 3.53335 2.84984C3.72224 2.84984 3.8778 2.9165 4.00002 3.04984L4.70002 3.7665C4.82224 3.89984 4.88335 4.05539 4.88335 4.23317C4.88335 4.41095 4.82224 4.5665 4.70002 4.69984C4.5778 4.83317 4.42513 4.89695 4.24202 4.89117C4.05846 4.88584 3.90002 4.82206 3.76669 4.69984ZM12 12.9498L11.3 12.2332C11.1778 12.0998 11.1167 11.9416 11.1167 11.7585C11.1167 11.5749 11.1778 11.4221 11.3 11.2998C11.4222 11.1665 11.5751 11.1027 11.7587 11.1085C11.9418 11.1138 12.1 11.1776 12.2334 11.2998L12.95 11.9998C13.0834 12.1221 13.1474 12.2776 13.142 12.4665C13.1362 12.6554 13.0722 12.8165 12.95 12.9498C12.8167 13.0832 12.6556 13.1498 12.4667 13.1498C12.2778 13.1498 12.1222 13.0832 12 12.9498ZM11.3 4.69984C11.1667 4.57762 11.1029 4.42473 11.1087 4.24117C11.114 4.05806 11.1778 3.89984 11.3 3.7665L12 3.04984C12.1222 2.9165 12.2778 2.8525 12.4667 2.85784C12.6556 2.86362 12.8167 2.92761 12.95 3.04984C13.0834 3.18317 13.15 3.34428 13.15 3.53317C13.15 3.72206 13.0834 3.87762 12.95 3.99984L12.2334 4.69984C12.1 4.82206 11.9445 4.88317 11.7667 4.88317C11.5889 4.88317 11.4334 4.82206 11.3 4.69984ZM3.05002 12.9498C2.91669 12.8165 2.85002 12.6554 2.85002 12.4665C2.85002 12.2776 2.91669 12.1221 3.05002 11.9998L3.76669 11.2998C3.90002 11.1776 4.05846 11.1165 4.24202 11.1165C4.42513 11.1165 4.5778 11.1776 4.70002 11.2998C4.83335 11.4221 4.89735 11.5749 4.89202 11.7585C4.88624 11.9416 4.82224 12.0998 4.70002 12.2332L4.00002 12.9498C3.8778 13.0832 3.72224 13.1469 3.53335 13.1412C3.34447 13.1358 3.18335 13.0721 3.05002 12.9498Z" fill="black"/>
</svg>
