<svg width="28" height="28" viewBox="0 0 28 28" fill="none" xmlns="http://www.w3.org/2000/svg">
<path d="M14 17.4998C14.9722 17.4998 15.7986 17.1596 16.4792 16.479C17.1597 15.7984 17.5 14.9721 17.5 13.9998C17.5 13.0276 17.1597 12.2012 16.4792 11.5207C15.7986 10.8401 14.9722 10.4998 14 10.4998C13.0278 10.4998 12.2014 10.8401 11.5208 11.5207C10.8403 12.2012 10.5 13.0276 10.5 13.9998C10.5 14.9721 10.8403 15.7984 11.5208 16.479C12.2014 17.1596 13.0278 17.4998 14 17.4998ZM14 19.8332C12.3861 19.8332 11.0106 19.2642 9.87349 18.1263C8.7356 16.9892 8.16666 15.6137 8.16666 13.9998C8.16666 12.3859 8.7356 11.0101 9.87349 9.87217C11.0106 8.73506 12.3861 8.1665 14 8.1665C15.6139 8.1665 16.9898 8.73506 18.1277 9.87217C19.2648 11.0101 19.8333 12.3859 19.8333 13.9998C19.8333 15.6137 19.2648 16.9892 18.1277 18.1263C16.9898 19.2642 15.6139 19.8332 14 19.8332ZM2.33332 15.1665C2.00277 15.1665 1.72588 15.0545 1.50266 14.8305C1.27866 14.6073 1.16666 14.3304 1.16666 13.9998C1.16666 13.6693 1.27866 13.392 1.50266 13.168C1.72588 12.9448 2.00277 12.8332 2.33332 12.8332H4.66666C4.99721 12.8332 5.27449 12.9448 5.49849 13.168C5.72171 13.392 5.83332 13.6693 5.83332 13.9998C5.83332 14.3304 5.72171 14.6073 5.49849 14.8305C5.27449 15.0545 4.99721 15.1665 4.66666 15.1665H2.33332ZM23.3333 15.1665C23.0028 15.1665 22.7259 15.0545 22.5027 14.8305C22.2787 14.6073 22.1667 14.3304 22.1667 13.9998C22.1667 13.6693 22.2787 13.392 22.5027 13.168C22.7259 12.9448 23.0028 12.8332 23.3333 12.8332H25.6667C25.9972 12.8332 26.2741 12.9448 26.4973 13.168C26.7213 13.392 26.8333 13.6693 26.8333 13.9998C26.8333 14.3304 26.7213 14.6073 26.4973 14.8305C26.2741 15.0545 25.9972 15.1665 25.6667 15.1665H23.3333ZM14 5.83317C13.6694 5.83317 13.3925 5.72117 13.1693 5.49717C12.9453 5.27395 12.8333 4.99706 12.8333 4.6665V2.33317C12.8333 2.00261 12.9453 1.72534 13.1693 1.50134C13.3925 1.27811 13.6694 1.1665 14 1.1665C14.3305 1.1665 14.6078 1.27811 14.8318 1.50134C15.055 1.72534 15.1667 2.00261 15.1667 2.33317V4.6665C15.1667 4.99706 15.055 5.27395 14.8318 5.49717C14.6078 5.72117 14.3305 5.83317 14 5.83317ZM14 26.8332C13.6694 26.8332 13.3925 26.7212 13.1693 26.4972C12.9453 26.2739 12.8333 25.9971 12.8333 25.6665V23.3332C12.8333 23.0026 12.9453 22.7257 13.1693 22.5025C13.3925 22.2785 13.6694 22.1665 14 22.1665C14.3305 22.1665 14.6078 22.2785 14.8318 22.5025C15.055 22.7257 15.1667 23.0026 15.1667 23.3332V25.6665C15.1667 25.9971 15.055 26.2739 14.8318 26.4972C14.6078 26.7212 14.3305 26.8332 14 26.8332ZM6.59166 8.22484L5.33749 6.99984C5.10416 6.78595 4.99216 6.51373 5.00149 6.18317C5.0116 5.85262 5.1236 5.57067 5.33749 5.33734C5.57082 5.104 5.85277 4.98734 6.18332 4.98734C6.51388 4.98734 6.7861 5.104 6.99999 5.33734L8.22499 6.5915C8.43888 6.82484 8.54582 7.09706 8.54582 7.40817C8.54582 7.71928 8.43888 7.9915 8.22499 8.22484C8.0111 8.45817 7.74393 8.56978 7.42349 8.55967C7.10227 8.55034 6.82499 8.43873 6.59166 8.22484ZM21 22.6623L19.775 21.4082C19.5611 21.1748 19.4542 20.8979 19.4542 20.5775C19.4542 20.2563 19.5611 19.9887 19.775 19.7748C19.9889 19.5415 20.2564 19.4299 20.5777 19.44C20.8981 19.4493 21.175 19.5609 21.4083 19.7748L22.6625 20.9998C22.8958 21.2137 23.0078 21.4859 22.9985 21.8165C22.9884 22.1471 22.8764 22.429 22.6625 22.6623C22.4292 22.8957 22.1472 23.0123 21.8167 23.0123C21.4861 23.0123 21.2139 22.8957 21 22.6623ZM19.775 8.22484C19.5417 8.01095 19.43 7.74339 19.4402 7.42217C19.4495 7.10173 19.5611 6.82484 19.775 6.5915L21 5.33734C21.2139 5.104 21.4861 4.992 21.8167 5.00134C22.1472 5.01145 22.4292 5.12345 22.6625 5.33734C22.8958 5.57067 23.0125 5.85262 23.0125 6.18317C23.0125 6.51373 22.8958 6.78595 22.6625 6.99984L21.4083 8.22484C21.175 8.43873 20.9028 8.54567 20.5917 8.54567C20.2805 8.54567 20.0083 8.43873 19.775 8.22484ZM5.33749 22.6623C5.10416 22.429 4.98749 22.1471 4.98749 21.8165C4.98749 21.4859 5.10416 21.2137 5.33749 20.9998L6.59166 19.7748C6.82499 19.5609 7.10227 19.454 7.42349 19.454C7.74393 19.454 8.0111 19.5609 8.22499 19.7748C8.45832 19.9887 8.57032 20.2563 8.56099 20.5775C8.55088 20.8979 8.43888 21.1748 8.22499 21.4082L6.99999 22.6623C6.7861 22.8957 6.51388 23.0073 6.18332 22.9972C5.85277 22.9878 5.57082 22.8762 5.33749 22.6623Z" fill="black"/>
</svg>
