<svg width="16" height="16" viewBox="0 0 16 16" fill="none" xmlns="http://www.w3.org/2000/svg">
<path d="M5.72387 4.94293L9.27694 1.38986C10.0419 0.62488 11.3284 1.35327 11.066 2.40281L10.4369 4.91927C10.3843 5.12966 10.5434 5.33345 10.7603 5.33345H14C14.7364 5.33345 15.3333 5.93041 15.3333 6.66679V6.86831C15.3333 7.61454 15.1767 8.35247 14.8737 9.03438L13.0186 13.2083C12.8046 13.6898 12.3271 14.0001 11.8002 14.0001H6.66668C5.9303 14.0001 5.33334 13.4032 5.33334 12.6668V5.88574C5.33334 5.53212 5.47382 5.19298 5.72387 4.94293Z" fill="black"/>
<path d="M4.00001 12.6668V6.66679C4.00001 5.93041 3.40306 5.33345 2.66668 5.33345C1.9303 5.33345 1.33334 5.93041 1.33334 6.66679V12.6668C1.33334 13.4032 1.9303 14.0001 2.66668 14.0001C3.40306 14.0001 4.00001 13.4032 4.00001 12.6668Z" fill="black"/>
</svg>
