<svg width="16" height="16" viewBox="0 0 16 16" fill="none" xmlns="http://www.w3.org/2000/svg">
<path d="M4.66665 13.9999V5.33326L8.5466 1.45331C8.98109 1.01882 9.68554 1.01882 10.12 1.45331C10.397 1.73029 10.5079 2.13253 10.4121 2.51233L9.69998 5.33326H13.3333C14.4379 5.33326 15.3333 6.22869 15.3333 7.33326V7.72412C15.3333 8.0821 15.2612 8.43642 15.1214 8.76595L13.4172 12.7813C13.1036 13.5201 12.3788 13.9999 11.5761 13.9999H4.66665ZM5.99998 12.6666H11.5604C11.8271 12.6666 12.0681 12.5077 12.1731 12.2625L13.8922 8.25148C13.9633 8.08551 14 7.90682 14 7.72625V7.33326C14 6.96507 13.7015 6.66659 13.3333 6.66659H8.85007C8.41754 6.66659 8.09952 6.26108 8.20262 5.84101L8.89998 2.99993L5.99998 5.89993V12.6666ZM4.66665 5.33326V6.66659H3.33331C2.96512 6.66659 2.66665 6.96507 2.66665 7.33326V11.9999C2.66665 12.3681 2.96512 12.6666 3.33331 12.6666H4.66665V13.9999H3.33331C2.22874 13.9999 1.33331 13.1045 1.33331 11.9999V7.33326C1.33331 6.22869 2.22874 5.33326 3.33331 5.33326H4.66665Z" fill="black"/>
</svg>
