<svg width="24" height="24" viewBox="0 0 24 24" fill="none" xmlns="http://www.w3.org/2000/svg">
<path d="M8.58579 7.41427L13.9154 2.08466C15.0629 0.937198 16.9926 2.02979 16.599 3.60409L15.6553 7.37879C15.5764 7.69436 15.8151 8.00006 16.1404 8.00006H21C22.1046 8.00006 23 8.89549 23 10.0001V10.3023C23 11.4217 22.7651 12.5286 22.3105 13.5514L19.5279 19.8123C19.2069 20.5346 18.4906 21.0001 17.7003 21.0001H10C8.89543 21.0001 8 20.1046 8 19.0001V8.82848C8 8.29805 8.21071 7.78934 8.58579 7.41427Z" fill="black"/>
<path d="M6 19.0001V10.0001C6 8.89549 5.10457 8.00006 4 8.00006C2.89543 8.00006 2 8.89549 2 10.0001V19.0001C2 20.1046 2.89543 21.0001 4 21.0001C5.10457 21.0001 6 20.1046 6 19.0001Z" fill="black"/>
</svg>
