<svg width="28" height="28" viewBox="0 0 28 28" fill="none" xmlns="http://www.w3.org/2000/svg">
<path d="M10.0168 8.64994L16.2346 2.43206C17.5733 1.09336 19.8247 2.36804 19.3655 4.20473L18.2645 8.60855C18.1725 8.97672 18.451 9.33336 18.8305 9.33336H24.5C25.7887 9.33336 26.8333 10.378 26.8333 11.6667V12.0194C26.8333 13.3253 26.5593 14.6166 26.0289 15.81L22.7825 23.1143C22.408 23.957 21.5724 24.5 20.6503 24.5H11.6667C10.378 24.5 9.33334 23.4554 9.33334 22.1667V10.2999C9.33334 9.68102 9.57918 9.08753 10.0168 8.64994Z" fill="black"/>
<path d="M7.00001 22.1667V11.6667C7.00001 10.378 5.95534 9.33336 4.66668 9.33336C3.37801 9.33336 2.33334 10.378 2.33334 11.6667V22.1667C2.33334 23.4554 3.37801 24.5 4.66668 24.5C5.95534 24.5 7.00001 23.4554 7.00001 22.1667Z" fill="black"/>
</svg>
