<svg width="24" height="24" viewBox="0 0 24 24" fill="none" xmlns="http://www.w3.org/2000/svg">
<path d="M7 20.9999V7.99989L12.8199 2.17996C13.4717 1.52823 14.5283 1.52823 15.1801 2.17997C15.5956 2.59544 15.7619 3.19879 15.6181 3.7685L14.55 7.99989H20C21.6569 7.99989 23 9.34304 23 10.9999V11.5862C23 12.1232 22.8919 12.6546 22.6821 13.1489L20.1258 19.172C19.6555 20.2802 18.5682 20.9999 17.3642 20.9999H7ZM9 18.9999H17.3406C17.7406 18.9999 18.1022 18.7615 18.2597 18.3938L20.8383 12.3772C20.945 12.1283 21 11.8602 21 11.5894V10.9999C21 10.4476 20.5523 9.99989 20 9.99989H13.2751C12.6263 9.99989 12.1493 9.39161 12.304 8.76151L13.35 4.49989L9 8.84989V18.9999ZM7 7.99989V9.99989H5C4.44772 9.99989 4 10.4476 4 10.9999V17.9999C4 18.5522 4.44772 18.9999 5 18.9999H7V20.9999H5C3.34315 20.9999 2 19.6567 2 17.9999V10.9999C2 9.34304 3.34315 7.99989 5 7.99989H7Z" fill="black"/>
</svg>
