<svg width="28" height="28" viewBox="0 0 28 28" fill="none" xmlns="http://www.w3.org/2000/svg">
<path d="M8.16665 24.5V9.33333L14.9566 2.54341C15.7169 1.78305 16.9497 1.78306 17.7101 2.54341C18.1948 3.02814 18.3889 3.73205 18.2211 4.3967L16.975 9.33333H23.3333C25.2663 9.33333 26.8333 10.9003 26.8333 12.8333V13.5173C26.8333 14.1438 26.7072 14.7639 26.4624 15.3405L23.4801 22.3674C22.9313 23.6603 21.6628 24.5 20.2583 24.5H8.16665ZM10.5 22.1667H20.2307C20.6974 22.1667 21.1192 21.8885 21.303 21.4596L24.3113 14.4402C24.4358 14.1498 24.5 13.8371 24.5 13.5211V12.8333C24.5 12.189 23.9776 11.6667 23.3333 11.6667H15.4876C14.7307 11.6667 14.1742 10.957 14.3546 10.2219L15.575 5.25L10.5 10.325V22.1667ZM8.16665 9.33333V11.6667H5.83331C5.18898 11.6667 4.66665 12.189 4.66665 12.8333V21C4.66665 21.6443 5.18898 22.1667 5.83331 22.1667H8.16665V24.5H5.83331C3.90032 24.5 2.33331 22.933 2.33331 21V12.8333C2.33331 10.9003 3.90032 9.33333 5.83331 9.33333H8.16665Z" fill="black"/>
</svg>
