<svg width="24" height="24" viewBox="0 0 24 24" fill="none" xmlns="http://www.w3.org/2000/svg">
<path d="M12.1412 19.2123C11.1277 20.2259 9.90205 20.7326 8.46426 20.7326C7.02648 20.7326 5.80083 20.2259 4.78731 19.2123C3.77379 18.1988 3.26703 16.9732 3.26703 15.5354C3.26703 14.0976 3.77379 12.872 4.78731 11.8584L6.74953 9.89622C6.97345 9.6723 7.23861 9.56034 7.54502 9.56034C7.85144 9.56034 8.1166 9.6723 8.34052 9.89622C8.57622 10.1319 8.69407 10.403 8.69407 10.7094C8.69407 11.0158 8.58211 11.281 8.3582 11.5049L6.39598 13.4671C5.81851 14.0446 5.52977 14.734 5.52977 15.5354C5.52977 16.3368 5.81851 17.0262 6.39598 17.6037C6.97345 18.1812 7.66288 18.4699 8.46426 18.4699C9.26565 18.4699 9.95508 18.1812 10.5326 17.6037L12.4948 15.6415C12.7187 15.4175 12.9839 15.3056 13.2903 15.3056C13.5967 15.3056 13.8677 15.4234 14.1034 15.6591C14.3274 15.8831 14.4393 16.1482 14.4393 16.4546C14.4393 16.761 14.3274 17.0262 14.1034 17.2501L12.1412 19.2123ZM10.5502 14.9344C10.3499 15.1347 10.1052 15.2379 9.81625 15.2441C9.52775 15.2497 9.27744 15.1465 9.0653 14.9344C8.85317 14.7222 8.74993 14.4719 8.75559 14.1834C8.76172 13.8944 8.86496 13.6498 9.0653 13.4494L13.4494 9.06537C13.6497 8.86502 13.8944 8.76178 14.1833 8.75565C14.4718 8.75 14.7222 8.85323 14.9343 9.06537C15.1464 9.2775 15.2497 9.52781 15.244 9.81631C15.2379 10.1053 15.1346 10.3499 14.9343 10.5503L10.5502 14.9344ZM17.2501 14.1035C17.0261 14.3274 16.761 14.4394 16.4546 14.4394C16.1482 14.4394 15.883 14.3274 15.6591 14.1035C15.4234 13.8678 15.3055 13.5967 15.3055 13.2903C15.3055 12.9839 15.4175 12.7188 15.6414 12.4948L17.6036 10.5326C18.1811 9.95514 18.4698 9.26571 18.4698 8.46432C18.4698 7.66294 18.1811 6.97351 17.6036 6.39604C17.0261 5.81857 16.3367 5.52983 15.5353 5.52983C14.7339 5.52983 14.0445 5.81857 13.467 6.39604L11.5048 8.35826C11.2809 8.58218 11.0157 8.69413 10.7093 8.69413C10.4029 8.69413 10.1319 8.57628 9.89615 8.34058C9.67224 8.11666 9.56028 7.8515 9.56028 7.54509C9.56028 7.23867 9.67224 6.97351 9.89615 6.74959L11.8584 4.78737C12.8719 3.77385 14.0975 3.26709 15.5353 3.26709C16.9731 3.26709 18.1988 3.77385 19.2123 4.78737C20.2258 5.80089 20.7326 7.02654 20.7326 8.46432C20.7326 9.90211 20.2258 11.1278 19.2123 12.1413L17.2501 14.1035Z" fill="black"/>
</svg>
