<svg width="16" height="16" viewBox="0 0 16 16" fill="none" xmlns="http://www.w3.org/2000/svg">
<path d="M8.09414 12.8082C7.41846 13.4838 6.60136 13.8217 5.64283 13.8217C4.68431 13.8217 3.86721 13.4838 3.19153 12.8082C2.51585 12.1325 2.17801 11.3154 2.17801 10.3568C2.17801 9.39832 2.51585 8.58122 3.19153 7.90554L4.49968 6.5974C4.64895 6.44812 4.82573 6.37348 5.03001 6.37348C5.23428 6.37348 5.41106 6.44812 5.56034 6.5974C5.71747 6.75453 5.79604 6.93524 5.79604 7.13951C5.79604 7.34379 5.7214 7.52056 5.57212 7.66984L4.26397 8.97799C3.87899 9.36297 3.6865 9.82259 3.6865 10.3568C3.6865 10.8911 3.87899 11.3507 4.26397 11.7357C4.64895 12.1207 5.10857 12.3132 5.64283 12.3132C6.17709 12.3132 6.63671 12.1207 7.02169 11.7357L8.32984 10.4276C8.47912 10.2783 8.65589 10.2036 8.86017 10.2036C9.06444 10.2036 9.24515 10.2822 9.40228 10.4393C9.55156 10.5886 9.6262 10.7654 9.6262 10.9697C9.6262 11.1739 9.55156 11.3507 9.40228 11.5L8.09414 12.8082ZM7.03348 9.95615C6.89991 10.0897 6.7368 10.1585 6.54416 10.1626C6.35182 10.1664 6.18495 10.0976 6.04353 9.95615C5.9021 9.81473 5.83328 9.64786 5.83705 9.45552C5.84114 9.26287 5.90996 9.09977 6.04353 8.9662L8.96623 6.0435C9.0998 5.90993 9.2629 5.84111 9.45555 5.83702C9.64789 5.83325 9.81476 5.90207 9.95618 6.0435C10.0976 6.18492 10.1664 6.35179 10.1627 6.54413C10.1586 6.73677 10.0897 6.89988 9.95618 7.03345L7.03348 9.95615ZM11.5 9.40225C11.3508 9.55153 11.174 9.62617 10.9697 9.62617C10.7654 9.62617 10.5887 9.55153 10.4394 9.40225C10.2822 9.24512 10.2037 9.06441 10.2037 8.86014C10.2037 8.65586 10.2783 8.47909 10.4276 8.32981L11.7357 7.02166C12.1207 6.63668 12.3132 6.17706 12.3132 5.6428C12.3132 5.10854 12.1207 4.64892 11.7357 4.26394C11.3508 3.87896 10.8911 3.68647 10.3569 3.68647C9.82262 3.68647 9.363 3.87896 8.97802 4.26394L7.66987 5.57209C7.52059 5.72137 7.34382 5.79601 7.13954 5.79601C6.93527 5.79601 6.75456 5.71744 6.59743 5.56031C6.44815 5.41103 6.37351 5.23425 6.37351 5.02998C6.37351 4.8257 6.44815 4.64892 6.59743 4.49965L7.90557 3.1915C8.58125 2.51582 9.39835 2.17798 10.3569 2.17798C11.3154 2.17798 12.1325 2.51582 12.8082 3.1915C13.4839 3.86718 13.8217 4.68428 13.8217 5.6428C13.8217 6.60132 13.4839 7.41843 12.8082 8.09411L11.5 9.40225Z" fill="black"/>
</svg>
