<svg width="28" height="28" viewBox="0 0 28 28" fill="none" xmlns="http://www.w3.org/2000/svg">
<path d="M14.1648 22.4143C12.9823 23.5968 11.5524 24.188 9.87499 24.188C8.19758 24.188 6.76765 23.5968 5.58521 22.4143C4.40277 21.2319 3.81155 19.802 3.81155 18.1245C3.81155 16.4471 4.40277 15.0172 5.58521 13.8348L7.87447 11.5455C8.13571 11.2843 8.44507 11.1536 8.80255 11.1536C9.16003 11.1536 9.46939 11.2843 9.73063 11.5455C10.0056 11.8205 10.1431 12.1367 10.1431 12.4942C10.1431 12.8517 10.0125 13.161 9.75125 13.4223L7.46199 15.7115C6.78828 16.3853 6.45142 17.1896 6.45142 18.1245C6.45142 19.0595 6.78828 19.8638 7.46199 20.5375C8.13571 21.2113 8.94004 21.5481 9.87499 21.5481C10.8099 21.5481 11.6143 21.2113 12.288 20.5375L14.5773 18.2483C14.8385 17.987 15.1478 17.8564 15.5053 17.8564C15.8628 17.8564 16.179 17.9939 16.454 18.2689C16.7153 18.5301 16.8459 18.8395 16.8459 19.197C16.8459 19.5545 16.7153 19.8638 16.454 20.1251L14.1648 22.4143ZM12.3086 17.4233C12.0749 17.6571 11.7894 17.7775 11.4523 17.7847C11.1157 17.7913 10.8237 17.6708 10.5762 17.4233C10.3287 17.1758 10.2083 16.8838 10.2149 16.5472C10.222 16.2101 10.3425 15.9247 10.5762 15.6909L15.6909 10.5762C15.9247 10.3424 16.2101 10.222 16.5473 10.2148C16.8838 10.2082 17.1759 10.3287 17.4234 10.5762C17.6708 10.8237 17.7913 11.1157 17.7847 11.4523C17.7775 11.7894 17.6571 12.0749 17.4234 12.3086L12.3086 17.4233ZM20.1251 16.454C19.8639 16.7152 19.5545 16.8459 19.197 16.8459C18.8395 16.8459 18.5302 16.7152 18.2689 16.454C17.994 16.179 17.8565 15.8628 17.8565 15.5053C17.8565 15.1478 17.9871 14.8385 18.2483 14.5772L20.5376 12.288C21.2113 11.6143 21.5481 10.8099 21.5481 9.87496C21.5481 8.94001 21.2113 8.13568 20.5376 7.46196C19.8639 6.78825 19.0595 6.45139 18.1246 6.45139C17.1896 6.45139 16.3853 6.78825 15.7116 7.46196L13.4223 9.75122C13.1611 10.0125 12.8517 10.1431 12.4942 10.1431C12.1368 10.1431 11.8205 10.0056 11.5455 9.7306C11.2843 9.46936 11.1537 9.16 11.1537 8.80252C11.1537 8.44504 11.2843 8.13568 11.5455 7.87444L13.8348 5.58518C15.0172 4.40274 16.4472 3.81152 18.1246 3.81152C19.802 3.81152 21.2319 4.40274 22.4144 5.58518C23.5968 6.76762 24.188 8.19755 24.188 9.87496C24.188 11.5524 23.5968 12.9823 22.4144 14.1647L20.1251 16.454Z" fill="black"/>
</svg>
