<svg width="24" height="24" viewBox="0 0 24 24" fill="none" xmlns="http://www.w3.org/2000/svg">
<path d="M5 21C4.45 21 3.97917 20.8042 3.5875 20.4125C3.19583 20.0208 3 19.55 3 19V5C3 4.45 3.19583 3.97917 3.5875 3.5875C3.97917 3.19583 4.45 3 5 3H19C19.55 3 20.0208 3.19583 20.4125 3.5875C20.8042 3.97917 21 4.45 21 5V12C21 12.2833 20.9042 12.5208 20.7125 12.7125C20.5208 12.9042 20.2833 13 20 13C19.7167 13 19.4792 12.9042 19.2875 12.7125C19.0958 12.5208 19 12.2833 19 12V5H5V19H11C11.2833 19 11.5208 19.0958 11.7125 19.2875C11.9042 19.4792 12 19.7167 12 20C12 20.2833 11.9042 20.5208 11.7125 20.7125C11.5208 20.9042 11.2833 21 11 21H5ZM17.35 19.175L20.875 15.625C21.075 15.425 21.3125 15.325 21.5875 15.325C21.8625 15.325 22.1 15.425 22.3 15.625C22.5 15.825 22.6 16.0625 22.6 16.3375C22.6 16.6125 22.5 16.85 22.3 17.05L18.05 21.3C17.85 21.5 17.6125 21.6 17.3375 21.6C17.0625 21.6 16.825 21.5 16.625 21.3L14.5 19.175C14.3167 18.975 14.225 18.7375 14.225 18.4625C14.225 18.1875 14.325 17.95 14.525 17.75C14.725 17.55 14.9583 17.45 15.225 17.45C15.4917 17.45 15.725 17.55 15.925 17.75L17.35 19.175ZM8.7125 12.7125C8.90417 12.5208 9 12.2833 9 12C9 11.7167 8.90417 11.4792 8.7125 11.2875C8.52083 11.0958 8.28333 11 8 11C7.71667 11 7.47917 11.0958 7.2875 11.2875C7.09583 11.4792 7 11.7167 7 12C7 12.2833 7.09583 12.5208 7.2875 12.7125C7.47917 12.9042 7.71667 13 8 13C8.28333 13 8.52083 12.9042 8.7125 12.7125ZM8.7125 8.7125C8.90417 8.52083 9 8.28333 9 8C9 7.71667 8.90417 7.47917 8.7125 7.2875C8.52083 7.09583 8.28333 7 8 7C7.71667 7 7.47917 7.09583 7.2875 7.2875C7.09583 7.47917 7 7.71667 7 8C7 8.28333 7.09583 8.52083 7.2875 8.7125C7.47917 8.90417 7.71667 9 8 9C8.28333 9 8.52083 8.90417 8.7125 8.7125ZM16 13C16.2833 13 16.5208 12.9042 16.7125 12.7125C16.9042 12.5208 17 12.2833 17 12C17 11.7167 16.9042 11.4792 16.7125 11.2875C16.5208 11.0958 16.2833 11 16 11H12C11.7167 11 11.4792 11.0958 11.2875 11.2875C11.0958 11.4792 11 11.7167 11 12C11 12.2833 11.0958 12.5208 11.2875 12.7125C11.4792 12.9042 11.7167 13 12 13H16ZM16 9C16.2833 9 16.5208 8.90417 16.7125 8.7125C16.9042 8.52083 17 8.28333 17 8C17 7.71667 16.9042 7.47917 16.7125 7.2875C16.5208 7.09583 16.2833 7 16 7H12C11.7167 7 11.4792 7.09583 11.2875 7.2875C11.0958 7.47917 11 7.71667 11 8C11 8.28333 11.0958 8.52083 11.2875 8.7125C11.4792 8.90417 11.7167 9 12 9H16Z" fill="black"/>
</svg>
