<svg width="28" height="28" viewBox="0 0 28 28" fill="none" xmlns="http://www.w3.org/2000/svg">
<path d="M5.83333 24.5C5.19167 24.5 4.64236 24.2715 4.18542 23.8146C3.72847 23.3576 3.5 22.8083 3.5 22.1667V5.83333C3.5 5.19167 3.72847 4.64236 4.18542 4.18542C4.64236 3.72847 5.19167 3.5 5.83333 3.5H22.1667C22.8083 3.5 23.3576 3.72847 23.8146 4.18542C24.2715 4.64236 24.5 5.19167 24.5 5.83333V14C24.5 14.3306 24.3882 14.6076 24.1646 14.8313C23.941 15.0549 23.6639 15.1667 23.3333 15.1667C23.0028 15.1667 22.7257 15.0549 22.5021 14.8313C22.2785 14.6076 22.1667 14.3306 22.1667 14V5.83333H5.83333V22.1667H12.8333C13.1639 22.1667 13.441 22.2785 13.6646 22.5021C13.8882 22.7257 14 23.0028 14 23.3333C14 23.6639 13.8882 23.941 13.6646 24.1646C13.441 24.3882 13.1639 24.5 12.8333 24.5H5.83333ZM20.2417 22.3708L24.3542 18.2292C24.5875 17.9958 24.8646 17.8792 25.1854 17.8792C25.5063 17.8792 25.7833 17.9958 26.0167 18.2292C26.25 18.4625 26.3667 18.7396 26.3667 19.0604C26.3667 19.3813 26.25 19.6583 26.0167 19.8917L21.0583 24.85C20.825 25.0833 20.5479 25.2 20.2271 25.2C19.9062 25.2 19.6292 25.0833 19.3958 24.85L16.9167 22.3708C16.7028 22.1375 16.5958 21.8604 16.5958 21.5396C16.5958 21.2188 16.7125 20.9417 16.9458 20.7083C17.1792 20.475 17.4514 20.3583 17.7625 20.3583C18.0736 20.3583 18.3458 20.475 18.5792 20.7083L20.2417 22.3708ZM10.1646 14.8313C10.3882 14.6076 10.5 14.3306 10.5 14C10.5 13.6694 10.3882 13.3924 10.1646 13.1687C9.94097 12.9451 9.66389 12.8333 9.33333 12.8333C9.00278 12.8333 8.72569 12.9451 8.50208 13.1687C8.27847 13.3924 8.16667 13.6694 8.16667 14C8.16667 14.3306 8.27847 14.6076 8.50208 14.8313C8.72569 15.0549 9.00278 15.1667 9.33333 15.1667C9.66389 15.1667 9.94097 15.0549 10.1646 14.8313ZM10.1646 10.1646C10.3882 9.94097 10.5 9.66389 10.5 9.33333C10.5 9.00278 10.3882 8.72569 10.1646 8.50208C9.94097 8.27847 9.66389 8.16667 9.33333 8.16667C9.00278 8.16667 8.72569 8.27847 8.50208 8.50208C8.27847 8.72569 8.16667 9.00278 8.16667 9.33333C8.16667 9.66389 8.27847 9.94097 8.50208 10.1646C8.72569 10.3882 9.00278 10.5 9.33333 10.5C9.66389 10.5 9.94097 10.3882 10.1646 10.1646ZM18.6667 15.1667C18.9972 15.1667 19.2743 15.0549 19.4979 14.8313C19.7215 14.6076 19.8333 14.3306 19.8333 14C19.8333 13.6694 19.7215 13.3924 19.4979 13.1687C19.2743 12.9451 18.9972 12.8333 18.6667 12.8333H14C13.6694 12.8333 13.3924 12.9451 13.1687 13.1687C12.9451 13.3924 12.8333 13.6694 12.8333 14C12.8333 14.3306 12.9451 14.6076 13.1687 14.8313C13.3924 15.0549 13.6694 15.1667 14 15.1667H18.6667ZM18.6667 10.5C18.9972 10.5 19.2743 10.3882 19.4979 10.1646C19.7215 9.94097 19.8333 9.66389 19.8333 9.33333C19.8333 9.00278 19.7215 8.72569 19.4979 8.50208C19.2743 8.27847 18.9972 8.16667 18.6667 8.16667H14C13.6694 8.16667 13.3924 8.27847 13.1687 8.50208C12.9451 8.72569 12.8333 9.00278 12.8333 9.33333C12.8333 9.66389 12.9451 9.94097 13.1687 10.1646C13.3924 10.3882 13.6694 10.5 14 10.5H18.6667Z" fill="black"/>
</svg>
