<svg width="16" height="16" viewBox="0 0 16 16" fill="none" xmlns="http://www.w3.org/2000/svg">
<path d="M3.33333 14C2.96667 14 2.65278 13.8694 2.39167 13.6083C2.13056 13.3472 2 13.0333 2 12.6667V3.33333C2 2.96667 2.13056 2.65278 2.39167 2.39167C2.65278 2.13056 2.96667 2 3.33333 2H12.6667C13.0333 2 13.3472 2.13056 13.6083 2.39167C13.8694 2.65278 14 2.96667 14 3.33333V8C14 8.18889 13.9361 8.34722 13.8083 8.475C13.6806 8.60278 13.5222 8.66667 13.3333 8.66667C13.1444 8.66667 12.9861 8.60278 12.8583 8.475C12.7306 8.34722 12.6667 8.18889 12.6667 8V3.33333H3.33333V12.6667H7.33333C7.52222 12.6667 7.68056 12.7306 7.80833 12.8583C7.93611 12.9861 8 13.1444 8 13.3333C8 13.5222 7.93611 13.6806 7.80833 13.8083C7.68056 13.9361 7.52222 14 7.33333 14H3.33333ZM11.5667 12.7833L13.9167 10.4167C14.05 10.2833 14.2083 10.2167 14.3917 10.2167C14.575 10.2167 14.7333 10.2833 14.8667 10.4167C15 10.55 15.0667 10.7083 15.0667 10.8917C15.0667 11.075 15 11.2333 14.8667 11.3667L12.0333 14.2C11.9 14.3333 11.7417 14.4 11.5583 14.4C11.375 14.4 11.2167 14.3333 11.0833 14.2L9.66667 12.7833C9.54444 12.65 9.48333 12.4917 9.48333 12.3083C9.48333 12.125 9.55 11.9667 9.68333 11.8333C9.81667 11.7 9.97222 11.6333 10.15 11.6333C10.3278 11.6333 10.4833 11.7 10.6167 11.8333L11.5667 12.7833ZM5.80833 8.475C5.93611 8.34722 6 8.18889 6 8C6 7.81111 5.93611 7.65278 5.80833 7.525C5.68056 7.39722 5.52222 7.33333 5.33333 7.33333C5.14444 7.33333 4.98611 7.39722 4.85833 7.525C4.73056 7.65278 4.66667 7.81111 4.66667 8C4.66667 8.18889 4.73056 8.34722 4.85833 8.475C4.98611 8.60278 5.14444 8.66667 5.33333 8.66667C5.52222 8.66667 5.68056 8.60278 5.80833 8.475ZM5.80833 5.80833C5.93611 5.68056 6 5.52222 6 5.33333C6 5.14444 5.93611 4.98611 5.80833 4.85833C5.68056 4.73056 5.52222 4.66667 5.33333 4.66667C5.14444 4.66667 4.98611 4.73056 4.85833 4.85833C4.73056 4.98611 4.66667 5.14444 4.66667 5.33333C4.66667 5.52222 4.73056 5.68056 4.85833 5.80833C4.98611 5.93611 5.14444 6 5.33333 6C5.52222 6 5.68056 5.93611 5.80833 5.80833ZM10.6667 8.66667C10.8556 8.66667 11.0139 8.60278 11.1417 8.475C11.2694 8.34722 11.3333 8.18889 11.3333 8C11.3333 7.81111 11.2694 7.65278 11.1417 7.525C11.0139 7.39722 10.8556 7.33333 10.6667 7.33333H8C7.81111 7.33333 7.65278 7.39722 7.525 7.525C7.39722 7.65278 7.33333 7.81111 7.33333 8C7.33333 8.18889 7.39722 8.34722 7.525 8.475C7.65278 8.60278 7.81111 8.66667 8 8.66667H10.6667ZM10.6667 6C10.8556 6 11.0139 5.93611 11.1417 5.80833C11.2694 5.68056 11.3333 5.52222 11.3333 5.33333C11.3333 5.14444 11.2694 4.98611 11.1417 4.85833C11.0139 4.73056 10.8556 4.66667 10.6667 4.66667H8C7.81111 4.66667 7.65278 4.73056 7.525 4.85833C7.39722 4.98611 7.33333 5.14444 7.33333 5.33333C7.33333 5.52222 7.39722 5.68056 7.525 5.80833C7.65278 5.93611 7.81111 6 8 6H10.6667Z" fill="black"/>
</svg>
