<svg width="24" height="24" viewBox="0 0 24 24" fill="none" xmlns="http://www.w3.org/2000/svg">
<g id="Live24">
<path id="Vector" d="M4 11.9998C4 12.9331 4.14167 13.8123 4.425 14.6373C4.70833 15.4623 5.11667 16.2081 5.65 16.8748C5.83333 17.1081 5.925 17.3623 5.925 17.6373C5.925 17.9123 5.825 18.1498 5.625 18.3498C5.425 18.5498 5.18333 18.6457 4.9 18.6373C4.61667 18.629 4.38333 18.5082 4.2 18.2748C3.5 17.4082 2.95833 16.4456 2.575 15.3873C2.19167 14.329 2 13.1998 2 11.9998C2 10.7998 2.19167 9.66648 2.575 8.59982C2.95833 7.53315 3.5 6.57482 4.2 5.72482C4.38333 5.49148 4.61667 5.37065 4.9 5.36232C5.18333 5.35398 5.425 5.44982 5.625 5.64982C5.825 5.84982 5.925 6.08732 5.925 6.36232C5.925 6.63732 5.83333 6.89148 5.65 7.12482C5.11667 7.80815 4.70833 8.56232 4.425 9.38732C4.14167 10.2123 4 11.0831 4 11.9998ZM8 11.9998C8 12.3831 8.05 12.7456 8.15 13.0873C8.25 13.429 8.39167 13.7498 8.575 14.0498C8.725 14.2831 8.79583 14.5415 8.7875 14.8248C8.77917 15.1081 8.675 15.3498 8.475 15.5498C8.275 15.7498 8.03333 15.8456 7.75 15.8373C7.46667 15.829 7.25 15.7081 7.1 15.4748C6.75 14.9915 6.47917 14.4498 6.2875 13.8498C6.09583 13.2498 6 12.6331 6 11.9998C6 11.3498 6.09583 10.729 6.2875 10.1373C6.47917 9.54565 6.75 9.00815 7.1 8.52482C7.26667 8.29148 7.4875 8.17482 7.7625 8.17482C8.0375 8.17482 8.275 8.27482 8.475 8.47482C8.675 8.67482 8.77917 8.91232 8.7875 9.18732C8.79583 9.46232 8.725 9.71648 8.575 9.94982C8.39167 10.2498 8.25 10.5707 8.15 10.9123C8.05 11.254 8 11.6165 8 11.9998ZM12 13.9998C11.45 13.9998 10.9792 13.804 10.5875 13.4123C10.1958 13.0206 10 12.5498 10 11.9998C10 11.4498 10.1958 10.979 10.5875 10.5873C10.9792 10.1957 11.45 9.99982 12 9.99982C12.55 9.99982 13.0208 10.1957 13.4125 10.5873C13.8042 10.979 14 11.4498 14 11.9998C14 12.5498 13.8042 13.0206 13.4125 13.4123C13.0208 13.804 12.55 13.9998 12 13.9998ZM16 11.9998C16 11.6165 15.95 11.254 15.85 10.9123C15.75 10.5707 15.6083 10.2498 15.425 9.94982C15.275 9.71648 15.2083 9.45815 15.225 9.17482C15.2417 8.89148 15.35 8.64982 15.55 8.44982C15.75 8.24982 15.9833 8.15398 16.25 8.16232C16.5167 8.17065 16.7333 8.29148 16.9 8.52482C17.25 9.00815 17.5208 9.54565 17.7125 10.1373C17.9042 10.729 18 11.3498 18 11.9998C18 12.6331 17.9042 13.2498 17.7125 13.8498C17.5208 14.4498 17.25 14.9915 16.9 15.4748C16.75 15.7081 16.5333 15.8248 16.25 15.8248C15.9667 15.8248 15.725 15.7248 15.525 15.5248C15.325 15.3248 15.2208 15.0873 15.2125 14.8123C15.2042 14.5373 15.275 14.2831 15.425 14.0498C15.6083 13.7498 15.75 13.429 15.85 13.0873C15.95 12.7456 16 12.3831 16 11.9998ZM20 11.9998C20 11.0665 19.8583 10.1873 19.575 9.36232C19.2917 8.53732 18.8833 7.79148 18.35 7.12482C18.1667 6.89148 18.0708 6.63732 18.0625 6.36232C18.0542 6.08732 18.15 5.84982 18.35 5.64982C18.55 5.44982 18.7958 5.35398 19.0875 5.36232C19.3792 5.37065 19.6167 5.49148 19.8 5.72482C20.5 6.57482 21.0417 7.53315 21.425 8.59982C21.8083 9.66648 22 10.7998 22 11.9998C22 13.1998 21.8083 14.329 21.425 15.3873C21.0417 16.4456 20.5 17.4082 19.8 18.2748C19.6167 18.5082 19.3833 18.629 19.1 18.6373C18.8167 18.6457 18.575 18.5498 18.375 18.3498C18.175 18.1498 18.075 17.9123 18.075 17.6373C18.075 17.3623 18.1667 17.1081 18.35 16.8748C18.8833 16.1915 19.2917 15.4373 19.575 14.6123C19.8583 13.7873 20 12.9165 20 11.9998Z" fill="black"/>
</g>
</svg>
