<svg width="28" height="28" viewBox="0 0 28 28" fill="none" xmlns="http://www.w3.org/2000/svg">
<g id="Live28">
<path id="Vector" d="M4.66665 14.0002C4.66665 15.0891 4.83192 16.1148 5.16248 17.0773C5.49304 18.0398 5.96942 18.9099 6.59165 19.6877C6.80554 19.9599 6.91248 20.2564 6.91248 20.5773C6.91248 20.8981 6.79581 21.1752 6.56248 21.4085C6.32915 21.6419 6.0472 21.7537 5.71665 21.7439C5.38609 21.7342 5.11387 21.5932 4.89998 21.321C4.08331 20.3099 3.45137 19.187 3.00415 17.9523C2.55692 16.7176 2.33331 15.4002 2.33331 14.0002C2.33331 12.6002 2.55692 11.278 3.00415 10.0335C3.45137 8.78908 4.08331 7.67103 4.89998 6.67936C5.11387 6.40714 5.38609 6.26616 5.71665 6.25644C6.0472 6.24672 6.32915 6.35853 6.56248 6.59186C6.79581 6.82519 6.91248 7.10228 6.91248 7.42311C6.91248 7.74394 6.80554 8.04047 6.59165 8.31269C5.96942 9.10991 5.49304 9.98978 5.16248 10.9523C4.83192 11.9148 4.66665 12.9307 4.66665 14.0002ZM9.33331 14.0002C9.33331 14.4474 9.39165 14.8703 9.50831 15.2689C9.62498 15.6676 9.79026 16.0419 10.0041 16.3919C10.1791 16.6641 10.2618 16.9655 10.2521 17.296C10.2423 17.6266 10.1208 17.9085 9.88748 18.1419C9.65415 18.3752 9.3722 18.487 9.04165 18.4773C8.71109 18.4676 8.45831 18.3266 8.28331 18.0544C7.87498 17.4905 7.55901 16.8585 7.3354 16.1585C7.11179 15.4585 6.99998 14.7391 6.99998 14.0002C6.99998 13.2419 7.11179 12.5176 7.3354 11.8273C7.55901 11.137 7.87498 10.5099 8.28331 9.94603C8.47776 9.6738 8.7354 9.53769 9.05623 9.53769C9.37706 9.53769 9.65415 9.65436 9.88748 9.88769C10.1208 10.121 10.2423 10.3981 10.2521 10.7189C10.2618 11.0398 10.1791 11.3363 10.0041 11.6085C9.79026 11.9585 9.62498 12.3328 9.50831 12.7314C9.39165 13.1301 9.33331 13.553 9.33331 14.0002ZM14 16.3335C13.3583 16.3335 12.809 16.1051 12.3521 15.6481C11.8951 15.1912 11.6666 14.6419 11.6666 14.0002C11.6666 13.3585 11.8951 12.8092 12.3521 12.3523C12.809 11.8953 13.3583 11.6669 14 11.6669C14.6416 11.6669 15.191 11.8953 15.6479 12.3523C16.1048 12.8092 16.3333 13.3585 16.3333 14.0002C16.3333 14.6419 16.1048 15.1912 15.6479 15.6481C15.191 16.1051 14.6416 16.3335 14 16.3335ZM18.6666 14.0002C18.6666 13.553 18.6083 13.1301 18.4916 12.7314C18.375 12.3328 18.2097 11.9585 17.9958 11.6085C17.8208 11.3363 17.743 11.0349 17.7625 10.7044C17.7819 10.3738 17.9083 10.0919 18.1416 9.85853C18.375 9.62519 18.6472 9.51339 18.9583 9.52311C19.2694 9.53283 19.5222 9.6738 19.7166 9.94603C20.125 10.5099 20.441 11.137 20.6646 11.8273C20.8882 12.5176 21 13.2419 21 14.0002C21 14.7391 20.8882 15.4585 20.6646 16.1585C20.441 16.8585 20.125 17.4905 19.7166 18.0544C19.5416 18.3266 19.2889 18.4627 18.9583 18.4627C18.6278 18.4627 18.3458 18.346 18.1125 18.1127C17.8791 17.8794 17.7576 17.6023 17.7479 17.2814C17.7382 16.9606 17.8208 16.6641 17.9958 16.3919C18.2097 16.0419 18.375 15.6676 18.4916 15.2689C18.6083 14.8703 18.6666 14.4474 18.6666 14.0002ZM23.3333 14.0002C23.3333 12.9113 23.168 11.8856 22.8375 10.9231C22.5069 9.96061 22.0305 9.09047 21.4083 8.31269C21.1944 8.04047 21.0826 7.74394 21.0729 7.42311C21.0632 7.10228 21.175 6.82519 21.4083 6.59186C21.6416 6.35853 21.9285 6.24672 22.2687 6.25644C22.609 6.26616 22.8861 6.40714 23.1 6.67936C23.9166 7.67103 24.5486 8.78908 24.9958 10.0335C25.443 11.278 25.6666 12.6002 25.6666 14.0002C25.6666 15.4002 25.443 16.7176 24.9958 17.9523C24.5486 19.187 23.9166 20.3099 23.1 21.321C22.8861 21.5932 22.6139 21.7342 22.2833 21.7439C21.9528 21.7537 21.6708 21.6419 21.4375 21.4085C21.2041 21.1752 21.0875 20.8981 21.0875 20.5773C21.0875 20.2564 21.1944 19.9599 21.4083 19.6877C22.0305 18.8905 22.5069 18.0106 22.8375 17.0481C23.168 16.0856 23.3333 15.0696 23.3333 14.0002Z" fill="black"/>
</g>
</svg>
