<svg width="16" height="16" viewBox="0 0 16 16" fill="none" xmlns="http://www.w3.org/2000/svg">
<g id="Live16">
<path id="Vector" d="M2.66665 8.00004C2.66665 8.62226 2.76109 9.20837 2.94998 9.75837C3.13887 10.3084 3.41109 10.8056 3.76665 11.25C3.88887 11.4056 3.94998 11.575 3.94998 11.7584C3.94998 11.9417 3.88331 12.1 3.74998 12.2334C3.61665 12.3667 3.45554 12.4306 3.26665 12.425C3.07776 12.4195 2.9222 12.3389 2.79998 12.1834C2.33331 11.6056 1.9722 10.9639 1.71665 10.2584C1.46109 9.55282 1.33331 8.80004 1.33331 8.00004C1.33331 7.20004 1.46109 6.44448 1.71665 5.73337C1.9722 5.02226 2.33331 4.38337 2.79998 3.81671C2.9222 3.66115 3.07776 3.5806 3.26665 3.57504C3.45554 3.56948 3.61665 3.63337 3.74998 3.76671C3.88331 3.90004 3.94998 4.05837 3.94998 4.24171C3.94998 4.42504 3.88887 4.59448 3.76665 4.75004C3.41109 5.2056 3.13887 5.70837 2.94998 6.25837C2.76109 6.80837 2.66665 7.38893 2.66665 8.00004ZM5.33331 8.00004C5.33331 8.2556 5.36665 8.49726 5.43331 8.72504C5.49998 8.95282 5.59442 9.16671 5.71665 9.36671C5.81665 9.52226 5.86387 9.69449 5.85831 9.88337C5.85276 10.0723 5.78331 10.2334 5.64998 10.3667C5.51665 10.5 5.35554 10.5639 5.16665 10.5584C4.97776 10.5528 4.83331 10.4723 4.73331 10.3167C4.49998 9.99448 4.31942 9.63337 4.19165 9.23337C4.06387 8.83337 3.99998 8.42226 3.99998 8.00004C3.99998 7.56671 4.06387 7.15282 4.19165 6.75837C4.31942 6.36393 4.49998 6.0056 4.73331 5.68337C4.84442 5.52782 4.99165 5.45004 5.17498 5.45004C5.35831 5.45004 5.51665 5.51671 5.64998 5.65004C5.78331 5.78337 5.85276 5.94171 5.85831 6.12504C5.86387 6.30837 5.81665 6.47782 5.71665 6.63337C5.59442 6.83337 5.49998 7.04726 5.43331 7.27504C5.36665 7.50282 5.33331 7.74448 5.33331 8.00004ZM7.99998 9.33337C7.63331 9.33337 7.31942 9.20282 7.05831 8.94171C6.7972 8.6806 6.66665 8.36671 6.66665 8.00004C6.66665 7.63337 6.7972 7.31949 7.05831 7.05837C7.31942 6.79726 7.63331 6.66671 7.99998 6.66671C8.36665 6.66671 8.68053 6.79726 8.94165 7.05837C9.20276 7.31949 9.33331 7.63337 9.33331 8.00004C9.33331 8.36671 9.20276 8.6806 8.94165 8.94171C8.68053 9.20282 8.36665 9.33337 7.99998 9.33337ZM10.6666 8.00004C10.6666 7.74448 10.6333 7.50282 10.5666 7.27504C10.5 7.04726 10.4055 6.83337 10.2833 6.63337C10.1833 6.47782 10.1389 6.3056 10.15 6.11671C10.1611 5.92782 10.2333 5.76671 10.3666 5.63337C10.5 5.50004 10.6555 5.43615 10.8333 5.44171C11.0111 5.44726 11.1555 5.52782 11.2666 5.68337C11.5 6.0056 11.6805 6.36393 11.8083 6.75837C11.9361 7.15282 12 7.56671 12 8.00004C12 8.42226 11.9361 8.83337 11.8083 9.23337C11.6805 9.63337 11.5 9.99448 11.2666 10.3167C11.1666 10.4723 11.0222 10.55 10.8333 10.55C10.6444 10.55 10.4833 10.4834 10.35 10.35C10.2166 10.2167 10.1472 10.0584 10.1416 9.87504C10.1361 9.69171 10.1833 9.52226 10.2833 9.36671C10.4055 9.16671 10.5 8.95282 10.5666 8.72504C10.6333 8.49726 10.6666 8.2556 10.6666 8.00004ZM13.3333 8.00004C13.3333 7.37782 13.2389 6.79171 13.05 6.24171C12.8611 5.69171 12.5889 5.19448 12.2333 4.75004C12.1111 4.59448 12.0472 4.42504 12.0416 4.24171C12.0361 4.05837 12.1 3.90004 12.2333 3.76671C12.3666 3.63337 12.5305 3.56948 12.725 3.57504C12.9194 3.5806 13.0778 3.66115 13.2 3.81671C13.6666 4.38337 14.0278 5.02226 14.2833 5.73337C14.5389 6.44448 14.6666 7.20004 14.6666 8.00004C14.6666 8.80004 14.5389 9.55282 14.2833 10.2584C14.0278 10.9639 13.6666 11.6056 13.2 12.1834C13.0778 12.3389 12.9222 12.4195 12.7333 12.425C12.5444 12.4306 12.3833 12.3667 12.25 12.2334C12.1166 12.1 12.05 11.9417 12.05 11.7584C12.05 11.575 12.1111 11.4056 12.2333 11.25C12.5889 10.7945 12.8611 10.2917 13.05 9.74171C13.2389 9.19171 13.3333 8.61115 13.3333 8.00004Z" fill="black"/>
</g>
</svg>
