<svg width="28" height="28" viewBox="0 0 28 28" fill="none" xmlns="http://www.w3.org/2000/svg">
<path d="M7.00002 14.0582C7.00002 14.9332 7.1653 15.7839 7.49585 16.6103C7.82641 17.4366 8.34169 18.1998 9.04169 18.8998L9.33335 19.1915V17.4998C9.33335 17.1693 9.44516 16.8922 9.66877 16.6686C9.89238 16.445 10.1695 16.3332 10.5 16.3332C10.8306 16.3332 11.1077 16.445 11.3313 16.6686C11.5549 16.8922 11.6667 17.1693 11.6667 17.4998V22.1665C11.6667 22.4971 11.5549 22.7741 11.3313 22.9978C11.1077 23.2214 10.8306 23.3332 10.5 23.3332H5.83335C5.5028 23.3332 5.22571 23.2214 5.0021 22.9978C4.77849 22.7741 4.66669 22.4971 4.66669 22.1665C4.66669 21.8359 4.77849 21.5589 5.0021 21.3353C5.22571 21.1116 5.5028 20.9998 5.83335 20.9998H7.87502L7.40835 20.5915C6.39724 19.6971 5.68752 18.6762 5.27919 17.529C4.87085 16.3818 4.66669 15.2248 4.66669 14.0582C4.66669 12.2304 5.13335 10.5728 6.06669 9.08525C7.00002 7.59775 8.25419 6.45539 9.82919 5.65817C10.1014 5.50262 10.3882 5.49289 10.6896 5.629C10.991 5.76511 11.1903 5.98873 11.2875 6.29984C11.3847 6.5915 11.3799 6.88317 11.2729 7.17484C11.166 7.4665 10.9764 7.69012 10.7042 7.84567C9.57641 8.46789 8.6771 9.32831 8.00627 10.4269C7.33544 11.5255 7.00002 12.7359 7.00002 14.0582ZM21 13.9415C21 13.0665 20.8347 12.2158 20.5042 11.3894C20.1736 10.563 19.6584 9.79984 18.9584 9.09984L18.6667 8.80817V10.4998C18.6667 10.8304 18.5549 11.1075 18.3313 11.3311C18.1077 11.5547 17.8306 11.6665 17.5 11.6665C17.1695 11.6665 16.8924 11.5547 16.6688 11.3311C16.4452 11.1075 16.3334 10.8304 16.3334 10.4998V5.83317C16.3334 5.50261 16.4452 5.22553 16.6688 5.00192C16.8924 4.77831 17.1695 4.6665 17.5 4.6665H22.1667C22.4972 4.6665 22.7743 4.77831 22.9979 5.00192C23.2215 5.22553 23.3334 5.50261 23.3334 5.83317C23.3334 6.16373 23.2215 6.44081 22.9979 6.66442C22.7743 6.88803 22.4972 6.99984 22.1667 6.99984H20.125L20.5917 7.40817C21.5445 8.36095 22.2396 9.39637 22.6771 10.5144C23.1146 11.6325 23.3334 12.7748 23.3334 13.9415C23.3334 15.7693 22.8667 17.4269 21.9334 18.9144C21 20.4019 19.7459 21.5443 18.1709 22.3415C17.8986 22.4971 17.6118 22.5068 17.3104 22.3707C17.009 22.2346 16.8097 22.0109 16.7125 21.6998C16.6153 21.4082 16.6202 21.1165 16.7271 20.8248C16.834 20.5332 17.0236 20.3096 17.2959 20.154C18.4236 19.5318 19.3229 18.6714 19.9938 17.5728C20.6646 16.4741 21 15.2637 21 13.9415Z" fill="black"/>
</svg>
