<svg width="16" height="16" viewBox="0 0 16 16" fill="none" xmlns="http://www.w3.org/2000/svg">
<path d="M4.00002 8.03317C4.00002 8.53317 4.09446 9.01928 4.28335 9.4915C4.47224 9.96373 4.76669 10.3998 5.16669 10.7998L5.33335 10.9665V9.99984C5.33335 9.81095 5.39724 9.65262 5.52502 9.52484C5.6528 9.39706 5.81113 9.33317 6.00002 9.33317C6.18891 9.33317 6.34724 9.39706 6.47502 9.52484C6.6028 9.65262 6.66669 9.81095 6.66669 9.99984V12.6665C6.66669 12.8554 6.6028 13.0137 6.47502 13.1415C6.34724 13.2693 6.18891 13.3332 6.00002 13.3332H3.33335C3.14446 13.3332 2.98613 13.2693 2.85835 13.1415C2.73058 13.0137 2.66669 12.8554 2.66669 12.6665C2.66669 12.4776 2.73058 12.3193 2.85835 12.1915C2.98613 12.0637 3.14446 11.9998 3.33335 11.9998H4.50002L4.23335 11.7665C3.65558 11.2554 3.25002 10.6721 3.01669 10.0165C2.78335 9.36095 2.66669 8.69984 2.66669 8.03317C2.66669 6.98873 2.93335 6.0415 3.46669 5.1915C4.00002 4.3415 4.71669 3.68873 5.61669 3.23317C5.77224 3.14428 5.93613 3.13873 6.10835 3.2165C6.28058 3.29428 6.39447 3.42206 6.45002 3.59984C6.50558 3.7665 6.5028 3.93317 6.44169 4.09984C6.38058 4.2665 6.27224 4.39428 6.11669 4.48317C5.47224 4.83873 4.95835 5.33039 4.57502 5.95817C4.19169 6.58595 4.00002 7.27762 4.00002 8.03317ZM12 7.9665C12 7.4665 11.9056 6.98039 11.7167 6.50817C11.5278 6.03595 11.2334 5.59984 10.8334 5.19984L10.6667 5.03317V5.99984C10.6667 6.18873 10.6028 6.34706 10.475 6.47484C10.3472 6.60262 10.1889 6.6665 10 6.6665C9.81113 6.6665 9.6528 6.60262 9.52502 6.47484C9.39724 6.34706 9.33335 6.18873 9.33335 5.99984V3.33317C9.33335 3.14428 9.39724 2.98595 9.52502 2.85817C9.6528 2.73039 9.81113 2.6665 10 2.6665H12.6667C12.8556 2.6665 13.0139 2.73039 13.1417 2.85817C13.2695 2.98595 13.3334 3.14428 13.3334 3.33317C13.3334 3.52206 13.2695 3.68039 13.1417 3.80817C13.0139 3.93595 12.8556 3.99984 12.6667 3.99984H11.5L11.7667 4.23317C12.3111 4.77762 12.7084 5.36928 12.9584 6.00817C13.2084 6.64706 13.3334 7.29984 13.3334 7.9665C13.3334 9.01095 13.0667 9.95817 12.5334 10.8082C12 11.6582 11.2834 12.3109 10.3834 12.7665C10.2278 12.8554 10.0639 12.8609 9.89169 12.7832C9.71947 12.7054 9.60558 12.5776 9.55002 12.3998C9.49446 12.2332 9.49724 12.0665 9.55835 11.8998C9.61947 11.7332 9.7278 11.6054 9.88335 11.5165C10.5278 11.1609 11.0417 10.6693 11.425 10.0415C11.8084 9.41373 12 8.72206 12 7.9665Z" fill="black"/>
</svg>
