<svg width="28" height="28" viewBox="0 0 28 28" fill="none" xmlns="http://www.w3.org/2000/svg">
<path d="M13.9998 22.5752C16.3721 20.3974 18.1318 18.4189 19.279 16.6397C20.4262 14.8606 20.9998 13.2807 20.9998 11.9002C20.9998 9.78072 20.3241 8.0453 18.9728 6.69391C17.6214 5.34252 15.9637 4.66683 13.9998 4.66683C12.0359 4.66683 10.3783 5.34252 9.02692 6.69391C7.67553 8.0453 6.99984 9.78072 6.99984 11.9002C6.99984 13.2807 7.57345 14.8606 8.72067 16.6397C9.86789 18.4189 11.6276 20.3974 13.9998 22.5752ZM13.9998 24.8793C13.7276 24.8793 13.4554 24.8307 13.1832 24.7335C12.9109 24.6363 12.6679 24.4904 12.454 24.296C11.1901 23.1293 10.0721 21.9918 9.09984 20.8835C8.12762 19.7752 7.31581 18.7009 6.66442 17.6606C6.01303 16.6203 5.5172 15.6189 5.17692 14.6564C4.83664 13.6939 4.6665 12.7752 4.6665 11.9002C4.6665 8.9835 5.6047 6.65988 7.48109 4.92933C9.35748 3.19877 11.5304 2.3335 13.9998 2.3335C16.4693 2.3335 18.6422 3.19877 20.5186 4.92933C22.395 6.65988 23.3332 8.9835 23.3332 11.9002C23.3332 12.7752 23.163 13.6939 22.8228 14.6564C22.4825 15.6189 21.9866 16.6203 21.3353 17.6606C20.6839 18.7009 19.8721 19.7752 18.8998 20.8835C17.9276 21.9918 16.8096 23.1293 15.5457 24.296C15.3318 24.4904 15.0887 24.6363 14.8165 24.7335C14.5443 24.8307 14.2721 24.8793 13.9998 24.8793ZM13.9998 14.0002C14.6415 14.0002 15.1908 13.7717 15.6478 13.3147C16.1047 12.8578 16.3332 12.3085 16.3332 11.6668C16.3332 11.0252 16.1047 10.4759 15.6478 10.0189C15.1908 9.56197 14.6415 9.3335 13.9998 9.3335C13.3582 9.3335 12.8089 9.56197 12.3519 10.0189C11.895 10.4759 11.6665 11.0252 11.6665 11.6668C11.6665 12.3085 11.895 12.8578 12.3519 13.3147C12.8089 13.7717 13.3582 14.0002 13.9998 14.0002Z" fill="#191919"/>
</svg>
