<svg width="16" height="16" viewBox="0 0 16 16" fill="none" xmlns="http://www.w3.org/2000/svg">
<path d="M7.99984 12.9002C9.35539 11.6557 10.3609 10.5252 11.0165 9.5085C11.6721 8.49183 11.9998 7.58905 11.9998 6.80016C11.9998 5.58905 11.6137 4.59739 10.8415 3.82516C10.0693 3.05294 9.12206 2.66683 7.99984 2.66683C6.87761 2.66683 5.93039 3.05294 5.15817 3.82516C4.38595 4.59739 3.99984 5.58905 3.99984 6.80016C3.99984 7.58905 4.32761 8.49183 4.98317 9.5085C5.63873 10.5252 6.64428 11.6557 7.99984 12.9002ZM7.99984 14.2168C7.84428 14.2168 7.68873 14.1891 7.53317 14.1335C7.37761 14.0779 7.23873 13.9946 7.1165 13.8835C6.39428 13.2168 5.75539 12.5668 5.19984 11.9335C4.64428 11.3002 4.18039 10.6863 3.80817 10.0918C3.43595 9.49739 3.15261 8.92516 2.95817 8.37516C2.76373 7.82516 2.6665 7.30016 2.6665 6.80016C2.6665 5.1335 3.20261 3.80572 4.27484 2.81683C5.34706 1.82794 6.58873 1.3335 7.99984 1.3335C9.41095 1.3335 10.6526 1.82794 11.7248 2.81683C12.7971 3.80572 13.3332 5.1335 13.3332 6.80016C13.3332 7.30016 13.2359 7.82516 13.0415 8.37516C12.8471 8.92516 12.5637 9.49739 12.1915 10.0918C11.8193 10.6863 11.3554 11.3002 10.7998 11.9335C10.2443 12.5668 9.60539 13.2168 8.88317 13.8835C8.76095 13.9946 8.62206 14.0779 8.4665 14.1335C8.31095 14.1891 8.15539 14.2168 7.99984 14.2168ZM7.99984 8.00016C8.3665 8.00016 8.68039 7.86961 8.9415 7.6085C9.20261 7.34739 9.33317 7.0335 9.33317 6.66683C9.33317 6.30016 9.20261 5.98627 8.9415 5.72516C8.68039 5.46405 8.3665 5.3335 7.99984 5.3335C7.63317 5.3335 7.31928 5.46405 7.05817 5.72516C6.79706 5.98627 6.6665 6.30016 6.6665 6.66683C6.6665 7.0335 6.79706 7.34739 7.05817 7.6085C7.31928 7.86961 7.63317 8.00016 7.99984 8.00016Z" fill="#191919"/>
</svg>
