<svg width="28" height="28" viewBox="0 0 28 28" fill="none" xmlns="http://www.w3.org/2000/svg">
<path d="M21 20.9998C21.4861 20.9998 21.8993 20.8297 22.2395 20.4894C22.5798 20.1491 22.75 19.7359 22.75 19.2498C22.75 18.7637 22.5798 18.3505 22.2395 18.0103C21.8993 17.67 21.4861 17.4998 21 17.4998C20.5138 17.4998 20.1007 17.67 19.7604 18.0103C19.4201 18.3505 19.25 18.7637 19.25 19.2498C19.25 19.7359 19.4201 20.1491 19.7604 20.4894C20.1007 20.8297 20.5138 20.9998 21 20.9998ZM21 24.4998C21.5833 24.4998 22.1277 24.3637 22.6333 24.0915C23.1388 23.8193 23.5569 23.4401 23.8875 22.954C23.4402 22.6818 22.9736 22.4825 22.4875 22.3561C22.0013 22.2297 21.5055 22.1665 21 22.1665C20.4944 22.1665 19.9986 22.2297 19.5125 22.3561C19.0263 22.4825 18.5597 22.6818 18.1125 22.954C18.443 23.4401 18.8611 23.8193 19.3666 24.0915C19.8722 24.3637 20.4166 24.4998 21 24.4998ZM10.5 9.33317H17.5V6.99984C17.5 6.02761 17.1597 5.20123 16.4791 4.52067C15.7986 3.84011 14.9722 3.49984 14 3.49984C13.0277 3.49984 12.2013 3.84011 11.5208 4.52067C10.8402 5.20123 10.5 6.02761 10.5 6.99984V9.33317ZM14.2916 25.6665H6.99996C6.35829 25.6665 5.80899 25.438 5.35204 24.9811C4.8951 24.5241 4.66663 23.9748 4.66663 23.3332V11.6665C4.66663 11.0248 4.8951 10.4755 5.35204 10.0186C5.80899 9.56164 6.35829 9.33317 6.99996 9.33317H8.16663V6.99984C8.16663 5.38595 8.73538 4.01025 9.87288 2.87275C11.0104 1.73525 12.3861 1.1665 14 1.1665C15.6138 1.1665 16.9895 1.73525 18.127 2.87275C19.2645 4.01025 19.8333 5.38595 19.8333 6.99984V9.33317H21C21.6416 9.33317 22.1909 9.56164 22.6479 10.0186C23.1048 10.4755 23.3333 11.0248 23.3333 11.6665V13.1832C22.9833 13.0665 22.6187 12.979 22.2395 12.9207C21.8604 12.8623 21.4472 12.8332 21 12.8332V11.6665H6.99996V23.3332H13.1833C13.3388 23.7998 13.4944 24.2033 13.65 24.5436C13.8055 24.8839 14.0194 25.2582 14.2916 25.6665ZM21 26.8332C19.3861 26.8332 18.0104 26.2644 16.8729 25.1269C15.7354 23.9894 15.1666 22.6137 15.1666 20.9998C15.1666 19.3859 15.7354 18.0103 16.8729 16.8728C18.0104 15.7353 19.3861 15.1665 21 15.1665C22.6138 15.1665 23.9895 15.7353 25.127 16.8728C26.2645 18.0103 26.8333 19.3859 26.8333 20.9998C26.8333 22.6137 26.2645 23.9894 25.127 25.1269C23.9895 26.2644 22.6138 26.8332 21 26.8332Z" fill="black"/>
</svg>
