<svg width="16" height="16" viewBox="0 0 16 16" fill="none" xmlns="http://www.w3.org/2000/svg">
<path d="M3.99999 5.33317H9.99999V3.99984C9.99999 3.44428 9.80555 2.97206 9.41666 2.58317C9.02777 2.19428 8.55555 1.99984 7.99999 1.99984C7.44443 1.99984 6.97221 2.19428 6.58332 2.58317C6.19443 2.97206 5.99999 3.44428 5.99999 3.99984H4.66666C4.66666 3.07762 4.99166 2.2915 5.64166 1.6415C6.29166 0.991504 7.07777 0.666504 7.99999 0.666504C8.92221 0.666504 9.70832 0.991504 10.3583 1.6415C11.0083 2.2915 11.3333 3.07762 11.3333 3.99984V5.33317H12C12.3667 5.33317 12.6805 5.46373 12.9417 5.72484C13.2028 5.98595 13.3333 6.29984 13.3333 6.6665V13.3332C13.3333 13.6998 13.2028 14.0137 12.9417 14.2748C12.6805 14.5359 12.3667 14.6665 12 14.6665H3.99999C3.63332 14.6665 3.31943 14.5359 3.05832 14.2748C2.79721 14.0137 2.66666 13.6998 2.66666 13.3332V6.6665C2.66666 6.29984 2.79721 5.98595 3.05832 5.72484C3.31943 5.46373 3.63332 5.33317 3.99999 5.33317ZM3.99999 13.3332H12V6.6665H3.99999V13.3332ZM7.99999 11.3332C8.36666 11.3332 8.68055 11.2026 8.94166 10.9415C9.20277 10.6804 9.33332 10.3665 9.33332 9.99984C9.33332 9.63317 9.20277 9.31928 8.94166 9.05817C8.68055 8.79706 8.36666 8.6665 7.99999 8.6665C7.63332 8.6665 7.31943 8.79706 7.05832 9.05817C6.79721 9.31928 6.66666 9.63317 6.66666 9.99984C6.66666 10.3665 6.79721 10.6804 7.05832 10.9415C7.31943 11.2026 7.63332 11.3332 7.99999 11.3332Z" fill="black"/>
</svg>
