<svg width="28" height="28" viewBox="0 0 28 28" fill="none" xmlns="http://www.w3.org/2000/svg">
<path d="M21 9.91667H19.8333V7.58333C19.8333 4.36333 17.22 1.75 14 1.75C10.78 1.75 8.16666 4.36333 8.16666 7.58333V9.91667H6.99999C5.71666 9.91667 4.66666 10.9667 4.66666 12.25V23.9167C4.66666 25.2 5.71666 26.25 6.99999 26.25H21C22.2833 26.25 23.3333 25.2 23.3333 23.9167V12.25C23.3333 10.9667 22.2833 9.91667 21 9.91667ZM14 20.4167C12.7167 20.4167 11.6667 19.3667 11.6667 18.0833C11.6667 16.8 12.7167 15.75 14 15.75C15.2833 15.75 16.3333 16.8 16.3333 18.0833C16.3333 19.3667 15.2833 20.4167 14 20.4167ZM10.5 9.91667V7.58333C10.5 5.64667 12.0633 4.08333 14 4.08333C15.9367 4.08333 17.5 5.64667 17.5 7.58333V9.91667H10.5Z" fill="black"/>
</svg>
