<svg width="16" height="16" viewBox="0 0 16 16" fill="none" xmlns="http://www.w3.org/2000/svg">
<path d="M4.00002 14.6667C3.63335 14.6667 3.31958 14.5362 3.05869 14.2753C2.79735 14.014 2.66669 13.7 2.66669 13.3333V6.66666C2.66669 6.29999 2.79735 5.98599 3.05869 5.72466C3.31958 5.46377 3.63335 5.33332 4.00002 5.33332H4.66669V3.99999C4.66669 3.07777 4.9918 2.29155 5.64202 1.64132C6.2918 0.991545 7.0778 0.666656 8.00002 0.666656C8.92224 0.666656 9.70847 0.991545 10.3587 1.64132C11.0085 2.29155 11.3334 3.07777 11.3334 3.99999V5.33332H12C12.3667 5.33332 12.6807 5.46377 12.942 5.72466C13.2029 5.98599 13.3334 6.29999 13.3334 6.66666V13.3333C13.3334 13.7 13.2029 14.014 12.942 14.2753C12.6807 14.5362 12.3667 14.6667 12 14.6667H4.00002ZM4.00002 13.3333H12V6.66666H4.00002V13.3333ZM8.00002 11.3333C8.36669 11.3333 8.68069 11.2029 8.94202 10.942C9.20291 10.6807 9.33335 10.3667 9.33335 9.99999C9.33335 9.63332 9.20291 9.31932 8.94202 9.05799C8.68069 8.7971 8.36669 8.66666 8.00002 8.66666C7.63335 8.66666 7.31958 8.7971 7.05869 9.05799C6.79735 9.31932 6.66669 9.63332 6.66669 9.99999C6.66669 10.3667 6.79735 10.6807 7.05869 10.942C7.31958 11.2029 7.63335 11.3333 8.00002 11.3333ZM6.00002 5.33332H10V3.99999C10 3.44443 9.80558 2.97221 9.41669 2.58332C9.0278 2.19443 8.55558 1.99999 8.00002 1.99999C7.44446 1.99999 6.97224 2.19443 6.58335 2.58332C6.19446 2.97221 6.00002 3.44443 6.00002 3.99999V5.33332Z" fill="black"/>
</svg>
