<svg width="28" height="28" viewBox="0 0 28 28" fill="none" xmlns="http://www.w3.org/2000/svg">
<path d="M6.99999 9.33317H17.5V6.99984C17.5 6.02761 17.1597 5.20123 16.4792 4.52067C15.7986 3.84011 14.9722 3.49984 14 3.49984C13.0278 3.49984 12.2014 3.84011 11.5208 4.52067C10.8403 5.20123 10.5 6.02761 10.5 6.99984H8.16666C8.16666 5.38595 8.73541 4.01025 9.87291 2.87275C11.0104 1.73525 12.3861 1.1665 14 1.1665C15.6139 1.1665 16.9896 1.73525 18.1271 2.87275C19.2646 4.01025 19.8333 5.38595 19.8333 6.99984V9.33317H21C21.6417 9.33317 22.191 9.56164 22.6479 10.0186C23.1049 10.4755 23.3333 11.0248 23.3333 11.6665V23.3332C23.3333 23.9748 23.1049 24.5241 22.6479 24.9811C22.191 25.438 21.6417 25.6665 21 25.6665H6.99999C6.35832 25.6665 5.80902 25.438 5.35207 24.9811C4.89513 24.5241 4.66666 23.9748 4.66666 23.3332V11.6665C4.66666 11.0248 4.89513 10.4755 5.35207 10.0186C5.80902 9.56164 6.35832 9.33317 6.99999 9.33317ZM6.99999 23.3332H21V11.6665H6.99999V23.3332ZM14 19.8332C14.6417 19.8332 15.191 19.6047 15.6479 19.1478C16.1049 18.6908 16.3333 18.1415 16.3333 17.4998C16.3333 16.8582 16.1049 16.3089 15.6479 15.8519C15.191 15.395 14.6417 15.1665 14 15.1665C13.3583 15.1665 12.809 15.395 12.3521 15.8519C11.8951 16.3089 11.6667 16.8582 11.6667 17.4998C11.6667 18.1415 11.8951 18.6908 12.3521 19.1478C12.809 19.6047 13.3583 19.8332 14 19.8332Z" fill="black"/>
</svg>
