<svg width="28" height="28" viewBox="0 0 28 28" fill="none" xmlns="http://www.w3.org/2000/svg">
<path d="M7.00002 25.6667C6.35835 25.6667 5.80924 25.4384 5.35269 24.9819C4.89535 24.5245 4.66669 23.975 4.66669 23.3334V11.6667C4.66669 11.025 4.89535 10.4755 5.35269 10.0182C5.80924 9.56163 6.35835 9.33335 7.00002 9.33335H8.16669V7.00002C8.16669 5.38613 8.73563 4.01024 9.87352 2.87235C11.0106 1.73524 12.3861 1.16669 14 1.16669C15.6139 1.16669 16.9898 1.73524 18.1277 2.87235C19.2648 4.01024 19.8334 5.38613 19.8334 7.00002V9.33335H21C21.6417 9.33335 22.1912 9.56163 22.6485 10.0182C23.1051 10.4755 23.3334 11.025 23.3334 11.6667V23.3334C23.3334 23.975 23.1051 24.5245 22.6485 24.9819C22.1912 25.4384 21.6417 25.6667 21 25.6667H7.00002ZM7.00002 23.3334H21V11.6667H7.00002V23.3334ZM14 19.8334C14.6417 19.8334 15.1912 19.6051 15.6485 19.1485C16.1051 18.6912 16.3334 18.1417 16.3334 17.5C16.3334 16.8584 16.1051 16.3089 15.6485 15.8515C15.1912 15.395 14.6417 15.1667 14 15.1667C13.3584 15.1667 12.8092 15.395 12.3527 15.8515C11.8954 16.3089 11.6667 16.8584 11.6667 17.5C11.6667 18.1417 11.8954 18.6912 12.3527 19.1485C12.8092 19.6051 13.3584 19.8334 14 19.8334ZM10.5 9.33335H17.5V7.00002C17.5 6.0278 17.1597 5.20141 16.4792 4.52085C15.7986 3.8403 14.9722 3.50002 14 3.50002C13.0278 3.50002 12.2014 3.8403 11.5209 4.52085C10.8403 5.20141 10.5 6.0278 10.5 7.00002V9.33335Z" fill="black"/>
</svg>
