<svg width="16" height="16" viewBox="0 0 16 16" fill="none" xmlns="http://www.w3.org/2000/svg">
<path d="M12 11.9998C12.2777 11.9998 12.5138 11.9026 12.7083 11.7082C12.9027 11.5137 13 11.2776 13 10.9998C13 10.7221 12.9027 10.4859 12.7083 10.2915C12.5138 10.0971 12.2777 9.99984 12 9.99984C11.7222 9.99984 11.4861 10.0971 11.2916 10.2915C11.0972 10.4859 11 10.7221 11 10.9998C11 11.2776 11.0972 11.5137 11.2916 11.7082C11.4861 11.9026 11.7222 11.9998 12 11.9998ZM12 13.9998C12.3333 13.9998 12.6444 13.9221 12.9333 13.7665C13.2222 13.6109 13.4611 13.3943 13.65 13.1165C13.3944 12.9609 13.1277 12.8471 12.85 12.7748C12.5722 12.7026 12.2888 12.6665 12 12.6665C11.7111 12.6665 11.4277 12.7026 11.15 12.7748C10.8722 12.8471 10.6055 12.9609 10.35 13.1165C10.5388 13.3943 10.7777 13.6109 11.0666 13.7665C11.3555 13.9221 11.6666 13.9998 12 13.9998ZM5.99996 5.33317H9.99996V3.99984C9.99996 3.44428 9.80552 2.97206 9.41663 2.58317C9.02774 2.19428 8.55552 1.99984 7.99996 1.99984C7.4444 1.99984 6.97218 2.19428 6.58329 2.58317C6.1944 2.97206 5.99996 3.44428 5.99996 3.99984V5.33317ZM8.16663 14.6665H3.99996C3.63329 14.6665 3.3194 14.5359 3.05829 14.2748C2.79718 14.0137 2.66663 13.6998 2.66663 13.3332V6.6665C2.66663 6.29984 2.79718 5.98595 3.05829 5.72484C3.3194 5.46373 3.63329 5.33317 3.99996 5.33317H4.66663V3.99984C4.66663 3.07762 4.99163 2.2915 5.64163 1.6415C6.29163 0.991504 7.07774 0.666504 7.99996 0.666504C8.92218 0.666504 9.70829 0.991504 10.3583 1.6415C11.0083 2.2915 11.3333 3.07762 11.3333 3.99984V5.33317H12C12.3666 5.33317 12.6805 5.46373 12.9416 5.72484C13.2027 5.98595 13.3333 6.29984 13.3333 6.6665V7.53317C13.1333 7.4665 12.925 7.4165 12.7083 7.38317C12.4916 7.34984 12.2555 7.33317 12 7.33317V6.6665H3.99996V13.3332H7.53329C7.62218 13.5998 7.71107 13.8304 7.79996 14.0248C7.88885 14.2193 8.01107 14.4332 8.16663 14.6665ZM12 15.3332C11.0777 15.3332 10.2916 15.0082 9.64163 14.3582C8.99163 13.7082 8.66663 12.9221 8.66663 11.9998C8.66663 11.0776 8.99163 10.2915 9.64163 9.6415C10.2916 8.9915 11.0777 8.6665 12 8.6665C12.9222 8.6665 13.7083 8.9915 14.3583 9.6415C15.0083 10.2915 15.3333 11.0776 15.3333 11.9998C15.3333 12.9221 15.0083 13.7082 14.3583 14.3582C13.7083 15.0082 12.9222 15.3332 12 15.3332Z" fill="black"/>
</svg>
