<svg width="16" height="16" viewBox="0 0 16 16" fill="none" xmlns="http://www.w3.org/2000/svg">
<path d="M12 5.66667H11.3333V4.33333C11.3333 2.49333 9.83999 1 7.99999 1C6.15999 1 4.66666 2.49333 4.66666 4.33333V5.66667H3.99999C3.26666 5.66667 2.66666 6.26667 2.66666 7V13.6667C2.66666 14.4 3.26666 15 3.99999 15H12C12.7333 15 13.3333 14.4 13.3333 13.6667V7C13.3333 6.26667 12.7333 5.66667 12 5.66667ZM7.99999 11.6667C7.26666 11.6667 6.66666 11.0667 6.66666 10.3333C6.66666 9.6 7.26666 9 7.99999 9C8.73332 9 9.33332 9.6 9.33332 10.3333C9.33332 11.0667 8.73332 11.6667 7.99999 11.6667ZM5.99999 5.66667V4.33333C5.99999 3.22667 6.89332 2.33333 7.99999 2.33333C9.10666 2.33333 9.99999 3.22667 9.99999 4.33333V5.66667H5.99999Z" fill="black"/>
</svg>
