<svg width="28" height="28" viewBox="0 0 28 28" fill="none" xmlns="http://www.w3.org/2000/svg">
<path d="M15.1667 24.5C14.8361 24.5 14.559 24.3882 14.3354 24.1646C14.1118 23.941 14 23.6639 14 23.3333C14 23.0028 14.1118 22.7257 14.3354 22.5021C14.559 22.2785 14.8361 22.1667 15.1667 22.1667H22.1667V5.83333H15.1667C14.8361 5.83333 14.559 5.72153 14.3354 5.49792C14.1118 5.27431 14 4.99722 14 4.66667C14 4.33611 14.1118 4.05903 14.3354 3.83542C14.559 3.61181 14.8361 3.5 15.1667 3.5H22.1667C22.8083 3.5 23.3576 3.72847 23.8146 4.18542C24.2715 4.64236 24.5 5.19167 24.5 5.83333V22.1667C24.5 22.8083 24.2715 23.3576 23.8146 23.8146C23.3576 24.2715 22.8083 24.5 22.1667 24.5H15.1667ZM13.0375 15.1667H4.66667C4.33611 15.1667 4.05903 15.0549 3.83542 14.8313C3.61181 14.6076 3.5 14.3306 3.5 14C3.5 13.6694 3.61181 13.3924 3.83542 13.1688C4.05903 12.9451 4.33611 12.8333 4.66667 12.8333H13.0375L10.85 10.6458C10.6361 10.4319 10.5292 10.1694 10.5292 9.85833C10.5292 9.54722 10.6361 9.275 10.85 9.04167C11.0639 8.80833 11.3361 8.68681 11.6667 8.67708C11.9972 8.66736 12.2792 8.77917 12.5125 9.0125L16.6833 13.1833C16.9167 13.4167 17.0333 13.6889 17.0333 14C17.0333 14.3111 16.9167 14.5833 16.6833 14.8167L12.5125 18.9875C12.2792 19.2208 12.0021 19.3326 11.6813 19.3229C11.3604 19.3132 11.0833 19.1917 10.85 18.9583C10.6361 18.725 10.534 18.4479 10.5437 18.1271C10.5535 17.8062 10.6653 17.5389 10.8792 17.325L13.0375 15.1667Z" fill="black"/>
</svg>
