<svg width="16" height="16" viewBox="0 0 16 16" fill="none" xmlns="http://www.w3.org/2000/svg">
<path d="M8.66667 14C8.47778 14 8.31944 13.9361 8.19167 13.8083C8.06389 13.6806 8 13.5222 8 13.3333C8 13.1444 8.06389 12.9861 8.19167 12.8583C8.31944 12.7306 8.47778 12.6667 8.66667 12.6667H12.6667V3.33333H8.66667C8.47778 3.33333 8.31944 3.26944 8.19167 3.14167C8.06389 3.01389 8 2.85556 8 2.66667C8 2.47778 8.06389 2.31944 8.19167 2.19167C8.31944 2.06389 8.47778 2 8.66667 2H12.6667C13.0333 2 13.3472 2.13056 13.6083 2.39167C13.8694 2.65278 14 2.96667 14 3.33333V12.6667C14 13.0333 13.8694 13.3472 13.6083 13.6083C13.3472 13.8694 13.0333 14 12.6667 14H8.66667ZM7.45 8.66667H2.66667C2.47778 8.66667 2.31944 8.60278 2.19167 8.475C2.06389 8.34722 2 8.18889 2 8C2 7.81111 2.06389 7.65278 2.19167 7.525C2.31944 7.39722 2.47778 7.33333 2.66667 7.33333H7.45L6.2 6.08333C6.07778 5.96111 6.01667 5.81111 6.01667 5.63333C6.01667 5.45556 6.07778 5.3 6.2 5.16667C6.32222 5.03333 6.47778 4.96389 6.66667 4.95833C6.85556 4.95278 7.01667 5.01667 7.15 5.15L9.53333 7.53333C9.66667 7.66667 9.73333 7.82222 9.73333 8C9.73333 8.17778 9.66667 8.33333 9.53333 8.46667L7.15 10.85C7.01667 10.9833 6.85833 11.0472 6.675 11.0417C6.49167 11.0361 6.33333 10.9667 6.2 10.8333C6.07778 10.7 6.01944 10.5417 6.025 10.3583C6.03056 10.175 6.09444 10.0222 6.21667 9.9L7.45 8.66667Z" fill="black"/>
</svg>
