<svg width="16" height="16" viewBox="0 0 16 16" fill="none" xmlns="http://www.w3.org/2000/svg">
<path d="M10.15 10.9833C10.0056 10.8167 9.93335 10.6304 9.93335 10.4247C9.93335 10.2193 10.0056 10.0444 10.15 9.9L11.3 8.76667H6.68335C6.47224 8.76667 6.29446 8.69156 6.15001 8.54134C6.00557 8.39156 5.93335 8.21111 5.93335 8C5.93335 7.78889 6.00557 7.60845 6.15001 7.45867C6.29446 7.30845 6.47224 7.23334 6.68335 7.23334H11.3L10.15 6.1C9.99446 5.94445 9.91935 5.76378 9.92468 5.558C9.93046 5.35267 10.0056 5.17222 10.15 5.01667C10.2945 4.87222 10.4696 4.8 10.6753 4.8C10.8807 4.8 11.0556 4.87222 11.2 5.01667L13.6667 7.46667C13.7333 7.54445 13.7833 7.62778 13.8167 7.71667C13.85 7.80556 13.8667 7.9 13.8667 8C13.8667 8.1 13.85 8.19445 13.8167 8.28333C13.7833 8.37222 13.7333 8.45556 13.6667 8.53333L11.2 11C11.0333 11.1556 10.8529 11.2249 10.6587 11.208C10.464 11.1916 10.2945 11.1167 10.15 10.9833V10.9833ZM3.33335 14.1333C2.91113 14.1333 2.5529 13.9862 2.25868 13.692C1.96401 13.3973 1.81668 13.0389 1.81668 12.6167V3.38334C1.81668 2.96111 1.96401 2.60267 2.25868 2.308C2.5529 2.01378 2.91113 1.86667 3.33335 1.86667H7.26668C7.4889 1.86667 7.67224 1.93889 7.81668 2.08334C7.96113 2.22778 8.03335 2.40556 8.03335 2.61667C8.03335 2.83889 7.96113 3.02222 7.81668 3.16667C7.67224 3.31111 7.4889 3.38334 7.26668 3.38334H3.33335V12.6167H7.26668C7.4889 12.6167 7.67224 12.6889 7.81668 12.8333C7.96113 12.9778 8.03335 13.1611 8.03335 13.3833C8.03335 13.5944 7.96113 13.7722 7.81668 13.9167C7.67224 14.0611 7.4889 14.1333 7.26668 14.1333H3.33335Z" fill="black"/>
</svg>
