<svg width="28" height="28" viewBox="0 0 28 28" fill="none" xmlns="http://www.w3.org/2000/svg">
<path d="M17.7625 19.2208C17.5097 18.9292 17.3833 18.6033 17.3833 18.2432C17.3833 17.8838 17.5097 17.5778 17.7625 17.325L19.775 15.3417H11.6958C11.3264 15.3417 11.0153 15.2102 10.7625 14.9473C10.5097 14.6852 10.3833 14.3694 10.3833 14C10.3833 13.6306 10.5097 13.3148 10.7625 13.0527C11.0153 12.7898 11.3264 12.6583 11.6958 12.6583H19.775L17.7625 10.675C17.4903 10.4028 17.3588 10.0866 17.3682 9.7265C17.3783 9.36716 17.5097 9.05139 17.7625 8.77916C18.0153 8.52639 18.3217 8.4 18.6818 8.4C19.0412 8.4 19.3472 8.52639 19.6 8.77916L23.9167 13.0667C24.0333 13.2028 24.1208 13.3486 24.1792 13.5042C24.2375 13.6597 24.2667 13.825 24.2667 14C24.2667 14.175 24.2375 14.3403 24.1792 14.4958C24.1208 14.6514 24.0333 14.7972 23.9167 14.9333L19.6 19.25C19.3083 19.5222 18.9926 19.6436 18.6527 19.614C18.312 19.5852 18.0153 19.4542 17.7625 19.2208V19.2208ZM5.83334 24.7333C5.09445 24.7333 4.46756 24.4759 3.95267 23.961C3.437 23.4453 3.17917 22.8181 3.17917 22.0792V5.92083C3.17917 5.18194 3.437 4.55466 3.95267 4.039C4.46756 3.52411 5.09445 3.26666 5.83334 3.26666H12.7167C13.1056 3.26666 13.4264 3.39305 13.6792 3.64583C13.9319 3.89861 14.0583 4.20972 14.0583 4.57916C14.0583 4.96805 13.9319 5.28889 13.6792 5.54166C13.4264 5.79444 13.1056 5.92083 12.7167 5.92083H5.83334V22.0792H12.7167C13.1056 22.0792 13.4264 22.2056 13.6792 22.4583C13.9319 22.7111 14.0583 23.0319 14.0583 23.4208C14.0583 23.7903 13.9319 24.1014 13.6792 24.3542C13.4264 24.6069 13.1056 24.7333 12.7167 24.7333H5.83334Z" fill="black"/>
</svg>
