<svg width="24" height="24" viewBox="0 0 24 24" fill="none" xmlns="http://www.w3.org/2000/svg">
<path d="M15.225 16.475C15.0083 16.225 14.9 15.9457 14.9 15.637C14.9 15.329 15.0083 15.0667 15.225 14.85L16.95 13.15H10.025C9.70834 13.15 9.44167 13.0373 9.22501 12.812C9.00834 12.5873 8.90001 12.3167 8.90001 12C8.90001 11.6833 9.00834 11.4127 9.22501 11.188C9.44167 10.9627 9.70834 10.85 10.025 10.85H16.95L15.225 9.14999C14.9917 8.91665 14.879 8.64565 14.887 8.33699C14.8957 8.02899 15.0083 7.75832 15.225 7.52499C15.4417 7.30832 15.7043 7.19999 16.013 7.19999C16.321 7.19999 16.5833 7.30832 16.8 7.52499L20.5 11.2C20.6 11.3167 20.675 11.4417 20.725 11.575C20.775 11.7083 20.8 11.85 20.8 12C20.8 12.15 20.775 12.2917 20.725 12.425C20.675 12.5583 20.6 12.6833 20.5 12.8L16.8 16.5C16.55 16.7333 16.2793 16.8373 15.988 16.812C15.696 16.7873 15.4417 16.675 15.225 16.475ZM5.00001 21.2C4.36667 21.2 3.82934 20.9793 3.38801 20.538C2.94601 20.096 2.72501 19.5583 2.72501 18.925V5.07499C2.72501 4.44165 2.94601 3.90399 3.38801 3.46199C3.82934 3.02065 4.36667 2.79999 5.00001 2.79999H10.9C11.2333 2.79999 11.5083 2.90832 11.725 3.12499C11.9417 3.34165 12.05 3.60832 12.05 3.92499C12.05 4.25832 11.9417 4.53332 11.725 4.74999C11.5083 4.96665 11.2333 5.07499 10.9 5.07499H5.00001V18.925H10.9C11.2333 18.925 11.5083 19.0333 11.725 19.25C11.9417 19.4667 12.05 19.7417 12.05 20.075C12.05 20.3917 11.9417 20.6583 11.725 20.875C11.5083 21.0917 11.2333 21.2 10.9 21.2H5.00001Z" fill="black"/>
</svg>
