<svg width="16" height="16" viewBox="0 0 16 16" fill="none" xmlns="http://www.w3.org/2000/svg">
<path d="M3.33335 12.6668C3.14446 12.6668 2.98613 12.6029 2.85835 12.4752C2.73058 12.3474 2.66669 12.1891 2.66669 12.0002C2.66669 11.8113 2.73058 11.6529 2.85835 11.5252C2.98613 11.3974 3.14446 11.3335 3.33335 11.3335H8.66669C8.85558 11.3335 9.01391 11.3974 9.14169 11.5252C9.26947 11.6529 9.33335 11.8113 9.33335 12.0002C9.33335 12.1891 9.26947 12.3474 9.14169 12.4752C9.01391 12.6029 8.85558 12.6668 8.66669 12.6668H3.33335ZM3.33335 7.3335C3.14446 7.3335 2.98613 7.26961 2.85835 7.14183C2.73058 7.01405 2.66669 6.85572 2.66669 6.66683C2.66669 6.47794 2.73058 6.31961 2.85835 6.19183C2.98613 6.06405 3.14446 6.00016 3.33335 6.00016H12.6667C12.8556 6.00016 13.0139 6.06405 13.1417 6.19183C13.2695 6.31961 13.3334 6.47794 13.3334 6.66683C13.3334 6.85572 13.2695 7.01405 13.1417 7.14183C13.0139 7.26961 12.8556 7.3335 12.6667 7.3335H3.33335ZM3.33335 10.0002C3.14446 10.0002 2.98613 9.93627 2.85835 9.8085C2.73058 9.68072 2.66669 9.52238 2.66669 9.3335C2.66669 9.14461 2.73058 8.98627 2.85835 8.8585C2.98613 8.73072 3.14446 8.66683 3.33335 8.66683H12.6667C12.8556 8.66683 13.0139 8.73072 13.1417 8.8585C13.2695 8.98627 13.3334 9.14461 13.3334 9.3335C13.3334 9.52238 13.2695 9.68072 13.1417 9.8085C13.0139 9.93627 12.8556 10.0002 12.6667 10.0002H3.33335ZM3.33335 4.66683C3.14446 4.66683 2.98613 4.60294 2.85835 4.47516C2.73058 4.34738 2.66669 4.18905 2.66669 4.00016C2.66669 3.81127 2.73058 3.65294 2.85835 3.52516C2.98613 3.39738 3.14446 3.3335 3.33335 3.3335H12.6667C12.8556 3.3335 13.0139 3.39738 13.1417 3.52516C13.2695 3.65294 13.3334 3.81127 13.3334 4.00016C13.3334 4.18905 13.2695 4.34738 13.1417 4.47516C13.0139 4.60294 12.8556 4.66683 12.6667 4.66683H3.33335Z" fill="black"/>
</svg>
