<svg width="24" height="24" viewBox="0 0 24 24" fill="none" xmlns="http://www.w3.org/2000/svg">
<path d="M5 19C4.71667 19 4.47917 18.9042 4.2875 18.7125C4.09583 18.5208 4 18.2833 4 18C4 17.7167 4.09583 17.4792 4.2875 17.2875C4.47917 17.0958 4.71667 17 5 17H13C13.2833 17 13.5208 17.0958 13.7125 17.2875C13.9042 17.4792 14 17.7167 14 18C14 18.2833 13.9042 18.5208 13.7125 18.7125C13.5208 18.9042 13.2833 19 13 19H5ZM5 11C4.71667 11 4.47917 10.9042 4.2875 10.7125C4.09583 10.5208 4 10.2833 4 10C4 9.71667 4.09583 9.47917 4.2875 9.2875C4.47917 9.09583 4.71667 9 5 9H19C19.2833 9 19.5208 9.09583 19.7125 9.2875C19.9042 9.47917 20 9.71667 20 10C20 10.2833 19.9042 10.5208 19.7125 10.7125C19.5208 10.9042 19.2833 11 19 11H5ZM5 15C4.71667 15 4.47917 14.9042 4.2875 14.7125C4.09583 14.5208 4 14.2833 4 14C4 13.7167 4.09583 13.4792 4.2875 13.2875C4.47917 13.0958 4.71667 13 5 13H19C19.2833 13 19.5208 13.0958 19.7125 13.2875C19.9042 13.4792 20 13.7167 20 14C20 14.2833 19.9042 14.5208 19.7125 14.7125C19.5208 14.9042 19.2833 15 19 15H5ZM5 7C4.71667 7 4.47917 6.90417 4.2875 6.7125C4.09583 6.52083 4 6.28333 4 6C4 5.71667 4.09583 5.47917 4.2875 5.2875C4.47917 5.09583 4.71667 5 5 5H19C19.2833 5 19.5208 5.09583 19.7125 5.2875C19.9042 5.47917 20 5.71667 20 6C20 6.28333 19.9042 6.52083 19.7125 6.7125C19.5208 6.90417 19.2833 7 19 7H5Z" fill="black"/>
</svg>
