<svg width="28" height="28" viewBox="0 0 28 28" fill="none" xmlns="http://www.w3.org/2000/svg">
<path d="M5.83332 22.1668C5.50277 22.1668 5.22568 22.055 5.00207 21.8314C4.77846 21.6078 4.66666 21.3307 4.66666 21.0002C4.66666 20.6696 4.77846 20.3925 5.00207 20.1689C5.22568 19.9453 5.50277 19.8335 5.83332 19.8335H15.1667C15.4972 19.8335 15.7743 19.9453 15.9979 20.1689C16.2215 20.3925 16.3333 20.6696 16.3333 21.0002C16.3333 21.3307 16.2215 21.6078 15.9979 21.8314C15.7743 22.055 15.4972 22.1668 15.1667 22.1668H5.83332ZM5.83332 12.8335C5.50277 12.8335 5.22568 12.7217 5.00207 12.4981C4.77846 12.2745 4.66666 11.9974 4.66666 11.6668C4.66666 11.3363 4.77846 11.0592 5.00207 10.8356C5.22568 10.612 5.50277 10.5002 5.83332 10.5002H22.1667C22.4972 10.5002 22.7743 10.612 22.9979 10.8356C23.2215 11.0592 23.3333 11.3363 23.3333 11.6668C23.3333 11.9974 23.2215 12.2745 22.9979 12.4981C22.7743 12.7217 22.4972 12.8335 22.1667 12.8335H5.83332ZM5.83332 17.5002C5.50277 17.5002 5.22568 17.3884 5.00207 17.1647C4.77846 16.9411 4.66666 16.6641 4.66666 16.3335C4.66666 16.0029 4.77846 15.7259 5.00207 15.5022C5.22568 15.2786 5.50277 15.1668 5.83332 15.1668H22.1667C22.4972 15.1668 22.7743 15.2786 22.9979 15.5022C23.2215 15.7259 23.3333 16.0029 23.3333 16.3335C23.3333 16.6641 23.2215 16.9411 22.9979 17.1647C22.7743 17.3884 22.4972 17.5002 22.1667 17.5002H5.83332ZM5.83332 8.16683C5.50277 8.16683 5.22568 8.05502 5.00207 7.83141C4.77846 7.6078 4.66666 7.33072 4.66666 7.00016C4.66666 6.66961 4.77846 6.39252 5.00207 6.16891C5.22568 5.9453 5.50277 5.8335 5.83332 5.8335H22.1667C22.4972 5.8335 22.7743 5.9453 22.9979 6.16891C23.2215 6.39252 23.3333 6.66961 23.3333 7.00016C23.3333 7.33072 23.2215 7.6078 22.9979 7.83141C22.7743 8.05502 22.4972 8.16683 22.1667 8.16683H5.83332Z" fill="black"/>
</svg>
