<svg width="28" height="28" viewBox="0 0 28 28" fill="none" xmlns="http://www.w3.org/2000/svg">
<path d="M23.3333 4.66669H4.66668C3.38334 4.66669 2.33334 5.71669 2.33334 7.00002V21C2.33334 22.2834 3.38334 23.3334 4.66668 23.3334H23.3333C24.6167 23.3334 25.6667 22.2834 25.6667 21V7.00002C25.6667 5.71669 24.6167 4.66669 23.3333 4.66669ZM22.8667 9.62502L15.2367 14.3967C14.4783 14.875 13.5217 14.875 12.7633 14.3967L5.13334 9.62502C4.84168 9.43835 4.66668 9.12335 4.66668 8.78502C4.66668 8.00335 5.51834 7.53669 6.18334 7.94502L14 12.8334L21.8167 7.94502C22.4817 7.53669 23.3333 8.00335 23.3333 8.78502C23.3333 9.12335 23.1583 9.43835 22.8667 9.62502Z" fill="black"/>
</svg>
