<svg width="16" height="16" viewBox="0 0 16 16" fill="none" xmlns="http://www.w3.org/2000/svg">
<path d="M2.66665 13.3333C2.29998 13.3333 1.9862 13.2028 1.72531 12.942C1.46398 12.6806 1.33331 12.3666 1.33331 12V3.99996C1.33331 3.63329 1.46398 3.31951 1.72531 3.05863C1.9862 2.79729 2.29998 2.66663 2.66665 2.66663H13.3333C13.7 2.66663 14.014 2.79729 14.2753 3.05863C14.5362 3.31951 14.6666 3.63329 14.6666 3.99996V12C14.6666 12.3666 14.5362 12.6806 14.2753 12.942C14.014 13.2028 13.7 13.3333 13.3333 13.3333H2.66665ZM13.3333 5.33329L8.34998 8.44996C8.29442 8.48329 8.23598 8.50818 8.17465 8.52463C8.11376 8.54151 8.05554 8.54996 7.99998 8.54996C7.94442 8.54996 7.8862 8.54151 7.82531 8.52463C7.76398 8.50818 7.70554 8.48329 7.64998 8.44996L2.66665 5.33329V12H13.3333V5.33329ZM7.99998 7.33329L13.3333 3.99996H2.66665L7.99998 7.33329ZM2.66665 5.49996V4.51663V4.53329V4.52463V5.49996Z" fill="black"/>
</svg>
