<svg width="28" height="28" viewBox="0 0 28 28" fill="none" xmlns="http://www.w3.org/2000/svg">
<path d="M4.66665 23.3334C4.02498 23.3334 3.47587 23.1051 3.01931 22.6485C2.56198 22.1912 2.33331 21.6417 2.33331 21V7.00002C2.33331 6.35835 2.56198 5.80924 3.01931 5.35269C3.47587 4.89535 4.02498 4.66669 4.66665 4.66669H23.3333C23.975 4.66669 24.5245 4.89535 24.9818 5.35269C25.4384 5.80924 25.6666 6.35835 25.6666 7.00002V21C25.6666 21.6417 25.4384 22.1912 24.9818 22.6485C24.5245 23.1051 23.975 23.3334 23.3333 23.3334H4.66665ZM23.3333 9.33335L14.6125 14.7875C14.5153 14.8459 14.413 14.8894 14.3056 14.9182C14.1991 14.9477 14.0972 14.9625 14 14.9625C13.9028 14.9625 13.8009 14.9477 13.6943 14.9182C13.587 14.8894 13.4847 14.8459 13.3875 14.7875L4.66665 9.33335V21H23.3333V9.33335ZM14 12.8334L23.3333 7.00002H4.66665L14 12.8334ZM4.66665 9.62502V7.90419V7.93335V7.91819V9.62502Z" fill="black"/>
</svg>
