<svg width="16" height="16" viewBox="0 0 16 16" fill="none" xmlns="http://www.w3.org/2000/svg">
<path d="M13.3333 2.66669H2.66668C1.93334 2.66669 1.33334 3.26669 1.33334 4.00002V12C1.33334 12.7334 1.93334 13.3334 2.66668 13.3334H13.3333C14.0667 13.3334 14.6667 12.7334 14.6667 12V4.00002C14.6667 3.26669 14.0667 2.66669 13.3333 2.66669ZM13.0667 5.50002L8.70668 8.22669C8.27334 8.50002 7.72668 8.50002 7.29334 8.22669L2.93334 5.50002C2.76668 5.39335 2.66668 5.21335 2.66668 5.02002C2.66668 4.57335 3.15334 4.30669 3.53334 4.54002L8.00001 7.33335L12.4667 4.54002C12.8467 4.30669 13.3333 4.57335 13.3333 5.02002C13.3333 5.21335 13.2333 5.39335 13.0667 5.50002Z" fill="black"/>
</svg>
