<svg width="28" height="28" viewBox="0 0 28 28" fill="none" xmlns="http://www.w3.org/2000/svg">
<path d="M12.6242 14.6125C12.3675 14.6008 12.1108 14.5892 11.8425 14.5892C9.01915 14.5892 6.38249 15.3708 4.13082 16.7125C3.10416 17.3192 2.50916 18.4625 2.50916 19.6642V21.5892C2.50916 22.2308 3.03416 22.7558 3.67582 22.7558H13.3125C12.3908 21.4375 11.8425 19.8275 11.8425 18.0892C11.8425 16.8408 12.1342 15.6742 12.6242 14.6125Z" fill="black"/>
<path d="M11.8425 13.4225C14.4198 13.4225 16.5092 11.3332 16.5092 8.75584C16.5092 6.17851 14.4198 4.08917 11.8425 4.08917C9.26516 4.08917 7.17582 6.17851 7.17582 8.75584C7.17582 11.3332 9.26516 13.4225 11.8425 13.4225Z" fill="black"/>
<path d="M24.3842 18.0892C24.3842 17.8325 24.3492 17.5992 24.3142 17.3542L25.2942 16.5025C25.5042 16.3158 25.5508 16.0125 25.4108 15.7675L24.7225 14.5775C24.5825 14.3325 24.2908 14.2275 24.0342 14.3208L22.7975 14.7408C22.4242 14.4258 22.0042 14.1808 21.5375 14.0058L21.2808 12.7342C21.2225 12.4658 20.9892 12.2675 20.7092 12.2675H19.3325C19.0525 12.2675 18.8192 12.4658 18.7608 12.7342L18.5042 14.0058C18.0375 14.1808 17.6175 14.4258 17.2442 14.7408L16.0075 14.3208C15.7392 14.2275 15.4592 14.3442 15.3192 14.5775L14.6308 15.7675C14.4908 16.0125 14.5375 16.3158 14.7475 16.5025L15.7275 17.3542C15.6925 17.5992 15.6575 17.8325 15.6575 18.0892C15.6575 18.3458 15.6925 18.5792 15.7275 18.8242L14.7475 19.6758C14.5375 19.8625 14.4908 20.1658 14.6308 20.4108L15.3192 21.6008C15.4592 21.8458 15.7508 21.9508 16.0075 21.8575L17.2442 21.4375C17.6175 21.7525 18.0375 21.9975 18.5042 22.1725L18.7608 23.4442C18.8192 23.7125 19.0525 23.9108 19.3325 23.9108H20.7092C20.9892 23.9108 21.2225 23.7125 21.2808 23.4442L21.5375 22.1725C22.0042 21.9975 22.4242 21.7525 22.7975 21.4375L24.0342 21.8575C24.3025 21.9508 24.5825 21.8342 24.7225 21.6008L25.4108 20.4108C25.5508 20.1658 25.5042 19.8625 25.2942 19.6758L24.3142 18.8242C24.3492 18.5792 24.3842 18.3458 24.3842 18.0892ZM20.0092 20.4225C18.7258 20.4225 17.6758 19.3725 17.6758 18.0892C17.6758 16.8058 18.7258 15.7558 20.0092 15.7558C21.2925 15.7558 22.3425 16.8058 22.3425 18.0892C22.3425 19.3725 21.2925 20.4225 20.0092 20.4225Z" fill="black"/>
</svg>
