<svg width="16" height="16" viewBox="0 0 16 16" fill="none" xmlns="http://www.w3.org/2000/svg">
<path d="M6.66665 8.00002C5.93331 8.00002 5.30554 7.73891 4.78331 7.21669C4.26109 6.69446 3.99998 6.06669 3.99998 5.33335C3.99998 4.60002 4.26109 3.97224 4.78331 3.45002C5.30554 2.9278 5.93331 2.66669 6.66665 2.66669C7.39998 2.66669 8.02776 2.9278 8.54998 3.45002C9.0722 3.97224 9.33331 4.60002 9.33331 5.33335C9.33331 6.06669 9.0722 6.69446 8.54998 7.21669C8.02776 7.73891 7.39998 8.00002 6.66665 8.00002ZM1.99998 13.3334C1.81109 13.3334 1.65287 13.2694 1.52531 13.1414C1.39731 13.0138 1.33331 12.8556 1.33331 12.6667V11.4667C1.33331 11.1 1.42776 10.7556 1.61665 10.4334C1.80554 10.1111 2.06665 9.86669 2.39998 9.70002C2.96665 9.41113 3.60554 9.16669 4.31665 8.96669C5.02776 8.76669 5.81109 8.66669 6.66665 8.66669H6.89998C6.96665 8.66669 7.03331 8.6778 7.09998 8.70002C7.01109 8.90002 6.93598 9.10846 6.87465 9.32535C6.81376 9.5418 6.76665 9.76669 6.73331 10H6.66665C5.87776 10 5.16931 10.1 4.54131 10.3C3.91376 10.5 3.39998 10.7 2.99998 10.9C2.89998 10.9556 2.81954 11.0334 2.75865 11.1334C2.69731 11.2334 2.66665 11.3445 2.66665 11.4667V12H6.86665C6.93331 12.2334 7.0222 12.464 7.13331 12.692C7.24442 12.9196 7.36665 13.1334 7.49998 13.3334H1.99998ZM6.66665 6.66669C7.03331 6.66669 7.34731 6.53602 7.60865 6.27469C7.86953 6.0138 7.99998 5.70002 7.99998 5.33335C7.99998 4.96669 7.86953 4.65291 7.60865 4.39202C7.34731 4.13069 7.03331 4.00002 6.66665 4.00002C6.29998 4.00002 5.9862 4.13069 5.72531 4.39202C5.46398 4.65291 5.33331 4.96669 5.33331 5.33335C5.33331 5.70002 5.46398 6.0138 5.72531 6.27469C5.9862 6.53602 6.29998 6.66669 6.66665 6.66669ZM11.3333 12C11.7 12 12.014 11.8696 12.2753 11.6087C12.5362 11.3474 12.6666 11.0334 12.6666 10.6667C12.6666 10.3 12.5362 9.98602 12.2753 9.72469C12.014 9.4638 11.7 9.33335 11.3333 9.33335C10.9666 9.33335 10.6529 9.4638 10.392 9.72469C10.1306 9.98602 9.99998 10.3 9.99998 10.6667C9.99998 11.0334 10.1306 11.3474 10.392 11.6087C10.6529 11.8696 10.9666 12 11.3333 12ZM10.4666 13C10.3333 12.9445 10.2082 12.8862 10.0913 12.8254C9.97487 12.764 9.85553 12.6889 9.73331 12.6L9.01665 12.8167C8.93887 12.8389 8.86665 12.836 8.79998 12.808C8.73331 12.7805 8.67776 12.7334 8.63331 12.6667L8.23331 12C8.18887 11.9334 8.17509 11.8611 8.19198 11.7834C8.20842 11.7056 8.24998 11.6389 8.31665 11.5834L8.86665 11.1C8.84442 10.9445 8.83331 10.8 8.83331 10.6667C8.83331 10.5334 8.84442 10.3889 8.86665 10.2334L8.31665 9.75002C8.24998 9.69446 8.20842 9.6278 8.19198 9.55002C8.17509 9.47224 8.18887 9.40002 8.23331 9.33335L8.63331 8.66669C8.67776 8.60002 8.73331 8.55269 8.79998 8.52469C8.86665 8.49713 8.93887 8.49446 9.01665 8.51669L9.73331 8.73335C9.85553 8.64446 9.97487 8.56935 10.0913 8.50802C10.2082 8.44713 10.3333 8.38891 10.4666 8.33335L10.6166 7.60002C10.6389 7.52224 10.6778 7.45846 10.7333 7.40869C10.7889 7.35846 10.8555 7.33335 10.9333 7.33335H11.7333C11.8111 7.33335 11.8778 7.35846 11.9333 7.40869C11.9889 7.45846 12.0278 7.52224 12.05 7.60002L12.2 8.33335C12.3333 8.38891 12.4584 8.45002 12.5753 8.51669C12.6918 8.58335 12.8111 8.66669 12.9333 8.76669L13.6333 8.51669C13.7111 8.48335 13.7862 8.48335 13.8586 8.51669C13.9306 8.55002 13.9889 8.60002 14.0333 8.66669L14.4333 9.36669C14.4778 9.43335 14.4944 9.50558 14.4833 9.58335C14.4722 9.66113 14.4333 9.7278 14.3666 9.78335L13.8 10.2667C13.8222 10.4 13.8333 10.5389 13.8333 10.6834C13.8333 10.8278 13.8222 10.9667 13.8 11.1L14.35 11.5834C14.4166 11.6389 14.4582 11.7056 14.4746 11.7834C14.4915 11.8611 14.4778 11.9334 14.4333 12L14.0333 12.6667C13.9889 12.7334 13.9333 12.7805 13.8666 12.808C13.8 12.836 13.7278 12.8389 13.65 12.8167L12.9333 12.6C12.8111 12.6889 12.6918 12.764 12.5753 12.8254C12.4584 12.8862 12.3333 12.9445 12.2 13L12.05 13.7334C12.0278 13.8111 11.9889 13.8749 11.9333 13.9247C11.8778 13.9749 11.8111 14 11.7333 14H10.9333C10.8555 14 10.7889 13.9749 10.7333 13.9247C10.6778 13.8749 10.6389 13.8111 10.6166 13.7334L10.4666 13Z" fill="black"/>
</svg>
