<svg width="16" height="16" viewBox="0 0 16 16" fill="none" xmlns="http://www.w3.org/2000/svg">
<path d="M7.21381 8.35C7.06714 8.34334 6.92047 8.33667 6.76714 8.33667C5.15381 8.33667 3.64714 8.78334 2.36047 9.55C1.77381 9.89667 1.43381 10.55 1.43381 11.2367V12.3367C1.43381 12.7033 1.73381 13.0033 2.10047 13.0033H7.60714C7.08047 12.25 6.76714 11.33 6.76714 10.3367C6.76714 9.62334 6.93381 8.95667 7.21381 8.35Z" fill="black"/>
<path d="M6.76714 7.67C8.2399 7.67 9.43381 6.4761 9.43381 5.00334C9.43381 3.53058 8.2399 2.33667 6.76714 2.33667C5.29438 2.33667 4.10047 3.53058 4.10047 5.00334C4.10047 6.4761 5.29438 7.67 6.76714 7.67Z" fill="black"/>
<path d="M13.9338 10.3367C13.9338 10.19 13.9138 10.0567 13.8938 9.91667L14.4538 9.43C14.5738 9.32334 14.6005 9.15 14.5205 9.01L14.1271 8.33C14.0471 8.19 13.8805 8.13 13.7338 8.18334L13.0271 8.42334C12.8138 8.24334 12.5738 8.10334 12.3071 8.00334L12.1605 7.27667C12.1271 7.12334 11.9938 7.01 11.8338 7.01H11.0471C10.8871 7.01 10.7538 7.12334 10.7205 7.27667L10.5738 8.00334C10.3071 8.10334 10.0671 8.24334 9.85381 8.42334L9.14714 8.18334C8.99381 8.13 8.83381 8.19667 8.75381 8.33L8.36047 9.01C8.28047 9.15 8.30714 9.32334 8.42714 9.43L8.98714 9.91667C8.96714 10.0567 8.94714 10.19 8.94714 10.3367C8.94714 10.4833 8.96714 10.6167 8.98714 10.7567L8.42714 11.2433C8.30714 11.35 8.28047 11.5233 8.36047 11.6633L8.75381 12.3433C8.83381 12.4833 9.00047 12.5433 9.14714 12.49L9.85381 12.25C10.0671 12.43 10.3071 12.57 10.5738 12.67L10.7205 13.3967C10.7538 13.55 10.8871 13.6633 11.0471 13.6633H11.8338C11.9938 13.6633 12.1271 13.55 12.1605 13.3967L12.3071 12.67C12.5738 12.57 12.8138 12.43 13.0271 12.25L13.7338 12.49C13.8871 12.5433 14.0471 12.4767 14.1271 12.3433L14.5205 11.6633C14.6005 11.5233 14.5738 11.35 14.4538 11.2433L13.8938 10.7567C13.9138 10.6167 13.9338 10.4833 13.9338 10.3367ZM11.4338 11.67C10.7005 11.67 10.1005 11.07 10.1005 10.3367C10.1005 9.60334 10.7005 9.00334 11.4338 9.00334C12.1671 9.00334 12.7671 9.60334 12.7671 10.3367C12.7671 11.07 12.1671 11.67 11.4338 11.67Z" fill="black"/>
</svg>
