<svg width="28" height="28" viewBox="0 0 28 28" fill="none" xmlns="http://www.w3.org/2000/svg">
<path d="M11.6666 13C10.3833 13 9.2847 12.5431 8.37081 11.6292C7.45692 10.7153 6.99998 9.61669 6.99998 8.33335C6.99998 7.05002 7.45692 5.95141 8.37081 5.03752C9.2847 4.12363 10.3833 3.66669 11.6666 3.66669C12.95 3.66669 14.0486 4.12363 14.9625 5.03752C15.8764 5.95141 16.3333 7.05002 16.3333 8.33335C16.3333 9.61669 15.8764 10.7153 14.9625 11.6292C14.0486 12.5431 12.95 13 11.6666 13ZM3.49998 22.3334C3.16942 22.3334 2.89254 22.2214 2.66931 21.9974C2.44531 21.7741 2.33331 21.4972 2.33331 21.1667V19.0667C2.33331 18.425 2.49859 17.8222 2.82915 17.2584C3.1597 16.6945 3.61665 16.2667 4.19998 15.975C5.19165 15.4695 6.3097 15.0417 7.55415 14.6917C8.79859 14.3417 10.1694 14.1667 11.6666 14.1667H12.075C12.1916 14.1667 12.3083 14.1861 12.425 14.225C12.2694 14.575 12.138 14.9398 12.0306 15.3194C11.9241 15.6981 11.8416 16.0917 11.7833 16.5H11.6666C10.2861 16.5 9.04631 16.675 7.94731 17.025C6.84909 17.375 5.94998 17.725 5.24998 18.075C5.07498 18.1722 4.9342 18.3084 4.82765 18.4834C4.72031 18.6584 4.66665 18.8528 4.66665 19.0667V20H12.0166C12.1333 20.4084 12.2889 20.812 12.4833 21.211C12.6778 21.6092 12.8916 21.9834 13.125 22.3334H3.49998ZM11.6666 10.6667C12.3083 10.6667 12.8578 10.438 13.3151 9.98069C13.7717 9.52413 14 8.97502 14 8.33335C14 7.69169 13.7717 7.14258 13.3151 6.68602C12.8578 6.22869 12.3083 6.00002 11.6666 6.00002C11.025 6.00002 10.4759 6.22869 10.0193 6.68602C9.56198 7.14258 9.33331 7.69169 9.33331 8.33335C9.33331 8.97502 9.56198 9.52413 10.0193 9.98069C10.4759 10.438 11.025 10.6667 11.6666 10.6667ZM19.8333 20C20.475 20 21.0245 19.7717 21.4818 19.3152C21.9384 18.8579 22.1666 18.3084 22.1666 17.6667C22.1666 17.025 21.9384 16.4755 21.4818 16.0182C21.0245 15.5616 20.475 15.3334 19.8333 15.3334C19.1916 15.3334 18.6425 15.5616 18.186 16.0182C17.7286 16.4755 17.5 17.025 17.5 17.6667C17.5 18.3084 17.7286 18.8579 18.186 19.3152C18.6425 19.7717 19.1916 20 19.8333 20ZM18.3166 21.75C18.0833 21.6528 17.8644 21.5509 17.6598 21.4444C17.456 21.337 17.2472 21.2056 17.0333 21.05L15.7791 21.4292C15.643 21.4681 15.5166 21.463 15.4 21.414C15.2833 21.3658 15.1861 21.2834 15.1083 21.1667L14.4083 20C14.3305 19.8834 14.3064 19.757 14.336 19.6209C14.3648 19.4847 14.4375 19.3681 14.5541 19.2709L15.5166 18.425C15.4778 18.1528 15.4583 17.9 15.4583 17.6667C15.4583 17.4334 15.4778 17.1806 15.5166 16.9084L14.5541 16.0625C14.4375 15.9653 14.3648 15.8486 14.336 15.7125C14.3064 15.5764 14.3305 15.45 14.4083 15.3334L15.1083 14.1667C15.1861 14.05 15.2833 13.9672 15.4 13.9182C15.5166 13.87 15.643 13.8653 15.7791 13.9042L17.0333 14.2834C17.2472 14.1278 17.456 13.9964 17.6598 13.889C17.8644 13.7825 18.0833 13.6806 18.3166 13.5834L18.5791 12.3C18.618 12.1639 18.6861 12.0523 18.7833 11.9652C18.8805 11.8773 18.9972 11.8334 19.1333 11.8334H20.5333C20.6694 11.8334 20.7861 11.8773 20.8833 11.9652C20.9805 12.0523 21.0486 12.1639 21.0875 12.3L21.35 13.5834C21.5833 13.6806 21.8023 13.7875 22.0068 13.9042C22.2106 14.0209 22.4194 14.1667 22.6333 14.3417L23.8583 13.9042C23.9944 13.8459 24.1259 13.8459 24.2526 13.9042C24.3786 13.9625 24.4805 14.05 24.5583 14.1667L25.2583 15.3917C25.3361 15.5084 25.3653 15.6347 25.3458 15.7709C25.3264 15.907 25.2583 16.0236 25.1416 16.1209L24.15 16.9667C24.1889 17.2 24.2083 17.4431 24.2083 17.6959C24.2083 17.9486 24.1889 18.1917 24.15 18.425L25.1125 19.2709C25.2291 19.3681 25.3019 19.4847 25.3306 19.6209C25.3602 19.757 25.3361 19.8834 25.2583 20L24.5583 21.1667C24.4805 21.2834 24.3833 21.3658 24.2666 21.414C24.15 21.463 24.0236 21.4681 23.8875 21.4292L22.6333 21.05C22.4194 21.2056 22.2106 21.337 22.0068 21.4444C21.8023 21.5509 21.5833 21.6528 21.35 21.75L21.0875 23.0334C21.0486 23.1695 20.9805 23.2811 20.8833 23.3682C20.7861 23.4561 20.6694 23.5 20.5333 23.5H19.1333C18.9972 23.5 18.8805 23.4561 18.7833 23.3682C18.6861 23.2811 18.618 23.1695 18.5791 23.0334L18.3166 21.75Z" fill="black"/>
</svg>
