<svg width="24" height="24" viewBox="0 0 24 24" fill="none" xmlns="http://www.w3.org/2000/svg">
<path d="M10.8207 12.525C10.6007 12.515 10.3807 12.505 10.1507 12.505C7.7307 12.505 5.4707 13.175 3.5407 14.325C2.6607 14.845 2.1507 15.825 2.1507 16.855V18.505C2.1507 19.055 2.6007 19.505 3.1507 19.505H11.4107C10.6207 18.375 10.1507 16.995 10.1507 15.505C10.1507 14.435 10.4007 13.435 10.8207 12.525Z" fill="black"/>
<path d="M10.1507 11.505C12.3598 11.505 14.1507 9.71414 14.1507 7.505C14.1507 5.29587 12.3598 3.505 10.1507 3.505C7.94156 3.505 6.1507 5.29587 6.1507 7.505C6.1507 9.71414 7.94156 11.505 10.1507 11.505Z" fill="black"/>
<path d="M20.9007 15.505C20.9007 15.285 20.8707 15.085 20.8407 14.875L21.6807 14.145C21.8607 13.985 21.9007 13.725 21.7807 13.515L21.1907 12.495C21.0707 12.285 20.8207 12.195 20.6007 12.275L19.5407 12.635C19.2207 12.365 18.8607 12.155 18.4607 12.005L18.2407 10.915C18.1907 10.685 17.9907 10.515 17.7507 10.515H16.5707C16.3307 10.515 16.1307 10.685 16.0807 10.915L15.8607 12.005C15.4607 12.155 15.1007 12.365 14.7807 12.635L13.7207 12.275C13.4907 12.195 13.2507 12.295 13.1307 12.495L12.5407 13.515C12.4207 13.725 12.4607 13.985 12.6407 14.145L13.4807 14.875C13.4507 15.085 13.4207 15.285 13.4207 15.505C13.4207 15.725 13.4507 15.925 13.4807 16.135L12.6407 16.865C12.4607 17.025 12.4207 17.285 12.5407 17.495L13.1307 18.515C13.2507 18.725 13.5007 18.815 13.7207 18.735L14.7807 18.375C15.1007 18.645 15.4607 18.855 15.8607 19.005L16.0807 20.095C16.1307 20.325 16.3307 20.495 16.5707 20.495H17.7507C17.9907 20.495 18.1907 20.325 18.2407 20.095L18.4607 19.005C18.8607 18.855 19.2207 18.645 19.5407 18.375L20.6007 18.735C20.8307 18.815 21.0707 18.715 21.1907 18.515L21.7807 17.495C21.9007 17.285 21.8607 17.025 21.6807 16.865L20.8407 16.135C20.8707 15.925 20.9007 15.725 20.9007 15.505ZM17.1507 17.505C16.0507 17.505 15.1507 16.605 15.1507 15.505C15.1507 14.405 16.0507 13.505 17.1507 13.505C18.2507 13.505 19.1507 14.405 19.1507 15.505C19.1507 16.605 18.2507 17.505 17.1507 17.505Z" fill="black"/>
</svg>
