<svg width="24" height="24" viewBox="0 0 24 24" fill="none" xmlns="http://www.w3.org/2000/svg">
<path d="M10 12C8.9 12 7.95833 11.6083 7.175 10.825C6.39167 10.0417 6 9.1 6 8C6 6.9 6.39167 5.95833 7.175 5.175C7.95833 4.39167 8.9 4 10 4C11.1 4 12.0417 4.39167 12.825 5.175C13.6083 5.95833 14 6.9 14 8C14 9.1 13.6083 10.0417 12.825 10.825C12.0417 11.6083 11.1 12 10 12ZM3 20C2.71667 20 2.47933 19.904 2.288 19.712C2.096 19.5207 2 19.2833 2 19V17.2C2 16.65 2.14167 16.1333 2.425 15.65C2.70833 15.1667 3.1 14.8 3.6 14.55C4.45 14.1167 5.40833 13.75 6.475 13.45C7.54167 13.15 8.71667 13 10 13H10.35C10.45 13 10.55 13.0167 10.65 13.05C10.5167 13.35 10.404 13.6627 10.312 13.988C10.2207 14.3127 10.15 14.65 10.1 15H10C8.81667 15 7.754 15.15 6.812 15.45C5.87067 15.75 5.1 16.05 4.5 16.35C4.35 16.4333 4.22933 16.55 4.138 16.7C4.046 16.85 4 17.0167 4 17.2V18H10.3C10.4 18.35 10.5333 18.696 10.7 19.038C10.8667 19.3793 11.05 19.7 11.25 20H3ZM10 10C10.55 10 11.021 9.804 11.413 9.412C11.8043 9.02067 12 8.55 12 8C12 7.45 11.8043 6.97933 11.413 6.588C11.021 6.196 10.55 6 10 6C9.45 6 8.97933 6.196 8.588 6.588C8.196 6.97933 8 7.45 8 8C8 8.55 8.196 9.02067 8.588 9.412C8.97933 9.804 9.45 10 10 10ZM17 18C17.55 18 18.021 17.8043 18.413 17.413C18.8043 17.021 19 16.55 19 16C19 15.45 18.8043 14.979 18.413 14.587C18.021 14.1957 17.55 14 17 14C16.45 14 15.9793 14.1957 15.588 14.587C15.196 14.979 15 15.45 15 16C15 16.55 15.196 17.021 15.588 17.413C15.9793 17.8043 16.45 18 17 18ZM15.7 19.5C15.5 19.4167 15.3123 19.3293 15.137 19.238C14.9623 19.146 14.7833 19.0333 14.6 18.9L13.525 19.225C13.4083 19.2583 13.3 19.254 13.2 19.212C13.1 19.1707 13.0167 19.1 12.95 19L12.35 18C12.2833 17.9 12.2627 17.7917 12.288 17.675C12.3127 17.5583 12.375 17.4583 12.475 17.375L13.3 16.65C13.2667 16.4167 13.25 16.2 13.25 16C13.25 15.8 13.2667 15.5833 13.3 15.35L12.475 14.625C12.375 14.5417 12.3127 14.4417 12.288 14.325C12.2627 14.2083 12.2833 14.1 12.35 14L12.95 13C13.0167 12.9 13.1 12.829 13.2 12.787C13.3 12.7457 13.4083 12.7417 13.525 12.775L14.6 13.1C14.7833 12.9667 14.9623 12.854 15.137 12.762C15.3123 12.6707 15.5 12.5833 15.7 12.5L15.925 11.4C15.9583 11.2833 16.0167 11.1877 16.1 11.113C16.1833 11.0377 16.2833 11 16.4 11H17.6C17.7167 11 17.8167 11.0377 17.9 11.113C17.9833 11.1877 18.0417 11.2833 18.075 11.4L18.3 12.5C18.5 12.5833 18.6877 12.675 18.863 12.775C19.0377 12.875 19.2167 13 19.4 13.15L20.45 12.775C20.5667 12.725 20.6793 12.725 20.788 12.775C20.896 12.825 20.9833 12.9 21.05 13L21.65 14.05C21.7167 14.15 21.7417 14.2583 21.725 14.375C21.7083 14.4917 21.65 14.5917 21.55 14.675L20.7 15.4C20.7333 15.6 20.75 15.8083 20.75 16.025C20.75 16.2417 20.7333 16.45 20.7 16.65L21.525 17.375C21.625 17.4583 21.6873 17.5583 21.712 17.675C21.7373 17.7917 21.7167 17.9 21.65 18L21.05 19C20.9833 19.1 20.9 19.1707 20.8 19.212C20.7 19.254 20.5917 19.2583 20.475 19.225L19.4 18.9C19.2167 19.0333 19.0377 19.146 18.863 19.238C18.6877 19.3293 18.5 19.4167 18.3 19.5L18.075 20.6C18.0417 20.7167 17.9833 20.8123 17.9 20.887C17.8167 20.9623 17.7167 21 17.6 21H16.4C16.2833 21 16.1833 20.9623 16.1 20.887C16.0167 20.8123 15.9583 20.7167 15.925 20.6L15.7 19.5Z" fill="black"/>
</svg>
