<svg width="28" height="28" viewBox="0 0 28 28" fill="none" xmlns="http://www.w3.org/2000/svg">
<path d="M20.2417 20.0375L24.3834 15.8958C24.6167 15.6625 24.8889 15.5507 25.2 15.5604C25.5112 15.5701 25.7834 15.6916 26.0167 15.925C26.2306 16.1583 26.3424 16.4305 26.3521 16.7416C26.3618 17.0528 26.25 17.325 26.0167 17.5583L21.0584 22.5166C20.825 22.75 20.5528 22.8618 20.2417 22.8521C19.9306 22.8423 19.6584 22.7208 19.425 22.4875L16.9459 20.0083C16.732 19.7944 16.6202 19.5271 16.6105 19.2062C16.6007 18.8854 16.7125 18.6083 16.9459 18.375C17.1598 18.1611 17.432 18.0541 17.7625 18.0541C18.0931 18.0541 18.3653 18.1611 18.5792 18.375L20.2417 20.0375ZM7.00004 21L4.31671 23.6833C3.94726 24.0528 3.52435 24.1354 3.04796 23.9312C2.57157 23.7271 2.33337 23.3625 2.33337 22.8375V4.66665C2.33337 4.02498 2.56185 3.47567 3.01879 3.01873C3.47574 2.56179 4.02504 2.33331 4.66671 2.33331H23.3334C23.975 2.33331 24.5243 2.56179 24.9813 3.01873C25.4382 3.47567 25.6667 4.02498 25.6667 4.66665V12.8333H16.3334C15.6917 12.8333 15.1424 13.0618 14.6855 13.5187C14.2285 13.9757 14 14.525 14 15.1666V21H7.00004Z" fill="black"/>
</svg>
