<svg width="24" height="24" viewBox="0 0 24 24" fill="none" xmlns="http://www.w3.org/2000/svg">
<path d="M17.35 17.175L20.9 13.625C21.1 13.425 21.3333 13.3292 21.6 13.3375C21.8667 13.3458 22.1 13.45 22.3 13.65C22.4833 13.85 22.5792 14.0833 22.5875 14.35C22.5958 14.6167 22.5 14.85 22.3 15.05L18.05 19.3C17.85 19.5 17.6167 19.5958 17.35 19.5875C17.0833 19.5792 16.85 19.475 16.65 19.275L14.525 17.15C14.3417 16.9667 14.2458 16.7375 14.2375 16.4625C14.2292 16.1875 14.325 15.95 14.525 15.75C14.7083 15.5667 14.9417 15.475 15.225 15.475C15.5083 15.475 15.7417 15.5667 15.925 15.75L17.35 17.175ZM6 18L3.7 20.3C3.38333 20.6167 3.02083 20.6875 2.6125 20.5125C2.20417 20.3375 2 20.025 2 19.575V4C2 3.45 2.19583 2.97917 2.5875 2.5875C2.97917 2.19583 3.45 2 4 2H20C20.55 2 21.0208 2.19583 21.4125 2.5875C21.8042 2.97917 22 3.45 22 4V11H14C13.45 11 12.9792 11.1958 12.5875 11.5875C12.1958 11.9792 12 12.45 12 13V18H6Z" fill="black"/>
</svg>
