<svg width="16" height="16" viewBox="0 0 16 16" fill="none" xmlns="http://www.w3.org/2000/svg">
<path d="M3.99998 12L2.46665 13.5333C2.25554 13.7444 2.01387 13.7917 1.74165 13.675C1.46942 13.5583 1.33331 13.35 1.33331 13.05V2.66667C1.33331 2.3 1.46387 1.98611 1.72498 1.725C1.98609 1.46389 2.29998 1.33333 2.66665 1.33333H9.39998C9.35553 1.55556 9.33331 1.77778 9.33331 2C9.33331 2.22222 9.35553 2.44444 9.39998 2.66667H2.66665V10.6667H13.3333V5.26667C13.5889 5.21111 13.8278 5.13611 14.05 5.04167C14.2722 4.94722 14.4778 4.82222 14.6666 4.66667V10.6667C14.6666 11.0333 14.5361 11.3472 14.275 11.6083C14.0139 11.8694 13.7 12 13.3333 12H3.99998ZM12.6666 4C12.1111 4 11.6389 3.80556 11.25 3.41667C10.8611 3.02778 10.6666 2.55556 10.6666 2C10.6666 1.44444 10.8611 0.972222 11.25 0.583333C11.6389 0.194444 12.1111 0 12.6666 0C13.2222 0 13.6944 0.194444 14.0833 0.583333C14.4722 0.972222 14.6666 1.44444 14.6666 2C14.6666 2.55556 14.4722 3.02778 14.0833 3.41667C13.6944 3.80556 13.2222 4 12.6666 4Z" fill="black"/>
</svg>
