<svg width="28" height="28" viewBox="0 0 28 28" fill="none" xmlns="http://www.w3.org/2000/svg">
<path d="M18.609 25.6665L13.6507 20.7082L15.284 19.0748L18.609 22.3998L25.2007 15.8082L26.834 17.4415L18.609 25.6665ZM14.0007 12.8332L23.334 6.99984H4.66732L14.0007 12.8332ZM14.0007 15.1665L4.66732 9.33317V20.9998H10.6757L13.009 23.3332H4.66732C4.02565 23.3332 3.47635 23.1047 3.0194 22.6478C2.56246 22.1908 2.33398 21.6415 2.33398 20.9998V6.99984C2.33398 6.35817 2.56246 5.80887 3.0194 5.35192C3.47635 4.89498 4.02565 4.6665 4.66732 4.6665H23.334C23.9757 4.6665 24.525 4.89498 24.9819 5.35192C25.4388 5.80887 25.6673 6.35817 25.6673 6.99984V12.0748L23.334 14.4082V9.33317L14.0007 15.1665Z" fill="#6E6E6E"/>
</svg>
