<svg width="24" height="24" viewBox="0 0 24 24" fill="none" xmlns="http://www.w3.org/2000/svg">
<path d="M17.35 18.175L20.9 14.625C21.1 14.425 21.3333 14.3292 21.6 14.3375C21.8667 14.3458 22.1 14.45 22.3 14.65C22.4833 14.85 22.5792 15.0833 22.5875 15.35C22.5958 15.6167 22.5 15.85 22.3 16.05L18.05 20.3C17.85 20.5 17.6167 20.6 17.35 20.6C17.0833 20.6 16.85 20.5 16.65 20.3L14.525 18.15C14.3417 17.9667 14.2458 17.7375 14.2375 17.4625C14.2292 17.1875 14.325 16.95 14.525 16.75C14.7083 16.5667 14.9417 16.475 15.225 16.475C15.5083 16.475 15.7417 16.5667 15.925 16.75L17.35 18.175ZM6 19L3.7 21.3C3.38333 21.6167 3.02083 21.6875 2.6125 21.5125C2.20417 21.3375 2 21.025 2 20.575V5C2 4.45 2.19583 3.97917 2.5875 3.5875C2.97917 3.19583 3.45 3 4 3H20C20.55 3 21.0208 3.19583 21.4125 3.5875C21.8042 3.97917 22 4.45 22 5V11C22 11.2833 21.9042 11.5208 21.7125 11.7125C21.5208 11.9042 21.2833 12 21 12C20.7167 12 20.4792 11.9042 20.2875 11.7125C20.0958 11.5208 20 11.2833 20 11V5H4V18.125L5.15 17H11C11.2833 17 11.5208 17.0958 11.7125 17.2875C11.9042 17.4792 12 17.7167 12 18C12 18.2833 11.9042 18.5208 11.7125 18.7125C11.5208 18.9042 11.2833 19 11 19H6Z" fill="black"/>
</svg>
