<svg width="16" height="16" viewBox="0 0 16 16" fill="none" xmlns="http://www.w3.org/2000/svg">
<path d="M10.634 14.6665L7.80065 11.8332L8.73398 10.8998L10.634 12.7998L14.4007 9.03317L15.334 9.9665L10.634 14.6665ZM8.00065 7.33317L13.334 3.99984H2.66732L8.00065 7.33317ZM8.00065 8.6665L2.66732 5.33317V11.9998H6.10065L7.43398 13.3332H2.66732C2.30065 13.3332 1.98676 13.2026 1.72565 12.9415C1.46454 12.6804 1.33398 12.3665 1.33398 11.9998V3.99984C1.33398 3.63317 1.46454 3.31928 1.72565 3.05817C1.98676 2.79706 2.30065 2.6665 2.66732 2.6665H13.334C13.7007 2.6665 14.0145 2.79706 14.2757 3.05817C14.5368 3.31928 14.6673 3.63317 14.6673 3.99984V6.89984L13.334 8.23317V5.33317L8.00065 8.6665Z" fill="#6E6E6E"/>
</svg>
