<svg width="16" height="16" viewBox="0 0 16 16" fill="none" xmlns="http://www.w3.org/2000/svg">
<path d="M11.5666 11.45L13.9333 9.08331C14.0666 8.94998 14.2222 8.88609 14.4 8.89165C14.5778 8.8972 14.7333 8.96665 14.8666 9.09998C14.9889 9.23331 15.0528 9.38887 15.0583 9.56665C15.0639 9.74442 15 9.89998 14.8666 10.0333L12.0333 12.8666C11.9 13 11.7444 13.0666 11.5666 13.0666C11.3889 13.0666 11.2333 13 11.1 12.8666L9.68331 11.4333C9.56109 11.3111 9.4972 11.1583 9.49165 10.975C9.48609 10.7916 9.54998 10.6333 9.68331 10.5C9.80554 10.3778 9.96109 10.3166 10.15 10.3166C10.3389 10.3166 10.4944 10.3778 10.6166 10.5L11.5666 11.45ZM3.99998 12L2.46665 13.5333C2.25554 13.7444 2.01387 13.7916 1.74165 13.675C1.46942 13.5583 1.33331 13.35 1.33331 13.05V2.66665C1.33331 2.29998 1.46387 1.98609 1.72498 1.72498C1.98609 1.46387 2.29998 1.33331 2.66665 1.33331H13.3333C13.7 1.33331 14.0139 1.46387 14.275 1.72498C14.5361 1.98609 14.6666 2.29998 14.6666 2.66665V6.66665C14.6666 6.85553 14.6028 7.01387 14.475 7.14165C14.3472 7.26942 14.1889 7.33331 14 7.33331C13.8111 7.33331 13.6528 7.26942 13.525 7.14165C13.3972 7.01387 13.3333 6.85553 13.3333 6.66665V2.66665H2.66665V11.4166L3.43331 10.6666H7.33331C7.5222 10.6666 7.68054 10.7305 7.80831 10.8583C7.93609 10.9861 7.99998 11.1444 7.99998 11.3333C7.99998 11.5222 7.93609 11.6805 7.80831 11.8083C7.68054 11.9361 7.5222 12 7.33331 12H3.99998Z" fill="black"/>
</svg>
