<svg width="24" height="24" viewBox="0 0 24 24" fill="none" xmlns="http://www.w3.org/2000/svg">
<g clip-path="url(#clip0_57_242)">
<path d="M19 6C18.1667 6 17.4583 5.70833 16.875 5.125C16.2917 4.54167 16 3.83333 16 3C16 2.16667 16.2917 1.45833 16.875 0.875C17.4583 0.291667 18.1667 0 19 0C19.8333 0 20.5417 0.291667 21.125 0.875C21.7083 1.45833 22 2.16667 22 3C22 3.83333 21.7083 4.54167 21.125 5.125C20.5417 5.70833 19.8333 6 19 6ZM6 18L3.7 20.3C3.38333 20.6167 3.02083 20.6875 2.6125 20.5125C2.20417 20.3375 2 20.025 2 19.575V4C2 3.45 2.19583 2.97917 2.5875 2.5875C2.97917 2.19583 3.45 2 4 2H14.1C14.0333 2.33333 14 2.66667 14 3C14 3.33333 14.0333 3.66667 14.1 4C14.3333 5.15 14.9083 6.10417 15.825 6.8625C16.7417 7.62083 17.8 8 19 8C19.5333 8 20.0583 7.91667 20.575 7.75C21.0917 7.58333 21.5667 7.33333 22 7V16C22 16.55 21.8042 17.0208 21.4125 17.4125C21.0208 17.8042 20.55 18 20 18H6Z" fill="black"/>
</g>
<defs>
<clipPath id="clip0_57_242">
<rect width="24" height="24" fill="white"/>
</clipPath>
</defs>
</svg>
