<svg width="16" height="16" viewBox="0 0 16 16" fill="none" xmlns="http://www.w3.org/2000/svg">
<g clip-path="url(#clip0_57_257)">
<path d="M12.6667 4C12.1112 4 11.6389 3.80556 11.25 3.41667C10.8612 3.02778 10.6667 2.55556 10.6667 2C10.6667 1.44444 10.8612 0.972222 11.25 0.583333C11.6389 0.194444 12.1112 0 12.6667 0C13.2223 0 13.6945 0.194444 14.0834 0.583333C14.4723 0.972222 14.6667 1.44444 14.6667 2C14.6667 2.55556 14.4723 3.02778 14.0834 3.41667C13.6945 3.80556 13.2223 4 12.6667 4ZM4.00004 12L2.46671 13.5333C2.2556 13.7444 2.01393 13.7917 1.74171 13.675C1.46949 13.5583 1.33337 13.35 1.33337 13.05V2.66667C1.33337 2.3 1.46393 1.98611 1.72504 1.725C1.98615 1.46389 2.30004 1.33333 2.66671 1.33333H9.40004C9.3556 1.55556 9.33337 1.77778 9.33337 2C9.33337 2.22222 9.3556 2.44444 9.40004 2.66667C9.5556 3.43333 9.93893 4.06944 10.55 4.575C11.1612 5.08056 11.8667 5.33333 12.6667 5.33333C13.0223 5.33333 13.3723 5.27778 13.7167 5.16667C14.0612 5.05556 14.3778 4.88889 14.6667 4.66667V10.6667C14.6667 11.0333 14.5362 11.3472 14.275 11.6083C14.0139 11.8694 13.7 12 13.3334 12H4.00004Z" fill="black"/>
</g>
<defs>
<clipPath id="clip0_57_257">
<rect width="16" height="16" fill="white"/>
</clipPath>
</defs>
</svg>
