<svg width="16" height="16" viewBox="0 0 16 16" fill="none" xmlns="http://www.w3.org/2000/svg">
<path d="M11.5667 11.45L13.9334 9.08331C14.0667 8.94998 14.2223 8.88609 14.4 8.89165C14.5778 8.8972 14.7334 8.96665 14.8667 9.09998C14.9889 9.23331 15.0528 9.38887 15.0584 9.56665C15.0639 9.74442 15 9.89998 14.8667 10.0333L12.0334 12.8666C11.9 13 11.7445 13.0639 11.5667 13.0583C11.3889 13.0528 11.2334 12.9833 11.1 12.85L9.68337 11.4333C9.56115 11.3111 9.49726 11.1583 9.49171 10.975C9.48615 10.7916 9.55004 10.6333 9.68337 10.5C9.8056 10.3778 9.96115 10.3166 10.15 10.3166C10.3389 10.3166 10.4945 10.3778 10.6167 10.5L11.5667 11.45ZM4.00004 12L2.46671 13.5333C2.2556 13.7444 2.01393 13.7916 1.74171 13.675C1.46949 13.5583 1.33337 13.35 1.33337 13.05V2.66665C1.33337 2.29998 1.46393 1.98609 1.72504 1.72498C1.98615 1.46387 2.30004 1.33331 2.66671 1.33331H13.3334C13.7 1.33331 14.0139 1.46387 14.275 1.72498C14.5362 1.98609 14.6667 2.29998 14.6667 2.66665V7.33331H9.33337C8.96671 7.33331 8.65282 7.46387 8.39171 7.72498C8.1306 7.98609 8.00004 8.29998 8.00004 8.66665V12H4.00004Z" fill="black"/>
</svg>
