<svg width="28" height="28" viewBox="0 0 28 28" fill="none" xmlns="http://www.w3.org/2000/svg">
<path d="M7.00001 21L4.31668 23.6833C3.94723 24.0528 3.52432 24.1354 3.04793 23.9313C2.57154 23.7271 2.33334 23.3625 2.33334 22.8375V4.66667C2.33334 4.025 2.56182 3.47569 3.01876 3.01875C3.4757 2.56181 4.02501 2.33333 4.66668 2.33333H16.45C16.3722 2.72222 16.3333 3.11111 16.3333 3.5C16.3333 3.88889 16.3722 4.27778 16.45 4.66667H4.66668V18.6667H23.3333V9.21667C23.7806 9.11944 24.1986 8.98819 24.5875 8.82292C24.9764 8.65764 25.3361 8.43889 25.6667 8.16667V18.6667C25.6667 19.3083 25.4382 19.8576 24.9813 20.3146C24.5243 20.7715 23.975 21 23.3333 21H7.00001ZM22.1667 7C21.1945 7 20.3681 6.65972 19.6875 5.97917C19.007 5.29861 18.6667 4.47222 18.6667 3.5C18.6667 2.52778 19.007 1.70139 19.6875 1.02083C20.3681 0.340278 21.1945 0 22.1667 0C23.1389 0 23.9653 0.340278 24.6458 1.02083C25.3264 1.70139 25.6667 2.52778 25.6667 3.5C25.6667 4.47222 25.3264 5.29861 24.6458 5.97917C23.9653 6.65972 23.1389 7 22.1667 7Z" fill="black"/>
</svg>
