<svg width="28" height="28" viewBox="0 0 28 28" fill="none" xmlns="http://www.w3.org/2000/svg">
<g clip-path="url(#clip0_57_269)">
<path d="M22.1667 7C21.1945 7 20.3681 6.65972 19.6875 5.97917C19.007 5.29861 18.6667 4.47222 18.6667 3.5C18.6667 2.52778 19.007 1.70139 19.6875 1.02083C20.3681 0.340278 21.1945 0 22.1667 0C23.1389 0 23.9653 0.340278 24.6459 1.02083C25.3264 1.70139 25.6667 2.52778 25.6667 3.5C25.6667 4.47222 25.3264 5.29861 24.6459 5.97917C23.9653 6.65972 23.1389 7 22.1667 7ZM7.00004 21L4.31671 23.6833C3.94726 24.0528 3.52435 24.1354 3.04796 23.9312C2.57157 23.7271 2.33337 23.3625 2.33337 22.8375V4.66667C2.33337 4.025 2.56185 3.47569 3.01879 3.01875C3.47574 2.56181 4.02504 2.33333 4.66671 2.33333H16.45C16.3723 2.72222 16.3334 3.11111 16.3334 3.5C16.3334 3.88889 16.3723 4.27778 16.45 4.66667C16.7223 6.00833 17.3931 7.12153 18.4625 8.00625C19.532 8.89097 20.7667 9.33333 22.1667 9.33333C22.7889 9.33333 23.4014 9.23611 24.0042 9.04167C24.607 8.84722 25.1612 8.55556 25.6667 8.16667V18.6667C25.6667 19.3083 25.4382 19.8576 24.9813 20.3146C24.5243 20.7715 23.975 21 23.3334 21H7.00004Z" fill="black"/>
</g>
<defs>
<clipPath id="clip0_57_269">
<rect width="28" height="28" fill="white"/>
</clipPath>
</defs>
</svg>
