<svg width="28" height="28" viewBox="0 0 28 28" fill="none" xmlns="http://www.w3.org/2000/svg">
<path d="M20.2416 20.0375L24.3833 15.8958C24.6166 15.6625 24.8889 15.5507 25.2 15.5604C25.5111 15.5701 25.7833 15.6916 26.0166 15.925C26.2305 16.1583 26.3423 16.4305 26.3521 16.7416C26.3618 17.0528 26.25 17.325 26.0166 17.5583L21.0583 22.5166C20.825 22.75 20.5528 22.8666 20.2416 22.8666C19.9305 22.8666 19.6583 22.75 19.425 22.5166L16.9458 20.0083C16.7319 19.7944 16.6201 19.5271 16.6104 19.2062C16.6007 18.8854 16.7125 18.6083 16.9458 18.375C17.1597 18.1611 17.4319 18.0541 17.7625 18.0541C18.093 18.0541 18.3653 18.1611 18.5791 18.375L20.2416 20.0375ZM6.99998 21L4.31665 23.6833C3.9472 24.0528 3.52429 24.1354 3.0479 23.9312C2.57151 23.7271 2.33331 23.3625 2.33331 22.8375V4.66665C2.33331 4.02498 2.56179 3.47567 3.01873 3.01873C3.47567 2.56179 4.02498 2.33331 4.66665 2.33331H23.3333C23.975 2.33331 24.5243 2.56179 24.9812 3.01873C25.4382 3.47567 25.6666 4.02498 25.6666 4.66665V11.6666C25.6666 11.9972 25.5548 12.2743 25.3312 12.4979C25.1076 12.7215 24.8305 12.8333 24.5 12.8333C24.1694 12.8333 23.8923 12.7215 23.6687 12.4979C23.4451 12.2743 23.3333 11.9972 23.3333 11.6666V4.66665H4.66665V19.9791L6.00831 18.6666H12.8333C13.1639 18.6666 13.441 18.7785 13.6646 19.0021C13.8882 19.2257 14 19.5028 14 19.8333C14 20.1639 13.8882 20.441 13.6646 20.6646C13.441 20.8882 13.1639 21 12.8333 21H6.99998Z" fill="black"/>
</svg>
