<svg width="28" height="28" viewBox="0 0 28 28" fill="none" xmlns="http://www.w3.org/2000/svg">
<path d="M14 25.8708C12.3667 25.8708 10.8306 25.5597 9.39168 24.9375C7.95279 24.3153 6.69357 23.4648 5.61401 22.386C4.53524 21.3064 3.68474 20.0472 3.06251 18.6083C2.44029 17.1694 2.12918 15.6333 2.12918 14C2.12918 12.3667 2.44029 10.8305 3.06251 9.39165C3.68474 7.95276 4.53524 6.69354 5.61401 5.61398C6.69357 4.53521 7.95279 3.68471 9.39168 3.06248C10.8306 2.44026 12.3667 2.12915 14 2.12915C15.6333 2.12915 17.1695 2.44026 18.6083 3.06248C20.0472 3.68471 21.3065 4.53521 22.386 5.61398C23.4648 6.69354 24.3153 7.95276 24.9375 9.39165C25.5597 10.8305 25.8708 12.3667 25.8708 14V15.6916C25.8708 16.8972 25.4676 17.9083 24.661 18.725C23.8537 19.5416 22.8472 19.95 21.6417 19.95C20.9222 19.95 20.2561 19.7898 19.6432 19.4693C19.0311 19.1481 18.5306 18.725 18.1417 18.2C17.6361 18.7444 17.0287 19.1722 16.3193 19.4833C15.6092 19.7944 14.8361 19.95 14 19.95C12.3667 19.95 10.9667 19.3717 9.80001 18.2151C8.63335 17.0578 8.05001 15.6528 8.05001 14C8.05001 12.3667 8.63335 10.9666 9.80001 9.79998C10.9667 8.63332 12.3667 8.04998 14 8.04998C15.6528 8.04998 17.0578 8.62826 18.2152 9.78482C19.3717 10.9422 19.95 12.3472 19.95 14V15.6333C19.95 16.1778 20.1153 16.6055 20.4458 16.9167C20.7764 17.2278 21.175 17.3833 21.6417 17.3833C22.0889 17.3833 22.4825 17.2278 22.8223 16.9167C23.163 16.6055 23.3333 16.1778 23.3333 15.6333V14C23.3333 11.4528 22.4144 9.26021 20.5765 7.42232C18.7394 5.58521 16.5472 4.66665 14 4.66665C11.4528 4.66665 9.26024 5.58521 7.42235 7.42232C5.58524 9.26021 4.66668 11.4528 4.66668 14C4.66668 16.5472 5.58524 18.7394 7.42235 20.5765C9.26024 22.4144 11.4528 23.3333 14 23.3333H18.55C18.9195 23.3333 19.2259 23.4546 19.4693 23.6973C19.712 23.9408 19.8333 24.2472 19.8333 24.6166C19.8333 24.9666 19.712 25.2634 19.4693 25.5068C19.2259 25.7495 18.9195 25.8708 18.55 25.8708H14ZM14 17.3833C14.9333 17.3833 15.7306 17.0528 16.3917 16.3917C17.0528 15.7305 17.3833 14.9333 17.3833 14C17.3833 13.0667 17.0528 12.2694 16.3917 11.6083C15.7306 10.9472 14.9333 10.6167 14 10.6167C13.0667 10.6167 12.2695 10.9472 11.6083 11.6083C10.9472 12.2694 10.6167 13.0667 10.6167 14C10.6167 14.9333 10.9472 15.7305 11.6083 16.3917C12.2695 17.0528 13.0667 17.3833 14 17.3833Z" fill="black"/>
</svg>
