<svg width="16" height="16" viewBox="0 0 16 16" fill="none" xmlns="http://www.w3.org/2000/svg">
<path d="M8.00001 14.7833C7.06668 14.7833 6.1889 14.6056 5.36668 14.25C4.54445 13.8945 3.8249 13.4085 3.20801 12.792C2.59156 12.1751 2.10556 11.4556 1.75001 10.6333C1.39445 9.81112 1.21667 8.93334 1.21667 8.00001C1.21667 7.06668 1.39445 6.1889 1.75001 5.36668C2.10556 4.54445 2.59156 3.8249 3.20801 3.20801C3.8249 2.59156 4.54445 2.10556 5.36668 1.75001C6.1889 1.39445 7.06668 1.21667 8.00001 1.21667C8.93334 1.21667 9.81112 1.39445 10.6333 1.75001C11.4556 2.10556 12.1751 2.59156 12.792 3.20801C13.4085 3.8249 13.8945 4.54445 14.25 5.36668C14.6056 6.1889 14.7833 7.06668 14.7833 8.00001V8.96668C14.7833 9.65556 14.5529 10.2333 14.092 10.7C13.6307 11.1667 13.0556 11.4 12.3667 11.4C11.9556 11.4 11.5749 11.3085 11.2247 11.1253C10.8749 10.9418 10.5889 10.7 10.3667 10.4C10.0778 10.7111 9.73068 10.9556 9.32534 11.1333C8.91956 11.3111 8.47779 11.4 8.00001 11.4C7.06668 11.4 6.26667 11.0696 5.60001 10.4087C4.93334 9.74734 4.60001 8.94445 4.60001 8.00001C4.60001 7.06668 4.93334 6.26667 5.60001 5.60001C6.26667 4.93334 7.06668 4.60001 8.00001 4.60001C8.94445 4.60001 9.74734 4.93045 10.4087 5.59134C11.0696 6.25268 11.4 7.05556 11.4 8.00001V8.93334C11.4 9.24445 11.4945 9.4889 11.6833 9.66668C11.8722 9.84445 12.1 9.93334 12.3667 9.93334C12.6222 9.93334 12.8471 9.84445 13.0413 9.66668C13.236 9.4889 13.3333 9.24445 13.3333 8.93334V8.00001C13.3333 6.54445 12.8082 5.29156 11.758 4.24134C10.7082 3.19156 9.45556 2.66667 8.00001 2.66667C6.54445 2.66667 5.29156 3.19156 4.24134 4.24134C3.19156 5.29156 2.66667 6.54445 2.66667 8.00001C2.66667 9.45556 3.19156 10.7082 4.24134 11.758C5.29156 12.8082 6.54445 13.3333 8.00001 13.3333H10.6C10.8111 13.3333 10.9862 13.4027 11.1253 13.5413C11.264 13.6805 11.3333 13.8556 11.3333 14.0667C11.3333 14.2667 11.264 14.4362 11.1253 14.5753C10.9862 14.714 10.8111 14.7833 10.6 14.7833H8.00001ZM8.00001 9.93334C8.53334 9.93334 8.9889 9.74445 9.36668 9.36668C9.74445 8.9889 9.93334 8.53334 9.93334 8.00001C9.93334 7.46668 9.74445 7.01112 9.36668 6.63334C8.9889 6.25556 8.53334 6.06668 8.00001 6.06668C7.46668 6.06668 7.01112 6.25556 6.63334 6.63334C6.25556 7.01112 6.06668 7.46668 6.06668 8.00001C6.06668 8.53334 6.25556 8.9889 6.63334 9.36668C7.01112 9.74445 7.46668 9.93334 8.00001 9.93334Z" fill="black"/>
</svg>
