<svg width="24" height="24" viewBox="0 0 24 24" fill="none" xmlns="http://www.w3.org/2000/svg">
<path d="M12 22.175C10.6 22.175 9.28335 21.9083 8.05001 21.375C6.81668 20.8417 5.73735 20.1127 4.81201 19.188C3.88735 18.2627 3.15835 17.1833 2.62501 15.95C2.09168 14.7167 1.82501 13.4 1.82501 12C1.82501 10.6 2.09168 9.28335 2.62501 8.05001C3.15835 6.81668 3.88735 5.73735 4.81201 4.81201C5.73735 3.88735 6.81668 3.15835 8.05001 2.62501C9.28335 2.09168 10.6 1.82501 12 1.82501C13.4 1.82501 14.7167 2.09168 15.95 2.62501C17.1833 3.15835 18.2627 3.88735 19.188 4.81201C20.1127 5.73735 20.8417 6.81668 21.375 8.05001C21.9083 9.28335 22.175 10.6 22.175 12V13.45C22.175 14.4833 21.8293 15.35 21.138 16.05C20.446 16.75 19.5833 17.1 18.55 17.1C17.9333 17.1 17.3623 16.9627 16.837 16.688C16.3123 16.4127 15.8833 16.05 15.55 15.6C15.1167 16.0667 14.596 16.4333 13.988 16.7C13.3793 16.9667 12.7167 17.1 12 17.1C10.6 17.1 9.40001 16.6043 8.40001 15.613C7.40001 14.621 6.90001 13.4167 6.90001 12C6.90001 10.6 7.40001 9.40001 8.40001 8.40001C9.40001 7.40001 10.6 6.90001 12 6.90001C13.4167 6.90001 14.621 7.39568 15.613 8.38701C16.6043 9.37901 17.1 10.5833 17.1 12V13.4C17.1 13.8667 17.2417 14.2333 17.525 14.5C17.8083 14.7667 18.15 14.9 18.55 14.9C18.9333 14.9 19.2707 14.7667 19.562 14.5C19.854 14.2333 20 13.8667 20 13.4V12C20 9.81668 19.2123 7.93735 17.637 6.36201C16.0623 4.78735 14.1833 4.00001 12 4.00001C9.81668 4.00001 7.93735 4.78735 6.36201 6.36201C4.78735 7.93735 4.00001 9.81668 4.00001 12C4.00001 14.1833 4.78735 16.0623 6.36201 17.637C7.93735 19.2123 9.81668 20 12 20H15.9C16.2167 20 16.4793 20.104 16.688 20.312C16.896 20.5207 17 20.7833 17 21.1C17 21.4 16.896 21.6543 16.688 21.863C16.4793 22.071 16.2167 22.175 15.9 22.175H12ZM12 14.9C12.8 14.9 13.4833 14.6167 14.05 14.05C14.6167 13.4833 14.9 12.8 14.9 12C14.9 11.2 14.6167 10.5167 14.05 9.95001C13.4833 9.38335 12.8 9.10001 12 9.10001C11.2 9.10001 10.5167 9.38335 9.95001 9.95001C9.38335 10.5167 9.10001 11.2 9.10001 12C9.10001 12.8 9.38335 13.4833 9.95001 14.05C10.5167 14.6167 11.2 14.9 12 14.9Z" fill="black"/>
</svg>
