<svg width="16" height="16" viewBox="0 0 16 16" fill="none" xmlns="http://www.w3.org/2000/svg">
<path d="M5.8335 3.3335C5.9661 3.3335 6.09328 3.38617 6.18705 3.47994C6.28082 3.57371 6.3335 3.70089 6.3335 3.8335V5.8335C6.3335 5.9661 6.28082 6.09328 6.18705 6.18705C6.09328 6.28082 5.9661 6.3335 5.8335 6.3335H3.8335C3.70089 6.3335 3.57371 6.28082 3.47994 6.18705C3.38617 6.09328 3.3335 5.9661 3.3335 5.8335V3.8335C3.3335 3.70089 3.38617 3.57371 3.47994 3.47994C3.57371 3.38617 3.70089 3.3335 3.8335 3.3335H5.8335ZM5.8335 2.3335H3.8335C3.43567 2.3335 3.05414 2.49153 2.77284 2.77284C2.49153 3.05414 2.3335 3.43567 2.3335 3.8335V5.8335C2.3335 6.23132 2.49153 6.61285 2.77284 6.89416C3.05414 7.17546 3.43567 7.3335 3.8335 7.3335H5.8335C6.23132 7.3335 6.61285 7.17546 6.89416 6.89416C7.17546 6.61285 7.3335 6.23132 7.3335 5.8335V3.8335C7.3335 3.43567 7.17546 3.05414 6.89416 2.77284C6.61285 2.49153 6.23132 2.3335 5.8335 2.3335Z" fill="black"/>
<path d="M12.1665 3.3335C12.2991 3.3335 12.4263 3.38617 12.5201 3.47994C12.6138 3.57371 12.6665 3.70089 12.6665 3.8335V5.8335C12.6665 5.9661 12.6138 6.09328 12.5201 6.18705C12.4263 6.28082 12.2991 6.3335 12.1665 6.3335H10.1665C10.0339 6.3335 9.90671 6.28082 9.81294 6.18705C9.71917 6.09328 9.6665 5.9661 9.6665 5.8335V3.8335C9.6665 3.70089 9.71917 3.57371 9.81294 3.47994C9.90671 3.38617 10.0339 3.3335 10.1665 3.3335H12.1665ZM12.1665 2.3335H10.1665C9.76867 2.3335 9.38714 2.49153 9.10584 2.77284C8.82453 3.05414 8.6665 3.43567 8.6665 3.8335V5.8335C8.6665 6.23132 8.82453 6.61285 9.10584 6.89416C9.38714 7.17546 9.76867 7.3335 10.1665 7.3335H12.1665C12.5643 7.3335 12.9459 7.17546 13.2272 6.89416C13.5085 6.61285 13.6665 6.23132 13.6665 5.8335V3.8335C13.6665 3.43567 13.5085 3.05414 13.2272 2.77284C12.9459 2.49153 12.5643 2.3335 12.1665 2.3335Z" fill="black"/>
<path d="M5.8335 9.6665C5.9661 9.6665 6.09328 9.71917 6.18705 9.81294C6.28082 9.90671 6.3335 10.0339 6.3335 10.1665V12.1665C6.3335 12.2991 6.28082 12.4263 6.18705 12.5201C6.09328 12.6138 5.9661 12.6665 5.8335 12.6665H3.8335C3.70089 12.6665 3.57371 12.6138 3.47994 12.5201C3.38617 12.4263 3.3335 12.2991 3.3335 12.1665V10.1665C3.3335 10.0339 3.38617 9.90671 3.47994 9.81294C3.57371 9.71917 3.70089 9.6665 3.8335 9.6665H5.8335ZM5.8335 8.6665H3.8335C3.43567 8.6665 3.05414 8.82453 2.77284 9.10584C2.49153 9.38714 2.3335 9.76867 2.3335 10.1665V12.1665C2.3335 12.5643 2.49153 12.9459 2.77284 13.2272C3.05414 13.5085 3.43567 13.6665 3.8335 13.6665H5.8335C6.23132 13.6665 6.61285 13.5085 6.89416 13.2272C7.17546 12.9459 7.3335 12.5643 7.3335 12.1665V10.1665C7.3335 9.76867 7.17546 9.38714 6.89416 9.10584C6.61285 8.82453 6.23132 8.6665 5.8335 8.6665Z" fill="black"/>
<path d="M12.0835 9.6665C12.2161 9.6665 12.3433 9.71917 12.437 9.81294C12.5308 9.90671 12.5835 10.0339 12.5835 10.1665V12.083C12.5835 12.2156 12.5308 12.3428 12.437 12.4365C12.3433 12.5303 12.2161 12.583 12.0835 12.583H10.167C10.0344 12.583 9.90721 12.5303 9.81344 12.4365C9.71967 12.3428 9.667 12.2156 9.667 12.083V10.1665C9.667 10.0339 9.71967 9.90671 9.81344 9.81294C9.90721 9.71917 10.0344 9.6665 10.167 9.6665H12.0835ZM12.0835 8.6665H10.167C9.76917 8.6665 9.38764 8.82453 9.10634 9.10584C8.82503 9.38714 8.667 9.76867 8.667 10.1665V12.083C8.667 12.4808 8.82503 12.8624 9.10634 13.1437C9.38764 13.425 9.76917 13.583 10.167 13.583H12.0835C12.4813 13.583 12.8629 13.425 13.1442 13.1437C13.4255 12.8624 13.5835 12.4808 13.5835 12.083V10.1665C13.5835 9.76867 13.4255 9.38714 13.1442 9.10584C12.8629 8.82453 12.4813 8.6665 12.0835 8.6665Z" fill="black"/>
</svg>
