<svg width="16" height="16" viewBox="0 0 16 16" fill="none" xmlns="http://www.w3.org/2000/svg">
<path fill-rule="evenodd" clip-rule="evenodd" d="M6 3.33333H3.33333V6H6V3.33333ZM3.33333 2C2.59695 2 2 2.59695 2 3.33333V6C2 6.73638 2.59695 7.33333 3.33333 7.33333H6C6.73638 7.33333 7.33333 6.73638 7.33333 6V3.33333C7.33333 2.59695 6.73638 2 6 2H3.33333Z" fill="black"/>
<path fill-rule="evenodd" clip-rule="evenodd" d="M6 10H3.33333V12.6667H6V10ZM3.33333 8.66667C2.59695 8.66667 2 9.26362 2 10V12.6667C2 13.403 2.59695 14 3.33333 14H6C6.73638 14 7.33333 13.403 7.33333 12.6667V10C7.33333 9.26362 6.73638 8.66667 6 8.66667H3.33333Z" fill="black"/>
<path fill-rule="evenodd" clip-rule="evenodd" d="M12.6667 3.33333H10V6H12.6667V3.33333ZM10 2C9.26362 2 8.66667 2.59695 8.66667 3.33333V6C8.66667 6.73638 9.26362 7.33333 10 7.33333H12.6667C13.403 7.33333 14 6.73638 14 6V3.33333C14 2.59695 13.403 2 12.6667 2H10Z" fill="black"/>
<path fill-rule="evenodd" clip-rule="evenodd" d="M12.6667 10H10V12.6667H12.6667V10ZM10 8.66667C9.26362 8.66667 8.66667 9.26362 8.66667 10V12.6667C8.66667 13.403 9.26362 14 10 14H12.6667C13.403 14 14 13.403 14 12.6667V10C14 9.26362 13.403 8.66667 12.6667 8.66667H10Z" fill="black"/>
</svg>
