<svg width="16" height="16" viewBox="0 0 16 16" fill="none" xmlns="http://www.w3.org/2000/svg">
<path d="M7 3.8335V5.5C7 5.89782 6.84196 6.27935 6.56066 6.56066C6.27935 6.84196 5.89782 7 5.5 7H3.8335C3.43567 7 3.05414 6.84196 2.77284 6.56066C2.49153 6.27935 2.3335 5.89782 2.3335 5.5V3.8335C2.3335 3.43567 2.49153 3.05414 2.77284 2.77284C3.05414 2.49153 3.43567 2.3335 3.8335 2.3335H5.5C5.89782 2.3335 6.27935 2.49153 6.56066 2.77284C6.84196 3.05414 7 3.43567 7 3.8335Z" fill="black"/>
<path d="M12.1665 7H10.5C10.1022 7 9.72064 6.84196 9.43934 6.56066C9.15803 6.27935 9 5.89782 9 5.5V3.8335C9 3.43567 9.15803 3.05414 9.43934 2.77284C9.72064 2.49153 10.1022 2.3335 10.5 2.3335H12.1665C12.5643 2.3335 12.9459 2.49153 13.2272 2.77284C13.5085 3.05414 13.6665 3.43567 13.6665 3.8335V5.5C13.6665 5.89782 13.5085 6.27935 13.2272 6.56066C12.9459 6.84196 12.5643 7 12.1665 7Z" fill="black"/>
<path d="M5.5 13.6665H3.8335C3.43567 13.6665 3.05414 13.5085 2.77284 13.2272C2.49153 12.9459 2.3335 12.5643 2.3335 12.1665V10.5C2.3335 10.1022 2.49153 9.72064 2.77284 9.43934C3.05414 9.15803 3.43567 9 3.8335 9H5.5C5.89782 9 6.27935 9.15803 6.56066 9.43934C6.84196 9.72064 7 10.1022 7 10.5V12.1665C7 12.5643 6.84196 12.9459 6.56066 13.2272C6.27935 13.5085 5.89782 13.6665 5.5 13.6665Z" fill="black"/>
<path d="M12.0835 13.5835H10.5C10.1022 13.5835 9.72064 13.4255 9.43934 13.1442C9.15803 12.8629 9 12.4813 9 12.0835V10.5C9 10.1022 9.15803 9.72064 9.43934 9.43934C9.72064 9.15803 10.1022 9 10.5 9H12.0835C12.4813 9 12.8629 9.15803 13.1442 9.43934C13.4255 9.72064 13.5835 10.1022 13.5835 10.5V12.0835C13.5835 12.4813 13.4255 12.8629 13.1442 13.1442C12.8629 13.4255 12.4813 13.5835 12.0835 13.5835Z" fill="black"/>
</svg>
