<svg width="28" height="28" viewBox="0 0 28 28" fill="none" xmlns="http://www.w3.org/2000/svg">
<path d="M10.2086 5.83374C10.4407 5.83374 10.6632 5.92593 10.8273 6.09002C10.9914 6.25412 11.0836 6.47668 11.0836 6.70874V10.2087C11.0836 10.4408 10.9914 10.6634 10.8273 10.8275C10.6632 10.9916 10.4407 11.0837 10.2086 11.0837H6.70862C6.47655 11.0837 6.25399 10.9916 6.0899 10.8275C5.92581 10.6634 5.83362 10.4408 5.83362 10.2087V6.70874C5.83362 6.47668 5.92581 6.25412 6.0899 6.09002C6.25399 5.92593 6.47655 5.83374 6.70862 5.83374H10.2086ZM10.2086 4.08374H6.70862C6.01242 4.08374 5.34475 4.3603 4.85246 4.85259C4.36018 5.34487 4.08362 6.01255 4.08362 6.70874V10.2087C4.08362 10.9049 4.36018 11.5726 4.85246 12.0649C5.34475 12.5572 6.01242 12.8337 6.70862 12.8337H10.2086C10.9048 12.8337 11.5725 12.5572 12.0648 12.0649C12.5571 11.5726 12.8336 10.9049 12.8336 10.2087V6.70874C12.8336 6.01255 12.5571 5.34487 12.0648 4.85259C11.5725 4.3603 10.9048 4.08374 10.2086 4.08374Z" fill="black"/>
<path d="M21.2914 5.83374C21.5234 5.83374 21.746 5.92593 21.9101 6.09002C22.0742 6.25412 22.1664 6.47668 22.1664 6.70874V10.2087C22.1664 10.4408 22.0742 10.6634 21.9101 10.8275C21.746 10.9916 21.5234 11.0837 21.2914 11.0837H17.7914C17.5593 11.0837 17.3367 10.9916 17.1726 10.8275C17.0086 10.6634 16.9164 10.4408 16.9164 10.2087V6.70874C16.9164 6.47668 17.0086 6.25412 17.1726 6.09002C17.3367 5.92593 17.5593 5.83374 17.7914 5.83374H21.2914ZM21.2914 4.08374H17.7914C17.0952 4.08374 16.4275 4.3603 15.9352 4.85259C15.4429 5.34487 15.1664 6.01255 15.1664 6.70874V10.2087C15.1664 10.9049 15.4429 11.5726 15.9352 12.0649C16.4275 12.5572 17.0952 12.8337 17.7914 12.8337H21.2914C21.9876 12.8337 22.6552 12.5572 23.1475 12.0649C23.6398 11.5726 23.9164 10.9049 23.9164 10.2087V6.70874C23.9164 6.01255 23.6398 5.34487 23.1475 4.85259C22.6552 4.3603 21.9876 4.08374 21.2914 4.08374Z" fill="black"/>
<path d="M10.2086 16.9165C10.4407 16.9165 10.6632 17.0087 10.8273 17.1728C10.9914 17.3369 11.0836 17.5594 11.0836 17.7915V21.2915C11.0836 21.5236 10.9914 21.7461 10.8273 21.9102C10.6632 22.0743 10.4407 22.1665 10.2086 22.1665H6.70862C6.47655 22.1665 6.25399 22.0743 6.0899 21.9102C5.92581 21.7461 5.83362 21.5236 5.83362 21.2915V17.7915C5.83362 17.5594 5.92581 17.3369 6.0899 17.1728C6.25399 17.0087 6.47655 16.9165 6.70862 16.9165H10.2086ZM10.2086 15.1665H6.70862C6.01242 15.1665 5.34475 15.4431 4.85246 15.9353C4.36018 16.4276 4.08362 17.0953 4.08362 17.7915V21.2915C4.08362 21.9877 4.36018 22.6554 4.85246 23.1476C5.34475 23.6399 6.01242 23.9165 6.70862 23.9165H10.2086C10.9048 23.9165 11.5725 23.6399 12.0648 23.1476C12.5571 22.6554 12.8336 21.9877 12.8336 21.2915V17.7915C12.8336 17.0953 12.5571 16.4276 12.0648 15.9353C11.5725 15.4431 10.9048 15.1665 10.2086 15.1665Z" fill="black"/>
<path d="M21.1461 16.9165C21.3782 16.9165 21.6007 17.0087 21.7648 17.1728C21.9289 17.3369 22.0211 17.5594 22.0211 17.7915V21.1454C22.0211 21.3774 21.9289 21.6 21.7648 21.7641C21.6007 21.9282 21.3782 22.0204 21.1461 22.0204H17.7922C17.5602 22.0204 17.3376 21.9282 17.1735 21.7641C17.0094 21.6 16.9172 21.3774 16.9172 21.1454V17.7915C16.9172 17.5594 17.0094 17.3369 17.1735 17.1728C17.3376 17.0087 17.5602 16.9165 17.7922 16.9165H21.1461ZM21.1461 15.1665H17.7922C17.096 15.1665 16.4284 15.4431 15.9361 15.9353C15.4438 16.4276 15.1672 17.0953 15.1672 17.7915V21.1454C15.1672 21.8416 15.4438 22.5092 15.9361 23.0015C16.4284 23.4938 17.096 23.7704 17.7922 23.7704H21.1461C21.8423 23.7704 22.51 23.4938 23.0023 23.0015C23.4946 22.5092 23.7711 21.8416 23.7711 21.1454V17.7915C23.7711 17.0953 23.4946 16.4276 23.0023 15.9353C22.51 15.4431 21.8423 15.1665 21.1461 15.1665Z" fill="black"/>
</svg>
