<svg width="16" height="16" viewBox="0 0 16 16" fill="none" xmlns="http://www.w3.org/2000/svg">
<path d="M9.33333 5.85008C9.33333 5.75008 9.36945 5.6473 9.44167 5.54175C9.51389 5.43619 9.59445 5.36675 9.68333 5.33341C10.0056 5.2223 10.3278 5.13897 10.65 5.08341C10.9722 5.02786 11.3111 5.00008 11.6667 5.00008C11.8889 5.00008 12.1083 5.01397 12.325 5.04175C12.5417 5.06953 12.7556 5.10564 12.9667 5.15008C13.0667 5.1723 13.1528 5.22786 13.225 5.31675C13.2972 5.40564 13.3333 5.50564 13.3333 5.61675C13.3333 5.80564 13.2722 5.94453 13.15 6.03341C13.0278 6.1223 12.8722 6.14453 12.6833 6.10008C12.5278 6.06675 12.3639 6.04175 12.1917 6.02508C12.0194 6.00841 11.8444 6.00008 11.6667 6.00008C11.3778 6.00008 11.0944 6.02786 10.8167 6.08341C10.5389 6.13897 10.2722 6.21119 10.0167 6.30008C9.81667 6.37786 9.65278 6.3723 9.525 6.28341C9.39722 6.19453 9.33333 6.05008 9.33333 5.85008ZM9.33333 9.51675C9.33333 9.41675 9.36945 9.31397 9.44167 9.20841C9.51389 9.10286 9.59445 9.03341 9.68333 9.00008C10.0056 8.88897 10.3278 8.80564 10.65 8.75008C10.9722 8.69453 11.3111 8.66675 11.6667 8.66675C11.8889 8.66675 12.1083 8.68064 12.325 8.70841C12.5417 8.73619 12.7556 8.7723 12.9667 8.81675C13.0667 8.83897 13.1528 8.89453 13.225 8.98341C13.2972 9.0723 13.3333 9.1723 13.3333 9.28341C13.3333 9.4723 13.2722 9.61119 13.15 9.70008C13.0278 9.78897 12.8722 9.81119 12.6833 9.76675C12.5278 9.73341 12.3639 9.70841 12.1917 9.69175C12.0194 9.67508 11.8444 9.66675 11.6667 9.66675C11.3778 9.66675 11.0944 9.69175 10.8167 9.74175C10.5389 9.79175 10.2722 9.86119 10.0167 9.95008C9.81667 10.0279 9.65278 10.0251 9.525 9.94175C9.39722 9.85841 9.33333 9.71675 9.33333 9.51675ZM9.33333 7.68341C9.33333 7.58341 9.36945 7.48064 9.44167 7.37508C9.51389 7.26953 9.59445 7.20008 9.68333 7.16675C10.0056 7.05564 10.3278 6.9723 10.65 6.91675C10.9722 6.86119 11.3111 6.83341 11.6667 6.83341C11.8889 6.83341 12.1083 6.8473 12.325 6.87508C12.5417 6.90286 12.7556 6.93897 12.9667 6.98341C13.0667 7.00564 13.1528 7.06119 13.225 7.15008C13.2972 7.23897 13.3333 7.33897 13.3333 7.45008C13.3333 7.63897 13.2722 7.77786 13.15 7.86675C13.0278 7.95564 12.8722 7.97786 12.6833 7.93341C12.5278 7.90008 12.3639 7.87508 12.1917 7.85841C12.0194 7.84175 11.8444 7.83341 11.6667 7.83341C11.3778 7.83341 11.0944 7.86119 10.8167 7.91675C10.5389 7.9723 10.2722 8.04453 10.0167 8.13341C9.81667 8.21119 9.65278 8.20564 9.525 8.11675C9.39722 8.02786 9.33333 7.88341 9.33333 7.68341ZM4.33333 10.6667C4.85556 10.6667 5.36389 10.7251 5.85833 10.8417C6.35278 10.9584 6.84445 11.1334 7.33333 11.3667V4.80008C6.87778 4.53341 6.39445 4.33341 5.88333 4.20008C5.37222 4.06675 4.85556 4.00008 4.33333 4.00008C3.93333 4.00008 3.53611 4.03897 3.14167 4.11675C2.74722 4.19453 2.36667 4.31119 2 4.46675V11.0667C2.38889 10.9334 2.775 10.8334 3.15833 10.7667C3.54167 10.7001 3.93333 10.6667 4.33333 10.6667ZM8.66667 11.3667C9.15556 11.1334 9.64722 10.9584 10.1417 10.8417C10.6361 10.7251 11.1444 10.6667 11.6667 10.6667C12.0667 10.6667 12.4583 10.7001 12.8417 10.7667C13.225 10.8334 13.6111 10.9334 14 11.0667V4.46675C13.6333 4.31119 13.2528 4.19453 12.8583 4.11675C12.4639 4.03897 12.0667 4.00008 11.6667 4.00008C11.1444 4.00008 10.6278 4.06675 10.1167 4.20008C9.60556 4.33341 9.12222 4.53341 8.66667 4.80008V11.3667ZM8 12.9834C7.84445 12.9834 7.69722 12.964 7.55833 12.9251C7.41945 12.8862 7.28889 12.8334 7.16667 12.7667C6.73333 12.5112 6.27778 12.3195 5.8 12.1917C5.32222 12.064 4.83333 12.0001 4.33333 12.0001C3.86667 12.0001 3.40833 12.0612 2.95833 12.1834C2.50833 12.3056 2.07778 12.4779 1.66667 12.7001C1.43333 12.8223 1.20833 12.8167 0.991668 12.6834C0.775001 12.5501 0.666668 12.3556 0.666668 12.1001V4.06675C0.666668 3.94453 0.697223 3.82786 0.758335 3.71675C0.819446 3.60564 0.911112 3.5223 1.03333 3.46675C1.54445 3.20008 2.07778 3.00008 2.63333 2.86675C3.18889 2.73341 3.75556 2.66675 4.33333 2.66675C4.97778 2.66675 5.60833 2.75008 6.225 2.91675C6.84167 3.08341 7.43333 3.33341 8 3.66675C8.56667 3.33341 9.15833 3.08341 9.775 2.91675C10.3917 2.75008 11.0222 2.66675 11.6667 2.66675C12.2444 2.66675 12.8111 2.73341 13.3667 2.86675C13.9222 3.00008 14.4556 3.20008 14.9667 3.46675C15.0889 3.5223 15.1806 3.60564 15.2417 3.71675C15.3028 3.82786 15.3333 3.94453 15.3333 4.06675V12.1001C15.3333 12.3556 15.225 12.5501 15.0083 12.6834C14.7917 12.8167 14.5667 12.8223 14.3333 12.7001C13.9222 12.4779 13.4917 12.3056 13.0417 12.1834C12.5917 12.0612 12.1333 12.0001 11.6667 12.0001C11.1667 12.0001 10.6778 12.064 10.2 12.1917C9.72222 12.3195 9.26667 12.5112 8.83333 12.7667C8.71111 12.8334 8.58056 12.8862 8.44167 12.9251C8.30278 12.964 8.15556 12.9834 8 12.9834Z" fill="black"/>
</svg>
