<svg width="28" height="28" viewBox="0 0 28 28" fill="none" xmlns="http://www.w3.org/2000/svg">
<path d="M15.1667 19.8916C16.0222 19.4833 16.8827 19.177 17.7479 18.9729C18.6132 18.7687 19.5028 18.6666 20.4167 18.6666C21.1167 18.6666 21.8021 18.725 22.4729 18.8416C23.1438 18.9583 23.8195 19.1333 24.5 19.3666V7.81663C23.8584 7.5444 23.1924 7.34024 22.5021 7.20413C21.8118 7.06801 21.1167 6.99996 20.4167 6.99996C19.5028 6.99996 18.5986 7.11663 17.7042 7.34996C16.8097 7.58329 15.9639 7.93329 15.1667 8.39996V19.8916ZM14 22.7208C13.7278 22.7208 13.4702 22.6868 13.2271 22.6187C12.984 22.5507 12.7556 22.4583 12.5417 22.3416C11.7834 21.8944 10.9861 21.559 10.15 21.3354C9.31391 21.1118 8.45835 21 7.58335 21C6.76669 21 5.9646 21.1069 5.1771 21.3208C4.3896 21.5347 3.63613 21.8361 2.91669 22.225C2.50835 22.4388 2.1146 22.4291 1.73544 22.1958C1.35627 21.9625 1.16669 21.6222 1.16669 21.175V7.11663C1.16669 6.90274 1.22016 6.69857 1.3271 6.50413C1.43405 6.30968 1.59446 6.16385 1.80835 6.06663C2.72224 5.6194 3.66044 5.27426 4.62294 5.03121C5.58544 4.78815 6.57224 4.66663 7.58335 4.66663C8.71113 4.66663 9.8146 4.81246 10.8938 5.10413C11.9729 5.39579 13.0084 5.83329 14 6.41663C14.9917 5.83329 16.0271 5.39579 17.1063 5.10413C18.1854 4.81246 19.2889 4.66663 20.4167 4.66663C21.4278 4.66663 22.4146 4.78815 23.3771 5.03121C24.3396 5.27426 25.2778 5.6194 26.1917 6.06663C26.4056 6.16385 26.566 6.30968 26.6729 6.50413C26.7799 6.69857 26.8334 6.90274 26.8334 7.11663V21.175C26.8334 21.6222 26.6438 21.9625 26.2646 22.1958C25.8854 22.4291 25.4917 22.4388 25.0834 22.225C24.3639 21.8361 23.6104 21.5347 22.8229 21.3208C22.0354 21.1069 21.2334 21 20.4167 21C19.5417 21 18.6861 21.1118 17.85 21.3354C17.0139 21.559 16.2167 21.8944 15.4584 22.3416C15.2445 22.4583 15.016 22.5507 14.7729 22.6187C14.5299 22.6868 14.2722 22.7208 14 22.7208ZM16.3334 10.2375C16.3334 10.0625 16.3965 9.8826 16.5229 9.69788C16.6493 9.51315 16.7903 9.39163 16.9459 9.33329C17.5097 9.13885 18.0736 8.99301 18.6375 8.89579C19.2014 8.79857 19.7945 8.74996 20.4167 8.74996C20.8056 8.74996 21.1896 8.77426 21.5688 8.82288C21.9479 8.87149 22.3222 8.93468 22.6917 9.01246C22.8667 9.05135 23.0174 9.14857 23.1438 9.30413C23.2702 9.45968 23.3334 9.63468 23.3334 9.82913C23.3334 10.1597 23.2264 10.4027 23.0125 10.5583C22.7986 10.7138 22.5264 10.7527 22.1959 10.675C21.9236 10.6166 21.6368 10.5729 21.3354 10.5437C21.034 10.5145 20.7278 10.5 20.4167 10.5C19.9111 10.5 19.4153 10.5486 18.9292 10.6458C18.4431 10.743 17.9764 10.8694 17.5292 11.025C17.1792 11.1611 16.8924 11.1513 16.6688 10.9958C16.4452 10.8402 16.3334 10.5875 16.3334 10.2375ZM16.3334 16.6541C16.3334 16.4791 16.3965 16.2993 16.5229 16.1145C16.6493 15.9298 16.7903 15.8083 16.9459 15.75C17.5097 15.5555 18.0736 15.4097 18.6375 15.3125C19.2014 15.2152 19.7945 15.1666 20.4167 15.1666C20.8056 15.1666 21.1896 15.1909 21.5688 15.2395C21.9479 15.2882 22.3222 15.3513 22.6917 15.4291C22.8667 15.468 23.0174 15.5652 23.1438 15.7208C23.2702 15.8763 23.3334 16.0513 23.3334 16.2458C23.3334 16.5763 23.2264 16.8194 23.0125 16.975C22.7986 17.1305 22.5264 17.1694 22.1959 17.0916C21.9236 17.0333 21.6368 16.9895 21.3354 16.9604C21.034 16.9312 20.7278 16.9166 20.4167 16.9166C19.9111 16.9166 19.4153 16.9604 18.9292 17.0479C18.4431 17.1354 17.9764 17.2569 17.5292 17.4125C17.1792 17.5486 16.8924 17.5437 16.6688 17.3979C16.4452 17.252 16.3334 17.0041 16.3334 16.6541ZM16.3334 13.4458C16.3334 13.2708 16.3965 13.0909 16.5229 12.9062C16.6493 12.7215 16.7903 12.6 16.9459 12.5416C17.5097 12.3472 18.0736 12.2013 18.6375 12.1041C19.2014 12.0069 19.7945 11.9583 20.4167 11.9583C20.8056 11.9583 21.1896 11.9826 21.5688 12.0312C21.9479 12.0798 22.3222 12.143 22.6917 12.2208C22.8667 12.2597 23.0174 12.3569 23.1438 12.5125C23.2702 12.668 23.3334 12.843 23.3334 13.0375C23.3334 13.368 23.2264 13.6111 23.0125 13.7666C22.7986 13.9222 22.5264 13.9611 22.1959 13.8833C21.9236 13.825 21.6368 13.7812 21.3354 13.752C21.034 13.7229 20.7278 13.7083 20.4167 13.7083C19.9111 13.7083 19.4153 13.7569 18.9292 13.8541C18.4431 13.9513 17.9764 14.0777 17.5292 14.2333C17.1792 14.3694 16.8924 14.3597 16.6688 14.2041C16.4452 14.0486 16.3334 13.7958 16.3334 13.4458Z" fill="black"/>
</svg>
