<svg width="24" height="24" viewBox="0 0 24 24" fill="none" xmlns="http://www.w3.org/2000/svg">
<path d="M10.5 5.75024V8.24999C10.5 8.84673 10.2629 9.41903 9.84098 9.84098C9.41903 10.2629 8.84673 10.5 8.24999 10.5H5.75024C5.15351 10.5 4.58121 10.2629 4.15925 9.84098C3.7373 9.41903 3.50024 8.84673 3.50024 8.24999V5.75024C3.50024 5.15351 3.7373 4.58121 4.15925 4.15925C4.58121 3.7373 5.15351 3.50024 5.75024 3.50024H8.24999C8.84673 3.50024 9.41903 3.7373 9.84098 4.15925C10.2629 4.58121 10.5 5.15351 10.5 5.75024Z" fill="black"/>
<path d="M18.2497 10.5H15.75C15.1533 10.5 14.581 10.2629 14.159 9.84098C13.737 9.41903 13.5 8.84673 13.5 8.24999V5.75024C13.5 5.15351 13.737 4.58121 14.159 4.15925C14.581 3.7373 15.1533 3.50024 15.75 3.50024H18.2497C18.8465 3.50024 19.4188 3.7373 19.8407 4.15925C20.2627 4.58121 20.4997 5.15351 20.4997 5.75024V8.24999C20.4997 8.84673 20.2627 9.41903 19.8407 9.84098C19.4188 10.2629 18.8465 10.5 18.2497 10.5Z" fill="black"/>
<path d="M8.24999 20.4997H5.75024C5.15351 20.4997 4.58121 20.2627 4.15925 19.8407C3.7373 19.4188 3.50024 18.8465 3.50024 18.2497V15.75C3.50024 15.1533 3.7373 14.581 4.15925 14.159C4.58121 13.737 5.15351 13.5 5.75024 13.5H8.24999C8.84673 13.5 9.41903 13.737 9.84098 14.159C10.2629 14.581 10.5 15.1533 10.5 15.75V18.2497C10.5 18.8465 10.2629 19.4188 9.84098 19.8407C9.41903 20.2627 8.84673 20.4997 8.24999 20.4997Z" fill="black"/>
<path d="M18.1252 20.3752H15.75C15.1533 20.3752 14.581 20.1382 14.159 19.7162C13.737 19.2943 13.5 18.722 13.5 18.1252V15.75C13.5 15.1533 13.737 14.581 14.159 14.159C14.581 13.737 15.1533 13.5 15.75 13.5H18.1252C18.722 13.5 19.2943 13.737 19.7162 14.159C20.1382 14.581 20.3752 15.1533 20.3752 15.75V18.1252C20.3752 18.722 20.1382 19.2943 19.7162 19.7162C19.2943 20.1382 18.722 20.3752 18.1252 20.3752Z" fill="black"/>
</svg>
