<svg width="28" height="28" viewBox="0 0 28 28" fill="none" xmlns="http://www.w3.org/2000/svg">
<path d="M12.25 6.70874V9.62512C12.25 10.3213 11.9734 10.989 11.4811 11.4813C10.9889 11.9736 10.3212 12.2501 9.62499 12.2501H6.70862C6.01242 12.2501 5.34475 11.9736 4.85246 11.4813C4.36018 10.989 4.08362 10.3213 4.08362 9.62512V6.70874C4.08362 6.01255 4.36018 5.34487 4.85246 4.85259C5.34475 4.3603 6.01242 4.08374 6.70862 4.08374H9.62499C10.3212 4.08374 10.9889 4.3603 11.4811 4.85259C11.9734 5.34487 12.25 6.01255 12.25 6.70874Z" fill="black"/>
<path d="M21.2914 12.2501H18.375C17.6788 12.2501 17.0111 11.9736 16.5188 11.4813C16.0266 10.989 15.75 10.3213 15.75 9.62512V6.70874C15.75 6.01255 16.0266 5.34487 16.5188 4.85259C17.0111 4.3603 17.6788 4.08374 18.375 4.08374H21.2914C21.9876 4.08374 22.6552 4.3603 23.1475 4.85259C23.6398 5.34487 23.9164 6.01255 23.9164 6.70874V9.62512C23.9164 10.3213 23.6398 10.989 23.1475 11.4813C22.6552 11.9736 21.9876 12.2501 21.2914 12.2501Z" fill="black"/>
<path d="M9.62499 23.9165H6.70862C6.01242 23.9165 5.34475 23.6399 4.85246 23.1476C4.36018 22.6554 4.08362 21.9877 4.08362 21.2915V18.3751C4.08362 17.6789 4.36018 17.0112 4.85246 16.519C5.34475 16.0267 6.01242 15.7501 6.70862 15.7501H9.62499C10.3212 15.7501 10.9889 16.0267 11.4811 16.519C11.9734 17.0112 12.25 17.6789 12.25 18.3751V21.2915C12.25 21.9877 11.9734 22.6554 11.4811 23.1476C10.9889 23.6399 10.3212 23.9165 9.62499 23.9165Z" fill="black"/>
<path d="M21.1461 23.7712H18.375C17.6788 23.7712 17.0111 23.4947 16.5188 23.0024C16.0266 22.5101 15.75 21.8424 15.75 21.1462V18.3751C15.75 17.6789 16.0266 17.0112 16.5188 16.519C17.0111 16.0267 17.6788 15.7501 18.375 15.7501H21.1461C21.8423 15.7501 22.51 16.0267 23.0023 16.519C23.4946 17.0112 23.7711 17.6789 23.7711 18.3751V21.1462C23.7711 21.8424 23.4946 22.5101 23.0023 23.0024C22.51 23.4947 21.8423 23.7712 21.1461 23.7712Z" fill="black"/>
</svg>
