<svg width="28" height="28" viewBox="0 0 28 28" fill="none" xmlns="http://www.w3.org/2000/svg">
<path d="M3.5 5.83333C3.5 4.54467 4.54467 3.5 5.83333 3.5H10.5C11.7887 3.5 12.8333 4.54467 12.8333 5.83333V10.5C12.8333 11.7887 11.7887 12.8333 10.5 12.8333H5.83333C4.54467 12.8333 3.5 11.7887 3.5 10.5V5.83333Z" fill="black"/>
<path d="M3.5 17.5C3.5 16.2113 4.54467 15.1667 5.83333 15.1667H10.5C11.7887 15.1667 12.8333 16.2113 12.8333 17.5V22.1667C12.8333 23.4553 11.7887 24.5 10.5 24.5H5.83333C4.54467 24.5 3.5 23.4553 3.5 22.1667V17.5Z" fill="black"/>
<path d="M15.1667 5.83333C15.1667 4.54467 16.2113 3.5 17.5 3.5H22.1667C23.4553 3.5 24.5 4.54467 24.5 5.83333V10.5C24.5 11.7887 23.4553 12.8333 22.1667 12.8333H17.5C16.2113 12.8333 15.1667 11.7887 15.1667 10.5V5.83333Z" fill="black"/>
<path d="M15.1667 17.5C15.1667 16.2113 16.2113 15.1667 17.5 15.1667H22.1667C23.4553 15.1667 24.5 16.2113 24.5 17.5V22.1667C24.5 23.4553 23.4553 24.5 22.1667 24.5H17.5C16.2113 24.5 15.1667 23.4553 15.1667 22.1667V17.5Z" fill="black"/>
</svg>
