<svg width="16" height="16" viewBox="0 0 16 16" fill="none" xmlns="http://www.w3.org/2000/svg">
<path d="M2 3.33333C2 2.59695 2.59695 2 3.33333 2H6C6.73638 2 7.33333 2.59695 7.33333 3.33333V6C7.33333 6.73638 6.73638 7.33333 6 7.33333H3.33333C2.59695 7.33333 2 6.73638 2 6V3.33333Z" fill="black"/>
<path d="M2 10C2 9.26362 2.59695 8.66667 3.33333 8.66667H6C6.73638 8.66667 7.33333 9.26362 7.33333 10V12.6667C7.33333 13.403 6.73638 14 6 14H3.33333C2.59695 14 2 13.403 2 12.6667V10Z" fill="black"/>
<path d="M8.66667 3.33333C8.66667 2.59695 9.26362 2 10 2H12.6667C13.403 2 14 2.59695 14 3.33333V6C14 6.73638 13.403 7.33333 12.6667 7.33333H10C9.26362 7.33333 8.66667 6.73638 8.66667 6V3.33333Z" fill="black"/>
<path d="M8.66667 10C8.66667 9.26362 9.26362 8.66667 10 8.66667H12.6667C13.403 8.66667 14 9.26362 14 10V12.6667C14 13.403 13.403 14 12.6667 14H10C9.26362 14 8.66667 13.403 8.66667 12.6667V10Z" fill="black"/>
</svg>
