<svg width="16" height="16" viewBox="0 0 16 16" fill="none" xmlns="http://www.w3.org/2000/svg">
<path d="M8.66669 11.3666C9.15558 11.1333 9.64724 10.9583 10.1417 10.8416C10.6361 10.725 11.1445 10.6666 11.6667 10.6666C12.0667 10.6666 12.4584 10.7 12.8417 10.7666C13.225 10.8333 13.6111 10.9333 14 11.0666V4.46663C13.6334 4.31107 13.2528 4.1944 12.8584 4.11663C12.4639 4.03885 12.0667 3.99996 11.6667 3.99996C11.1445 3.99996 10.6278 4.06663 10.1167 4.19996C9.60558 4.33329 9.12224 4.53329 8.66669 4.79996V11.3666ZM8.00002 12.9833C7.84447 12.9833 7.69724 12.9638 7.55835 12.925C7.41947 12.8861 7.28891 12.8333 7.16669 12.7666C6.73335 12.5111 6.2778 12.3194 5.80002 12.1916C5.32224 12.0638 4.83335 12 4.33335 12C3.86669 12 3.40835 12.0611 2.95835 12.1833C2.50835 12.3055 2.0778 12.4777 1.66669 12.7C1.43335 12.8222 1.20835 12.8166 0.991687 12.6833C0.77502 12.55 0.666687 12.3555 0.666687 12.1V4.06663C0.666687 3.9444 0.697243 3.82774 0.758354 3.71663C0.819465 3.60551 0.911131 3.52218 1.03335 3.46663C1.55558 3.21107 2.09169 3.01385 2.64169 2.87496C3.19169 2.73607 3.75558 2.66663 4.33335 2.66663C4.9778 2.66663 5.60835 2.74996 6.22502 2.91663C6.84169 3.08329 7.43335 3.33329 8.00002 3.66663C8.56669 3.33329 9.15835 3.08329 9.77502 2.91663C10.3917 2.74996 11.0222 2.66663 11.6667 2.66663C12.2445 2.66663 12.8084 2.73607 13.3584 2.87496C13.9084 3.01385 14.4445 3.21107 14.9667 3.46663C15.0889 3.52218 15.1806 3.60551 15.2417 3.71663C15.3028 3.82774 15.3334 3.9444 15.3334 4.06663V12.1C15.3334 12.3555 15.225 12.55 15.0084 12.6833C14.7917 12.8166 14.5667 12.8222 14.3334 12.7C13.9222 12.4777 13.4917 12.3055 13.0417 12.1833C12.5917 12.0611 12.1334 12 11.6667 12C11.1667 12 10.6778 12.0638 10.2 12.1916C9.72224 12.3194 9.26669 12.5111 8.83335 12.7666C8.71113 12.8333 8.58058 12.8861 8.44169 12.925C8.3028 12.9638 8.15558 12.9833 8.00002 12.9833ZM9.33335 5.84996C9.33335 5.74996 9.36947 5.64718 9.44169 5.54163C9.51391 5.43607 9.59447 5.36663 9.68335 5.33329C10.0056 5.22218 10.3278 5.13885 10.65 5.08329C10.9722 5.02774 11.3111 4.99996 11.6667 4.99996C11.8889 4.99996 12.1084 5.01385 12.325 5.04163C12.5417 5.0694 12.7556 5.10551 12.9667 5.14996C13.0667 5.17218 13.1528 5.22774 13.225 5.31663C13.2972 5.40551 13.3334 5.50551 13.3334 5.61663C13.3334 5.80551 13.2722 5.9444 13.15 6.03329C13.0278 6.12218 12.8722 6.1444 12.6834 6.09996C12.5278 6.06663 12.3639 6.04163 12.1917 6.02496C12.0195 6.00829 11.8445 5.99996 11.6667 5.99996C11.3778 5.99996 11.0945 6.02774 10.8167 6.08329C10.5389 6.13885 10.2722 6.21107 10.0167 6.29996C9.81669 6.37774 9.6528 6.37218 9.52502 6.28329C9.39724 6.1944 9.33335 6.04996 9.33335 5.84996ZM9.33335 9.51663C9.33335 9.41663 9.36947 9.31385 9.44169 9.20829C9.51391 9.10274 9.59447 9.03329 9.68335 8.99996C10.0056 8.88885 10.3278 8.80551 10.65 8.74996C10.9722 8.6944 11.3111 8.66663 11.6667 8.66663C11.8889 8.66663 12.1084 8.68051 12.325 8.70829C12.5417 8.73607 12.7556 8.77218 12.9667 8.81663C13.0667 8.83885 13.1528 8.8944 13.225 8.98329C13.2972 9.07218 13.3334 9.17218 13.3334 9.28329C13.3334 9.47218 13.2722 9.61107 13.15 9.69996C13.0278 9.78885 12.8722 9.81107 12.6834 9.76663C12.5278 9.73329 12.3639 9.70829 12.1917 9.69163C12.0195 9.67496 11.8445 9.66663 11.6667 9.66663C11.3778 9.66663 11.0945 9.69163 10.8167 9.74163C10.5389 9.79163 10.2722 9.86107 10.0167 9.94996C9.81669 10.0277 9.6528 10.025 9.52502 9.94163C9.39724 9.85829 9.33335 9.71663 9.33335 9.51663ZM9.33335 7.68329C9.33335 7.58329 9.36947 7.48051 9.44169 7.37496C9.51391 7.2694 9.59447 7.19996 9.68335 7.16663C10.0056 7.05551 10.3278 6.97218 10.65 6.91663C10.9722 6.86107 11.3111 6.83329 11.6667 6.83329C11.8889 6.83329 12.1084 6.84718 12.325 6.87496C12.5417 6.90274 12.7556 6.93885 12.9667 6.98329C13.0667 7.00551 13.1528 7.06107 13.225 7.14996C13.2972 7.23885 13.3334 7.33885 13.3334 7.44996C13.3334 7.63885 13.2722 7.77774 13.15 7.86663C13.0278 7.95551 12.8722 7.97774 12.6834 7.93329C12.5278 7.89996 12.3639 7.87496 12.1917 7.85829C12.0195 7.84163 11.8445 7.83329 11.6667 7.83329C11.3778 7.83329 11.0945 7.86107 10.8167 7.91663C10.5389 7.97218 10.2722 8.0444 10.0167 8.13329C9.81669 8.21107 9.6528 8.20551 9.52502 8.11663C9.39724 8.02774 9.33335 7.88329 9.33335 7.68329Z" fill="black"/>
</svg>
