<svg width="28" height="28" viewBox="0 0 28 28" fill="none" xmlns="http://www.w3.org/2000/svg">
<path d="M10.5 5.83333V10.5H5.83333V5.83333H10.5ZM5.83333 3.5C4.54467 3.5 3.5 4.54467 3.5 5.83333V10.5C3.5 11.7887 4.54467 12.8333 5.83333 12.8333H10.5C11.7887 12.8333 12.8333 11.7887 12.8333 10.5V5.83333C12.8333 4.54467 11.7887 3.5 10.5 3.5H5.83333Z" fill="black"/>
<path d="M10.5 17.5V22.1667H5.83333V17.5H10.5ZM5.83333 15.1667C4.54467 15.1667 3.5 16.2113 3.5 17.5V22.1667C3.5 23.4553 4.54467 24.5 5.83333 24.5H10.5C11.7887 24.5 12.8333 23.4553 12.8333 22.1667V17.5C12.8333 16.2113 11.7887 15.1667 10.5 15.1667H5.83333Z" fill="black"/>
<path d="M22.1667 5.83333V10.5H17.5V5.83333H22.1667ZM17.5 3.5C16.2113 3.5 15.1667 4.54467 15.1667 5.83333V10.5C15.1667 11.7887 16.2113 12.8333 17.5 12.8333H22.1667C23.4553 12.8333 24.5 11.7887 24.5 10.5V5.83333C24.5 4.54467 23.4553 3.5 22.1667 3.5H17.5Z" fill="black"/>
<path d="M22.1667 17.5V22.1667H17.5V17.5H22.1667ZM17.5 15.1667C16.2113 15.1667 15.1667 16.2113 15.1667 17.5V22.1667C15.1667 23.4553 16.2113 24.5 17.5 24.5H22.1667C23.4553 24.5 24.5 23.4553 24.5 22.1667V17.5C24.5 16.2113 23.4553 15.1667 22.1667 15.1667H17.5Z" fill="black"/>
</svg>
