<svg width="28" height="28" viewBox="0 0 28 28" fill="none" xmlns="http://www.w3.org/2000/svg">
<path d="M16.3333 10.2376C16.3333 10.0626 16.3965 9.88272 16.5229 9.698C16.6493 9.51328 16.7903 9.39175 16.9458 9.33341C17.5097 9.13897 18.0736 8.99314 18.6375 8.89591C19.2014 8.79869 19.7944 8.75008 20.4167 8.75008C20.8056 8.75008 21.1896 8.77439 21.5687 8.823C21.9479 8.87161 22.3222 8.9348 22.6917 9.01258C22.8667 9.05147 23.0174 9.14869 23.1437 9.30425C23.2701 9.4598 23.3333 9.6348 23.3333 9.82925C23.3333 10.1598 23.2264 10.4029 23.0125 10.5584C22.7986 10.714 22.5264 10.7529 22.1958 10.6751C21.9236 10.6167 21.6368 10.573 21.3354 10.5438C21.034 10.5147 20.7278 10.5001 20.4167 10.5001C19.9111 10.5001 19.4153 10.5487 18.9292 10.6459C18.4431 10.7431 17.9764 10.8695 17.5292 11.0251C17.1792 11.1612 16.8924 11.1515 16.6687 10.9959C16.4451 10.8404 16.3333 10.5876 16.3333 10.2376ZM16.3333 16.6542C16.3333 16.4792 16.3965 16.2994 16.5229 16.1147C16.6493 15.9299 16.7903 15.8084 16.9458 15.7501C17.5097 15.5556 18.0736 15.4098 18.6375 15.3126C19.2014 15.2154 19.7944 15.1667 20.4167 15.1667C20.8056 15.1667 21.1896 15.1911 21.5687 15.2397C21.9479 15.2883 22.3222 15.3515 22.6917 15.4292C22.8667 15.4681 23.0174 15.5654 23.1437 15.7209C23.2701 15.8765 23.3333 16.0515 23.3333 16.2459C23.3333 16.5765 23.2264 16.8195 23.0125 16.9751C22.7986 17.1306 22.5264 17.1695 22.1958 17.0917C21.9236 17.0334 21.6368 16.9897 21.3354 16.9605C21.034 16.9313 20.7278 16.9167 20.4167 16.9167C19.9111 16.9167 19.4153 16.9605 18.9292 17.048C18.4431 17.1355 17.9764 17.257 17.5292 17.4126C17.1792 17.5487 16.8924 17.5438 16.6687 17.398C16.4451 17.2522 16.3333 17.0042 16.3333 16.6542ZM16.3333 13.4459C16.3333 13.2709 16.3965 13.0911 16.5229 12.9063C16.6493 12.7216 16.7903 12.6001 16.9458 12.5417C17.5097 12.3473 18.0736 12.2015 18.6375 12.1042C19.2014 12.007 19.7944 11.9584 20.4167 11.9584C20.8056 11.9584 21.1896 11.9827 21.5687 12.0313C21.9479 12.0799 22.3222 12.1431 22.6917 12.2209C22.8667 12.2598 23.0174 12.357 23.1437 12.5126C23.2701 12.6681 23.3333 12.8431 23.3333 13.0376C23.3333 13.3681 23.2264 13.6112 23.0125 13.7667C22.7986 13.9223 22.5264 13.9612 22.1958 13.8834C21.9236 13.8251 21.6368 13.7813 21.3354 13.7522C21.034 13.723 20.7278 13.7084 20.4167 13.7084C19.9111 13.7084 19.4153 13.757 18.9292 13.8542C18.4431 13.9515 17.9764 14.0779 17.5292 14.2334C17.1792 14.3695 16.8924 14.3598 16.6687 14.2042C16.4451 14.0487 16.3333 13.7959 16.3333 13.4459ZM7.58333 18.6667C8.49722 18.6667 9.3868 18.7688 10.2521 18.973C11.1174 19.1772 11.9778 19.4834 12.8333 19.8917V8.40008C12.0361 7.93341 11.1903 7.58341 10.2958 7.35008C9.40139 7.11675 8.49722 7.00008 7.58333 7.00008C6.88333 7.00008 6.18819 7.06814 5.49791 7.20425C4.80764 7.34036 4.14166 7.54453 3.5 7.81675V19.3667C4.18055 19.1334 4.85625 18.9584 5.52708 18.8417C6.19791 18.7251 6.88333 18.6667 7.58333 18.6667ZM15.1667 19.8917C16.0222 19.4834 16.8826 19.1772 17.7479 18.973C18.6132 18.7688 19.5028 18.6667 20.4167 18.6667C21.1167 18.6667 21.8021 18.7251 22.4729 18.8417C23.1437 18.9584 23.8194 19.1334 24.5 19.3667V7.81675C23.8583 7.54453 23.1924 7.34036 22.5021 7.20425C21.8118 7.06814 21.1167 7.00008 20.4167 7.00008C19.5028 7.00008 18.5986 7.11675 17.7042 7.35008C16.8097 7.58341 15.9639 7.93341 15.1667 8.40008V19.8917ZM14 22.7209C13.7278 22.7209 13.4701 22.6869 13.2271 22.6188C12.984 22.5508 12.7556 22.4584 12.5417 22.3417C11.7833 21.8945 10.9861 21.5591 10.15 21.3355C9.31389 21.1119 8.45833 21.0001 7.58333 21.0001C6.76666 21.0001 5.96458 21.107 5.17708 21.3209C4.38958 21.5348 3.63611 21.8362 2.91666 22.2251C2.50833 22.439 2.11458 22.4292 1.73541 22.1959C1.35625 21.9626 1.16666 21.6223 1.16666 21.1751V7.11675C1.16666 6.90286 1.22014 6.69869 1.32708 6.50425C1.43403 6.3098 1.59444 6.16397 1.80833 6.06675C2.70278 5.60008 3.63611 5.25008 4.60833 5.01675C5.58055 4.78341 6.57222 4.66675 7.58333 4.66675C8.71111 4.66675 9.81458 4.81258 10.8937 5.10425C11.9729 5.39591 13.0083 5.83341 14 6.41675C14.9917 5.83341 16.0271 5.39591 17.1062 5.10425C18.1854 4.81258 19.2889 4.66675 20.4167 4.66675C21.4278 4.66675 22.4194 4.78341 23.3917 5.01675C24.3639 5.25008 25.2972 5.60008 26.1917 6.06675C26.4056 6.16397 26.566 6.3098 26.6729 6.50425C26.7799 6.69869 26.8333 6.90286 26.8333 7.11675V21.1751C26.8333 21.6223 26.6437 21.9626 26.2646 22.1959C25.8854 22.4292 25.4917 22.439 25.0833 22.2251C24.3639 21.8362 23.6104 21.5348 22.8229 21.3209C22.0354 21.107 21.2333 21.0001 20.4167 21.0001C19.5417 21.0001 18.6861 21.1119 17.85 21.3355C17.0139 21.5591 16.2167 21.8945 15.4583 22.3417C15.2444 22.4584 15.016 22.5508 14.7729 22.6188C14.5299 22.6869 14.2722 22.7209 14 22.7209Z" fill="black"/>
</svg>
