<svg width="24" height="24" viewBox="0 0 24 24" fill="none" xmlns="http://www.w3.org/2000/svg">
<path d="M8.75024 5.00024C8.94916 5.00024 9.13992 5.07926 9.28057 5.21991C9.42123 5.36057 9.50024 5.55133 9.50024 5.75024V8.75024C9.50024 8.94916 9.42123 9.13992 9.28057 9.28057C9.13992 9.42123 8.94916 9.50024 8.75024 9.50024H5.75024C5.55133 9.50024 5.36057 9.42123 5.21991 9.28057C5.07926 9.13992 5.00024 8.94916 5.00024 8.75024V5.75024C5.00024 5.55133 5.07926 5.36057 5.21991 5.21991C5.36057 5.07926 5.55133 5.00024 5.75024 5.00024H8.75024ZM8.75024 3.50024H5.75024C5.15351 3.50024 4.58121 3.7373 4.15925 4.15925C3.7373 4.58121 3.50024 5.15351 3.50024 5.75024V8.75024C3.50024 9.34698 3.7373 9.91928 4.15925 10.3412C4.58121 10.7632 5.15351 11.0002 5.75024 11.0002H8.75024C9.34698 11.0002 9.91928 10.7632 10.3412 10.3412C10.7632 9.91928 11.0002 9.34698 11.0002 8.75024V5.75024C11.0002 5.15351 10.7632 4.58121 10.3412 4.15925C9.91928 3.7373 9.34698 3.50024 8.75024 3.50024Z" fill="black"/>
<path d="M18.2497 5.00024C18.4487 5.00024 18.6394 5.07926 18.7801 5.21991C18.9207 5.36057 18.9997 5.55133 18.9997 5.75024V8.75024C18.9997 8.94916 18.9207 9.13992 18.7801 9.28057C18.6394 9.42123 18.4487 9.50024 18.2497 9.50024H15.2497C15.0508 9.50024 14.8601 9.42123 14.7194 9.28057C14.5788 9.13992 14.4997 8.94916 14.4997 8.75024V5.75024C14.4997 5.55133 14.5788 5.36057 14.7194 5.21991C14.8601 5.07926 15.0508 5.00024 15.2497 5.00024H18.2497ZM18.2497 3.50024H15.2497C14.653 3.50024 14.0807 3.7373 13.6588 4.15925C13.2368 4.58121 12.9997 5.15351 12.9997 5.75024V8.75024C12.9997 9.34698 13.2368 9.91928 13.6588 10.3412C14.0807 10.7632 14.653 11.0002 15.2497 11.0002H18.2497C18.8465 11.0002 19.4188 10.7632 19.8407 10.3412C20.2627 9.91928 20.4997 9.34698 20.4997 8.75024V5.75024C20.4997 5.15351 20.2627 4.58121 19.8407 4.15925C19.4188 3.7373 18.8465 3.50024 18.2497 3.50024Z" fill="black"/>
<path d="M8.75024 14.4997C8.94916 14.4997 9.13992 14.5788 9.28057 14.7194C9.42123 14.8601 9.50024 15.0508 9.50024 15.2497V18.2497C9.50024 18.4487 9.42123 18.6394 9.28057 18.7801C9.13992 18.9207 8.94916 18.9997 8.75024 18.9997H5.75024C5.55133 18.9997 5.36057 18.9207 5.21991 18.7801C5.07926 18.6394 5.00024 18.4487 5.00024 18.2497V15.2497C5.00024 15.0508 5.07926 14.8601 5.21991 14.7194C5.36057 14.5788 5.55133 14.4997 5.75024 14.4997H8.75024ZM8.75024 12.9997H5.75024C5.15351 12.9997 4.58121 13.2368 4.15925 13.6588C3.7373 14.0807 3.50024 14.653 3.50024 15.2497V18.2497C3.50024 18.8465 3.7373 19.4188 4.15925 19.8407C4.58121 20.2627 5.15351 20.4997 5.75024 20.4997H8.75024C9.34698 20.4997 9.91928 20.2627 10.3412 19.8407C10.7632 19.4188 11.0002 18.8465 11.0002 18.2497V15.2497C11.0002 14.653 10.7632 14.0807 10.3412 13.6588C9.91928 13.2368 9.34698 12.9997 8.75024 12.9997Z" fill="black"/>
<path d="M18.1252 14.4997C18.3242 14.4997 18.5149 14.5788 18.6556 14.7194C18.7962 14.8601 18.8752 15.0508 18.8752 15.2497V18.1245C18.8752 18.3234 18.7962 18.5142 18.6556 18.6548C18.5149 18.7955 18.3242 18.8745 18.1252 18.8745H15.2505C15.0516 18.8745 14.8608 18.7955 14.7202 18.6548C14.5795 18.5142 14.5005 18.3234 14.5005 18.1245V15.2497C14.5005 15.0508 14.5795 14.8601 14.7202 14.7194C14.8608 14.5788 15.0516 14.4997 15.2505 14.4997H18.1252ZM18.1252 12.9997H15.2505C14.6538 12.9997 14.0815 13.2368 13.6595 13.6588C13.2375 14.0807 13.0005 14.653 13.0005 15.2497V18.1245C13.0005 18.7212 13.2375 19.2935 13.6595 19.7155C14.0815 20.1374 14.6538 20.3745 15.2505 20.3745H18.1252C18.722 20.3745 19.2943 20.1374 19.7162 19.7155C20.1382 19.2935 20.3752 18.7212 20.3752 18.1245V15.2497C20.3752 14.653 20.1382 14.0807 19.7162 13.6588C19.2943 13.2368 18.722 12.9997 18.1252 12.9997Z" fill="black"/>
</svg>
