<svg width="28" height="28" viewBox="0 0 28 28" fill="none" xmlns="http://www.w3.org/2000/svg">
<path d="M8.16665 16.3333H15.1958C15.5264 16.3333 15.7986 16.2213 16.0125 15.9973C16.2264 15.774 16.3333 15.4971 16.3333 15.1666C16.3333 14.836 16.2217 14.5588 15.9985 14.3348C15.7745 14.1115 15.4972 13.9999 15.1666 13.9999H8.13748C7.80692 13.9999 7.5347 14.1115 7.32081 14.3348C7.10692 14.5588 6.99998 14.836 6.99998 15.1666C6.99998 15.4971 7.11159 15.774 7.33481 15.9973C7.55881 16.2213 7.83609 16.3333 8.16665 16.3333ZM8.16665 12.8333H19.8625C20.193 12.8333 20.4653 12.7213 20.6791 12.4973C20.893 12.274 21 11.9971 21 11.6666C21 11.336 20.888 11.0588 20.664 10.8348C20.4408 10.6115 20.1639 10.4999 19.8333 10.4999H8.13748C7.80692 10.4999 7.5347 10.6115 7.32081 10.8348C7.10692 11.0588 6.99998 11.336 6.99998 11.6666C6.99998 11.9971 7.11159 12.274 7.33481 12.4973C7.55881 12.7213 7.83609 12.8333 8.16665 12.8333ZM8.16665 9.33325H19.8625C20.193 9.33325 20.4653 9.22164 20.6791 8.99842C20.893 8.77442 21 8.49714 21 8.16659C21 7.83603 20.888 7.55875 20.664 7.33475C20.4408 7.11153 20.1639 6.99992 19.8333 6.99992H8.13748C7.80692 6.99992 7.5347 7.11153 7.32081 7.33475C7.10692 7.55875 6.99998 7.83603 6.99998 8.16659C6.99998 8.49714 7.11159 8.77442 7.33481 8.99842C7.55881 9.22164 7.83609 9.33325 8.16665 9.33325ZM2.33331 22.8374V4.66659C2.33331 4.02492 2.56198 3.47542 3.01931 3.01809C3.47587 2.56153 4.02498 2.33325 4.66665 2.33325H23.3333C23.975 2.33325 24.5245 2.56153 24.9818 3.01809C25.4384 3.47542 25.6666 4.02492 25.6666 4.66659V18.6666C25.6666 19.3083 25.4384 19.8578 24.9818 20.3151C24.5245 20.7716 23.975 20.9999 23.3333 20.9999H6.99998L4.31665 23.6833C3.9472 24.0527 3.52409 24.1351 3.04731 23.9306C2.57131 23.7268 2.33331 23.3624 2.33331 22.8374ZM4.66665 20.0374L6.03748 18.6666H23.3333V4.66659H4.66665V20.0374Z" fill="black"/>
</svg>
