<svg width="16" height="16" viewBox="0 0 16 16" fill="none" xmlns="http://www.w3.org/2000/svg">
<path d="M4.66665 9.33325H8.68331C8.8722 9.33325 9.02776 9.26925 9.14998 9.14125C9.2722 9.0137 9.33331 8.85547 9.33331 8.66659C9.33331 8.4777 9.26953 8.31925 9.14198 8.19125C9.01398 8.0637 8.85553 7.99992 8.66665 7.99992H4.64998C4.46109 7.99992 4.30554 8.0637 4.18331 8.19125C4.06109 8.31925 3.99998 8.4777 3.99998 8.66659C3.99998 8.85547 4.06376 9.0137 4.19131 9.14125C4.31931 9.26925 4.47776 9.33325 4.66665 9.33325ZM4.66665 7.33325H11.35C11.5389 7.33325 11.6944 7.26925 11.8166 7.14125C11.9389 7.0137 12 6.85547 12 6.66659C12 6.4777 11.936 6.31925 11.808 6.19125C11.6804 6.0637 11.5222 5.99992 11.3333 5.99992H4.64998C4.46109 5.99992 4.30554 6.0637 4.18331 6.19125C4.06109 6.31925 3.99998 6.4777 3.99998 6.66659C3.99998 6.85547 4.06376 7.0137 4.19131 7.14125C4.31931 7.26925 4.47776 7.33325 4.66665 7.33325ZM4.66665 5.33325H11.35C11.5389 5.33325 11.6944 5.26947 11.8166 5.14192C11.9389 5.01392 12 4.85547 12 4.66659C12 4.4777 11.936 4.31925 11.808 4.19125C11.6804 4.0637 11.5222 3.99992 11.3333 3.99992H4.64998C4.46109 3.99992 4.30554 4.0637 4.18331 4.19125C4.06109 4.31925 3.99998 4.4777 3.99998 4.66659C3.99998 4.85547 4.06376 5.01392 4.19131 5.14192C4.31931 5.26947 4.47776 5.33325 4.66665 5.33325ZM1.33331 13.0499V2.66659C1.33331 2.29992 1.46398 1.98592 1.72531 1.72459C1.9862 1.4637 2.29998 1.33325 2.66665 1.33325H13.3333C13.7 1.33325 14.014 1.4637 14.2753 1.72459C14.5362 1.98592 14.6666 2.29992 14.6666 2.66659V10.6666C14.6666 11.0333 14.5362 11.3473 14.2753 11.6086C14.014 11.8695 13.7 11.9999 13.3333 11.9999H3.99998L2.46665 13.5333C2.25554 13.7444 2.01376 13.7915 1.74131 13.6746C1.46931 13.5581 1.33331 13.3499 1.33331 13.0499ZM2.66665 11.4499L3.44998 10.6666H13.3333V2.66659H2.66665V11.4499Z" fill="black"/>
</svg>
