<svg width="28" height="28" viewBox="0 0 28 28" fill="none" xmlns="http://www.w3.org/2000/svg">
<path d="M8.16668 16.3333H15.1958C15.5264 16.3333 15.7986 16.2213 16.0125 15.9973C16.2264 15.7741 16.3333 15.4972 16.3333 15.1667C16.3333 14.8361 16.2217 14.5588 15.9985 14.3348C15.7745 14.1116 15.4972 14 15.1667 14H8.13751C7.80695 14 7.53473 14.1116 7.32084 14.3348C7.10696 14.5588 7.00001 14.8361 7.00001 15.1667C7.00001 15.4972 7.11162 15.7741 7.33484 15.9973C7.55884 16.2213 7.83612 16.3333 8.16668 16.3333ZM8.16668 12.8333H19.8625C20.1931 12.8333 20.4653 12.7213 20.6792 12.4973C20.8931 12.2741 21 11.9972 21 11.6667C21 11.3361 20.888 11.0588 20.664 10.8348C20.4408 10.6116 20.1639 10.5 19.8333 10.5H8.13751C7.80695 10.5 7.53473 10.6116 7.32084 10.8348C7.10696 11.0588 7.00001 11.3361 7.00001 11.6667C7.00001 11.9972 7.11162 12.2741 7.33484 12.4973C7.55884 12.7213 7.83612 12.8333 8.16668 12.8333ZM8.16668 9.33334H19.8625C20.1931 9.33334 20.4653 9.22172 20.6792 8.9985C20.8931 8.7745 21 8.49722 21 8.16667C21 7.83611 20.888 7.55884 20.664 7.33484C20.4408 7.11161 20.1639 7 19.8333 7H8.13751C7.80695 7 7.53473 7.11161 7.32084 7.33484C7.10696 7.55884 7.00001 7.83611 7.00001 8.16667C7.00001 8.49722 7.11162 8.7745 7.33484 8.9985C7.55884 9.22172 7.83612 9.33334 8.16668 9.33334ZM2.33334 22.8375V4.66667C2.33334 4.025 2.56201 3.4755 3.01934 3.01817C3.4759 2.56161 4.02501 2.33334 4.66668 2.33334H23.3333C23.975 2.33334 24.5245 2.56161 24.9818 3.01817C25.4384 3.4755 25.6667 4.025 25.6667 4.66667V18.6667C25.6667 19.3083 25.4384 19.8578 24.9818 20.3152C24.5245 20.7717 23.975 21 23.3333 21H7.00001L4.31668 23.6833C3.94723 24.0528 3.52412 24.1352 3.04734 23.9307C2.57134 23.7269 2.33334 23.3625 2.33334 22.8375Z" fill="black"/>
</svg>
