<svg width="16" height="16" viewBox="0 0 16 16" fill="none" xmlns="http://www.w3.org/2000/svg">
<path d="M4.66668 9.33334H8.68334C8.87223 9.33334 9.02779 9.26934 9.15001 9.14134C9.27223 9.01378 9.33334 8.85556 9.33334 8.66667C9.33334 8.47778 9.26957 8.31934 9.14201 8.19134C9.01401 8.06378 8.85557 8 8.66668 8H4.65001C4.46112 8 4.30557 8.06378 4.18334 8.19134C4.06112 8.31934 4.00001 8.47778 4.00001 8.66667C4.00001 8.85556 4.06379 9.01378 4.19134 9.14134C4.31934 9.26934 4.47779 9.33334 4.66668 9.33334ZM4.66668 7.33334H11.35C11.5389 7.33334 11.6945 7.26934 11.8167 7.14134C11.9389 7.01378 12 6.85556 12 6.66667C12 6.47778 11.936 6.31934 11.808 6.19134C11.6805 6.06378 11.5222 6 11.3333 6H4.65001C4.46112 6 4.30557 6.06378 4.18334 6.19134C4.06112 6.31934 4.00001 6.47778 4.00001 6.66667C4.00001 6.85556 4.06379 7.01378 4.19134 7.14134C4.31934 7.26934 4.47779 7.33334 4.66668 7.33334ZM4.66668 5.33334H11.35C11.5389 5.33334 11.6945 5.26956 11.8167 5.142C11.9389 5.014 12 4.85556 12 4.66667C12 4.47778 11.936 4.31934 11.808 4.19134C11.6805 4.06378 11.5222 4 11.3333 4H4.65001C4.46112 4 4.30557 4.06378 4.18334 4.19134C4.06112 4.31934 4.00001 4.47778 4.00001 4.66667C4.00001 4.85556 4.06379 5.014 4.19134 5.142C4.31934 5.26956 4.47779 5.33334 4.66668 5.33334ZM1.33334 13.05V2.66667C1.33334 2.3 1.46401 1.986 1.72534 1.72467C1.98623 1.46378 2.30001 1.33334 2.66668 1.33334H13.3333C13.7 1.33334 14.014 1.46378 14.2753 1.72467C14.5362 1.986 14.6667 2.3 14.6667 2.66667V10.6667C14.6667 11.0333 14.5362 11.3473 14.2753 11.6087C14.014 11.8696 13.7 12 13.3333 12H4.00001L2.46668 13.5333C2.25557 13.7444 2.01379 13.7916 1.74134 13.6747C1.46934 13.5582 1.33334 13.35 1.33334 13.05Z" fill="black"/>
</svg>
