<svg width="16" height="16" viewBox="0 0 16 16" fill="none" xmlns="http://www.w3.org/2000/svg">
<path d="M7.99997 9.33325C9.10664 9.33325 9.99997 8.43992 9.99997 7.33325V3.33325C9.99997 2.22659 9.10664 1.33325 7.99997 1.33325C6.8933 1.33325 5.99997 2.22659 5.99997 3.33325V7.33325C5.99997 8.43992 6.8933 9.33325 7.99997 9.33325ZM11.94 7.33325C11.6133 7.33325 11.34 7.57325 11.2866 7.89992C11.0133 9.46659 9.64664 10.6666 7.99997 10.6666C6.3533 10.6666 4.98664 9.46659 4.7133 7.89992C4.65997 7.57325 4.38664 7.33325 4.05997 7.33325C3.6533 7.33325 3.3333 7.69325 3.3933 8.09325C3.71997 10.0933 5.31997 11.6599 7.3333 11.9466V13.3333C7.3333 13.6999 7.6333 13.9999 7.99997 13.9999C8.36664 13.9999 8.66664 13.6999 8.66664 13.3333V11.9466C10.68 11.6599 12.28 10.0933 12.6066 8.09325C12.6733 7.69325 12.3466 7.33325 11.94 7.33325Z" fill="black"/>
</svg>
