<svg width="16" height="16" viewBox="0 0 16 16" fill="none" xmlns="http://www.w3.org/2000/svg">
<path d="M8.00002 9.33337C7.44446 9.33337 6.97224 9.13893 6.58335 8.75004C6.19446 8.36115 6.00002 7.88893 6.00002 7.33337V3.33337C6.00002 2.77782 6.19446 2.3056 6.58335 1.91671C6.97224 1.52782 7.44446 1.33337 8.00002 1.33337C8.55557 1.33337 9.0278 1.52782 9.41669 1.91671C9.80557 2.3056 10 2.77782 10 3.33337V7.33337C10 7.88893 9.80557 8.36115 9.41669 8.75004C9.0278 9.13893 8.55557 9.33337 8.00002 9.33337ZM8.00002 14C7.81113 14 7.65291 13.936 7.52535 13.808C7.39735 13.6805 7.33335 13.5223 7.33335 13.3334V11.95C6.30002 11.8056 5.42224 11.3723 4.70002 10.65C3.9778 9.92782 3.53891 9.06115 3.38335 8.05004C3.35002 7.86115 3.40002 7.69449 3.53335 7.55004C3.66669 7.4056 3.84446 7.33337 4.06669 7.33337C4.22224 7.33337 4.36113 7.3916 4.48335 7.50804C4.60557 7.62493 4.68335 7.76671 4.71669 7.93337C4.86113 8.71115 5.23891 9.36115 5.85002 9.88337C6.46113 10.4056 7.1778 10.6667 8.00002 10.6667C8.82224 10.6667 9.53891 10.4056 10.15 9.88337C10.7611 9.36115 11.1389 8.71115 11.2834 7.93337C11.3167 7.76671 11.3974 7.62493 11.5254 7.50804C11.6529 7.3916 11.7945 7.33337 11.95 7.33337C12.1611 7.33337 12.3334 7.4056 12.4667 7.55004C12.6 7.69449 12.65 7.86115 12.6167 8.05004C12.4611 9.06115 12.0222 9.92782 11.3 10.65C10.5778 11.3723 9.70002 11.8056 8.66669 11.95V13.3334C8.66669 13.5223 8.60291 13.6805 8.47535 13.808C8.34735 13.936 8.18891 14 8.00002 14ZM8.00002 8.00004C8.18891 8.00004 8.34735 7.93604 8.47535 7.80804C8.60291 7.68049 8.66669 7.52226 8.66669 7.33337V3.33337C8.66669 3.14449 8.60291 2.98604 8.47535 2.85804C8.34735 2.73049 8.18891 2.66671 8.00002 2.66671C7.81113 2.66671 7.65291 2.73049 7.52535 2.85804C7.39735 2.98604 7.33335 3.14449 7.33335 3.33337V7.33337C7.33335 7.52226 7.39735 7.68049 7.52535 7.80804C7.65291 7.93604 7.81113 8.00004 8.00002 8.00004Z" fill="black"/>
</svg>
