<svg width="28" height="28" viewBox="0 0 28 28" fill="none" xmlns="http://www.w3.org/2000/svg">
<path d="M14 16.3333C15.9366 16.3333 17.5 14.7699 17.5 12.8333V5.83325C17.5 3.89659 15.9366 2.33325 14 2.33325C12.0633 2.33325 10.5 3.89659 10.5 5.83325V12.8333C10.5 14.7699 12.0633 16.3333 14 16.3333ZM20.895 12.8333C20.3233 12.8333 19.845 13.2533 19.7516 13.8249C19.2733 16.5666 16.8816 18.6666 14 18.6666C11.1183 18.6666 8.72663 16.5666 8.2483 13.8249C8.15496 13.2533 7.67663 12.8333 7.10496 12.8333C6.3933 12.8333 5.8333 13.4633 5.9383 14.1633C6.50996 17.6633 9.30996 20.4049 12.8333 20.9066V23.3333C12.8333 23.9749 13.3583 24.4999 14 24.4999C14.6416 24.4999 15.1666 23.9749 15.1666 23.3333V20.9066C18.69 20.4049 21.49 17.6633 22.0616 14.1633C22.1783 13.4633 21.6066 12.8333 20.895 12.8333Z" fill="black"/>
</svg>
