<svg width="24" height="24" viewBox="0 0 24 24" fill="none" xmlns="http://www.w3.org/2000/svg">
<path d="M12 14C11.1667 14 10.4583 13.7083 9.875 13.125C9.29166 12.5417 9 11.8333 9 11V5C9 4.16667 9.29166 3.45833 9.875 2.875C10.4583 2.29167 11.1667 2 12 2C12.8333 2 13.5417 2.29167 14.125 2.875C14.7083 3.45833 15 4.16667 15 5V11C15 11.8333 14.7083 12.5417 14.125 13.125C13.5417 13.7083 12.8333 14 12 14ZM12 21C11.7167 21 11.4793 20.904 11.288 20.712C11.096 20.5207 11 20.2833 11 20V17.925C9.45 17.7083 8.13333 17.0583 7.05 15.975C5.96666 14.8917 5.30833 13.5917 5.075 12.075C5.025 11.7917 5.1 11.5417 5.3 11.325C5.5 11.1083 5.76666 11 6.1 11C6.33333 11 6.54166 11.0873 6.725 11.262C6.90833 11.4373 7.025 11.65 7.075 11.9C7.29166 13.0667 7.85833 14.0417 8.775 14.825C9.69166 15.6083 10.7667 16 12 16C13.2333 16 14.3083 15.6083 15.225 14.825C16.1417 14.0417 16.7083 13.0667 16.925 11.9C16.975 11.65 17.096 11.4373 17.288 11.262C17.4793 11.0873 17.6917 11 17.925 11C18.2417 11 18.5 11.1083 18.7 11.325C18.9 11.5417 18.975 11.7917 18.925 12.075C18.6917 13.5917 18.0333 14.8917 16.95 15.975C15.8667 17.0583 14.55 17.7083 13 17.925V20C13 20.2833 12.9043 20.5207 12.713 20.712C12.521 20.904 12.2833 21 12 21ZM12 12C12.2833 12 12.521 11.904 12.713 11.712C12.9043 11.5207 13 11.2833 13 11V5C13 4.71667 12.9043 4.479 12.713 4.287C12.521 4.09567 12.2833 4 12 4C11.7167 4 11.4793 4.09567 11.288 4.287C11.096 4.479 11 4.71667 11 5V11C11 11.2833 11.096 11.5207 11.288 11.712C11.4793 11.904 11.7167 12 12 12Z" fill="black"/>
</svg>
