<svg width="28" height="28" viewBox="0 0 28 28" fill="none" xmlns="http://www.w3.org/2000/svg">
<path d="M14 16.3334C13.0278 16.3334 12.2014 15.9931 11.5208 15.3125C10.8403 14.632 10.5 13.8056 10.5 12.8334V5.83337C10.5 4.86115 10.8403 4.03476 11.5208 3.35421C12.2014 2.67365 13.0278 2.33337 14 2.33337C14.9722 2.33337 15.7986 2.67365 16.4792 3.35421C17.1597 4.03476 17.5 4.86115 17.5 5.83337V12.8334C17.5 13.8056 17.1597 14.632 16.4792 15.3125C15.7986 15.9931 14.9722 16.3334 14 16.3334ZM14 24.5C13.6694 24.5 13.3925 24.388 13.1693 24.164C12.9453 23.9408 12.8333 23.6639 12.8333 23.3334V20.9125C11.025 20.6598 9.48888 19.9014 8.22499 18.6375C6.9611 17.3737 6.19304 15.857 5.92082 14.0875C5.86249 13.757 5.94999 13.4653 6.18332 13.2125C6.41665 12.9598 6.72776 12.8334 7.11665 12.8334C7.38888 12.8334 7.63193 12.9353 7.84582 13.139C8.05971 13.3436 8.19582 13.5917 8.25415 13.8834C8.50693 15.2445 9.16804 16.382 10.2375 17.2959C11.3069 18.2098 12.5611 18.6667 14 18.6667C15.4389 18.6667 16.693 18.2098 17.7625 17.2959C18.8319 16.382 19.493 15.2445 19.7458 13.8834C19.8042 13.5917 19.9453 13.3436 20.1693 13.139C20.3925 12.9353 20.6403 12.8334 20.9125 12.8334C21.2819 12.8334 21.5833 12.9598 21.8167 13.2125C22.05 13.4653 22.1375 13.757 22.0792 14.0875C21.8069 15.857 21.0389 17.3737 19.775 18.6375C18.5111 19.9014 16.975 20.6598 15.1667 20.9125V23.3334C15.1667 23.6639 15.055 23.9408 14.8318 24.164C14.6078 24.388 14.3305 24.5 14 24.5ZM14 14C14.3305 14 14.6078 13.888 14.8318 13.664C15.055 13.4408 15.1667 13.1639 15.1667 12.8334V5.83337C15.1667 5.50282 15.055 5.22554 14.8318 5.00154C14.6078 4.77832 14.3305 4.66671 14 4.66671C13.6694 4.66671 13.3925 4.77832 13.1693 5.00154C12.9453 5.22554 12.8333 5.50282 12.8333 5.83337V12.8334C12.8333 13.1639 12.9453 13.4408 13.1693 13.664C13.3925 13.888 13.6694 14 14 14Z" fill="black"/>
</svg>
