<svg width="16" height="16" viewBox="0 0 16 16" fill="none" xmlns="http://www.w3.org/2000/svg">
<path d="M11.2 9.71683C11.0445 9.62794 10.9445 9.49183 10.9 9.3085C10.8556 9.12516 10.8778 8.95572 10.9667 8.80016C11.0445 8.67794 11.1083 8.54739 11.1583 8.4085C11.2083 8.26961 11.2445 8.12794 11.2667 7.9835C11.3111 7.79461 11.3972 7.63905 11.525 7.51683C11.6528 7.39461 11.8111 7.3335 12 7.3335C12.1889 7.3335 12.3445 7.40016 12.4667 7.5335C12.5889 7.66683 12.6389 7.82794 12.6167 8.01683C12.5833 8.27239 12.525 8.52239 12.4417 8.76683C12.3583 9.01127 12.25 9.24461 12.1167 9.46683C12.0278 9.62239 11.8917 9.72516 11.7083 9.77516C11.525 9.82516 11.3556 9.80572 11.2 9.71683ZM8.00001 1.3335C8.55556 1.3335 9.02779 1.52794 9.41668 1.91683C9.80556 2.30572 10 2.77794 10 3.3335V6.50016C10 6.72239 9.93056 6.88905 9.79168 7.00016C9.65279 7.11127 9.50001 7.16683 9.33334 7.16683C9.16668 7.16683 9.0139 7.1085 8.87501 6.99183C8.73612 6.87516 8.66668 6.70572 8.66668 6.4835V3.3335C8.66668 3.14461 8.60279 2.98627 8.47501 2.8585C8.34723 2.73072 8.1889 2.66683 8.00001 2.66683C7.81112 2.66683 7.65279 2.73072 7.52501 2.8585C7.39723 2.98627 7.33334 3.14461 7.33334 3.3335V3.8335C7.33334 4.05572 7.2639 4.22239 7.12501 4.3335C6.98612 4.44461 6.83334 4.50016 6.66668 4.50016C6.50001 4.50016 6.34723 4.44183 6.20834 4.32516C6.06945 4.2085 6.00001 4.03905 6.00001 3.81683V3.3335C6.00001 2.77794 6.19445 2.30572 6.58334 1.91683C6.97223 1.52794 7.44445 1.3335 8.00001 1.3335ZM7.33334 13.3335V11.9502C6.31112 11.8168 5.43612 11.3863 4.70834 10.6585C3.98056 9.93072 3.5389 9.05016 3.38334 8.01683C3.36112 7.82794 3.41112 7.66683 3.53334 7.5335C3.65556 7.40016 3.81112 7.3335 4.00001 7.3335C4.1889 7.3335 4.35001 7.39739 4.48334 7.52516C4.61667 7.65294 4.70001 7.81127 4.73334 8.00016C4.8889 8.78905 5.27223 9.43072 5.88334 9.92516C6.49445 10.4196 7.20001 10.6668 8.00001 10.6668C8.37779 10.6668 8.73612 10.6085 9.07501 10.4918C9.4139 10.3752 9.72223 10.2113 10 10.0002L10.95 10.9502C10.6278 11.2057 10.275 11.4224 9.89167 11.6002C9.50834 11.7779 9.10001 11.8946 8.66668 11.9502V13.3335C8.66668 13.5224 8.60279 13.6807 8.47501 13.8085C8.34723 13.9363 8.1889 14.0002 8.00001 14.0002C7.81112 14.0002 7.65279 13.9363 7.52501 13.8085C7.39723 13.6807 7.33334 13.5224 7.33334 13.3335ZM12.7333 14.6002L1.40001 3.26683C1.27779 3.14461 1.21667 2.98905 1.21667 2.80016C1.21667 2.61127 1.27779 2.45572 1.40001 2.3335C1.52223 2.21127 1.67779 2.15016 1.86667 2.15016C2.05556 2.15016 2.21112 2.21127 2.33334 2.3335L13.6667 13.6668C13.7889 13.7891 13.85 13.9446 13.85 14.1335C13.85 14.3224 13.7889 14.4779 13.6667 14.6002C13.5445 14.7224 13.3889 14.7835 13.2 14.7835C13.0111 14.7835 12.8556 14.7224 12.7333 14.6002Z" fill="black"/>
</svg>
