<svg width="28" height="28" viewBox="0 0 28 28" fill="none" xmlns="http://www.w3.org/2000/svg">
<path d="M19.6 17.0043C19.3278 16.8488 19.1528 16.6106 19.075 16.2897C18.9972 15.9689 19.0361 15.6724 19.1917 15.4002C19.3278 15.1863 19.4396 14.9578 19.5271 14.7147C19.6146 14.4717 19.6778 14.2238 19.7167 13.971C19.7944 13.6404 19.9451 13.3682 20.1687 13.1543C20.3923 12.9404 20.6694 12.8335 21 12.8335C21.3305 12.8335 21.6028 12.9502 21.8167 13.1835C22.0305 13.4168 22.118 13.6988 22.0792 14.0293C22.0208 14.4766 21.9187 14.9141 21.7729 15.3418C21.6271 15.7696 21.4375 16.1779 21.2042 16.5668C21.0486 16.8391 20.8104 17.0189 20.4896 17.1064C20.1687 17.1939 19.8722 17.1599 19.6 17.0043ZM14 2.3335C14.9722 2.3335 15.7986 2.67377 16.4792 3.35433C17.1597 4.03489 17.5 4.86127 17.5 5.8335V11.3752C17.5 11.7641 17.3785 12.0557 17.1354 12.2502C16.8923 12.4446 16.625 12.5418 16.3333 12.5418C16.0417 12.5418 15.7743 12.4397 15.5312 12.2356C15.2882 12.0314 15.1667 11.7349 15.1667 11.346V5.8335C15.1667 5.50294 15.0548 5.22586 14.8312 5.00225C14.6076 4.77864 14.3305 4.66683 14 4.66683C13.6694 4.66683 13.3923 4.77864 13.1687 5.00225C12.9451 5.22586 12.8333 5.50294 12.8333 5.8335V6.7085C12.8333 7.09739 12.7118 7.38905 12.4687 7.5835C12.2257 7.77794 11.9583 7.87516 11.6667 7.87516C11.375 7.87516 11.1076 7.77308 10.8646 7.56891C10.6215 7.36475 10.5 7.06822 10.5 6.67933V5.8335C10.5 4.86127 10.8403 4.03489 11.5208 3.35433C12.2014 2.67377 13.0278 2.3335 14 2.3335ZM12.8333 23.3335V20.9127C11.0444 20.6793 9.51318 19.9259 8.23957 18.6522C6.96596 17.3786 6.19304 15.8377 5.92082 14.0293C5.88193 13.6988 5.96943 13.4168 6.18332 13.1835C6.39721 12.9502 6.66943 12.8335 6.99998 12.8335C7.33054 12.8335 7.61248 12.9453 7.84582 13.1689C8.07915 13.3925 8.22498 13.6696 8.28332 14.0002C8.55554 15.3807 9.22637 16.5036 10.2958 17.3689C11.3653 18.2342 12.6 18.6668 14 18.6668C14.6611 18.6668 15.2882 18.5647 15.8812 18.3606C16.4743 18.1564 17.0139 17.8696 17.5 17.5002L19.1625 19.1627C18.5986 19.6099 17.9812 19.9891 17.3104 20.3002C16.6396 20.6113 15.925 20.8154 15.1667 20.9127V23.3335C15.1667 23.6641 15.0548 23.9411 14.8312 24.1647C14.6076 24.3884 14.3305 24.5002 14 24.5002C13.6694 24.5002 13.3923 24.3884 13.1687 24.1647C12.9451 23.9411 12.8333 23.6641 12.8333 23.3335ZM22.2833 25.5502L2.44998 5.71683C2.23609 5.50294 2.12915 5.23072 2.12915 4.90016C2.12915 4.56961 2.23609 4.29739 2.44998 4.0835C2.66387 3.86961 2.93609 3.76266 3.26665 3.76266C3.59721 3.76266 3.86943 3.86961 4.08332 4.0835L23.9167 23.9168C24.1305 24.1307 24.2375 24.4029 24.2375 24.7335C24.2375 25.0641 24.1305 25.3363 23.9167 25.5502C23.7028 25.7641 23.4305 25.871 23.1 25.871C22.7694 25.871 22.4972 25.7641 22.2833 25.5502Z" fill="black"/>
</svg>
