<svg width="24" height="24" viewBox="0 0 24 24" fill="none" xmlns="http://www.w3.org/2000/svg">
<path d="M16.8 14.575C16.5667 14.4417 16.4167 14.2375 16.35 13.9625C16.2833 13.6875 16.3167 13.4333 16.45 13.2C16.5667 13.0167 16.6625 12.8208 16.7375 12.6125C16.8125 12.4042 16.8667 12.1917 16.9 11.975C16.9667 11.6917 17.0958 11.4583 17.2875 11.275C17.4792 11.0917 17.7167 11 18 11C18.2833 11 18.5167 11.1 18.7 11.3C18.8833 11.5 18.9583 11.7417 18.925 12.025C18.875 12.4083 18.7875 12.7833 18.6625 13.15C18.5375 13.5167 18.375 13.8667 18.175 14.2C18.0417 14.4333 17.8375 14.5875 17.5625 14.6625C17.2875 14.7375 17.0333 14.7083 16.8 14.575ZM12 2C12.8333 2 13.5417 2.29167 14.125 2.875C14.7083 3.45833 15 4.16667 15 5V9.75C15 10.0833 14.8958 10.3333 14.6875 10.5C14.4792 10.6667 14.25 10.75 14 10.75C13.75 10.75 13.5208 10.6625 13.3125 10.4875C13.1042 10.3125 13 10.0583 13 9.725V5C13 4.71667 12.9042 4.47917 12.7125 4.2875C12.5208 4.09583 12.2833 4 12 4C11.7167 4 11.4792 4.09583 11.2875 4.2875C11.0958 4.47917 11 4.71667 11 5V5.75C11 6.08333 10.8958 6.33333 10.6875 6.5C10.4792 6.66667 10.25 6.75 10 6.75C9.75001 6.75 9.52085 6.6625 9.31251 6.4875C9.10418 6.3125 9.00001 6.05833 9.00001 5.725V5C9.00001 4.16667 9.29168 3.45833 9.87501 2.875C10.4583 2.29167 11.1667 2 12 2ZM11 20V17.925C9.46668 17.725 8.15418 17.0792 7.06251 15.9875C5.97085 14.8958 5.30835 13.575 5.07501 12.025C5.04168 11.7417 5.11668 11.5 5.30001 11.3C5.48335 11.1 5.71668 11 6.00001 11C6.28335 11 6.52501 11.0958 6.72501 11.2875C6.92501 11.4792 7.05001 11.7167 7.10001 12C7.33335 13.1833 7.90835 14.1458 8.82501 14.8875C9.74168 15.6292 10.8 16 12 16C12.5667 16 13.1042 15.9125 13.6125 15.7375C14.1208 15.5625 14.5833 15.3167 15 15L16.425 16.425C15.9417 16.8083 15.4125 17.1333 14.8375 17.4C14.2625 17.6667 13.65 17.8417 13 17.925V20C13 20.2833 12.9042 20.5208 12.7125 20.7125C12.5208 20.9042 12.2833 21 12 21C11.7167 21 11.4792 20.9042 11.2875 20.7125C11.0958 20.5208 11 20.2833 11 20ZM19.1 21.9L2.10001 4.9C1.91668 4.71667 1.82501 4.48333 1.82501 4.2C1.82501 3.91667 1.91668 3.68333 2.10001 3.5C2.28335 3.31667 2.51668 3.225 2.80001 3.225C3.08335 3.225 3.31668 3.31667 3.50001 3.5L20.5 20.5C20.6833 20.6833 20.775 20.9167 20.775 21.2C20.775 21.4833 20.6833 21.7167 20.5 21.9C20.3167 22.0833 20.0833 22.175 19.8 22.175C19.5167 22.175 19.2833 22.0833 19.1 21.9Z" fill="black"/>
</svg>
