<svg width="24" height="24" viewBox="0 0 24 24" fill="none" xmlns="http://www.w3.org/2000/svg">
<path d="M11.6 23L2.7 21.675C2.15 21.5917 1.70833 21.3292 1.375 20.8875C1.04167 20.4458 0.916665 19.95 0.999998 19.4L3.35 3.575C3.43333 3.025 3.69583 2.5875 4.1375 2.2625C4.57917 1.9375 5.075 1.81667 5.625 1.9L6.325 2C6.60833 2.03333 6.82917 2.1625 6.9875 2.3875C7.14583 2.6125 7.20833 2.86667 7.175 3.15C7.14167 3.43333 7.01667 3.65 6.8 3.8C6.58333 3.95 6.33333 4.00833 6.05 3.975L5.325 3.875L3 19.7L11.9 21L12.175 19.075C12.2083 18.7917 12.3333 18.5708 12.55 18.4125C12.7667 18.2542 13.0167 18.1917 13.3 18.225C13.5833 18.2583 13.8042 18.3875 13.9625 18.6125C14.1208 18.8375 14.1833 19.0917 14.15 19.375L13.875 21.3C13.7917 21.85 13.5292 22.2917 13.0875 22.625C12.6458 22.9583 12.15 23.0833 11.6 23ZM21.825 10.5L16.15 16.175C15.9667 16.3583 15.7375 16.45 15.4625 16.45C15.1875 16.45 14.95 16.35 14.75 16.15C14.55 15.9667 14.45 15.7375 14.45 15.4625C14.45 15.1875 14.55 14.95 14.75 14.75L20.4 9.1C20.6 8.9 20.75 8.67917 20.85 8.4375C20.95 8.19583 21 7.94167 21 7.675C21 7.425 20.95 7.175 20.85 6.925C20.75 6.675 20.6 6.45 20.4 6.25L17.175 3.025H13.1L14.15 3.6C14.4333 3.76667 14.6 4.01667 14.65 4.35C14.7 4.68333 14.6083 4.96667 14.375 5.2L9.075 10.5C8.89167 10.7 8.6625 10.8 8.3875 10.8C8.1125 10.8 7.875 10.7 7.675 10.5C7.49167 10.3167 7.4 10.0833 7.4 9.8C7.4 9.51667 7.49167 9.28333 7.675 9.1L12.05 4.725L10.525 3.875C10.2083 3.69167 9.95833 3.44583 9.775 3.1375C9.59167 2.82917 9.5 2.49167 9.5 2.125V2C9.5 1.71667 9.59583 1.47917 9.7875 1.2875C9.97917 1.09583 10.2167 1 10.5 1H16.75C17.15 1 17.5333 1.07917 17.9 1.2375C18.2667 1.39583 18.5917 1.61667 18.875 1.9L21.825 4.85C22.2083 5.23333 22.4958 5.67083 22.6875 6.1625C22.8792 6.65417 22.975 7.15833 22.975 7.675C22.9917 8.19167 22.9 8.69583 22.7 9.1875C22.5 9.67917 22.2083 10.1167 21.825 10.5ZM8.375 14.025C8.175 13.8417 8.075 13.6125 8.075 13.3375C8.075 13.0625 8.175 12.825 8.375 12.625L12.625 8.375C12.8083 8.19167 13.0375 8.1 13.3125 8.1C13.5875 8.1 13.825 8.19167 14.025 8.375C14.225 8.575 14.3292 8.8125 14.3375 9.0875C14.3458 9.3625 14.25 9.6 14.05 9.8L9.8 14.05C9.61666 14.25 9.38333 14.3458 9.1 14.3375C8.81667 14.3292 8.575 14.225 8.375 14.025ZM11.2 15.45C11.0167 15.25 10.9208 15.0125 10.9125 14.7375C10.9042 14.4625 11 14.225 11.2 14.025L14.75 10.475C14.95 10.275 15.1875 10.175 15.4625 10.175C15.7375 10.175 15.975 10.275 16.175 10.475C16.375 10.675 16.475 10.9125 16.475 11.1875C16.475 11.4625 16.375 11.7 16.175 11.9L12.625 15.45C12.425 15.65 12.1875 15.75 11.9125 15.75C11.6375 15.75 11.4 15.65 11.2 15.45ZM20.5 20.075L18.075 22.475C17.925 22.6083 17.75 22.6792 17.55 22.6875C17.35 22.6958 17.175 22.625 17.025 22.475C16.875 22.325 16.8 22.15 16.8 21.95C16.8 21.75 16.875 21.575 17.025 21.425L19.425 19H17.75C17.5333 19 17.3542 18.9292 17.2125 18.7875C17.0708 18.6458 17 18.4667 17 18.25C17 18.0333 17.0708 17.8542 17.2125 17.7125C17.3542 17.5708 17.5333 17.5 17.75 17.5H21C21.2833 17.5 21.5208 17.5958 21.7125 17.7875C21.9042 17.9792 22 18.2167 22 18.5V21.75C22 21.9667 21.9292 22.1458 21.7875 22.2875C21.6458 22.4292 21.4667 22.5 21.25 22.5C21.0333 22.5 20.8542 22.4292 20.7125 22.2875C20.5708 22.1458 20.5 21.9667 20.5 21.75V20.075Z" fill="black"/>
</svg>
