<svg width="28" height="28" viewBox="0 0 28 28" fill="none" xmlns="http://www.w3.org/2000/svg">
<path d="M13.5333 26.8337L3.15 25.2878C2.50833 25.1906 1.99306 24.8844 1.60417 24.3691C1.21528 23.8538 1.06944 23.2753 1.16667 22.6337L3.90833 4.17116C4.00556 3.52949 4.31181 3.01908 4.82708 2.63991C5.34236 2.26074 5.92083 2.11977 6.5625 2.21699L7.37917 2.33366C7.70972 2.37255 7.96736 2.52324 8.15208 2.78574C8.33681 3.04824 8.40972 3.34477 8.37083 3.67533C8.33194 4.00588 8.18611 4.25866 7.93333 4.43366C7.68056 4.60866 7.38889 4.67671 7.05833 4.63783L6.2125 4.52116L3.5 22.9837L13.8833 24.5003L14.2042 22.2545C14.2431 21.9239 14.3889 21.6663 14.6417 21.4816C14.8944 21.2969 15.1861 21.2239 15.5167 21.2628C15.8472 21.3017 16.1049 21.4524 16.2896 21.7149C16.4743 21.9774 16.5472 22.2739 16.5083 22.6045L16.1875 24.8503C16.0903 25.492 15.784 26.0073 15.2688 26.3962C14.7535 26.785 14.175 26.9309 13.5333 26.8337ZM25.4625 12.2503L18.8417 18.8712C18.6278 19.085 18.3604 19.192 18.0396 19.192C17.7187 19.192 17.4417 19.0753 17.2083 18.842C16.975 18.6281 16.8583 18.3607 16.8583 18.0399C16.8583 17.7191 16.975 17.442 17.2083 17.2087L23.8 10.617C24.0333 10.3837 24.2083 10.126 24.325 9.84408C24.4417 9.56213 24.5 9.2656 24.5 8.95449C24.5 8.66283 24.4417 8.37116 24.325 8.07949C24.2083 7.78783 24.0333 7.52533 23.8 7.29199L20.0375 3.52949H15.2833L16.5083 4.20033C16.8389 4.39477 17.0333 4.68644 17.0917 5.07533C17.15 5.46421 17.0431 5.79477 16.7708 6.06699L10.5875 12.2503C10.3736 12.4837 10.1062 12.6003 9.78542 12.6003C9.46458 12.6003 9.1875 12.4837 8.95417 12.2503C8.74028 12.0364 8.63333 11.7642 8.63333 11.4337C8.63333 11.1031 8.74028 10.8309 8.95417 10.617L14.0583 5.51283L12.2792 4.52116C11.9097 4.30727 11.6181 4.02046 11.4042 3.66074C11.1903 3.30102 11.0833 2.90727 11.0833 2.47949V2.33366C11.0833 2.0031 11.1951 1.72602 11.4187 1.50241C11.6424 1.2788 11.9194 1.16699 12.25 1.16699H19.5417C20.0083 1.16699 20.4556 1.25935 20.8833 1.44408C21.3111 1.6288 21.6903 1.88644 22.0208 2.21699L25.4625 5.65866C25.9097 6.10588 26.2451 6.6163 26.4687 7.18991C26.6924 7.76352 26.8042 8.35171 26.8042 8.95449C26.8236 9.55727 26.7167 10.1455 26.4833 10.7191C26.25 11.2927 25.9097 11.8031 25.4625 12.2503ZM9.77083 16.3628C9.5375 16.1489 9.42083 15.8816 9.42083 15.5607C9.42083 15.2399 9.5375 14.9628 9.77083 14.7295L14.7292 9.77116C14.9431 9.55727 15.2104 9.45033 15.5312 9.45033C15.8521 9.45033 16.1292 9.55727 16.3625 9.77116C16.5958 10.0045 16.7174 10.2816 16.7271 10.6024C16.7368 10.9232 16.625 11.2003 16.3917 11.4337L11.4333 16.392C11.2194 16.6253 10.9472 16.7371 10.6167 16.7274C10.2861 16.7177 10.0042 16.5962 9.77083 16.3628ZM13.0667 18.0253C12.8528 17.792 12.741 17.5149 12.7312 17.1941C12.7215 16.8732 12.8333 16.5962 13.0667 16.3628L17.2083 12.2212C17.4417 11.9878 17.7187 11.8712 18.0396 11.8712C18.3604 11.8712 18.6375 11.9878 18.8708 12.2212C19.1042 12.4545 19.2208 12.7316 19.2208 13.0524C19.2208 13.3732 19.1042 13.6503 18.8708 13.8837L14.7292 18.0253C14.4958 18.2587 14.2188 18.3753 13.8979 18.3753C13.5771 18.3753 13.3 18.2587 13.0667 18.0253ZM23.9167 23.4212L21.0875 26.2212C20.9125 26.3767 20.7083 26.4594 20.475 26.4691C20.2417 26.4788 20.0375 26.3962 19.8625 26.2212C19.6875 26.0462 19.6 25.842 19.6 25.6087C19.6 25.3753 19.6875 25.1712 19.8625 24.9962L22.6625 22.167H20.7083C20.4556 22.167 20.2465 22.0844 20.0813 21.9191C19.916 21.7538 19.8333 21.5448 19.8333 21.292C19.8333 21.0392 19.916 20.8302 20.0813 20.6649C20.2465 20.4996 20.4556 20.417 20.7083 20.417H24.5C24.8306 20.417 25.1076 20.5288 25.3313 20.7524C25.5549 20.976 25.6667 21.2531 25.6667 21.5837V25.3753C25.6667 25.6281 25.584 25.8371 25.4187 26.0024C25.2535 26.1677 25.0444 26.2503 24.7917 26.2503C24.5389 26.2503 24.3299 26.1677 24.1646 26.0024C23.9993 25.8371 23.9167 25.6281 23.9167 25.3753V23.4212Z" fill="black"/>
</svg>
