<svg width="16" height="16" viewBox="0 0 16 16" fill="none" xmlns="http://www.w3.org/2000/svg">
<g clip-path="url(#clip0_2370_195)">
<path d="M7.73333 15.3337L1.79999 14.4503C1.43333 14.3948 1.13888 14.2198 0.916661 13.9253C0.694438 13.6309 0.611105 13.3003 0.666661 12.9337L2.23333 2.38366C2.28888 2.01699 2.46388 1.72533 2.75833 1.50866C3.05277 1.29199 3.38333 1.21144 3.74999 1.26699L4.21666 1.33366C4.40555 1.35588 4.55277 1.44199 4.65833 1.59199C4.76388 1.74199 4.80555 1.91144 4.78333 2.10033C4.76111 2.28921 4.67777 2.43366 4.53333 2.53366C4.38888 2.63366 4.22222 2.67255 4.03333 2.65033L3.54999 2.58366L1.99999 13.1337L7.93333 14.0003L8.11666 12.717C8.13888 12.5281 8.22222 12.3809 8.36666 12.2753C8.51111 12.1698 8.67777 12.1281 8.86666 12.1503C9.05555 12.1725 9.20277 12.2587 9.30833 12.4087C9.41388 12.5587 9.45555 12.7281 9.43333 12.917L9.24999 14.2003C9.19444 14.567 9.01944 14.8614 8.72499 15.0837C8.43055 15.3059 8.09999 15.3892 7.73333 15.3337ZM14.55 7.00033L10.7667 10.7837C10.6444 10.9059 10.4917 10.967 10.3083 10.967C10.125 10.967 9.96666 10.9003 9.83333 10.767C9.69999 10.6448 9.63333 10.492 9.63333 10.3087C9.63333 10.1253 9.69999 9.96699 9.83333 9.83366L13.6 6.06699C13.7333 5.93366 13.8333 5.78644 13.9 5.62533C13.9667 5.46421 14 5.29477 14 5.11699C14 4.95033 13.9667 4.78366 13.9 4.61699C13.8333 4.45033 13.7333 4.30033 13.6 4.16699L11.45 2.01699H8.73333L9.43333 2.40033C9.62222 2.51144 9.73333 2.6781 9.76666 2.90033C9.79999 3.12255 9.73888 3.31144 9.58333 3.46699L6.04999 7.00033C5.92777 7.13366 5.77499 7.20033 5.59166 7.20033C5.40833 7.20033 5.24999 7.13366 5.11666 7.00033C4.99444 6.8781 4.93333 6.72255 4.93333 6.53366C4.93333 6.34477 4.99444 6.18921 5.11666 6.06699L8.03333 3.15033L7.01666 2.58366C6.80555 2.46144 6.63888 2.29755 6.51666 2.09199C6.39444 1.88644 6.33333 1.66144 6.33333 1.41699V1.33366C6.33333 1.14477 6.39722 0.986437 6.52499 0.858659C6.65277 0.730881 6.81111 0.666992 6.99999 0.666992H11.1667C11.4333 0.666992 11.6889 0.71977 11.9333 0.825326C12.1778 0.930881 12.3944 1.0781 12.5833 1.26699L14.55 3.23366C14.8056 3.48921 14.9972 3.78088 15.125 4.10866C15.2528 4.43644 15.3167 4.77255 15.3167 5.11699C15.3278 5.46144 15.2667 5.79755 15.1333 6.12533C15 6.4531 14.8056 6.74477 14.55 7.00033ZM5.58333 9.35033C5.44999 9.2281 5.38333 9.07533 5.38333 8.89199C5.38333 8.70866 5.44999 8.55033 5.58333 8.41699L8.41666 5.58366C8.53888 5.46144 8.69166 5.40033 8.87499 5.40033C9.05833 5.40033 9.21666 5.46144 9.34999 5.58366C9.48333 5.71699 9.55277 5.87533 9.55833 6.05866C9.56388 6.24199 9.49999 6.40033 9.36666 6.53366L6.53333 9.36699C6.41111 9.50033 6.25555 9.56421 6.06666 9.55866C5.87777 9.5531 5.71666 9.48366 5.58333 9.35033ZM7.46666 10.3003C7.34444 10.167 7.28055 10.0087 7.27499 9.82533C7.26944 9.64199 7.33333 9.48366 7.46666 9.35033L9.83333 6.98366C9.96666 6.85033 10.125 6.78366 10.3083 6.78366C10.4917 6.78366 10.65 6.85033 10.7833 6.98366C10.9167 7.11699 10.9833 7.27533 10.9833 7.45866C10.9833 7.64199 10.9167 7.80033 10.7833 7.93366L8.41666 10.3003C8.28333 10.4337 8.12499 10.5003 7.94166 10.5003C7.75833 10.5003 7.59999 10.4337 7.46666 10.3003ZM13.6667 13.3837L12.05 14.9837C11.95 15.0725 11.8333 15.1198 11.7 15.1253C11.5667 15.1309 11.45 15.0837 11.35 14.9837C11.25 14.8837 11.2 14.767 11.2 14.6337C11.2 14.5003 11.25 14.3837 11.35 14.2837L12.95 12.667H11.8333C11.6889 12.667 11.5694 12.6198 11.475 12.5253C11.3806 12.4309 11.3333 12.3114 11.3333 12.167C11.3333 12.0225 11.3806 11.9031 11.475 11.8087C11.5694 11.7142 11.6889 11.667 11.8333 11.667H14C14.1889 11.667 14.3472 11.7309 14.475 11.8587C14.6028 11.9864 14.6667 12.1448 14.6667 12.3337V14.5003C14.6667 14.6448 14.6194 14.7642 14.525 14.8587C14.4306 14.9531 14.3111 15.0003 14.1667 15.0003C14.0222 15.0003 13.9028 14.9531 13.8083 14.8587C13.7139 14.7642 13.6667 14.6448 13.6667 14.5003V13.3837Z" fill="black"/>
</g>
<defs>
<clipPath id="clip0_2370_195">
<rect width="16" height="16" fill="white"/>
</clipPath>
</defs>
</svg>
