<svg width="28" height="28" viewBox="0 0 28 28" fill="none" xmlns="http://www.w3.org/2000/svg">
<path d="M6.79583 16.45C6.11527 16.45 5.53699 16.2069 5.06099 15.7208C4.58421 15.2347 4.34583 14.6611 4.34583 14C4.34583 13.3194 4.58421 12.7408 5.06099 12.264C5.53699 11.788 6.11527 11.55 6.79583 11.55C7.45694 11.55 8.02588 11.788 8.50266 12.264C8.97866 12.7408 9.21666 13.3194 9.21666 14C9.21666 14.6611 8.97866 15.2347 8.50266 15.7208C8.02588 16.2069 7.45694 16.45 6.79583 16.45ZM14 16.45C13.3389 16.45 12.7653 16.2069 12.2792 15.7208C11.793 15.2347 11.55 14.6611 11.55 14C11.55 13.3194 11.793 12.7408 12.2792 12.264C12.7653 11.788 13.3389 11.55 14 11.55C14.6805 11.55 15.2592 11.788 15.736 12.264C16.212 12.7408 16.45 13.3194 16.45 14C16.45 14.6611 16.212 15.2347 15.736 15.7208C15.2592 16.2069 14.6805 16.45 14 16.45ZM21.2042 16.45C20.543 16.45 19.9741 16.2069 19.4973 15.7208C19.0213 15.2347 18.7833 14.6611 18.7833 14C18.7833 13.3194 19.0213 12.7408 19.4973 12.264C19.9741 11.788 20.543 11.55 21.2042 11.55C21.8847 11.55 22.4634 11.788 22.9402 12.264C23.4162 12.7408 23.6542 13.3194 23.6542 14C23.6542 14.6611 23.4162 15.2347 22.9402 15.7208C22.4634 16.2069 21.8847 16.45 21.2042 16.45Z" fill="black"/>
</svg>
