<svg width="28" height="28" viewBox="0 0 28 28" fill="none" xmlns="http://www.w3.org/2000/svg">
<path d="M14 23.6542C13.3389 23.6542 12.7653 23.4162 12.2792 22.9402C11.793 22.4634 11.55 21.8847 11.55 21.2042C11.55 20.543 11.793 19.9741 12.2792 19.4973C12.7653 19.0213 13.3389 18.7833 14 18.7833C14.6805 18.7833 15.2592 19.0213 15.736 19.4973C16.212 19.9741 16.45 20.543 16.45 21.2042C16.45 21.8847 16.212 22.4634 15.736 22.9402C15.2592 23.4162 14.6805 23.6542 14 23.6542ZM14 16.45C13.3389 16.45 12.7653 16.2069 12.2792 15.7208C11.793 15.2347 11.55 14.6611 11.55 14C11.55 13.3194 11.793 12.7408 12.2792 12.264C12.7653 11.788 13.3389 11.55 14 11.55C14.6805 11.55 15.2592 11.788 15.736 12.264C16.212 12.7408 16.45 13.3194 16.45 14C16.45 14.6611 16.212 15.2347 15.736 15.7208C15.2592 16.2069 14.6805 16.45 14 16.45V16.45ZM14 9.21666C13.3389 9.21666 12.7653 8.97827 12.2792 8.50149C11.793 8.02549 11.55 7.45694 11.55 6.79583C11.55 6.11527 11.793 5.5366 12.2792 5.05983C12.7653 4.58383 13.3389 4.34583 14 4.34583C14.6805 4.34583 15.2592 4.58383 15.736 5.05983C16.212 5.5366 16.45 6.11527 16.45 6.79583C16.45 7.45694 16.212 8.02549 15.736 8.50149C15.2592 8.97827 14.6805 9.21666 14 9.21666V9.21666Z" fill="black"/>
</svg>
