<svg width="16" height="16" viewBox="0 0 16 16" fill="none" xmlns="http://www.w3.org/2000/svg">
<path d="M8.00001 13.5167C7.62223 13.5167 7.29445 13.3807 7.01667 13.1087C6.73889 12.8362 6.60001 12.5056 6.60001 12.1167C6.60001 11.7389 6.73889 11.4138 7.01667 11.1413C7.29445 10.8693 7.62223 10.7333 8.00001 10.7333C8.3889 10.7333 8.71956 10.8693 8.99201 11.1413C9.26401 11.4138 9.40001 11.7389 9.40001 12.1167C9.40001 12.5056 9.26401 12.8362 8.99201 13.1087C8.71956 13.3807 8.3889 13.5167 8.00001 13.5167ZM8.00001 9.4C7.62223 9.4 7.29445 9.26112 7.01667 8.98334C6.73889 8.70556 6.60001 8.37778 6.60001 8C6.60001 7.61112 6.73889 7.28045 7.01667 7.008C7.29445 6.736 7.62223 6.6 8.00001 6.6C8.3889 6.6 8.71956 6.736 8.99201 7.008C9.26401 7.28045 9.40001 7.61112 9.40001 8C9.40001 8.37778 9.26401 8.70556 8.99201 8.98334C8.71956 9.26112 8.3889 9.4 8.00001 9.4V9.4ZM8.00001 5.26667C7.62223 5.26667 7.29445 5.13045 7.01667 4.858C6.73889 4.586 6.60001 4.26112 6.60001 3.88334C6.60001 3.49445 6.73889 3.16378 7.01667 2.89134C7.29445 2.61934 7.62223 2.48334 8.00001 2.48334C8.3889 2.48334 8.71956 2.61934 8.99201 2.89134C9.26401 3.16378 9.40001 3.49445 9.40001 3.88334C9.40001 4.26112 9.26401 4.586 8.99201 4.858C8.71956 5.13045 8.3889 5.26667 8.00001 5.26667V5.26667Z" fill="black"/>
</svg>
