<svg width="24" height="24" viewBox="0 0 24 24" fill="none" xmlns="http://www.w3.org/2000/svg">
<path d="M5.82501 14.1C5.24167 14.1 4.74601 13.8917 4.33801 13.475C3.92934 13.0584 3.72501 12.5667 3.72501 12C3.72501 11.4167 3.92934 10.9207 4.33801 10.512C4.74601 10.104 5.24167 9.90002 5.82501 9.90002C6.39167 9.90002 6.87934 10.104 7.28801 10.512C7.69601 10.9207 7.90001 11.4167 7.90001 12C7.90001 12.5667 7.69601 13.0584 7.28801 13.475C6.87934 13.8917 6.39167 14.1 5.82501 14.1ZM12 14.1C11.4333 14.1 10.9417 13.8917 10.525 13.475C10.1083 13.0584 9.90001 12.5667 9.90001 12C9.90001 11.4167 10.1083 10.9207 10.525 10.512C10.9417 10.104 11.4333 9.90002 12 9.90002C12.5833 9.90002 13.0793 10.104 13.488 10.512C13.896 10.9207 14.1 11.4167 14.1 12C14.1 12.5667 13.896 13.0584 13.488 13.475C13.0793 13.8917 12.5833 14.1 12 14.1ZM18.175 14.1C17.6083 14.1 17.1207 13.8917 16.712 13.475C16.304 13.0584 16.1 12.5667 16.1 12C16.1 11.4167 16.304 10.9207 16.712 10.512C17.1207 10.104 17.6083 9.90002 18.175 9.90002C18.7583 9.90002 19.2543 10.104 19.663 10.512C20.071 10.9207 20.275 11.4167 20.275 12C20.275 12.5667 20.071 13.0584 19.663 13.475C19.2543 13.8917 18.7583 14.1 18.175 14.1Z" fill="black"/>
</svg>
