<svg width="24" height="24" viewBox="0 0 24 24" fill="none" xmlns="http://www.w3.org/2000/svg">
<path d="M12 20.275C11.4333 20.275 10.9417 20.071 10.525 19.663C10.1083 19.2543 9.89999 18.7583 9.89999 18.175C9.89999 17.6083 10.1083 17.1206 10.525 16.712C10.9417 16.304 11.4333 16.1 12 16.1C12.5833 16.1 13.0793 16.304 13.488 16.712C13.896 17.1206 14.1 17.6083 14.1 18.175C14.1 18.7583 13.896 19.2543 13.488 19.663C13.0793 20.071 12.5833 20.275 12 20.275ZM12 14.1C11.4333 14.1 10.9417 13.8916 10.525 13.475C10.1083 13.0583 9.89999 12.5666 9.89999 12C9.89999 11.4166 10.1083 10.9206 10.525 10.512C10.9417 10.104 11.4333 9.89998 12 9.89998C12.5833 9.89998 13.0793 10.104 13.488 10.512C13.896 10.9206 14.1 11.4166 14.1 12C14.1 12.5666 13.896 13.0583 13.488 13.475C13.0793 13.8916 12.5833 14.1 12 14.1ZM12 7.89998C11.4333 7.89998 10.9417 7.69564 10.525 7.28698C10.1083 6.87898 9.89999 6.39164 9.89999 5.82498C9.89999 5.24164 10.1083 4.74564 10.525 4.33698C10.9417 3.92898 11.4333 3.72498 12 3.72498C12.5833 3.72498 13.0793 3.92898 13.488 4.33698C13.896 4.74564 14.1 5.24164 14.1 5.82498C14.1 6.39164 13.896 6.87898 13.488 7.28698C13.0793 7.69564 12.5833 7.89998 12 7.89998Z" fill="black"/>
</svg>
