<svg width="16" height="16" viewBox="0 0 16 16" fill="none" xmlns="http://www.w3.org/2000/svg">
<path d="M3.88334 9.39998C3.49445 9.39998 3.164 9.26109 2.892 8.98331C2.61956 8.70553 2.48334 8.37775 2.48334 7.99998C2.48334 7.61109 2.61956 7.28042 2.892 7.00798C3.164 6.73598 3.49445 6.59998 3.88334 6.59998C4.26112 6.59998 4.58623 6.73598 4.85867 7.00798C5.13067 7.28042 5.26667 7.61109 5.26667 7.99998C5.26667 8.37775 5.13067 8.70553 4.85867 8.98331C4.58623 9.26109 4.26112 9.39998 3.88334 9.39998ZM8 9.39998C7.62223 9.39998 7.29445 9.26109 7.01667 8.98331C6.73889 8.70553 6.6 8.37775 6.6 7.99998C6.6 7.61109 6.73889 7.28042 7.01667 7.00798C7.29445 6.73598 7.62223 6.59998 8 6.59998C8.38889 6.59998 8.71956 6.73598 8.992 7.00798C9.264 7.28042 9.4 7.61109 9.4 7.99998C9.4 8.37775 9.264 8.70553 8.992 8.98331C8.71956 9.26109 8.38889 9.39998 8 9.39998ZM12.1167 9.39998C11.7389 9.39998 11.4138 9.26109 11.1413 8.98331C10.8693 8.70553 10.7333 8.37775 10.7333 7.99998C10.7333 7.61109 10.8693 7.28042 11.1413 7.00798C11.4138 6.73598 11.7389 6.59998 12.1167 6.59998C12.5056 6.59998 12.8362 6.73598 13.1087 7.00798C13.3807 7.28042 13.5167 7.61109 13.5167 7.99998C13.5167 8.37775 13.3807 8.70553 13.1087 8.98331C12.8362 9.26109 12.5056 9.39998 12.1167 9.39998Z" fill="black"/>
</svg>
