<svg width="24" height="24" viewBox="0 0 24 24" fill="none" xmlns="http://www.w3.org/2000/svg">
<path d="M17.25 3H6.75C5.75544 3 4.80161 3.39509 4.09835 4.09835C3.39509 4.80161 3 5.75544 3 6.75V17.25C3 18.2446 3.39509 19.1984 4.09835 19.9017C4.80161 20.6049 5.75544 21 6.75 21H17.25C18.2446 21 19.1984 20.6049 19.9017 19.9017C20.6049 19.1984 21 18.2446 21 17.25V6.75C21 5.75544 20.6049 4.80161 19.9017 4.09835C19.1984 3.39509 18.2446 3 17.25 3V3ZM7.2525 5.7525C7.5978 5.75398 7.93492 5.85773 8.22131 6.05065C8.50769 6.24356 8.73051 6.517 8.86162 6.83644C8.99274 7.15588 9.02628 7.50701 8.958 7.84549C8.88973 8.18398 8.72271 8.49465 8.47802 8.7383C8.23333 8.98194 7.92195 9.14763 7.58317 9.21445C7.2444 9.28127 6.89342 9.24623 6.57454 9.11375C6.25566 8.98127 5.98318 8.75729 5.79149 8.47007C5.59981 8.18286 5.4975 7.8453 5.4975 7.5C5.4975 7.26988 5.54295 7.04203 5.63123 6.82952C5.71952 6.61702 5.84891 6.42404 6.01198 6.26167C6.17505 6.0993 6.36857 5.97074 6.58146 5.88336C6.79434 5.79598 7.02238 5.75151 7.2525 5.7525ZM18.5025 17.0475C18.5025 17.2386 18.4649 17.4278 18.3917 17.6043C18.3186 17.7808 18.2114 17.9412 18.0763 18.0763C17.9412 18.2114 17.7808 18.3186 17.6043 18.3917C17.4278 18.4649 17.2386 18.5025 17.0475 18.5025H6.9525C6.76143 18.5025 6.57222 18.4649 6.3957 18.3917C6.21917 18.3186 6.05877 18.2114 5.92366 18.0763C5.78855 17.9412 5.68138 17.7808 5.60826 17.6043C5.53513 17.4278 5.4975 17.2386 5.4975 17.0475V12.45C5.4975 12.0641 5.65079 11.694 5.92366 11.4212C6.19653 11.1483 6.56661 10.995 6.9525 10.995H17.0475C17.2386 10.995 17.4278 11.0326 17.6043 11.1058C17.7808 11.1789 17.9412 11.2861 18.0763 11.4212C18.2114 11.5563 18.3186 11.7167 18.3917 11.8932C18.4649 12.0697 18.5025 12.2589 18.5025 12.45V17.0475ZM17.625 8.3775H11.8725C11.6398 8.3775 11.4166 8.28505 11.252 8.12049C11.0875 7.95592 10.995 7.73273 10.995 7.5C10.995 7.26727 11.0875 7.04408 11.252 6.87951C11.4166 6.71495 11.6398 6.6225 11.8725 6.6225H17.625C17.8577 6.6225 18.0809 6.71495 18.2455 6.87951C18.41 7.04408 18.5025 7.26727 18.5025 7.5C18.5025 7.73273 18.41 7.95592 18.2455 8.12049C18.0809 8.28505 17.8577 8.3775 17.625 8.3775V8.3775Z" fill="black"/>
</svg>
