<svg width="16" height="16" viewBox="0 0 16 16" fill="none" xmlns="http://www.w3.org/2000/svg">
<path d="M11.5 2H4.5C3.83696 2 3.20107 2.26339 2.73223 2.73223C2.26339 3.20107 2 3.83696 2 4.5V11.5C2 12.163 2.26339 12.7989 2.73223 13.2678C3.20107 13.7366 3.83696 14 4.5 14H11.5C12.163 14 12.7989 13.7366 13.2678 13.2678C13.7366 12.7989 14 12.163 14 11.5V4.5C14 3.83696 13.7366 3.20107 13.2678 2.73223C12.7989 2.26339 12.163 2 11.5 2ZM4.5 3H11.5C11.8978 3 12.2794 3.15804 12.5607 3.43934C12.842 3.72064 13 4.10218 13 4.5V7.34H3V4.5C3 4.10218 3.15804 3.72064 3.43934 3.43934C3.72064 3.15804 4.10218 3 4.5 3ZM11.5 13H4.5C4.10218 13 3.72064 12.842 3.43934 12.5607C3.15804 12.2794 3 11.8978 3 11.5V8.34H13V11.5C13 11.8978 12.842 12.2794 12.5607 12.5607C12.2794 12.842 11.8978 13 11.5 13Z" fill="black"/>
<path d="M5.17 4H5.165C4.52159 4 4 4.52159 4 5.165V5.17C4 5.81341 4.52159 6.335 5.165 6.335H5.17C5.81341 6.335 6.335 5.81341 6.335 5.17V5.165C6.335 4.52159 5.81341 4 5.17 4Z" fill="black"/>
<path d="M11.325 4.49H8.01C7.63721 4.49 7.335 4.79221 7.335 5.165V5.17C7.335 5.54279 7.63721 5.845 8.01 5.845H11.325C11.6978 5.845 12 5.54279 12 5.17V5.165C12 4.79221 11.6978 4.49 11.325 4.49Z" fill="black"/>
</svg>
