<svg width="24" height="24" viewBox="0 0 24 24" fill="none" xmlns="http://www.w3.org/2000/svg">
<path fill-rule="evenodd" clip-rule="evenodd" d="M20.4853 20.4853C20.8758 20.8758 20.8758 21.509 20.4853 21.8995C20.0948 22.29 19.4616 22.29 19.0711 21.8995L18.167 20.9954C18.1117 20.9985 18.056 21 18 21H6C4.34315 21 3 19.6569 3 18V6C3 5.94396 3.00154 5.88828 3.00457 5.833L2.10051 4.92894C1.70999 4.53841 1.70999 3.90525 2.10051 3.51472C2.49103 3.1242 3.1242 3.1242 3.51472 3.51472L20.4853 20.4853ZM5 7.82843V11H8.17157L5 7.82843ZM10.1716 13H5V18C5 18.5523 5.44772 19 6 19H16.1716L10.1716 13Z" fill="black"/>
<path d="M19 11H13.3983L15.3983 13H19V16.6017L20.9495 18.5512C20.9827 18.3725 21 18.1883 21 18V6C21 4.34315 19.6569 3 18 3H6C5.81172 3 5.6275 3.01734 5.44884 3.05052L7.39831 5H18C18.5523 5 19 5.44772 19 6V11Z" fill="black"/>
<path d="M11 8C11 7.44772 11.4477 7 12 7H16C16.5523 7 17 7.44772 17 8C17 8.55228 16.5523 9 16 9H12C11.4477 9 11 8.55228 11 8Z" fill="black"/>
</svg>
