<svg width="24" height="24" viewBox="0 0 24 24" fill="none" xmlns="http://www.w3.org/2000/svg">
<path d="M3 6C3 4.34315 4.34315 3 6 3H18C19.6569 3 21 4.34315 21 6V18C21 19.6569 19.6569 21 18 21H6C4.34315 21 3 19.6569 3 18V6ZM5 13V18C5 18.5523 5.44772 19 6 19H18C18.5523 19 19 18.5523 19 18V13H5ZM9 8C9 7.17157 8.32843 6.5 7.5 6.5C6.67157 6.5 6 7.17157 6 8C6 8.82843 6.67157 9.5 7.5 9.5C8.32843 9.5 9 8.82843 9 8ZM12 7C11.4477 7 11 7.44772 11 8C11 8.55229 11.4477 9 12 9H16.5C17.0523 9 17.5 8.55229 17.5 8C17.5 7.44772 17.0523 7 16.5 7H12Z" fill="black"/>
</svg>
