<svg width="16" height="16" viewBox="0 0 16 16" fill="none" xmlns="http://www.w3.org/2000/svg">
<path d="M2 4C2 2.89543 2.89543 2 4 2H12C13.1046 2 14 2.89543 14 4V12C14 13.1046 13.1046 14 12 14H4C2.89543 14 2 13.1046 2 12V4ZM3.33333 8.66667V12C3.33333 12.3682 3.63181 12.6667 4 12.6667H12C12.3682 12.6667 12.6667 12.3682 12.6667 12V8.66667H3.33333ZM6 5.33333C6 4.78105 5.55228 4.33333 5 4.33333C4.44772 4.33333 4 4.78105 4 5.33333C4 5.88562 4.44772 6.33333 5 6.33333C5.55228 6.33333 6 5.88562 6 5.33333ZM8 4.66667C7.63181 4.66667 7.33333 4.96514 7.33333 5.33333C7.33333 5.70152 7.63181 6 8 6H11C11.3682 6 11.6667 5.70152 11.6667 5.33333C11.6667 4.96514 11.3682 4.66667 11 4.66667H8Z" fill="black"/>
</svg>
