<svg width="16" height="16" viewBox="0 0 16 16" fill="none" xmlns="http://www.w3.org/2000/svg">
<path fill-rule="evenodd" clip-rule="evenodd" d="M13.6569 13.6569C13.9172 13.9172 13.9172 14.3393 13.6569 14.5997C13.3965 14.86 12.9744 14.86 12.714 14.5997L12.1113 13.997C12.0745 13.999 12.0374 14 12 14H4C2.89543 14 2 13.1046 2 12V4C2 3.96264 2.00102 3.92552 2.00305 3.88866L1.40034 3.28596C1.13999 3.02561 1.13999 2.6035 1.40034 2.34315C1.66069 2.0828 2.0828 2.0828 2.34315 2.34315L13.6569 13.6569ZM3.33333 5.21895V7.33333H5.44772L3.33333 5.21895ZM6.78105 8.66667H3.33333V12C3.33333 12.3682 3.63181 12.6667 4 12.6667H10.781L6.78105 8.66667Z" fill="black"/>
<path d="M12.6667 7.33333H8.93221L10.2655 8.66667H12.6667V11.0678L13.9663 12.3674C13.9884 12.2483 14 12.1255 14 12V4C14 2.89543 13.1046 2 12 2H4C3.87448 2 3.75167 2.01156 3.63256 2.03368L4.93221 3.33333H12C12.3682 3.33333 12.6667 3.63181 12.6667 4V7.33333Z" fill="black"/>
<path d="M7.33333 5.33333C7.33333 4.96514 7.63181 4.66667 8 4.66667H10.6667C11.0349 4.66667 11.3333 4.96514 11.3333 5.33333C11.3333 5.70152 11.0349 6 10.6667 6H8C7.63181 6 7.33333 5.70152 7.33333 5.33333Z" fill="black"/>
</svg>
