<svg width="28" height="28" viewBox="0 0 28 28" fill="none" xmlns="http://www.w3.org/2000/svg">
<path fill-rule="evenodd" clip-rule="evenodd" d="M23.8995 23.8995C24.3551 24.3551 24.3551 25.0938 23.8995 25.5494C23.4439 26.005 22.7052 26.005 22.2496 25.5494L21.1948 24.4947C21.1303 24.4982 21.0654 24.5 21 24.5H7C5.067 24.5 3.5 22.933 3.5 21V7C3.5 6.93462 3.50179 6.86966 3.50533 6.80516L2.4506 5.75043C1.99498 5.29482 1.99498 4.55612 2.4506 4.10051C2.90621 3.6449 3.6449 3.6449 4.10051 4.10051L23.8995 23.8995ZM5.83333 9.13316V12.8333H9.5335L5.83333 9.13316ZM11.8668 15.1667H5.83333V21C5.83333 21.6443 6.35567 22.1667 7 22.1667H18.8668L11.8668 15.1667Z" fill="black"/>
<path d="M22.1667 12.8333H15.6314L17.9647 15.1667H22.1667V19.3686L24.4411 21.643C24.4798 21.4346 24.5 21.2197 24.5 21V7C24.5 5.067 22.933 3.5 21 3.5H7C6.78034 3.5 6.56542 3.52023 6.35698 3.55894L8.63137 5.83333H21C21.6443 5.83333 22.1667 6.35567 22.1667 7V12.8333Z" fill="black"/>
<path d="M12.8333 9.33333C12.8333 8.689 13.3557 8.16667 14 8.16667H18.6667C19.311 8.16667 19.8333 8.689 19.8333 9.33333C19.8333 9.97766 19.311 10.5 18.6667 10.5H14C13.3557 10.5 12.8333 9.97766 12.8333 9.33333Z" fill="black"/>
</svg>
