<svg width="28" height="28" viewBox="0 0 28 28" fill="none" xmlns="http://www.w3.org/2000/svg">
<path d="M11.0833 9.33333C11.0833 10.2998 10.2998 11.0833 9.33333 11.0833C8.36684 11.0833 7.58333 10.2998 7.58333 9.33333C7.58333 8.36684 8.36684 7.58333 9.33333 7.58333C10.2998 7.58333 11.0833 8.36684 11.0833 9.33333Z" fill="black"/>
<path d="M3.5 7C3.5 5.067 5.067 3.5 7 3.5H21C22.933 3.5 24.5 5.067 24.5 7V21C24.5 22.933 22.933 24.5 21 24.5H7C5.067 24.5 3.5 22.933 3.5 21V7ZM7 5.83333C6.35567 5.83333 5.83333 6.35567 5.83333 7V12.8333H22.1667V7C22.1667 6.35567 21.6443 5.83333 21 5.83333H7ZM5.83333 15.1667V21C5.83333 21.6443 6.35567 22.1667 7 22.1667H21C21.6443 22.1667 22.1667 21.6443 22.1667 21V15.1667H5.83333Z" fill="black"/>
<path d="M12.8333 9.33333C12.8333 8.689 13.3557 8.16667 14 8.16667H18.6667C19.311 8.16667 19.8333 8.689 19.8333 9.33333C19.8333 9.97767 19.311 10.5 18.6667 10.5H14C13.3557 10.5 12.8333 9.97767 12.8333 9.33333Z" fill="black"/>
</svg>
