<svg width="24" height="24" viewBox="0 0 24 24" fill="none" xmlns="http://www.w3.org/2000/svg">
<path d="M9.5 8C9.5 8.82843 8.82843 9.5 8 9.5C7.17157 9.5 6.5 8.82843 6.5 8C6.5 7.17157 7.17157 6.5 8 6.5C8.82843 6.5 9.5 7.17157 9.5 8Z" fill="black"/>
<path d="M3 6C3 4.34315 4.34315 3 6 3H18C19.6569 3 21 4.34315 21 6V18C21 19.6569 19.6569 21 18 21H6C4.34315 21 3 19.6569 3 18V6ZM6 5C5.44772 5 5 5.44772 5 6V11H19V6C19 5.44772 18.5523 5 18 5H6ZM5 13V18C5 18.5523 5.44772 19 6 19H18C18.5523 19 19 18.5523 19 18V13H5Z" fill="black"/>
<path d="M11 8C11 7.44772 11.4477 7 12 7H16C16.5523 7 17 7.44772 17 8C17 8.55228 16.5523 9 16 9H12C11.4477 9 11 8.55228 11 8Z" fill="black"/>
</svg>
