<svg width="28" height="28" viewBox="0 0 28 28" fill="none" xmlns="http://www.w3.org/2000/svg">
<path d="M3.5 7C3.5 5.067 5.067 3.5 7 3.5H21C22.933 3.5 24.5 5.067 24.5 7V21C24.5 22.933 22.933 24.5 21 24.5H7C5.067 24.5 3.5 22.933 3.5 21V7ZM5.83333 15.1667V21C5.83333 21.6443 6.35567 22.1667 7 22.1667H21C21.6443 22.1667 22.1667 21.6443 22.1667 21V15.1667H5.83333ZM10.5 9.33333C10.5 8.36683 9.7165 7.58333 8.75 7.58333C7.7835 7.58333 7 8.36683 7 9.33333C7 10.2998 7.7835 11.0833 8.75 11.0833C9.7165 11.0833 10.5 10.2998 10.5 9.33333ZM14 8.16667C13.3557 8.16667 12.8333 8.689 12.8333 9.33333C12.8333 9.97767 13.3557 10.5 14 10.5H19.25C19.8943 10.5 20.4167 9.97767 20.4167 9.33333C20.4167 8.689 19.8943 8.16667 19.25 8.16667H14Z" fill="black"/>
</svg>
