<svg width="16" height="16" viewBox="0 0 16 16" fill="none" xmlns="http://www.w3.org/2000/svg">
<path d="M11.5 2H4.5C3.83696 2 3.20107 2.26339 2.73223 2.73223C2.26339 3.20107 2 3.83696 2 4.5V11.5C2 12.163 2.26339 12.7989 2.73223 13.2678C3.20107 13.7366 3.83696 14 4.5 14H11.5C12.163 14 12.7989 13.7366 13.2678 13.2678C13.7366 12.7989 14 12.163 14 11.5V4.5C14 3.83696 13.7366 3.20107 13.2678 2.73223C12.7989 2.26339 12.163 2 11.5 2V2ZM4.835 3.835C5.0652 3.83599 5.28995 3.90515 5.48087 4.03376C5.6718 4.16237 5.82034 4.34467 5.90775 4.55763C5.99516 4.77059 6.01752 5.00467 5.972 5.23033C5.92649 5.45599 5.81514 5.6631 5.65201 5.82553C5.48889 5.98796 5.2813 6.09842 5.05545 6.14297C4.8296 6.18752 4.59561 6.16415 4.38303 6.07583C4.17044 5.98751 3.98879 5.83819 3.861 5.64672C3.7332 5.45524 3.665 5.2302 3.665 5C3.665 4.84659 3.6953 4.69469 3.75416 4.55302C3.81302 4.41134 3.89928 4.28269 4.00799 4.17445C4.1167 4.0662 4.24572 3.98049 4.38764 3.92224C4.52956 3.86399 4.68159 3.83434 4.835 3.835ZM12.335 11.365C12.335 11.4924 12.3099 11.6185 12.2612 11.7362C12.2124 11.8539 12.141 11.9608 12.0509 12.0509C11.9608 12.141 11.8539 12.2124 11.7362 12.2612C11.6185 12.3099 11.4924 12.335 11.365 12.335H4.635C4.50762 12.335 4.38148 12.3099 4.2638 12.2612C4.14611 12.2124 4.03918 12.141 3.94911 12.0509C3.85903 11.9608 3.78758 11.8539 3.73884 11.7362C3.69009 11.6185 3.665 11.4924 3.665 11.365V8.3C3.665 8.04274 3.7672 7.79602 3.94911 7.61411C4.13102 7.4322 4.37774 7.33 4.635 7.33H11.365C11.4924 7.33 11.6185 7.35509 11.7362 7.40384C11.8539 7.45258 11.9608 7.52403 12.0509 7.61411C12.141 7.70418 12.2124 7.81111 12.2612 7.9288C12.3099 8.04648 12.335 8.17262 12.335 8.3V11.365ZM11.75 5.585H7.915C7.75985 5.585 7.61105 5.52337 7.50134 5.41366C7.39163 5.30395 7.33 5.15515 7.33 5C7.33 4.84485 7.39163 4.69605 7.50134 4.58634C7.61105 4.47663 7.75985 4.415 7.915 4.415H11.75C11.9052 4.415 12.0539 4.47663 12.1637 4.58634C12.2734 4.69605 12.335 4.84485 12.335 5C12.335 5.15515 12.2734 5.30395 12.1637 5.41366C12.0539 5.52337 11.9052 5.585 11.75 5.585V5.585Z" fill="black"/>
</svg>
