<svg width="28" height="28" viewBox="0 0 28 28" fill="none" xmlns="http://www.w3.org/2000/svg">
<path d="M20.125 3.5H7.875C6.71468 3.5 5.60188 3.96094 4.78141 4.78141C3.96094 5.60188 3.5 6.71468 3.5 7.875V20.125C3.5 21.2853 3.96094 22.3981 4.78141 23.2186C5.60188 24.0391 6.71468 24.5 7.875 24.5H20.125C21.2853 24.5 22.3981 24.0391 23.2186 23.2186C24.0391 22.3981 24.5 21.2853 24.5 20.125V7.875C24.5 6.71468 24.0391 5.60188 23.2186 4.78141C22.3981 3.96094 21.2853 3.5 20.125 3.5V3.5ZM8.46125 6.71125C8.8641 6.71298 9.25741 6.83402 9.59152 7.05909C9.92564 7.28416 10.1856 7.60317 10.3386 7.97585C10.4915 8.34853 10.5307 8.75818 10.451 9.15308C10.3714 9.54798 10.1765 9.91043 9.89102 10.1947C9.60555 10.4789 9.24227 10.6722 8.84703 10.7502C8.4518 10.8282 8.04232 10.7873 7.6703 10.6327C7.29827 10.4781 6.98038 10.2168 6.75674 9.88175C6.53311 9.54668 6.41375 9.15285 6.41375 8.75C6.41375 8.48153 6.46677 8.2157 6.56977 7.96778C6.67278 7.71985 6.82373 7.49471 7.01398 7.30528C7.20422 7.11585 7.43 6.96586 7.67837 6.86392C7.92673 6.76198 8.19278 6.7101 8.46125 6.71125ZM21.5863 19.8887C21.5863 20.1117 21.5423 20.3324 21.457 20.5384C21.3717 20.7443 21.2467 20.9314 21.0891 21.0891C20.9314 21.2467 20.7443 21.3717 20.5384 21.457C20.3324 21.5423 20.1117 21.5863 19.8887 21.5863H8.11125C7.88833 21.5863 7.6676 21.5423 7.46165 21.457C7.2557 21.3717 7.06856 21.2467 6.91094 21.0891C6.75331 20.9314 6.62827 20.7443 6.54296 20.5384C6.45766 20.3324 6.41375 20.1117 6.41375 19.8887V14.525C6.41375 14.0748 6.59259 13.643 6.91094 13.3247C7.22928 13.0063 7.66105 12.8275 8.11125 12.8275H19.8887C20.1117 12.8275 20.3324 12.8714 20.5384 12.9567C20.7443 13.042 20.9314 13.1671 21.0891 13.3247C21.2467 13.4823 21.3717 13.6694 21.457 13.8754C21.5423 14.0813 21.5863 14.3021 21.5863 14.525V19.8887ZM20.5625 9.77375H13.8512C13.5797 9.77375 13.3193 9.66589 13.1273 9.4739C12.9354 9.28191 12.8275 9.02152 12.8275 8.75C12.8275 8.47848 12.9354 8.21809 13.1273 8.0261C13.3193 7.83411 13.5797 7.72625 13.8512 7.72625H20.5625C20.834 7.72625 21.0944 7.83411 21.2864 8.0261C21.4784 8.21809 21.5863 8.47848 21.5863 8.75C21.5863 9.02152 21.4784 9.28191 21.2864 9.4739C21.0944 9.66589 20.834 9.77375 20.5625 9.77375V9.77375Z" fill="black"/>
</svg>
