<svg width="24" height="24" viewBox="0 0 24 24" fill="none" xmlns="http://www.w3.org/2000/svg">
<path d="M17.25 3H6.75C5.75544 3 4.80161 3.39509 4.09835 4.09835C3.39509 4.80161 3 5.75544 3 6.75V17.25C3 18.2446 3.39509 19.1984 4.09835 19.9017C4.80161 20.6049 5.75544 21 6.75 21H17.25C18.2446 21 19.1984 20.6049 19.9017 19.9017C20.6049 19.1984 21 18.2446 21 17.25V6.75C21 5.75544 20.6049 4.80161 19.9017 4.09835C19.1984 3.39509 18.2446 3 17.25 3ZM6.75 4.5H17.25C17.8467 4.5 18.419 4.73705 18.841 5.15901C19.2629 5.58097 19.5 6.15326 19.5 6.75V11.01H4.5V6.75C4.5 6.15326 4.73705 5.58097 5.15901 5.15901C5.58097 4.73705 6.15326 4.5 6.75 4.5ZM17.25 19.5H6.75C6.15326 19.5 5.58097 19.2629 5.15901 18.841C4.73705 18.419 4.5 17.8467 4.5 17.25V12.51H19.5V17.25C19.5 17.8467 19.2629 18.419 18.841 18.841C18.419 19.2629 17.8467 19.5 17.25 19.5Z" fill="black"/>
<path d="M7.755 6H7.7475C6.78238 6 6 6.78238 6 7.7475V7.755C6 8.72012 6.78238 9.5025 7.7475 9.5025H7.755C8.72012 9.5025 9.5025 8.72012 9.5025 7.755V7.7475C9.5025 6.78238 8.72012 6 7.755 6Z" fill="black"/>
<path d="M16.9875 6.735H12.015C11.4558 6.735 11.0025 7.18831 11.0025 7.7475V7.755C11.0025 8.31419 11.4558 8.7675 12.015 8.7675H16.9875C17.5467 8.7675 18 8.31419 18 7.755V7.7475C18 7.18831 17.5467 6.735 16.9875 6.735Z" fill="black"/>
</svg>
