<svg width="28" height="28" viewBox="0 0 28 28" fill="none" xmlns="http://www.w3.org/2000/svg">
<path d="M20.125 3.5H7.875C6.71468 3.5 5.60188 3.96094 4.78141 4.78141C3.96094 5.60188 3.5 6.71468 3.5 7.875V20.125C3.5 21.2853 3.96094 22.3981 4.78141 23.2186C5.60188 24.0391 6.71468 24.5 7.875 24.5H20.125C21.2853 24.5 22.3981 24.0391 23.2186 23.2186C24.0391 22.3981 24.5 21.2853 24.5 20.125V7.875C24.5 6.71468 24.0391 5.60188 23.2186 4.78141C22.3981 3.96094 21.2853 3.5 20.125 3.5ZM7.875 5.25H20.125C20.8212 5.25 21.4889 5.52656 21.9812 6.01884C22.4734 6.51113 22.75 7.17881 22.75 7.875V12.845H5.25V7.875C5.25 7.17881 5.52656 6.51113 6.01884 6.01884C6.51113 5.52656 7.17881 5.25 7.875 5.25ZM20.125 22.75H7.875C7.17881 22.75 6.51113 22.4734 6.01884 21.9812C5.52656 21.4889 5.25 20.8212 5.25 20.125V14.595H22.75V20.125C22.75 20.8212 22.4734 21.4889 21.9812 21.9812C21.4889 22.4734 20.8212 22.75 20.125 22.75Z" fill="black"/>
<path d="M9.0475 7H9.03875C7.91278 7 7 7.91278 7 9.03875V9.0475C7 10.1735 7.91278 11.0863 9.03875 11.0863H9.0475C10.1735 11.0863 11.0863 10.1735 11.0863 9.0475V9.03875C11.0863 7.91278 10.1735 7 9.0475 7Z" fill="black"/>
<path d="M19.8187 7.8575H14.0175C13.3651 7.8575 12.8363 8.38636 12.8363 9.03875V9.0475C12.8363 9.69989 13.3651 10.2287 14.0175 10.2287H19.8187C20.4711 10.2287 21 9.69989 21 9.0475V9.03875C21 8.38636 20.4711 7.8575 19.8187 7.8575Z" fill="black"/>
</svg>
