<svg width="28" height="28" viewBox="0 0 28 28" fill="none" xmlns="http://www.w3.org/2000/svg">
<path d="M17.033 13.9999H16.333C16.0025 13.9999 15.7254 14.1117 15.5018 14.3353C15.2781 14.5589 15.1663 14.836 15.1663 15.1666C15.1663 15.4971 15.2781 15.7742 15.5018 15.9978C15.7254 16.2214 16.0025 16.3333 16.333 16.3333H19.833C20.1636 16.3333 20.4406 16.2214 20.6643 15.9978C20.8879 15.7742 20.9997 15.4971 20.9997 15.1666V11.6666C20.9997 11.336 20.8879 11.0589 20.6643 10.8353C20.4406 10.6117 20.1636 10.4999 19.833 10.4999C19.5025 10.4999 19.2254 10.6117 19.0018 10.8353C18.7781 11.0589 18.6663 11.336 18.6663 11.6666V12.3083C18.0441 11.5694 17.3004 10.986 16.4351 10.5583C15.5698 10.1305 14.6219 9.91659 13.5913 9.91659C11.9775 9.91659 10.5823 10.3978 9.40592 11.3603C8.22954 12.3228 7.47606 13.5333 7.14551 14.9916C7.06773 15.3416 7.13579 15.6527 7.34967 15.9249C7.56356 16.1971 7.83579 16.3333 8.16634 16.3333C8.4969 16.3333 8.7837 16.2117 9.02676 15.9687C9.26981 15.7256 9.43995 15.4388 9.53717 15.1083C9.8094 14.2721 10.315 13.5867 11.0538 13.052C11.7927 12.5173 12.6386 12.2499 13.5913 12.2499C14.2913 12.2499 14.9427 12.4103 15.5455 12.7312C16.1483 13.052 16.6441 13.4749 17.033 13.9999ZM13.9997 25.6666C12.3858 25.6666 10.8691 25.3603 9.44967 24.7478C8.03023 24.1353 6.79551 23.3041 5.74551 22.2541C4.69551 21.2041 3.86426 19.9694 3.25176 18.5499C2.63926 17.1305 2.33301 15.6138 2.33301 13.9999C2.33301 12.386 2.63926 10.8694 3.25176 9.44992C3.86426 8.03047 4.69551 6.79575 5.74551 5.74575C6.79551 4.69575 8.03023 3.8645 9.44967 3.252C10.8691 2.6395 12.3858 2.33325 13.9997 2.33325C15.6136 2.33325 17.1302 2.6395 18.5497 3.252C19.9691 3.8645 21.2038 4.69575 22.2538 5.74575C23.3038 6.79575 24.1351 8.03047 24.7476 9.44992C25.3601 10.8694 25.6663 12.386 25.6663 13.9999C25.6663 15.6138 25.3601 17.1305 24.7476 18.5499C24.1351 19.9694 23.3038 21.2041 22.2538 22.2541C21.2038 23.3041 19.9691 24.1353 18.5497 24.7478C17.1302 25.3603 15.6136 25.6666 13.9997 25.6666ZM13.9997 23.3333C16.6052 23.3333 18.8122 22.4291 20.6205 20.6208C22.4288 18.8124 23.333 16.6055 23.333 13.9999C23.333 11.3944 22.4288 9.18742 20.6205 7.37909C18.8122 5.57075 16.6052 4.66659 13.9997 4.66659C11.3941 4.66659 9.18717 5.57075 7.37884 7.37909C5.57051 9.18742 4.66634 11.3944 4.66634 13.9999C4.66634 16.6055 5.57051 18.8124 7.37884 20.6208C9.18717 22.4291 11.3941 23.3333 13.9997 23.3333Z" fill="#191919"/>
</svg>
