<svg width="24" height="24" viewBox="0 0 24 24" fill="none" xmlns="http://www.w3.org/2000/svg">
<path d="M14.6 12H14C13.7167 12 13.4792 12.0958 13.2875 12.2875C13.0958 12.4792 13 12.7167 13 13C13 13.2833 13.0958 13.5208 13.2875 13.7125C13.4792 13.9042 13.7167 14 14 14H17C17.2833 14 17.5208 13.9042 17.7125 13.7125C17.9042 13.5208 18 13.2833 18 13V10C18 9.71667 17.9042 9.47917 17.7125 9.2875C17.5208 9.09583 17.2833 9 17 9C16.7167 9 16.4792 9.09583 16.2875 9.2875C16.0958 9.47917 16 9.71667 16 10V10.55C15.4667 9.91667 14.8292 9.41667 14.0875 9.05C13.3458 8.68333 12.5333 8.5 11.65 8.5C10.2667 8.5 9.07083 8.9125 8.0625 9.7375C7.05417 10.5625 6.40833 11.6 6.125 12.85C6.05833 13.15 6.11667 13.4167 6.3 13.65C6.48333 13.8833 6.71667 14 7 14C7.28333 14 7.52917 13.8958 7.7375 13.6875C7.94583 13.4792 8.09167 13.2333 8.175 12.95C8.40833 12.2333 8.84167 11.6458 9.475 11.1875C10.1083 10.7292 10.8333 10.5 11.65 10.5C12.25 10.5 12.8083 10.6375 13.325 10.9125C13.8417 11.1875 14.2667 11.55 14.6 12ZM12 22C10.6167 22 9.31667 21.7375 8.1 21.2125C6.88333 20.6875 5.825 19.975 4.925 19.075C4.025 18.175 3.3125 17.1167 2.7875 15.9C2.2625 14.6833 2 13.3833 2 12C2 10.6167 2.2625 9.31667 2.7875 8.1C3.3125 6.88333 4.025 5.825 4.925 4.925C5.825 4.025 6.88333 3.3125 8.1 2.7875C9.31667 2.2625 10.6167 2 12 2C13.3833 2 14.6833 2.2625 15.9 2.7875C17.1167 3.3125 18.175 4.025 19.075 4.925C19.975 5.825 20.6875 6.88333 21.2125 8.1C21.7375 9.31667 22 10.6167 22 12C22 13.3833 21.7375 14.6833 21.2125 15.9C20.6875 17.1167 19.975 18.175 19.075 19.075C18.175 19.975 17.1167 20.6875 15.9 21.2125C14.6833 21.7375 13.3833 22 12 22ZM12 20C14.2333 20 16.125 19.225 17.675 17.675C19.225 16.125 20 14.2333 20 12C20 9.76667 19.225 7.875 17.675 6.325C16.125 4.775 14.2333 4 12 4C9.76667 4 7.875 4.775 6.325 6.325C4.775 7.875 4 9.76667 4 12C4 14.2333 4.775 16.125 6.325 17.675C7.875 19.225 9.76667 20 12 20Z" fill="#191919"/>
</svg>
