<svg width="28" height="28" viewBox="0 0 28 28" fill="none" xmlns="http://www.w3.org/2000/svg">
<path d="M10.5 10.5V23.3333H18.6667V19.8333C18.6667 19.5027 18.7785 19.2257 19.0021 19.002C19.2257 18.7784 19.5028 18.6666 19.8333 18.6666H23.3333V10.5H10.5ZM8.16666 23.3333V10.4708C8.16666 9.82913 8.4 9.28469 8.86666 8.83747C9.33333 8.39024 9.8875 8.16663 10.5292 8.16663H23.3333C23.975 8.16663 24.5243 8.3951 24.9812 8.85205C25.4382 9.30899 25.6667 9.8583 25.6667 10.5V18.8708C25.6667 19.1819 25.6083 19.4784 25.4917 19.7604C25.375 20.0423 25.2097 20.2902 24.9958 20.5041L20.5042 24.9958C20.2903 25.2097 20.0424 25.375 19.7604 25.4916C19.4785 25.6083 19.1819 25.6666 18.8708 25.6666H10.5C9.85833 25.6666 9.30902 25.4382 8.85208 24.9812C8.39513 24.5243 8.16666 23.975 8.16666 23.3333ZM2.3625 7.29163C2.24583 6.64997 2.37222 6.07149 2.74166 5.55622C3.11111 5.04094 3.61666 4.72497 4.25833 4.6083L16.9167 2.36247C17.5389 2.2458 18.1028 2.37705 18.6083 2.75622C19.1139 3.13538 19.4444 3.63608 19.6 4.2583L19.8042 5.16247C19.9014 5.55135 19.8431 5.86247 19.6292 6.0958C19.4153 6.32913 19.1625 6.46524 18.8708 6.50413C18.5792 6.54302 18.3021 6.48955 18.0396 6.34372C17.7771 6.19788 17.5972 5.93052 17.5 5.54163L17.2958 4.66663L4.66666 6.91247L6.41666 16.9458C6.475 17.2764 6.41666 17.5729 6.24166 17.8354C6.06666 18.0979 5.81388 18.2583 5.48333 18.3166C5.15277 18.375 4.86111 18.3118 4.60833 18.127C4.35555 17.9423 4.2 17.6847 4.14166 17.3541L2.3625 7.29163Z" fill="#191919"/>
</svg>
