<svg width="24" height="24" viewBox="0 0 24 24" fill="none" xmlns="http://www.w3.org/2000/svg">
<path d="M9 8.99955V19.9996H16V16.9996C16 16.7162 16.0958 16.4787 16.2875 16.2871C16.4792 16.0954 16.7167 15.9996 17 15.9996H20V8.99955H9ZM7 19.9996V8.97455C7 8.42455 7.2 7.95789 7.6 7.57455C8 7.19122 8.475 6.99955 9.025 6.99955H20C20.55 6.99955 21.0208 7.19539 21.4125 7.58705C21.8042 7.97872 22 8.44955 22 8.99955V16.1746C22 16.4412 21.95 16.6954 21.85 16.9371C21.75 17.1787 21.6083 17.3912 21.425 17.5746L17.575 21.4246C17.3917 21.6079 17.1792 21.7496 16.9375 21.8496C16.6958 21.9496 16.4417 21.9996 16.175 21.9996H9C8.45 21.9996 7.97917 21.8037 7.5875 21.4121C7.19583 21.0204 7 20.5496 7 19.9996ZM2.025 6.24955C1.925 5.69955 2.03333 5.20372 2.35 4.76205C2.66667 4.32039 3.1 4.04955 3.65 3.94955L14.5 2.02455C15.0333 1.92455 15.5167 2.03705 15.95 2.36205C16.3833 2.68705 16.6667 3.11622 16.8 3.64955L16.975 4.42455C17.0583 4.75789 17.0083 5.02455 16.825 5.22455C16.6417 5.42455 16.425 5.54122 16.175 5.57455C15.925 5.60789 15.6875 5.56205 15.4625 5.43705C15.2375 5.31205 15.0833 5.08289 15 4.74955L14.825 3.99955L4 5.92455L5.5 14.5246C5.55 14.8079 5.5 15.0621 5.35 15.2871C5.2 15.5121 4.98333 15.6496 4.7 15.6996C4.41667 15.7496 4.16667 15.6954 3.95 15.5371C3.73333 15.3787 3.6 15.1579 3.55 14.8746L2.025 6.24955Z" fill="#191919"/>
</svg>
