<svg width="16" height="16" viewBox="0 0 16 16" fill="none" xmlns="http://www.w3.org/2000/svg">
<path d="M4.66667 13.3335V5.9835C4.66667 5.61684 4.8 5.30573 5.06667 5.05017C5.33333 4.79462 5.65 4.66684 6.01667 4.66684H13.3333C13.7 4.66684 14.0139 4.79739 14.275 5.05851C14.5361 5.31962 14.6667 5.6335 14.6667 6.00017V10.7835C14.6667 10.9613 14.6333 11.1307 14.5667 11.2918C14.5 11.4529 14.4056 11.5946 14.2833 11.7168L11.7167 14.2835C11.5944 14.4057 11.4528 14.5002 11.2917 14.5668C11.1306 14.6335 10.9611 14.6668 10.7833 14.6668H6C5.63333 14.6668 5.31944 14.5363 5.05833 14.2752C4.79722 14.0141 4.66667 13.7002 4.66667 13.3335ZM1.35 4.16684C1.28333 3.80017 1.35556 3.46962 1.56667 3.17517C1.77778 2.88073 2.06667 2.70017 2.43333 2.63351L9.66667 1.35017C10.0333 1.28351 10.3639 1.35573 10.6583 1.56684C10.9528 1.77795 11.1333 2.06684 11.2 2.43351L11.3667 3.33351H6C5.26667 3.33351 4.63889 3.59462 4.11667 4.11684C3.59444 4.63906 3.33333 5.26684 3.33333 6.00017V12.3668C3.15556 12.2668 3.00278 12.1335 2.875 11.9668C2.74722 11.8002 2.66667 11.6113 2.63333 11.4002L1.35 4.16684ZM13.3333 10.6668H11.3333C11.1444 10.6668 10.9861 10.7307 10.8583 10.8585C10.7306 10.9863 10.6667 11.1446 10.6667 11.3335V13.3335L13.3333 10.6668Z" fill="#191919"/>
</svg>
