<svg width="24" height="24" viewBox="0 0 24 24" fill="none" xmlns="http://www.w3.org/2000/svg">
<path d="M7 20.0003V8.97526C7 8.42526 7.2 7.95859 7.6 7.57526C8 7.19192 8.475 7.00026 9.025 7.00026H20C20.55 7.00026 21.0208 7.19609 21.4125 7.58776C21.8042 7.97942 22 8.45026 22 9.00026V16.1753C22 16.4419 21.95 16.6961 21.85 16.9378C21.75 17.1794 21.6083 17.3919 21.425 17.5753L17.575 21.4253C17.3917 21.6086 17.1792 21.7503 16.9375 21.8503C16.6958 21.9503 16.4417 22.0003 16.175 22.0003H9C8.45 22.0003 7.97917 21.8044 7.5875 21.4128C7.19583 21.0211 7 20.5503 7 20.0003ZM2.025 6.25026C1.925 5.70026 2.03333 5.20442 2.35 4.76276C2.66667 4.32109 3.1 4.05026 3.65 3.95026L14.5 2.02526C15.05 1.92526 15.5458 2.03359 15.9875 2.35026C16.4292 2.66692 16.7 3.10026 16.8 3.65026L17.05 5.00026H9C7.9 5.00026 6.95833 5.39192 6.175 6.17526C5.39167 6.95859 5 7.90026 5 9.00026V18.5503C4.73333 18.4003 4.50417 18.2003 4.3125 17.9503C4.12083 17.7003 4 17.4169 3.95 17.1003L2.025 6.25026ZM20 16.0003H17C16.7167 16.0003 16.4792 16.0961 16.2875 16.2878C16.0958 16.4794 16 16.7169 16 17.0003V20.0003L20 16.0003Z" fill="#191919"/>
</svg>
