<svg width="28" height="28" viewBox="0 0 28 28" fill="none" xmlns="http://www.w3.org/2000/svg">
<path d="M8.16666 23.3331V10.4706C8.16666 9.82898 8.4 9.28453 8.86666 8.83731C9.33333 8.39009 9.8875 8.16648 10.5292 8.16648H23.3333C23.975 8.16648 24.5243 8.39495 24.9812 8.8519C25.4382 9.30884 25.6667 9.85815 25.6667 10.4998V18.8706C25.6667 19.1818 25.6083 19.4783 25.4917 19.7602C25.375 20.0422 25.2097 20.2901 24.9958 20.504L20.5042 24.9956C20.2903 25.2095 20.0424 25.3748 19.7604 25.4915C19.4785 25.6081 19.1819 25.6665 18.8708 25.6665H10.5C9.85833 25.6665 9.30902 25.438 8.85208 24.9811C8.39513 24.5241 8.16666 23.9748 8.16666 23.3331ZM2.3625 7.29148C2.24583 6.64981 2.37222 6.07134 2.74166 5.55606C3.11111 5.04078 3.61666 4.72481 4.25833 4.60815L16.9167 2.36231C17.5583 2.24565 18.1368 2.37203 18.6521 2.74148C19.1674 3.11092 19.4833 3.61648 19.6 4.25815L19.8917 5.83315H10.5C9.21666 5.83315 8.11805 6.29009 7.20416 7.20398C6.29027 8.11787 5.83333 9.21648 5.83333 10.4998V21.6415C5.52222 21.4665 5.25486 21.2331 5.03125 20.9415C4.80763 20.6498 4.66666 20.3193 4.60833 19.9498L2.3625 7.29148ZM23.3333 18.6665H19.8333C19.5028 18.6665 19.2257 18.7783 19.0021 19.0019C18.7785 19.2255 18.6667 19.5026 18.6667 19.8331V23.3331L23.3333 18.6665Z" fill="#191919"/>
</svg>
