<svg width="16" height="16" viewBox="0 0 16 16" fill="none" xmlns="http://www.w3.org/2000/svg">
<path d="M6 5.9997V13.333H10.6667V11.333C10.6667 11.1441 10.7306 10.9858 10.8583 10.858C10.9861 10.7303 11.1444 10.6664 11.3333 10.6664H13.3333V5.9997H6ZM4.66667 13.333V5.98304C4.66667 5.61637 4.8 5.30526 5.06667 5.0497C5.33333 4.79415 5.65 4.66637 6.01667 4.66637H13.3333C13.7 4.66637 14.0139 4.79692 14.275 5.05803C14.5361 5.31915 14.6667 5.63303 14.6667 5.9997V10.783C14.6667 10.9608 14.6333 11.1303 14.5667 11.2914C14.5 11.4525 14.4056 11.5941 14.2833 11.7164L11.7167 14.283C11.5944 14.4053 11.4528 14.4997 11.2917 14.5664C11.1306 14.633 10.9611 14.6664 10.7833 14.6664H6C5.63333 14.6664 5.31944 14.5358 5.05833 14.2747C4.79722 14.0136 4.66667 13.6997 4.66667 13.333ZM1.35 4.16637C1.28333 3.7997 1.35556 3.46915 1.56667 3.1747C1.77778 2.88026 2.06667 2.6997 2.43333 2.63303L9.66667 1.3497C10.0222 1.28303 10.3444 1.35803 10.6333 1.5747C10.9222 1.79137 11.1111 2.07748 11.2 2.43303L11.3167 2.9497C11.3722 3.17192 11.3389 3.3497 11.2167 3.48303C11.0944 3.61637 10.95 3.69415 10.7833 3.71637C10.6167 3.73859 10.4583 3.70803 10.3083 3.6247C10.1583 3.54137 10.0556 3.38859 10 3.16637L9.88333 2.66637L2.66667 3.9497L3.66667 9.68304C3.7 9.87192 3.66667 10.0414 3.56667 10.1914C3.46667 10.3414 3.32222 10.433 3.13333 10.4664C2.94444 10.4997 2.77778 10.4636 2.63333 10.358C2.48889 10.2525 2.4 10.1053 2.36667 9.91637L1.35 4.16637Z" fill="#191919"/>
</svg>
