<svg width="28" height="28" viewBox="0 0 28 28" fill="none" xmlns="http://www.w3.org/2000/svg">
<path d="M21.0046 18.375V12.5417C21.0046 8.96 19.0912 5.96167 15.7546 5.16833V4.375C15.7546 3.40667 14.9612 2.625 13.9929 2.625C13.0246 2.625 12.2546 3.40667 12.2546 4.375V5.16833C8.90623 5.96167 7.00456 8.94833 7.00456 12.5417V18.375L5.48789 19.88C4.75289 20.615 5.26623 21.875 6.30456 21.875H21.6696C22.7079 21.875 23.2329 20.615 22.4979 19.88L21.0046 18.375ZM13.9929 25.375C15.2762 25.375 16.3262 24.325 16.3262 23.0417H11.6596C11.6596 24.325 12.6979 25.375 13.9929 25.375ZM7.90289 5.22667C8.39289 4.78333 8.40456 4.025 7.93789 3.55833C7.49456 3.115 6.77123 3.10333 6.31623 3.535C4.32123 5.355 2.94456 7.82833 2.50123 10.605C2.39623 11.3167 2.94456 11.9583 3.66789 11.9583C4.22789 11.9583 4.71789 11.55 4.81123 10.99C5.16123 8.72667 6.28123 6.70833 7.90289 5.22667ZM21.7046 3.535C21.2379 3.10333 20.5146 3.115 20.0712 3.55833C19.6046 4.025 19.6279 4.77167 20.1062 5.215C21.7162 6.69667 22.8479 8.715 23.1979 10.9783C23.2796 11.5383 23.7696 11.9467 24.3412 11.9467C25.0529 11.9467 25.6129 11.305 25.4962 10.5933C25.0529 7.82833 23.6879 5.36667 21.7046 3.535Z" fill="black"/>
</svg>
