<svg width="28" height="28" viewBox="0 0 28 28" fill="none" xmlns="http://www.w3.org/2000/svg">
<path d="M14.0014 25.375C15.2848 25.375 16.3348 24.325 16.3348 23.0417H11.6681C11.6681 24.325 12.7064 25.375 14.0014 25.375ZM21.0014 18.375V12.5417C21.0014 8.96 19.0881 5.96167 15.7514 5.16833V4.375C15.7514 3.40667 14.9698 2.625 14.0014 2.625C13.0331 2.625 12.2514 3.40667 12.2514 4.375V5.16833C8.9031 5.96167 7.00143 8.94833 7.00143 12.5417V18.375L5.49643 19.88C4.76143 20.615 5.27477 21.875 6.3131 21.875H21.6781C22.7164 21.875 23.2414 20.615 22.5064 19.88L21.0014 18.375Z" fill="black"/>
</svg>
