<svg width="28" height="28" viewBox="0 0 28 28" fill="none" xmlns="http://www.w3.org/2000/svg">
<path d="M5.83332 22.1667C5.50276 22.1667 5.22568 22.0549 5.00207 21.8313C4.77846 21.6077 4.66665 21.3306 4.66665 21C4.66665 20.6695 4.77846 20.3924 5.00207 20.1688C5.22568 19.9452 5.50276 19.8334 5.83332 19.8334H6.99998V11.6667C6.99998 11.025 7.08262 10.3931 7.2479 9.77088C7.41318 9.14865 7.66109 8.5556 7.99165 7.99171L9.74165 9.74171C9.60554 10.0528 9.50346 10.3688 9.4354 10.6896C9.36734 11.0105 9.33332 11.3362 9.33332 11.6667V19.8334H16.5666L2.44998 5.71671C2.23609 5.50282 2.12915 5.2306 2.12915 4.90004C2.12915 4.56949 2.23609 4.29726 2.44998 4.08337C2.66387 3.86949 2.93609 3.76254 3.26665 3.76254C3.59721 3.76254 3.86943 3.86949 4.08332 4.08337L23.9167 23.9167C24.1305 24.1306 24.2423 24.398 24.2521 24.7188C24.2618 25.0396 24.15 25.3167 23.9167 25.55C23.7028 25.7639 23.4305 25.8709 23.1 25.8709C22.7694 25.8709 22.4972 25.7639 22.2833 25.55L18.8416 22.1667H5.83332ZM21 17.675L18.6667 15.3417V11.6667C18.6667 10.3834 18.2097 9.28476 17.2958 8.37088C16.3819 7.45699 15.2833 7.00004 14 7.00004C13.475 7.00004 12.984 7.08268 12.5271 7.24796C12.0701 7.41324 11.6472 7.64171 11.2583 7.93337L9.56665 6.24171C9.95554 5.95004 10.3736 5.68268 10.8208 5.43962C11.268 5.19657 11.7444 5.01671 12.25 4.90004V4.08337C12.25 3.59726 12.4201 3.18407 12.7604 2.84379C13.1007 2.50351 13.5139 2.33337 14 2.33337C14.4861 2.33337 14.8993 2.50351 15.2396 2.84379C15.5798 3.18407 15.75 3.59726 15.75 4.08337V4.90004C17.2667 5.28893 18.5208 6.10074 19.5125 7.33546C20.5042 8.57018 21 10.0139 21 11.6667V17.675ZM14 25.6667C13.3583 25.6667 12.809 25.4382 12.3521 24.9813C11.8951 24.5244 11.6667 23.975 11.6667 23.3334H16.3333C16.3333 23.975 16.1048 24.5244 15.6479 24.9813C15.191 25.4382 14.6417 25.6667 14 25.6667Z" fill="black"/>
</svg>
