<svg width="16" height="16" viewBox="0 0 16 16" fill="none" xmlns="http://www.w3.org/2000/svg">
<path d="M3.33334 12.6667C3.14445 12.6667 2.98612 12.6028 2.85834 12.475C2.73056 12.3473 2.66667 12.1889 2.66667 12C2.66667 11.8112 2.73056 11.6528 2.85834 11.525C2.98612 11.3973 3.14445 11.3334 3.33334 11.3334H4.00001V6.66671C4.00001 6.30004 4.04723 5.93893 4.14167 5.58337C4.23612 5.22782 4.37779 4.88893 4.56667 4.56671L5.56667 5.56671C5.4889 5.74449 5.43056 5.92504 5.39167 6.10837C5.35279 6.29171 5.33334 6.47782 5.33334 6.66671V11.3334H9.46667L1.40001 3.26671C1.27779 3.14449 1.21667 2.98893 1.21667 2.80004C1.21667 2.61115 1.27779 2.4556 1.40001 2.33337C1.52223 2.21115 1.67779 2.15004 1.86667 2.15004C2.05556 2.15004 2.21112 2.21115 2.33334 2.33337L13.6667 13.6667C13.7889 13.7889 13.8528 13.9417 13.8583 14.125C13.8639 14.3084 13.8 14.4667 13.6667 14.6C13.5445 14.7223 13.3889 14.7834 13.2 14.7834C13.0111 14.7834 12.8556 14.7223 12.7333 14.6L10.7667 12.6667H3.33334ZM12 10.1L10.6667 8.76671V6.66671C10.6667 5.93337 10.4056 5.3056 9.88334 4.78337C9.36112 4.26115 8.73334 4.00004 8.00001 4.00004C7.70001 4.00004 7.41945 4.04726 7.15834 4.14171C6.89723 4.23615 6.65556 4.36671 6.43334 4.53337L5.46667 3.56671C5.6889 3.40004 5.92779 3.24726 6.18334 3.10837C6.4389 2.96949 6.71112 2.86671 7.00001 2.80004V2.33337C7.00001 2.0556 7.09723 1.81949 7.29167 1.62504C7.48612 1.4306 7.72223 1.33337 8.00001 1.33337C8.27779 1.33337 8.5139 1.4306 8.70834 1.62504C8.90279 1.81949 9.00001 2.0556 9.00001 2.33337V2.80004C9.86667 3.02226 10.5833 3.48615 11.15 4.19171C11.7167 4.89726 12 5.72226 12 6.66671V10.1ZM8.00001 14.6667C7.63334 14.6667 7.31945 14.5362 7.05834 14.275C6.79723 14.0139 6.66667 13.7 6.66667 13.3334H9.33334C9.33334 13.7 9.20279 14.0139 8.94167 14.275C8.68056 14.5362 8.36667 14.6667 8.00001 14.6667Z" fill="black"/>
</svg>
