<svg width="24" height="24" viewBox="0 0 24 24" fill="none" xmlns="http://www.w3.org/2000/svg">
<path d="M3 10C2.71667 10 2.47933 9.9 2.288 9.7C2.096 9.5 2.01667 9.26667 2.05 9C2.16667 7.9 2.45433 6.84567 2.913 5.837C3.371 4.829 3.975 3.925 4.725 3.125C4.90833 2.94167 5.14167 2.85 5.425 2.85C5.70833 2.85 5.95 2.95 6.15 3.15C6.33333 3.33333 6.425 3.55833 6.425 3.825C6.425 4.09167 6.33333 4.33333 6.15 4.55C5.56667 5.18333 5.096 5.87067 4.738 6.612C4.37933 7.354 4.15 8.15 4.05 9C4.01667 9.28333 3.90433 9.52067 3.713 9.712C3.521 9.904 3.28333 10 3 10ZM21 10C20.7333 10 20.5 9.904 20.3 9.712C20.1 9.52067 19.9833 9.28333 19.95 9C19.85 8.15 19.621 7.354 19.263 6.612C18.9043 5.87067 18.4333 5.18333 17.85 4.55C17.6667 4.33333 17.575 4.09167 17.575 3.825C17.575 3.55833 17.675 3.33333 17.875 3.15C18.075 2.95 18.3123 2.85 18.587 2.85C18.8623 2.85 19.0917 2.94167 19.275 3.125C20.025 3.925 20.6293 4.829 21.088 5.837C21.546 6.84567 21.8333 7.9 21.95 9C21.9833 9.26667 21.904 9.5 21.712 9.7C21.5207 9.9 21.2833 10 21 10ZM5 19C4.71667 19 4.479 18.904 4.287 18.712C4.09567 18.5207 4 18.2833 4 18C4 17.7167 4.09567 17.4793 4.287 17.288C4.479 17.096 4.71667 17 5 17H6V10C6 8.61667 6.41667 7.38733 7.25 6.312C8.08333 5.23733 9.16667 4.53333 10.5 4.2V3.5C10.5 3.08333 10.646 2.72933 10.938 2.438C11.2293 2.146 11.5833 2 12 2C12.4167 2 12.7707 2.146 13.062 2.438C13.354 2.72933 13.5 3.08333 13.5 3.5V4.2C14.8333 4.53333 15.9167 5.23733 16.75 6.312C17.5833 7.38733 18 8.61667 18 10V17H19C19.2833 17 19.5207 17.096 19.712 17.288C19.904 17.4793 20 17.7167 20 18C20 18.2833 19.904 18.5207 19.712 18.712C19.5207 18.904 19.2833 19 19 19H5ZM12 22C11.45 22 10.9793 21.8043 10.588 21.413C10.196 21.021 10 20.55 10 20H14C14 20.55 13.8043 21.021 13.413 21.413C13.021 21.8043 12.55 22 12 22ZM8 17H16V10C16 8.9 15.6083 7.95833 14.825 7.175C14.0417 6.39167 13.1 6 12 6C10.9 6 9.95833 6.39167 9.175 7.175C8.39167 7.95833 8 8.9 8 10V17Z" fill="black"/>
</svg>
