<svg width="16" height="16" viewBox="0 0 16 16" fill="none" xmlns="http://www.w3.org/2000/svg">
<path d="M7.53667 14.5C8.27001 14.5 8.87001 13.9 8.87001 13.1667H6.20334C6.20334 13.9 6.79667 14.5 7.53667 14.5ZM11.5367 7.16667C11.5367 5.12 10.4433 3.40667 8.53667 2.95333V2.5C8.53667 1.94667 8.09001 1.5 7.53667 1.5C6.98334 1.5 6.53667 1.94667 6.53667 2.5V2.95333C6.37667 2.99333 6.22334 3.05333 6.07667 3.10667L11.5367 8.56667V7.16667ZM3.14334 2.06667L2.20334 3.00667L4.07667 4.88C3.73001 5.54667 3.53667 6.32 3.53667 7.16667V10.5L2.67667 11.36C2.25667 11.78 2.55001 12.5 3.14334 12.5H11.6967L12.8567 13.66L13.7967 12.72L3.14334 2.06667Z" fill="black"/>
</svg>
