<svg width="28" height="28" viewBox="0 0 28 28" fill="none" xmlns="http://www.w3.org/2000/svg">
<path d="M5.83335 22.1667C5.5028 22.1667 5.22552 22.0547 5.00152 21.8307C4.7783 21.6075 4.66669 21.3306 4.66669 21C4.66669 20.6695 4.7783 20.3926 5.00152 20.1694C5.22552 19.9454 5.5028 19.8334 5.83335 19.8334H7.00002V11.6667C7.00002 10.0528 7.48613 8.6186 8.45835 7.36404C9.43058 6.11026 10.6945 5.28893 12.25 4.90004V4.08337C12.25 3.59726 12.4204 3.18426 12.761 2.84437C13.1009 2.50371 13.5139 2.33337 14 2.33337C14.4861 2.33337 14.8991 2.50371 15.239 2.84437C15.5797 3.18426 15.75 3.59726 15.75 4.08337V4.90004C17.3056 5.28893 18.5695 6.11026 19.5417 7.36404C20.5139 8.6186 21 10.0528 21 11.6667V19.8334H22.1667C22.4972 19.8334 22.7741 19.9454 22.9974 20.1694C23.2214 20.3926 23.3334 20.6695 23.3334 21C23.3334 21.3306 23.2214 21.6075 22.9974 21.8307C22.7741 22.0547 22.4972 22.1667 22.1667 22.1667H5.83335ZM14 25.6667C13.3584 25.6667 12.8092 25.4384 12.3527 24.9819C11.8954 24.5245 11.6667 23.975 11.6667 23.3334H16.3334C16.3334 23.975 16.1051 24.5245 15.6485 24.9819C15.1912 25.4384 14.6417 25.6667 14 25.6667ZM9.33335 19.8334H18.6667V11.6667C18.6667 10.3834 18.2097 9.28476 17.2959 8.37087C16.382 7.45699 15.2834 7.00004 14 7.00004C12.7167 7.00004 11.6181 7.45699 10.7042 8.37087C9.7903 9.28476 9.33335 10.3834 9.33335 11.6667V19.8334Z" fill="black"/>
</svg>
