<svg width="16" height="16" viewBox="0 0 16 16" fill="none" xmlns="http://www.w3.org/2000/svg">
<path d="M12.0026 10.5V7.16667C12.0026 5.12 10.9093 3.40667 9.00262 2.95333V2.5C9.00262 1.94667 8.54929 1.5 7.99595 1.5C7.44262 1.5 7.00262 1.94667 7.00262 2.5V2.95333C5.08929 3.40667 4.00262 5.11333 4.00262 7.16667V10.5L3.13595 11.36C2.71595 11.78 3.00929 12.5 3.60262 12.5H12.3826C12.976 12.5 13.276 11.78 12.856 11.36L12.0026 10.5ZM7.99595 14.5C8.72929 14.5 9.32929 13.9 9.32929 13.1667H6.66262C6.66262 13.9 7.25595 14.5 7.99595 14.5ZM4.51595 2.98667C4.79595 2.73333 4.80262 2.3 4.53595 2.03333C4.28262 1.78 3.86929 1.77333 3.60929 2.02C2.46929 3.06 1.68262 4.47333 1.42929 6.06C1.36929 6.46667 1.68262 6.83333 2.09595 6.83333C2.41595 6.83333 2.69595 6.6 2.74929 6.28C2.94929 4.98667 3.58929 3.83333 4.51595 2.98667ZM12.4026 2.02C12.136 1.77333 11.7226 1.78 11.4693 2.03333C11.2026 2.3 11.216 2.72667 11.4893 2.98C12.4093 3.82667 13.056 4.98 13.256 6.27333C13.3026 6.59333 13.5826 6.82667 13.9093 6.82667C14.316 6.82667 14.636 6.46 14.5693 6.05333C14.316 4.47333 13.536 3.06667 12.4026 2.02Z" fill="black"/>
</svg>
