<svg width="28" height="28" viewBox="0 0 28 28" fill="none" xmlns="http://www.w3.org/2000/svg">
<path d="M3.50002 11.6667C3.16946 11.6667 2.89257 11.55 2.66935 11.3167C2.44535 11.0834 2.3528 10.8112 2.39169 10.5C2.5278 9.21671 2.86341 7.98665 3.39852 6.80987C3.93285 5.63387 4.63752 4.57921 5.51252 3.64587C5.72641 3.43199 5.99863 3.32504 6.32919 3.32504C6.65974 3.32504 6.94169 3.44171 7.17502 3.67504C7.38891 3.88893 7.49585 4.15143 7.49585 4.46254C7.49585 4.77365 7.38891 5.0556 7.17502 5.30837C6.49446 6.04726 5.94535 6.84915 5.52769 7.71404C5.10924 8.57971 4.84169 9.50837 4.72502 10.5C4.68613 10.8306 4.55507 11.1075 4.33185 11.3307C4.10785 11.5547 3.83057 11.6667 3.50002 11.6667ZM24.5 11.6667C24.1889 11.6667 23.9167 11.5547 23.6833 11.3307C23.45 11.1075 23.3139 10.8306 23.275 10.5C23.1584 9.50837 22.8912 8.57971 22.4735 7.71404C22.0551 6.84915 21.5056 6.04726 20.825 5.30837C20.6111 5.0556 20.5042 4.77365 20.5042 4.46254C20.5042 4.15143 20.6209 3.88893 20.8542 3.67504C21.0875 3.44171 21.3644 3.32504 21.6849 3.32504C22.0061 3.32504 22.2736 3.43199 22.4875 3.64587C23.3625 4.57921 24.0676 5.63387 24.6027 6.80987C25.137 7.98665 25.4722 9.21671 25.6084 10.5C25.6472 10.8112 25.5547 11.0834 25.3307 11.3167C25.1075 11.55 24.8306 11.6667 24.5 11.6667ZM5.83335 22.1667C5.5028 22.1667 5.22552 22.0547 5.00152 21.8307C4.7783 21.6075 4.66669 21.3306 4.66669 21C4.66669 20.6695 4.7783 20.3926 5.00152 20.1694C5.22552 19.9454 5.5028 19.8334 5.83335 19.8334H7.00002V11.6667C7.00002 10.0528 7.48613 8.6186 8.45835 7.36404C9.43057 6.11026 10.6945 5.28893 12.25 4.90004V4.08337C12.25 3.59726 12.4204 3.18426 12.761 2.84437C13.1009 2.50371 13.5139 2.33337 14 2.33337C14.4861 2.33337 14.8991 2.50371 15.239 2.84437C15.5797 3.18426 15.75 3.59726 15.75 4.08337V4.90004C17.3056 5.28893 18.5695 6.11026 19.5417 7.36404C20.5139 8.6186 21 10.0528 21 11.6667V19.8334H22.1667C22.4972 19.8334 22.7741 19.9454 22.9974 20.1694C23.2214 20.3926 23.3334 20.6695 23.3334 21C23.3334 21.3306 23.2214 21.6075 22.9974 21.8307C22.7741 22.0547 22.4972 22.1667 22.1667 22.1667H5.83335ZM14 25.6667C13.3584 25.6667 12.8092 25.4384 12.3527 24.9819C11.8954 24.5245 11.6667 23.975 11.6667 23.3334H16.3334C16.3334 23.975 16.1051 24.5245 15.6485 24.9819C15.1912 25.4384 14.6417 25.6667 14 25.6667ZM9.33335 19.8334H18.6667V11.6667C18.6667 10.3834 18.2097 9.28476 17.2959 8.37087C16.382 7.45699 15.2834 7.00004 14 7.00004C12.7167 7.00004 11.6181 7.45699 10.7042 8.37087C9.7903 9.28476 9.33335 10.3834 9.33335 11.6667V19.8334Z" fill="black"/>
</svg>
