<svg width="24" height="24" viewBox="0 0 24 24" fill="none" xmlns="http://www.w3.org/2000/svg">
<path d="M12.0012 21.75C13.1012 21.75 14.0012 20.85 14.0012 19.75H10.0012C10.0012 20.85 10.8912 21.75 12.0012 21.75ZM18.0012 15.75V10.75C18.0012 7.68 16.3612 5.11 13.5012 4.43V3.75C13.5012 2.92 12.8312 2.25 12.0012 2.25C11.1712 2.25 10.5012 2.92 10.5012 3.75V4.43C7.63124 5.11 6.00124 7.67 6.00124 10.75V15.75L4.71124 17.04C4.08124 17.67 4.52124 18.75 5.41124 18.75H18.5812C19.4712 18.75 19.9212 17.67 19.2912 17.04L18.0012 15.75Z" fill="black"/>
</svg>
