<svg width="28" height="28" viewBox="0 0 28 28" fill="none" xmlns="http://www.w3.org/2000/svg">
<path d="M13.1892 25.375C14.4725 25.375 15.5225 24.325 15.5225 23.0417H10.8558C10.8558 24.325 11.8942 25.375 13.1892 25.375ZM20.1892 12.5417C20.1892 8.96 18.2758 5.96167 14.9392 5.16833V4.375C14.9392 3.40667 14.1575 2.625 13.1892 2.625C12.2208 2.625 11.4392 3.40667 11.4392 4.375V5.16833C11.1592 5.23833 10.8908 5.34333 10.6342 5.43667L20.1892 14.9917V12.5417ZM5.50083 3.61667L3.85583 5.26167L7.13417 8.54C6.5275 9.70667 6.18917 11.06 6.18917 12.5417V18.375L4.68417 19.88C3.94917 20.615 4.4625 21.875 5.50083 21.875H20.4692L22.4992 23.905L24.1442 22.26L5.50083 3.61667Z" fill="black"/>
</svg>
