<svg width="24" height="24" viewBox="0 0 24 24" fill="none" xmlns="http://www.w3.org/2000/svg">
<path d="M5.00001 19C4.71668 19 4.47918 18.9042 4.28751 18.7125C4.09585 18.5208 4.00001 18.2833 4.00001 18C4.00001 17.7167 4.09585 17.4792 4.28751 17.2875C4.47918 17.0958 4.71668 17 5.00001 17H6.00001V10C6.00001 9.45 6.07085 8.90833 6.21251 8.375C6.35418 7.84167 6.56668 7.33333 6.85001 6.85L8.35001 8.35C8.23335 8.61667 8.14585 8.8875 8.08751 9.1625C8.02918 9.4375 8.00001 9.71667 8.00001 10V17H14.2L2.10001 4.9C1.91668 4.71667 1.82501 4.48333 1.82501 4.2C1.82501 3.91667 1.91668 3.68333 2.10001 3.5C2.28335 3.31667 2.51668 3.225 2.80001 3.225C3.08335 3.225 3.31668 3.31667 3.50001 3.5L20.5 20.5C20.6833 20.6833 20.7792 20.9125 20.7875 21.1875C20.7958 21.4625 20.7 21.7 20.5 21.9C20.3167 22.0833 20.0833 22.175 19.8 22.175C19.5167 22.175 19.2833 22.0833 19.1 21.9L16.15 19H5.00001ZM18 15.15L16 13.15V10C16 8.9 15.6083 7.95833 14.825 7.175C14.0417 6.39167 13.1 6 12 6C11.55 6 11.1292 6.07083 10.7375 6.2125C10.3458 6.35417 9.98335 6.55 9.65001 6.8L8.20001 5.35C8.53335 5.1 8.89168 4.87083 9.27501 4.6625C9.65835 4.45417 10.0667 4.3 10.5 4.2V3.5C10.5 3.08333 10.6458 2.72917 10.9375 2.4375C11.2292 2.14583 11.5833 2 12 2C12.4167 2 12.7708 2.14583 13.0625 2.4375C13.3542 2.72917 13.5 3.08333 13.5 3.5V4.2C14.8 4.53333 15.875 5.22917 16.725 6.2875C17.575 7.34583 18 8.58333 18 10V15.15ZM12 22C11.45 22 10.9792 21.8042 10.5875 21.4125C10.1958 21.0208 10 20.55 10 20H14C14 20.55 13.8042 21.0208 13.4125 21.4125C13.0208 21.8042 12.55 22 12 22Z" fill="black"/>
</svg>
