<svg width="28" height="28" viewBox="0 0 28 28" fill="none" xmlns="http://www.w3.org/2000/svg">
<path d="M5.92084 24.7334C5.18195 24.7334 4.55506 24.4759 4.04017 23.9611C3.5245 23.4454 3.26667 22.8181 3.26667 22.0792V5.92089C3.26667 5.182 3.5245 4.55472 4.04017 4.03906C4.55506 3.52417 5.18195 3.26672 5.92084 3.26672H12.6583C13.0472 3.26672 13.3681 3.39311 13.6208 3.64589C13.8736 3.89867 14 4.20978 14 4.57922C14 4.96811 13.8736 5.28895 13.6208 5.54172C13.3681 5.7945 13.0472 5.92089 12.6583 5.92089H5.92084V22.0792H22.0792V15.3417C22.0792 14.9528 22.2056 14.632 22.4583 14.3792C22.7111 14.1264 23.032 14.0001 23.4208 14.0001C23.7903 14.0001 24.1014 14.1264 24.3542 14.3792C24.607 14.632 24.7333 14.9528 24.7333 15.3417V22.0792C24.7333 22.8181 24.4759 23.4454 23.961 23.9611C23.4453 24.4759 22.8181 24.7334 22.0792 24.7334H5.92084ZM10.6167 17.3834C10.3639 17.1501 10.2375 16.8487 10.2375 16.4792C10.2375 16.1098 10.3639 15.7987 10.6167 15.5459L20.2417 5.92089H17.675C17.2861 5.92089 16.9653 5.7945 16.7125 5.54172C16.4597 5.28895 16.3333 4.96811 16.3333 4.57922C16.3333 4.20978 16.4597 3.89867 16.7125 3.64589C16.9653 3.39311 17.2861 3.26672 17.675 3.26672H23.4208C23.7903 3.26672 24.1014 3.39311 24.3542 3.64589C24.607 3.89867 24.7333 4.20978 24.7333 4.57922V10.3251C24.7333 10.7139 24.607 11.0348 24.3542 11.2876C24.1014 11.5403 23.7903 11.6667 23.4208 11.6667C23.032 11.6667 22.7111 11.5403 22.4583 11.2876C22.2056 11.0348 22.0792 10.7139 22.0792 10.3251V7.75839L12.425 17.4126C12.1917 17.6653 11.8953 17.7917 11.536 17.7917C11.1759 17.7917 10.8694 17.6556 10.6167 17.3834Z" fill="black"/>
</svg>
