<svg width="16" height="16" viewBox="0 0 16 16" fill="none" xmlns="http://www.w3.org/2000/svg">
<path d="M3.38334 14.1334C2.96111 14.1334 2.60289 13.9863 2.30867 13.692C2.014 13.3974 1.86667 13.0389 1.86667 12.6167V3.38337C1.86667 2.96114 2.014 2.6027 2.30867 2.30803C2.60289 2.01381 2.96111 1.8667 3.38334 1.8667H7.23334C7.45556 1.8667 7.63889 1.93892 7.78334 2.08337C7.92778 2.22781 8 2.40559 8 2.6167C8 2.83892 7.92778 3.02225 7.78334 3.1667C7.63889 3.31114 7.45556 3.38337 7.23334 3.38337H3.38334V12.6167H12.6167V8.7667C12.6167 8.54448 12.6889 8.36114 12.8333 8.2167C12.9778 8.07225 13.1611 8.00003 13.3833 8.00003C13.5944 8.00003 13.7722 8.07225 13.9167 8.2167C14.0611 8.36114 14.1333 8.54448 14.1333 8.7667V12.6167C14.1333 13.0389 13.9862 13.3974 13.692 13.692C13.3973 13.9863 13.0389 14.1334 12.6167 14.1334H3.38334ZM6.06667 9.93337C5.92222 9.80003 5.85 9.62781 5.85 9.4167C5.85 9.20559 5.92222 9.02781 6.06667 8.88337L11.5667 3.38337H10.1C9.87778 3.38337 9.69445 3.31114 9.55 3.1667C9.40556 3.02225 9.33333 2.83892 9.33333 2.6167C9.33333 2.40559 9.40556 2.22781 9.55 2.08337C9.69445 1.93892 9.87778 1.8667 10.1 1.8667H13.3833C13.5944 1.8667 13.7722 1.93892 13.9167 2.08337C14.0611 2.22781 14.1333 2.40559 14.1333 2.6167V5.90003C14.1333 6.12225 14.0611 6.30559 13.9167 6.45003C13.7722 6.59448 13.5944 6.6667 13.3833 6.6667C13.1611 6.6667 12.9778 6.59448 12.8333 6.45003C12.6889 6.30559 12.6167 6.12225 12.6167 5.90003V4.43337L7.1 9.95003C6.96667 10.0945 6.79733 10.1667 6.592 10.1667C6.38622 10.1667 6.21111 10.0889 6.06667 9.93337Z" fill="black"/>
</svg>
