<svg width="28" height="28" viewBox="0 0 28 28" fill="none" xmlns="http://www.w3.org/2000/svg">
<path d="M24.5 4.66667C24.5 4.33611 24.3882 4.05903 24.1646 3.83542C23.941 3.61181 23.6639 3.5 23.3333 3.5L16.3333 3.5C16.0028 3.5 15.7257 3.61181 15.5021 3.83542C15.2785 4.05903 15.1667 4.33611 15.1667 4.66667C15.1667 4.99722 15.2785 5.27431 15.5021 5.49792C15.7257 5.72153 16.0028 5.83333 16.3333 5.83333L20.5333 5.83333L5.83333 20.5333V16.3333C5.83333 16.0028 5.72153 15.7257 5.49792 15.5021C5.27431 15.2785 4.99722 15.1667 4.66667 15.1667C4.33611 15.1667 4.05903 15.2785 3.83542 15.5021C3.61181 15.7257 3.5 16.0028 3.5 16.3333L3.5 23.3333C3.5 23.6639 3.61181 23.941 3.83542 24.1646C4.05903 24.3882 4.33611 24.5 4.66667 24.5L11.6667 24.5C11.9972 24.5 12.2743 24.3882 12.4979 24.1646C12.7215 23.941 12.8333 23.6639 12.8333 23.3333C12.8333 23.0028 12.7215 22.7257 12.4979 22.5021C12.2743 22.2785 11.9972 22.1667 11.6667 22.1667H7.46667L22.1667 7.46667V11.6667C22.1667 11.9972 22.2785 12.2743 22.5021 12.4979C22.7257 12.7215 23.0028 12.8333 23.3333 12.8333C23.6639 12.8333 23.941 12.7215 24.1646 12.4979C24.3882 12.2743 24.5 11.9972 24.5 11.6667V4.66667Z" fill="black"/>
</svg>
