<svg width="24" height="24" viewBox="0 0 24 24" fill="none" xmlns="http://www.w3.org/2000/svg">
<path d="M5.075 21.2001C4.44167 21.2001 3.90433 20.9794 3.463 20.538C3.021 20.096 2.8 19.5584 2.8 18.925V5.07505C2.8 4.44172 3.021 3.90405 3.463 3.46205C3.90433 3.02072 4.44167 2.80005 5.075 2.80005H10.85C11.1833 2.80005 11.4583 2.90838 11.675 3.12505C11.8917 3.34172 12 3.60838 12 3.92505C12 4.25838 11.8917 4.53338 11.675 4.75005C11.4583 4.96672 11.1833 5.07505 10.85 5.07505H5.075V18.925H18.925V13.15C18.925 12.8167 19.0333 12.5417 19.25 12.325C19.4667 12.1084 19.7417 12 20.075 12C20.3917 12 20.6583 12.1084 20.875 12.325C21.0917 12.5417 21.2 12.8167 21.2 13.15V18.925C21.2 19.5584 20.9793 20.096 20.538 20.538C20.096 20.9794 19.5583 21.2001 18.925 21.2001H5.075ZM9.1 14.9C8.88333 14.7 8.775 14.4417 8.775 14.125C8.775 13.8084 8.88333 13.5417 9.1 13.325L17.35 5.07505H15.15C14.8167 5.07505 14.5417 4.96672 14.325 4.75005C14.1083 4.53338 14 4.25838 14 3.92505C14 3.60838 14.1083 3.34172 14.325 3.12505C14.5417 2.90838 14.8167 2.80005 15.15 2.80005H20.075C20.3917 2.80005 20.6583 2.90838 20.875 3.12505C21.0917 3.34172 21.2 3.60838 21.2 3.92505V8.85005C21.2 9.18338 21.0917 9.45838 20.875 9.67505C20.6583 9.89172 20.3917 10 20.075 10C19.7417 10 19.4667 9.89172 19.25 9.67505C19.0333 9.45838 18.925 9.18338 18.925 8.85005V6.65005L10.65 14.925C10.45 15.1417 10.196 15.25 9.888 15.25C9.57933 15.25 9.31667 15.1334 9.1 14.9Z" fill="black"/>
</svg>
