<svg width="24" height="24" viewBox="0 0 24 24" fill="none" xmlns="http://www.w3.org/2000/svg">
<path d="M4 21C3.71667 21 3.47917 20.9042 3.2875 20.7125C3.09583 20.5208 3 20.2833 3 20V14C3 13.7167 3.09583 13.4792 3.2875 13.2875C3.47917 13.0958 3.71667 13 4 13C4.28333 13 4.52083 13.0958 4.7125 13.2875C4.90417 13.4792 5 13.7167 5 14V17.6L17.6 5H14C13.7167 5 13.4792 4.90417 13.2875 4.7125C13.0958 4.52083 13 4.28333 13 4C13 3.71667 13.0958 3.47917 13.2875 3.2875C13.4792 3.09583 13.7167 3 14 3H20C20.2833 3 20.5208 3.09583 20.7125 3.2875C20.9042 3.47917 21 3.71667 21 4V10C21 10.2833 20.9042 10.5208 20.7125 10.7125C20.5208 10.9042 20.2833 11 20 11C19.7167 11 19.4792 10.9042 19.2875 10.7125C19.0958 10.5208 19 10.2833 19 10V6.4L6.4 19H10C10.2833 19 10.5208 19.0958 10.7125 19.2875C10.9042 19.4792 11 19.7167 11 20C11 20.2833 10.9042 20.5208 10.7125 20.7125C10.5208 20.9042 10.2833 21 10 21H4Z" fill="black"/>
</svg>
