<svg width="16" height="16" viewBox="0 0 16 16" fill="none" xmlns="http://www.w3.org/2000/svg">
<path d="M14 2.66667C14 2.47778 13.9361 2.31944 13.8083 2.19167C13.6806 2.06389 13.5222 2 13.3333 2L9.33333 2C9.14445 2 8.98611 2.06389 8.85833 2.19167C8.73056 2.31944 8.66667 2.47778 8.66667 2.66667C8.66667 2.85556 8.73056 3.01389 8.85833 3.14167C8.98611 3.26944 9.14445 3.33333 9.33333 3.33333L11.7333 3.33333L3.33333 11.7333V9.33333C3.33333 9.14444 3.26944 8.98611 3.14167 8.85833C3.01389 8.73056 2.85556 8.66667 2.66667 8.66667C2.47778 8.66667 2.31944 8.73056 2.19167 8.85833C2.06389 8.98611 2 9.14444 2 9.33333L2 13.3333C2 13.5222 2.06389 13.6806 2.19167 13.8083C2.31944 13.9361 2.47778 14 2.66667 14H6.66667C6.85556 14 7.01389 13.9361 7.14167 13.8083C7.26944 13.6806 7.33333 13.5222 7.33333 13.3333C7.33333 13.1444 7.26944 12.9861 7.14167 12.8583C7.01389 12.7306 6.85556 12.6667 6.66667 12.6667H4.26667L12.6667 4.26667V6.66667C12.6667 6.85556 12.7306 7.01389 12.8583 7.14167C12.9861 7.26944 13.1444 7.33333 13.3333 7.33333C13.5222 7.33333 13.6806 7.26944 13.8083 7.14167C13.9361 7.01389 14 6.85556 14 6.66667V2.66667Z" fill="black"/>
</svg>
