<svg width="16" height="16" viewBox="0 0 16 16" fill="none" xmlns="http://www.w3.org/2000/svg">
<path d="M1.33268 12.6665V11.3332H14.666V12.6665H1.33268ZM2.09935 8.63317L1.23268 8.13317L1.79935 7.13317H0.666016V6.13317H1.79935L1.23268 5.1665L2.09935 4.6665L2.66602 5.63317L3.23268 4.6665L4.09935 5.1665L3.53268 6.13317H4.66602V7.13317H3.53268L4.09935 8.13317L3.23268 8.63317L2.66602 7.63317L2.09935 8.63317ZM7.43268 8.63317L6.56602 8.13317L7.13268 7.13317H5.99935V6.13317H7.13268L6.56602 5.1665L7.43268 4.6665L7.99935 5.63317L8.56602 4.6665L9.43268 5.1665L8.86602 6.13317H9.99935V7.13317H8.86602L9.43268 8.13317L8.56602 8.63317L7.99935 7.63317L7.43268 8.63317ZM12.766 8.63317L11.8993 8.13317L12.466 7.13317H11.3327V6.13317H12.466L11.8993 5.1665L12.766 4.6665L13.3327 5.63317L13.8993 4.6665L14.766 5.1665L14.1993 6.13317H15.3327V7.13317H14.1993L14.766 8.13317L13.8993 8.63317L13.3327 7.63317L12.766 8.63317Z" fill="#6E6E6E"/>
</svg>
