<svg width="28" height="28" viewBox="0 0 28 28" fill="none" xmlns="http://www.w3.org/2000/svg">
<path d="M3.5 23.3337V20.067C3.5 19.4059 3.67014 18.7982 4.01042 18.2441C4.35069 17.6899 4.80278 17.267 5.36667 16.9753C6.57222 16.3725 7.79722 15.9205 9.04167 15.6191C10.2861 15.3177 11.55 15.167 12.8333 15.167C13.2222 15.167 13.6111 15.1816 14 15.2107C14.3889 15.2399 14.7778 15.2837 15.1667 15.342C15.0889 16.4698 15.2931 17.5344 15.7792 18.5357C16.2653 19.5371 16.975 20.3587 17.9083 21.0003V23.3337H3.5ZM22.1667 26.8337L20.4167 25.0837V19.6587C19.5611 19.4059 18.8611 18.9246 18.3167 18.2149C17.7722 17.5052 17.5 16.6837 17.5 15.7503C17.5 14.6225 17.8986 13.66 18.6958 12.8628C19.4931 12.0656 20.4556 11.667 21.5833 11.667C22.7111 11.667 23.6736 12.0656 24.4708 12.8628C25.2681 13.66 25.6667 14.6225 25.6667 15.7503C25.6667 16.6253 25.4187 17.4031 24.9229 18.0837C24.4271 18.7642 23.8 19.2503 23.0417 19.542L24.5 21.0003L22.75 22.7503L24.5 24.5003L22.1667 26.8337ZM12.8333 14.0003C11.55 14.0003 10.4514 13.5434 9.5375 12.6295C8.62361 11.7156 8.16667 10.617 8.16667 9.33366C8.16667 8.05033 8.62361 6.95171 9.5375 6.03783C10.4514 5.12394 11.55 4.66699 12.8333 4.66699C14.1167 4.66699 15.2153 5.12394 16.1292 6.03783C17.0431 6.95171 17.5 8.05033 17.5 9.33366C17.5 10.617 17.0431 11.7156 16.1292 12.6295C15.2153 13.5434 14.1167 14.0003 12.8333 14.0003ZM21.5833 16.3337C21.9139 16.3337 22.191 16.2219 22.4146 15.9982C22.6382 15.7746 22.75 15.4975 22.75 15.167C22.75 14.8364 22.6382 14.5594 22.4146 14.3357C22.191 14.1121 21.9139 14.0003 21.5833 14.0003C21.2528 14.0003 20.9757 14.1121 20.7521 14.3357C20.5285 14.5594 20.4167 14.8364 20.4167 15.167C20.4167 15.4975 20.5285 15.7746 20.7521 15.9982C20.9757 16.2219 21.2528 16.3337 21.5833 16.3337Z" fill="#191919"/>
</svg>
