<svg width="28" height="28" viewBox="0 0 28 28" fill="none" xmlns="http://www.w3.org/2000/svg">
<path d="M2.33268 22.1665V19.8332H25.666V22.1665H2.33268ZM3.67435 15.1082L2.15768 14.2332L3.14935 12.4832H1.16602V10.7332H3.14935L2.15768 9.0415L3.67435 8.1665L4.66602 9.85817L5.65768 8.1665L7.17435 9.0415L6.18268 10.7332H8.16602V12.4832H6.18268L7.17435 14.2332L5.65768 15.1082L4.66602 13.3582L3.67435 15.1082ZM13.0077 15.1082L11.491 14.2332L12.4827 12.4832H10.4993V10.7332H12.4827L11.491 9.0415L13.0077 8.1665L13.9993 9.85817L14.991 8.1665L16.5077 9.0415L15.516 10.7332H17.4993V12.4832H15.516L16.5077 14.2332L14.991 15.1082L13.9993 13.3582L13.0077 15.1082ZM22.341 15.1082L20.8243 14.2332L21.816 12.4832H19.8327V10.7332H21.816L20.8243 9.0415L22.341 8.1665L23.3327 9.85817L24.3243 8.1665L25.841 9.0415L24.8493 10.7332H26.8327V12.4832H24.8493L25.841 14.2332L24.3243 15.1082L23.3327 13.3582L22.341 15.1082Z" fill="#6E6E6E"/>
</svg>
