<svg width="16" height="16" viewBox="0 0 16 16" fill="none" xmlns="http://www.w3.org/2000/svg">
<path d="M2 13.3337V11.467C2 11.0892 2.09722 10.742 2.29167 10.4253C2.48611 10.1087 2.74444 9.86699 3.06667 9.70033C3.75556 9.35588 4.45556 9.09755 5.16667 8.92533C5.87778 8.7531 6.6 8.66699 7.33333 8.66699C7.55556 8.66699 7.77778 8.67533 8 8.69199C8.22222 8.70866 8.44444 8.73366 8.66667 8.76699C8.62222 9.41144 8.73889 10.0198 9.01667 10.592C9.29445 11.1642 9.7 11.6337 10.2333 12.0003V13.3337H2ZM12.6667 15.3337L11.6667 14.3337V11.2337C11.1778 11.0892 10.7778 10.8142 10.4667 10.4087C10.1556 10.0031 10 9.53366 10 9.00033C10 8.35588 10.2278 7.80588 10.6833 7.35033C11.1389 6.89477 11.6889 6.66699 12.3333 6.66699C12.9778 6.66699 13.5278 6.89477 13.9833 7.35033C14.4389 7.80588 14.6667 8.35588 14.6667 9.00033C14.6667 9.50033 14.525 9.94477 14.2417 10.3337C13.9583 10.7225 13.6 11.0003 13.1667 11.167L14 12.0003L13 13.0003L14 14.0003L12.6667 15.3337ZM7.33333 8.00033C6.6 8.00033 5.97222 7.73921 5.45 7.21699C4.92778 6.69477 4.66667 6.06699 4.66667 5.33366C4.66667 4.60033 4.92778 3.97255 5.45 3.45033C5.97222 2.9281 6.6 2.66699 7.33333 2.66699C8.06667 2.66699 8.69444 2.9281 9.21667 3.45033C9.73889 3.97255 10 4.60033 10 5.33366C10 6.06699 9.73889 6.69477 9.21667 7.21699C8.69444 7.73921 8.06667 8.00033 7.33333 8.00033ZM12.3333 9.33366C12.5222 9.33366 12.6806 9.26977 12.8083 9.14199C12.9361 9.01421 13 8.85588 13 8.66699C13 8.4781 12.9361 8.31977 12.8083 8.19199C12.6806 8.06421 12.5222 8.00033 12.3333 8.00033C12.1444 8.00033 11.9861 8.06421 11.8583 8.19199C11.7306 8.31977 11.6667 8.4781 11.6667 8.66699C11.6667 8.85588 11.7306 9.01421 11.8583 9.14199C11.9861 9.26977 12.1444 9.33366 12.3333 9.33366Z" fill="#191919"/>
</svg>
