<svg width="16" height="16" viewBox="0 0 16 16" fill="none" xmlns="http://www.w3.org/2000/svg">
<path d="M10.6667 9.33341C10.1111 9.33341 9.63889 9.13897 9.25 8.75008C8.86111 8.36119 8.66667 7.88897 8.66667 7.33341C8.66667 6.77786 8.86111 6.30564 9.25 5.91675C9.63889 5.52786 10.1111 5.33341 10.6667 5.33341C11.2222 5.33341 11.6944 5.52786 12.0833 5.91675C12.4722 6.30564 12.6667 6.77786 12.6667 7.33341C12.6667 7.88897 12.4722 8.36119 12.0833 8.75008C11.6944 9.13897 11.2222 9.33341 10.6667 9.33341ZM7.33333 13.3334C7.14444 13.3334 6.98611 13.2695 6.85833 13.1417C6.73056 13.014 6.66667 12.8556 6.66667 12.6667V12.0667C6.66667 11.8334 6.72222 11.6112 6.83333 11.4001C6.94444 11.189 7.1 11.0223 7.3 10.9001C7.8 10.6001 8.33056 10.3751 8.89167 10.2251C9.45278 10.0751 10.0444 10.0001 10.6667 10.0001C11.2889 10.0001 11.8806 10.0751 12.4417 10.2251C13.0028 10.3751 13.5333 10.6001 14.0333 10.9001C14.2333 11.0223 14.3889 11.189 14.5 11.4001C14.6111 11.6112 14.6667 11.8334 14.6667 12.0667V12.6667C14.6667 12.8556 14.6028 13.014 14.475 13.1417C14.3472 13.2695 14.1889 13.3334 14 13.3334H7.33333ZM8.1 12.0001H13.2333C12.8444 11.7779 12.4333 11.6112 12 11.5001C11.5667 11.389 11.1222 11.3334 10.6667 11.3334C10.2111 11.3334 9.76667 11.389 9.33333 11.5001C8.9 11.6112 8.48889 11.7779 8.1 12.0001ZM10.6667 8.00008C10.8556 8.00008 11.0139 7.93619 11.1417 7.80841C11.2694 7.68064 11.3333 7.5223 11.3333 7.33341C11.3333 7.14453 11.2694 6.98619 11.1417 6.85841C11.0139 6.73064 10.8556 6.66675 10.6667 6.66675C10.4778 6.66675 10.3194 6.73064 10.1917 6.85841C10.0639 6.98619 10 7.14453 10 7.33341C10 7.5223 10.0639 7.68064 10.1917 7.80841C10.3194 7.93619 10.4778 8.00008 10.6667 8.00008ZM6.66667 9.33341H2.66667C2.47778 9.33341 2.31944 9.26953 2.19167 9.14175C2.06389 9.01397 2 8.85564 2 8.66675C2 8.47786 2.06389 8.31953 2.19167 8.19175C2.31944 8.06397 2.47778 8.00008 2.66667 8.00008H6.66667C6.85556 8.00008 7.01389 8.06397 7.14167 8.19175C7.26944 8.31953 7.33333 8.47786 7.33333 8.66675C7.33333 8.85564 7.26944 9.01397 7.14167 9.14175C7.01389 9.26953 6.85556 9.33341 6.66667 9.33341ZM9.33333 4.00008H2.66667C2.47778 4.00008 2.31944 3.93619 2.19167 3.80841C2.06389 3.68064 2 3.5223 2 3.33341C2 3.14453 2.06389 2.98619 2.19167 2.85841C2.31944 2.73064 2.47778 2.66675 2.66667 2.66675H9.33333C9.52222 2.66675 9.68056 2.73064 9.80833 2.85841C9.93611 2.98619 10 3.14453 10 3.33341C10 3.5223 9.93611 3.68064 9.80833 3.80841C9.68056 3.93619 9.52222 4.00008 9.33333 4.00008ZM7.4 6.66675H2.66667C2.47778 6.66675 2.31944 6.60286 2.19167 6.47508C2.06389 6.3473 2 6.18897 2 6.00008C2 5.81119 2.06389 5.65286 2.19167 5.52508C2.31944 5.3973 2.47778 5.33341 2.66667 5.33341H8C7.84444 5.5223 7.71944 5.72786 7.625 5.95008C7.53056 6.1723 7.45556 6.41119 7.4 6.66675Z" fill="#1C1B1F"/>
</svg>
