<svg width="28" height="28" viewBox="0 0 28 28" fill="none" xmlns="http://www.w3.org/2000/svg">
<path d="M18.6667 16.3334C17.6944 16.3334 16.8681 15.9931 16.1875 15.3126C15.5069 14.632 15.1667 13.8056 15.1667 12.8334C15.1667 11.8612 15.5069 11.0348 16.1875 10.3542C16.8681 9.67369 17.6944 9.33341 18.6667 9.33341C19.6389 9.33341 20.4653 9.67369 21.1458 10.3542C21.8264 11.0348 22.1667 11.8612 22.1667 12.8334C22.1667 13.8056 21.8264 14.632 21.1458 15.3126C20.4653 15.9931 19.6389 16.3334 18.6667 16.3334ZM12.8333 23.3334C12.5028 23.3334 12.2257 23.2216 12.0021 22.998C11.7785 22.7744 11.6667 22.4973 11.6667 22.1667V21.1167C11.6667 20.7084 11.7639 20.3195 11.9583 19.9501C12.1528 19.5806 12.425 19.289 12.775 19.0751C13.65 18.5501 14.5785 18.1563 15.5604 17.8938C16.5424 17.6313 17.5778 17.5001 18.6667 17.5001C19.7556 17.5001 20.791 17.6313 21.7729 17.8938C22.7549 18.1563 23.6833 18.5501 24.5583 19.0751C24.9083 19.289 25.1806 19.5806 25.375 19.9501C25.5694 20.3195 25.6667 20.7084 25.6667 21.1167V22.1667C25.6667 22.4973 25.5549 22.7744 25.3312 22.998C25.1076 23.2216 24.8306 23.3334 24.5 23.3334H12.8333ZM14.175 21.0001H23.1583C22.4778 20.6112 21.7583 20.3195 21 20.1251C20.2417 19.9306 19.4639 19.8334 18.6667 19.8334C17.8694 19.8334 17.0917 19.9306 16.3333 20.1251C15.575 20.3195 14.8556 20.6112 14.175 21.0001ZM18.6667 14.0001C18.9972 14.0001 19.2743 13.8883 19.4979 13.6647C19.7215 13.4411 19.8333 13.164 19.8333 12.8334C19.8333 12.5029 19.7215 12.2258 19.4979 12.0022C19.2743 11.7786 18.9972 11.6667 18.6667 11.6667C18.3361 11.6667 18.059 11.7786 17.8354 12.0022C17.6118 12.2258 17.5 12.5029 17.5 12.8334C17.5 13.164 17.6118 13.4411 17.8354 13.6647C18.059 13.8883 18.3361 14.0001 18.6667 14.0001ZM11.6667 16.3334H4.66667C4.33611 16.3334 4.05903 16.2216 3.83542 15.998C3.61181 15.7744 3.5 15.4973 3.5 15.1667C3.5 14.8362 3.61181 14.5591 3.83542 14.3355C4.05903 14.1119 4.33611 14.0001 4.66667 14.0001H11.6667C11.9972 14.0001 12.2743 14.1119 12.4979 14.3355C12.7215 14.5591 12.8333 14.8362 12.8333 15.1667C12.8333 15.4973 12.7215 15.7744 12.4979 15.998C12.2743 16.2216 11.9972 16.3334 11.6667 16.3334ZM16.3333 7.00008H4.66667C4.33611 7.00008 4.05903 6.88828 3.83542 6.66466C3.61181 6.44105 3.5 6.16397 3.5 5.83341C3.5 5.50286 3.61181 5.22578 3.83542 5.00216C4.05903 4.77855 4.33611 4.66675 4.66667 4.66675H16.3333C16.6639 4.66675 16.941 4.77855 17.1646 5.00216C17.3882 5.22578 17.5 5.50286 17.5 5.83341C17.5 6.16397 17.3882 6.44105 17.1646 6.66466C16.941 6.88828 16.6639 7.00008 16.3333 7.00008ZM12.95 11.6667H4.66667C4.33611 11.6667 4.05903 11.5549 3.83542 11.3313C3.61181 11.1077 3.5 10.8306 3.5 10.5001C3.5 10.1695 3.61181 9.89244 3.83542 9.66883C4.05903 9.44522 4.33611 9.33341 4.66667 9.33341H14C13.7278 9.66397 13.509 10.0237 13.3437 10.4126C13.1785 10.8015 13.0472 11.2195 12.95 11.6667Z" fill="#1C1B1F"/>
</svg>
