<svg width="24" height="24" viewBox="0 0 24 24" fill="none" xmlns="http://www.w3.org/2000/svg">
<path d="M16 14C15.1667 14 14.4583 13.7083 13.875 13.125C13.2917 12.5417 13 11.8333 13 11C13 10.1667 13.2917 9.45833 13.875 8.875C14.4583 8.29167 15.1667 8 16 8C16.8333 8 17.5417 8.29167 18.125 8.875C18.7083 9.45833 19 10.1667 19 11C19 11.8333 18.7083 12.5417 18.125 13.125C17.5417 13.7083 16.8333 14 16 14ZM11 20C10.7167 20 10.4792 19.9042 10.2875 19.7125C10.0958 19.5208 10 19.2833 10 19V18.1C10 17.75 10.0833 17.4167 10.25 17.1C10.4167 16.7833 10.65 16.5333 10.95 16.35C11.7 15.9 12.4958 15.5625 13.3375 15.3375C14.1792 15.1125 15.0667 15 16 15C16.9333 15 17.8208 15.1125 18.6625 15.3375C19.5042 15.5625 20.3 15.9 21.05 16.35C21.35 16.5333 21.5833 16.7833 21.75 17.1C21.9167 17.4167 22 17.75 22 18.1V19C22 19.2833 21.9042 19.5208 21.7125 19.7125C21.5208 19.9042 21.2833 20 21 20H11ZM12.15 18H19.85C19.2667 17.6667 18.65 17.4167 18 17.25C17.35 17.0833 16.6833 17 16 17C15.3167 17 14.65 17.0833 14 17.25C13.35 17.4167 12.7333 17.6667 12.15 18ZM16 12C16.2833 12 16.5208 11.9042 16.7125 11.7125C16.9042 11.5208 17 11.2833 17 11C17 10.7167 16.9042 10.4792 16.7125 10.2875C16.5208 10.0958 16.2833 10 16 10C15.7167 10 15.4792 10.0958 15.2875 10.2875C15.0958 10.4792 15 10.7167 15 11C15 11.2833 15.0958 11.5208 15.2875 11.7125C15.4792 11.9042 15.7167 12 16 12ZM10 14H4C3.71667 14 3.47917 13.9042 3.2875 13.7125C3.09583 13.5208 3 13.2833 3 13C3 12.7167 3.09583 12.4792 3.2875 12.2875C3.47917 12.0958 3.71667 12 4 12H10C10.2833 12 10.5208 12.0958 10.7125 12.2875C10.9042 12.4792 11 12.7167 11 13C11 13.2833 10.9042 13.5208 10.7125 13.7125C10.5208 13.9042 10.2833 14 10 14ZM14 6H4C3.71667 6 3.47917 5.90417 3.2875 5.7125C3.09583 5.52083 3 5.28333 3 5C3 4.71667 3.09583 4.47917 3.2875 4.2875C3.47917 4.09583 3.71667 4 4 4H14C14.2833 4 14.5208 4.09583 14.7125 4.2875C14.9042 4.47917 15 4.71667 15 5C15 5.28333 14.9042 5.52083 14.7125 5.7125C14.5208 5.90417 14.2833 6 14 6ZM11.1 10H4C3.71667 10 3.47917 9.90417 3.2875 9.7125C3.09583 9.52083 3 9.28333 3 9C3 8.71667 3.09583 8.47917 3.2875 8.2875C3.47917 8.09583 3.71667 8 4 8H12C11.7667 8.28333 11.5792 8.59167 11.4375 8.925C11.2958 9.25833 11.1833 9.61667 11.1 10Z" fill="#1C1B1F"/>
</svg>
