<svg width="16" height="16" viewBox="0 0 16 16" fill="none" xmlns="http://www.w3.org/2000/svg">
<path d="M6.66665 10.6666C7.03331 10.6666 7.33331 10.3666 7.33331 9.99992V5.99992C7.33331 5.63325 7.03331 5.33325 6.66665 5.33325C6.29998 5.33325 5.99998 5.63325 5.99998 5.99992V9.99992C5.99998 10.3666 6.29998 10.6666 6.66665 10.6666ZM7.99998 1.33325C4.31998 1.33325 1.33331 4.31992 1.33331 7.99992C1.33331 11.6799 4.31998 14.6666 7.99998 14.6666C11.68 14.6666 14.6666 11.6799 14.6666 7.99992C14.6666 4.31992 11.68 1.33325 7.99998 1.33325ZM7.99998 13.3333C5.05998 13.3333 2.66665 10.9399 2.66665 7.99992C2.66665 5.05992 5.05998 2.66659 7.99998 2.66659C10.94 2.66659 13.3333 5.05992 13.3333 7.99992C13.3333 10.9399 10.94 13.3333 7.99998 13.3333ZM9.33331 10.6666C9.69998 10.6666 9.99998 10.3666 9.99998 9.99992V5.99992C9.99998 5.63325 9.69998 5.33325 9.33331 5.33325C8.96665 5.33325 8.66665 5.63325 8.66665 5.99992V9.99992C8.66665 10.3666 8.96665 10.6666 9.33331 10.6666Z" fill="black"/>
</svg>
