<svg width="24" height="24" viewBox="0 0 24 24" fill="none" xmlns="http://www.w3.org/2000/svg">
<path d="M10 16C10.55 16 11 15.55 11 15V9C11 8.45 10.55 8 10 8C9.45 8 9 8.45 9 9V15C9 15.55 9.45 16 10 16ZM12 2C6.48 2 2 6.48 2 12C2 17.52 6.48 22 12 22C17.52 22 22 17.52 22 12C22 6.48 17.52 2 12 2ZM12 20C7.59 20 4 16.41 4 12C4 7.59 7.59 4 12 4C16.41 4 20 7.59 20 12C20 16.41 16.41 20 12 20ZM14 16C14.55 16 15 15.55 15 15V9C15 8.45 14.55 8 14 8C13.45 8 13 8.45 13 9V15C13 15.55 13.45 16 14 16Z" fill="black"/>
</svg>
