<svg width="16" height="16" viewBox="0 0 16 16" fill="none" xmlns="http://www.w3.org/2000/svg">
<path d="M9.99998 12.6667C9.63331 12.6667 9.31942 12.5362 9.05831 12.275C8.7972 12.0139 8.66665 11.7 8.66665 11.3334V4.66671C8.66665 4.30004 8.7972 3.98615 9.05831 3.72504C9.31942 3.46393 9.63331 3.33337 9.99998 3.33337H11.3333C11.7 3.33337 12.0139 3.46393 12.275 3.72504C12.5361 3.98615 12.6666 4.30004 12.6666 4.66671V11.3334C12.6666 11.7 12.5361 12.0139 12.275 12.275C12.0139 12.5362 11.7 12.6667 11.3333 12.6667H9.99998ZM4.66665 12.6667C4.29998 12.6667 3.98609 12.5362 3.72498 12.275C3.46387 12.0139 3.33331 11.7 3.33331 11.3334V4.66671C3.33331 4.30004 3.46387 3.98615 3.72498 3.72504C3.98609 3.46393 4.29998 3.33337 4.66665 3.33337H5.99998C6.36665 3.33337 6.68054 3.46393 6.94165 3.72504C7.20276 3.98615 7.33331 4.30004 7.33331 4.66671V11.3334C7.33331 11.7 7.20276 12.0139 6.94165 12.275C6.68054 12.5362 6.36665 12.6667 5.99998 12.6667H4.66665ZM9.99998 11.3334H11.3333V4.66671H9.99998V11.3334ZM4.66665 11.3334H5.99998V4.66671H4.66665V11.3334Z" fill="black"/>
</svg>
