<svg width="24" height="24" viewBox="0 0 24 24" fill="none" xmlns="http://www.w3.org/2000/svg">
<path d="M15 19C14.45 19 13.9792 18.8042 13.5875 18.4125C13.1958 18.0208 13 17.55 13 17V7C13 6.45 13.1958 5.97917 13.5875 5.5875C13.9792 5.19583 14.45 5 15 5H17C17.55 5 18.0208 5.19583 18.4125 5.5875C18.8042 5.97917 19 6.45 19 7V17C19 17.55 18.8042 18.0208 18.4125 18.4125C18.0208 18.8042 17.55 19 17 19H15ZM7 19C6.45 19 5.97917 18.8042 5.5875 18.4125C5.19583 18.0208 5 17.55 5 17V7C5 6.45 5.19583 5.97917 5.5875 5.5875C5.97917 5.19583 6.45 5 7 5H9C9.55 5 10.0208 5.19583 10.4125 5.5875C10.8042 5.97917 11 6.45 11 7V17C11 17.55 10.8042 18.0208 10.4125 18.4125C10.0208 18.8042 9.55 19 9 19H7ZM15 17H17V7H15V17ZM7 17H9V7H7V17Z" fill="black"/>
</svg>
