<svg width="28" height="28" viewBox="0 0 28 28" fill="none" xmlns="http://www.w3.org/2000/svg">
<path d="M17.5 22.1667C16.8583 22.1667 16.309 21.9382 15.8521 21.4813C15.3951 21.0243 15.1666 20.475 15.1666 19.8334V8.16671C15.1666 7.52504 15.3951 6.97574 15.8521 6.51879C16.309 6.06185 16.8583 5.83337 17.5 5.83337H19.8333C20.475 5.83337 21.0243 6.06185 21.4812 6.51879C21.9382 6.97574 22.1666 7.52504 22.1666 8.16671V19.8334C22.1666 20.475 21.9382 21.0243 21.4812 21.4813C21.0243 21.9382 20.475 22.1667 19.8333 22.1667H17.5ZM8.16665 22.1667C7.52498 22.1667 6.97567 21.9382 6.51873 21.4813C6.06179 21.0243 5.83331 20.475 5.83331 19.8334V8.16671C5.83331 7.52504 6.06179 6.97574 6.51873 6.51879C6.97567 6.06185 7.52498 5.83337 8.16665 5.83337H10.5C11.1416 5.83337 11.691 6.06185 12.1479 6.51879C12.6048 6.97574 12.8333 7.52504 12.8333 8.16671V19.8334C12.8333 20.475 12.6048 21.0243 12.1479 21.4813C11.691 21.9382 11.1416 22.1667 10.5 22.1667H8.16665ZM17.5 19.8334H19.8333V8.16671H17.5V19.8334ZM8.16665 19.8334H10.5V8.16671H8.16665V19.8334Z" fill="black"/>
</svg>
