<svg width="28" height="28" viewBox="0 0 28 28" fill="none" xmlns="http://www.w3.org/2000/svg">
<path d="M11.6666 18.6666C12.3083 18.6666 12.8333 18.1416 12.8333 17.4999V10.4999C12.8333 9.85825 12.3083 9.33325 11.6666 9.33325C11.025 9.33325 10.5 9.85825 10.5 10.4999V17.4999C10.5 18.1416 11.025 18.6666 11.6666 18.6666ZM14 2.33325C7.55998 2.33325 2.33331 7.55992 2.33331 13.9999C2.33331 20.4399 7.55998 25.6666 14 25.6666C20.44 25.6666 25.6666 20.4399 25.6666 13.9999C25.6666 7.55992 20.44 2.33325 14 2.33325ZM14 23.3333C8.85498 23.3333 4.66665 19.1449 4.66665 13.9999C4.66665 8.85492 8.85498 4.66659 14 4.66659C19.145 4.66659 23.3333 8.85492 23.3333 13.9999C23.3333 19.1449 19.145 23.3333 14 23.3333ZM16.3333 18.6666C16.975 18.6666 17.5 18.1416 17.5 17.4999V10.4999C17.5 9.85825 16.975 9.33325 16.3333 9.33325C15.6916 9.33325 15.1666 9.85825 15.1666 10.4999V17.4999C15.1666 18.1416 15.6916 18.6666 16.3333 18.6666Z" fill="black"/>
</svg>
