<svg width="28" height="28" viewBox="0 0 28 28" fill="none" xmlns="http://www.w3.org/2000/svg">
<path fill-rule="evenodd" clip-rule="evenodd" d="M19.4483 15.3183C21.0467 16.4033 22.1667 17.8733 22.1667 19.8333V23.3333H25.6667C26.3083 23.3333 26.8333 22.8083 26.8333 22.1666V19.8333C26.8333 17.29 22.6683 15.785 19.4483 15.3183Z" fill="black"/>
<path d="M10.5 14C13.0773 14 15.1667 11.9106 15.1667 9.33329C15.1667 6.75596 13.0773 4.66663 10.5 4.66663C7.92266 4.66663 5.83332 6.75596 5.83332 9.33329C5.83332 11.9106 7.92266 14 10.5 14Z" fill="black"/>
<path fill-rule="evenodd" clip-rule="evenodd" d="M17.5 14C20.0783 14 22.1667 11.9116 22.1667 9.33329C22.1667 6.75496 20.0783 4.66663 17.5 4.66663C16.9517 4.66663 16.4383 4.78329 15.9483 4.94663C16.9167 6.14829 17.5 7.67663 17.5 9.33329C17.5 10.99 16.9167 12.5183 15.9483 13.72C16.4383 13.8833 16.9517 14 17.5 14Z" fill="black"/>
<path fill-rule="evenodd" clip-rule="evenodd" d="M10.5 15.1666C7.38499 15.1666 1.16666 16.73 1.16666 19.8333V22.1666C1.16666 22.8083 1.69166 23.3333 2.33332 23.3333H18.6667C19.3083 23.3333 19.8333 22.8083 19.8333 22.1666V19.8333C19.8333 16.73 13.615 15.1666 10.5 15.1666Z" fill="black"/>
</svg>
