<svg width="28" height="28" viewBox="0 0 28 28" fill="none" xmlns="http://www.w3.org/2000/svg">
<path d="M2.33335 23.3334C2.0028 23.3334 1.72591 23.2214 1.50269 22.9974C1.27869 22.7742 1.16669 22.4973 1.16669 22.1667V20.0667C1.16669 19.4056 1.33702 18.7978 1.67769 18.2432C2.01758 17.6895 2.46946 17.2667 3.03335 16.9751C4.23891 16.3723 5.46391 15.92 6.70835 15.6182C7.9528 15.3172 9.21669 15.1667 10.5 15.1667C11.7834 15.1667 13.0472 15.3172 14.2917 15.6182C15.5361 15.92 16.7611 16.3723 17.9667 16.9751C18.5306 17.2667 18.9825 17.6895 19.3224 18.2432C19.663 18.7978 19.8334 19.4056 19.8334 20.0667V22.1667C19.8334 22.4973 19.7214 22.7742 19.4974 22.9974C19.2741 23.2214 18.9972 23.3334 18.6667 23.3334H2.33335ZM21.6125 23.3334C21.7875 23.1973 21.9236 23.027 22.0209 22.8224C22.1181 22.6186 22.1667 22.3904 22.1667 22.1376V19.8334C22.1667 18.9779 21.9287 18.1561 21.4527 17.3682C20.9759 16.5811 20.3 15.9056 19.425 15.3417C20.4167 15.4584 21.35 15.6575 22.225 15.9391C23.1 16.2214 23.9167 16.5667 24.675 16.9751C25.375 17.364 25.9097 17.7964 26.2792 18.2724C26.6486 18.7492 26.8334 19.2695 26.8334 19.8334V22.1667C26.8334 22.4973 26.7214 22.7742 26.4974 22.9974C26.2741 23.2214 25.9972 23.3334 25.6667 23.3334H21.6125ZM10.5 14.0001C9.21669 14.0001 8.11808 13.5431 7.20419 12.6292C6.2903 11.7154 5.83335 10.6167 5.83335 9.33341C5.83335 8.05008 6.2903 6.95147 7.20419 6.03758C8.11808 5.12369 9.21669 4.66675 10.5 4.66675C11.7834 4.66675 12.882 5.12369 13.7959 6.03758C14.7097 6.95147 15.1667 8.05008 15.1667 9.33341C15.1667 10.6167 14.7097 11.7154 13.7959 12.6292C12.882 13.5431 11.7834 14.0001 10.5 14.0001ZM22.1667 9.33341C22.1667 10.6167 21.7097 11.7154 20.7959 12.6292C19.882 13.5431 18.7834 14.0001 17.5 14.0001C17.2861 14.0001 17.0139 13.976 16.6834 13.9277C16.3528 13.8787 16.0806 13.8251 15.8667 13.7667C16.3917 13.1445 16.795 12.4542 17.0765 11.6959C17.3589 10.9376 17.5 10.1501 17.5 9.33341C17.5 8.51675 17.3589 7.72925 17.0765 6.97091C16.795 6.21258 16.3917 5.5223 15.8667 4.90008C16.1389 4.80286 16.4111 4.73947 16.6834 4.70991C16.9556 4.68114 17.2278 4.66675 17.5 4.66675C18.7834 4.66675 19.882 5.12369 20.7959 6.03758C21.7097 6.95147 22.1667 8.05008 22.1667 9.33341ZM3.50002 21.0001H17.5V20.0667C17.5 19.8529 17.4467 19.6584 17.3402 19.4834C17.2329 19.3084 17.0917 19.1723 16.9167 19.0751C15.8667 18.5501 14.807 18.1561 13.7375 17.8932C12.6681 17.6311 11.5889 17.5001 10.5 17.5001C9.41113 17.5001 8.33196 17.6311 7.26252 17.8932C6.19308 18.1561 5.13335 18.5501 4.08335 19.0751C3.90835 19.1723 3.76758 19.3084 3.66102 19.4834C3.55369 19.6584 3.50002 19.8529 3.50002 20.0667V21.0001ZM10.5 11.6667C11.1417 11.6667 11.6912 11.4381 12.1485 10.9807C12.6051 10.5242 12.8334 9.97508 12.8334 9.33341C12.8334 8.69175 12.6051 8.14264 12.1485 7.68608C11.6912 7.22875 11.1417 7.00008 10.5 7.00008C9.85835 7.00008 9.30924 7.22875 8.85269 7.68608C8.39535 8.14264 8.16669 8.69175 8.16669 9.33341C8.16669 9.97508 8.39535 10.5242 8.85269 10.9807C9.30924 11.4381 9.85835 11.6667 10.5 11.6667Z" fill="black"/>
</svg>
