<svg width="16" height="16" viewBox="0 0 16 16" fill="none" xmlns="http://www.w3.org/2000/svg">
<path d="M1.33335 13.3334C1.14446 13.3334 0.986243 13.2694 0.858687 13.1414C0.730687 13.0139 0.666687 12.8556 0.666687 12.6667V11.4667C0.666687 11.089 0.76402 10.7416 0.958687 10.4247C1.15291 10.1083 1.41113 9.86675 1.73335 9.70008C2.42224 9.35564 3.12224 9.09719 3.83335 8.92475C4.54446 8.75275 5.26669 8.66675 6.00002 8.66675C6.73335 8.66675 7.45558 8.75275 8.16669 8.92475C8.8778 9.09719 9.5778 9.35564 10.2667 9.70008C10.5889 9.86675 10.8471 10.1083 11.0414 10.4247C11.236 10.7416 11.3334 11.089 11.3334 11.4667V12.6667C11.3334 12.8556 11.2694 13.0139 11.1414 13.1414C11.0138 13.2694 10.8556 13.3334 10.6667 13.3334H1.33335ZM12.35 13.3334C12.45 13.2556 12.5278 13.1583 12.5834 13.0414C12.6389 12.925 12.6667 12.7945 12.6667 12.6501V11.3334C12.6667 10.8445 12.5307 10.375 12.2587 9.92475C11.9862 9.47497 11.6 9.08897 11.1 8.76675C11.6667 8.83341 12.2 8.94719 12.7 9.10808C13.2 9.26941 13.6667 9.46675 14.1 9.70008C14.5 9.9223 14.8056 10.1694 15.0167 10.4414C15.2278 10.7139 15.3334 11.0112 15.3334 11.3334V12.6667C15.3334 12.8556 15.2694 13.0139 15.1414 13.1414C15.0138 13.2694 14.8556 13.3334 14.6667 13.3334H12.35ZM6.00002 8.00008C5.26669 8.00008 4.63891 7.73897 4.11669 7.21675C3.59446 6.69453 3.33335 6.06675 3.33335 5.33341C3.33335 4.60008 3.59446 3.9723 4.11669 3.45008C4.63891 2.92786 5.26669 2.66675 6.00002 2.66675C6.73335 2.66675 7.36113 2.92786 7.88335 3.45008C8.40558 3.9723 8.66669 4.60008 8.66669 5.33341C8.66669 6.06675 8.40558 6.69453 7.88335 7.21675C7.36113 7.73897 6.73335 8.00008 6.00002 8.00008ZM12.6667 5.33341C12.6667 6.06675 12.4056 6.69453 11.8834 7.21675C11.3611 7.73897 10.7334 8.00008 10 8.00008C9.8778 8.00008 9.72224 7.9863 9.53335 7.95875C9.34447 7.93075 9.18891 7.90008 9.06669 7.86675C9.36669 7.51119 9.59713 7.11675 9.75802 6.68341C9.91935 6.25008 10 5.80008 10 5.33341C10 4.86675 9.91935 4.41675 9.75802 3.98341C9.59713 3.55008 9.36669 3.15564 9.06669 2.80008C9.22224 2.74453 9.3778 2.7083 9.53335 2.69141C9.68891 2.67497 9.84447 2.66675 10 2.66675C10.7334 2.66675 11.3611 2.92786 11.8834 3.45008C12.4056 3.9723 12.6667 4.60008 12.6667 5.33341ZM2.00002 12.0001H10V11.4667C10 11.3445 9.96958 11.2334 9.90869 11.1334C9.84735 11.0334 9.76669 10.9556 9.66669 10.9001C9.06669 10.6001 8.46113 10.375 7.85002 10.2247C7.23891 10.075 6.62224 10.0001 6.00002 10.0001C5.3778 10.0001 4.76113 10.075 4.15002 10.2247C3.53891 10.375 2.93335 10.6001 2.33335 10.9001C2.23335 10.9556 2.15291 11.0334 2.09202 11.1334C2.03069 11.2334 2.00002 11.3445 2.00002 11.4667V12.0001ZM6.00002 6.66675C6.36669 6.66675 6.68069 6.53608 6.94202 6.27475C7.20291 6.01386 7.33335 5.70008 7.33335 5.33341C7.33335 4.96675 7.20291 4.65297 6.94202 4.39208C6.68069 4.13075 6.36669 4.00008 6.00002 4.00008C5.63335 4.00008 5.31958 4.13075 5.05869 4.39208C4.79735 4.65297 4.66669 4.96675 4.66669 5.33341C4.66669 5.70008 4.79735 6.01386 5.05869 6.27475C5.31958 6.53608 5.63335 6.66675 6.00002 6.66675Z" fill="black"/>
</svg>
