<svg width="16" height="16" viewBox="0 0 16 16" fill="none" xmlns="http://www.w3.org/2000/svg">
<path fill-rule="evenodd" clip-rule="evenodd" d="M11.1133 8.75329C12.0267 9.37329 12.6667 10.2133 12.6667 11.3333V13.3333H14.6667C15.0333 13.3333 15.3333 13.0333 15.3333 12.6666V11.3333C15.3333 9.87996 12.9533 9.01996 11.1133 8.75329Z" fill="black"/>
<path d="M5.99999 7.99996C7.47275 7.99996 8.66666 6.80605 8.66666 5.33329C8.66666 3.86053 7.47275 2.66663 5.99999 2.66663C4.52723 2.66663 3.33332 3.86053 3.33332 5.33329C3.33332 6.80605 4.52723 7.99996 5.99999 7.99996Z" fill="black"/>
<path fill-rule="evenodd" clip-rule="evenodd" d="M9.99999 7.99996C11.4733 7.99996 12.6667 6.80663 12.6667 5.33329C12.6667 3.85996 11.4733 2.66663 9.99999 2.66663C9.68666 2.66663 9.39332 2.73329 9.11332 2.82663C9.66666 3.51329 9.99999 4.38663 9.99999 5.33329C9.99999 6.27996 9.66666 7.15329 9.11332 7.83996C9.39332 7.93329 9.68666 7.99996 9.99999 7.99996Z" fill="black"/>
<path fill-rule="evenodd" clip-rule="evenodd" d="M5.99999 8.66663C4.21999 8.66663 0.666656 9.55996 0.666656 11.3333V12.6666C0.666656 13.0333 0.966656 13.3333 1.33332 13.3333H10.6667C11.0333 13.3333 11.3333 13.0333 11.3333 12.6666V11.3333C11.3333 9.55996 7.77999 8.66663 5.99999 8.66663Z" fill="black"/>
</svg>
