<svg width="28" height="28" viewBox="0 0 28 28" fill="none" xmlns="http://www.w3.org/2000/svg">
<path d="M20.4748 10.7041L24.5873 6.56246C24.8207 6.32913 25.0978 6.21246 25.4186 6.21246C25.7394 6.21246 26.0165 6.32913 26.2498 6.56246C26.4832 6.79579 26.5998 7.07288 26.5998 7.39371C26.5998 7.71454 26.4832 7.99163 26.2498 8.22496L21.2915 13.1833C21.0582 13.4166 20.7859 13.5333 20.4748 13.5333C20.1637 13.5333 19.8915 13.4166 19.6582 13.1833L17.179 10.7041C16.9457 10.4708 16.829 10.1937 16.829 9.87288C16.829 9.55204 16.9457 9.27496 17.179 9.04163C17.4123 8.80829 17.6846 8.69163 17.9957 8.69163C18.3068 8.69163 18.579 8.80829 18.8123 9.04163L20.4748 10.7041ZM10.4998 14C9.2165 14 8.11789 13.543 7.204 12.6291C6.29011 11.7152 5.83317 10.6166 5.83317 9.33329C5.83317 8.04996 6.29011 6.95135 7.204 6.03746C8.11789 5.12357 9.2165 4.66663 10.4998 4.66663C11.7832 4.66663 12.8818 5.12357 13.7957 6.03746C14.7096 6.95135 15.1665 8.04996 15.1665 9.33329C15.1665 10.6166 14.7096 11.7152 13.7957 12.6291C12.8818 13.543 11.7832 14 10.4998 14ZM1.1665 21V20.0666C1.1665 19.4055 1.33664 18.7979 1.67692 18.2437C2.0172 17.6895 2.46928 17.2666 3.03317 16.975C4.23873 16.3722 5.46373 15.9201 6.70817 15.6187C7.95261 15.3173 9.2165 15.1666 10.4998 15.1666C11.7832 15.1666 13.0471 15.3173 14.2915 15.6187C15.5359 15.9201 16.7609 16.3722 17.9665 16.975C18.5304 17.2666 18.9825 17.6895 19.3228 18.2437C19.663 18.7979 19.8332 19.4055 19.8332 20.0666V21C19.8332 21.6416 19.6047 22.1909 19.1478 22.6479C18.6908 23.1048 18.1415 23.3333 17.4998 23.3333H3.49984C2.85817 23.3333 2.30886 23.1048 1.85192 22.6479C1.39498 22.1909 1.1665 21.6416 1.1665 21ZM3.49984 21H17.4998V20.0666C17.4998 19.8527 17.4464 19.6583 17.3394 19.4833C17.2325 19.3083 17.0915 19.1722 16.9165 19.075C15.8665 18.55 14.8068 18.1562 13.7373 17.8937C12.6679 17.6312 11.5887 17.5 10.4998 17.5C9.41095 17.5 8.33178 17.6312 7.26234 17.8937C6.19289 18.1562 5.13317 18.55 4.08317 19.075C3.90817 19.1722 3.7672 19.3083 3.66025 19.4833C3.55331 19.6583 3.49984 19.8527 3.49984 20.0666V21ZM10.4998 11.6666C11.1415 11.6666 11.6908 11.4382 12.1478 10.9812C12.6047 10.5243 12.8332 9.97496 12.8332 9.33329C12.8332 8.69163 12.6047 8.14232 12.1478 7.68538C11.6908 7.22843 11.1415 6.99996 10.4998 6.99996C9.85817 6.99996 9.30886 7.22843 8.85192 7.68538C8.39498 8.14232 8.1665 8.69163 8.1665 9.33329C8.1665 9.97496 8.39498 10.5243 8.85192 10.9812C9.30886 11.4382 9.85817 11.6666 10.4998 11.6666Z" fill="#191919"/>
</svg>
