<svg width="28" height="28" viewBox="0 0 28 28" fill="none" xmlns="http://www.w3.org/2000/svg">
<path d="M14 14C12.7167 14 11.6181 13.543 10.7042 12.6291C9.7903 11.7152 9.33335 10.6166 9.33335 9.33329C9.33335 8.04996 9.7903 6.95135 10.7042 6.03746C11.6181 5.12357 12.7167 4.66663 14 4.66663C15.2834 4.66663 16.382 5.12357 17.2959 6.03746C18.2097 6.95135 18.6667 8.04996 18.6667 9.33329C18.6667 10.6166 18.2097 11.7152 17.2959 12.6291C16.382 13.543 15.2834 14 14 14ZM21 23.3333H7.00002C6.35835 23.3333 5.80924 23.105 5.35269 22.6485C4.89535 22.1911 4.66669 21.6416 4.66669 21V20.0666C4.66669 19.4055 4.83702 18.7977 5.17769 18.2431C5.51758 17.6893 5.96946 17.2666 6.53335 16.975C7.73891 16.3722 8.96391 15.9199 10.2084 15.6181C11.4528 15.3171 12.7167 15.1666 14 15.1666C15.2834 15.1666 16.5472 15.3171 17.7917 15.6181C19.0361 15.9199 20.2611 16.3722 21.4667 16.975C22.0306 17.2666 22.4825 17.6893 22.8224 18.2431C23.163 18.7977 23.3334 19.4055 23.3334 20.0666V21C23.3334 21.6416 23.1051 22.1911 22.6485 22.6485C22.1912 23.105 21.6417 23.3333 21 23.3333ZM7.00002 21H21V20.0666C21 19.8527 20.9467 19.6583 20.8402 19.4833C20.7329 19.3083 20.5917 19.1722 20.4167 19.075C19.3667 18.55 18.307 18.156 17.2375 17.8931C16.1681 17.631 15.0889 17.5 14 17.5C12.9111 17.5 11.832 17.631 10.7625 17.8931C9.69308 18.156 8.63335 18.55 7.58335 19.075C7.40835 19.1722 7.26758 19.3083 7.16102 19.4833C7.05369 19.6583 7.00002 19.8527 7.00002 20.0666V21ZM14 11.6666C14.6417 11.6666 15.1912 11.438 15.6485 10.9806C16.1051 10.5241 16.3334 9.97496 16.3334 9.33329C16.3334 8.69163 16.1051 8.14251 15.6485 7.68596C15.1912 7.22863 14.6417 6.99996 14 6.99996C13.3584 6.99996 12.8092 7.22863 12.3527 7.68596C11.8954 8.14251 11.6667 8.69163 11.6667 9.33329C11.6667 9.97496 11.8954 10.5241 12.3527 10.9806C12.8092 11.438 13.3584 11.6666 14 11.6666Z" fill="black"/>
</svg>
