<svg width="28" height="28" viewBox="0 0 28 28" fill="none" xmlns="http://www.w3.org/2000/svg">
<path d="M10.9149 5.96752C11.7432 4.68419 13.1899 3.84419 14.8232 3.84419C17.4016 3.84419 19.4899 5.93252 19.4899 8.51086C19.4899 10.1442 18.6499 11.5909 17.3666 12.4192L10.9149 5.96752ZM24.1566 19.2092C24.1332 17.9259 23.4216 16.7475 22.2782 16.1525C21.6482 15.8259 20.9599 15.5225 20.2132 15.2659L24.1566 19.2092ZM24.7282 23.0825L4.91823 3.27252C4.46323 2.81752 3.72823 2.81752 3.27323 3.27252C2.81823 3.72752 2.81823 4.46252 3.27323 4.91752L12.8166 14.4609C10.6932 14.7292 8.83823 15.3942 7.33323 16.1642C6.18989 16.7709 5.48989 17.9725 5.48989 19.2675V22.5109H20.8549L23.0716 24.7275C23.5266 25.1825 24.2616 25.1825 24.7166 24.7275C25.1832 24.2725 25.1832 23.5375 24.7282 23.0825Z" fill="black"/>
</svg>
