<svg width="16" height="16" viewBox="0 0 16 16" fill="none" xmlns="http://www.w3.org/2000/svg">
<path d="M11.6998 6.11663L14.0498 3.74996C14.1832 3.61663 14.3415 3.54996 14.5248 3.54996C14.7082 3.54996 14.8665 3.61663 14.9998 3.74996C15.1332 3.88329 15.1998 4.04163 15.1998 4.22496C15.1998 4.40829 15.1332 4.56663 14.9998 4.69996L12.1665 7.53329C12.0332 7.66663 11.8776 7.73329 11.6998 7.73329C11.5221 7.73329 11.3665 7.66663 11.2332 7.53329L9.8165 6.11663C9.68317 5.98329 9.6165 5.82496 9.6165 5.64163C9.6165 5.45829 9.68317 5.29996 9.8165 5.16663C9.94984 5.03329 10.1054 4.96663 10.2832 4.96663C10.4609 4.96663 10.6165 5.03329 10.7498 5.16663L11.6998 6.11663ZM5.99984 7.99996C5.2665 7.99996 4.63873 7.73885 4.1165 7.21663C3.59428 6.6944 3.33317 6.06663 3.33317 5.33329C3.33317 4.59996 3.59428 3.97218 4.1165 3.44996C4.63873 2.92774 5.2665 2.66663 5.99984 2.66663C6.73317 2.66663 7.36095 2.92774 7.88317 3.44996C8.40539 3.97218 8.6665 4.59996 8.6665 5.33329C8.6665 6.06663 8.40539 6.6944 7.88317 7.21663C7.36095 7.73885 6.73317 7.99996 5.99984 7.99996ZM0.666504 12V11.4666C0.666504 11.0888 0.763726 10.7416 0.958171 10.425C1.15261 10.1083 1.41095 9.86663 1.73317 9.69996C2.42206 9.35551 3.12206 9.09718 3.83317 8.92496C4.54428 8.75274 5.2665 8.66663 5.99984 8.66663C6.73317 8.66663 7.45539 8.75274 8.1665 8.92496C8.87761 9.09718 9.57761 9.35551 10.2665 9.69996C10.5887 9.86663 10.8471 10.1083 11.0415 10.425C11.2359 10.7416 11.3332 11.0888 11.3332 11.4666V12C11.3332 12.3666 11.2026 12.6805 10.9415 12.9416C10.6804 13.2027 10.3665 13.3333 9.99984 13.3333H1.99984C1.63317 13.3333 1.31928 13.2027 1.05817 12.9416C0.797059 12.6805 0.666504 12.3666 0.666504 12ZM1.99984 12H9.99984V11.4666C9.99984 11.3444 9.96928 11.2333 9.90817 11.1333C9.84706 11.0333 9.7665 10.9555 9.6665 10.9C9.0665 10.6 8.46095 10.375 7.84984 10.225C7.23873 10.075 6.62206 9.99996 5.99984 9.99996C5.37761 9.99996 4.76095 10.075 4.14984 10.225C3.53873 10.375 2.93317 10.6 2.33317 10.9C2.23317 10.9555 2.15261 11.0333 2.0915 11.1333C2.03039 11.2333 1.99984 11.3444 1.99984 11.4666V12ZM5.99984 6.66663C6.3665 6.66663 6.68039 6.53607 6.9415 6.27496C7.20261 6.01385 7.33317 5.69996 7.33317 5.33329C7.33317 4.96663 7.20261 4.65274 6.9415 4.39163C6.68039 4.13051 6.3665 3.99996 5.99984 3.99996C5.63317 3.99996 5.31928 4.13051 5.05817 4.39163C4.79706 4.65274 4.6665 4.96663 4.6665 5.33329C4.6665 5.69996 4.79706 6.01385 5.05817 6.27496C5.31928 6.53607 5.63317 6.66663 5.99984 6.66663Z" fill="#191919"/>
</svg>
