<svg width="16" height="16" viewBox="0 0 16 16" fill="none" xmlns="http://www.w3.org/2000/svg">
<path d="M8.00002 7.99996C7.26669 7.99996 6.63891 7.73885 6.11669 7.21663C5.59446 6.6944 5.33335 6.06663 5.33335 5.33329C5.33335 4.59996 5.59446 3.97218 6.11669 3.44996C6.63891 2.92774 7.26669 2.66663 8.00002 2.66663C8.73335 2.66663 9.36113 2.92774 9.88335 3.44996C10.4056 3.97218 10.6667 4.59996 10.6667 5.33329C10.6667 6.06663 10.4056 6.6944 9.88335 7.21663C9.36113 7.73885 8.73335 7.99996 8.00002 7.99996ZM12 13.3333H4.00002C3.63335 13.3333 3.31958 13.2028 3.05869 12.942C2.79735 12.6806 2.66669 12.3666 2.66669 12V11.4666C2.66669 11.0888 2.76402 10.7415 2.95869 10.4246C3.15291 10.1082 3.41113 9.86663 3.73335 9.69996C4.42224 9.35552 5.12224 9.09707 5.83335 8.92463C6.54446 8.75263 7.26669 8.66663 8.00002 8.66663C8.73335 8.66663 9.45558 8.75263 10.1667 8.92463C10.8778 9.09707 11.5778 9.35552 12.2667 9.69996C12.5889 9.86663 12.8471 10.1082 13.0414 10.4246C13.236 10.7415 13.3334 11.0888 13.3334 11.4666V12C13.3334 12.3666 13.2029 12.6806 12.942 12.942C12.6807 13.2028 12.3667 13.3333 12 13.3333ZM4.00002 12H12V11.4666C12 11.3444 11.9696 11.2333 11.9087 11.1333C11.8474 11.0333 11.7667 10.9555 11.6667 10.9C11.0667 10.6 10.4611 10.3748 9.85002 10.2246C9.23891 10.0748 8.62224 9.99996 8.00002 9.99996C7.3778 9.99996 6.76113 10.0748 6.15002 10.2246C5.53891 10.3748 4.93335 10.6 4.33335 10.9C4.23335 10.9555 4.15291 11.0333 4.09202 11.1333C4.03069 11.2333 4.00002 11.3444 4.00002 11.4666V12ZM8.00002 6.66663C8.36669 6.66663 8.68069 6.53596 8.94202 6.27463C9.20291 6.01374 9.33335 5.69996 9.33335 5.33329C9.33335 4.96663 9.20291 4.65285 8.94202 4.39196C8.68069 4.13063 8.36669 3.99996 8.00002 3.99996C7.63335 3.99996 7.31958 4.13063 7.05869 4.39196C6.79735 4.65285 6.66669 4.96663 6.66669 5.33329C6.66669 5.69996 6.79735 6.01374 7.05869 6.27463C7.31958 6.53596 7.63335 6.66663 8.00002 6.66663Z" fill="black"/>
</svg>
