<svg width="16" height="16" viewBox="0 0 16 16" fill="none" xmlns="http://www.w3.org/2000/svg">
<path d="M6.23708 3.41005C6.71041 2.67672 7.53708 2.19672 8.47042 2.19672C9.94375 2.19672 11.1371 3.39005 11.1371 4.86338C11.1371 5.79672 10.6571 6.62338 9.92375 7.09672L6.23708 3.41005ZM13.8037 10.9767C13.7904 10.2434 13.3837 9.57005 12.7304 9.23005C12.3704 9.04338 11.9771 8.87005 11.5504 8.72338L13.8037 10.9767ZM14.1304 13.19L2.81042 1.87005C2.55042 1.61005 2.13042 1.61005 1.87042 1.87005C1.61042 2.13005 1.61042 2.55005 1.87042 2.81005L7.32375 8.26338C6.11042 8.41672 5.05042 8.79672 4.19042 9.23672C3.53708 9.58338 3.13708 10.27 3.13708 11.01V12.8634H11.9171L13.1837 14.13C13.4437 14.39 13.8637 14.39 14.1237 14.13C14.3904 13.87 14.3904 13.45 14.1304 13.19Z" fill="black"/>
</svg>
