<svg width="16" height="16" viewBox="0 0 16 16" fill="none" xmlns="http://www.w3.org/2000/svg">
<path d="M1.99999 15.3337C1.81111 15.3337 1.65277 15.2698 1.52499 15.142C1.39722 15.0142 1.33333 14.8559 1.33333 14.667C1.33333 14.4781 1.39722 14.3198 1.52499 14.192C1.65277 14.0642 1.81111 14.0003 1.99999 14.0003H14C14.1889 14.0003 14.3472 14.0642 14.475 14.192C14.6028 14.3198 14.6667 14.4781 14.6667 14.667C14.6667 14.8559 14.6028 15.0142 14.475 15.142C14.3472 15.2698 14.1889 15.3337 14 15.3337H1.99999ZM3.33333 13.3337C3.14444 13.3337 2.98611 13.2698 2.85833 13.142C2.73055 13.0142 2.66666 12.8559 2.66666 12.667V9.33366C2.29999 8.73366 2.01666 8.09755 1.81666 7.42533C1.61666 6.7531 1.51666 6.06699 1.51666 5.36699C1.51666 4.68921 1.60277 4.02255 1.77499 3.36699C1.94722 2.71144 2.14999 2.06699 2.38333 1.43366C2.47222 1.20033 2.61666 1.01421 2.81666 0.875326C3.01666 0.736437 3.23888 0.666992 3.48333 0.666992C3.82777 0.666992 4.12222 0.783659 4.36666 1.01699C4.61111 1.25033 4.71111 1.5281 4.66666 1.85033L4.48333 3.36699C4.41666 3.90033 4.46388 4.40588 4.62499 4.88366C4.78611 5.36144 5.02777 5.78088 5.34999 6.14199C5.67222 6.5031 6.06111 6.79199 6.51666 7.00866C6.97222 7.22533 7.46666 7.33366 7.99999 7.33366C8.66666 7.33366 9.33611 7.4031 10.0083 7.54199C10.6805 7.68088 11.2667 7.8781 11.7667 8.13366C12.2667 8.38921 12.6528 8.71422 12.925 9.10866C13.1972 9.5031 13.3333 9.98921 13.3333 10.567V12.667C13.3333 12.8559 13.2694 13.0142 13.1417 13.142C13.0139 13.2698 12.8555 13.3337 12.6667 13.3337H3.33333ZM3.99999 12.0003H12V10.567C12 10.3003 11.9333 10.0642 11.8 9.85866C11.6667 9.6531 11.4778 9.48921 11.2333 9.36699C10.7778 9.14477 10.25 8.97255 9.64999 8.85033C9.04999 8.7281 8.49999 8.66699 7.99999 8.66699C7.26666 8.66699 6.58611 8.51699 5.95833 8.21699C5.33055 7.91699 4.79722 7.51421 4.35833 7.00866C3.91944 6.5031 3.58888 5.91977 3.36666 5.25866C3.14444 4.59755 3.07777 3.91144 3.16666 3.20033C3.05555 3.53366 2.97499 3.88921 2.92499 4.26699C2.87499 4.64477 2.84999 5.01144 2.84999 5.36699C2.84999 6.01144 2.96388 6.63088 3.19166 7.22533C3.41944 7.81977 3.68888 8.40033 3.99999 8.96699V12.0003ZM6.11666 5.88366C5.59444 5.36144 5.33333 4.73366 5.33333 4.00033C5.33333 3.26699 5.59444 2.63921 6.11666 2.11699C6.63888 1.59477 7.26666 1.33366 7.99999 1.33366C8.73333 1.33366 9.36111 1.59477 9.88333 2.11699C10.4056 2.63921 10.6667 3.26699 10.6667 4.00033C10.6667 4.73366 10.4056 5.36144 9.88333 5.88366C9.36111 6.40588 8.73333 6.66699 7.99999 6.66699C7.26666 6.66699 6.63888 6.40588 6.11666 5.88366ZM8.94166 4.94199C9.20277 4.68088 9.33333 4.36699 9.33333 4.00033C9.33333 3.63366 9.20277 3.31977 8.94166 3.05866C8.68055 2.79755 8.36666 2.66699 7.99999 2.66699C7.63333 2.66699 7.31944 2.79755 7.05833 3.05866C6.79722 3.31977 6.66666 3.63366 6.66666 4.00033C6.66666 4.36699 6.79722 4.68088 7.05833 4.94199C7.31944 5.2031 7.63333 5.33366 7.99999 5.33366C8.36666 5.33366 8.68055 5.2031 8.94166 4.94199ZM5.33333 13.3337V12.717C5.33333 11.9725 5.59166 11.3337 6.10833 10.8003C6.62499 10.267 7.25555 10.0003 7.99999 10.0003H9.99999C10.1889 10.0003 10.3472 10.0642 10.475 10.192C10.6028 10.3198 10.6667 10.4781 10.6667 10.667C10.6667 10.8559 10.6028 11.0142 10.475 11.142C10.3472 11.2698 10.1889 11.3337 9.99999 11.3337H7.99999C7.62222 11.3337 7.30555 11.4698 7.04999 11.742C6.79444 12.0142 6.66666 12.3392 6.66666 12.717V13.3337H5.33333Z" fill="black"/>
</svg>
