<svg width="24" height="24" viewBox="0 0 24 24" fill="none" xmlns="http://www.w3.org/2000/svg">
<path d="M20.075 20.9L18.15 19H6.00002C5.71668 19 5.47902 18.904 5.28702 18.712C5.09568 18.5206 5.00002 18.2833 5.00002 18V16.2C5.00002 15.6333 5.14602 15.1123 5.43802 14.637C5.72935 14.1623 6.11668 13.8 6.60002 13.55C7.35002 13.1666 8.11268 12.8583 8.88802 12.625C9.66268 12.3916 10.45 12.2166 11.25 12.1L3.07502 3.92498C2.87502 3.72498 2.77935 3.49164 2.78802 3.22498C2.79602 2.95831 2.90002 2.72498 3.10002 2.52498C3.30002 2.32498 3.53735 2.22498 3.81202 2.22498C4.08735 2.22498 4.32502 2.32498 4.52502 2.52498L21.5 19.5C21.7 19.7 21.8 19.9333 21.8 20.2C21.8 20.4666 21.7 20.7 21.5 20.9C21.3 21.1 21.0627 21.2 20.788 21.2C20.5127 21.2 20.275 21.1 20.075 20.9ZM7.00002 17H16.15L13.15 14H13C12.0667 14 11.1417 14.1123 10.225 14.337C9.30835 14.5623 8.40002 14.9 7.50002 15.35C7.35002 15.4333 7.22935 15.55 7.13802 15.7C7.04602 15.85 7.00002 16.0166 7.00002 16.2V17ZM19.4 13.55C19.8833 13.7833 20.2667 14.1376 20.55 14.613C20.8333 15.0876 20.9833 15.6 21 16.15L17.65 12.8C17.95 12.9166 18.246 13.0333 18.538 13.15C18.8293 13.2666 19.1167 13.4 19.4 13.55ZM15.2 10.35L13.725 8.87498C14.1083 8.72498 14.4167 8.47898 14.65 8.13698C14.8833 7.79564 15 7.41664 15 6.99998C15 6.44998 14.8043 5.97931 14.413 5.58798C14.021 5.19598 13.55 4.99998 13 4.99998C12.5833 4.99998 12.2043 5.11664 11.863 5.34998C11.521 5.58331 11.275 5.89164 11.125 6.27498L9.65002 4.79998C10.0333 4.23331 10.5167 3.79164 11.1 3.47498C11.6833 3.15831 12.3167 2.99998 13 2.99998C14.1 2.99998 15.0417 3.39164 15.825 4.17498C16.6083 4.95831 17 5.89998 17 6.99998C17 7.68331 16.8417 8.31664 16.525 8.89998C16.2083 9.48331 15.7667 9.96664 15.2 10.35Z" fill="black"/>
</svg>
