<svg width="28" height="28" viewBox="0 0 28 28" fill="none" xmlns="http://www.w3.org/2000/svg">
<path d="M23.2542 24.5499L21.0084 22.3333H6.83335C6.5028 22.3333 6.22552 22.2213 6.00152 21.9973C5.7783 21.7741 5.66668 21.4972 5.66668 21.1666V19.0666C5.66668 18.4055 5.83702 17.7977 6.17768 17.2431C6.51757 16.6893 6.96946 16.2666 7.53335 15.975C8.40835 15.5277 9.29813 15.168 10.2027 14.8958C11.1065 14.6236 12.025 14.4194 12.9584 14.2833L3.42085 4.74578C3.18752 4.51245 3.07591 4.24023 3.08602 3.92912C3.09535 3.61801 3.21668 3.34578 3.45002 3.11245C3.68335 2.87912 3.96024 2.76245 4.28068 2.76245C4.60191 2.76245 4.87918 2.87912 5.11252 3.11245L24.9167 22.9166C25.15 23.15 25.2667 23.4222 25.2667 23.7333C25.2667 24.0444 25.15 24.3166 24.9167 24.5499C24.6834 24.7833 24.4065 24.9 24.086 24.9C23.7648 24.9 23.4875 24.7833 23.2542 24.5499ZM8.00002 20H18.675L15.175 16.5H15C13.9111 16.5 12.832 16.631 11.7625 16.8931C10.6931 17.156 9.63335 17.55 8.58335 18.075C8.40835 18.1722 8.26757 18.3083 8.16102 18.4833C8.05368 18.6583 8.00002 18.8527 8.00002 19.0666V20ZM22.4667 15.975C23.0306 16.2472 23.4778 16.6606 23.8083 17.2151C24.1389 17.7689 24.3139 18.3666 24.3334 19.0083L20.425 15.1C20.775 15.2361 21.1204 15.3722 21.461 15.5083C21.8009 15.6444 22.1361 15.8 22.4667 15.975ZM17.5667 12.2416L15.8459 10.5208C16.2931 10.3458 16.6528 10.0588 16.925 9.65978C17.1972 9.26156 17.3334 8.8194 17.3334 8.33328C17.3334 7.69162 17.1051 7.14251 16.6485 6.68595C16.1912 6.22862 15.6417 5.99995 15 5.99995C14.5139 5.99995 14.0717 6.13606 13.6735 6.40828C13.2745 6.68051 12.9875 7.04023 12.8125 7.48745L11.0917 5.76662C11.5389 5.10551 12.1028 4.59023 12.7834 4.22078C13.4639 3.85134 14.2028 3.66662 15 3.66662C16.2834 3.66662 17.382 4.12356 18.2959 5.03745C19.2097 5.95134 19.6667 7.04995 19.6667 8.33328C19.6667 9.13051 19.482 9.8694 19.1125 10.55C18.7431 11.2305 18.2278 11.7944 17.5667 12.2416Z" fill="black"/>
</svg>
