<svg width="16" height="16" viewBox="0 0 16 16" fill="none" xmlns="http://www.w3.org/2000/svg">
<path d="M12.7167 14.5999L11.4333 13.3332H3.33334C3.14445 13.3332 2.98601 13.2692 2.85801 13.1412C2.73045 13.0137 2.66668 12.8555 2.66668 12.6666V11.4666C2.66668 11.0888 2.76401 10.7415 2.95868 10.4246C3.1529 10.1081 3.41112 9.86657 3.73334 9.6999C4.23334 9.44435 4.74179 9.23879 5.25868 9.08324C5.77512 8.92768 6.30001 8.81101 6.83334 8.73324L1.38334 3.28324C1.25001 3.1499 1.18623 2.99435 1.19201 2.81657C1.19734 2.63879 1.26668 2.48324 1.40001 2.3499C1.53334 2.21657 1.69157 2.1499 1.87468 2.1499C2.05823 2.1499 2.21668 2.21657 2.35001 2.3499L13.6667 13.6666C13.8 13.7999 13.8667 13.9555 13.8667 14.1332C13.8667 14.311 13.8 14.4666 13.6667 14.5999C13.5333 14.7332 13.3751 14.7999 13.192 14.7999C13.0085 14.7999 12.85 14.7332 12.7167 14.5999ZM4.00001 11.9999H10.1L8.10001 9.9999H8.00001C7.37779 9.9999 6.76112 10.0748 6.15001 10.2246C5.5389 10.3748 4.93334 10.5999 4.33334 10.8999C4.23334 10.9555 4.1529 11.0332 4.09201 11.1332C4.03068 11.2332 4.00001 11.3443 4.00001 11.4666V11.9999ZM12.2667 9.6999C12.5889 9.85546 12.8445 10.0917 13.0333 10.4086C13.2222 10.725 13.3222 11.0666 13.3333 11.4332L11.1 9.1999C11.3 9.27768 11.4973 9.35546 11.692 9.43324C11.8862 9.51101 12.0778 9.5999 12.2667 9.6999ZM9.46668 7.56657L8.48334 6.58324C8.7389 6.48324 8.94445 6.31924 9.10001 6.09124C9.25557 5.86368 9.33334 5.61101 9.33334 5.33324C9.33334 4.96657 9.2029 4.65279 8.94201 4.3919C8.68068 4.13057 8.36668 3.9999 8.00001 3.9999C7.72223 3.9999 7.46957 4.07768 7.24201 4.23324C7.01401 4.38879 6.85001 4.59435 6.75001 4.8499L5.76668 3.86657C6.02223 3.48879 6.34446 3.19435 6.73334 2.98324C7.12223 2.77212 7.54445 2.66657 8.00001 2.66657C8.73334 2.66657 9.36112 2.92768 9.88334 3.4499C10.4056 3.97212 10.6667 4.5999 10.6667 5.33324C10.6667 5.78879 10.5611 6.21101 10.35 6.5999C10.1389 6.98879 9.84445 7.31101 9.46668 7.56657Z" fill="black"/>
</svg>
