<svg width="28" height="28" viewBox="0 0 28 28" fill="none" xmlns="http://www.w3.org/2000/svg">
<path d="M3.5 26.8337C3.16944 26.8337 2.89236 26.7219 2.66875 26.4982C2.44514 26.2746 2.33333 25.9975 2.33333 25.667C2.33333 25.3364 2.44514 25.0594 2.66875 24.8357C2.89236 24.6121 3.16944 24.5003 3.5 24.5003H24.5C24.8306 24.5003 25.1076 24.6121 25.3313 24.8357C25.5549 25.0594 25.6667 25.3364 25.6667 25.667C25.6667 25.9975 25.5549 26.2746 25.3313 26.4982C25.1076 26.7219 24.8306 26.8337 24.5 26.8337H3.5ZM5.83333 23.3337C5.50278 23.3337 5.22569 23.2219 5.00208 22.9982C4.77847 22.7746 4.66667 22.4975 4.66667 22.167V16.3337C4.025 15.2837 3.52917 14.1705 3.17917 12.9941C2.82917 11.8177 2.65417 10.617 2.65417 9.39199C2.65417 8.20588 2.80486 7.03921 3.10625 5.89199C3.40764 4.74477 3.7625 3.61699 4.17083 2.50866C4.32639 2.10033 4.57917 1.77463 4.92917 1.53158C5.27917 1.28852 5.66806 1.16699 6.09583 1.16699C6.69861 1.16699 7.21389 1.37116 7.64167 1.77949C8.06944 2.18783 8.24444 2.67394 8.16667 3.23783L7.84583 5.89199C7.72917 6.82533 7.81181 7.71005 8.09375 8.54616C8.37569 9.38227 8.79861 10.1163 9.3625 10.7482C9.92639 11.3802 10.6069 11.8857 11.4042 12.2649C12.2014 12.6441 13.0667 12.8337 14 12.8337C15.1667 12.8337 16.3382 12.9552 17.5146 13.1982C18.691 13.4413 19.7167 13.7864 20.5917 14.2337C21.4667 14.6809 22.1424 15.2496 22.6188 15.9399C23.0951 16.6302 23.3333 17.4809 23.3333 18.492V22.167C23.3333 22.4975 23.2215 22.7746 22.9979 22.9982C22.7743 23.2219 22.4972 23.3337 22.1667 23.3337H5.83333ZM7 21.0003H21V18.492C21 18.0253 20.8833 17.6121 20.65 17.2524C20.4167 16.8927 20.0861 16.6059 19.6583 16.392C18.8611 16.0031 17.9375 15.7017 16.8875 15.4878C15.8375 15.2739 14.875 15.167 14 15.167C12.7167 15.167 11.5257 14.9045 10.4271 14.3795C9.32847 13.8545 8.39514 13.1496 7.62708 12.2649C6.85903 11.3802 6.28056 10.3594 5.89167 9.20241C5.50278 8.04546 5.38611 6.84477 5.54167 5.60033C5.34722 6.18366 5.20625 6.80588 5.11875 7.46699C5.03125 8.1281 4.9875 8.76977 4.9875 9.39199C4.9875 10.5198 5.18681 11.6038 5.58542 12.6441C5.98403 13.6844 6.45556 14.7003 7 15.692V21.0003ZM10.7042 10.2962C9.79028 9.38227 9.33333 8.28366 9.33333 7.00033C9.33333 5.71699 9.79028 4.61838 10.7042 3.70449C11.6181 2.7906 12.7167 2.33366 14 2.33366C15.2833 2.33366 16.3819 2.7906 17.2958 3.70449C18.2097 4.61838 18.6667 5.71699 18.6667 7.00033C18.6667 8.28366 18.2097 9.38227 17.2958 10.2962C16.3819 11.21 15.2833 11.667 14 11.667C12.7167 11.667 11.6181 11.21 10.7042 10.2962ZM15.6479 8.64824C16.1049 8.1913 16.3333 7.64199 16.3333 7.00033C16.3333 6.35866 16.1049 5.80935 15.6479 5.35241C15.191 4.89546 14.6417 4.66699 14 4.66699C13.3583 4.66699 12.809 4.89546 12.3521 5.35241C11.8951 5.80935 11.6667 6.35866 11.6667 7.00033C11.6667 7.64199 11.8951 8.1913 12.3521 8.64824C12.809 9.10519 13.3583 9.33366 14 9.33366C14.6417 9.33366 15.191 9.10519 15.6479 8.64824ZM9.33333 23.3337V22.2545C9.33333 20.9517 9.78542 19.8337 10.6896 18.9003C11.5938 17.967 12.6972 17.5003 14 17.5003H17.5C17.8306 17.5003 18.1076 17.6121 18.3313 17.8357C18.5549 18.0594 18.6667 18.3364 18.6667 18.667C18.6667 18.9975 18.5549 19.2746 18.3313 19.4982C18.1076 19.7219 17.8306 19.8337 17.5 19.8337H14C13.3389 19.8337 12.7847 20.0719 12.3375 20.5482C11.8903 21.0246 11.6667 21.5934 11.6667 22.2545V23.3337H9.33333Z" fill="black"/>
</svg>
