<svg width="16" height="16" viewBox="0 0 16 16" fill="none" xmlns="http://www.w3.org/2000/svg">
<path d="M12.8145 10.1788L11.1212 9.98545C10.7145 9.93878 10.3145 10.0788 10.0279 10.3654L8.8012 11.5921C6.91453 10.6321 5.36787 9.09211 4.40787 7.19878L5.6412 5.96545C5.92787 5.67878 6.06787 5.27878 6.0212 4.87212L5.82787 3.19212C5.74787 2.51878 5.1812 2.01212 4.5012 2.01212H3.34787C2.59453 2.01212 1.96787 2.63878 2.01453 3.39212C2.36787 9.08545 6.9212 13.6321 12.6079 13.9854C13.3612 14.0321 13.9879 13.4054 13.9879 12.6521V11.4988C13.9945 10.8254 13.4879 10.2588 12.8145 10.1788Z" fill="black"/>
</svg>
