<svg width="16" height="16" viewBox="0 0 16 16" fill="none" xmlns="http://www.w3.org/2000/svg">
<path d="M13.3 14C11.8667 14 10.4696 13.6804 9.10867 13.0413C7.74733 12.4027 6.54178 11.5582 5.492 10.508C4.44178 9.45822 3.59733 8.25267 2.95867 6.89133C2.31956 5.53044 2 4.13333 2 2.7C2 2.5 2.06667 2.33333 2.2 2.2C2.33333 2.06667 2.5 2 2.7 2H5.4C5.55556 2 5.69444 2.05 5.81667 2.15C5.93889 2.25 6.01111 2.37778 6.03333 2.53333L6.46667 4.86667C6.48889 5.02222 6.48622 5.16378 6.45867 5.29133C6.43067 5.41933 6.36667 5.53333 6.26667 5.63333L4.65 7.26667C5.11667 8.06667 5.70289 8.81667 6.40867 9.51667C7.114 10.2167 7.88889 10.8222 8.73333 11.3333L10.3 9.76667C10.4 9.66667 10.5307 9.59156 10.692 9.54133C10.8529 9.49156 11.0111 9.47778 11.1667 9.5L13.4667 9.96667C13.6222 10 13.75 10.0749 13.85 10.1913C13.95 10.3082 14 10.4444 14 10.6V13.3C14 13.5 13.9333 13.6667 13.8 13.8C13.6667 13.9333 13.5 14 13.3 14ZM4.01667 6L5.11667 4.9L4.83333 3.33333H3.35C3.40556 3.78889 3.48333 4.23889 3.58333 4.68333C3.68333 5.12778 3.82778 5.56667 4.01667 6ZM12.6667 12.6333V11.1667L11.1 10.85L9.98333 11.9667C10.4167 12.1556 10.8584 12.3056 11.3087 12.4167C11.7584 12.5278 12.2111 12.6 12.6667 12.6333Z" fill="black"/>
</svg>
