<svg width="28" height="28" viewBox="0 0 28 28" fill="none" xmlns="http://www.w3.org/2000/svg">
<path d="M23.275 24.5C20.7667 24.5 18.3217 23.9408 15.9402 22.8223C13.5578 21.7047 11.4481 20.2269 9.611 18.389C7.77311 16.5519 6.29533 14.4422 5.17767 12.0598C4.05922 9.67828 3.5 7.23333 3.5 4.725C3.5 4.375 3.61667 4.08333 3.85 3.85C4.08333 3.61667 4.375 3.5 4.725 3.5H9.45C9.72222 3.5 9.96528 3.5875 10.1792 3.7625C10.3931 3.9375 10.5194 4.16111 10.5583 4.43333L11.3167 8.51667C11.3556 8.78889 11.3509 9.03661 11.3027 9.25983C11.2537 9.48383 11.1417 9.68333 10.9667 9.85833L8.1375 12.7167C8.95417 14.1167 9.98006 15.4292 11.2152 16.6542C12.4495 17.8792 13.8056 18.9389 15.2833 19.8333L18.025 17.0917C18.2 16.9167 18.4287 16.7852 18.711 16.6973C18.9926 16.6102 19.2694 16.5861 19.5417 16.625L23.5667 17.4417C23.8389 17.5 24.0625 17.6311 24.2375 17.8348C24.4125 18.0394 24.5 18.2778 24.5 18.55V23.275C24.5 23.625 24.3833 23.9167 24.15 24.15C23.9167 24.3833 23.625 24.5 23.275 24.5ZM7.02917 10.5L8.95417 8.575L8.45833 5.83333H5.8625C5.95972 6.63056 6.09583 7.41806 6.27083 8.19583C6.44583 8.97361 6.69861 9.74167 7.02917 10.5ZM22.1667 22.1083V19.5417L19.425 18.9875L17.4708 20.9417C18.2292 21.2722 19.0023 21.5347 19.7902 21.7292C20.5773 21.9236 21.3694 22.05 22.1667 22.1083Z" fill="black"/>
</svg>
