<svg width="28" height="28" viewBox="0 0 28 28" fill="none" xmlns="http://www.w3.org/2000/svg">
<path d="M22.4254 17.8129L19.4621 17.4745C18.7504 17.3929 18.0504 17.6379 17.5488 18.1395L15.4021 20.2862C12.1004 18.6062 9.39377 15.9112 7.71377 12.5979L9.8721 10.4395C10.3738 9.93786 10.6188 9.23786 10.5371 8.52619L10.1988 5.58619C10.0588 4.40786 9.0671 3.52119 7.8771 3.52119H5.85877C4.54043 3.52119 3.44377 4.61786 3.52543 5.93619C4.14377 15.8995 12.1121 23.8562 22.0638 24.4745C23.3821 24.5562 24.4788 23.4595 24.4788 22.1412V20.1229C24.4904 18.9445 23.6038 17.9529 22.4254 17.8129Z" fill="black"/>
</svg>
