<svg width="16" height="16" viewBox="0 0 16 16" fill="none" xmlns="http://www.w3.org/2000/svg">
<path d="M7.99998 11.6667C8.83331 11.6667 9.54176 11.3751 10.1253 10.792C10.7084 10.2084 11 9.5 11 8.66667C11 7.83333 10.7084 7.12489 10.1253 6.54133C9.54176 5.95822 8.83331 5.66667 7.99998 5.66667C7.16665 5.66667 6.4582 5.95822 5.87465 6.54133C5.29154 7.12489 4.99998 7.83333 4.99998 8.66667C4.99998 9.5 5.29154 10.2084 5.87465 10.792C6.4582 11.3751 7.16665 11.6667 7.99998 11.6667ZM2.66665 14C2.29998 14 1.9862 13.8696 1.72531 13.6087C1.46398 13.3473 1.33331 13.0333 1.33331 12.6667V4.66667C1.33331 4.3 1.46398 3.98622 1.72531 3.72533C1.9862 3.464 2.29998 3.33333 2.66665 3.33333H4.76665L5.59998 2.43333C5.7222 2.28889 5.86931 2.18044 6.04131 2.108C6.21376 2.036 6.39442 2 6.58331 2H9.41665C9.60553 2 9.7862 2.036 9.95865 2.108C10.1306 2.18044 10.2778 2.28889 10.4 2.43333L11.2333 3.33333H13.3333C13.7 3.33333 14.014 3.464 14.2753 3.72533C14.5362 3.98622 14.6666 4.3 14.6666 4.66667V12.6667C14.6666 13.0333 14.5362 13.3473 14.2753 13.6087C14.014 13.8696 13.7 14 13.3333 14H2.66665ZM13.3333 12.6667V4.66667H2.66665V12.6667H13.3333Z" fill="black"/>
</svg>
