<svg width="28" height="28" viewBox="0 0 28 28" fill="none" xmlns="http://www.w3.org/2000/svg">
<path d="M14 20.4167C15.4583 20.4167 16.6981 19.9064 17.7193 18.886C18.7398 17.8648 19.25 16.625 19.25 15.1667C19.25 13.7083 18.7398 12.4686 17.7193 11.4473C16.6981 10.4269 15.4583 9.91667 14 9.91667C12.5416 9.91667 11.3019 10.4269 10.2806 11.4473C9.2602 12.4686 8.74998 13.7083 8.74998 15.1667C8.74998 16.625 9.2602 17.8648 10.2806 18.886C11.3019 19.9064 12.5416 20.4167 14 20.4167ZM4.66665 24.5C4.02498 24.5 3.47587 24.2717 3.01931 23.8152C2.56198 23.3578 2.33331 22.8083 2.33331 22.1667V8.16667C2.33331 7.525 2.56198 6.97589 3.01931 6.51933C3.47587 6.062 4.02498 5.83333 4.66665 5.83333H8.34165L9.79998 4.25833C10.0139 4.00556 10.2713 3.81578 10.5723 3.689C10.8741 3.563 11.1903 3.5 11.5208 3.5H16.4791C16.8097 3.5 17.1259 3.563 17.4276 3.689C17.7286 3.81578 17.9861 4.00556 18.2 4.25833L19.6583 5.83333H23.3333C23.975 5.83333 24.5245 6.062 24.9818 6.51933C25.4384 6.97589 25.6666 7.525 25.6666 8.16667V22.1667C25.6666 22.8083 25.4384 23.3578 24.9818 23.8152C24.5245 24.2717 23.975 24.5 23.3333 24.5H4.66665ZM23.3333 22.1667V8.16667H4.66665V22.1667H23.3333Z" fill="black"/>
</svg>
