<svg width="28" height="28" viewBox="0 0 28 28" fill="none" xmlns="http://www.w3.org/2000/svg">
<path d="M11.6667 12.2497H12.8333C13.1639 12.2497 13.441 12.1379 13.6646 11.9143C13.8882 11.6906 14 11.4136 14 11.083V9.91634C14 9.58579 13.8882 9.3087 13.6646 9.08509C13.441 8.86148 13.1639 8.74967 12.8333 8.74967H11.0833C10.9278 8.74967 10.7917 8.80801 10.675 8.92467C10.5583 9.04134 10.5 9.17745 10.5 9.33301V13.9997C10.5 14.1552 10.5583 14.2913 10.675 14.408C10.7917 14.5247 10.9278 14.583 11.0833 14.583C11.2389 14.583 11.375 14.5247 11.4917 14.408C11.6083 14.2913 11.6667 14.1552 11.6667 13.9997V12.2497ZM11.6667 11.083V9.91634H12.8333V11.083H11.6667ZM17.5 14.583C17.8305 14.583 18.1076 14.4712 18.3312 14.2476C18.5549 14.024 18.6667 13.7469 18.6667 13.4163V9.91634C18.6667 9.58579 18.5549 9.3087 18.3312 9.08509C18.1076 8.86148 17.8305 8.74967 17.5 8.74967H15.75C15.5944 8.74967 15.4583 8.80801 15.3417 8.92467C15.225 9.04134 15.1667 9.17745 15.1667 9.33301V13.9997C15.1667 14.1552 15.225 14.2913 15.3417 14.408C15.4583 14.5247 15.5944 14.583 15.75 14.583H17.5ZM16.3333 13.4163V9.91634H17.5V13.4163H16.3333ZM21 12.2497H21.5833C21.7389 12.2497 21.875 12.1913 21.9917 12.0747C22.1083 11.958 22.1667 11.8219 22.1667 11.6663C22.1667 11.5108 22.1083 11.3747 21.9917 11.258C21.875 11.1413 21.7389 11.083 21.5833 11.083H21V9.91634H21.5833C21.7389 9.91634 21.875 9.85801 21.9917 9.74134C22.1083 9.62467 22.1667 9.48856 22.1667 9.33301C22.1667 9.17745 22.1083 9.04134 21.9917 8.92467C21.875 8.80801 21.7389 8.74967 21.5833 8.74967H20.4167C20.2611 8.74967 20.125 8.80801 20.0083 8.92467C19.8917 9.04134 19.8333 9.17745 19.8333 9.33301V13.9997C19.8333 14.1552 19.8917 14.2913 20.0083 14.408C20.125 14.5247 20.2611 14.583 20.4167 14.583C20.5722 14.583 20.7083 14.5247 20.825 14.408C20.9417 14.2913 21 14.1552 21 13.9997V12.2497ZM9.33333 20.9997C8.69166 20.9997 8.14236 20.7712 7.68541 20.3143C7.22847 19.8573 6.99999 19.308 6.99999 18.6663V4.66634C6.99999 4.02467 7.22847 3.47537 7.68541 3.01842C8.14236 2.56148 8.69166 2.33301 9.33333 2.33301H23.3333C23.975 2.33301 24.5243 2.56148 24.9812 3.01842C25.4382 3.47537 25.6667 4.02467 25.6667 4.66634V18.6663C25.6667 19.308 25.4382 19.8573 24.9812 20.3143C24.5243 20.7712 23.975 20.9997 23.3333 20.9997H9.33333ZM9.33333 18.6663H23.3333V4.66634H9.33333V18.6663ZM4.66666 25.6663C4.02499 25.6663 3.47569 25.4379 3.01874 24.9809C2.5618 24.524 2.33333 23.9747 2.33333 23.333V8.16634C2.33333 7.83579 2.44513 7.5587 2.66874 7.33509C2.89236 7.11148 3.16944 6.99967 3.49999 6.99967C3.83055 6.99967 4.10763 7.11148 4.33124 7.33509C4.55486 7.5587 4.66666 7.83579 4.66666 8.16634V23.333H19.8333C20.1639 23.333 20.441 23.4448 20.6646 23.6684C20.8882 23.892 21 24.1691 21 24.4997C21 24.8302 20.8882 25.1073 20.6646 25.3309C20.441 25.5545 20.1639 25.6663 19.8333 25.6663H4.66666Z" fill="#191919"/>
</svg>
