<svg width="16" height="16" viewBox="0 0 16 16" fill="none" xmlns="http://www.w3.org/2000/svg">
<path d="M2.66665 13.3334C2.29998 13.3334 1.98609 13.2029 1.72498 12.9417C1.46387 12.6806 1.33331 12.3667 1.33331 12.0001V4.00008C1.33331 3.63341 1.46387 3.31953 1.72498 3.05841C1.98609 2.7973 2.29998 2.66675 2.66665 2.66675H13.3333C13.7 2.66675 14.0139 2.7973 14.275 3.05841C14.5361 3.31953 14.6666 3.63341 14.6666 4.00008V12.0001C14.6666 12.3667 14.5361 12.6806 14.275 12.9417C14.0139 13.2029 13.7 13.3334 13.3333 13.3334H2.66665ZM2.66665 12.0001H13.3333V4.00008H2.66665V12.0001ZM7.99998 11.3334H12C12.1889 11.3334 12.3472 11.2695 12.475 11.1417C12.6028 11.014 12.6666 10.8556 12.6666 10.6667V8.00008C12.6666 7.81119 12.6028 7.65286 12.475 7.52508C12.3472 7.3973 12.1889 7.33341 12 7.33341H7.99998C7.81109 7.33341 7.65276 7.3973 7.52498 7.52508C7.3972 7.65286 7.33331 7.81119 7.33331 8.00008V10.6667C7.33331 10.8556 7.3972 11.014 7.52498 11.1417C7.65276 11.2695 7.81109 11.3334 7.99998 11.3334ZM8.66665 10.0001V8.66675H11.3333V10.0001H8.66665Z" fill="#191919"/>
</svg>
