<svg width="28" height="28" viewBox="0 0 28 28" fill="none" xmlns="http://www.w3.org/2000/svg">
<path d="M4.66665 23.3334C4.02498 23.3334 3.47567 23.1049 3.01873 22.648C2.56179 22.1911 2.33331 21.6417 2.33331 21.0001V7.00008C2.33331 6.35841 2.56179 5.80911 3.01873 5.35216C3.47567 4.89522 4.02498 4.66675 4.66665 4.66675H23.3333C23.975 4.66675 24.5243 4.89522 24.9812 5.35216C25.4382 5.80911 25.6666 6.35841 25.6666 7.00008V21.0001C25.6666 21.6417 25.4382 22.1911 24.9812 22.648C24.5243 23.1049 23.975 23.3334 23.3333 23.3334H4.66665ZM4.66665 21.0001H23.3333V7.00008H4.66665V21.0001ZM14 19.8334H21C21.3305 19.8334 21.6076 19.7216 21.8312 19.498C22.0548 19.2744 22.1666 18.9973 22.1666 18.6667V14.0001C22.1666 13.6695 22.0548 13.3924 21.8312 13.1688C21.6076 12.9452 21.3305 12.8334 21 12.8334H14C13.6694 12.8334 13.3923 12.9452 13.1687 13.1688C12.9451 13.3924 12.8333 13.6695 12.8333 14.0001V18.6667C12.8333 18.9973 12.9451 19.2744 13.1687 19.498C13.3923 19.7216 13.6694 19.8334 14 19.8334ZM15.1666 17.5001V15.1667H19.8333V17.5001H15.1666Z" fill="#191919"/>
</svg>
