<svg width="16" height="16" viewBox="0 0 16 16" fill="none" xmlns="http://www.w3.org/2000/svg">
<path d="M6.66667 6.99967H7.33333C7.52222 6.99967 7.68055 6.93579 7.80833 6.80801C7.93611 6.68023 8 6.5219 8 6.33301V5.66634C8 5.47745 7.93611 5.31912 7.80833 5.19134C7.68055 5.06356 7.52222 4.99967 7.33333 4.99967H6.33333C6.24444 4.99967 6.16667 5.03301 6.1 5.09967C6.03333 5.16634 6 5.24412 6 5.33301V7.99967C6 8.08856 6.03333 8.16634 6.1 8.23301C6.16667 8.29967 6.24444 8.33301 6.33333 8.33301C6.42222 8.33301 6.5 8.29967 6.56667 8.23301C6.63333 8.16634 6.66667 8.08856 6.66667 7.99967V6.99967ZM6.66667 6.33301V5.66634H7.33333V6.33301H6.66667ZM10 8.33301C10.1889 8.33301 10.3472 8.26912 10.475 8.14134C10.6028 8.01356 10.6667 7.85523 10.6667 7.66634V5.66634C10.6667 5.47745 10.6028 5.31912 10.475 5.19134C10.3472 5.06356 10.1889 4.99967 10 4.99967H9C8.91111 4.99967 8.83333 5.03301 8.76667 5.09967C8.7 5.16634 8.66667 5.24412 8.66667 5.33301V7.99967C8.66667 8.08856 8.7 8.16634 8.76667 8.23301C8.83333 8.29967 8.91111 8.33301 9 8.33301H10ZM9.33333 7.66634V5.66634H10V7.66634H9.33333ZM12 6.99967H12.3333C12.4222 6.99967 12.5 6.96634 12.5667 6.89967C12.6333 6.83301 12.6667 6.75523 12.6667 6.66634C12.6667 6.57745 12.6333 6.49967 12.5667 6.43301C12.5 6.36634 12.4222 6.33301 12.3333 6.33301H12V5.66634H12.3333C12.4222 5.66634 12.5 5.63301 12.5667 5.56634C12.6333 5.49967 12.6667 5.4219 12.6667 5.33301C12.6667 5.24412 12.6333 5.16634 12.5667 5.09967C12.5 5.03301 12.4222 4.99967 12.3333 4.99967H11.6667C11.5778 4.99967 11.5 5.03301 11.4333 5.09967C11.3667 5.16634 11.3333 5.24412 11.3333 5.33301V7.99967C11.3333 8.08856 11.3667 8.16634 11.4333 8.23301C11.5 8.29967 11.5778 8.33301 11.6667 8.33301C11.7556 8.33301 11.8333 8.29967 11.9 8.23301C11.9667 8.16634 12 8.08856 12 7.99967V6.99967ZM5.33333 11.9997C4.96667 11.9997 4.65278 11.8691 4.39167 11.608C4.13055 11.3469 4 11.033 4 10.6663V2.66634C4 2.29967 4.13055 1.98579 4.39167 1.72467C4.65278 1.46356 4.96667 1.33301 5.33333 1.33301H13.3333C13.7 1.33301 14.0139 1.46356 14.275 1.72467C14.5361 1.98579 14.6667 2.29967 14.6667 2.66634V10.6663C14.6667 11.033 14.5361 11.3469 14.275 11.608C14.0139 11.8691 13.7 11.9997 13.3333 11.9997H5.33333ZM5.33333 10.6663H13.3333V2.66634H5.33333V10.6663ZM2.66667 14.6663C2.3 14.6663 1.98611 14.5358 1.725 14.2747C1.46389 14.0136 1.33333 13.6997 1.33333 13.333V4.66634C1.33333 4.47745 1.39722 4.31912 1.525 4.19134C1.65278 4.06356 1.81111 3.99967 2 3.99967C2.18889 3.99967 2.34722 4.06356 2.475 4.19134C2.60278 4.31912 2.66667 4.47745 2.66667 4.66634V13.333H11.3333C11.5222 13.333 11.6806 13.3969 11.8083 13.5247C11.9361 13.6525 12 13.8108 12 13.9997C12 14.1886 11.9361 14.3469 11.8083 14.4747C11.6806 14.6025 11.5222 14.6663 11.3333 14.6663H2.66667Z" fill="#191919"/>
</svg>
