<svg width="28" height="28" viewBox="0 0 28 28" fill="none" xmlns="http://www.w3.org/2000/svg">
<path d="M18.6667 5.83333V14L20.65 15.9833C20.7667 16.1 20.8542 16.2313 20.9125 16.3771C20.9708 16.5229 21 16.6736 21 16.8292V17.5C21 17.8306 20.8882 18.1076 20.6646 18.3313C20.441 18.5549 20.1639 18.6667 19.8333 18.6667H15.1667V25.1708C15.1667 25.3264 15.1375 25.4771 15.0792 25.6229C15.0208 25.7688 14.9333 25.9 14.8167 26.0167L14.4083 26.425C14.2917 26.5417 14.1556 26.6 14 26.6C13.8444 26.6 13.7083 26.5417 13.5917 26.425L13.1833 26.0167C13.0667 25.9 12.9792 25.7688 12.9208 25.6229C12.8625 25.4771 12.8333 25.3264 12.8333 25.1708V18.6667H8.16667C7.83611 18.6667 7.55903 18.5549 7.33542 18.3313C7.11181 18.1076 7 17.8306 7 17.5V16.8292C7 16.6736 7.02917 16.5229 7.0875 16.3771C7.14583 16.2313 7.23333 16.1 7.35 15.9833L9.33333 14V5.83333C9.00278 5.83333 8.72569 5.72153 8.50208 5.49792C8.27847 5.27431 8.16667 4.99722 8.16667 4.66667C8.16667 4.33611 8.27847 4.05903 8.50208 3.83542C8.72569 3.61181 9.00278 3.5 9.33333 3.5H18.6667C18.9972 3.5 19.2743 3.61181 19.4979 3.83542C19.7215 4.05903 19.8333 4.33611 19.8333 4.66667C19.8333 4.99722 19.7215 5.27431 19.4979 5.49792C19.2743 5.72153 18.9972 5.83333 18.6667 5.83333ZM10.325 16.3333H17.675L16.3333 14.9917V5.83333H11.6667V14.9917L10.325 16.3333Z" fill="black"/>
</svg>
