<svg width="24" height="24" viewBox="0 0 24 24" fill="none" xmlns="http://www.w3.org/2000/svg">
<path d="M16 5V12L17.7 13.7C17.8 13.8 17.875 13.9125 17.925 14.0375C17.975 14.1625 18 14.2917 18 14.425V15C18 15.2833 17.9042 15.5208 17.7125 15.7125C17.5208 15.9042 17.2833 16 17 16H13V21.575C13 21.7083 12.975 21.8375 12.925 21.9625C12.875 22.0875 12.8 22.2 12.7 22.3L12.35 22.65C12.25 22.75 12.1333 22.8 12 22.8C11.8667 22.8 11.75 22.75 11.65 22.65L11.3 22.3C11.2 22.2 11.125 22.0875 11.075 21.9625C11.025 21.8375 11 21.7083 11 21.575V16H7C6.71667 16 6.47917 15.9042 6.2875 15.7125C6.09583 15.5208 6 15.2833 6 15V14.425C6 14.2917 6.025 14.1625 6.075 14.0375C6.125 13.9125 6.2 13.8 6.3 13.7L8 12V5C7.71667 5 7.47917 4.90417 7.2875 4.7125C7.09583 4.52083 7 4.28333 7 4C7 3.71667 7.09583 3.47917 7.2875 3.2875C7.47917 3.09583 7.71667 3 8 3H16C16.2833 3 16.5208 3.09583 16.7125 3.2875C16.9042 3.47917 17 3.71667 17 4C17 4.28333 16.9042 4.52083 16.7125 4.7125C16.5208 4.90417 16.2833 5 16 5ZM8.85 14H15.15L14 12.85V5H10V12.85L8.85 14Z" fill="black"/>
</svg>
