<svg width="16" height="16" viewBox="0 0 16 16" fill="none" xmlns="http://www.w3.org/2000/svg">
<path d="M9.33334 3.33333H6.66667V4.78333L4.83334 2.95C4.77779 2.89444 4.73612 2.83333 4.70834 2.76667C4.68056 2.7 4.66667 2.63333 4.66667 2.56667C4.66667 2.42222 4.71667 2.29167 4.81667 2.175C4.91667 2.05833 5.05001 2 5.21667 2H10.6667C10.8556 2 11.0139 2.06389 11.1417 2.19167C11.2695 2.31944 11.3333 2.47778 11.3333 2.66667C11.3333 2.84444 11.2528 2.96944 11.0917 3.04167C10.9306 3.11389 10.7889 3.21111 10.6667 3.33333V7.33333C10.6667 7.52222 10.6028 7.68056 10.475 7.80833C10.3472 7.93611 10.1889 8 10 8C9.81112 8 9.65279 7.93611 9.52501 7.80833C9.39723 7.68056 9.33334 7.52222 9.33334 7.33333V3.33333ZM7.33334 14.6667V10.6667H4.93334C4.65556 10.6667 4.43334 10.5694 4.26667 10.375C4.10001 10.1806 4.01667 9.96111 4.01667 9.71667C4.01667 9.59444 4.04167 9.47222 4.09167 9.35C4.14167 9.22778 4.22223 9.11111 4.33334 9L5.33334 8V7.23333L1.40001 3.26667C1.27779 3.14444 1.2139 2.99167 1.20834 2.80833C1.20279 2.625 1.26667 2.46667 1.40001 2.33333C1.52223 2.21111 1.67779 2.15 1.86667 2.15C2.05556 2.15 2.21112 2.21111 2.33334 2.33333L13.65 13.65C13.7833 13.7833 13.8472 13.9417 13.8417 14.125C13.8361 14.3083 13.7667 14.4667 13.6333 14.6C13.5 14.7222 13.3445 14.7861 13.1667 14.7917C12.9889 14.7972 12.8333 14.7333 12.7 14.6L8.76667 10.6667H8.66667V14.6667C8.66667 14.8556 8.60279 15.0139 8.47501 15.1417C8.34723 15.2694 8.1889 15.3333 8.00001 15.3333C7.81112 15.3333 7.65279 15.2694 7.52501 15.1417C7.39723 15.0139 7.33334 14.8556 7.33334 14.6667ZM5.90001 9.33333H7.43334L6.66667 8.56667L5.90001 9.33333Z" fill="black"/>
</svg>
