<svg width="28" height="28" viewBox="0 0 28 28" fill="none" xmlns="http://www.w3.org/2000/svg">
<path d="M16.3333 5.83333H11.6667V8.37083L8.45835 5.1625C8.36113 5.06528 8.28821 4.95833 8.2396 4.84167C8.19099 4.725 8.16668 4.60833 8.16668 4.49167C8.16668 4.23889 8.25418 4.01042 8.42918 3.80625C8.60418 3.60208 8.83751 3.5 9.12918 3.5H18.6667C18.9972 3.5 19.2743 3.61181 19.4979 3.83542C19.7215 4.05903 19.8333 4.33611 19.8333 4.66667C19.8333 4.97778 19.6924 5.19653 19.4104 5.32292C19.1285 5.44931 18.8806 5.61944 18.6667 5.83333V12.8333C18.6667 13.1639 18.5549 13.441 18.3313 13.6646C18.1077 13.8882 17.8306 14 17.5 14C17.1695 14 16.8924 13.8882 16.6688 13.6646C16.4452 13.441 16.3333 13.1639 16.3333 12.8333V5.83333ZM12.8333 25.6667V18.6667H8.63335C8.14724 18.6667 7.75835 18.4965 7.46668 18.1563C7.17501 17.816 7.02918 17.4319 7.02918 17.0042C7.02918 16.7903 7.07293 16.5764 7.16043 16.3625C7.24793 16.1486 7.3889 15.9444 7.58335 15.75L9.33335 14V12.6583L2.45001 5.71667C2.23612 5.50278 2.12432 5.23542 2.1146 4.91458C2.10487 4.59375 2.21668 4.31667 2.45001 4.08333C2.6639 3.86944 2.93612 3.7625 3.26668 3.7625C3.59724 3.7625 3.86946 3.86944 4.08335 4.08333L23.8875 23.8875C24.1208 24.1208 24.2327 24.3979 24.2229 24.7188C24.2132 25.0396 24.0917 25.3167 23.8583 25.55C23.625 25.7639 23.3528 25.8757 23.0417 25.8854C22.7306 25.8951 22.4583 25.7833 22.225 25.55L15.3417 18.6667H15.1667V25.6667C15.1667 25.9972 15.0549 26.2743 14.8313 26.4979C14.6077 26.7215 14.3306 26.8333 14 26.8333C13.6695 26.8333 13.3924 26.7215 13.1688 26.4979C12.9452 26.2743 12.8333 25.9972 12.8333 25.6667ZM10.325 16.3333H13.0083L11.6667 14.9917L10.325 16.3333Z" fill="black"/>
</svg>
