<svg width="28" height="28" viewBox="0 0 28 28" fill="none" xmlns="http://www.w3.org/2000/svg">
<path d="M14 14.0002C12.7167 14.0002 11.6667 12.9502 11.6667 11.6668C11.6667 10.3835 12.7167 9.3335 14 9.3335C15.2834 9.3335 16.3334 10.3835 16.3334 11.6668C16.3334 12.9502 15.2834 14.0002 14 14.0002ZM21 11.9002C21 7.66516 17.9084 4.66683 14 4.66683C10.0917 4.66683 7.00002 7.66516 7.00002 11.9002C7.00002 14.6302 9.27502 18.2468 14 22.5635C18.725 18.2468 21 14.6302 21 11.9002ZM14 2.3335C18.9 2.3335 23.3334 6.09016 23.3334 11.9002C23.3334 15.7735 20.2184 20.3585 14 25.6668C7.78169 20.3585 4.66669 15.7735 4.66669 11.9002C4.66669 6.09016 9.10002 2.3335 14 2.3335Z" fill="black"/>
</svg>
