<svg width="16" height="16" viewBox="0 0 16 16" fill="none" xmlns="http://www.w3.org/2000/svg">
<path d="M8.00002 8.00016C7.26669 8.00016 6.66669 7.40016 6.66669 6.66683C6.66669 5.9335 7.26669 5.3335 8.00002 5.3335C8.73335 5.3335 9.33335 5.9335 9.33335 6.66683C9.33335 7.40016 8.73335 8.00016 8.00002 8.00016ZM12 6.80016C12 4.38016 10.2334 2.66683 8.00002 2.66683C5.76669 2.66683 4.00002 4.38016 4.00002 6.80016C4.00002 8.36016 5.30002 10.4268 8.00002 12.8935C10.7 10.4268 12 8.36016 12 6.80016ZM8.00002 1.3335C10.8 1.3335 13.3334 3.48016 13.3334 6.80016C13.3334 9.0135 11.5534 11.6335 8.00002 14.6668C4.44669 11.6335 2.66669 9.0135 2.66669 6.80016C2.66669 3.48016 5.20002 1.3335 8.00002 1.3335Z" fill="black"/>
</svg>
