<svg width="16" height="16" viewBox="0 0 16 16" fill="none" xmlns="http://www.w3.org/2000/svg">
<path d="M10 8.66667H3.33333C2.98004 8.66772 2.64151 8.80854 2.39169 9.05836C2.14187 9.30818 2.00106 9.6467 2 10V12.6667C2.00106 13.02 2.14187 13.3585 2.39169 13.6083C2.64151 13.8581 2.98004 13.9989 3.33333 14H10C10.3533 13.9989 10.6918 13.8581 10.9416 13.6083C11.1915 13.3585 11.3323 13.02 11.3333 12.6667V10C11.3323 9.6467 11.1915 9.30818 10.9416 9.05836C10.6918 8.80854 10.3533 8.66772 10 8.66667ZM4.66667 12.6667C4.40296 12.6667 4.14517 12.5885 3.92591 12.442C3.70664 12.2955 3.53574 12.0872 3.43483 11.8436C3.33391 11.5999 3.30751 11.3319 3.35895 11.0732C3.4104 10.8146 3.53739 10.577 3.72386 10.3905C3.91033 10.2041 4.1479 10.0771 4.40655 10.0256C4.66519 9.97417 4.93328 10.0006 5.17691 10.1015C5.42055 10.2024 5.62878 10.3733 5.77529 10.5926C5.9218 10.8118 6 11.0696 6 11.3333C5.99894 11.6866 5.85813 12.0252 5.60831 12.275C5.35849 12.5248 5.01996 12.6656 4.66667 12.6667V12.6667ZM12.6667 2H3.33333C2.98004 2.00106 2.64151 2.14187 2.39169 2.39169C2.14187 2.64151 2.00106 2.98004 2 3.33333V6C2.00106 6.3533 2.14187 6.69182 2.39169 6.94164C2.64151 7.19146 2.98004 7.33228 3.33333 7.33333H12.6667C13.02 7.33228 13.3585 7.19146 13.6083 6.94164C13.8581 6.69182 13.9989 6.3533 14 6V3.33333C13.9989 2.98004 13.8581 2.64151 13.6083 2.39169C13.3585 2.14187 13.02 2.00106 12.6667 2V2ZM4.66667 6C4.40296 6 4.14517 5.9218 3.92591 5.77529C3.70664 5.62878 3.53574 5.42055 3.43483 5.17691C3.33391 4.93328 3.30751 4.66519 3.35895 4.40655C3.4104 4.1479 3.53739 3.91033 3.72386 3.72386C3.91033 3.53739 4.1479 3.4104 4.40655 3.35895C4.66519 3.30751 4.93328 3.33391 5.17691 3.43483C5.42055 3.53574 5.62878 3.70664 5.77529 3.92591C5.9218 4.14517 6 4.40296 6 4.66667C5.99894 5.01996 5.85813 5.35849 5.60831 5.60831C5.35849 5.85813 5.01996 5.99894 4.66667 6V6Z" fill="black"/>
</svg>
