<svg width="24" height="24" viewBox="0 0 24 24" fill="none" xmlns="http://www.w3.org/2000/svg">
<path d="M20 4V9H4V4H20ZM4 2C2.89543 2 2 2.89543 2 4V9C2 10.1046 2.89543 11 4 11H20C21.1046 11 22 10.1046 22 9V4C22 2.89543 21.1046 2 20 2H4Z" fill="black"/>
<path d="M16 15V20H4V15H16ZM4 13C2.89543 13 2 13.8954 2 15V20C2 21.1046 2.89543 22 4 22H16C17.1046 22 18 21.1046 18 20V15C18 13.8954 17.1046 13 16 13H4Z" fill="black"/>
<path d="M5 17.5C5 16.6716 5.67157 16 6.5 16C7.32843 16 8 16.6716 8 17.5C8 18.3284 7.32843 19 6.5 19C5.67157 19 5 18.3284 5 17.5Z" fill="black"/>
<path d="M5 6.5C5 5.67157 5.67157 5 6.5 5C7.32843 5 8 5.67157 8 6.5C8 7.32843 7.32843 8 6.5 8C5.67157 8 5 7.32843 5 6.5Z" fill="black"/>
</svg>
