<svg width="28" height="28" viewBox="0 0 28 28" fill="none" xmlns="http://www.w3.org/2000/svg">
<path fill-rule="evenodd" clip-rule="evenodd" d="M23.3333 4.66659H4.66665V10.4999H23.3333V4.66659ZM4.66665 2.33325C3.37798 2.33325 2.33331 3.37792 2.33331 4.66659V10.4999C2.33331 11.7886 3.37798 12.8333 4.66665 12.8333H23.3333C24.622 12.8333 25.6666 11.7886 25.6666 10.4999V4.66659C25.6666 3.37792 24.622 2.33325 23.3333 2.33325H4.66665Z" fill="black"/>
<path fill-rule="evenodd" clip-rule="evenodd" d="M18.6666 17.4999H4.66665V23.3333H18.6666V17.4999ZM4.66665 15.1666C3.37798 15.1666 2.33331 16.2113 2.33331 17.4999V23.3333C2.33331 24.6219 3.37798 25.6666 4.66665 25.6666H18.6666C19.9553 25.6666 21 24.6219 21 23.3333V17.4999C21 16.2113 19.9553 15.1666 18.6666 15.1666H4.66665Z" fill="black"/>
<path d="M5.83331 20.4166C5.83331 19.4501 6.61681 18.6666 7.58331 18.6666C8.54981 18.6666 9.33331 19.4501 9.33331 20.4166C9.33331 21.3831 8.54981 22.1666 7.58331 22.1666C6.61681 22.1666 5.83331 21.3831 5.83331 20.4166Z" fill="black"/>
<path d="M5.83331 7.58325C5.83331 6.61675 6.61681 5.83325 7.58331 5.83325C8.54981 5.83325 9.33331 6.61675 9.33331 7.58325C9.33331 8.54975 8.54981 9.33325 7.58331 9.33325C6.61681 9.33325 5.83331 8.54975 5.83331 7.58325Z" fill="black"/>
</svg>
