<svg width="28" height="28" viewBox="0 0 28 28" fill="none" xmlns="http://www.w3.org/2000/svg">
<path d="M17.5 15.1667H5.83333C5.21506 15.1685 4.62264 15.4149 4.18546 15.8521C3.74827 16.2893 3.50185 16.8817 3.5 17.5V22.1667C3.50185 22.7849 3.74827 23.3774 4.18546 23.8145C4.62264 24.2517 5.21506 24.4982 5.83333 24.5H17.5C18.1183 24.4982 18.7107 24.2517 19.1479 23.8145C19.5851 23.3774 19.8315 22.7849 19.8333 22.1667V17.5C19.8315 16.8817 19.5851 16.2893 19.1479 15.8521C18.7107 15.4149 18.1183 15.1685 17.5 15.1667ZM8.16667 22.1667C7.70518 22.1667 7.25405 22.0298 6.87034 21.7734C6.48662 21.517 6.18755 21.1526 6.01095 20.7263C5.83434 20.2999 5.78814 19.8307 5.87817 19.3781C5.9682 18.9255 6.19043 18.5097 6.51675 18.1834C6.84307 17.8571 7.25883 17.6349 7.71146 17.5448C8.16408 17.4548 8.63323 17.501 9.05959 17.6776C9.48596 17.8542 9.85037 18.1533 10.1068 18.537C10.3632 18.9207 10.5 19.3718 10.5 19.8333C10.4982 20.4516 10.2517 21.044 9.81454 21.4812C9.37736 21.9184 8.78494 22.1648 8.16667 22.1667V22.1667ZM22.1667 3.5H5.83333C5.21506 3.50185 4.62264 3.74827 4.18546 4.18546C3.74827 4.62264 3.50185 5.21506 3.5 5.83333V10.5C3.50185 11.1183 3.74827 11.7107 4.18546 12.1479C4.62264 12.5851 5.21506 12.8315 5.83333 12.8333H22.1667C22.7849 12.8315 23.3774 12.5851 23.8145 12.1479C24.2517 11.7107 24.4982 11.1183 24.5 10.5V5.83333C24.4982 5.21506 24.2517 4.62264 23.8145 4.18546C23.3774 3.74827 22.7849 3.50185 22.1667 3.5V3.5ZM8.16667 10.5C7.70518 10.5 7.25405 10.3632 6.87034 10.1068C6.48662 9.85037 6.18755 9.48596 6.01095 9.05959C5.83434 8.63323 5.78814 8.16408 5.87817 7.71146C5.9682 7.25883 6.19043 6.84307 6.51675 6.51675C6.84307 6.19043 7.25883 5.9682 7.71146 5.87817C8.16408 5.78814 8.63323 5.83434 9.05959 6.01095C9.48596 6.18755 9.85037 6.48662 10.1068 6.87034C10.3632 7.25405 10.5 7.70518 10.5 8.16667C10.4982 8.78494 10.2517 9.37736 9.81454 9.81454C9.37736 10.2517 8.78494 10.4982 8.16667 10.5V10.5Z" fill="black"/>
</svg>
