<svg width="24" height="24" viewBox="0 0 24 24" fill="none" xmlns="http://www.w3.org/2000/svg">
<path d="M15 13H5C4.47005 13.0016 3.96227 13.2128 3.58753 13.5875C3.2128 13.9623 3.00158 14.4701 3 15V19C3.00158 19.5299 3.2128 20.0377 3.58753 20.4125C3.96227 20.7872 4.47005 20.9984 5 21H15C15.5299 20.9984 16.0377 20.7872 16.4125 20.4125C16.7872 20.0377 16.9984 19.5299 17 19V15C16.9984 14.4701 16.7872 13.9623 16.4125 13.5875C16.0377 13.2128 15.5299 13.0016 15 13ZM7 19C6.60444 19 6.21776 18.8827 5.88886 18.6629C5.55996 18.4432 5.30362 18.1308 5.15224 17.7654C5.00087 17.3999 4.96126 16.9978 5.03843 16.6098C5.1156 16.2219 5.30608 15.8655 5.58579 15.5858C5.86549 15.3061 6.22186 15.1156 6.60982 15.0384C6.99778 14.9613 7.39991 15.0009 7.76537 15.1522C8.13082 15.3036 8.44318 15.56 8.66294 15.8889C8.8827 16.2178 9 16.6044 9 17C8.99842 17.5299 8.7872 18.0377 8.41247 18.4125C8.03773 18.7872 7.52995 18.9984 7 19ZM19 3H5C4.47005 3.00158 3.96227 3.2128 3.58753 3.58753C3.2128 3.96227 3.00158 4.47005 3 5V9C3.00158 9.52995 3.2128 10.0377 3.58753 10.4125C3.96227 10.7872 4.47005 10.9984 5 11H19C19.5299 10.9984 20.0377 10.7872 20.4125 10.4125C20.7872 10.0377 20.9984 9.52995 21 9V5C20.9984 4.47005 20.7872 3.96227 20.4125 3.58753C20.0377 3.2128 19.5299 3.00158 19 3ZM7 9C6.60444 9 6.21776 8.8827 5.88886 8.66294C5.55996 8.44318 5.30362 8.13082 5.15224 7.76537C5.00087 7.39991 4.96126 6.99778 5.03843 6.60982C5.1156 6.22186 5.30608 5.86549 5.58579 5.58579C5.86549 5.30608 6.22186 5.1156 6.60982 5.03843C6.99778 4.96126 7.39991 5.00087 7.76537 5.15224C8.13082 5.30362 8.44318 5.55996 8.66294 5.88886C8.8827 6.21776 9 6.60444 9 7C8.99842 7.52995 8.7872 8.03773 8.41247 8.41247C8.03773 8.7872 7.52995 8.99842 7 9Z" fill="black"/>
</svg>
