<svg width="16" height="16" viewBox="0 0 16 16" fill="none" xmlns="http://www.w3.org/2000/svg">
<path fill-rule="evenodd" clip-rule="evenodd" d="M13.3333 2.66659H2.66665V5.99992H13.3333V2.66659ZM2.66665 1.33325C1.93027 1.33325 1.33331 1.93021 1.33331 2.66659V5.99992C1.33331 6.7363 1.93027 7.33325 2.66665 7.33325H13.3333C14.0697 7.33325 14.6666 6.7363 14.6666 5.99992V2.66659C14.6666 1.93021 14.0697 1.33325 13.3333 1.33325H2.66665Z" fill="black"/>
<path fill-rule="evenodd" clip-rule="evenodd" d="M10.6666 9.99992H2.66665V13.3333H10.6666V9.99992ZM2.66665 8.66658C1.93027 8.66658 1.33331 9.26354 1.33331 9.99992V13.3333C1.33331 14.0696 1.93027 14.6666 2.66665 14.6666H10.6666C11.403 14.6666 12 14.0696 12 13.3333V9.99992C12 9.26354 11.403 8.66658 10.6666 8.66658H2.66665Z" fill="black"/>
<path d="M3.33331 11.6666C3.33331 11.1143 3.78103 10.6666 4.33331 10.6666C4.8856 10.6666 5.33331 11.1143 5.33331 11.6666C5.33331 12.2189 4.8856 12.6666 4.33331 12.6666C3.78103 12.6666 3.33331 12.2189 3.33331 11.6666Z" fill="black"/>
<path d="M3.33331 4.33325C3.33331 3.78097 3.78103 3.33325 4.33331 3.33325C4.8856 3.33325 5.33331 3.78097 5.33331 4.33325C5.33331 4.88554 4.8856 5.33325 4.33331 5.33325C3.78103 5.33325 3.33331 4.88554 3.33331 4.33325Z" fill="black"/>
</svg>
