<svg width="16" height="16" viewBox="0 0 16 16" fill="none" xmlns="http://www.w3.org/2000/svg">
<path d="M4 3.33333H12C12.3682 3.33333 12.6667 3.63181 12.6667 4V5.33333H14V4C14 2.89543 13.1046 2 12 2H4C2.89543 2 2 2.89543 2 4V12C2 13.1046 2.89543 14 4 14H5.33333V12.6667H4C3.63181 12.6667 3.33333 12.3682 3.33333 12V4C3.33333 3.63181 3.63181 3.33333 4 3.33333Z" fill="black"/>
<path fill-rule="evenodd" clip-rule="evenodd" d="M14.4714 8.19526C14.7318 8.45561 14.7318 8.87772 14.4714 9.13807L9.80474 13.8047C9.54439 14.0651 9.12228 14.0651 8.86193 13.8047L6.86193 11.8047C6.60158 11.5444 6.60158 11.1223 6.86193 10.8619C7.12228 10.6016 7.54439 10.6016 7.80474 10.8619L9.33333 12.3905L13.5286 8.19526C13.7889 7.93491 14.2111 7.93491 14.4714 8.19526Z" fill="black"/>
<path d="M4.66667 5.33333C4.66667 4.96514 4.96514 4.66667 5.33333 4.66667H10.6667C11.0349 4.66667 11.3333 4.96514 11.3333 5.33333C11.3333 5.70152 11.0349 6 10.6667 6H5.33333C4.96514 6 4.66667 5.70152 4.66667 5.33333Z" fill="black"/>
<path d="M4.66667 8C4.66667 7.63181 4.96514 7.33333 5.33333 7.33333H8.66667C9.03486 7.33333 9.33333 7.63181 9.33333 8C9.33333 8.36819 9.03486 8.66667 8.66667 8.66667H5.33333C4.96514 8.66667 4.66667 8.36819 4.66667 8Z" fill="black"/>
</svg>
