<svg width="28" height="28" viewBox="0 0 28 28" fill="none" xmlns="http://www.w3.org/2000/svg">
<path d="M7 5.83333H21C21.6443 5.83333 22.1667 6.35567 22.1667 7V9.33333H24.5V7C24.5 5.067 22.933 3.5 21 3.5H7C5.067 3.5 3.5 5.067 3.5 7V21C3.5 22.933 5.067 24.5 7 24.5H9.33333V22.1667H7C6.35567 22.1667 5.83333 21.6443 5.83333 21V7C5.83333 6.35567 6.35567 5.83333 7 5.83333Z" fill="black"/>
<path fill-rule="evenodd" clip-rule="evenodd" d="M25.325 14.3417C25.7806 14.7973 25.7806 15.536 25.325 15.9916L17.1583 24.1583C16.7027 24.6139 15.964 24.6139 15.5084 24.1583L12.0084 20.6583C11.5528 20.2027 11.5528 19.464 12.0084 19.0084C12.464 18.5528 13.2027 18.5528 13.6583 19.0084L16.3333 21.6834L23.675 14.3417C24.1307 13.8861 24.8693 13.8861 25.325 14.3417Z" fill="black"/>
<path d="M8.16667 9.33333C8.16667 8.689 8.689 8.16667 9.33333 8.16667H18.6667C19.311 8.16667 19.8333 8.689 19.8333 9.33333C19.8333 9.97767 19.311 10.5 18.6667 10.5H9.33333C8.689 10.5 8.16667 9.97767 8.16667 9.33333Z" fill="black"/>
<path d="M8.16667 14C8.16667 13.3557 8.689 12.8333 9.33333 12.8333H15.1667C15.811 12.8333 16.3333 13.3557 16.3333 14C16.3333 14.6443 15.811 15.1667 15.1667 15.1667H9.33333C8.689 15.1667 8.16667 14.6443 8.16667 14Z" fill="black"/>
</svg>
