<svg width="24" height="24" viewBox="0 0 24 24" fill="none" xmlns="http://www.w3.org/2000/svg">
<path d="M6 5H18C18.5523 5 19 5.44772 19 6V8H21V6C21 4.34315 19.6569 3 18 3H6C4.34315 3 3 4.34315 3 6V18C3 19.6569 4.34315 21 6 21H8V19H6C5.44772 19 5 18.5523 5 18V6C5 5.44772 5.44772 5 6 5Z" fill="black"/>
<path fill-rule="evenodd" clip-rule="evenodd" d="M21.7071 12.2929C22.0976 12.6834 22.0976 13.3166 21.7071 13.7071L14.7071 20.7071C14.3166 21.0976 13.6834 21.0976 13.2929 20.7071L10.2929 17.7071C9.90237 17.3166 9.90237 16.6834 10.2929 16.2929C10.6834 15.9024 11.3166 15.9024 11.7071 16.2929L14 18.5858L20.2929 12.2929C20.6834 11.9024 21.3166 11.9024 21.7071 12.2929Z" fill="black"/>
<path d="M7 8C7 7.44772 7.44772 7 8 7H16C16.5523 7 17 7.44772 17 8C17 8.55228 16.5523 9 16 9H8C7.44772 9 7 8.55228 7 8Z" fill="black"/>
<path d="M7 12C7 11.4477 7.44772 11 8 11H13C13.5523 11 14 11.4477 14 12C14 12.5523 13.5523 13 13 13H8C7.44772 13 7 12.5523 7 12Z" fill="black"/>
</svg>
