<svg width="28" height="28" viewBox="0 0 28 28" fill="none" xmlns="http://www.w3.org/2000/svg">
<g id="Present28">
<path id="Vector" d="M24.5 24.5V5.83333H3.50002V14C3.50002 14.3306 3.38821 14.6076 3.1646 14.8312C2.94099 15.0549 2.66391 15.1667 2.33335 15.1667C2.0028 15.1667 1.72571 15.0549 1.5021 14.8312C1.27849 14.6076 1.16669 14.3306 1.16669 14V5.83333C1.16669 5.19167 1.39516 4.64236 1.8521 4.18542C2.30905 3.72847 2.85835 3.5 3.50002 3.5H24.5C25.1417 3.5 25.691 3.72847 26.1479 4.18542C26.6049 4.64236 26.8334 5.19167 26.8334 5.83333V22.1667C26.8334 22.8083 26.6049 23.3576 26.1479 23.8146C25.691 24.2715 25.1417 24.5 24.5 24.5ZM10.5 16.3333C9.21669 16.3333 8.11808 15.8764 7.20419 14.9625C6.2903 14.0486 5.83335 12.95 5.83335 11.6667C5.83335 10.3833 6.2903 9.28472 7.20419 8.37083C8.11808 7.45694 9.21669 7 10.5 7C11.7834 7 12.882 7.45694 13.7959 8.37083C14.7097 9.28472 15.1667 10.3833 15.1667 11.6667C15.1667 12.95 14.7097 14.0486 13.7959 14.9625C12.882 15.8764 11.7834 16.3333 10.5 16.3333ZM10.5 14C11.1417 14 11.691 13.7715 12.1479 13.3146C12.6049 12.8576 12.8334 12.3083 12.8334 11.6667C12.8334 11.025 12.6049 10.4757 12.1479 10.0187C11.691 9.56181 11.1417 9.33333 10.5 9.33333C9.85835 9.33333 9.30905 9.56181 8.8521 10.0187C8.39516 10.4757 8.16669 11.025 8.16669 11.6667C8.16669 12.3083 8.39516 12.8576 8.8521 13.3146C9.30905 13.7715 9.85835 14 10.5 14ZM3.50002 25.6667C2.85835 25.6667 2.30905 25.4382 1.8521 24.9812C1.39516 24.5243 1.16669 23.975 1.16669 23.3333V22.4C1.16669 21.7389 1.33683 21.1312 1.6771 20.5771C2.01738 20.0229 2.46946 19.6 3.03335 19.3083C4.23891 18.7056 5.46391 18.2535 6.70835 17.9521C7.9528 17.6507 9.21669 17.5 10.5 17.5C11.7834 17.5 13.0472 17.6507 14.2917 17.9521C15.5361 18.2535 16.7611 18.7056 17.9667 19.3083C18.5306 19.6 18.9827 20.0229 19.3229 20.5771C19.6632 21.1312 19.8334 21.7389 19.8334 22.4V23.3333C19.8334 23.975 19.6049 24.5243 19.1479 24.9812C18.691 25.4382 18.1417 25.6667 17.5 25.6667H3.50002ZM3.50002 23.3333H17.5V22.4C17.5 22.1861 17.4465 21.9917 17.3396 21.8167C17.2327 21.6417 17.0917 21.5056 16.9167 21.4083C15.8667 20.8833 14.807 20.4896 13.7375 20.2271C12.6681 19.9646 11.5889 19.8333 10.5 19.8333C9.41113 19.8333 8.33196 19.9646 7.26252 20.2271C6.19308 20.4896 5.13335 20.8833 4.08335 21.4083C3.90835 21.5056 3.76738 21.6417 3.66044 21.8167C3.55349 21.9917 3.50002 22.1861 3.50002 22.4V23.3333Z" fill="black"/>
</g>
</svg>
