<svg width="16" height="16" viewBox="0 0 16 16" fill="none" xmlns="http://www.w3.org/2000/svg">
<g id="Present16">
<path id="Vector" d="M14 14V3.33333H2.00002V8C2.00002 8.18889 1.93613 8.34722 1.80835 8.475C1.68058 8.60278 1.52224 8.66667 1.33335 8.66667C1.14446 8.66667 0.986131 8.60278 0.858354 8.475C0.730576 8.34722 0.666687 8.18889 0.666687 8V3.33333C0.666687 2.96667 0.797243 2.65278 1.05835 2.39167C1.31946 2.13056 1.63335 2 2.00002 2H14C14.3667 2 14.6806 2.13056 14.9417 2.39167C15.2028 2.65278 15.3334 2.96667 15.3334 3.33333V12.6667C15.3334 13.0333 15.2028 13.3472 14.9417 13.6083C14.6806 13.8694 14.3667 14 14 14ZM6.00002 9.33333C5.26669 9.33333 4.63891 9.07222 4.11669 8.55C3.59447 8.02778 3.33335 7.4 3.33335 6.66667C3.33335 5.93333 3.59447 5.30556 4.11669 4.78333C4.63891 4.26111 5.26669 4 6.00002 4C6.73335 4 7.36113 4.26111 7.88335 4.78333C8.40558 5.30556 8.66669 5.93333 8.66669 6.66667C8.66669 7.4 8.40558 8.02778 7.88335 8.55C7.36113 9.07222 6.73335 9.33333 6.00002 9.33333ZM6.00002 8C6.36669 8 6.68058 7.86944 6.94169 7.60833C7.2028 7.34722 7.33335 7.03333 7.33335 6.66667C7.33335 6.3 7.2028 5.98611 6.94169 5.725C6.68058 5.46389 6.36669 5.33333 6.00002 5.33333C5.63335 5.33333 5.31947 5.46389 5.05835 5.725C4.79724 5.98611 4.66669 6.3 4.66669 6.66667C4.66669 7.03333 4.79724 7.34722 5.05835 7.60833C5.31947 7.86944 5.63335 8 6.00002 8ZM2.00002 14.6667C1.63335 14.6667 1.31946 14.5361 1.05835 14.275C0.797243 14.0139 0.666687 13.7 0.666687 13.3333V12.8C0.666687 12.4222 0.763909 12.075 0.958354 11.7583C1.1528 11.4417 1.41113 11.2 1.73335 11.0333C2.42224 10.6889 3.12224 10.4306 3.83335 10.2583C4.54447 10.0861 5.26669 10 6.00002 10C6.73335 10 7.45558 10.0861 8.16669 10.2583C8.8778 10.4306 9.5778 10.6889 10.2667 11.0333C10.5889 11.2 10.8472 11.4417 11.0417 11.7583C11.2361 12.075 11.3334 12.4222 11.3334 12.8V13.3333C11.3334 13.7 11.2028 14.0139 10.9417 14.275C10.6806 14.5361 10.3667 14.6667 10 14.6667H2.00002ZM2.00002 13.3333H10V12.8C10 12.6778 9.96947 12.5667 9.90835 12.4667C9.84724 12.3667 9.76669 12.2889 9.66669 12.2333C9.06669 11.9333 8.46113 11.7083 7.85002 11.5583C7.23891 11.4083 6.62224 11.3333 6.00002 11.3333C5.3778 11.3333 4.76113 11.4083 4.15002 11.5583C3.53891 11.7083 2.93335 11.9333 2.33335 12.2333C2.23335 12.2889 2.1528 12.3667 2.09169 12.4667C2.03058 12.5667 2.00002 12.6778 2.00002 12.8V13.3333Z" fill="black"/>
</g>
</svg>
