<svg width="24" height="24" viewBox="0 0 24 24" fill="none" xmlns="http://www.w3.org/2000/svg">
<g id="Present24">
<path id="Vector" d="M21 21V5H3V12C3 12.2833 2.90417 12.5208 2.7125 12.7125C2.52083 12.9042 2.28333 13 2 13C1.71667 13 1.47917 12.9042 1.2875 12.7125C1.09583 12.5208 1 12.2833 1 12V5C1 4.45 1.19583 3.97917 1.5875 3.5875C1.97917 3.19583 2.45 3 3 3H21C21.55 3 22.0208 3.19583 22.4125 3.5875C22.8042 3.97917 23 4.45 23 5V19C23 19.55 22.8042 20.0208 22.4125 20.4125C22.0208 20.8042 21.55 21 21 21ZM9 14C7.9 14 6.95833 13.6083 6.175 12.825C5.39167 12.0417 5 11.1 5 10C5 8.9 5.39167 7.95833 6.175 7.175C6.95833 6.39167 7.9 6 9 6C10.1 6 11.0417 6.39167 11.825 7.175C12.6083 7.95833 13 8.9 13 10C13 11.1 12.6083 12.0417 11.825 12.825C11.0417 13.6083 10.1 14 9 14ZM9 12C9.55 12 10.0208 11.8042 10.4125 11.4125C10.8042 11.0208 11 10.55 11 10C11 9.45 10.8042 8.97917 10.4125 8.5875C10.0208 8.19583 9.55 8 9 8C8.45 8 7.97917 8.19583 7.5875 8.5875C7.19583 8.97917 7 9.45 7 10C7 10.55 7.19583 11.0208 7.5875 11.4125C7.97917 11.8042 8.45 12 9 12ZM3 22C2.45 22 1.97917 21.8042 1.5875 21.4125C1.19583 21.0208 1 20.55 1 20V19.2C1 18.6333 1.14583 18.1125 1.4375 17.6375C1.72917 17.1625 2.11667 16.8 2.6 16.55C3.63333 16.0333 4.68333 15.6458 5.75 15.3875C6.81667 15.1292 7.9 15 9 15C10.1 15 11.1833 15.1292 12.25 15.3875C13.3167 15.6458 14.3667 16.0333 15.4 16.55C15.8833 16.8 16.2708 17.1625 16.5625 17.6375C16.8542 18.1125 17 18.6333 17 19.2V20C17 20.55 16.8042 21.0208 16.4125 21.4125C16.0208 21.8042 15.55 22 15 22H3ZM3 20H15V19.2C15 19.0167 14.9542 18.85 14.8625 18.7C14.7708 18.55 14.65 18.4333 14.5 18.35C13.6 17.9 12.6917 17.5625 11.775 17.3375C10.8583 17.1125 9.93333 17 9 17C8.06667 17 7.14167 17.1125 6.225 17.3375C5.30833 17.5625 4.4 17.9 3.5 18.35C3.35 18.4333 3.22917 18.55 3.1375 18.7C3.04583 18.85 3 19.0167 3 19.2V20Z" fill="black"/>
</g>
</svg>
