<svg width="28" height="28" viewBox="0 0 28 28" fill="none" xmlns="http://www.w3.org/2000/svg">
<path d="M 5.828125 24.5 C 5.191406 24.5 4.644531 24.277344 4.183594 23.816406 C 3.722656 23.355469 3.5 22.808594 3.5 22.171875 L 3.5 5.828125 C 3.5 5.191406 3.722656 4.644531 4.183594 4.183594 C 4.644531 3.722656 5.191406 3.5 5.828125 3.5 L 22.171875 3.5 C 22.808594 3.5 23.355469 3.722656 23.816406 4.183594 C 24.277344 4.644531 24.5 5.191406 24.5 5.828125 L 24.5 22.171875 C 24.5 22.808594 24.277344 23.355469 23.816406 23.816406 C 23.355469 24.277344 22.808594 24.5 22.171875 24.5 Z M 5.828125 22.171875 L 22.171875 22.171875 L 22.171875 8.171875 L 5.828125 8.171875 Z M 14 19.828125 C 12.410156 19.828125 10.976562 19.398438 9.730469 18.535156 C 8.472656 17.667969 7.5625 16.546875 7 15.171875 C 7.5625 13.785156 8.472656 12.660156 9.730469 11.796875 C 10.976562 10.933594 12.410156 10.5 14 10.5 C 15.589844 10.5 17.023438 10.933594 18.269531 11.796875 C 19.527344 12.660156 20.4375 13.785156 21 15.171875 C 20.4375 16.546875 19.527344 17.667969 18.269531 18.535156 C 17.023438 19.398438 15.589844 19.828125 14 19.828125 Z M 14 18.078125 C 15.089844 18.078125 16.078125 17.828125 16.976562 17.308594 C 17.867188 16.792969 18.566406 16.078125 19.070312 15.171875 C 18.566406 14.25 17.867188 13.535156 16.976562 13.019531 C 16.078125 12.507812 15.089844 12.25 14 12.25 C 12.910156 12.25 11.921875 12.507812 11.023438 13.019531 C 10.132812 13.535156 9.433594 14.25 8.929688 15.171875 C 9.433594 16.078125 10.132812 16.792969 11.023438 17.308594 C 11.921875 17.828125 12.910156 18.078125 14 18.078125 Z M 14 16.921875 C 14.488281 16.921875 14.902344 16.75 15.234375 16.40625 C 15.582031 16.0625 15.75 15.65625 15.75 15.171875 C 15.75 14.683594 15.582031 14.269531 15.234375 13.921875 C 14.902344 13.589844 14.488281 13.421875 14 13.421875 C 13.511719 13.421875 13.097656 13.589844 12.765625 13.921875 C 12.417969 14.269531 12.25 14.683594 12.25 15.171875 C 12.25 15.65625 12.417969 16.0625 12.765625 16.40625 C 13.097656 16.75 13.511719 16.921875 14 16.921875 Z M 14 16.921875" fill="black"/>
</svg>
