<svg width="16" height="16" viewBox="0 0 16 16" fill="none" xmlns="http://www.w3.org/2000/svg">
<path d="M 3.332031 14 C 2.964844 14 2.652344 13.871094 2.390625 13.609375 C 2.128906 13.347656 2 13.035156 2 12.667969 L 2 3.332031 C 2 2.964844 2.128906 2.652344 2.390625 2.390625 C 2.652344 2.128906 2.964844 2 3.332031 2 L 12.667969 2 C 13.035156 2 13.347656 2.128906 13.609375 2.390625 C 13.871094 2.652344 14 2.964844 14 3.332031 L 14 12.667969 C 14 13.035156 13.871094 13.347656 13.609375 13.609375 C 13.347656 13.871094 13.035156 14 12.667969 14 Z M 3.332031 12.667969 L 12.667969 12.667969 L 12.667969 4.667969 L 3.332031 4.667969 Z M 8 11.332031 C 7.089844 11.332031 6.273438 11.085938 5.558594 10.589844 C 4.839844 10.097656 4.320312 9.457031 4 8.667969 C 4.320312 7.878906 4.839844 7.234375 5.558594 6.742188 C 6.273438 6.246094 7.089844 6 8 6 C 8.910156 6 9.726562 6.246094 10.441406 6.742188 C 11.160156 7.234375 11.679688 7.878906 12 8.667969 C 11.679688 9.457031 11.160156 10.097656 10.441406 10.589844 C 9.726562 11.085938 8.910156 11.332031 8 11.332031 Z M 8 10.332031 C 8.621094 10.332031 9.1875 10.1875 9.699219 9.890625 C 10.210938 9.597656 10.609375 9.1875 10.898438 8.667969 C 10.609375 8.144531 10.210938 7.734375 9.699219 7.441406 C 9.1875 7.148438 8.621094 7 8 7 C 7.378906 7 6.8125 7.148438 6.300781 7.441406 C 5.789062 7.734375 5.390625 8.144531 5.101562 8.667969 C 5.390625 9.1875 5.789062 9.597656 6.300781 9.890625 C 6.8125 10.1875 7.378906 10.332031 8 10.332031 Z M 8 9.667969 C 8.277344 9.667969 8.515625 9.570312 8.707031 9.375 C 8.902344 9.179688 9 8.945312 9 8.667969 C 9 8.390625 8.902344 8.152344 8.707031 7.957031 C 8.515625 7.765625 8.277344 7.667969 8 7.667969 C 7.722656 7.667969 7.484375 7.765625 7.292969 7.957031 C 7.097656 8.152344 7 8.390625 7 8.667969 C 7 8.945312 7.097656 9.179688 7.292969 9.375 C 7.484375 9.570312 7.722656 9.667969 8 9.667969 Z M 8 9.667969" fill="black"/>
</svg>
