<svg width="24" height="24" viewBox="0 0 24 24" fill="none" xmlns="http://www.w3.org/2000/svg">
<path d="M 5 21 C 4.449219 21 3.980469 20.804688 3.585938 20.414062 C 3.195312 20.019531 3 19.550781 3 19 L 3 5 C 3 4.449219 3.195312 3.980469 3.585938 3.585938 C 3.980469 3.195312 4.449219 3 5 3 L 19 3 C 19.550781 3 20.019531 3.195312 20.414062 3.585938 C 20.804688 3.980469 21 4.449219 21 5 L 21 19 C 21 19.550781 20.804688 20.019531 20.414062 20.414062 C 20.019531 20.804688 19.550781 21 19 21 Z M 5 19 L 19 19 L 19 7 L 5 7 Z M 12 17 C 10.632812 17 9.414062 16.628906 8.335938 15.886719 C 7.261719 15.144531 6.484375 14.183594 6 13 C 6.484375 11.816406 7.261719 10.855469 8.335938 10.113281 C 9.414062 9.371094 10.632812 9 12 9 C 13.367188 9 14.585938 9.371094 15.664062 10.113281 C 16.738281 10.855469 17.515625 11.816406 18 13 C 17.515625 14.183594 16.738281 15.144531 15.664062 15.886719 C 14.585938 16.628906 13.367188 17 12 17 Z M 12 15.5 C 12.933594 15.5 13.785156 15.277344 14.550781 14.835938 C 15.316406 14.394531 15.917969 13.785156 16.351562 13 C 15.917969 12.214844 15.316406 11.605469 14.550781 11.164062 C 13.785156 10.722656 12.933594 10.5 12 10.5 C 11.066406 10.5 10.214844 10.722656 9.449219 11.164062 C 8.683594 11.605469 8.082031 12.214844 7.648438 13 C 8.082031 13.785156 8.683594 14.394531 9.449219 14.835938 C 10.214844 15.277344 11.066406 15.5 12 15.5 Z M 12 14.5 C 12.417969 14.5 12.769531 14.355469 13.0625 14.0625 C 13.355469 13.769531 13.5 13.417969 13.5 13 C 13.5 12.582031 13.355469 12.230469 13.0625 11.9375 C 12.769531 11.644531 12.417969 11.5 12 11.5 C 11.582031 11.5 11.230469 11.644531 10.9375 11.9375 C 10.644531 12.230469 10.5 12.582031 10.5 13 C 10.5 13.417969 10.644531 13.769531 10.9375 14.0625 C 11.230469 14.355469 11.582031 14.5 12 14.5 Z M 12 14.5" fill="black"/>
</svg>
