<svg width="16" height="16" viewBox="0 0 16 16" fill="none" xmlns="http://www.w3.org/2000/svg">
<path d="M10.6167 5.20003V3.38337H5.38333V5.20003H3.86666V2.6167C3.86666 2.40559 3.93889 2.22781 4.08333 2.08337C4.22777 1.93892 4.40555 1.8667 4.61666 1.8667H11.3833C11.5944 1.8667 11.7722 1.93892 11.9167 2.08337C12.0611 2.22781 12.1333 2.40559 12.1333 2.6167V5.20003H10.6167ZM2.71666 6.7167H13.2833H3.86666H2.71666ZM11.9167 8.50003C12.1167 8.50003 12.286 8.4307 12.4247 8.29203C12.5638 8.15292 12.6333 7.98337 12.6333 7.78337C12.6333 7.57225 12.5638 7.39714 12.4247 7.25803C12.286 7.11937 12.1167 7.05003 11.9167 7.05003C11.7056 7.05003 11.5307 7.11937 11.392 7.25803C11.2529 7.39714 11.1833 7.57225 11.1833 7.78337C11.1833 7.98337 11.2529 8.15292 11.392 8.29203C11.5307 8.4307 11.7056 8.50003 11.9167 8.50003ZM5.38333 12.7167H10.6167V10.35H5.38333V12.7167ZM5.38333 14.2C4.96111 14.2 4.60289 14.0529 4.30866 13.7587C4.014 13.464 3.86666 13.1056 3.86666 12.6834V11.45H1.95C1.73889 11.45 1.56111 11.3749 1.41666 11.2247C1.27222 11.0749 1.2 10.8945 1.2 10.6834V7.33337C1.2 6.73337 1.40555 6.22781 1.81666 5.8167C2.22777 5.40559 2.72777 5.20003 3.31666 5.20003H12.6833C13.2833 5.20003 13.7862 5.40559 14.192 5.8167C14.5973 6.22781 14.8 6.73337 14.8 7.33337V10.6834C14.8 10.8945 14.7278 11.0749 14.5833 11.2247C14.4389 11.3749 14.2611 11.45 14.05 11.45H12.1333V12.6834C12.1333 13.1056 11.9862 13.464 11.692 13.7587C11.3973 14.0529 11.0389 14.2 10.6167 14.2H5.38333ZM13.2833 9.93337V7.33337C13.2833 7.15559 13.2278 7.00825 13.1167 6.89137C13.0056 6.77492 12.8611 6.7167 12.6833 6.7167H3.31666C3.15 6.7167 3.00844 6.77492 2.892 6.89137C2.77511 7.00825 2.71666 7.15559 2.71666 7.33337V9.93337H3.86666V8.83337H12.1333V9.93337H13.2833Z" fill="black"/>
</svg>
