<svg width="28" height="28" viewBox="0 0 28 28" fill="none" xmlns="http://www.w3.org/2000/svg">
<path d="M18.5792 9.10006V5.92089H9.42083V9.10006H6.76666V4.57922C6.76666 4.20978 6.89305 3.89867 7.14583 3.64589C7.39861 3.39311 7.70972 3.26672 8.07916 3.26672H19.9208C20.2903 3.26672 20.6014 3.39311 20.8542 3.64589C21.1069 3.89867 21.2333 4.20978 21.2333 4.57922V9.10006H18.5792ZM4.75416 11.7542H23.2458H6.76666H4.75416ZM20.8542 14.8751C21.2042 14.8751 21.5005 14.7537 21.7432 14.5111C21.9866 14.2676 22.1083 13.9709 22.1083 13.6209C22.1083 13.2514 21.9866 12.945 21.7432 12.7016C21.5005 12.4589 21.2042 12.3376 20.8542 12.3376C20.4847 12.3376 20.1787 12.4589 19.936 12.7016C19.6926 12.945 19.5708 13.2514 19.5708 13.6209C19.5708 13.9709 19.6926 14.2676 19.936 14.5111C20.1787 14.7537 20.4847 14.8751 20.8542 14.8751ZM9.42083 22.2542H18.5792V18.1126H9.42083V22.2542ZM9.42083 24.8501C8.68194 24.8501 8.05505 24.5926 7.54017 24.0777C7.0245 23.5621 6.76666 22.9348 6.76666 22.1959V20.0376H3.4125C3.04305 20.0376 2.73194 19.9061 2.47917 19.6432C2.22639 19.3811 2.1 19.0653 2.1 18.6959V12.8334C2.1 11.7834 2.45972 10.8987 3.17917 10.1792C3.89861 9.45978 4.77361 9.10006 5.80416 9.10006H22.1958C23.2458 9.10006 24.1259 9.45978 24.836 10.1792C25.5453 10.8987 25.9 11.7834 25.9 12.8334V18.6959C25.9 19.0653 25.7736 19.3811 25.5208 19.6432C25.2681 19.9061 24.9569 20.0376 24.5875 20.0376H21.2333V22.1959C21.2333 22.9348 20.9759 23.5621 20.461 24.0777C19.9453 24.5926 19.3181 24.8501 18.5792 24.8501H9.42083ZM23.2458 17.3834V12.8334C23.2458 12.5223 23.1486 12.2644 22.9542 12.0599C22.7597 11.8561 22.5069 11.7542 22.1958 11.7542H5.80416C5.5125 11.7542 5.26478 11.8561 5.061 12.0599C4.85644 12.2644 4.75416 12.5223 4.75416 12.8334V17.3834H6.76666V15.4584H21.2333V17.3834H23.2458Z" fill="black"/>
</svg>
