<svg width="24" height="24" viewBox="0 0 24 24" fill="none" xmlns="http://www.w3.org/2000/svg">
<path d="M15.925 7.80005V5.07505H8.075V7.80005H5.8V3.92505C5.8 3.60838 5.90833 3.34172 6.125 3.12505C6.34167 2.90838 6.60833 2.80005 6.925 2.80005H17.075C17.3917 2.80005 17.6583 2.90838 17.875 3.12505C18.0917 3.34172 18.2 3.60838 18.2 3.92505V7.80005H15.925ZM4.075 10.075H19.925H5.8H4.075ZM17.875 12.75C18.175 12.75 18.429 12.646 18.637 12.438C18.8457 12.2294 18.95 11.975 18.95 11.675C18.95 11.3584 18.8457 11.0957 18.637 10.887C18.429 10.679 18.175 10.575 17.875 10.575C17.5583 10.575 17.296 10.679 17.088 10.887C16.8793 11.0957 16.775 11.3584 16.775 11.675C16.775 11.975 16.8793 12.2294 17.088 12.438C17.296 12.646 17.5583 12.75 17.875 12.75ZM8.075 19.0751H15.925V15.525H8.075V19.0751ZM8.075 21.3C7.44167 21.3 6.90433 21.0794 6.463 20.6381C6.021 20.1961 5.8 19.6584 5.8 19.025V17.175H2.925C2.60833 17.175 2.34167 17.0624 2.125 16.837C1.90833 16.6124 1.8 16.3417 1.8 16.025V11C1.8 10.1 2.10833 9.34172 2.725 8.72505C3.34167 8.10838 4.09167 7.80005 4.975 7.80005H19.025C19.925 7.80005 20.6793 8.10838 21.288 8.72505C21.896 9.34172 22.2 10.1 22.2 11V16.025C22.2 16.3417 22.0917 16.6124 21.875 16.837C21.6583 17.0624 21.3917 17.175 21.075 17.175H18.2V19.025C18.2 19.6584 17.9793 20.1961 17.538 20.6381C17.096 21.0794 16.5583 21.3 15.925 21.3H8.075ZM19.925 14.9V11C19.925 10.7334 19.8417 10.5124 19.675 10.337C19.5083 10.1624 19.2917 10.075 19.025 10.075H4.975C4.725 10.075 4.51267 10.1624 4.338 10.337C4.16267 10.5124 4.075 10.7334 4.075 11V14.9H5.8V13.25H18.2V14.9H19.925Z" fill="black"/>
</svg>
