<svg width="16" height="16" viewBox="0 0 16 16" fill="none" xmlns="http://www.w3.org/2000/svg">
<path d="M8.00013 14.6663C7.07791 14.6663 6.21124 14.4913 5.40013 14.1413C4.58902 13.7913 3.88346 13.3163 3.28346 12.7163C2.68346 12.1163 2.20846 11.4108 1.85846 10.5997C1.50846 9.78856 1.33346 8.9219 1.33346 7.99967C1.33346 7.31079 1.42791 6.65801 1.6168 6.04134C1.80569 5.42467 2.07791 4.84967 2.43346 4.31634L0.916797 2.79967C0.783464 2.66634 0.716797 2.50801 0.716797 2.32467C0.716797 2.14134 0.783464 1.98301 0.916797 1.84967C1.05013 1.71634 1.20846 1.64967 1.3918 1.64967C1.57513 1.64967 1.73346 1.71634 1.8668 1.84967L14.1335 14.1163C14.2668 14.2497 14.3335 14.4052 14.3335 14.583C14.3335 14.7608 14.2668 14.9163 14.1335 15.0497C14.0001 15.183 13.8418 15.2497 13.6585 15.2497C13.4751 15.2497 13.3168 15.183 13.1835 15.0497L11.6835 13.5663C11.1501 13.9219 10.5751 14.1941 9.95846 14.383C9.3418 14.5719 8.68902 14.6663 8.00013 14.6663ZM7.33346 13.2997V11.9997C6.9668 11.9997 6.65291 11.8691 6.3918 11.608C6.13069 11.3469 6.00013 11.033 6.00013 10.6663V9.99967L2.80013 6.79967C2.7668 6.99967 2.73624 7.19968 2.70846 7.39967C2.68069 7.59967 2.6668 7.79967 2.6668 7.99967C2.6668 9.34412 3.10846 10.5219 3.9918 11.533C4.87513 12.5441 5.98902 13.133 7.33346 13.2997ZM14.6668 7.99967C14.6668 8.49967 14.6112 8.98023 14.5001 9.44134C14.389 9.90245 14.239 10.3441 14.0501 10.7663C13.9724 10.9219 13.8474 11.0247 13.6751 11.0747C13.5029 11.1247 13.339 11.1052 13.1835 11.0163C13.0279 10.9275 12.9196 10.7941 12.8585 10.6163C12.7974 10.4386 12.8057 10.2663 12.8835 10.0997C13.0279 9.76634 13.139 9.42467 13.2168 9.07467C13.2946 8.72467 13.3335 8.36634 13.3335 7.99967C13.3335 6.91079 13.0307 5.91634 12.4251 5.01634C11.8196 4.11634 11.0112 3.46634 10.0001 3.06634V3.33301C10.0001 3.69967 9.86958 4.01356 9.60847 4.27467C9.34735 4.53579 9.03346 4.66634 8.6668 4.66634H7.6668V4.94967C7.6668 5.10523 7.60013 5.21079 7.4668 5.26634C7.33346 5.3219 7.21124 5.29412 7.10013 5.18301L5.13346 3.21634C4.93346 3.01634 4.85291 2.77745 4.8918 2.49967C4.93069 2.2219 5.07791 2.0219 5.33346 1.89967C5.74458 1.71079 6.17235 1.56912 6.6168 1.47467C7.06124 1.38023 7.52235 1.33301 8.00013 1.33301C8.92235 1.33301 9.78902 1.50801 10.6001 1.85801C11.4112 2.20801 12.1168 2.68301 12.7168 3.28301C13.3168 3.88301 13.7918 4.58856 14.1418 5.39967C14.4918 6.21079 14.6668 7.07745 14.6668 7.99967Z" fill="#1C1B1F"/>
</svg>
