<svg width="24" height="24" viewBox="0 0 24 24" fill="none" xmlns="http://www.w3.org/2000/svg">
<path d="M12.0002 22C10.6169 22 9.31686 21.7375 8.1002 21.2125C6.88353 20.6875 5.8252 19.975 4.9252 19.075C4.0252 18.175 3.3127 17.1167 2.7877 15.9C2.2627 14.6833 2.0002 13.3833 2.0002 12C2.0002 10.9667 2.14186 9.9875 2.4252 9.0625C2.70853 8.1375 3.11686 7.275 3.6502 6.475L1.3752 4.2C1.1752 4 1.0752 3.7625 1.0752 3.4875C1.0752 3.2125 1.1752 2.975 1.3752 2.775C1.5752 2.575 1.8127 2.475 2.0877 2.475C2.3627 2.475 2.6002 2.575 2.8002 2.775L21.2002 21.175C21.4002 21.375 21.5002 21.6083 21.5002 21.875C21.5002 22.1417 21.4002 22.375 21.2002 22.575C21.0002 22.775 20.7627 22.875 20.4877 22.875C20.2127 22.875 19.9752 22.775 19.7752 22.575L17.5252 20.35C16.7252 20.8833 15.8627 21.2917 14.9377 21.575C14.0127 21.8583 13.0335 22 12.0002 22ZM11.0002 19.95V18C10.4502 18 9.97936 17.8042 9.5877 17.4125C9.19603 17.0208 9.0002 16.55 9.0002 16V15L4.2002 10.2C4.1502 10.5 4.10436 10.8 4.0627 11.1C4.02103 11.4 4.0002 11.7 4.0002 12C4.0002 14.0167 4.6627 15.7833 5.9877 17.3C7.3127 18.8167 8.98353 19.7 11.0002 19.95ZM22.0002 12C22.0002 12.75 21.9169 13.4708 21.7502 14.1625C21.5835 14.8542 21.3585 15.5167 21.0752 16.15C20.9585 16.3833 20.771 16.5375 20.5127 16.6125C20.2544 16.6875 20.0085 16.6583 19.7752 16.525C19.5419 16.3917 19.3794 16.1917 19.2877 15.925C19.196 15.6583 19.2085 15.4 19.3252 15.15C19.5419 14.65 19.7085 14.1375 19.8252 13.6125C19.9419 13.0875 20.0002 12.55 20.0002 12C20.0002 10.3667 19.546 8.875 18.6377 7.525C17.7294 6.175 16.5169 5.2 15.0002 4.6V5C15.0002 5.55 14.8044 6.02083 14.4127 6.4125C14.021 6.80417 13.5502 7 13.0002 7H11.5002V7.425C11.5002 7.65833 11.4002 7.81667 11.2002 7.9C11.0002 7.98333 10.8169 7.94167 10.6502 7.775L7.7002 4.825C7.4002 4.525 7.27936 4.16667 7.3377 3.75C7.39603 3.33333 7.61686 3.03333 8.0002 2.85C8.61686 2.56667 9.25853 2.35417 9.9252 2.2125C10.5919 2.07083 11.2835 2 12.0002 2C13.3835 2 14.6835 2.2625 15.9002 2.7875C17.1169 3.3125 18.1752 4.025 19.0752 4.925C19.9752 5.825 20.6877 6.88333 21.2127 8.1C21.7377 9.31667 22.0002 10.6167 22.0002 12Z" fill="#1C1B1F"/>
</svg>
