<svg width="16" height="16" viewBox="0 0 16 16" fill="none" xmlns="http://www.w3.org/2000/svg">
<path d="M7.99967 14.6663C7.07745 14.6663 6.21079 14.4913 5.39967 14.1413C4.58856 13.7913 3.88301 13.3163 3.28301 12.7163C2.68301 12.1163 2.20801 11.4108 1.85801 10.5997C1.50801 9.78856 1.33301 8.9219 1.33301 7.99967C1.33301 7.07745 1.50801 6.21079 1.85801 5.39967C2.20801 4.58856 2.68301 3.88301 3.28301 3.28301C3.88301 2.68301 4.58856 2.20801 5.39967 1.85801C6.21079 1.50801 7.07745 1.33301 7.99967 1.33301C8.9219 1.33301 9.78856 1.50801 10.5997 1.85801C11.4108 2.20801 12.1163 2.68301 12.7163 3.28301C13.3163 3.88301 13.7913 4.58856 14.1413 5.39967C14.4913 6.21079 14.6663 7.07745 14.6663 7.99967C14.6663 8.9219 14.4913 9.78856 14.1413 10.5997C13.7913 11.4108 13.3163 12.1163 12.7163 12.7163C12.1163 13.3163 11.4108 13.7913 10.5997 14.1413C9.78856 14.4913 8.9219 14.6663 7.99967 14.6663ZM7.33301 13.2997V11.9997C6.96634 11.9997 6.65245 11.8691 6.39134 11.608C6.13023 11.3469 5.99967 11.033 5.99967 10.6663V9.99967L2.79967 6.79967C2.76634 6.99967 2.73579 7.19967 2.70801 7.39967C2.68023 7.59967 2.66634 7.79967 2.66634 7.99967C2.66634 9.34412 3.10801 10.5219 3.99134 11.533C4.87467 12.5441 5.98856 13.133 7.33301 13.2997ZM11.933 11.5997C12.1552 11.3552 12.3552 11.0913 12.533 10.808C12.7108 10.5247 12.858 10.2302 12.9747 9.92467C13.0913 9.61912 13.1802 9.30523 13.2413 8.98301C13.3025 8.66079 13.333 8.33301 13.333 7.99967C13.333 6.91079 13.0302 5.91634 12.4247 5.01634C11.8191 4.11634 11.0108 3.46634 9.99967 3.06634V3.33301C9.99967 3.69967 9.86912 4.01356 9.60801 4.27467C9.3469 4.53579 9.03301 4.66634 8.66634 4.66634H7.33301V5.99967C7.33301 6.18856 7.26912 6.3469 7.14134 6.47467C7.01356 6.60245 6.85523 6.66634 6.66634 6.66634H5.33301V7.99967H9.33301C9.5219 7.99967 9.68023 8.06356 9.80801 8.19134C9.93579 8.31912 9.99967 8.47745 9.99967 8.66634V10.6663H10.6663C10.9552 10.6663 11.2163 10.7525 11.4497 10.9247C11.683 11.0969 11.8441 11.3219 11.933 11.5997Z" fill="#1C1B1F"/>
</svg>
