<svg width="28" height="28" viewBox="0 0 28 28" fill="none" xmlns="http://www.w3.org/2000/svg">
<path d="M13.9997 25.6663C12.3858 25.6663 10.8691 25.3601 9.44968 24.7476C8.03023 24.1351 6.79551 23.3038 5.74551 22.2538C4.69551 21.2038 3.86426 19.9691 3.25176 18.5497C2.63926 17.1302 2.33301 15.6136 2.33301 13.9997C2.33301 12.3858 2.63926 10.8691 3.25176 9.44968C3.86426 8.03023 4.69551 6.79551 5.74551 5.74551C6.79551 4.69551 8.03023 3.86426 9.44968 3.25176C10.8691 2.63926 12.3858 2.33301 13.9997 2.33301C15.6136 2.33301 17.1302 2.63926 18.5497 3.25176C19.9691 3.86426 21.2038 4.69551 22.2538 5.74551C23.3038 6.79551 24.1351 8.03023 24.7476 9.44968C25.3601 10.8691 25.6663 12.3858 25.6663 13.9997C25.6663 15.6136 25.3601 17.1302 24.7476 18.5497C24.1351 19.9691 23.3038 21.2038 22.2538 22.2538C21.2038 23.3038 19.9691 24.1351 18.5497 24.7476C17.1302 25.3601 15.6136 25.6663 13.9997 25.6663ZM12.833 23.2747V20.9997C12.1913 20.9997 11.642 20.7712 11.1851 20.3143C10.7281 19.8573 10.4997 19.308 10.4997 18.6663V17.4997L4.89967 11.8997C4.84134 12.2497 4.78787 12.5997 4.73926 12.9497C4.69065 13.2997 4.66634 13.6497 4.66634 13.9997C4.66634 16.3525 5.43926 18.4136 6.98509 20.183C8.53092 21.9525 10.4802 22.983 12.833 23.2747ZM20.883 20.2997C21.2719 19.8719 21.6219 19.4101 21.933 18.9143C22.2441 18.4184 22.5018 17.9031 22.7059 17.3684C22.9101 16.8337 23.0656 16.2844 23.1726 15.7205C23.2795 15.1566 23.333 14.583 23.333 13.9997C23.333 12.0941 22.8031 10.3538 21.7434 8.77884C20.6837 7.20384 19.2691 6.06634 17.4997 5.36634V5.83301C17.4997 6.47467 17.2712 7.02398 16.8143 7.48092C16.3573 7.93787 15.808 8.16634 15.1663 8.16634H12.833V10.4997C12.833 10.8302 12.7212 11.1073 12.4976 11.3309C12.274 11.5545 11.9969 11.6663 11.6663 11.6663H9.33301V13.9997H16.333C16.6636 13.9997 16.9406 14.1115 17.1643 14.3351C17.3879 14.5587 17.4997 14.8358 17.4997 15.1663V18.6663H18.6663C19.1719 18.6663 19.6288 18.817 20.0372 19.1184C20.4455 19.4198 20.7275 19.8136 20.883 20.2997Z" fill="#1C1B1F"/>
</svg>
