<svg width="16" height="16" viewBox="0 0 16 16" fill="none" xmlns="http://www.w3.org/2000/svg">
<path d="M4.66634 3.84992C4.05523 4.33881 3.56912 4.94159 3.20801 5.65826C2.8469 6.37492 2.66634 7.15548 2.66634 7.99992C2.66634 9.2777 3.05523 10.3916 3.83301 11.3416C4.61079 12.2916 5.59412 12.9055 6.78301 13.1833C6.94967 13.2277 7.08301 13.3249 7.18301 13.4749C7.28301 13.6249 7.33301 13.7888 7.33301 13.9666C7.33301 14.1444 7.2719 14.2944 7.14967 14.4166C7.02745 14.5388 6.88856 14.5833 6.73301 14.5499C5.17745 14.261 3.88856 13.5083 2.86634 12.2916C1.84412 11.0749 1.33301 9.64437 1.33301 7.99992C1.33301 6.98881 1.53579 6.05548 1.94134 5.19992C2.3469 4.34437 2.89967 3.61103 3.59967 2.99992H2.66634C2.47745 2.99992 2.31912 2.93603 2.19134 2.80826C2.06356 2.68048 1.99967 2.52215 1.99967 2.33326C1.99967 2.14437 2.06356 1.98603 2.19134 1.85826C2.31912 1.73048 2.47745 1.66659 2.66634 1.66659H5.33301C5.5219 1.66659 5.68023 1.73048 5.80801 1.85826C5.93579 1.98603 5.99967 2.14437 5.99967 2.33326V4.99992C5.99967 5.18881 5.93579 5.34715 5.80801 5.47492C5.68023 5.6027 5.5219 5.66659 5.33301 5.66659C5.14412 5.66659 4.98579 5.6027 4.85801 5.47492C4.73023 5.34715 4.66634 5.18881 4.66634 4.99992V3.84992ZM7.04967 9.18326L10.3663 5.86659C10.4997 5.73326 10.6552 5.66937 10.833 5.67492C11.0108 5.68048 11.1663 5.74992 11.2997 5.88326C11.4219 6.01659 11.4858 6.17215 11.4913 6.34992C11.4969 6.5277 11.433 6.68326 11.2997 6.81659L7.51634 10.5999C7.38301 10.7333 7.22745 10.7999 7.04967 10.7999C6.8719 10.7999 6.71634 10.7333 6.58301 10.5999L4.69967 8.69992C4.57745 8.5777 4.51356 8.42492 4.50801 8.24159C4.50245 8.05826 4.56634 7.89992 4.69967 7.76659C4.8219 7.64437 4.97745 7.58326 5.16634 7.58326C5.35523 7.58326 5.51079 7.64437 5.63301 7.76659L7.04967 9.18326ZM12.3997 12.9999H13.333C13.5219 12.9999 13.6802 13.0638 13.808 13.1916C13.9358 13.3194 13.9997 13.4777 13.9997 13.6666C13.9997 13.8555 13.9358 14.0138 13.808 14.1416C13.6802 14.2694 13.5219 14.3333 13.333 14.3333H10.6663C10.4775 14.3333 10.3191 14.2694 10.1913 14.1416C10.0636 14.0138 9.99967 13.8555 9.99967 13.6666V10.9999C9.99967 10.811 10.0636 10.6527 10.1913 10.5249C10.3191 10.3971 10.4775 10.3333 10.6663 10.3333C10.8552 10.3333 11.0136 10.3971 11.1413 10.5249C11.2691 10.6527 11.333 10.811 11.333 10.9999V12.1499C11.9441 11.6499 12.4302 11.0444 12.7913 10.3333C13.1525 9.62215 13.333 8.84437 13.333 7.99992C13.333 6.72215 12.9441 5.60826 12.1663 4.65826C11.3886 3.70826 10.4052 3.09437 9.21634 2.81659C9.04967 2.77215 8.91634 2.67492 8.81634 2.52492C8.71634 2.37492 8.66634 2.21103 8.66634 2.03326C8.66634 1.85548 8.72745 1.70548 8.84967 1.58326C8.9719 1.46103 9.11079 1.41659 9.26634 1.44992C10.8219 1.73881 12.1108 2.49159 13.133 3.70826C14.1552 4.92492 14.6663 6.35548 14.6663 7.99992C14.6663 9.01103 14.4636 9.94437 14.058 10.7999C13.6525 11.6555 13.0997 12.3888 12.3997 12.9999Z" fill="#191919"/>
</svg>
