<svg width="28" height="28" viewBox="0 0 28 28" fill="none" xmlns="http://www.w3.org/2000/svg">
<path d="M13.9997 25.6663C12.3859 25.6663 10.8692 25.3601 9.44974 24.7476C8.0303 24.1351 6.79557 23.3038 5.74557 22.2538C4.69557 21.2038 3.86432 19.9691 3.25182 18.5497C2.63932 17.1302 2.33307 15.6136 2.33307 13.9997C2.33307 12.7941 2.49835 11.6518 2.82891 10.5726C3.15946 9.49342 3.63585 8.48717 4.25807 7.55384L1.60391 4.89967C1.37057 4.66634 1.25391 4.38926 1.25391 4.06842C1.25391 3.74759 1.37057 3.47051 1.60391 3.23717C1.83724 3.00384 2.11432 2.88717 2.43516 2.88717C2.75599 2.88717 3.03307 3.00384 3.26641 3.23717L24.7331 24.7038C24.9664 24.9372 25.0831 25.2094 25.0831 25.5205C25.0831 25.8316 24.9664 26.1038 24.7331 26.3372C24.4997 26.5705 24.2227 26.6872 23.9018 26.6872C23.581 26.6872 23.3039 26.5705 23.0706 26.3372L20.4456 23.7413C19.5122 24.3636 18.506 24.84 17.4268 25.1705C16.3477 25.5011 15.2053 25.6663 13.9997 25.6663ZM12.8331 23.2747V20.9997C12.1914 20.9997 11.6421 20.7712 11.1852 20.3143C10.7282 19.8573 10.4997 19.308 10.4997 18.6663V17.4997L4.89974 11.8997C4.84141 12.2497 4.78793 12.5997 4.73932 12.9497C4.69071 13.2997 4.66641 13.6497 4.66641 13.9997C4.66641 16.3525 5.43932 18.4136 6.98516 20.183C8.53099 21.9525 10.4803 22.983 12.8331 23.2747ZM25.6664 13.9997C25.6664 14.8747 25.5692 15.7156 25.3747 16.5226C25.1803 17.3295 24.9178 18.1025 24.5872 18.8413C24.4511 19.1136 24.2324 19.2934 23.931 19.3809C23.6296 19.4684 23.3428 19.4344 23.0706 19.2788C22.7984 19.1233 22.6088 18.89 22.5018 18.5788C22.3949 18.2677 22.4095 17.9663 22.5456 17.6747C22.7984 17.0913 22.9928 16.4934 23.1289 15.8809C23.265 15.2684 23.3331 14.6413 23.3331 13.9997C23.3331 12.0941 22.8032 10.3538 21.7435 8.77884C20.6838 7.20384 19.2692 6.06634 17.4997 5.36634V5.83301C17.4997 6.47467 17.2713 7.02398 16.8143 7.48092C16.3574 7.93787 15.8081 8.16634 15.1664 8.16634H13.4164V8.66217C13.4164 8.9344 13.2997 9.11912 13.0664 9.21634C12.8331 9.31356 12.6192 9.26495 12.4247 9.07051L8.98307 5.62884C8.63307 5.27884 8.4921 4.86079 8.56016 4.37467C8.62821 3.88856 8.88585 3.53856 9.33307 3.32467C10.0525 2.99412 10.8011 2.7462 11.5789 2.58092C12.3567 2.41565 13.1636 2.33301 13.9997 2.33301C15.6136 2.33301 17.1303 2.63926 18.5497 3.25176C19.9692 3.86426 21.2039 4.69551 22.2539 5.74551C23.3039 6.79551 24.1352 8.03023 24.7477 9.44967C25.3602 10.8691 25.6664 12.3858 25.6664 13.9997Z" fill="#1C1B1F"/>
</svg>
