<svg width="28" height="28" viewBox="0 0 28 28" fill="none" xmlns="http://www.w3.org/2000/svg">
<path d="M8.16634 6.73755C7.0969 7.5931 6.2462 8.64797 5.61426 9.90213C4.98231 11.1563 4.66634 12.5223 4.66634 14C4.66634 16.2362 5.3469 18.1855 6.70801 19.848C8.06912 21.5105 9.78995 22.5848 11.8705 23.0709C12.1622 23.1487 12.3955 23.3188 12.5705 23.5813C12.7455 23.8438 12.833 24.1306 12.833 24.4417C12.833 24.7528 12.7261 25.0153 12.5122 25.2292C12.2983 25.4431 12.0552 25.5209 11.783 25.4625C9.06079 24.957 6.80523 23.6396 5.01634 21.5105C3.22745 19.3813 2.33301 16.8778 2.33301 14C2.33301 12.2306 2.68787 10.5973 3.39759 9.10005C4.10731 7.60283 5.07468 6.31949 6.29968 5.25005H4.66634C4.33579 5.25005 4.0587 5.13824 3.83509 4.91463C3.61148 4.69102 3.49967 4.41394 3.49967 4.08338C3.49967 3.75283 3.61148 3.47574 3.83509 3.25213C4.0587 3.02852 4.33579 2.91672 4.66634 2.91672H9.33301C9.66356 2.91672 9.94065 3.02852 10.1643 3.25213C10.3879 3.47574 10.4997 3.75283 10.4997 4.08338V8.75005C10.4997 9.0806 10.3879 9.35769 10.1643 9.5813C9.94065 9.80491 9.66356 9.91672 9.33301 9.91672C9.00245 9.91672 8.72537 9.80491 8.50176 9.5813C8.27815 9.35769 8.16634 9.0806 8.16634 8.75005V6.73755ZM12.3372 16.0709L18.1413 10.2667C18.3747 10.0334 18.6469 9.92158 18.958 9.9313C19.2691 9.94102 19.5413 10.0625 19.7747 10.2959C19.9886 10.5292 20.1004 10.8014 20.1101 11.1125C20.1198 11.4237 20.008 11.6959 19.7747 11.9292L13.1538 18.55C12.9205 18.7834 12.6483 18.9 12.3372 18.9C12.0261 18.9 11.7538 18.7834 11.5205 18.55L8.22468 15.225C8.01079 15.0112 7.89898 14.7438 7.88926 14.423C7.87954 14.1021 7.99134 13.825 8.22468 13.5917C8.43856 13.3778 8.71079 13.2709 9.04134 13.2709C9.3719 13.2709 9.64412 13.3778 9.85801 13.5917L12.3372 16.0709ZM21.6997 22.75H23.333C23.6636 22.75 23.9407 22.8619 24.1643 23.0855C24.3879 23.3091 24.4997 23.5862 24.4997 23.9167C24.4997 24.2473 24.3879 24.5244 24.1643 24.748C23.9407 24.9716 23.6636 25.0834 23.333 25.0834H18.6663C18.3358 25.0834 18.0587 24.9716 17.8351 24.748C17.6115 24.5244 17.4997 24.2473 17.4997 23.9167V19.25C17.4997 18.9195 17.6115 18.6424 17.8351 18.4188C18.0587 18.1952 18.3358 18.0834 18.6663 18.0834C18.9969 18.0834 19.274 18.1952 19.4976 18.4188C19.7212 18.6424 19.833 18.9195 19.833 19.25V21.2626C20.9025 20.3876 21.7531 19.3278 22.3851 18.0834C23.017 16.8389 23.333 15.4778 23.333 14C23.333 11.7639 22.6525 9.81463 21.2913 8.15213C19.9302 6.48963 18.2094 5.41533 16.1288 4.92922C15.8372 4.85144 15.6038 4.6813 15.4288 4.4188C15.2538 4.1563 15.1663 3.86949 15.1663 3.55838C15.1663 3.24727 15.2733 2.98477 15.4872 2.77088C15.7011 2.55699 15.9441 2.47922 16.2163 2.53755C18.9386 3.0431 21.1941 4.36047 22.983 6.48963C24.7719 8.6188 25.6663 11.1223 25.6663 14C25.6663 15.7695 25.3115 17.4028 24.6018 18.9C23.892 20.3973 22.9247 21.6806 21.6997 22.75Z" fill="#191919"/>
</svg>
