<svg width="28" height="28" viewBox="0 0 28 28" fill="none" xmlns="http://www.w3.org/2000/svg">
<path d="M2.33334 8.16634V2.33301H8.16668V4.66634H4.66668V8.16634H2.33334ZM2.33334 25.6663V19.833H4.66668V23.333H8.16668V25.6663H2.33334ZM19.8333 25.6663V23.333H23.3333V19.833H25.6667V25.6663H19.8333ZM23.3333 8.16634V4.66634H19.8333V2.33301H25.6667V8.16634H23.3333ZM20.4167 20.4163H22.1667V22.1663H20.4167V20.4163ZM20.4167 16.9163H22.1667V18.6663H20.4167V16.9163ZM18.6667 18.6663H20.4167V20.4163H18.6667V18.6663ZM16.9167 20.4163H18.6667V22.1663H16.9167V20.4163ZM15.1667 18.6663H16.9167V20.4163H15.1667V18.6663ZM18.6667 15.1663H20.4167V16.9163H18.6667V15.1663ZM16.9167 16.9163H18.6667V18.6663H16.9167V16.9163ZM15.1667 15.1663H16.9167V16.9163H15.1667V15.1663ZM22.1667 5.83301V12.833H15.1667V5.83301H22.1667ZM12.8333 15.1663V22.1663H5.83334V15.1663H12.8333ZM12.8333 5.83301V12.833H5.83334V5.83301H12.8333ZM11.0833 20.4163V16.9163H7.58334V20.4163H11.0833ZM11.0833 11.083V7.58301H7.58334V11.083H11.0833ZM20.4167 11.083V7.58301H16.9167V11.083H20.4167Z" fill="#191919"/>
</svg>
