<svg width="16" height="16" viewBox="0 0 16 16" fill="none" xmlns="http://www.w3.org/2000/svg">
<path d="M1.33334 4.66634V1.33301H4.66668V2.66634H2.66668V4.66634H1.33334ZM1.33334 14.6663V11.333H2.66668V13.333H4.66668V14.6663H1.33334ZM11.3333 14.6663V13.333H13.3333V11.333H14.6667V14.6663H11.3333ZM13.3333 4.66634V2.66634H11.3333V1.33301H14.6667V4.66634H13.3333ZM11.6667 11.6663H12.6667V12.6663H11.6667V11.6663ZM11.6667 9.66634H12.6667V10.6663H11.6667V9.66634ZM10.6667 10.6663H11.6667V11.6663H10.6667V10.6663ZM9.66668 11.6663H10.6667V12.6663H9.66668V11.6663ZM8.66668 10.6663H9.66668V11.6663H8.66668V10.6663ZM10.6667 8.66634H11.6667V9.66634H10.6667V8.66634ZM9.66668 9.66634H10.6667V10.6663H9.66668V9.66634ZM8.66668 8.66634H9.66668V9.66634H8.66668V8.66634ZM12.6667 3.33301V7.33301H8.66668V3.33301H12.6667ZM7.33334 8.66634V12.6663H3.33334V8.66634H7.33334ZM7.33334 3.33301V7.33301H3.33334V3.33301H7.33334ZM6.33334 11.6663V9.66634H4.33334V11.6663H6.33334ZM6.33334 6.33301V4.33301H4.33334V6.33301H6.33334ZM11.6667 6.33301V4.33301H9.66668V6.33301H11.6667Z" fill="#191919"/>
</svg>
