<svg width="28" height="28" viewBox="0 0 28 28" fill="none" xmlns="http://www.w3.org/2000/svg">
<path d="M5.83333 19.8332C5.19167 19.8332 4.64236 19.6047 4.18542 19.1478C3.72847 18.6908 3.5 18.1415 3.5 17.4998V10.4998C3.5 9.85817 3.72847 9.30887 4.18542 8.85192C4.64236 8.39498 5.19167 8.1665 5.83333 8.1665H22.1667C22.8083 8.1665 23.3576 8.39498 23.8146 8.85192C24.2715 9.30887 24.5 9.85817 24.5 10.4998V17.4998C24.5 18.1415 24.2715 18.6908 23.8146 19.1478C23.3576 19.6047 22.8083 19.8332 22.1667 19.8332H5.83333ZM5.83333 17.4998H22.1667V10.4998H5.83333V17.4998Z" fill="black"/>
</svg>
