<svg width="28" height="28" viewBox="0 0 28 28" fill="none" xmlns="http://www.w3.org/2000/svg">
<path d="M5.83333 21C5.19167 21 4.64236 20.7715 4.18542 20.3146C3.72847 19.8576 3.5 19.3083 3.5 18.6667V9.33333C3.5 8.69167 3.72847 8.14236 4.18542 7.68542C4.64236 7.22847 5.19167 7 5.83333 7H22.1667C22.8083 7 23.3576 7.22847 23.8146 7.68542C24.2715 8.14236 24.5 8.69167 24.5 9.33333V18.6667C24.5 19.3083 24.2715 19.8576 23.8146 20.3146C23.3576 20.7715 22.8083 21 22.1667 21H5.83333ZM5.83333 18.6667H22.1667V9.33333H5.83333V18.6667Z" fill="black"/>
</svg>
