<svg width="24" height="24" viewBox="0 0 24 24" fill="none" xmlns="http://www.w3.org/2000/svg">
<path d="M17.9999 22H5.99988C5.44988 22 4.97904 21.8042 4.58738 21.4125C4.19571 21.0208 3.99988 20.55 3.99988 20V4C3.99988 3.45 4.19571 2.97917 4.58738 2.5875C4.97904 2.19583 5.44988 2 5.99988 2H17.9999C18.5499 2 19.0207 2.19583 19.4124 2.5875C19.804 2.97917 19.9999 3.45 19.9999 4V20C19.9999 20.55 19.804 21.0208 19.4124 21.4125C19.0207 21.8042 18.5499 22 17.9999 22ZM5.99988 20H17.9999V4H5.99988V20Z" fill="black"/>
</svg>
