<svg width="16" height="16" viewBox="0 0 16 16" fill="none" xmlns="http://www.w3.org/2000/svg">
<path d="M3.33333 11.3332C2.96667 11.3332 2.65278 11.2026 2.39167 10.9415C2.13056 10.6804 2 10.3665 2 9.99984V5.99984C2 5.63317 2.13056 5.31928 2.39167 5.05817C2.65278 4.79706 2.96667 4.6665 3.33333 4.6665H12.6667C13.0333 4.6665 13.3472 4.79706 13.6083 5.05817C13.8694 5.31928 14 5.63317 14 5.99984V9.99984C14 10.3665 13.8694 10.6804 13.6083 10.9415C13.3472 11.2026 13.0333 11.3332 12.6667 11.3332H3.33333ZM3.33333 9.99984H12.6667V5.99984H3.33333V9.99984Z" fill="black"/>
</svg>
