<svg width="16" height="16" viewBox="0 0 16 16" fill="none" xmlns="http://www.w3.org/2000/svg">
<path d="M3.33333 12C2.96667 12 2.65278 11.8694 2.39167 11.6083C2.13056 11.3472 2 11.0333 2 10.6667V5.33333C2 4.96667 2.13056 4.65278 2.39167 4.39167C2.65278 4.13056 2.96667 4 3.33333 4H12.6667C13.0333 4 13.3472 4.13056 13.6083 4.39167C13.8694 4.65278 14 4.96667 14 5.33333V10.6667C14 11.0333 13.8694 11.3472 13.6083 11.6083C13.3472 11.8694 13.0333 12 12.6667 12H3.33333ZM3.33333 10.6667H12.6667V5.33333H3.33333V10.6667Z" fill="black"/>
</svg>
