<svg width="16" height="16" viewBox="0 0 16 16" fill="none" xmlns="http://www.w3.org/2000/svg">
<path d="M3.33333 12.6668C2.96667 12.6668 2.65278 12.5363 2.39167 12.2752C2.13056 12.0141 2 11.7002 2 11.3335V4.66683C2 4.30016 2.13056 3.98627 2.39167 3.72516C2.65278 3.46405 2.96667 3.3335 3.33333 3.3335H12.6667C13.0333 3.3335 13.3472 3.46405 13.6083 3.72516C13.8694 3.98627 14 4.30016 14 4.66683V11.3335C14 11.7002 13.8694 12.0141 13.6083 12.2752C13.3472 12.5363 13.0333 12.6668 12.6667 12.6668H3.33333ZM3.33333 11.3335H12.6667V4.66683H3.33333V11.3335Z" fill="#1C1B1F"/>
</svg>
