<svg width="16" height="16" viewBox="0 0 16 16" fill="none" xmlns="http://www.w3.org/2000/svg">
<path d="M11.9999 14.6668H3.9999C3.63323 14.6668 3.31934 14.5363 3.05823 14.2752C2.79712 14.0141 2.66656 13.7002 2.66656 13.3335V2.66683C2.66656 2.30016 2.79712 1.98627 3.05823 1.72516C3.31934 1.46405 3.63323 1.3335 3.9999 1.3335H11.9999C12.3666 1.3335 12.6805 1.46405 12.9416 1.72516C13.2027 1.98627 13.3332 2.30016 13.3332 2.66683V13.3335C13.3332 13.7002 13.2027 14.0141 12.9416 14.2752C12.6805 14.5363 12.3666 14.6668 11.9999 14.6668ZM3.9999 13.3335H11.9999V2.66683H3.9999V13.3335Z" fill="black"/>
</svg>
