<svg width="28" height="28" viewBox="0 0 28 28" fill="none" xmlns="http://www.w3.org/2000/svg">
<path d="M20.9998 25.6668H6.99984C6.35817 25.6668 5.80887 25.4384 5.35192 24.9814C4.89498 24.5245 4.6665 23.9752 4.6665 23.3335V4.66683C4.6665 4.02516 4.89498 3.47586 5.35192 3.01891C5.80887 2.56197 6.35817 2.3335 6.99984 2.3335H20.9998C21.6415 2.3335 22.1908 2.56197 22.6478 3.01891C23.1047 3.47586 23.3332 4.02516 23.3332 4.66683V23.3335C23.3332 23.9752 23.1047 24.5245 22.6478 24.9814C22.1908 25.4384 21.6415 25.6668 20.9998 25.6668ZM6.99984 23.3335H20.9998V4.66683H6.99984V23.3335Z" fill="black"/>
</svg>
