<svg width="28" height="28" viewBox="0 0 28 28" fill="none" xmlns="http://www.w3.org/2000/svg">
<path d="M5.83333 22.1668C5.19167 22.1668 4.64236 21.9384 4.18542 21.4814C3.72847 21.0245 3.5 20.4752 3.5 19.8335V8.16683C3.5 7.52516 3.72847 6.97586 4.18542 6.51891C4.64236 6.06197 5.19167 5.8335 5.83333 5.8335H22.1667C22.8083 5.8335 23.3576 6.06197 23.8146 6.51891C24.2715 6.97586 24.5 7.52516 24.5 8.16683V19.8335C24.5 20.4752 24.2715 21.0245 23.8146 21.4814C23.3576 21.9384 22.8083 22.1668 22.1667 22.1668H5.83333ZM5.83333 19.8335H22.1667V8.16683H5.83333V19.8335Z" fill="#1C1B1F"/>
</svg>
