<svg width="16" height="16" viewBox="0 0 16 16" fill="none" xmlns="http://www.w3.org/2000/svg">
<path d="M1.16667 9.16662L3.2929 11.2928C3.68342 11.6834 4.31659 11.6834 4.70711 11.2928L10.5 5.49995C10.7761 5.22381 10.7761 4.7761 10.5 4.49995C10.2239 4.22381 9.77615 4.22381 9.5 4.49995L4 9.99995L2.16667 8.16662C1.89053 7.89048 1.44281 7.89048 1.16667 8.16662C0.890529 8.44276 0.890529 8.89048 1.16667 9.16662Z" fill="black"/>
<path d="M8 9.33329L7 10.3333L7.95957 11.2928C8.35009 11.6834 8.98325 11.6834 9.37378 11.2928L15.1667 5.49995C15.4428 5.22381 15.4428 4.7761 15.1667 4.49995C14.8905 4.22381 14.4428 4.22381 14.1667 4.49995L8.66667 9.99995L8 9.33329Z" fill="black"/>
</svg>
