<svg width="28" height="28" viewBox="0 0 28 28" fill="none" xmlns="http://www.w3.org/2000/svg">
<path d="M2.04167 16.0417L5.76256 19.7626C6.44598 20.446 7.55402 20.446 8.23744 19.7626L18.375 9.62501C18.8583 9.14176 18.8583 8.35826 18.375 7.87501C17.8918 7.39176 17.1082 7.39176 16.625 7.87501L7 17.5L3.79167 14.2917C3.30842 13.8084 2.52492 13.8084 2.04167 14.2917C1.55842 14.7749 1.55842 15.5584 2.04167 16.0417Z" fill="black"/>
<path d="M14 16.3333L12.25 18.0833L13.9292 19.7626C14.6126 20.446 15.7207 20.446 16.4041 19.7626L26.5417 9.62501C27.0249 9.14176 27.0249 8.35826 26.5417 7.87501C26.0584 7.39176 25.2749 7.39176 24.7917 7.87501L15.1667 17.5L14 16.3333Z" fill="black"/>
</svg>
