<svg width="28" height="28" viewBox="0 0 28 28" fill="none" xmlns="http://www.w3.org/2000/svg"><path d="M18.9 11.66666h-7.35q-1.8375 0-3.19375 1.16667T7 15.75q0 1.75 1.35625 2.91667T11.55 19.83333h7.11667q.49583 0 .83125.33542T19.83334 21q0 .49583-.33542.83125t-.83125.33542H11.55q-2.82917 0-4.85625-1.8375T4.66667 15.75q0-2.74167 2.02708-4.57917T11.55 9.33333h7.35l-2.21666-2.21667Q16.3625 6.79583 16.3625 6.3t.32084-.81667q.32083-.32083.81666-.32083t.81667.32083l4.2 4.2q.175.175.24792.37917t.07291.4375q0 .23333-.07291.4375t-.24792.37916l-4.2 4.2q-.32083.32084-.81667.32084t-.81666-.32083q-.32084-.32084-.32084-.81667t.32084-.81667L18.9 11.66666Z" fill="#000"/></svg>