<svg width="16" height="16" viewBox="0 0 16 16" fill="none" xmlns="http://www.w3.org/2000/svg">
  <path
    d="M10.8 6.66666H6.6q-1.05 0-1.825.66667T4 9q0 1 .775 1.66667t1.825.66666h4.06667q.28333 0 .475.19167t.19167.475q0 .28333-.19167.475t-.475.19167H6.6q-1.61667 0-2.775-1.05T2.66667 9q0-1.56667 1.15833-2.61667t2.775-1.05h4.2L9.53334 4.06666Q9.35 3.88333 9.35 3.6t.18334-.46667Q9.71667 2.95 10 2.95t.46667.18333l2.4 2.4q.1.1.14167.21667T13.05 6q0 .13333-.04166.25t-.14167.21666l-2.4 2.4Q10.28334 9.05 10 9.05t-.46666-.18333Q9.35 8.68333 9.35 8.4t.18334-.46667L10.8 6.66666Z"
    fill="#000"/>
</svg>
