<svg width="28" height="28" viewBox="0 0 28 28" fill="none" xmlns="http://www.w3.org/2000/svg">
<path d="M14 23.3337C11.3944 23.3337 9.18751 22.4295 7.37917 20.6212C5.57084 18.8128 4.66667 16.6059 4.66667 14.0003C4.66667 11.3948 5.57084 9.18783 7.37917 7.37949C9.18751 5.57116 11.3944 4.66699 14 4.66699C15.3417 4.66699 16.625 4.94408 17.85 5.49824C19.075 6.05241 20.125 6.84477 21 7.87533V5.83366C21 5.5031 21.1118 5.22602 21.3354 5.00241C21.559 4.7788 21.8361 4.66699 22.1667 4.66699C22.4972 4.66699 22.7743 4.7788 22.9979 5.00241C23.2215 5.22602 23.3333 5.5031 23.3333 5.83366V11.667C23.3333 11.9975 23.2215 12.2746 22.9979 12.4982C22.7743 12.7219 22.4972 12.8337 22.1667 12.8337H16.3333C16.0028 12.8337 15.7257 12.7219 15.5021 12.4982C15.2785 12.2746 15.1667 11.9975 15.1667 11.667C15.1667 11.3364 15.2785 11.0594 15.5021 10.8357C15.7257 10.6121 16.0028 10.5003 16.3333 10.5003H20.0667C19.4445 9.41144 18.5938 8.55588 17.5146 7.93366C16.4354 7.31144 15.2639 7.00033 14 7.00033C12.0556 7.00033 10.4028 7.68088 9.04167 9.04199C7.68056 10.4031 7.00001 12.0559 7.00001 14.0003C7.00001 15.9448 7.68056 17.5975 9.04167 18.9587C10.4028 20.3198 12.0556 21.0003 14 21.0003C15.3222 21.0003 16.5326 20.6649 17.6313 19.9941C18.7299 19.3232 19.5806 18.4239 20.1833 17.2962C20.3389 17.0239 20.5576 16.8344 20.8396 16.7274C21.1215 16.6205 21.4083 16.6156 21.7 16.7128C22.0111 16.81 22.2347 17.0142 22.3708 17.3253C22.507 17.6364 22.4972 17.9281 22.3417 18.2003C21.5445 19.7559 20.407 21.0003 18.9292 21.9337C17.4514 22.867 15.8083 23.3337 14 23.3337Z" fill="#191919"/>
</svg>
