<svg width="16" height="16" viewBox="0 0 16 16" fill="none" xmlns="http://www.w3.org/2000/svg">
<path d="M8 13.3337C6.51111 13.3337 5.25 12.817 4.21667 11.7837C3.18333 10.7503 2.66667 9.48921 2.66667 8.00033C2.66667 6.51144 3.18333 5.25033 4.21667 4.21699C5.25 3.18366 6.51111 2.66699 8 2.66699C8.76667 2.66699 9.5 2.82533 10.2 3.14199C10.9 3.45866 11.5 3.91144 12 4.50033V3.33366C12 3.14477 12.0639 2.98644 12.1917 2.85866C12.3194 2.73088 12.4778 2.66699 12.6667 2.66699C12.8556 2.66699 13.0139 2.73088 13.1417 2.85866C13.2694 2.98644 13.3333 3.14477 13.3333 3.33366V6.66699C13.3333 6.85588 13.2694 7.01421 13.1417 7.14199C13.0139 7.26977 12.8556 7.33366 12.6667 7.33366H9.33333C9.14445 7.33366 8.98611 7.26977 8.85833 7.14199C8.73056 7.01421 8.66667 6.85588 8.66667 6.66699C8.66667 6.4781 8.73056 6.31977 8.85833 6.19199C8.98611 6.06421 9.14445 6.00033 9.33333 6.00033H11.4667C11.1111 5.3781 10.625 4.88921 10.0083 4.53366C9.39167 4.1781 8.72222 4.00033 8 4.00033C6.88889 4.00033 5.94445 4.38921 5.16667 5.16699C4.38889 5.94477 4 6.88921 4 8.00033C4 9.11144 4.38889 10.0559 5.16667 10.8337C5.94445 11.6114 6.88889 12.0003 8 12.0003C8.75556 12.0003 9.44722 11.8087 10.075 11.4253C10.7028 11.042 11.1889 10.5281 11.5333 9.88366C11.6222 9.7281 11.7472 9.61977 11.9083 9.55866C12.0694 9.49755 12.2333 9.49477 12.4 9.55033C12.5778 9.60588 12.7056 9.72255 12.7833 9.90033C12.8611 10.0781 12.8556 10.2448 12.7667 10.4003C12.3111 11.2892 11.6611 12.0003 10.8167 12.5337C9.97222 13.067 9.03333 13.3337 8 13.3337Z" fill="#191919"/>
</svg>
