<svg width="28" height="28" viewBox="0 0 28 28" fill="none" xmlns="http://www.w3.org/2000/svg">
<path fill-rule="evenodd" clip-rule="evenodd" d="M9.44998 24.7481C10.8694 25.3606 12.3861 25.6668 14 25.6668C15.6139 25.6668 17.1305 25.3606 18.55 24.7481C19.9694 24.1356 21.2041 23.3043 22.2541 22.2543C23.3041 21.2043 24.1354 19.9696 24.7479 18.5502C25.3604 17.1307 25.6666 15.6141 25.6666 14.0002C25.6666 12.3863 25.3604 10.8696 24.7479 9.45016C24.1354 8.03072 23.3041 6.796 22.2541 5.746C21.2041 4.696 19.9694 3.86475 18.55 3.25225C17.1305 2.63975 15.6139 2.3335 14 2.3335C12.3861 2.3335 10.8694 2.63975 9.44998 3.25225C8.03054 3.86475 6.79581 4.696 5.74581 5.746C4.69581 6.796 3.86456 8.03072 3.25206 9.45016C2.63956 10.8696 2.33331 12.3863 2.33331 14.0002C2.33331 15.6141 2.63956 17.1307 3.25206 18.5502C3.86456 19.9696 4.69581 21.2043 5.74581 22.2543C6.79581 23.3043 8.03054 24.1356 9.44998 24.7481ZM9.33329 15.1668H18.6666C18.9972 15.1668 19.2743 15.055 19.4979 14.8314C19.7215 14.6078 19.8333 14.3307 19.8333 14.0002C19.8333 13.6696 19.7215 13.3925 19.4979 13.1689C19.2743 12.9453 18.9972 12.8335 18.6666 12.8335H9.33329C9.00274 12.8335 8.72565 12.9453 8.50204 13.1689C8.27843 13.3925 8.16663 13.6696 8.16663 14.0002C8.16663 14.3307 8.27843 14.6078 8.50204 14.8314C8.72565 15.055 9.00274 15.1668 9.33329 15.1668Z" fill="black"/>
</svg>
