<svg width="16" height="16" viewBox="0 0 16 16" fill="none" xmlns="http://www.w3.org/2000/svg">
<path fill-rule="evenodd" clip-rule="evenodd" d="M5.39998 14.1418C6.21109 14.4918 7.07776 14.6668 7.99998 14.6668C8.9222 14.6668 9.78887 14.4918 10.6 14.1418C11.4111 13.7918 12.1166 13.3168 12.7166 12.7168C13.3166 12.1168 13.7916 11.4113 14.1416 10.6002C14.4916 9.78905 14.6666 8.92239 14.6666 8.00016C14.6666 7.07794 14.4916 6.21127 14.1416 5.40016C13.7916 4.58905 13.3166 3.8835 12.7166 3.2835C12.1166 2.6835 11.4111 2.2085 10.6 1.8585C9.78887 1.5085 8.9222 1.3335 7.99998 1.3335C7.07776 1.3335 6.21109 1.5085 5.39998 1.8585C4.58887 2.2085 3.88331 2.6835 3.28331 3.2835C2.68331 3.8835 2.20831 4.58905 1.85831 5.40016C1.50831 6.21127 1.33331 7.07794 1.33331 8.00016C1.33331 8.92239 1.50831 9.78905 1.85831 10.6002C2.20831 11.4113 2.68331 12.1168 3.28331 12.7168C3.88331 13.3168 4.58887 13.7918 5.39998 14.1418ZM5.33329 8.66683H10.6666C10.8555 8.66683 11.0138 8.60294 11.1416 8.47516C11.2694 8.34738 11.3333 8.18905 11.3333 8.00016C11.3333 7.81127 11.2694 7.65294 11.1416 7.52516C11.0138 7.39739 10.8555 7.3335 10.6666 7.3335H5.33329C5.1444 7.3335 4.98607 7.39739 4.85829 7.52516C4.73051 7.65294 4.66663 7.81127 4.66663 8.00016C4.66663 8.18905 4.73051 8.34738 4.85829 8.47516C4.98607 8.60294 5.1444 8.66683 5.33329 8.66683Z" fill="black"/>
</svg>
