<svg width="28" height="28" viewBox="0 0 28 28" fill="none" xmlns="http://www.w3.org/2000/svg">
<path d="M21.9917 18.725L20.2417 16.9166C20.475 16.2944 20.6597 15.6479 20.7958 14.9771C20.9319 14.3062 21 13.6305 21 12.95V7.43747L14 4.81247L9.74165 6.41663L7.93332 4.6083L13.1833 2.65413C13.4555 2.55691 13.7278 2.5083 14 2.5083C14.2722 2.5083 14.5444 2.55691 14.8167 2.65413L21.8167 5.27913C22.2639 5.45413 22.6285 5.73608 22.9104 6.12497C23.1923 6.51386 23.3333 6.95136 23.3333 7.43747V12.95C23.3333 13.9416 23.2215 14.9236 22.9979 15.8958C22.7743 16.868 22.4389 17.8111 21.9917 18.725ZM14 25.55C13.9222 25.55 13.6792 25.5111 13.2708 25.4333C10.6458 24.5583 8.55554 22.9395 6.99998 20.577C5.44443 18.2145 4.66665 15.6722 4.66665 12.95V7.9333L2.44998 5.71663C2.23609 5.50275 2.12915 5.23052 2.12915 4.89997C2.12915 4.56941 2.23609 4.29719 2.44998 4.0833C2.66387 3.86941 2.93609 3.76247 3.26665 3.76247C3.59721 3.76247 3.86943 3.86941 4.08332 4.0833L23.9167 23.9166C24.1305 24.1305 24.2375 24.4027 24.2375 24.7333C24.2375 25.0639 24.1305 25.3361 23.9167 25.55C23.7028 25.7639 23.4305 25.8708 23.1 25.8708C22.7694 25.8708 22.4972 25.7639 22.2833 25.55L19.3083 22.575C18.6667 23.2555 17.9618 23.8291 17.1937 24.2958C16.4257 24.7625 15.6042 25.1416 14.7292 25.4333C14.6125 25.4722 14.4958 25.5014 14.3792 25.5208C14.2625 25.5402 14.1361 25.55 14 25.55ZM14 23.2166C14.6805 23.0027 15.3319 22.7014 15.9542 22.3125C16.5764 21.9236 17.15 21.4666 17.675 20.9416L6.99998 10.2666V12.95C6.99998 15.3027 7.66109 17.4416 8.98332 19.3666C10.3055 21.2916 11.9778 22.575 14 23.2166Z" fill="black"/>
</svg>
