<svg width="24" height="24" viewBox="0 0 24 24" fill="none" xmlns="http://www.w3.org/2000/svg">
<path d="M18.85 16.0499L17.35 14.4999C17.55 13.9666 17.7083 13.4124 17.825 12.8374C17.9417 12.2624 18 11.6832 18 11.0999V6.3749L12 4.1249L8.35001 5.4999L6.80001 3.9499L11.3 2.2749C11.5333 2.19157 11.7667 2.1499 12 2.1499C12.2333 2.1499 12.4667 2.19157 12.7 2.2749L18.7 4.5249C19.0833 4.6749 19.3958 4.91657 19.6375 5.2499C19.8792 5.58324 20 5.95824 20 6.3749V11.0999C20 11.9499 19.9042 12.7916 19.7125 13.6249C19.5208 14.4582 19.2333 15.2666 18.85 16.0499ZM12 21.8999C11.9333 21.8999 11.725 21.8666 11.375 21.7999C9.12501 21.0499 7.33335 19.6624 6.00001 17.6374C4.66668 15.6124 4.00001 13.4332 4.00001 11.0999V6.7999L2.10001 4.8999C1.91668 4.71657 1.82501 4.48324 1.82501 4.1999C1.82501 3.91657 1.91668 3.68324 2.10001 3.4999C2.28335 3.31657 2.51668 3.2249 2.80001 3.2249C3.08335 3.2249 3.31668 3.31657 3.50001 3.4999L20.5 20.4999C20.6833 20.6832 20.775 20.9166 20.775 21.1999C20.775 21.4832 20.6833 21.7166 20.5 21.8999C20.3167 22.0832 20.0833 22.1749 19.8 22.1749C19.5167 22.1749 19.2833 22.0832 19.1 21.8999L16.55 19.3499C16 19.9332 15.3958 20.4249 14.7375 20.8249C14.0792 21.2249 13.375 21.5499 12.625 21.7999C12.525 21.8332 12.425 21.8582 12.325 21.8749C12.225 21.8916 12.1167 21.8999 12 21.8999ZM12 19.8999C12.5833 19.7166 13.1417 19.4582 13.675 19.1249C14.2083 18.7916 14.7 18.3999 15.15 17.9499L6.00001 8.7999V11.0999C6.00001 13.1166 6.56668 14.9499 7.70001 16.5999C8.83335 18.2499 10.2667 19.3499 12 19.8999Z" fill="black"/>
</svg>
