<svg width="16" height="16" viewBox="0 0 16 16" fill="none" xmlns="http://www.w3.org/2000/svg">
<path d="M12.5667 10.6998L11.5667 9.66644C11.7 9.31088 11.8056 8.94144 11.8833 8.55811C11.9611 8.17477 12 7.78866 12 7.39977V4.24977L8.00001 2.74977L5.56668 3.66644L4.53334 2.63311L7.53334 1.51644C7.6889 1.46088 7.84445 1.43311 8.00001 1.43311C8.15556 1.43311 8.31112 1.46088 8.46668 1.51644L12.4667 3.01644C12.7222 3.11644 12.9306 3.27755 13.0917 3.49977C13.2528 3.72199 13.3333 3.97199 13.3333 4.24977V7.39977C13.3333 7.96644 13.2695 8.52755 13.1417 9.08311C13.0139 9.63866 12.8222 10.1775 12.5667 10.6998ZM8.00001 14.5998C7.95556 14.5998 7.81668 14.5775 7.58334 14.5331C6.08334 14.0331 4.8889 13.1081 4.00001 11.7581C3.11112 10.4081 2.66667 8.95533 2.66667 7.39977V4.53311L1.40001 3.26644C1.27779 3.14422 1.21667 2.98866 1.21667 2.79977C1.21667 2.61088 1.27779 2.45533 1.40001 2.33311C1.52223 2.21088 1.67779 2.14977 1.86667 2.14977C2.05556 2.14977 2.21112 2.21088 2.33334 2.33311L13.6667 13.6664C13.7889 13.7887 13.85 13.9442 13.85 14.1331C13.85 14.322 13.7889 14.4775 13.6667 14.5998C13.5445 14.722 13.3889 14.7831 13.2 14.7831C13.0111 14.7831 12.8556 14.722 12.7333 14.5998L11.0333 12.8998C10.6667 13.2887 10.2639 13.6164 9.82501 13.8831C9.38612 14.1498 8.91668 14.3664 8.41668 14.5331C8.35001 14.5553 8.28334 14.572 8.21668 14.5831C8.15001 14.5942 8.07779 14.5998 8.00001 14.5998ZM8.00001 13.2664C8.3889 13.1442 8.76112 12.972 9.11668 12.7498C9.47223 12.5275 9.80001 12.2664 10.1 11.9664L4.00001 5.86644V7.39977C4.00001 8.74422 4.37779 9.96644 5.13334 11.0664C5.8889 12.1664 6.84445 12.8998 8.00001 13.2664Z" fill="black"/>
</svg>
