<svg width="28" height="28" viewBox="0 0 28 28" fill="none" xmlns="http://www.w3.org/2000/svg">
<path d="M7.99167 22.1663L8.98333 23.1579C9.21667 23.3913 9.32847 23.6635 9.31875 23.9746C9.30903 24.2857 9.19722 24.5579 8.98333 24.7913C8.75 25.0246 8.47292 25.1461 8.15208 25.1559C7.83125 25.1656 7.55417 25.0538 7.32083 24.8204L4.31667 21.8163C4.2 21.6996 4.11736 21.5732 4.06875 21.4371C4.02014 21.301 3.99583 21.1552 3.99583 20.9996C3.99583 20.8441 4.02014 20.6982 4.06875 20.5621C4.11736 20.426 4.2 20.2996 4.31667 20.1829L7.32083 17.1788C7.55417 16.9454 7.83125 16.8336 8.15208 16.8434C8.47292 16.8531 8.75 16.9746 8.98333 17.2079C9.19722 17.4413 9.30903 17.7135 9.31875 18.0246C9.32847 18.3357 9.21667 18.6079 8.98333 18.8413L7.99167 19.8329H19.8333V16.3329C19.8333 16.0024 19.9451 15.7253 20.1688 15.5017C20.3924 15.2781 20.6694 15.1663 21 15.1663C21.3306 15.1663 21.6076 15.2781 21.8313 15.5017C22.0549 15.7253 22.1667 16.0024 22.1667 16.3329V19.8329C22.1667 20.4746 21.9382 21.0239 21.4813 21.4809C21.0243 21.9378 20.475 22.1663 19.8333 22.1663H7.99167ZM20.0083 8.16627H8.16667V11.6663C8.16667 11.9968 8.05486 12.2739 7.83125 12.4975C7.60764 12.7211 7.33056 12.8329 7 12.8329C6.66945 12.8329 6.39236 12.7211 6.16875 12.4975C5.94514 12.2739 5.83333 11.9968 5.83333 11.6663V8.16627C5.83333 7.52461 6.06181 6.9753 6.51875 6.51836C6.9757 6.06141 7.525 5.83294 8.16667 5.83294H20.0083L19.0167 4.84127C18.7833 4.60794 18.6715 4.33572 18.6813 4.02461C18.691 3.7135 18.8028 3.44127 19.0167 3.20794C19.25 2.97461 19.5271 2.85308 19.8479 2.84336C20.1688 2.83363 20.4458 2.94544 20.6792 3.17877L23.6833 6.18294C23.8 6.29961 23.8826 6.426 23.9313 6.56211C23.9799 6.69822 24.0042 6.84405 24.0042 6.99961C24.0042 7.15516 23.9799 7.301 23.9313 7.43711C23.8826 7.57322 23.8 7.69961 23.6833 7.81627L20.6792 10.8204C20.4458 11.0538 20.1688 11.1656 19.8479 11.1559C19.5271 11.1461 19.25 11.0246 19.0167 10.7913C18.8028 10.5579 18.691 10.2857 18.6813 9.97461C18.6715 9.6635 18.7833 9.39127 19.0167 9.15794L20.0083 8.16627Z" fill="#191919"/>
</svg>
