<svg width="24" height="24" viewBox="0 0 24 24" fill="none" xmlns="http://www.w3.org/2000/svg">
<path d="M6.85 18.9995L7.7 19.8495C7.9 20.0495 7.99584 20.2829 7.9875 20.5495C7.97917 20.8162 7.88334 21.0495 7.7 21.2495C7.5 21.4495 7.2625 21.5537 6.9875 21.562C6.7125 21.5704 6.475 21.4745 6.275 21.2745L3.7 18.6995C3.6 18.5995 3.52917 18.4912 3.4875 18.3745C3.44584 18.2579 3.425 18.1329 3.425 17.9995C3.425 17.8662 3.44584 17.7412 3.4875 17.6245C3.52917 17.5079 3.6 17.3995 3.7 17.2995L6.275 14.7245C6.475 14.5245 6.7125 14.4287 6.9875 14.437C7.2625 14.4454 7.5 14.5495 7.7 14.7495C7.88334 14.9495 7.97917 15.1829 7.9875 15.4495C7.99584 15.7162 7.9 15.9495 7.7 16.1495L6.85 16.9995H17V13.9995C17 13.7162 17.0958 13.4787 17.2875 13.287C17.4792 13.0954 17.7167 12.9995 18 12.9995C18.2833 12.9995 18.5208 13.0954 18.7125 13.287C18.9042 13.4787 19 13.7162 19 13.9995V16.9995C19 17.5495 18.8042 18.0204 18.4125 18.412C18.0208 18.8037 17.55 18.9995 17 18.9995H6.85ZM17.15 6.99952H7V9.99952C7 10.2829 6.90417 10.5204 6.7125 10.712C6.52084 10.9037 6.28334 10.9995 6 10.9995C5.71667 10.9995 5.47917 10.9037 5.2875 10.712C5.09584 10.5204 5 10.2829 5 9.99952V6.99952C5 6.44952 5.19584 5.97869 5.5875 5.58702C5.97917 5.19536 6.45 4.99952 7 4.99952H17.15L16.3 4.14952C16.1 3.94952 16.0042 3.71619 16.0125 3.44952C16.0208 3.18286 16.1167 2.94952 16.3 2.74952C16.5 2.54952 16.7375 2.44536 17.0125 2.43702C17.2875 2.42869 17.525 2.52452 17.725 2.72452L20.3 5.29952C20.4 5.39952 20.4708 5.50786 20.5125 5.62452C20.5542 5.74119 20.575 5.86619 20.575 5.99952C20.575 6.13286 20.5542 6.25786 20.5125 6.37452C20.4708 6.49119 20.4 6.59952 20.3 6.69952L17.725 9.27452C17.525 9.47452 17.2875 9.57036 17.0125 9.56202C16.7375 9.55369 16.5 9.44952 16.3 9.24952C16.1167 9.04952 16.0208 8.81619 16.0125 8.54952C16.0042 8.28286 16.1 8.04952 16.3 7.84952L17.15 6.99952Z" fill="#191919"/>
</svg>
