<svg width="16" height="16" viewBox="0 0 16 16" fill="none" xmlns="http://www.w3.org/2000/svg">
<path d="M4.56667 12.667L5.13333 13.2337C5.26667 13.367 5.33056 13.5226 5.325 13.7003C5.31944 13.8781 5.25556 14.0337 5.13333 14.167C5 14.3003 4.84167 14.3698 4.65833 14.3753C4.475 14.3809 4.31667 14.317 4.18333 14.1837L2.46667 12.467C2.4 12.4003 2.35278 12.3281 2.325 12.2503C2.29722 12.1726 2.28333 12.0892 2.28333 12.0003C2.28333 11.9114 2.29722 11.8281 2.325 11.7503C2.35278 11.6726 2.4 11.6003 2.46667 11.5337L4.18333 9.817C4.31667 9.68367 4.475 9.61978 4.65833 9.62533C4.84167 9.63089 5 9.70033 5.13333 9.83367C5.25556 9.967 5.31944 10.1226 5.325 10.3003C5.33056 10.4781 5.26667 10.6337 5.13333 10.767L4.56667 11.3337H11.3333V9.33367C11.3333 9.14478 11.3972 8.98644 11.525 8.85867C11.6528 8.73089 11.8111 8.667 12 8.667C12.1889 8.667 12.3472 8.73089 12.475 8.85867C12.6028 8.98644 12.6667 9.14478 12.6667 9.33367V11.3337C12.6667 11.7003 12.5361 12.0142 12.275 12.2753C12.0139 12.5364 11.7 12.667 11.3333 12.667H4.56667ZM11.4333 4.667H4.66667V6.667C4.66667 6.85589 4.60278 7.01422 4.475 7.142C4.34722 7.26978 4.18889 7.33367 4 7.33367C3.81111 7.33367 3.65278 7.26978 3.525 7.142C3.39722 7.01422 3.33333 6.85589 3.33333 6.667V4.667C3.33333 4.30033 3.46389 3.98644 3.725 3.72533C3.98611 3.46422 4.3 3.33367 4.66667 3.33367H11.4333L10.8667 2.767C10.7333 2.63367 10.6694 2.47811 10.675 2.30033C10.6806 2.12256 10.7444 1.967 10.8667 1.83367C11 1.70033 11.1583 1.63089 11.3417 1.62533C11.525 1.61978 11.6833 1.68367 11.8167 1.817L13.5333 3.53367C13.6 3.60033 13.6472 3.67256 13.675 3.75033C13.7028 3.82811 13.7167 3.91144 13.7167 4.00033C13.7167 4.08922 13.7028 4.17256 13.675 4.25033C13.6472 4.32811 13.6 4.40033 13.5333 4.467L11.8167 6.18367C11.6833 6.317 11.525 6.38089 11.3417 6.37533C11.1583 6.36978 11 6.30033 10.8667 6.167C10.7444 6.03367 10.6806 5.87811 10.675 5.70033C10.6694 5.52256 10.7333 5.367 10.8667 5.23367L11.4333 4.667Z" fill="#191919"/>
</svg>
