<svg width="16" height="16" viewBox="0 0 16 16" fill="none" xmlns="http://www.w3.org/2000/svg">
<path d="M6.66665 9.66993L6.66665 12.1154L2.55227 8.00284L6.66665 3.88659V6.33661H7.99998C11.0779 6.33661 13.6145 8.65419 13.9599 11.6395C12.2959 10.4028 10.2327 9.66995 7.99999 9.66994L6.66665 9.66993ZM9.33332 11.1052C11.1982 11.3932 12.8668 12.2756 14.1394 13.5529C14.5246 13.9395 15.206 13.8097 15.2747 13.2683C15.3134 12.9632 15.3333 12.6522 15.3333 12.3366C15.3333 8.28652 12.0501 5.00327 7.99998 5.00327V3.08159C7.99998 2.19058 6.92261 1.74446 6.29271 2.37465L1.60924 7.06025C1.08866 7.58107 1.08885 8.42528 1.60967 8.94587L6.29304 13.6271C6.92307 14.2568 7.99998 13.8106 7.99998 12.9198L7.99998 11.0033H8.00232C8.45493 11.0034 8.89943 11.0382 9.33332 11.1052Z" fill="black"/>
</svg>
