<svg width="28" height="28" viewBox="0 0 28 28" fill="none" xmlns="http://www.w3.org/2000/svg">
<path d="M11.6666 16.9225L11.6666 21.202L4.46645 14.0051L11.6666 6.80166V11.0892H14C19.3863 11.0892 23.8253 15.1449 24.4298 20.3692C21.5179 18.2051 17.9073 16.9225 14 16.9225L11.6666 16.9225ZM16.3333 19.4342C19.5968 19.9382 22.5169 21.4825 24.7439 23.7177C25.4181 24.3943 26.6106 24.1672 26.7307 23.2197C26.7984 22.6857 26.8333 22.1415 26.8333 21.5892C26.8333 14.5015 21.0876 8.75585 14 8.75585V5.39291C14 3.83364 12.1146 3.05293 11.0122 4.15576L2.81616 12.3556C1.90514 13.267 1.90548 14.7444 2.81691 15.6554L11.0128 23.8475C12.1154 24.9496 14 24.1687 14 22.6098L14 19.2558H14.004C14.7961 19.2561 15.574 19.317 16.3333 19.4342Z" fill="black"/>
</svg>
