<svg width="24" height="24" viewBox="0 0 24 24" fill="none" xmlns="http://www.w3.org/2000/svg">
<path d="M9.99994 14.5049L9.99994 18.173L3.82837 12.0043L9.99994 5.82989V9.50491H11.9999C16.6168 9.50491 20.4217 12.9813 20.9398 17.4592C18.4439 15.6043 15.3491 14.5049 12 14.5049L9.99994 14.5049ZM13.9999 16.6578C16.7972 17.0898 19.3001 18.4135 21.2091 20.3294C21.7869 20.9093 22.809 20.7146 22.912 19.9025C22.97 19.4448 22.9999 18.9783 22.9999 18.5049C22.9999 12.4298 18.0751 7.50491 11.9999 7.50491V4.62239C11.9999 3.28587 10.3839 2.61669 9.43904 3.56197L2.41383 10.5904C1.63296 11.3716 1.63325 12.6379 2.41448 13.4188L9.43952 20.4407C10.3846 21.3853 11.9999 20.7159 11.9999 19.3798L11.9999 16.5049H12.0034C12.6824 16.5051 13.3491 16.5573 13.9999 16.6578Z" fill="black"/>
</svg>
