<svg width="16" height="16" viewBox="0 0 16 16" fill="none" xmlns="http://www.w3.org/2000/svg">
<path d="M6.05 14C5.87222 14 5.70267 13.9667 5.54133 13.9C5.38044 13.8333 5.23889 13.7389 5.11667 13.6167L2.38333 10.8833C2.26111 10.7611 2.16667 10.6196 2.1 10.4587C2.03333 10.2973 2 10.1278 2 9.95V6.05C2 5.87222 2.03333 5.70267 2.1 5.54133C2.16667 5.38044 2.26111 5.23889 2.38333 5.11667L5.11667 2.38333C5.23889 2.26111 5.38044 2.16667 5.54133 2.1C5.70267 2.03333 5.87222 2 6.05 2H9.95C10.1278 2 10.2973 2.03333 10.4587 2.1C10.6196 2.16667 10.7611 2.26111 10.8833 2.38333L13.6167 5.11667C13.7389 5.23889 13.8333 5.38044 13.9 5.54133C13.9667 5.70267 14 5.87222 14 6.05V9.95C14 10.1278 13.9667 10.2973 13.9 10.4587C13.8333 10.6196 13.7389 10.7611 13.6167 10.8833L10.8833 13.6167C10.7611 13.7389 10.6196 13.8333 10.4587 13.9C10.2973 13.9667 10.1278 14 9.95 14H6.05ZM8 11.3333C8.18889 11.3333 8.34733 11.2693 8.47533 11.1413C8.60289 11.0138 8.66667 10.8556 8.66667 10.6667C8.66667 10.4778 8.60289 10.3193 8.47533 10.1913C8.34733 10.0638 8.18889 10 8 10C7.81111 10 7.65289 10.0638 7.52533 10.1913C7.39733 10.3193 7.33333 10.4778 7.33333 10.6667C7.33333 10.8556 7.39733 11.0138 7.52533 11.1413C7.65289 11.2693 7.81111 11.3333 8 11.3333ZM8 8.66667C8.18889 8.66667 8.34733 8.60267 8.47533 8.47467C8.60289 8.34711 8.66667 8.18889 8.66667 8V5.33333C8.66667 5.14444 8.60289 4.986 8.47533 4.858C8.34733 4.73044 8.18889 4.66667 8 4.66667C7.81111 4.66667 7.65289 4.73044 7.52533 4.858C7.39733 4.986 7.33333 5.14444 7.33333 5.33333V8C7.33333 8.18889 7.39733 8.34711 7.52533 8.47467C7.65289 8.60267 7.81111 8.66667 8 8.66667Z" fill="black"/>
</svg>
