<svg width="16" height="16" viewBox="0 0 16 16" fill="none" xmlns="http://www.w3.org/2000/svg">
<path d="M3.99998 14.0001C3.81109 14.0001 3.65276 13.9362 3.52498 13.8084C3.3972 13.6806 3.33331 13.5223 3.33331 13.3334V3.33341C3.33331 3.14453 3.3972 2.98619 3.52498 2.85841C3.65276 2.73064 3.81109 2.66675 3.99998 2.66675H8.78331C8.93887 2.66675 9.07776 2.71675 9.19998 2.81675C9.3222 2.91675 9.39998 3.04453 9.43331 3.20008L9.59998 4.00008H12.6666C12.8555 4.00008 13.0139 4.06397 13.1416 4.19175C13.2694 4.31953 13.3333 4.47786 13.3333 4.66675V10.0001C13.3333 10.189 13.2694 10.3473 13.1416 10.4751C13.0139 10.6029 12.8555 10.6667 12.6666 10.6667H9.21665C9.06109 10.6667 8.9222 10.6167 8.79998 10.5167C8.67776 10.4167 8.59998 10.289 8.56665 10.1334L8.39998 9.33341H4.66665V13.3334C4.66665 13.5223 4.60276 13.6806 4.47498 13.8084C4.3472 13.9362 4.18887 14.0001 3.99998 14.0001ZM9.76665 9.33341H12V5.33341H8.49998L8.23331 4.00008H4.66665V8.00008H9.49998L9.76665 9.33341Z" fill="black"/>
</svg>
