<svg width="24" height="24" viewBox="0 0 24 24" fill="none" xmlns="http://www.w3.org/2000/svg">
<path d="M9.075 21C8.80833 21 8.554 20.95 8.312 20.85C8.07067 20.75 7.85833 20.6083 7.675 20.425L3.575 16.325C3.39167 16.1417 3.25 15.9293 3.15 15.688C3.05 15.446 3 15.1917 3 14.925V9.075C3 8.80833 3.05 8.554 3.15 8.312C3.25 8.07067 3.39167 7.85833 3.575 7.675L7.675 3.575C7.85833 3.39167 8.07067 3.25 8.312 3.15C8.554 3.05 8.80833 3 9.075 3H14.925C15.1917 3 15.446 3.05 15.688 3.15C15.9293 3.25 16.1417 3.39167 16.325 3.575L20.425 7.675C20.6083 7.85833 20.75 8.07067 20.85 8.312C20.95 8.554 21 8.80833 21 9.075V14.925C21 15.1917 20.95 15.446 20.85 15.688C20.75 15.9293 20.6083 16.1417 20.425 16.325L16.325 20.425C16.1417 20.6083 15.9293 20.75 15.688 20.85C15.446 20.95 15.1917 21 14.925 21H9.075ZM12 17C12.2833 17 12.521 16.904 12.713 16.712C12.9043 16.5207 13 16.2833 13 16C13 15.7167 12.9043 15.479 12.713 15.287C12.521 15.0957 12.2833 15 12 15C11.7167 15 11.4793 15.0957 11.288 15.287C11.096 15.479 11 15.7167 11 16C11 16.2833 11.096 16.5207 11.288 16.712C11.4793 16.904 11.7167 17 12 17ZM12 13C12.2833 13 12.521 12.904 12.713 12.712C12.9043 12.5207 13 12.2833 13 12V8C13 7.71667 12.9043 7.479 12.713 7.287C12.521 7.09567 12.2833 7 12 7C11.7167 7 11.4793 7.09567 11.288 7.287C11.096 7.479 11 7.71667 11 8V12C11 12.2833 11.096 12.5207 11.288 12.712C11.4793 12.904 11.7167 13 12 13Z" fill="black"/>
</svg>
