<svg width="28" height="28" viewBox="0 0 28 28" fill="none" xmlns="http://www.w3.org/2000/svg">
<path d="M6.99998 24.5001C6.66942 24.5001 6.39234 24.3883 6.16873 24.1647C5.94512 23.9411 5.83331 23.664 5.83331 23.3334V5.83341C5.83331 5.50286 5.94512 5.22578 6.16873 5.00216C6.39234 4.77855 6.66942 4.66675 6.99998 4.66675H15.3708C15.643 4.66675 15.8861 4.75425 16.1 4.92925C16.3139 5.10425 16.45 5.32786 16.5083 5.60008L16.8 7.00008H22.1666C22.4972 7.00008 22.7743 7.11189 22.9979 7.3355C23.2215 7.55911 23.3333 7.83619 23.3333 8.16675V17.5001C23.3333 17.8306 23.2215 18.1077 22.9979 18.3313C22.7743 18.5549 22.4972 18.6667 22.1666 18.6667H16.1291C15.8569 18.6667 15.6139 18.5792 15.4 18.4042C15.1861 18.2292 15.05 18.0056 14.9916 17.7334L14.7 16.3334H8.16665V23.3334C8.16665 23.664 8.05484 23.9411 7.83123 24.1647C7.60762 24.3883 7.33054 24.5001 6.99998 24.5001ZM17.0916 16.3334H21V9.33342H14.875L14.4083 7.00008H8.16665V14.0001H16.625L17.0916 16.3334Z" fill="black"/>
</svg>
