<svg width="28" height="28" viewBox="0 0 28 28" fill="none" xmlns="http://www.w3.org/2000/svg">
<path d="M4.66663 6.41667C4.66663 5.45017 5.45013 4.66667 6.41663 4.66667H12.25C13.2165 4.66667 14 5.45017 14 6.41667C14 7.38317 13.2165 8.16667 12.25 8.16667H6.41663C5.45013 8.16667 4.66663 7.38317 4.66663 6.41667Z" fill="black"/>
<path d="M4.66663 21.5833C4.66663 20.6168 5.45013 19.8333 6.41663 19.8333H9.91663C10.8831 19.8333 11.6666 20.6168 11.6666 21.5833C11.6666 22.5498 10.8831 23.3333 9.91663 23.3333H6.41663C5.45013 23.3333 4.66663 22.5498 4.66663 21.5833Z" fill="black"/>
<path d="M9.33329 14C9.33329 13.0335 10.1168 12.25 11.0833 12.25H21.5833C22.5498 12.25 23.3333 13.0335 23.3333 14C23.3333 14.9665 22.5498 15.75 21.5833 15.75H11.0833C10.1168 15.75 9.33329 14.9665 9.33329 14Z" fill="black"/>
</svg>
