<svg width="24" height="24" viewBox="0 0 24 24" fill="none" xmlns="http://www.w3.org/2000/svg">
<path d="M4 5.5C4 4.67157 4.67157 4 5.5 4H10.5C11.3284 4 12 4.67157 12 5.5C12 6.32843 11.3284 7 10.5 7H5.5C4.67157 7 4 6.32843 4 5.5Z" fill="black"/>
<path d="M4 18.5C4 17.6716 4.67157 17 5.5 17H8.5C9.32843 17 10 17.6716 10 18.5C10 19.3284 9.32843 20 8.5 20H5.5C4.67157 20 4 19.3284 4 18.5Z" fill="black"/>
<path d="M8 12C8 11.1716 8.67157 10.5 9.5 10.5H18.5C19.3284 10.5 20 11.1716 20 12C20 12.8284 19.3284 13.5 18.5 13.5H9.5C8.67157 13.5 8 12.8284 8 12Z" fill="black"/>
</svg>
