<svg width="16" height="16" viewBox="0 0 16 16" fill="none" xmlns="http://www.w3.org/2000/svg">
<path d="M2.66663 3.66667C2.66663 3.11439 3.11434 2.66667 3.66663 2.66667H6.99996C7.55224 2.66667 7.99996 3.11439 7.99996 3.66667C7.99996 4.21896 7.55224 4.66667 6.99996 4.66667H3.66663C3.11434 4.66667 2.66663 4.21896 2.66663 3.66667Z" fill="black"/>
<path d="M2.66663 12.3333C2.66663 11.7811 3.11434 11.3333 3.66663 11.3333H5.66663C6.21891 11.3333 6.66663 11.7811 6.66663 12.3333C6.66663 12.8856 6.21891 13.3333 5.66663 13.3333H3.66663C3.11434 13.3333 2.66663 12.8856 2.66663 12.3333Z" fill="black"/>
<path d="M5.33329 8.00001C5.33329 7.44772 5.78101 7.00001 6.33329 7.00001H12.3333C12.8856 7.00001 13.3333 7.44772 13.3333 8.00001C13.3333 8.55229 12.8856 9.00001 12.3333 9.00001H6.33329C5.78101 9.00001 5.33329 8.55229 5.33329 8.00001Z" fill="black"/>
</svg>
