<svg width="16" height="16" viewBox="0 0 16 16" fill="none" xmlns="http://www.w3.org/2000/svg">
<path d="M4.7332 7.5668C4.88876 7.25569 5.04987 6.95569 5.21653 6.6668C5.3832 6.37791 5.56653 6.08902 5.76653 5.80014L4.8332 5.6168L3.4332 7.0168L4.7332 7.5668ZM12.7665 2.98347C11.9888 3.00569 11.1582 3.23347 10.2749 3.6668C9.39153 4.10014 8.58876 4.67791 7.86653 5.40014C7.39987 5.8668 6.9832 6.3668 6.61653 6.90013C6.24987 7.43347 5.97765 7.93347 5.79987 8.40013L7.69987 10.2835C8.16653 10.1057 8.66653 9.83347 9.19987 9.4668C9.7332 9.10013 10.2332 8.68347 10.6999 8.2168C11.4221 7.49458 11.9999 6.69458 12.4332 5.8168C12.8665 4.93902 13.0943 4.11125 13.1165 3.33347C13.1165 3.28902 13.1082 3.24458 13.0915 3.20014C13.0749 3.15569 13.0499 3.1168 13.0165 3.08347C12.9832 3.05014 12.9443 3.02514 12.8999 3.00847C12.8554 2.9918 12.811 2.98347 12.7665 2.98347ZM9.09987 6.98347C8.84431 6.72791 8.71653 6.41402 8.71653 6.0418C8.71653 5.66958 8.84431 5.35569 9.09987 5.10014C9.35542 4.84458 9.67209 4.7168 10.0499 4.7168C10.4276 4.7168 10.7443 4.84458 10.9999 5.10014C11.2554 5.35569 11.3832 5.66958 11.3832 6.0418C11.3832 6.41402 11.2554 6.72791 10.9999 6.98347C10.7443 7.23902 10.4276 7.3668 10.0499 7.3668C9.67209 7.3668 9.35542 7.23902 9.09987 6.98347ZM8.5332 11.3501L9.0832 12.6668L10.4832 11.2668L10.2999 10.3335C10.011 10.5335 9.72209 10.714 9.4332 10.8751C9.14431 11.0362 8.84431 11.1946 8.5332 11.3501ZM14.3832 2.45014C14.4721 3.67236 14.2721 4.86402 13.7832 6.02514C13.2943 7.18625 12.5221 8.29458 11.4665 9.35013L11.7999 11.0001C11.8443 11.2224 11.8332 11.439 11.7665 11.6501C11.6999 11.8612 11.5888 12.0446 11.4332 12.2001L9.3332 14.3001C9.16653 14.4668 8.96653 14.5307 8.7332 14.4918C8.49987 14.4529 8.33876 14.3224 8.24987 14.1001L7.2332 11.7168L4.3832 8.8668L1.99987 7.85013C1.77765 7.76125 1.64431 7.60013 1.59987 7.3668C1.55542 7.13347 1.61654 6.93347 1.7832 6.7668L3.8832 4.6668C4.03876 4.51125 4.22487 4.40014 4.44154 4.33347C4.6582 4.2668 4.87765 4.25569 5.09987 4.30014L6.74987 4.63347C7.80542 3.57791 8.91376 2.80569 10.0749 2.3168C11.236 1.82791 12.4276 1.62791 13.6499 1.7168C13.7388 1.72791 13.8276 1.75291 13.9165 1.7918C14.0054 1.83069 14.0832 1.88347 14.1499 1.95014C14.2165 2.0168 14.2693 2.09458 14.3082 2.18347C14.3471 2.27236 14.3721 2.36125 14.3832 2.45014ZM2.61654 10.6501C3.00542 10.2612 3.48042 10.064 4.04154 10.0585C4.60265 10.0529 5.07765 10.2446 5.46653 10.6335C5.85542 11.0224 6.04709 11.4974 6.04153 12.0585C6.03598 12.6196 5.83876 13.0946 5.44987 13.4835C4.91653 14.0168 4.28598 14.3335 3.5582 14.4335C2.83042 14.5335 2.09987 14.6335 1.36654 14.7335C1.46654 14.0001 1.56654 13.2696 1.66654 12.5418C1.76654 11.814 2.0832 11.1835 2.61654 10.6501ZM3.56654 11.5835C3.37765 11.7724 3.24709 12.0001 3.17487 12.2668C3.10265 12.5335 3.04431 12.8057 2.99987 13.0835C3.27765 13.039 3.54987 12.9835 3.81654 12.9168C4.0832 12.8501 4.31098 12.7224 4.49987 12.5335C4.6332 12.4001 4.70542 12.239 4.71653 12.0501C4.72765 11.8612 4.66653 11.7001 4.5332 11.5668C4.39987 11.4335 4.23876 11.3696 4.04987 11.3751C3.86098 11.3807 3.69987 11.4501 3.56654 11.5835Z" fill="#191919"/>
</svg>
