<svg width="28" height="28" viewBox="0 0 28 28" fill="none" xmlns="http://www.w3.org/2000/svg">
<path d="M8.2831 13.2412C8.55532 12.6967 8.83727 12.1717 9.12893 11.6662C9.4206 11.1606 9.74143 10.6551 10.0914 10.1495L8.4581 9.82867L6.0081 12.2787L8.2831 13.2412ZM22.3414 5.22034C20.9803 5.25923 19.5268 5.65784 17.981 6.41617C16.4352 7.1745 15.0303 8.18562 13.7664 9.4495C12.9498 10.2662 12.2206 11.1412 11.5789 12.0745C10.9373 13.0078 10.4609 13.8828 10.1498 14.6995L13.4748 17.9953C14.2914 17.6842 15.1664 17.2078 16.0998 16.5662C17.0331 15.9245 17.9081 15.1953 18.7248 14.3787C19.9887 13.1148 20.9998 11.7148 21.7581 10.1787C22.5164 8.64256 22.915 7.19395 22.9539 5.83284C22.9539 5.75506 22.9393 5.67728 22.9102 5.5995C22.881 5.52173 22.8373 5.45367 22.7789 5.39534C22.7206 5.337 22.6525 5.29325 22.5748 5.26409C22.497 5.23492 22.4192 5.22034 22.3414 5.22034ZM15.9248 12.2203C15.4775 11.7731 15.2539 11.2238 15.2539 10.5724C15.2539 9.92103 15.4775 9.37173 15.9248 8.9245C16.372 8.47728 16.9262 8.25367 17.5873 8.25367C18.2484 8.25367 18.8025 8.47728 19.2498 8.9245C19.697 9.37173 19.9206 9.92103 19.9206 10.5724C19.9206 11.2238 19.697 11.7731 19.2498 12.2203C18.8025 12.6676 18.2484 12.8912 17.5873 12.8912C16.9262 12.8912 16.372 12.6676 15.9248 12.2203ZM14.9331 19.862L15.8956 22.1662L18.3456 19.7162L18.0248 18.0828C17.5192 18.4328 17.0137 18.7488 16.5081 19.0308C16.0025 19.3127 15.4775 19.5898 14.9331 19.862ZM25.1706 4.287C25.3262 6.42589 24.9762 8.51131 24.1206 10.5433C23.265 12.5752 21.9137 14.5148 20.0664 16.362L20.6498 19.2495C20.7275 19.6384 20.7081 20.0176 20.5914 20.387C20.4748 20.7564 20.2803 21.0773 20.0081 21.3495L16.3331 25.0245C16.0414 25.3162 15.6914 25.428 15.2831 25.3599C14.8748 25.2919 14.5928 25.0634 14.4373 24.6745L12.6581 20.5037L7.6706 15.5162L3.49977 13.737C3.11088 13.5814 2.87754 13.2995 2.79977 12.8912C2.72199 12.4828 2.82893 12.1328 3.1206 11.8412L6.7956 8.16617C7.06782 7.89395 7.39352 7.6995 7.77268 7.58284C8.15185 7.46617 8.53588 7.44673 8.92477 7.5245L11.8123 8.10784C13.6595 6.26062 15.5991 4.90923 17.631 4.05367C19.663 3.19812 21.7484 2.84812 23.8873 3.00367C24.0428 3.02312 24.1984 3.06687 24.3539 3.13492C24.5095 3.20298 24.6456 3.29534 24.7623 3.412C24.8789 3.52867 24.9713 3.66478 25.0393 3.82034C25.1074 3.97589 25.1512 4.13145 25.1706 4.287ZM4.57893 18.637C5.25949 17.9564 6.09074 17.6113 7.07268 17.6016C8.05463 17.5919 8.88588 17.9273 9.56643 18.6078C10.247 19.2884 10.5824 20.1196 10.5727 21.1016C10.563 22.0835 10.2178 22.9148 9.53727 23.5953C8.60393 24.5287 7.50046 25.0828 6.22685 25.2578C4.95324 25.4328 3.67477 25.6078 2.39143 25.7828C2.56643 24.4995 2.74143 23.221 2.91643 21.9474C3.09143 20.6738 3.6456 19.5703 4.57893 18.637ZM6.24143 20.2703C5.91088 20.6009 5.68241 20.9995 5.55602 21.4662C5.42963 21.9328 5.32754 22.4092 5.24977 22.8953C5.73588 22.8176 6.21227 22.7203 6.67893 22.6037C7.1456 22.487 7.54421 22.2634 7.87477 21.9328C8.1081 21.6995 8.23449 21.4176 8.25393 21.087C8.27338 20.7564 8.16643 20.4745 7.9331 20.2412C7.69977 20.0078 7.41782 19.896 7.08727 19.9058C6.75671 19.9155 6.47477 20.037 6.24143 20.2703Z" fill="#191919"/>
</svg>
