<svg width="24" height="24" viewBox="0 0 24 24" fill="none" xmlns="http://www.w3.org/2000/svg">
<path d="M7.0998 11.3497C7.33314 10.883 7.5748 10.433 7.8248 9.99971C8.0748 9.56638 8.3498 9.13305 8.6498 8.69971L7.2498 8.42471L5.1498 10.5247L7.0998 11.3497ZM19.1498 4.47471C17.9831 4.50805 16.7373 4.84971 15.4123 5.49971C14.0873 6.14971 12.8831 7.01638 11.7998 8.09971C11.0998 8.79971 10.4748 9.54971 9.9248 10.3497C9.3748 11.1497 8.96647 11.8997 8.6998 12.5997L11.5498 15.4247C12.2498 15.158 12.9998 14.7497 13.7998 14.1997C14.5998 13.6497 15.3498 13.0247 16.0498 12.3247C17.1331 11.2414 17.9998 10.0414 18.6498 8.72471C19.2998 7.40805 19.6415 6.16638 19.6748 4.99971C19.6748 4.93305 19.6623 4.86638 19.6373 4.79971C19.6123 4.73305 19.5748 4.67471 19.5248 4.62471C19.4748 4.57471 19.4165 4.53721 19.3498 4.51221C19.2831 4.48721 19.2165 4.47471 19.1498 4.47471ZM13.6498 10.4747C13.2665 10.0914 13.0748 9.62055 13.0748 9.06221C13.0748 8.50388 13.2665 8.03305 13.6498 7.64971C14.0331 7.26638 14.5081 7.07471 15.0748 7.07471C15.6415 7.07471 16.1165 7.26638 16.4998 7.64971C16.8831 8.03305 17.0748 8.50388 17.0748 9.06221C17.0748 9.62055 16.8831 10.0914 16.4998 10.4747C16.1165 10.858 15.6415 11.0497 15.0748 11.0497C14.5081 11.0497 14.0331 10.858 13.6498 10.4747ZM12.7998 17.0247L13.6248 18.9997L15.7248 16.8997L15.4498 15.4997C15.0165 15.7997 14.5831 16.0705 14.1498 16.3122C13.7165 16.5539 13.2665 16.7914 12.7998 17.0247ZM21.5748 3.67471C21.7081 5.50805 21.4081 7.29555 20.6748 9.03721C19.9415 10.7789 18.7831 12.4414 17.1998 14.0247L17.6998 16.4997C17.7665 16.833 17.7498 17.158 17.6498 17.4747C17.5498 17.7914 17.3831 18.0664 17.1498 18.2997L13.9998 21.4497C13.7498 21.6997 13.4498 21.7955 13.0998 21.7372C12.7498 21.6789 12.5081 21.483 12.3748 21.1497L10.8498 17.5747L6.5748 13.2997L2.9998 11.7747C2.66647 11.6414 2.46647 11.3997 2.3998 11.0497C2.33314 10.6997 2.4248 10.3997 2.6748 10.1497L5.8248 6.99971C6.05814 6.76638 6.3373 6.59971 6.6623 6.49971C6.9873 6.39971 7.31647 6.38305 7.6498 6.44971L10.1248 6.94971C11.7081 5.36638 13.3706 4.20805 15.1123 3.47471C16.854 2.74138 18.6415 2.44138 20.4748 2.57471C20.6081 2.59138 20.7415 2.62888 20.8748 2.68721C21.0081 2.74555 21.1248 2.82471 21.2248 2.92471C21.3248 3.02471 21.404 3.14138 21.4623 3.27471C21.5206 3.40805 21.5581 3.54138 21.5748 3.67471ZM3.9248 15.9747C4.50814 15.3914 5.22064 15.0955 6.0623 15.0872C6.90397 15.0789 7.61647 15.3664 8.1998 15.9497C8.78314 16.533 9.07064 17.2455 9.0623 18.0872C9.05397 18.9289 8.75814 19.6414 8.1748 20.2247C7.3748 21.0247 6.42897 21.4997 5.3373 21.6497C4.24564 21.7997 3.1498 21.9497 2.0498 22.0997C2.1998 20.9997 2.3498 19.9039 2.4998 18.8122C2.6498 17.7205 3.1248 16.7747 3.9248 15.9747ZM5.3498 17.3747C5.06647 17.658 4.87064 17.9997 4.7623 18.3997C4.65397 18.7997 4.56647 19.208 4.4998 19.6247C4.91647 19.558 5.3248 19.4747 5.7248 19.3747C6.1248 19.2747 6.46647 19.083 6.7498 18.7997C6.9498 18.5997 7.05814 18.358 7.0748 18.0747C7.09147 17.7914 6.9998 17.5497 6.7998 17.3497C6.5998 17.1497 6.35814 17.0539 6.0748 17.0622C5.79147 17.0705 5.5498 17.1747 5.3498 17.3747Z" fill="#191919"/>
</svg>
