<svg width="24" height="24" viewBox="0 0 24 24" fill="none" xmlns="http://www.w3.org/2000/svg">
<path d="M13 21.9998C12.3833 21.9998 11.7792 21.9373 11.1875 21.8123C10.5958 21.6873 10.0167 21.5081 9.44999 21.2748C9.19999 21.1748 9.03332 20.9956 8.94999 20.7373C8.86665 20.479 8.87499 20.2248 8.97499 19.9748C9.07499 19.7248 9.24999 19.5456 9.49999 19.4373C9.74999 19.329 9.99999 19.3331 10.25 19.4498C10.6833 19.6331 11.1292 19.7706 11.5875 19.8623C12.0458 19.954 12.5167 19.9998 13 19.9998C14.95 19.9998 16.6042 19.3206 17.9625 17.9623C19.3208 16.604 20 14.9498 20 12.9998C20 11.0498 19.3167 9.39564 17.95 8.0373C16.5833 6.67897 14.925 5.9998 12.975 5.9998H12.8L13.7 6.8998C13.8833 7.08314 13.975 7.31647 13.975 7.5998C13.975 7.88314 13.8833 8.11647 13.7 8.2998C13.5167 8.48314 13.2833 8.5748 13 8.5748C12.7167 8.5748 12.4833 8.48314 12.3 8.2998L9.69999 5.6998C9.61666 5.61647 9.54999 5.5123 9.49999 5.3873C9.44999 5.2623 9.42499 5.13314 9.42499 4.9998C9.42499 4.86647 9.44999 4.7373 9.49999 4.6123C9.54999 4.4873 9.61666 4.38314 9.69999 4.2998L12.3 1.6998C12.4833 1.51647 12.7167 1.4248 13 1.4248C13.2833 1.4248 13.5167 1.51647 13.7 1.6998C13.8833 1.88314 13.975 2.11647 13.975 2.3998C13.975 2.68314 13.8833 2.91647 13.7 3.0998L12.8 3.9998H12.975C15.475 3.9998 17.6042 4.8748 19.3625 6.6248C21.1208 8.3748 22 10.4998 22 12.9998C22 15.4998 21.125 17.6248 19.375 19.3748C17.625 21.1248 15.5 21.9998 13 21.9998ZM6.99999 18.5748C6.86665 18.5748 6.74165 18.554 6.62499 18.5123C6.50832 18.4706 6.39999 18.3998 6.29999 18.2998L1.69999 13.6998C1.59999 13.5998 1.52915 13.4915 1.48749 13.3748C1.44582 13.2581 1.42499 13.1331 1.42499 12.9998C1.42499 12.8665 1.44582 12.7415 1.48749 12.6248C1.52915 12.5081 1.59999 12.3998 1.69999 12.2998L6.29999 7.6998C6.39999 7.5998 6.50832 7.52897 6.62499 7.4873C6.74165 7.44564 6.86665 7.4248 6.99999 7.4248C7.13332 7.4248 7.25832 7.44564 7.37499 7.4873C7.49165 7.52897 7.59999 7.5998 7.69999 7.6998L12.3 12.2998C12.4 12.3998 12.4708 12.5081 12.5125 12.6248C12.5542 12.7415 12.575 12.8665 12.575 12.9998C12.575 13.1331 12.5542 13.2581 12.5125 13.3748C12.4708 13.4915 12.4 13.5998 12.3 13.6998L7.69999 18.2998C7.59999 18.3998 7.49165 18.4706 7.37499 18.5123C7.25832 18.554 7.13332 18.5748 6.99999 18.5748ZM6.99999 16.1498L10.15 12.9998L6.99999 9.8498L3.84999 12.9998L6.99999 16.1498Z" fill="black"/>
</svg>
