<svg width="24" height="24" viewBox="0 0 24 24" fill="none" xmlns="http://www.w3.org/2000/svg">
<path d="M11.0001 21.9998C8.50012 21.9998 6.37512 21.1248 4.62512 19.3748C2.87512 17.6248 2.00012 15.4998 2.00012 12.9998C2.00012 10.4998 2.87929 8.3748 4.63762 6.6248C6.39596 4.8748 8.52512 3.9998 11.0251 3.9998H11.2001L10.3001 3.0998C10.1168 2.91647 10.0251 2.68314 10.0251 2.3998C10.0251 2.11647 10.1168 1.88314 10.3001 1.6998C10.4835 1.51647 10.7168 1.4248 11.0001 1.4248C11.2835 1.4248 11.5168 1.51647 11.7001 1.6998L14.3001 4.2998C14.3835 4.38314 14.4501 4.4873 14.5001 4.6123C14.5501 4.7373 14.5751 4.86647 14.5751 4.9998C14.5751 5.13314 14.5501 5.2623 14.5001 5.3873C14.4501 5.5123 14.3835 5.61647 14.3001 5.6998L11.7001 8.2998C11.5168 8.48314 11.2835 8.5748 11.0001 8.5748C10.7168 8.5748 10.4835 8.48314 10.3001 8.2998C10.1168 8.11647 10.0251 7.88314 10.0251 7.5998C10.0251 7.31647 10.1168 7.08314 10.3001 6.8998L11.2001 5.9998H11.0251C9.07512 5.9998 7.41679 6.67897 6.05012 8.0373C4.68346 9.39564 4.00012 11.0498 4.00012 12.9998C4.00012 14.9498 4.67929 16.604 6.03762 17.9623C7.39596 19.3206 9.05012 19.9998 11.0001 19.9998C11.4835 19.9998 11.9543 19.954 12.4126 19.8623C12.871 19.7706 13.3168 19.6331 13.7501 19.4498C14.0001 19.3331 14.2501 19.329 14.5001 19.4373C14.7501 19.5456 14.9251 19.7248 15.0251 19.9748C15.1251 20.2248 15.1335 20.479 15.0501 20.7373C14.9668 20.9956 14.8001 21.1748 14.5501 21.2748C13.9835 21.5081 13.4043 21.6873 12.8126 21.8123C12.221 21.9373 11.6168 21.9998 11.0001 21.9998ZM16.3001 18.2998L11.7001 13.6998C11.6001 13.5998 11.5293 13.4915 11.4876 13.3748C11.446 13.2581 11.4251 13.1331 11.4251 12.9998C11.4251 12.8665 11.446 12.7415 11.4876 12.6248C11.5293 12.5081 11.6001 12.3998 11.7001 12.2998L16.3001 7.6998C16.4001 7.5998 16.5085 7.52897 16.6251 7.4873C16.7418 7.44564 16.8668 7.4248 17.0001 7.4248C17.1335 7.4248 17.2585 7.44564 17.3751 7.4873C17.4918 7.52897 17.6001 7.5998 17.7001 7.6998L22.3001 12.2998C22.4001 12.3998 22.471 12.5081 22.5126 12.6248C22.5543 12.7415 22.5751 12.8665 22.5751 12.9998C22.5751 13.1331 22.5543 13.2581 22.5126 13.3748C22.471 13.4915 22.4001 13.5998 22.3001 13.6998L17.7001 18.2998C17.6001 18.3998 17.4918 18.4706 17.3751 18.5123C17.2585 18.554 17.1335 18.5748 17.0001 18.5748C16.8668 18.5748 16.7418 18.554 16.6251 18.5123C16.5085 18.4706 16.4001 18.3998 16.3001 18.2998ZM17.0001 16.1498L20.1501 12.9998L17.0001 9.8498L13.8501 12.9998L17.0001 16.1498Z" fill="black"/>
</svg>
