<svg width="28" height="28" viewBox="0 0 28 28" fill="none" xmlns="http://www.w3.org/2000/svg">
<path d="M12.8335 25.6663C9.91683 25.6663 7.43766 24.6454 5.396 22.6038C3.35433 20.5621 2.3335 18.0829 2.3335 15.1663C2.3335 12.2496 3.35919 9.77044 5.41058 7.72878C7.46197 5.68711 9.946 4.66628 12.8627 4.66628H13.0668L12.0168 3.61628C11.8029 3.40239 11.696 3.13016 11.696 2.79961C11.696 2.46905 11.8029 2.19683 12.0168 1.98294C12.2307 1.76905 12.5029 1.66211 12.8335 1.66211C13.1641 1.66211 13.4363 1.76905 13.6502 1.98294L16.6835 5.01628C16.7807 5.1135 16.8585 5.23503 16.9168 5.38086C16.9752 5.52669 17.0043 5.67739 17.0043 5.83294C17.0043 5.9885 16.9752 6.13919 16.9168 6.28503C16.8585 6.43086 16.7807 6.55239 16.6835 6.64961L13.6502 9.68294C13.4363 9.89683 13.1641 10.0038 12.8335 10.0038C12.5029 10.0038 12.2307 9.89683 12.0168 9.68294C11.8029 9.46905 11.696 9.19683 11.696 8.86628C11.696 8.53572 11.8029 8.2635 12.0168 8.04961L13.0668 6.99961H12.8627C10.5877 6.99961 8.65294 7.79197 7.0585 9.37669C5.46405 10.9614 4.66683 12.8913 4.66683 15.1663C4.66683 17.4413 5.45919 19.3711 7.04391 20.9559C8.62863 22.5406 10.5585 23.3329 12.8335 23.3329C13.3974 23.3329 13.9467 23.2795 14.4814 23.1725C15.0161 23.0656 15.5363 22.9052 16.0418 22.6913C16.3335 22.5552 16.6252 22.5503 16.9168 22.6767C17.2085 22.8031 17.4127 23.0121 17.5293 23.3038C17.646 23.5954 17.6557 23.892 17.5585 24.1934C17.4613 24.4947 17.2668 24.7038 16.9752 24.8204C16.3141 25.0927 15.6384 25.3017 14.9481 25.4475C14.2578 25.5934 13.5529 25.6663 12.8335 25.6663ZM19.0168 21.3496L13.6502 15.9829C13.5335 15.8663 13.4509 15.7399 13.4022 15.6038C13.3536 15.4677 13.3293 15.3218 13.3293 15.1663C13.3293 15.0107 13.3536 14.8649 13.4022 14.7288C13.4509 14.5927 13.5335 14.4663 13.6502 14.3496L19.0168 8.98294C19.1335 8.86628 19.2599 8.78364 19.396 8.73503C19.5321 8.68641 19.6779 8.66211 19.8335 8.66211C19.9891 8.66211 20.1349 8.68641 20.271 8.73503C20.4071 8.78364 20.5335 8.86628 20.6502 8.98294L26.0168 14.3496C26.1335 14.4663 26.2161 14.5927 26.2647 14.7288C26.3134 14.8649 26.3377 15.0107 26.3377 15.1663C26.3377 15.3218 26.3134 15.4677 26.2647 15.6038C26.2161 15.7399 26.1335 15.8663 26.0168 15.9829L20.6502 21.3496C20.5335 21.4663 20.4071 21.5489 20.271 21.5975C20.1349 21.6461 19.9891 21.6704 19.8335 21.6704C19.6779 21.6704 19.5321 21.6461 19.396 21.5975C19.2599 21.5489 19.1335 21.4663 19.0168 21.3496ZM19.8335 18.8413L23.5085 15.1663L19.8335 11.4913L16.1585 15.1663L19.8335 18.8413Z" fill="black"/>
</svg>
