<svg width="16" height="16" viewBox="0 0 16 16" fill="none" xmlns="http://www.w3.org/2000/svg">
<path d="M8.66668 14.6664C8.25557 14.6664 7.85279 14.6247 7.45835 14.5414C7.0639 14.458 6.67779 14.3386 6.30001 14.183C6.13335 14.1164 6.02223 13.9969 5.96668 13.8247C5.91112 13.6525 5.91668 13.483 5.98335 13.3164C6.05001 13.1497 6.16668 13.0303 6.33335 12.958C6.50001 12.8858 6.66668 12.8886 6.83335 12.9664C7.12223 13.0886 7.41946 13.1803 7.72501 13.2414C8.03057 13.3025 8.34446 13.333 8.66668 13.333C9.96668 13.333 11.0695 12.8803 11.975 11.9747C12.8806 11.0692 13.3333 9.96637 13.3333 8.66637C13.3333 7.36637 12.8778 6.2636 11.9667 5.35804C11.0556 4.45249 9.95001 3.99971 8.65001 3.99971H8.53335L9.13335 4.59971C9.25557 4.72193 9.31668 4.87749 9.31668 5.06637C9.31668 5.25526 9.25557 5.41082 9.13335 5.53304C9.01112 5.65526 8.85557 5.71637 8.66668 5.71637C8.47779 5.71637 8.32223 5.65526 8.20001 5.53304L6.46668 3.79971C6.41112 3.74415 6.36668 3.67471 6.33335 3.59137C6.30001 3.50804 6.28335 3.42193 6.28335 3.33304C6.28335 3.24415 6.30001 3.15804 6.33335 3.07471C6.36668 2.99137 6.41112 2.92193 6.46668 2.86637L8.20001 1.13304C8.32223 1.01082 8.47779 0.949707 8.66668 0.949707C8.85557 0.949707 9.01112 1.01082 9.13335 1.13304C9.25557 1.25526 9.31668 1.41082 9.31668 1.59971C9.31668 1.7886 9.25557 1.94415 9.13335 2.06637L8.53335 2.66637H8.65001C10.3167 2.66637 11.7361 3.24971 12.9083 4.41637C14.0806 5.58304 14.6667 6.99971 14.6667 8.66637C14.6667 10.333 14.0833 11.7497 12.9167 12.9164C11.75 14.083 10.3333 14.6664 8.66668 14.6664ZM4.66668 12.383C4.57779 12.383 4.49446 12.3692 4.41668 12.3414C4.3389 12.3136 4.26668 12.2664 4.20001 12.1997L1.13335 9.13304C1.06668 9.06637 1.01946 8.99415 0.991679 8.91637C0.963901 8.8386 0.950012 8.75526 0.950012 8.66637C0.950012 8.57748 0.963901 8.49415 0.991679 8.41637C1.01946 8.3386 1.06668 8.26637 1.13335 8.19971L4.20001 5.13304C4.26668 5.06637 4.3389 5.01915 4.41668 4.99137C4.49446 4.9636 4.57779 4.94971 4.66668 4.94971C4.75557 4.94971 4.8389 4.9636 4.91668 4.99137C4.99446 5.01915 5.06668 5.06637 5.13335 5.13304L8.20001 8.19971C8.26668 8.26637 8.3139 8.3386 8.34168 8.41637C8.36946 8.49415 8.38335 8.57748 8.38335 8.66637C8.38335 8.75526 8.36946 8.8386 8.34168 8.91637C8.3139 8.99415 8.26668 9.06637 8.20001 9.13304L5.13335 12.1997C5.06668 12.2664 4.99446 12.3136 4.91668 12.3414C4.8389 12.3692 4.75557 12.383 4.66668 12.383ZM4.66668 10.7664L6.76668 8.66637L4.66668 6.56637L2.56668 8.66637L4.66668 10.7664Z" fill="black"/>
</svg>
