<svg width="28" height="28" viewBox="0 0 28 28" fill="none" xmlns="http://www.w3.org/2000/svg">
<path d="M15.1666 25.6663C14.4472 25.6663 13.7423 25.5934 13.0521 25.4475C12.3618 25.3017 11.6861 25.0927 11.025 24.8204C10.7333 24.7038 10.5389 24.4947 10.4416 24.1934C10.3444 23.892 10.3541 23.5954 10.4708 23.3038C10.5875 23.0121 10.7916 22.8031 11.0833 22.6767C11.375 22.5503 11.6666 22.5552 11.9583 22.6913C12.4639 22.9052 12.984 23.0656 13.5187 23.1725C14.0534 23.2795 14.6028 23.3329 15.1666 23.3329C17.4416 23.3329 19.3715 22.5406 20.9562 20.9559C22.5409 19.3711 23.3333 17.4413 23.3333 15.1663C23.3333 12.8913 22.5361 10.9614 20.9416 9.37669C19.3472 7.79197 17.4125 6.99961 15.1375 6.99961H14.9333L15.9833 8.04961C16.1972 8.2635 16.3041 8.53572 16.3041 8.86628C16.3041 9.19683 16.1972 9.46905 15.9833 9.68294C15.7694 9.89683 15.4972 10.0038 15.1666 10.0038C14.8361 10.0038 14.5639 9.89683 14.35 9.68294L11.3166 6.64961C11.2194 6.55239 11.1416 6.43086 11.0833 6.28503C11.025 6.13919 10.9958 5.9885 10.9958 5.83294C10.9958 5.67739 11.025 5.52669 11.0833 5.38086C11.1416 5.23503 11.2194 5.1135 11.3166 5.01628L14.35 1.98294C14.5639 1.76905 14.8361 1.66211 15.1666 1.66211C15.4972 1.66211 15.7694 1.76905 15.9833 1.98294C16.1972 2.19683 16.3041 2.46905 16.3041 2.79961C16.3041 3.13016 16.1972 3.40239 15.9833 3.61628L14.9333 4.66628H15.1375C18.0541 4.66628 20.5382 5.68711 22.5896 7.72878C24.6409 9.77044 25.6666 12.2496 25.6666 15.1663C25.6666 18.0829 24.6458 20.5621 22.6041 22.6038C20.5625 24.6454 18.0833 25.6663 15.1666 25.6663ZM8.16664 21.6704C8.01109 21.6704 7.86525 21.6461 7.72914 21.5975C7.59303 21.5489 7.46664 21.4663 7.34998 21.3496L1.98331 15.9829C1.86664 15.8663 1.784 15.7399 1.73539 15.6038C1.68678 15.4677 1.66248 15.3218 1.66248 15.1663C1.66248 15.0107 1.68678 14.8649 1.73539 14.7288C1.784 14.5927 1.86664 14.4663 1.98331 14.3496L7.34998 8.98294C7.46664 8.86628 7.59303 8.78364 7.72914 8.73503C7.86525 8.68641 8.01109 8.66211 8.16664 8.66211C8.3222 8.66211 8.46803 8.68641 8.60414 8.73503C8.74025 8.78364 8.86664 8.86628 8.98331 8.98294L14.35 14.3496C14.4666 14.4663 14.5493 14.5927 14.5979 14.7288C14.6465 14.8649 14.6708 15.0107 14.6708 15.1663C14.6708 15.3218 14.6465 15.4677 14.5979 15.6038C14.5493 15.7399 14.4666 15.8663 14.35 15.9829L8.98331 21.3496C8.86664 21.4663 8.74025 21.5489 8.60414 21.5975C8.46803 21.6461 8.3222 21.6704 8.16664 21.6704ZM8.16664 18.8413L11.8416 15.1663L8.16664 11.4913L4.49164 15.1663L8.16664 18.8413Z" fill="black"/>
</svg>
