<svg width="16" height="16" viewBox="0 0 16 16" fill="none" xmlns="http://www.w3.org/2000/svg">
<path d="M7.33344 14.6664C5.66677 14.6664 4.2501 14.083 3.08344 12.9164C1.91677 11.7497 1.33344 10.333 1.33344 8.66637C1.33344 6.99971 1.91955 5.58304 3.09177 4.41637C4.26399 3.24971 5.68344 2.66637 7.3501 2.66637H7.46677L6.86677 2.06637C6.74455 1.94415 6.68344 1.7886 6.68344 1.59971C6.68344 1.41082 6.74455 1.25526 6.86677 1.13304C6.98899 1.01082 7.14455 0.949707 7.33344 0.949707C7.52232 0.949707 7.67788 1.01082 7.8001 1.13304L9.53344 2.86637C9.58899 2.92193 9.63344 2.99137 9.66677 3.07471C9.7001 3.15804 9.71677 3.24415 9.71677 3.33304C9.71677 3.42193 9.7001 3.50804 9.66677 3.59137C9.63344 3.67471 9.58899 3.74415 9.53344 3.79971L7.8001 5.53304C7.67788 5.65526 7.52232 5.71637 7.33344 5.71637C7.14455 5.71637 6.98899 5.65526 6.86677 5.53304C6.74455 5.41082 6.68344 5.25526 6.68344 5.06637C6.68344 4.87749 6.74455 4.72193 6.86677 4.59971L7.46677 3.99971H7.3501C6.0501 3.99971 4.94455 4.45249 4.03344 5.35804C3.12232 6.2636 2.66677 7.36637 2.66677 8.66637C2.66677 9.96637 3.11955 11.0692 4.0251 11.9747C4.93066 12.8803 6.03344 13.333 7.33344 13.333C7.65566 13.333 7.96955 13.3025 8.2751 13.2414C8.58066 13.1803 8.87788 13.0886 9.16677 12.9664C9.33344 12.8886 9.5001 12.8858 9.66677 12.958C9.83344 13.0303 9.9501 13.1497 10.0168 13.3164C10.0834 13.483 10.089 13.6525 10.0334 13.8247C9.97788 13.9969 9.86677 14.1164 9.7001 14.183C9.32232 14.3386 8.93621 14.458 8.54177 14.5414C8.14732 14.6247 7.74455 14.6664 7.33344 14.6664ZM10.8668 12.1997L7.8001 9.13304C7.73344 9.06637 7.68621 8.99415 7.65844 8.91637C7.63066 8.8386 7.61677 8.75526 7.61677 8.66637C7.61677 8.57748 7.63066 8.49415 7.65844 8.41637C7.68621 8.3386 7.73344 8.26637 7.8001 8.19971L10.8668 5.13304C10.9334 5.06637 11.0057 5.01915 11.0834 4.99137C11.1612 4.9636 11.2445 4.94971 11.3334 4.94971C11.4223 4.94971 11.5057 4.9636 11.5834 4.99137C11.6612 5.01915 11.7334 5.06637 11.8001 5.13304L14.8668 8.19971C14.9334 8.26637 14.9807 8.3386 15.0084 8.41637C15.0362 8.49415 15.0501 8.57748 15.0501 8.66637C15.0501 8.75526 15.0362 8.8386 15.0084 8.91637C14.9807 8.99415 14.9334 9.06637 14.8668 9.13304L11.8001 12.1997C11.7334 12.2664 11.6612 12.3136 11.5834 12.3414C11.5057 12.3692 11.4223 12.383 11.3334 12.383C11.2445 12.383 11.1612 12.3692 11.0834 12.3414C11.0057 12.3136 10.9334 12.2664 10.8668 12.1997ZM11.3334 10.7664L13.4334 8.66637L11.3334 6.56637L9.23344 8.66637L11.3334 10.7664Z" fill="black"/>
</svg>
