<svg width="16" height="16" viewBox="0 0 16 16" fill="none" xmlns="http://www.w3.org/2000/svg">
<path d="M4.03333 11.8503C3.81111 11.728 3.63889 11.5641 3.51666 11.3586C3.39444 11.153 3.33333 10.9225 3.33333 10.6669V7.46693L1.73333 6.58359C1.61111 6.51693 1.52222 6.43359 1.46666 6.33359C1.41111 6.23359 1.38333 6.12248 1.38333 6.00026C1.38333 5.87804 1.41111 5.76693 1.46666 5.66693C1.52222 5.56693 1.61111 5.48359 1.73333 5.41693L7.36666 2.35026C7.46666 2.2947 7.56944 2.25304 7.675 2.22526C7.78055 2.19748 7.88889 2.18359 8 2.18359C8.11111 2.18359 8.21944 2.19748 8.325 2.22526C8.43055 2.25304 8.53333 2.2947 8.63333 2.35026L14.9833 5.81693C15.0944 5.87248 15.1806 5.95304 15.2417 6.05859C15.3028 6.16415 15.3333 6.27804 15.3333 6.40026V10.6669C15.3333 10.8558 15.2694 11.0141 15.1417 11.1419C15.0139 11.2697 14.8556 11.3336 14.6667 11.3336C14.4778 11.3336 14.3194 11.2697 14.1917 11.1419C14.0639 11.0141 14 10.8558 14 10.6669V6.73359L12.6667 7.46693V10.6669C12.6667 10.9225 12.6056 11.153 12.4833 11.3586C12.3611 11.5641 12.1889 11.728 11.9667 11.8503L8.63333 13.6503C8.53333 13.7058 8.43055 13.7475 8.325 13.7753C8.21944 13.803 8.11111 13.8169 8 13.8169C7.88889 13.8169 7.78055 13.803 7.675 13.7753C7.56944 13.7475 7.46666 13.7058 7.36666 13.6503L4.03333 11.8503ZM8 8.46693L12.5667 6.00026L8 3.53359L3.43333 6.00026L8 8.46693ZM8 12.4836L11.3333 10.6836V8.16693L8.65 9.65026C8.55 9.70582 8.44444 9.74748 8.33333 9.77526C8.22222 9.80304 8.11111 9.81693 8 9.81693C7.88889 9.81693 7.77778 9.80304 7.66667 9.77526C7.55555 9.74748 7.45 9.70582 7.35 9.65026L4.66666 8.16693V10.6836L8 12.4836Z" fill="black"/>
</svg>
