<svg width="24" height="24" viewBox="0 0 24 24" fill="none" xmlns="http://www.w3.org/2000/svg">
<path d="M6.05 17.7754C5.71666 17.5921 5.45833 17.3462 5.275 17.0379C5.09166 16.7296 5 16.3837 5 16.0004V11.2004L2.6 9.87539C2.41666 9.77539 2.28333 9.65039 2.2 9.50039C2.11666 9.35039 2.075 9.18372 2.075 9.00039C2.075 8.81706 2.11666 8.65039 2.2 8.50039C2.28333 8.35039 2.41666 8.22539 2.6 8.12539L11.05 3.52539C11.2 3.44206 11.3542 3.37956 11.5125 3.33789C11.6708 3.29622 11.8333 3.27539 12 3.27539C12.1667 3.27539 12.3292 3.29622 12.4875 3.33789C12.6458 3.37956 12.8 3.44206 12.95 3.52539L22.475 8.72539C22.6417 8.80872 22.7708 8.92956 22.8625 9.08789C22.9542 9.24622 23 9.41706 23 9.60039V16.0004C23 16.2837 22.9042 16.5212 22.7125 16.7129C22.5208 16.9046 22.2833 17.0004 22 17.0004C21.7167 17.0004 21.4792 16.9046 21.2875 16.7129C21.0958 16.5212 21 16.2837 21 16.0004V10.1004L19 11.2004V16.0004C19 16.3837 18.9083 16.7296 18.725 17.0379C18.5417 17.3462 18.2833 17.5921 17.95 17.7754L12.95 20.4754C12.8 20.5587 12.6458 20.6212 12.4875 20.6629C12.3292 20.7046 12.1667 20.7254 12 20.7254C11.8333 20.7254 11.6708 20.7046 11.5125 20.6629C11.3542 20.6212 11.2 20.5587 11.05 20.4754L6.05 17.7754ZM12 12.7004L18.85 9.00039L12 5.30039L5.15 9.00039L12 12.7004ZM12 18.7254L17 16.0254V12.2504L12.975 14.4754C12.825 14.5587 12.6667 14.6212 12.5 14.6629C12.3333 14.7046 12.1667 14.7254 12 14.7254C11.8333 14.7254 11.6667 14.7046 11.5 14.6629C11.3333 14.6212 11.175 14.5587 11.025 14.4754L7 12.2504V16.0254L12 18.7254Z" fill="black"/>
</svg>
