<svg width="28" height="28" viewBox="0 0 28 28" fill="none" xmlns="http://www.w3.org/2000/svg">
<path d="M7.05833 20.738C6.66944 20.5241 6.36806 20.2373 6.15417 19.8775C5.94028 19.5178 5.83333 19.1143 5.83333 18.6671V13.0671L3.03333 11.5213C2.81944 11.4046 2.66389 11.2588 2.56667 11.0838C2.46944 10.9088 2.42083 10.7143 2.42083 10.5005C2.42083 10.2866 2.46944 10.0921 2.56667 9.91712C2.66389 9.74212 2.81944 9.59629 3.03333 9.47962L12.8917 4.11296C13.0667 4.01573 13.2465 3.94282 13.4313 3.89421C13.616 3.84559 13.8056 3.82129 14 3.82129C14.1944 3.82129 14.384 3.84559 14.5688 3.89421C14.7535 3.94282 14.9333 4.01573 15.1083 4.11296L26.2208 10.1796C26.4153 10.2768 26.566 10.4178 26.6729 10.6025C26.7799 10.7873 26.8333 10.9866 26.8333 11.2005V18.6671C26.8333 18.9977 26.7215 19.2748 26.4979 19.4984C26.2743 19.722 25.9972 19.8338 25.6667 19.8338C25.3361 19.8338 25.059 19.722 24.8354 19.4984C24.6118 19.2748 24.5 18.9977 24.5 18.6671V11.7838L22.1667 13.0671V18.6671C22.1667 19.1143 22.0597 19.5178 21.8458 19.8775C21.6319 20.2373 21.3306 20.5241 20.9417 20.738L15.1083 23.888C14.9333 23.9852 14.7535 24.0581 14.5688 24.1067C14.384 24.1553 14.1944 24.1796 14 24.1796C13.8056 24.1796 13.616 24.1553 13.4313 24.1067C13.2465 24.0581 13.0667 23.9852 12.8917 23.888L7.05833 20.738ZM14 14.8171L21.9917 10.5005L14 6.18379L6.00833 10.5005L14 14.8171ZM14 21.8463L19.8333 18.6963V14.2921L15.1375 16.888C14.9625 16.9852 14.7778 17.0581 14.5833 17.1067C14.3889 17.1553 14.1944 17.1796 14 17.1796C13.8056 17.1796 13.6111 17.1553 13.4167 17.1067C13.2222 17.0581 13.0375 16.9852 12.8625 16.888L8.16667 14.2921V18.6963L14 21.8463Z" fill="black"/>
</svg>
