<svg width="16" height="16" viewBox="0 0 16 16" fill="none" xmlns="http://www.w3.org/2000/svg">
<g id="Screenshare16">
<path id="Vector" d="M7.33335 7.33333H8.66669V8.26667C8.66669 8.34444 8.70002 8.39722 8.76669 8.425C8.83335 8.45278 8.89447 8.43889 8.95002 8.38333L10.4334 6.9C10.5 6.83333 10.5334 6.75556 10.5334 6.66667C10.5334 6.57778 10.5 6.5 10.4334 6.43333L8.95002 4.95C8.89447 4.89444 8.83335 4.88056 8.76669 4.90833C8.70002 4.93611 8.66669 4.98889 8.66669 5.06667V6H7.33335C6.7778 6 6.30558 6.19444 5.91669 6.58333C5.5278 6.97222 5.33335 7.44444 5.33335 8V8.66667C5.33335 8.85556 5.39724 9.01389 5.52502 9.14167C5.6528 9.26944 5.81113 9.33333 6.00002 9.33333C6.18891 9.33333 6.34724 9.26944 6.47502 9.14167C6.6028 9.01389 6.66669 8.85556 6.66669 8.66667V8C6.66669 7.81111 6.73058 7.65278 6.85835 7.525C6.98613 7.39722 7.14446 7.33333 7.33335 7.33333ZM1.33335 14C1.14446 14 0.986131 13.9361 0.858354 13.8083C0.730576 13.6806 0.666687 13.5222 0.666687 13.3333C0.666687 13.1444 0.730576 12.9861 0.858354 12.8583C0.986131 12.7306 1.14446 12.6667 1.33335 12.6667H14.6667C14.8556 12.6667 15.0139 12.7306 15.1417 12.8583C15.2695 12.9861 15.3334 13.1444 15.3334 13.3333C15.3334 13.5222 15.2695 13.6806 15.1417 13.8083C15.0139 13.9361 14.8556 14 14.6667 14H1.33335ZM2.66669 12C2.30002 12 1.98613 11.8694 1.72502 11.6083C1.46391 11.3472 1.33335 11.0333 1.33335 10.6667V3.33333C1.33335 2.96667 1.46391 2.65278 1.72502 2.39167C1.98613 2.13056 2.30002 2 2.66669 2H13.3334C13.7 2 14.0139 2.13056 14.275 2.39167C14.5361 2.65278 14.6667 2.96667 14.6667 3.33333V10.6667C14.6667 11.0333 14.5361 11.3472 14.275 11.6083C14.0139 11.8694 13.7 12 13.3334 12H2.66669ZM2.66669 10.6667H13.3334V3.33333H2.66669V10.6667Z" fill="black"/>
</g>
</svg>
