<svg width="16" height="16" viewBox="0 0 16 16" fill="none" xmlns="http://www.w3.org/2000/svg">
<g id="ScreenshareOff16">
<path id="Vector" d="M9.61669 7.71644L7.90002 5.99977H8.66669V5.06644C8.66669 4.98866 8.70002 4.93588 8.76669 4.90811C8.83335 4.88033 8.89447 4.89422 8.95002 4.94977L10.4334 6.4331C10.5 6.49977 10.5334 6.57755 10.5334 6.66644C10.5334 6.75533 10.5 6.83311 10.4334 6.89977L9.61669 7.71644ZM13.8 11.8998L12.5667 10.6664H13.3334V3.33311H5.23335L3.90002 1.99977H13.3334C13.7 1.99977 14.0139 2.13033 14.275 2.39144C14.5361 2.65255 14.6667 2.96644 14.6667 3.33311V10.6664C14.6667 10.9553 14.5861 11.2081 14.425 11.4248C14.2639 11.6414 14.0556 11.7998 13.8 11.8998ZM12.1334 13.9998H1.33335C1.14446 13.9998 0.986131 13.9359 0.858354 13.8081C0.730576 13.6803 0.666687 13.522 0.666687 13.3331C0.666687 13.1442 0.730576 12.9859 0.858354 12.8581C0.986131 12.7303 1.14446 12.6664 1.33335 12.6664H10.7834L10.1167 11.9998H2.66669C2.30002 11.9998 1.98613 11.8692 1.72502 11.6081C1.46391 11.347 1.33335 11.0331 1.33335 10.6664V3.23311L0.916687 2.79977C0.794465 2.66644 0.733354 2.51088 0.733354 2.33311C0.733354 2.15533 0.80002 1.99977 0.933354 1.86644C1.05558 1.74422 1.21113 1.68311 1.40002 1.68311C1.58891 1.68311 1.74446 1.74422 1.86669 1.86644L14.1334 14.1331C14.2556 14.2553 14.3167 14.4109 14.3167 14.5998C14.3167 14.7887 14.2556 14.9442 14.1334 15.0664C14.0111 15.1887 13.8556 15.2498 13.6667 15.2498C13.4778 15.2498 13.3222 15.1887 13.2 15.0664L12.1334 13.9998ZM6.66669 8.56644V8.66644C6.66669 8.85533 6.6028 9.01366 6.47502 9.14144C6.34724 9.26922 6.18891 9.33311 6.00002 9.33311C5.81113 9.33311 5.6528 9.26922 5.52502 9.14144C5.39724 9.01366 5.33335 8.85533 5.33335 8.66644V7.99977C5.33335 7.87755 5.33891 7.76088 5.35002 7.64977C5.36113 7.53866 5.39446 7.4331 5.45002 7.33311L2.66669 4.54977V10.6664H8.76669L6.66669 8.56644Z" fill="black"/>
</g>
</svg>
