<svg width="24" height="24" viewBox="0 0 24 24" fill="none" xmlns="http://www.w3.org/2000/svg">
<g id="ScreenshareOff24">
<path id="Vector" d="M14.425 11.5749L11.85 8.9999H13V7.5999C13 7.48324 13.05 7.40407 13.15 7.3624C13.25 7.32074 13.3417 7.34157 13.425 7.4249L15.65 9.6499C15.75 9.7499 15.8 9.86657 15.8 9.9999C15.8 10.1332 15.75 10.2499 15.65 10.3499L14.425 11.5749ZM20.7 17.8499L18.85 15.9999H20V4.9999H7.85L5.85 2.9999H20C20.55 2.9999 21.0208 3.19574 21.4125 3.5874C21.8042 3.97907 22 4.4499 22 4.9999V15.9999C22 16.4332 21.8792 16.8124 21.6375 17.1374C21.3958 17.4624 21.0833 17.6999 20.7 17.8499ZM18.2 20.9999H2C1.71667 20.9999 1.47917 20.9041 1.2875 20.7124C1.09583 20.5207 1 20.2832 1 19.9999C1 19.7166 1.09583 19.4791 1.2875 19.2874C1.47917 19.0957 1.71667 18.9999 2 18.9999H16.175L15.175 17.9999H4C3.45 17.9999 2.97917 17.8041 2.5875 17.4124C2.19583 17.0207 2 16.5499 2 15.9999V4.8499L1.375 4.1999C1.19167 3.9999 1.1 3.76657 1.1 3.4999C1.1 3.23324 1.2 2.9999 1.4 2.7999C1.58333 2.61657 1.81667 2.5249 2.1 2.5249C2.38333 2.5249 2.61667 2.61657 2.8 2.7999L21.2 21.1999C21.3833 21.3832 21.475 21.6166 21.475 21.8999C21.475 22.1832 21.3833 22.4166 21.2 22.5999C21.0167 22.7832 20.7833 22.8749 20.5 22.8749C20.2167 22.8749 19.9833 22.7832 19.8 22.5999L18.2 20.9999ZM10 12.8499V12.9999C10 13.2832 9.90417 13.5207 9.7125 13.7124C9.52083 13.9041 9.28333 13.9999 9 13.9999C8.71667 13.9999 8.47917 13.9041 8.2875 13.7124C8.09583 13.5207 8 13.2832 8 12.9999V11.9999C8 11.8166 8.00833 11.6416 8.025 11.4749C8.04167 11.3082 8.09167 11.1499 8.175 10.9999L4 6.8249V15.9999H13.15L10 12.8499Z" fill="black"/>
</g>
</svg>
