<svg width="28" height="28" viewBox="0 0 28 28" fill="none" xmlns="http://www.w3.org/2000/svg">
<g id="ScreenshareOff28">
<path id="Vector" d="M16.8292 13.5041L13.825 10.5H15.1667V8.86663C15.1667 8.73052 15.225 8.63816 15.3417 8.58955C15.4584 8.54094 15.5653 8.56524 15.6625 8.66247L18.2584 11.2583C18.375 11.375 18.4334 11.5111 18.4334 11.6666C18.4334 11.8222 18.375 11.9583 18.2584 12.075L16.8292 13.5041ZM24.15 20.825L21.9917 18.6666H23.3334V5.8333H9.15835L6.82502 3.49997H23.3334C23.975 3.49997 24.5243 3.72844 24.9813 4.18538C25.4382 4.64233 25.6667 5.19163 25.6667 5.8333V18.6666C25.6667 19.1722 25.5257 19.6145 25.2438 19.9937C24.9618 20.3729 24.5972 20.65 24.15 20.825ZM21.2334 24.5H2.33335C2.0028 24.5 1.72571 24.3882 1.5021 24.1645C1.27849 23.9409 1.16669 23.6639 1.16669 23.3333C1.16669 23.0027 1.27849 22.7257 1.5021 22.5021C1.72571 22.2784 2.0028 22.1666 2.33335 22.1666H18.8709L17.7042 21H4.66669C4.02502 21 3.47571 20.7715 3.01877 20.3146C2.56183 19.8576 2.33335 19.3083 2.33335 18.6666V5.6583L1.60419 4.89997C1.3903 4.66663 1.28335 4.39441 1.28335 4.0833C1.28335 3.77219 1.40002 3.49997 1.63335 3.26663C1.84724 3.05275 2.11946 2.9458 2.45002 2.9458C2.78058 2.9458 3.0528 3.05275 3.26669 3.26663L24.7334 24.7333C24.9472 24.9472 25.0542 25.2194 25.0542 25.55C25.0542 25.8805 24.9472 26.1527 24.7334 26.3666C24.5195 26.5805 24.2472 26.6875 23.9167 26.6875C23.5861 26.6875 23.3139 26.5805 23.1 26.3666L21.2334 24.5ZM11.6667 14.9916V15.1666C11.6667 15.4972 11.5549 15.7743 11.3313 15.9979C11.1077 16.2215 10.8306 16.3333 10.5 16.3333C10.1695 16.3333 9.89238 16.2215 9.66877 15.9979C9.44516 15.7743 9.33335 15.4972 9.33335 15.1666V14C9.33335 13.7861 9.34308 13.5819 9.36252 13.3875C9.38196 13.193 9.4403 13.0083 9.53752 12.8333L4.66669 7.96247V18.6666H15.3417L11.6667 14.9916Z" fill="black"/>
</g>
</svg>
