<svg width="28" height="28" viewBox="0 0 28 28" fill="none" xmlns="http://www.w3.org/2000/svg">
<g id="Screenshare28">
<path id="Vector" d="M12.8334 12.8333H15.1667V14.4667C15.1667 14.6028 15.225 14.6951 15.3417 14.7437C15.4584 14.7924 15.5653 14.7681 15.6625 14.6708L18.2584 12.075C18.375 11.9583 18.4334 11.8222 18.4334 11.6667C18.4334 11.5111 18.375 11.375 18.2584 11.2583L15.6625 8.6625C15.5653 8.56528 15.4584 8.54097 15.3417 8.58958C15.225 8.63819 15.1667 8.73056 15.1667 8.86667V10.5H12.8334C11.8611 10.5 11.0347 10.8403 10.3542 11.5208C9.67363 12.2014 9.33335 13.0278 9.33335 14V15.1667C9.33335 15.4972 9.44516 15.7743 9.66877 15.9979C9.89238 16.2215 10.1695 16.3333 10.5 16.3333C10.8306 16.3333 11.1077 16.2215 11.3313 15.9979C11.5549 15.7743 11.6667 15.4972 11.6667 15.1667V14C11.6667 13.6694 11.7785 13.3924 12.0021 13.1687C12.2257 12.9451 12.5028 12.8333 12.8334 12.8333ZM2.33335 24.5C2.0028 24.5 1.72571 24.3882 1.5021 24.1646C1.27849 23.941 1.16669 23.6639 1.16669 23.3333C1.16669 23.0028 1.27849 22.7257 1.5021 22.5021C1.72571 22.2785 2.0028 22.1667 2.33335 22.1667H25.6667C25.9972 22.1667 26.2743 22.2785 26.4979 22.5021C26.7215 22.7257 26.8334 23.0028 26.8334 23.3333C26.8334 23.6639 26.7215 23.941 26.4979 24.1646C26.2743 24.3882 25.9972 24.5 25.6667 24.5H2.33335ZM4.66669 21C4.02502 21 3.47571 20.7715 3.01877 20.3146C2.56183 19.8576 2.33335 19.3083 2.33335 18.6667V5.83333C2.33335 5.19167 2.56183 4.64236 3.01877 4.18542C3.47571 3.72847 4.02502 3.5 4.66669 3.5H23.3334C23.975 3.5 24.5243 3.72847 24.9813 4.18542C25.4382 4.64236 25.6667 5.19167 25.6667 5.83333V18.6667C25.6667 19.3083 25.4382 19.8576 24.9813 20.3146C24.5243 20.7715 23.975 21 23.3334 21H4.66669ZM4.66669 18.6667H23.3334V5.83333H4.66669V18.6667Z" fill="black"/>
</g>
</svg>
