<svg width="24" height="24" viewBox="0 0 24 24" fill="none" xmlns="http://www.w3.org/2000/svg">
<g id="Screenshare24">
<path id="Vector" d="M11 11H13V12.4C13 12.5167 13.05 12.5958 13.15 12.6375C13.25 12.6792 13.3417 12.6583 13.425 12.575L15.65 10.35C15.75 10.25 15.8 10.1333 15.8 10C15.8 9.86667 15.75 9.75 15.65 9.65L13.425 7.425C13.3417 7.34167 13.25 7.32083 13.15 7.3625C13.05 7.40417 13 7.48333 13 7.6V9H11C10.1667 9 9.45833 9.29167 8.875 9.875C8.29167 10.4583 8 11.1667 8 12V13C8 13.2833 8.09583 13.5208 8.2875 13.7125C8.47917 13.9042 8.71667 14 9 14C9.28333 14 9.52083 13.9042 9.7125 13.7125C9.90417 13.5208 10 13.2833 10 13V12C10 11.7167 10.0958 11.4792 10.2875 11.2875C10.4792 11.0958 10.7167 11 11 11ZM2 21C1.71667 21 1.47917 20.9042 1.2875 20.7125C1.09583 20.5208 1 20.2833 1 20C1 19.7167 1.09583 19.4792 1.2875 19.2875C1.47917 19.0958 1.71667 19 2 19H22C22.2833 19 22.5208 19.0958 22.7125 19.2875C22.9042 19.4792 23 19.7167 23 20C23 20.2833 22.9042 20.5208 22.7125 20.7125C22.5208 20.9042 22.2833 21 22 21H2ZM4 18C3.45 18 2.97917 17.8042 2.5875 17.4125C2.19583 17.0208 2 16.55 2 16V5C2 4.45 2.19583 3.97917 2.5875 3.5875C2.97917 3.19583 3.45 3 4 3H20C20.55 3 21.0208 3.19583 21.4125 3.5875C21.8042 3.97917 22 4.45 22 5V16C22 16.55 21.8042 17.0208 21.4125 17.4125C21.0208 17.8042 20.55 18 20 18H4ZM4 16H20V5H4V16Z" fill="black"/>
</g>
</svg>
