<svg width="16" height="16" viewBox="0 0 16 16" fill="none" xmlns="http://www.w3.org/2000/svg">
<path d="M12.5333 13.6167L8.83333 9.91669C8.5 10.1722 8.11666 10.3778 7.68333 10.5334C7.25 10.6889 6.78889 10.7667 6.3 10.7667C5.06666 10.7667 4.02222 10.336 3.16666 9.47469C2.31111 8.6138 1.88333 7.56669 1.88333 6.33336C1.88333 5.10002 2.31111 4.05269 3.16666 3.19136C4.02222 2.33047 5.06666 1.90002 6.3 1.90002C7.53333 1.90002 8.58066 2.33047 9.442 3.19136C10.3029 4.05269 10.7333 5.10002 10.7333 6.33336C10.7333 6.82225 10.6584 7.28336 10.5087 7.71669C10.3584 8.15002 10.1556 8.5278 9.9 8.85002L13.6167 12.5834C13.75 12.7167 13.8167 12.8862 13.8167 13.092C13.8167 13.2974 13.7444 13.4722 13.6 13.6167C13.4556 13.7611 13.2751 13.8334 13.0587 13.8334C12.8418 13.8334 12.6667 13.7611 12.5333 13.6167ZM6.3 9.23336C7.11111 9.23336 7.8 8.95269 8.36667 8.39136C8.93333 7.83047 9.21666 7.14447 9.21666 6.33336C9.21666 5.52225 8.93333 4.83602 8.36667 4.27469C7.8 3.7138 7.11111 3.43336 6.3 3.43336C5.48889 3.43336 4.80289 3.7138 4.242 4.27469C3.68066 4.83602 3.4 5.52225 3.4 6.33336C3.4 7.14447 3.68066 7.83047 4.242 8.39136C4.80289 8.95269 5.48889 9.23336 6.3 9.23336Z" fill="black"/>
</svg>
