<svg width="24" height="24" viewBox="0 0 24 24" fill="none" xmlns="http://www.w3.org/2000/svg">
<path d="M18.45 20.85L13.075 15.475C12.5917 15.8083 12.0293 16.075 11.388 16.275C10.746 16.475 10.05 16.575 9.30001 16.575C7.33334 16.575 5.66267 15.8873 4.28801 14.512C2.91267 13.1373 2.22501 11.4667 2.22501 9.49999C2.22501 7.53332 2.91267 5.86232 4.28801 4.48699C5.66267 3.11232 7.33334 2.42499 9.30001 2.42499C11.2667 2.42499 12.9373 3.11232 14.312 4.48699C15.6873 5.86232 16.375 7.53332 16.375 9.49999C16.375 10.2667 16.275 10.9623 16.075 11.587C15.875 12.2123 15.6083 12.7583 15.275 13.225L20.7 18.675C21 18.975 21.146 19.3373 21.138 19.762C21.1293 20.1873 20.975 20.55 20.675 20.85C20.375 21.15 20.004 21.3 19.562 21.3C19.1207 21.3 18.75 21.15 18.45 20.85ZM9.30001 13.425C10.4 13.425 11.3293 13.0457 12.088 12.287C12.846 11.529 13.225 10.6 13.225 9.49999C13.225 8.39999 12.846 7.47065 12.088 6.71199C11.3293 5.95399 10.4 5.57499 9.30001 5.57499C8.20001 5.57499 7.27101 5.95399 6.51301 6.71199C5.75434 7.47065 5.37501 8.39999 5.37501 9.49999C5.37501 10.6 5.75434 11.529 6.51301 12.287C7.27101 13.0457 8.20001 13.425 9.30001 13.425Z" fill="black"/>
</svg>
