<svg width="28" height="28" viewBox="0 0 28 28" fill="none" xmlns="http://www.w3.org/2000/svg">
<path d="M21.9333 23.8292L15.4583 17.3542C14.875 17.8014 14.2042 18.1611 13.4458 18.4333C12.6875 18.7056 11.8806 18.8417 11.025 18.8417C8.86667 18.8417 7.03889 18.088 5.54167 16.5807C4.04445 15.0741 3.29584 13.2417 3.29584 11.0833C3.29584 8.92501 4.04445 7.09218 5.54167 5.58485C7.03889 4.07829 8.86667 3.32501 11.025 3.32501C13.1833 3.32501 15.0162 4.07829 16.5235 5.58485C18.0301 7.09218 18.7833 8.92501 18.7833 11.0833C18.7833 11.9389 18.6523 12.7458 18.3902 13.5042C18.1273 14.2625 17.7722 14.9236 17.325 15.4875L23.8292 22.0208C24.0625 22.2542 24.1792 22.5509 24.1792 22.911C24.1792 23.2703 24.0528 23.5764 23.8 23.8292C23.5472 24.082 23.2314 24.2083 22.8527 24.2083C22.4731 24.2083 22.1667 24.082 21.9333 23.8292ZM11.025 16.1583C12.4444 16.1583 13.65 15.6672 14.6417 14.6848C15.6333 13.7033 16.1292 12.5028 16.1292 11.0833C16.1292 9.6639 15.6333 8.46301 14.6417 7.48068C13.65 6.49912 12.4444 6.00835 11.025 6.00835C9.60556 6.00835 8.40506 6.49912 7.4235 7.48068C6.44117 8.46301 5.95 9.6639 5.95 11.0833C5.95 12.5028 6.44117 13.7033 7.4235 14.6848C8.40506 15.6672 9.60556 16.1583 11.025 16.1583Z" fill="black"/>
</svg>
