<svg width="16" height="16" viewBox="0 0 16 16" fill="none" xmlns="http://www.w3.org/2000/svg">
<path d="M12.3 13.9L8.71667 10.3166C8.39445 10.5389 8.01956 10.7166 7.592 10.85C7.164 10.9833 6.7 11.05 6.2 11.05C4.88889 11.05 3.77512 10.5915 2.85867 9.67464C1.94178 8.75819 1.48334 7.64442 1.48334 6.3333C1.48334 5.02219 1.94178 3.90819 2.85867 2.9913C3.77512 2.07486 4.88889 1.61664 6.2 1.61664C7.51112 1.61664 8.62489 2.07486 9.54134 2.9913C10.4582 3.90819 10.9167 5.02219 10.9167 6.3333C10.9167 6.84442 10.85 7.30819 10.7167 7.72464C10.5833 8.14153 10.4056 8.50553 10.1833 8.81664L13.8 12.45C14 12.65 14.0973 12.8915 14.092 13.1746C14.0862 13.4582 13.9833 13.7 13.7833 13.9C13.5833 14.1 13.336 14.2 13.0413 14.2C12.7471 14.2 12.5 14.1 12.3 13.9V13.9ZM6.2 8.94997C6.93334 8.94997 7.55289 8.69708 8.05867 8.1913C8.564 7.68597 8.81667 7.06664 8.81667 6.3333C8.81667 5.59997 8.564 4.98042 8.05867 4.47464C7.55289 3.9693 6.93334 3.71664 6.2 3.71664C5.46667 3.71664 4.84734 3.9693 4.342 4.47464C3.83623 4.98042 3.58334 5.59997 3.58334 6.3333C3.58334 7.06664 3.83623 7.68597 4.342 8.1913C4.84734 8.69708 5.46667 8.94997 6.2 8.94997Z" fill="black"/>
</svg>
