<svg width="28" height="28" viewBox="0 0 28 28" fill="none" xmlns="http://www.w3.org/2000/svg">
<path d="M21.525 24.325L15.2542 18.0542C14.6903 18.4431 14.0342 18.7542 13.286 18.9875C12.537 19.2208 11.725 19.3375 10.85 19.3375C8.55555 19.3375 6.60644 18.5352 5.00266 16.9307C3.3981 15.3269 2.59583 13.3778 2.59583 11.0833C2.59583 8.78888 3.3981 6.83939 5.00266 5.23483C6.60644 3.63105 8.55555 2.82916 10.85 2.82916C13.1444 2.82916 15.0935 3.63105 16.6973 5.23483C18.3019 6.83939 19.1042 8.78888 19.1042 11.0833C19.1042 11.9778 18.9875 12.7894 18.7542 13.5182C18.5208 14.2477 18.2097 14.8847 17.8208 15.4292L24.15 21.7875C24.5 22.1375 24.6703 22.5602 24.661 23.0557C24.6509 23.5519 24.4708 23.975 24.1208 24.325C23.7708 24.675 23.338 24.85 22.8223 24.85C22.3074 24.85 21.875 24.675 21.525 24.325V24.325ZM10.85 15.6625C12.1333 15.6625 13.2175 15.2199 14.1027 14.3348C14.987 13.4505 15.4292 12.3667 15.4292 11.0833C15.4292 9.8 14.987 8.71577 14.1027 7.83066C13.2175 6.94633 12.1333 6.50416 10.85 6.50416C9.56666 6.50416 8.48283 6.94633 7.59849 7.83066C6.71338 8.71577 6.27083 9.8 6.27083 11.0833C6.27083 12.3667 6.71338 13.4505 7.59849 14.3348C8.48283 15.2199 9.56666 15.6625 10.85 15.6625Z" fill="black"/>
</svg>
