<svg width="28" height="28" viewBox="0 0 28 28" fill="none" xmlns="http://www.w3.org/2000/svg">
<path fill-rule="evenodd" clip-rule="evenodd" d="M22.1667 8.16667C23.4553 8.16667 24.5 9.21134 24.5 10.5V22.1667C24.5 23.4553 23.4553 24.5 22.1667 24.5H5.83333L5.59521 24.4875C4.41843 24.3682 3.5 23.3749 3.5 22.1667V10.5C3.5 9.21134 4.54467 8.16667 5.83333 8.16667H22.1667ZM5.83333 22.1667H22.1667V10.5H5.83333V22.1667Z" fill="#191919"/>
<path d="M14 3.5C14.6443 3.5 15.1667 4.02233 15.1667 4.66667C15.1667 5.311 14.6443 5.83333 14 5.83333H4.66667C4.02233 5.83333 3.5 5.311 3.5 4.66667C3.5 4.02233 4.02233 3.5 4.66667 3.5H14Z" fill="#191919"/>
</svg>
