<svg width="16" height="16" viewBox="0 0 16 16" fill="none" xmlns="http://www.w3.org/2000/svg">
<path fill-rule="evenodd" clip-rule="evenodd" d="M12.6667 4.66667C13.403 4.66667 14 5.26362 14 6V12.6667C14 13.403 13.403 14 12.6667 14H3.33333L3.19727 13.9928C2.52482 13.9247 2 13.3571 2 12.6667V6C2 5.26362 2.59695 4.66667 3.33333 4.66667H12.6667ZM3.33333 12.6667H12.6667V6H3.33333V12.6667Z" fill="#191919"/>
<path d="M8 2C8.36819 2 8.66667 2.29848 8.66667 2.66667C8.66667 3.03486 8.36819 3.33333 8 3.33333H2.66667C2.29848 3.33333 2 3.03486 2 2.66667C2 2.29848 2.29848 2 2.66667 2H8Z" fill="#191919"/>
</svg>
