<svg width="24" height="24" viewBox="0 0 24 24" fill="none" xmlns="http://www.w3.org/2000/svg">
<path d="M11.1 14.9999H12.9C13.05 14.9999 13.1792 14.9374 13.2875 14.8124C13.3958 14.6874 13.4333 14.5499 13.4 14.3999L12.925 11.7749C13.2583 11.6082 13.5208 11.3666 13.7125 11.0499C13.9042 10.7332 14 10.3832 14 9.9999C14 9.4499 13.8042 8.97907 13.4125 8.5874C13.0208 8.19574 12.55 7.9999 12 7.9999C11.45 7.9999 10.9792 8.19574 10.5875 8.5874C10.1958 8.97907 10 9.4499 10 9.9999C10 10.3832 10.0958 10.7332 10.2875 11.0499C10.4792 11.3666 10.7417 11.6082 11.075 11.7749L10.6 14.3999C10.5667 14.5499 10.6042 14.6874 10.7125 14.8124C10.8208 14.9374 10.95 14.9999 11.1 14.9999ZM12 21.8999C11.8833 21.8999 11.775 21.8916 11.675 21.8749C11.575 21.8582 11.475 21.8332 11.375 21.7999C9.125 21.0499 7.33333 19.6624 6 17.6374C4.66667 15.6124 4 13.4332 4 11.0999V6.3749C4 5.95824 4.12083 5.58324 4.3625 5.2499C4.60417 4.91657 4.91667 4.6749 5.3 4.5249L11.3 2.2749C11.5333 2.19157 11.7667 2.1499 12 2.1499C12.2333 2.1499 12.4667 2.19157 12.7 2.2749L18.7 4.5249C19.0833 4.6749 19.3958 4.91657 19.6375 5.2499C19.8792 5.58324 20 5.95824 20 6.3749V11.0999C20 13.4332 19.3333 15.6124 18 17.6374C16.6667 19.6624 14.875 21.0499 12.625 21.7999C12.525 21.8332 12.425 21.8582 12.325 21.8749C12.225 21.8916 12.1167 21.8999 12 21.8999ZM12 19.8999C13.7333 19.3499 15.1667 18.2499 16.3 16.5999C17.4333 14.9499 18 13.1166 18 11.0999V6.3749L12 4.1249L6 6.3749V11.0999C6 13.1166 6.56667 14.9499 7.7 16.5999C8.83333 18.2499 10.2667 19.3499 12 19.8999Z" fill="black"/>
</svg>
