<svg width="16" height="16" viewBox="0 0 16 16" fill="none" xmlns="http://www.w3.org/2000/svg">
<path d="M7.39996 9.99977H8.59996C8.69996 9.99977 8.78607 9.95811 8.85829 9.87477C8.93052 9.79144 8.95552 9.69977 8.93329 9.59977L8.61663 7.84977C8.83885 7.73866 9.01385 7.57755 9.14163 7.36644C9.2694 7.15533 9.33329 6.92199 9.33329 6.66644C9.33329 6.29977 9.20274 5.98588 8.94163 5.72477C8.68052 5.46366 8.36663 5.33311 7.99996 5.33311C7.63329 5.33311 7.3194 5.46366 7.05829 5.72477C6.79718 5.98588 6.66663 6.29977 6.66663 6.66644C6.66663 6.92199 6.73051 7.15533 6.85829 7.36644C6.98607 7.57755 7.16107 7.73866 7.38329 7.84977L7.06663 9.59977C7.0444 9.69977 7.0694 9.79144 7.14163 9.87477C7.21385 9.95811 7.29996 9.99977 7.39996 9.99977ZM7.99996 14.5998C7.92218 14.5998 7.84996 14.5942 7.78329 14.5831C7.71663 14.572 7.64996 14.5553 7.58329 14.5331C6.08329 14.0331 4.88885 13.1081 3.99996 11.7581C3.11107 10.4081 2.66663 8.95533 2.66663 7.39977V4.24977C2.66663 3.97199 2.74718 3.72199 2.90829 3.49977C3.0694 3.27755 3.27774 3.11644 3.53329 3.01644L7.53329 1.51644C7.68885 1.46088 7.8444 1.43311 7.99996 1.43311C8.15552 1.43311 8.31107 1.46088 8.46663 1.51644L12.4666 3.01644C12.7222 3.11644 12.9305 3.27755 13.0916 3.49977C13.2527 3.72199 13.3333 3.97199 13.3333 4.24977V7.39977C13.3333 8.95533 12.8888 10.4081 12 11.7581C11.1111 13.1081 9.91663 14.0331 8.41663 14.5331C8.34996 14.5553 8.28329 14.572 8.21663 14.5831C8.14996 14.5942 8.07774 14.5998 7.99996 14.5998ZM7.99996 13.2664C9.15552 12.8998 10.1111 12.1664 10.8666 11.0664C11.6222 9.96644 12 8.74422 12 7.39977V4.24977L7.99996 2.74977L3.99996 4.24977V7.39977C3.99996 8.74422 4.37774 9.96644 5.13329 11.0664C5.88885 12.1664 6.8444 12.8998 7.99996 13.2664Z" fill="black"/>
</svg>
