<svg width="28" height="28" viewBox="0 0 28 28" fill="none" xmlns="http://www.w3.org/2000/svg">
<path d="M12.95 17.5H15.05C15.225 17.5 15.3757 17.4271 15.502 17.2812C15.6284 17.1354 15.6722 16.975 15.6333 16.8L15.0791 13.7375C15.468 13.543 15.7743 13.2611 15.9979 12.8916C16.2215 12.5222 16.3333 12.1139 16.3333 11.6666C16.3333 11.025 16.1048 10.4757 15.6479 10.0187C15.1909 9.56177 14.6416 9.3333 14 9.3333C13.3583 9.3333 12.809 9.56177 12.352 10.0187C11.8951 10.4757 11.6666 11.025 11.6666 11.6666C11.6666 12.1139 11.7784 12.5222 12.002 12.8916C12.2257 13.2611 12.5319 13.543 12.9208 13.7375L12.3666 16.8C12.3277 16.975 12.3715 17.1354 12.4979 17.2812C12.6243 17.4271 12.775 17.5 12.95 17.5ZM14 25.55C13.8638 25.55 13.7375 25.5402 13.6208 25.5208C13.5041 25.5014 13.3875 25.4722 13.2708 25.4333C10.6458 24.5583 8.55551 22.9396 6.99996 20.5771C5.4444 18.2146 4.66663 15.6722 4.66663 12.95V7.43747C4.66663 6.95136 4.8076 6.51386 5.08954 6.12497C5.37149 5.73608 5.73607 5.45413 6.18329 5.27913L13.1833 2.65413C13.4555 2.55691 13.7277 2.5083 14 2.5083C14.2722 2.5083 14.5444 2.55691 14.8166 2.65413L21.8166 5.27913C22.2638 5.45413 22.6284 5.73608 22.9104 6.12497C23.1923 6.51386 23.3333 6.95136 23.3333 7.43747V12.95C23.3333 15.6722 22.5555 18.2146 21 20.5771C19.4444 22.9396 17.3541 24.5583 14.7291 25.4333C14.6125 25.4722 14.4958 25.5014 14.3791 25.5208C14.2625 25.5402 14.1361 25.55 14 25.55ZM14 23.2166C16.0222 22.575 17.6944 21.2916 19.0166 19.3666C20.3388 17.4416 21 15.3027 21 12.95V7.43747L14 4.81247L6.99996 7.43747V12.95C6.99996 15.3027 7.66107 17.4416 8.98329 19.3666C10.3055 21.2916 11.9777 22.575 14 23.2166Z" fill="black"/>
</svg>
