<svg width="24" height="24" viewBox="0 0 24 24" fill="none" xmlns="http://www.w3.org/2000/svg">
<path d="M4 5C3.71667 5 3.47917 4.90417 3.2875 4.7125C3.09583 4.52083 3 4.28333 3 4C3 3.71667 3.09583 3.47917 3.2875 3.2875C3.47917 3.09583 3.71667 3 4 3C4.28333 3 4.52083 3.09583 4.7125 3.2875C4.90417 3.47917 5 3.71667 5 4C5 4.28333 4.90417 4.52083 4.7125 4.7125C4.52083 4.90417 4.28333 5 4 5ZM8 5C7.71667 5 7.47917 4.90417 7.2875 4.7125C7.09583 4.52083 7 4.28333 7 4C7 3.71667 7.09583 3.47917 7.2875 3.2875C7.47917 3.09583 7.71667 3 8 3C8.28333 3 8.52083 3.09583 8.7125 3.2875C8.90417 3.47917 9 3.71667 9 4C9 4.28333 8.90417 4.52083 8.7125 4.7125C8.52083 4.90417 8.28333 5 8 5ZM4 9C3.71667 9 3.47917 8.90417 3.2875 8.7125C3.09583 8.52083 3 8.28333 3 8C3 7.71667 3.09583 7.47917 3.2875 7.2875C3.47917 7.09583 3.71667 7 4 7C4.28333 7 4.52083 7.09583 4.7125 7.2875C4.90417 7.47917 5 7.71667 5 8C5 8.28333 4.90417 8.52083 4.7125 8.7125C4.52083 8.90417 4.28333 9 4 9ZM4 13C3.71667 13 3.47917 12.9042 3.2875 12.7125C3.09583 12.5208 3 12.2833 3 12C3 11.7167 3.09583 11.4792 3.2875 11.2875C3.47917 11.0958 3.71667 11 4 11C4.28333 11 4.52083 11.0958 4.7125 11.2875C4.90417 11.4792 5 11.7167 5 12C5 12.2833 4.90417 12.5208 4.7125 12.7125C4.52083 12.9042 4.28333 13 4 13ZM4 17C3.71667 17 3.47917 16.9042 3.2875 16.7125C3.09583 16.5208 3 16.2833 3 16C3 15.7167 3.09583 15.4792 3.2875 15.2875C3.47917 15.0958 3.71667 15 4 15C4.28333 15 4.52083 15.0958 4.7125 15.2875C4.90417 15.4792 5 15.7167 5 16C5 16.2833 4.90417 16.5208 4.7125 16.7125C4.52083 16.9042 4.28333 17 4 17ZM20 17C19.7167 17 19.4792 16.9042 19.2875 16.7125C19.0958 16.5208 19 16.2833 19 16C19 15.7167 19.0958 15.4792 19.2875 15.2875C19.4792 15.0958 19.7167 15 20 15C20.2833 15 20.5208 15.0958 20.7125 15.2875C20.9042 15.4792 21 15.7167 21 16C21 16.2833 20.9042 16.5208 20.7125 16.7125C20.5208 16.9042 20.2833 17 20 17ZM4 21C3.71667 21 3.47917 20.9042 3.2875 20.7125C3.09583 20.5208 3 20.2833 3 20C3 19.7167 3.09583 19.4792 3.2875 19.2875C3.47917 19.0958 3.71667 19 4 19C4.28333 19 4.52083 19.0958 4.7125 19.2875C4.90417 19.4792 5 19.7167 5 20C5 20.2833 4.90417 20.5208 4.7125 20.7125C4.52083 20.9042 4.28333 21 4 21ZM8 21C7.71667 21 7.47917 20.9042 7.2875 20.7125C7.09583 20.5208 7 20.2833 7 20C7 19.7167 7.09583 19.4792 7.2875 19.2875C7.47917 19.0958 7.71667 19 8 19C8.28333 19 8.52083 19.0958 8.7125 19.2875C8.90417 19.4792 9 19.7167 9 20C9 20.2833 8.90417 20.5208 8.7125 20.7125C8.52083 20.9042 8.28333 21 8 21ZM12 21C11.7167 21 11.4792 20.9042 11.2875 20.7125C11.0958 20.5208 11 20.2833 11 20C11 19.7167 11.0958 19.4792 11.2875 19.2875C11.4792 19.0958 11.7167 19 12 19C12.2833 19 12.5208 19.0958 12.7125 19.2875C12.9042 19.4792 13 19.7167 13 20C13 20.2833 12.9042 20.5208 12.7125 20.7125C12.5208 20.9042 12.2833 21 12 21ZM16 21C15.7167 21 15.4792 20.9042 15.2875 20.7125C15.0958 20.5208 15 20.2833 15 20C15 19.7167 15.0958 19.4792 15.2875 19.2875C15.4792 19.0958 15.7167 19 16 19C16.2833 19 16.5208 19.0958 16.7125 19.2875C16.9042 19.4792 17 19.7167 17 20C17 20.2833 16.9042 20.5208 16.7125 20.7125C16.5208 20.9042 16.2833 21 16 21ZM20 21C19.7167 21 19.4792 20.9042 19.2875 20.7125C19.0958 20.5208 19 20.2833 19 20C19 19.7167 19.0958 19.4792 19.2875 19.2875C19.4792 19.0958 19.7167 19 20 19C20.2833 19 20.5208 19.0958 20.7125 19.2875C20.9042 19.4792 21 19.7167 21 20C21 20.2833 20.9042 20.5208 20.7125 20.7125C20.5208 20.9042 20.2833 21 20 21Z" fill="#191919"/>
<path d="M9 14.025V11.6C9 11.3333 9.05 11.0792 9.15 10.8375C9.25 10.5958 9.39167 10.3833 9.575 10.2L18.175 1.6C18.375 1.4 18.6 1.25 18.85 1.15C19.1 1.05 19.35 1 19.6 1C19.8667 1 20.1208 1.05 20.3625 1.15C20.6042 1.25 20.825 1.4 21.025 1.6L22.425 3.025C22.6083 3.225 22.75 3.44583 22.85 3.6875C22.95 3.92917 23 4.175 23 4.425C23 4.675 22.9542 4.92083 22.8625 5.1625C22.7708 5.40417 22.625 5.625 22.425 5.825L13.825 14.425C13.6417 14.6083 13.4292 14.7542 13.1875 14.8625C12.9458 14.9708 12.6917 15.025 12.425 15.025H10C9.71667 15.025 9.47917 14.9292 9.2875 14.7375C9.09583 14.5458 9 14.3083 9 14.025ZM11 13.025H12.4L18.2 7.225L17.5 6.525L16.775 5.825L11 11.6V13.025Z" fill="#191919"/>
</svg>
