<svg width="24" height="24" viewBox="0 0 24 24" fill="none" xmlns="http://www.w3.org/2000/svg">
<path d="M3.2875 4.7125Q3 4.425 3 4t0.2875-0.7125Q3.575 3 4 3t0.7125 0.2875Q5 3.575 5 4t-0.2875 0.7125Q4.425 5 4 5t-0.7125-0.2875Zm4 0Q7 4.425 7 4t0.2875-0.7125Q7.575 3 8 3t0.7125 0.2875Q9 3.575 9 4t-0.2875 0.7125Q8.425 5 8 5t-0.7125-0.2875Zm4 0Q11 4.425 11 4t0.2875-0.7125Q11.575 3 12 3t0.7125 0.2875Q13 3.575 13 4t-0.2875 0.7125Q12.425 5 12 5t-0.7125-0.2875Zm4 0Q15 4.425 15 4t0.2875-0.7125Q15.575 3 16 3t0.7125 0.2875Q17 3.575 17 4t-0.2875 0.7125Q16.425 5 16 5t-0.7125-0.2875Zm4 0Q19 4.425 19 4t0.2875-0.7125Q19.575 3 20 3t0.7125 0.2875Q21 3.575 21 4t-0.2875 0.7125Q20.425 5 20 5t-0.7125-0.2875Zm-16 4Q3 8.425 3 8t0.2875-0.7125Q3.575 7 4 7t0.7125 0.2875Q5 7.575 5 8t-0.2875 0.7125Q4.425 9 4 9t-0.7125-0.2875Zm16 0Q19 8.425 19 8t0.2875-0.7125Q19.575 7 20 7t0.7125 0.2875Q21 7.575 21 8t-0.2875 0.7125Q20.425 9 20 9t-0.7125-0.2875Zm-16 4Q3 12.425 3 12t0.2875-0.7125Q3.575 11 4 11t0.7125 0.2875Q5 11.575 5 12t-0.2875 0.7125Q4.425 13 4 13t-0.7125-0.2875Zm16 0Q19 12.425 19 12t0.2875-0.7125Q19.575 11 20 11t0.7125 0.2875Q21 11.575 21 12t-0.2875 0.7125Q20.425 13 20 13t-0.7125-0.2875Zm-16 4Q3 16.425 3 16t0.2875-0.7125Q3.575 15 4 15t0.7125 0.2875Q5 15.575 5 16t-0.2875 0.7125Q4.425 17 4 17t-0.7125-0.2875Zm16 0Q19 16.425 19 16t0.2875-0.7125Q19.575 15 20 15t0.7125 0.2875Q21 15.575 21 16t-0.2875 0.7125Q20.425 17 20 17t-0.7125-0.2875Zm-16 4Q3 20.425 3 20t0.2875-0.7125Q3.575 19 4 19t0.7125 0.2875Q5 19.575 5 20t-0.2875 0.7125Q4.425 21 4 21t-0.7125-0.2875Zm4 0Q7 20.425 7 20t0.2875-0.7125Q7.575 19 8 19t0.7125 0.2875Q9 19.575 9 20t-0.2875 0.7125Q8.425 21 8 21t-0.7125-0.2875Zm4 0Q11 20.425 11 20t0.2875-0.7125Q11.575 19 12 19t0.7125 0.2875Q13 19.575 13 20t-0.2875 0.7125Q12.425 21 12 21t-0.7125-0.2875Zm4 0Q15 20.425 15 20t0.2875-0.7125Q15.575 19 16 19t0.7125 0.2875Q17 19.575 17 20t-0.2875 0.7125Q16.425 21 16 21t-0.7125-0.2875Zm4 0Q19 20.425 19 20t0.2875-0.7125Q19.575 19 20 19t0.7125 0.2875Q21 19.575 21 20t-0.2875 0.7125Q20.425 21 20 21t-0.7125-0.2875Z" fill="black"/>
</svg>
