<svg width="28" height="28" viewBox="0 0 28 28" fill="none" xmlns="http://www.w3.org/2000/svg">
<path d="M3.8354 5.4979Q3.5 5.1625 3.5 4.6667t0.3354-0.8313Q4.1708 3.5 4.6667 3.5t0.8312 0.3354Q5.8333 4.1708 5.8333 4.6667t-0.3354 0.8312Q5.1625 5.8333 4.6667 5.8333t-0.8313-0.3354Zm4.6667 0Q8.1667 5.1625 8.1667 4.6667t0.3354-0.8313Q8.8375 3.5 9.3333 3.5t0.8313 0.3354Q10.5 4.1708 10.5 4.6667t-0.3354 0.8312Q9.8292 5.8333 9.3333 5.8333t-0.8312-0.3354Zm4.6667 0Q12.8333 5.1625 12.8333 4.6667t0.3355-0.8313Q13.5042 3.5 14 3.5t0.8313 0.3354Q15.1667 4.1708 15.1667 4.6667t-0.3355 0.8312Q14.4958 5.8333 14 5.8333t-0.8313-0.3354Zm4.6666 0Q17.5 5.1625 17.5 4.6667t0.3354-0.8313Q18.1708 3.5 18.6667 3.5t0.8312 0.3354Q19.8333 4.1708 19.8333 4.6667t-0.3354 0.8312Q19.1625 5.8333 18.6667 5.8333t-0.8313-0.3354Zm4.6667 0Q22.1667 5.1625 22.1667 4.6667t0.3354-0.8313Q22.8375 3.5 23.3333 3.5t0.8313 0.3354Q24.5 4.1708 24.5 4.6667t-0.3354 0.8312Q23.8292 5.8333 23.3333 5.8333t-0.8312-0.3354Zm-18.6667 4.6667Q3.5 9.8292 3.5 9.3333t0.3354-0.8312Q4.1708 8.1667 4.6667 8.1667t0.8312 0.3354Q5.8333 8.8375 5.8333 9.3333t-0.3354 0.8313Q5.1625 10.5 4.6667 10.5t-0.8313-0.3354Zm18.6667 0Q22.1667 9.8292 22.1667 9.3333t0.3354-0.8312Q22.8375 8.1667 23.3333 8.1667t0.8313 0.3354Q24.5 8.8375 24.5 9.3333t-0.3354 0.8313Q23.8292 10.5 23.3333 10.5t-0.8312-0.3354Zm-18.6667 4.6666Q3.5 14.4958 3.5 14t0.3354-0.8313Q4.1708 12.8333 4.6667 12.8333t0.8312 0.3355Q5.8333 13.5042 5.8333 14t-0.3354 0.8313Q5.1625 15.1667 4.6667 15.1667t-0.8313-0.3355Zm18.6667 0Q22.1667 14.4958 22.1667 14t0.3354-0.8313Q22.8375 12.8333 23.3333 12.8333t0.8313 0.3355Q24.5 13.5042 24.5 14t-0.3354 0.8313Q23.8292 15.1667 23.3333 15.1667t-0.8312-0.3355Zm-18.6667 4.6667Q3.5 19.1625 3.5 18.6667t0.3354-0.8313Q4.1708 17.5 4.6667 17.5t0.8312 0.3354Q5.8333 18.1708 5.8333 18.6667t-0.3354 0.8312Q5.1625 19.8333 4.6667 19.8333t-0.8313-0.3354Zm18.6667 0Q22.1667 19.1625 22.1667 18.6667t0.3354-0.8313Q22.8375 17.5 23.3333 17.5t0.8313 0.3354Q24.5 18.1708 24.5 18.6667t-0.3354 0.8312Q23.8292 19.8333 23.3333 19.8333t-0.8312-0.3354Zm-18.6667 4.6667Q3.5 23.8292 3.5 23.3333t0.3354-0.8312Q4.1708 22.1667 4.6667 22.1667t0.8312 0.3354Q5.8333 22.8375 5.8333 23.3333t-0.3354 0.8313Q5.1625 24.5 4.6667 24.5t-0.8313-0.3354Zm4.6667 0Q8.1667 23.8292 8.1667 23.3333t0.3354-0.8312Q8.8375 22.1667 9.3333 22.1667t0.8313 0.3354Q10.5 22.8375 10.5 23.3333t-0.3354 0.8313Q9.8292 24.5 9.3333 24.5t-0.8312-0.3354Zm4.6667 0Q12.8333 23.8292 12.8333 23.3333t0.3355-0.8312Q13.5042 22.1667 14 22.1667t0.8313 0.3354Q15.1667 22.8375 15.1667 23.3333t-0.3355 0.8313Q14.4958 24.5 14 24.5t-0.8313-0.3354Zm4.6666 0Q17.5 23.8292 17.5 23.3333t0.3354-0.8312Q18.1708 22.1667 18.6667 22.1667t0.8312 0.3354Q19.8333 22.8375 19.8333 23.3333t-0.3354 0.8313Q19.1625 24.5 18.6667 24.5t-0.8313-0.3354Zm4.6667 0Q22.1667 23.8292 22.1667 23.3333t0.3354-0.8312Q22.8375 22.1667 23.3333 22.1667t0.8313 0.3354Q24.5 22.8375 24.5 23.3333t-0.3354 0.8313Q23.8292 24.5 23.3333 24.5t-0.8312-0.3354Z" fill="black"/>
</svg>
