<svg width="28" height="28" viewBox="0 0 28 28" fill="none" xmlns="http://www.w3.org/2000/svg">
<path d="M4.66667 5.83317C4.33611 5.83317 4.05903 5.72137 3.83542 5.49775C3.61181 5.27414 3.5 4.99706 3.5 4.6665C3.5 4.33595 3.61181 4.05887 3.83542 3.83525C4.05903 3.61164 4.33611 3.49984 4.66667 3.49984C4.99722 3.49984 5.27431 3.61164 5.49792 3.83525C5.72153 4.05887 5.83333 4.33595 5.83333 4.6665C5.83333 4.99706 5.72153 5.27414 5.49792 5.49775C5.27431 5.72137 4.99722 5.83317 4.66667 5.83317ZM9.33333 5.83317C9.00278 5.83317 8.72569 5.72137 8.50208 5.49775C8.27847 5.27414 8.16667 4.99706 8.16667 4.6665C8.16667 4.33595 8.27847 4.05887 8.50208 3.83525C8.72569 3.61164 9.00278 3.49984 9.33333 3.49984C9.66389 3.49984 9.94097 3.61164 10.1646 3.83525C10.3882 4.05887 10.5 4.33595 10.5 4.6665C10.5 4.99706 10.3882 5.27414 10.1646 5.49775C9.94097 5.72137 9.66389 5.83317 9.33333 5.83317ZM4.66667 10.4998C4.33611 10.4998 4.05903 10.388 3.83542 10.1644C3.61181 9.94081 3.5 9.66373 3.5 9.33317C3.5 9.00262 3.61181 8.72553 3.83542 8.50192C4.05903 8.27831 4.33611 8.1665 4.66667 8.1665C4.99722 8.1665 5.27431 8.27831 5.49792 8.50192C5.72153 8.72553 5.83333 9.00262 5.83333 9.33317C5.83333 9.66373 5.72153 9.94081 5.49792 10.1644C5.27431 10.388 4.99722 10.4998 4.66667 10.4998ZM4.66667 15.1665C4.33611 15.1665 4.05903 15.0547 3.83542 14.8311C3.61181 14.6075 3.5 14.3304 3.5 13.9998C3.5 13.6693 3.61181 13.3922 3.83542 13.1686C4.05903 12.945 4.33611 12.8332 4.66667 12.8332C4.99722 12.8332 5.27431 12.945 5.49792 13.1686C5.72153 13.3922 5.83333 13.6693 5.83333 13.9998C5.83333 14.3304 5.72153 14.6075 5.49792 14.8311C5.27431 15.0547 4.99722 15.1665 4.66667 15.1665ZM4.66667 19.8332C4.33611 19.8332 4.05903 19.7214 3.83542 19.4978C3.61181 19.2741 3.5 18.9971 3.5 18.6665C3.5 18.3359 3.61181 18.0589 3.83542 17.8353C4.05903 17.6116 4.33611 17.4998 4.66667 17.4998C4.99722 17.4998 5.27431 17.6116 5.49792 17.8353C5.72153 18.0589 5.83333 18.3359 5.83333 18.6665C5.83333 18.9971 5.72153 19.2741 5.49792 19.4978C5.27431 19.7214 4.99722 19.8332 4.66667 19.8332ZM23.3333 19.8332C23.0028 19.8332 22.7257 19.7214 22.5021 19.4978C22.2785 19.2741 22.1667 18.9971 22.1667 18.6665C22.1667 18.3359 22.2785 18.0589 22.5021 17.8353C22.7257 17.6116 23.0028 17.4998 23.3333 17.4998C23.6639 17.4998 23.941 17.6116 24.1646 17.8353C24.3882 18.0589 24.5 18.3359 24.5 18.6665C24.5 18.9971 24.3882 19.2741 24.1646 19.4978C23.941 19.7214 23.6639 19.8332 23.3333 19.8332ZM4.66667 24.4998C4.33611 24.4998 4.05903 24.388 3.83542 24.1644C3.61181 23.9408 3.5 23.6637 3.5 23.3332C3.5 23.0026 3.61181 22.7255 3.83542 22.5019C4.05903 22.2783 4.33611 22.1665 4.66667 22.1665C4.99722 22.1665 5.27431 22.2783 5.49792 22.5019C5.72153 22.7255 5.83333 23.0026 5.83333 23.3332C5.83333 23.6637 5.72153 23.9408 5.49792 24.1644C5.27431 24.388 4.99722 24.4998 4.66667 24.4998ZM9.33333 24.4998C9.00278 24.4998 8.72569 24.388 8.50208 24.1644C8.27847 23.9408 8.16667 23.6637 8.16667 23.3332C8.16667 23.0026 8.27847 22.7255 8.50208 22.5019C8.72569 22.2783 9.00278 22.1665 9.33333 22.1665C9.66389 22.1665 9.94097 22.2783 10.1646 22.5019C10.3882 22.7255 10.5 23.0026 10.5 23.3332C10.5 23.6637 10.3882 23.9408 10.1646 24.1644C9.94097 24.388 9.66389 24.4998 9.33333 24.4998ZM14 24.4998C13.6694 24.4998 13.3924 24.388 13.1688 24.1644C12.9451 23.9408 12.8333 23.6637 12.8333 23.3332C12.8333 23.0026 12.9451 22.7255 13.1688 22.5019C13.3924 22.2783 13.6694 22.1665 14 22.1665C14.3306 22.1665 14.6076 22.2783 14.8313 22.5019C15.0549 22.7255 15.1667 23.0026 15.1667 23.3332C15.1667 23.6637 15.0549 23.9408 14.8313 24.1644C14.6076 24.388 14.3306 24.4998 14 24.4998ZM18.6667 24.4998C18.3361 24.4998 18.059 24.388 17.8354 24.1644C17.6118 23.9408 17.5 23.6637 17.5 23.3332C17.5 23.0026 17.6118 22.7255 17.8354 22.5019C18.059 22.2783 18.3361 22.1665 18.6667 22.1665C18.9972 22.1665 19.2743 22.2783 19.4979 22.5019C19.7215 22.7255 19.8333 23.0026 19.8333 23.3332C19.8333 23.6637 19.7215 23.9408 19.4979 24.1644C19.2743 24.388 18.9972 24.4998 18.6667 24.4998ZM23.3333 24.4998C23.0028 24.4998 22.7257 24.388 22.5021 24.1644C22.2785 23.9408 22.1667 23.6637 22.1667 23.3332C22.1667 23.0026 22.2785 22.7255 22.5021 22.5019C22.7257 22.2783 23.0028 22.1665 23.3333 22.1665C23.6639 22.1665 23.941 22.2783 24.1646 22.5019C24.3882 22.7255 24.5 23.0026 24.5 23.3332C24.5 23.6637 24.3882 23.9408 24.1646 24.1644C23.941 24.388 23.6639 24.4998 23.3333 24.4998Z" fill="#191919"/>
<path d="M10.5 16.3623V13.5332C10.5 13.2221 10.5583 12.9255 10.675 12.6436C10.7917 12.3616 10.9569 12.1137 11.1708 11.8998L21.2042 1.8665C21.4375 1.63317 21.7 1.45817 21.9917 1.3415C22.2833 1.22484 22.575 1.1665 22.8667 1.1665C23.1778 1.1665 23.4743 1.22484 23.7563 1.3415C24.0382 1.45817 24.2958 1.63317 24.5292 1.8665L26.1625 3.529C26.3764 3.76234 26.5417 4.01998 26.6583 4.30192C26.775 4.58387 26.8333 4.87067 26.8333 5.16234C26.8333 5.454 26.7799 5.74081 26.6729 6.02275C26.566 6.3047 26.3958 6.56234 26.1625 6.79567L16.1292 16.829C15.9153 17.0429 15.6674 17.213 15.3854 17.3394C15.1035 17.4658 14.8069 17.529 14.4958 17.529H11.6667C11.3361 17.529 11.059 17.4172 10.8354 17.1936C10.6118 16.97 10.5 16.6929 10.5 16.3623ZM12.8333 15.1957H14.4667L21.2333 8.429L20.4167 7.61234L19.5708 6.79567L12.8333 13.5332V15.1957Z" fill="#191919"/>
</svg>
