<svg width="16" height="16" viewBox="0 0 16 16" fill="none" xmlns="http://www.w3.org/2000/svg">
<path d="M2.1917 3.1417Q2 2.95 2 2.6667t0.1917-0.475Q2.3833 2 2.6667 2t0.475 0.1917Q3.3333 2.3833 3.3333 2.6667t-0.1916 0.475Q2.95 3.3333 2.6667 3.3333t-0.475-0.1916Zm2.6666 0Q4.6667 2.95 4.6667 2.6667t0.1916-0.475Q5.05 2 5.3333 2t0.475 0.1917Q6 2.3833 6 2.6667t-0.1917 0.475Q5.6167 3.3333 5.3333 3.3333t-0.475-0.1916Zm2.6667 0Q7.3333 2.95 7.3333 2.6667t0.1917-0.475Q7.7167 2 8 2t0.475 0.1917Q8.6667 2.3833 8.6667 2.6667t-0.1917 0.475Q8.2833 3.3333 8 3.3333t-0.475-0.1916Zm2.6667 0Q10 2.95 10 2.6667t0.1917-0.475Q10.3833 2 10.6667 2t0.475 0.1917Q11.3333 2.3833 11.3333 2.6667t-0.1916 0.475Q10.95 3.3333 10.6667 3.3333t-0.475-0.1916Zm2.6666 0Q12.6667 2.95 12.6667 2.6667t0.1916-0.475Q13.05 2 13.3333 2t0.475 0.1917Q14 2.3833 14 2.6667t-0.1917 0.475Q13.6167 3.3333 13.3333 3.3333t-0.475-0.1916Zm-10.6666 2.6666Q2 5.6167 2 5.3333t0.1917-0.475Q2.3833 4.6667 2.6667 4.6667t0.475 0.1916Q3.3333 5.05 3.3333 5.3333t-0.1916 0.475Q2.95 6 2.6667 6t-0.475-0.1917Zm10.6666 0Q12.6667 5.6167 12.6667 5.3333t0.1916-0.475Q13.05 4.6667 13.3333 4.6667t0.475 0.1916Q14 5.05 14 5.3333t-0.1917 0.475Q13.6167 6 13.3333 6t-0.475-0.1917Zm-10.6666 2.6667Q2 8.2833 2 8t0.1917-0.475Q2.3833 7.3333 2.6667 7.3333t0.475 0.1917Q3.3333 7.7167 3.3333 8t-0.1916 0.475Q2.95 8.6667 2.6667 8.6667t-0.475-0.1917Zm10.6666 0Q12.6667 8.2833 12.6667 8t0.1916-0.475Q13.05 7.3333 13.3333 7.3333t0.475 0.1917Q14 7.7167 14 8t-0.1917 0.475Q13.6167 8.6667 13.3333 8.6667t-0.475-0.1917Zm-10.6666 2.6667Q2 10.95 2 10.6667t0.1917-0.475Q2.3833 10 2.6667 10t0.475 0.1917Q3.3333 10.3833 3.3333 10.6667t-0.1916 0.475Q2.95 11.3333 2.6667 11.3333t-0.475-0.1916Zm10.6666 0Q12.6667 10.95 12.6667 10.6667t0.1916-0.475Q13.05 10 13.3333 10t0.475 0.1917Q14 10.3833 14 10.6667t-0.1917 0.475Q13.6167 11.3333 13.3333 11.3333t-0.475-0.1916Zm-10.6666 2.6666Q2 13.6167 2 13.3333t0.1917-0.475Q2.3833 12.6667 2.6667 12.6667t0.475 0.1916Q3.3333 13.05 3.3333 13.3333t-0.1916 0.475Q2.95 14 2.6667 14t-0.475-0.1917Zm2.6666 0Q4.6667 13.6167 4.6667 13.3333t0.1916-0.475Q5.05 12.6667 5.3333 12.6667t0.475 0.1916Q6 13.05 6 13.3333t-0.1917 0.475Q5.6167 14 5.3333 14t-0.475-0.1917Zm2.6667 0Q7.3333 13.6167 7.3333 13.3333t0.1917-0.475Q7.7167 12.6667 8 12.6667t0.475 0.1916Q8.6667 13.05 8.6667 13.3333t-0.1917 0.475Q8.2833 14 8 14t-0.475-0.1917Zm2.6667 0Q10 13.6167 10 13.3333t0.1917-0.475Q10.3833 12.6667 10.6667 12.6667t0.475 0.1916Q11.3333 13.05 11.3333 13.3333t-0.1916 0.475Q10.95 14 10.6667 14t-0.475-0.1917Zm2.6666 0Q12.6667 13.6167 12.6667 13.3333t0.1916-0.475Q13.05 12.6667 13.3333 12.6667t0.475 0.1916Q14 13.05 14 13.3333t-0.1917 0.475Q13.6167 14 13.3333 14t-0.475-0.1917Z" fill="black"/>
</svg>
