<svg width="16" height="16" viewBox="0 0 16 16" fill="none" xmlns="http://www.w3.org/2000/svg">
<path d="M2.66667 3.33317C2.47778 3.33317 2.31944 3.26928 2.19167 3.1415C2.06389 3.01373 2 2.85539 2 2.6665C2 2.47761 2.06389 2.31928 2.19167 2.1915C2.31944 2.06373 2.47778 1.99984 2.66667 1.99984C2.85556 1.99984 3.01389 2.06373 3.14167 2.1915C3.26944 2.31928 3.33333 2.47761 3.33333 2.6665C3.33333 2.85539 3.26944 3.01373 3.14167 3.1415C3.01389 3.26928 2.85556 3.33317 2.66667 3.33317ZM5.33333 3.33317C5.14444 3.33317 4.98611 3.26928 4.85833 3.1415C4.73056 3.01373 4.66667 2.85539 4.66667 2.6665C4.66667 2.47761 4.73056 2.31928 4.85833 2.1915C4.98611 2.06373 5.14444 1.99984 5.33333 1.99984C5.52222 1.99984 5.68056 2.06373 5.80833 2.1915C5.93611 2.31928 6 2.47761 6 2.6665C6 2.85539 5.93611 3.01373 5.80833 3.1415C5.68056 3.26928 5.52222 3.33317 5.33333 3.33317ZM2.66667 5.99984C2.47778 5.99984 2.31944 5.93595 2.19167 5.80817C2.06389 5.68039 2 5.52206 2 5.33317C2 5.14428 2.06389 4.98595 2.19167 4.85817C2.31944 4.73039 2.47778 4.6665 2.66667 4.6665C2.85556 4.6665 3.01389 4.73039 3.14167 4.85817C3.26944 4.98595 3.33333 5.14428 3.33333 5.33317C3.33333 5.52206 3.26944 5.68039 3.14167 5.80817C3.01389 5.93595 2.85556 5.99984 2.66667 5.99984ZM2.66667 8.6665C2.47778 8.6665 2.31944 8.60261 2.19167 8.47484C2.06389 8.34706 2 8.18873 2 7.99984C2 7.81095 2.06389 7.65262 2.19167 7.52484C2.31944 7.39706 2.47778 7.33317 2.66667 7.33317C2.85556 7.33317 3.01389 7.39706 3.14167 7.52484C3.26944 7.65262 3.33333 7.81095 3.33333 7.99984C3.33333 8.18873 3.26944 8.34706 3.14167 8.47484C3.01389 8.60261 2.85556 8.6665 2.66667 8.6665ZM2.66667 11.3332C2.47778 11.3332 2.31944 11.2693 2.19167 11.1415C2.06389 11.0137 2 10.8554 2 10.6665C2 10.4776 2.06389 10.3193 2.19167 10.1915C2.31944 10.0637 2.47778 9.99984 2.66667 9.99984C2.85556 9.99984 3.01389 10.0637 3.14167 10.1915C3.26944 10.3193 3.33333 10.4776 3.33333 10.6665C3.33333 10.8554 3.26944 11.0137 3.14167 11.1415C3.01389 11.2693 2.85556 11.3332 2.66667 11.3332ZM13.3333 11.3332C13.1444 11.3332 12.9861 11.2693 12.8583 11.1415C12.7306 11.0137 12.6667 10.8554 12.6667 10.6665C12.6667 10.4776 12.7306 10.3193 12.8583 10.1915C12.9861 10.0637 13.1444 9.99984 13.3333 9.99984C13.5222 9.99984 13.6806 10.0637 13.8083 10.1915C13.9361 10.3193 14 10.4776 14 10.6665C14 10.8554 13.9361 11.0137 13.8083 11.1415C13.6806 11.2693 13.5222 11.3332 13.3333 11.3332ZM2.66667 13.9998C2.47778 13.9998 2.31944 13.9359 2.19167 13.8082C2.06389 13.6804 2 13.5221 2 13.3332C2 13.1443 2.06389 12.9859 2.19167 12.8582C2.31944 12.7304 2.47778 12.6665 2.66667 12.6665C2.85556 12.6665 3.01389 12.7304 3.14167 12.8582C3.26944 12.9859 3.33333 13.1443 3.33333 13.3332C3.33333 13.5221 3.26944 13.6804 3.14167 13.8082C3.01389 13.9359 2.85556 13.9998 2.66667 13.9998ZM5.33333 13.9998C5.14444 13.9998 4.98611 13.9359 4.85833 13.8082C4.73056 13.6804 4.66667 13.5221 4.66667 13.3332C4.66667 13.1443 4.73056 12.9859 4.85833 12.8582C4.98611 12.7304 5.14444 12.6665 5.33333 12.6665C5.52222 12.6665 5.68056 12.7304 5.80833 12.8582C5.93611 12.9859 6 13.1443 6 13.3332C6 13.5221 5.93611 13.6804 5.80833 13.8082C5.68056 13.9359 5.52222 13.9998 5.33333 13.9998ZM8 13.9998C7.81111 13.9998 7.65278 13.9359 7.525 13.8082C7.39722 13.6804 7.33333 13.5221 7.33333 13.3332C7.33333 13.1443 7.39722 12.9859 7.525 12.8582C7.65278 12.7304 7.81111 12.6665 8 12.6665C8.18889 12.6665 8.34722 12.7304 8.475 12.8582C8.60278 12.9859 8.66667 13.1443 8.66667 13.3332C8.66667 13.5221 8.60278 13.6804 8.475 13.8082C8.34722 13.9359 8.18889 13.9998 8 13.9998ZM10.6667 13.9998C10.4778 13.9998 10.3194 13.9359 10.1917 13.8082C10.0639 13.6804 10 13.5221 10 13.3332C10 13.1443 10.0639 12.9859 10.1917 12.8582C10.3194 12.7304 10.4778 12.6665 10.6667 12.6665C10.8556 12.6665 11.0139 12.7304 11.1417 12.8582C11.2694 12.9859 11.3333 13.1443 11.3333 13.3332C11.3333 13.5221 11.2694 13.6804 11.1417 13.8082C11.0139 13.9359 10.8556 13.9998 10.6667 13.9998ZM13.3333 13.9998C13.1444 13.9998 12.9861 13.9359 12.8583 13.8082C12.7306 13.6804 12.6667 13.5221 12.6667 13.3332C12.6667 13.1443 12.7306 12.9859 12.8583 12.8582C12.9861 12.7304 13.1444 12.6665 13.3333 12.6665C13.5222 12.6665 13.6806 12.7304 13.8083 12.8582C13.9361 12.9859 14 13.1443 14 13.3332C14 13.5221 13.9361 13.6804 13.8083 13.8082C13.6806 13.9359 13.5222 13.9998 13.3333 13.9998Z" fill="#191919"/>
<path d="M6 9.34984V7.73317C6 7.55539 6.03333 7.38595 6.1 7.22484C6.16667 7.06373 6.26111 6.92206 6.38333 6.79984L12.1167 1.0665C12.25 0.933171 12.4 0.833171 12.5667 0.766504C12.7333 0.699837 12.9 0.666504 13.0667 0.666504C13.2444 0.666504 13.4139 0.699837 13.575 0.766504C13.7361 0.833171 13.8833 0.933171 14.0167 1.0665L14.95 2.0165C15.0722 2.14984 15.1667 2.29706 15.2333 2.45817C15.3 2.61928 15.3333 2.78317 15.3333 2.94984C15.3333 3.1165 15.3028 3.28039 15.2417 3.4415C15.1806 3.60261 15.0833 3.74984 14.95 3.88317L9.21667 9.6165C9.09444 9.73873 8.95278 9.83595 8.79167 9.90817C8.63056 9.98039 8.46111 10.0165 8.28333 10.0165H6.66667C6.47778 10.0165 6.31944 9.95261 6.19167 9.82484C6.06389 9.69706 6 9.53873 6 9.34984ZM7.33333 8.68317H8.26667L12.1333 4.8165L11.6667 4.34984L11.1833 3.88317L7.33333 7.73317V8.68317Z" fill="#191919"/>
</svg>
