<svg width="16" height="16" viewBox="0 0 16 16" fill="none" xmlns="http://www.w3.org/2000/svg">
<path d="M14.2667 9.50004L9.50004 14.2667C9.36671 14.4 9.21671 14.5 9.05004 14.5667C8.88337 14.6334 8.71671 14.6667 8.55004 14.6667C8.38337 14.6667 8.21671 14.6334 8.05004 14.5667C7.88337 14.5 7.73337 14.4 7.60004 14.2667L1.71671 8.38337C1.59449 8.26115 1.50004 8.11948 1.43337 7.95837C1.36671 7.79726 1.33337 7.62782 1.33337 7.45004V2.66671C1.33337 2.30004 1.46393 1.98615 1.72504 1.72504C1.98615 1.46393 2.30004 1.33337 2.66671 1.33337H7.45004C7.62782 1.33337 7.80004 1.36949 7.96671 1.44171C8.13337 1.51393 8.27782 1.61115 8.40004 1.73337L14.2667 7.61671C14.4 7.75004 14.4973 7.90004 14.5584 8.06671C14.6195 8.23337 14.65 8.40004 14.65 8.56671C14.65 8.73337 14.6195 8.89726 14.5584 9.05837C14.4973 9.21948 14.4 9.36671 14.2667 9.50004ZM4.33337 5.33337C4.61115 5.33337 4.84726 5.23615 5.04171 5.04171C5.23615 4.84726 5.33337 4.61115 5.33337 4.33337C5.33337 4.0556 5.23615 3.81948 5.04171 3.62504C4.84726 3.4306 4.61115 3.33337 4.33337 3.33337C4.0556 3.33337 3.81948 3.4306 3.62504 3.62504C3.4306 3.81948 3.33337 4.0556 3.33337 4.33337C3.33337 4.61115 3.4306 4.84726 3.62504 5.04171C3.81948 5.23615 4.0556 5.33337 4.33337 5.33337Z" fill="#191919"/>
</svg>
