<svg width="28" height="28" viewBox="0 0 28 28" fill="none" xmlns="http://www.w3.org/2000/svg">
<path d="M24.9667 16.625L16.625 24.9667C16.3917 25.2 16.1292 25.375 15.8375 25.4917C15.5459 25.6084 15.2542 25.6667 14.9625 25.6667C14.6709 25.6667 14.3792 25.6084 14.0875 25.4917C13.7959 25.375 13.5334 25.2 13.3 24.9667L3.00421 14.6709C2.79032 14.457 2.62504 14.2091 2.50837 13.9271C2.39171 13.6452 2.33337 13.3487 2.33337 13.0375V4.66671C2.33337 4.02504 2.56185 3.47574 3.01879 3.01879C3.47574 2.56185 4.02504 2.33337 4.66671 2.33337H13.0375C13.3487 2.33337 13.65 2.39657 13.9417 2.52296C14.2334 2.64935 14.4862 2.81949 14.7 3.03337L24.9667 13.3292C25.2 13.5625 25.3702 13.825 25.4771 14.1167C25.5841 14.4084 25.6375 14.7 25.6375 14.9917C25.6375 15.2834 25.5841 15.5702 25.4771 15.8521C25.3702 16.1341 25.2 16.3917 24.9667 16.625ZM7.58337 9.33337C8.06949 9.33337 8.48268 9.16324 8.82296 8.82296C9.16324 8.48268 9.33337 8.06949 9.33337 7.58337C9.33337 7.09726 9.16324 6.68407 8.82296 6.34379C8.48268 6.00351 8.06949 5.83337 7.58337 5.83337C7.09726 5.83337 6.68407 6.00351 6.34379 6.34379C6.00351 6.68407 5.83337 7.09726 5.83337 7.58337C5.83337 8.06949 6.00351 8.48268 6.34379 8.82296C6.68407 9.16324 7.09726 9.33337 7.58337 9.33337Z" fill="#191919"/>
</svg>
