<svg width="28" height="28" viewBox="0 0 28 28" fill="none" xmlns="http://www.w3.org/2000/svg">
<path d="M5.13333 22.6625C4.74444 22.818 4.375 22.7838 4.025 22.5598C3.675 22.3366 3.5 22.0111 3.5 21.5833V17.2375C3.5 16.9653 3.57778 16.7222 3.73333 16.5083C3.88889 16.2944 4.10278 16.1583 4.375 16.1L12.8333 14L4.375 11.9C4.10278 11.8417 3.88889 11.7055 3.73333 11.4917C3.57778 11.2778 3.5 11.0347 3.5 10.7625V6.41666C3.5 5.98888 3.675 5.66299 4.025 5.43899C4.375 5.21577 4.74444 5.18194 5.13333 5.33749L23.1 12.9208C23.5861 13.1347 23.8292 13.4944 23.8292 14C23.8292 14.5055 23.5861 14.8653 23.1 15.0792L5.13333 22.6625Z" fill="black"/>
</svg>
