<svg width="16" height="16" viewBox="0 0 16 16" fill="none" xmlns="http://www.w3.org/2000/svg">
<path d="M2.93333 12.95C2.71111 13.0389 2.5 13.0193 2.3 12.8913C2.1 12.7638 2 12.5778 2 12.3333V9.85C2 9.69444 2.04444 9.55555 2.13333 9.43333C2.22222 9.31111 2.34444 9.23333 2.5 9.2L7.33333 8L2.5 6.8C2.34444 6.76666 2.22222 6.68889 2.13333 6.56666C2.04444 6.44444 2 6.30555 2 6.15V3.66666C2 3.42222 2.1 3.236 2.3 3.108C2.5 2.98044 2.71111 2.96111 2.93333 3.05L13.2 7.38333C13.4778 7.50555 13.6167 7.71111 13.6167 8C13.6167 8.28889 13.4778 8.49444 13.2 8.61666L2.93333 12.95Z" fill="black"/>
</svg>
