<svg width="16" height="16" viewBox="0 0 16 16" fill="none" xmlns="http://www.w3.org/2000/svg">
<path d="M13 8.00004C13 7.84671 12.9933 7.70004 12.98 7.54671L14.22 6.60671C14.4867 6.40671 14.56 6.03337 14.3933 5.74004L13.1467 3.58671C12.98 3.29337 12.62 3.17337 12.3133 3.30671L10.88 3.91337C10.6333 3.74004 10.3733 3.58671 10.1 3.46004L9.90666 1.92004C9.86666 1.58671 9.57999 1.33337 9.24666 1.33337H6.75999C6.41999 1.33337 6.13332 1.58671 6.09332 1.92004L5.89999 3.46004C5.62666 3.58671 5.36666 3.74004 5.11999 3.91337L3.68666 3.30671C3.37999 3.17337 3.01999 3.29337 2.85332 3.58671L1.60666 5.74671C1.43999 6.04004 1.51332 6.40671 1.77999 6.61337L3.01999 7.55337C3.00666 7.70004 2.99999 7.84671 2.99999 8.00004C2.99999 8.15337 3.00666 8.30004 3.01999 8.45337L1.77999 9.39337C1.51332 9.59337 1.43999 9.96671 1.60666 10.26L2.85332 12.4134C3.01999 12.7067 3.37999 12.8267 3.68666 12.6934L5.11999 12.0867C5.36666 12.26 5.62666 12.4134 5.89999 12.54L6.09332 14.08C6.13332 14.4134 6.41999 14.6667 6.75332 14.6667H9.23999C9.57332 14.6667 9.85999 14.4134 9.89999 14.08L10.0933 12.54C10.3667 12.4134 10.6267 12.26 10.8733 12.0867L12.3067 12.6934C12.6133 12.8267 12.9733 12.7067 13.14 12.4134L14.3867 10.26C14.5533 9.96671 14.48 9.60004 14.2133 9.39337L12.9733 8.45337C12.9933 8.30004 13 8.15337 13 8.00004ZM8.02666 10.3334C6.73999 10.3334 5.69332 9.28671 5.69332 8.00004C5.69332 6.71337 6.73999 5.66671 8.02666 5.66671C9.31332 5.66671 10.36 6.71337 10.36 8.00004C10.36 9.28671 9.31332 10.3334 8.02666 10.3334Z" fill="black"/>
</svg>
