<svg width="28" height="28" viewBox="0 0 28 28" fill="none" xmlns="http://www.w3.org/2000/svg">
<path d="M22.75 14C22.75 13.7317 22.7383 13.475 22.715 13.2067L24.885 11.5617C25.3517 11.2117 25.48 10.5584 25.1883 10.045L23.0067 6.27671C22.715 5.76337 22.085 5.55337 21.5483 5.78671L19.04 6.84837C18.6083 6.54504 18.1533 6.27671 17.675 6.05504L17.3367 3.36004C17.2667 2.77671 16.765 2.33337 16.1817 2.33337H11.83C11.235 2.33337 10.7333 2.77671 10.6633 3.36004L10.325 6.05504C9.84667 6.27671 9.39167 6.54504 8.96001 6.84837L6.45167 5.78671C5.91501 5.55337 5.28501 5.76337 4.99334 6.27671L2.81167 10.0567C2.52001 10.57 2.64834 11.2117 3.11501 11.5734L5.28501 13.2184C5.26167 13.475 5.25001 13.7317 5.25001 14C5.25001 14.2684 5.26167 14.525 5.28501 14.7934L3.11501 16.4384C2.64834 16.7884 2.52001 17.4417 2.81167 17.955L4.99334 21.7234C5.28501 22.2367 5.91501 22.4467 6.45167 22.2134L8.96001 21.1517C9.39167 21.455 9.84667 21.7234 10.325 21.945L10.6633 24.64C10.7333 25.2234 11.235 25.6667 11.8183 25.6667H16.17C16.7533 25.6667 17.255 25.2234 17.325 24.64L17.6633 21.945C18.1417 21.7234 18.5967 21.455 19.0283 21.1517L21.5367 22.2134C22.0733 22.4467 22.7033 22.2367 22.995 21.7234L25.1767 17.955C25.4683 17.4417 25.34 16.8 24.8733 16.4384L22.7033 14.7934C22.7383 14.525 22.75 14.2684 22.75 14ZM14.0467 18.0834C11.795 18.0834 9.96334 16.2517 9.96334 14C9.96334 11.7484 11.795 9.91671 14.0467 9.91671C16.2983 9.91671 18.13 11.7484 18.13 14C18.13 16.2517 16.2983 18.0834 14.0467 18.0834Z" fill="black"/>
</svg>
