<svg width="16" height="16" viewBox="0 0 16 16" fill="none" xmlns="http://www.w3.org/2000/svg">
<path d="M9.25002 14.6666H6.75002C6.58335 14.6666 6.43891 14.611 6.31669 14.4999C6.19447 14.3888 6.12224 14.2499 6.10002 14.0833L5.90002 12.5333C5.75558 12.4777 5.61958 12.411 5.49202 12.3333C5.36402 12.2555 5.23891 12.1721 5.11669 12.0833L3.66669 12.6833C3.51113 12.7388 3.35558 12.7444 3.20002 12.6999C3.04447 12.6555 2.92224 12.561 2.83335 12.4166L1.60002 10.2666C1.51113 10.1221 1.48335 9.96658 1.51669 9.79992C1.55002 9.63325 1.63335 9.49992 1.76669 9.39992L3.01669 8.44992C3.00558 8.37214 3.00002 8.29703 3.00002 8.22458V7.77458C3.00002 7.70258 3.00558 7.6277 3.01669 7.54992L1.76669 6.59992C1.63335 6.49992 1.55002 6.36659 1.51669 6.19992C1.48335 6.03325 1.51113 5.8777 1.60002 5.73325L2.83335 3.58325C2.91113 3.4277 3.03047 3.33036 3.19135 3.29125C3.35269 3.25259 3.51113 3.26103 3.66669 3.31659L5.11669 3.91659C5.23891 3.8277 5.36669 3.74436 5.50002 3.66659C5.63335 3.58881 5.76669 3.52214 5.90002 3.46659L6.10002 1.91659C6.12224 1.74992 6.19447 1.61103 6.31669 1.49992C6.43891 1.38881 6.58335 1.33325 6.75002 1.33325H9.25002C9.41669 1.33325 9.56113 1.38881 9.68335 1.49992C9.80558 1.61103 9.8778 1.74992 9.90002 1.91659L10.1 3.46659C10.2445 3.52214 10.3807 3.58881 10.5087 3.66659C10.6362 3.74436 10.7611 3.8277 10.8834 3.91659L12.3334 3.31659C12.4889 3.26103 12.6445 3.25547 12.8 3.29992C12.9556 3.34436 13.0778 3.43881 13.1667 3.58325L14.4 5.73325C14.4889 5.8777 14.5167 6.03325 14.4834 6.19992C14.45 6.36659 14.3667 6.49992 14.2334 6.59992L12.9834 7.54992C12.9945 7.6277 13 7.70258 13 7.77458V8.22458C13 8.29703 12.9889 8.37214 12.9667 8.44992L14.2167 9.39992C14.35 9.49992 14.4334 9.63325 14.4667 9.79992C14.5 9.96658 14.4722 10.1221 14.3834 10.2666L13.15 12.3999C13.0611 12.5444 12.9362 12.6417 12.7754 12.6919C12.614 12.7417 12.4556 12.7388 12.3 12.6833L10.8834 12.0833C10.7611 12.1721 10.6334 12.2555 10.5 12.3333C10.3667 12.411 10.2334 12.4777 10.1 12.5333L9.90002 14.0833C9.8778 14.2499 9.80558 14.3888 9.68335 14.4999C9.56113 14.611 9.41669 14.6666 9.25002 14.6666ZM8.03335 10.3333C8.6778 10.3333 9.2278 10.1055 9.68335 9.64992C10.1389 9.19436 10.3667 8.64436 10.3667 7.99992C10.3667 7.35547 10.1389 6.80547 9.68335 6.34992C9.2278 5.89436 8.6778 5.66659 8.03335 5.66659C7.3778 5.66659 6.82491 5.89436 6.37469 6.34992C5.92491 6.80547 5.70002 7.35547 5.70002 7.99992C5.70002 8.64436 5.92491 9.19436 6.37469 9.64992C6.82491 10.1055 7.3778 10.3333 8.03335 10.3333ZM8.03335 8.99992C7.75558 8.99992 7.51958 8.90259 7.32535 8.70792C7.13069 8.5137 7.03335 8.2777 7.03335 7.99992C7.03335 7.72214 7.13069 7.48614 7.32535 7.29192C7.51958 7.09725 7.75558 6.99992 8.03335 6.99992C8.31113 6.99992 8.54735 7.09725 8.74202 7.29192C8.93624 7.48614 9.03335 7.72214 9.03335 7.99992C9.03335 8.2777 8.93624 8.5137 8.74202 8.70792C8.54735 8.90259 8.31113 8.99992 8.03335 8.99992ZM7.33335 13.3333H8.65002L8.88335 11.5666C9.2278 11.4777 9.54735 11.347 9.84202 11.1746C10.1362 11.0026 10.4056 10.7944 10.65 10.5499L12.3 11.2333L12.95 10.0999L11.5167 9.01658C11.5722 8.86103 11.6111 8.69703 11.6334 8.52458C11.6556 8.35258 11.6667 8.1777 11.6667 7.99992C11.6667 7.82214 11.6556 7.64703 11.6334 7.47458C11.6111 7.30258 11.5722 7.13881 11.5167 6.98325L12.95 5.89992L12.3 4.76659L10.65 5.46658C10.4056 5.21103 10.1362 4.99703 9.84202 4.82459C9.54735 4.65259 9.2278 4.52214 8.88335 4.43325L8.66669 2.66659H7.35002L7.11669 4.43325C6.77224 4.52214 6.45291 4.65259 6.15869 4.82459C5.86402 4.99703 5.59447 5.20547 5.35002 5.44992L3.70002 4.76659L3.05002 5.89992L4.48335 6.96658C4.4278 7.13325 4.38891 7.29992 4.36669 7.46658C4.34447 7.63325 4.33335 7.81103 4.33335 7.99992C4.33335 8.1777 4.34447 8.34992 4.36669 8.51658C4.38891 8.68325 4.4278 8.84992 4.48335 9.01658L3.05002 10.0999L3.70002 11.2333L5.35002 10.5333C5.59447 10.7888 5.86402 11.0026 6.15869 11.1746C6.45291 11.347 6.77224 11.4777 7.11669 11.5666L7.33335 13.3333Z" fill="black"/>
</svg>
