<svg width="24" height="24" viewBox="0 0 24 24" fill="none" xmlns="http://www.w3.org/2000/svg">
<path d="M13.875 22H10.125C9.875 22 9.65834 21.9167 9.475 21.75C9.29167 21.5833 9.18333 21.375 9.15 21.125L8.85 18.8C8.63334 18.7167 8.42933 18.6167 8.238 18.5C8.046 18.3833 7.85833 18.2583 7.675 18.125L5.5 19.025C5.26667 19.1083 5.03334 19.1167 4.8 19.05C4.56667 18.9833 4.38333 18.8417 4.25 18.625L2.4 15.4C2.26667 15.1833 2.225 14.95 2.275 14.7C2.325 14.45 2.45 14.25 2.65 14.1L4.525 12.675C4.50834 12.5583 4.5 12.4457 4.5 12.337V11.662C4.5 11.554 4.50834 11.4417 4.525 11.325L2.65 9.9C2.45 9.75 2.325 9.55 2.275 9.3C2.225 9.05 2.26667 8.81667 2.4 8.6L4.25 5.375C4.36667 5.14167 4.54567 4.99567 4.787 4.937C5.029 4.879 5.26667 4.89167 5.5 4.975L7.675 5.875C7.85833 5.74167 8.05 5.61667 8.25 5.5C8.45 5.38333 8.65 5.28333 8.85 5.2L9.15 2.875C9.18333 2.625 9.29167 2.41667 9.475 2.25C9.65834 2.08333 9.875 2 10.125 2H13.875C14.125 2 14.3417 2.08333 14.525 2.25C14.7083 2.41667 14.8167 2.625 14.85 2.875L15.15 5.2C15.3667 5.28333 15.571 5.38333 15.763 5.5C15.9543 5.61667 16.1417 5.74167 16.325 5.875L18.5 4.975C18.7333 4.89167 18.9667 4.88333 19.2 4.95C19.4333 5.01667 19.6167 5.15833 19.75 5.375L21.6 8.6C21.7333 8.81667 21.775 9.05 21.725 9.3C21.675 9.55 21.55 9.75 21.35 9.9L19.475 11.325C19.4917 11.4417 19.5 11.554 19.5 11.662V12.337C19.5 12.4457 19.4833 12.5583 19.45 12.675L21.325 14.1C21.525 14.25 21.65 14.45 21.7 14.7C21.75 14.95 21.7083 15.1833 21.575 15.4L19.725 18.6C19.5917 18.8167 19.4043 18.9627 19.163 19.038C18.921 19.1127 18.6833 19.1083 18.45 19.025L16.325 18.125C16.1417 18.2583 15.95 18.3833 15.75 18.5C15.55 18.6167 15.35 18.7167 15.15 18.8L14.85 21.125C14.8167 21.375 14.7083 21.5833 14.525 21.75C14.3417 21.9167 14.125 22 13.875 22ZM12.05 15.5C13.0167 15.5 13.8417 15.1583 14.525 14.475C15.2083 13.7917 15.55 12.9667 15.55 12C15.55 11.0333 15.2083 10.2083 14.525 9.525C13.8417 8.84167 13.0167 8.5 12.05 8.5C11.0667 8.5 10.2373 8.84167 9.562 9.525C8.88734 10.2083 8.55 11.0333 8.55 12C8.55 12.9667 8.88734 13.7917 9.562 14.475C10.2373 15.1583 11.0667 15.5 12.05 15.5ZM12.05 13.5C11.6333 13.5 11.2793 13.354 10.988 13.062C10.696 12.7707 10.55 12.4167 10.55 12C10.55 11.5833 10.696 11.2293 10.988 10.938C11.2793 10.646 11.6333 10.5 12.05 10.5C12.4667 10.5 12.821 10.646 13.113 10.938C13.4043 11.2293 13.55 11.5833 13.55 12C13.55 12.4167 13.4043 12.7707 13.113 13.062C12.821 13.354 12.4667 13.5 12.05 13.5ZM11 20H12.975L13.325 17.35C13.8417 17.2167 14.321 17.0207 14.763 16.762C15.2043 16.504 15.6083 16.1917 15.975 15.825L18.45 16.85L19.425 15.15L17.275 13.525C17.3583 13.2917 17.4167 13.0457 17.45 12.787C17.4833 12.529 17.5 12.2667 17.5 12C17.5 11.7333 17.4833 11.4707 17.45 11.212C17.4167 10.954 17.3583 10.7083 17.275 10.475L19.425 8.85L18.45 7.15L15.975 8.2C15.6083 7.81667 15.2043 7.49567 14.763 7.237C14.321 6.979 13.8417 6.78333 13.325 6.65L13 4H11.025L10.675 6.65C10.1583 6.78333 9.67933 6.979 9.238 7.237C8.796 7.49567 8.39167 7.80833 8.025 8.175L5.55 7.15L4.575 8.85L6.725 10.45C6.64167 10.7 6.58333 10.95 6.55 11.2C6.51667 11.45 6.5 11.7167 6.5 12C6.5 12.2667 6.51667 12.525 6.55 12.775C6.58333 13.025 6.64167 13.275 6.725 13.525L4.575 15.15L5.55 16.85L8.025 15.8C8.39167 16.1833 8.796 16.504 9.238 16.762C9.67933 17.0207 10.1583 17.2167 10.675 17.35L11 20Z" fill="black"/>
</svg>
