<svg width="28" height="28" viewBox="0 0 28 28" fill="none" xmlns="http://www.w3.org/2000/svg">
<path d="M16.1875 25.6666H11.8125C11.5208 25.6666 11.2681 25.5694 11.0542 25.3749C10.8403 25.1805 10.7139 24.9374 10.675 24.6458L10.325 21.9333C10.0722 21.836 9.83423 21.7194 9.61101 21.5833C9.38701 21.4471 9.16806 21.3013 8.95417 21.1458L6.41667 22.1958C6.14445 22.293 5.87223 22.3027 5.60001 22.2249C5.32779 22.1471 5.1139 21.9819 4.95834 21.7291L2.80001 17.9666C2.64445 17.7138 2.59584 17.4416 2.65417 17.1499C2.71251 16.8583 2.85834 16.6249 3.09167 16.4499L5.27917 14.7874C5.25973 14.6513 5.25001 14.5199 5.25001 14.3931V13.6056C5.25001 13.4796 5.25973 13.3485 5.27917 13.2124L3.09167 11.5499C2.85834 11.3749 2.71251 11.1416 2.65417 10.8499C2.59584 10.5583 2.64445 10.286 2.80001 10.0333L4.95834 6.27075C5.09445 5.99853 5.30329 5.8282 5.58484 5.75975C5.86717 5.69209 6.14445 5.70686 6.41667 5.80409L8.95417 6.85409C9.16806 6.69853 9.39167 6.5527 9.62501 6.41659C9.85834 6.28047 10.0917 6.16381 10.325 6.06659L10.675 3.35409C10.7139 3.06242 10.8403 2.81936 11.0542 2.62492C11.2681 2.43047 11.5208 2.33325 11.8125 2.33325H16.1875C16.4792 2.33325 16.732 2.43047 16.9458 2.62492C17.1597 2.81936 17.2861 3.06242 17.325 3.35409L17.675 6.06659C17.9278 6.16381 18.1662 6.28047 18.3902 6.41659C18.6134 6.5527 18.832 6.69853 19.0458 6.85409L21.5833 5.80409C21.8556 5.70686 22.1278 5.69714 22.4 5.77492C22.6722 5.8527 22.8861 6.01797 23.0417 6.27075L25.2 10.0333C25.3556 10.286 25.4042 10.5583 25.3458 10.8499C25.2875 11.1416 25.1417 11.3749 24.9083 11.5499L22.7208 13.2124C22.7403 13.3485 22.75 13.4796 22.75 13.6056V14.3931C22.75 14.5199 22.7306 14.6513 22.6917 14.7874L24.8792 16.4499C25.1125 16.6249 25.2583 16.8583 25.3167 17.1499C25.375 17.4416 25.3264 17.7138 25.1708 17.9666L23.0125 21.6999C22.857 21.9527 22.6384 22.123 22.3568 22.2109C22.0745 22.298 21.7972 22.293 21.525 22.1958L19.0458 21.1458C18.832 21.3013 18.6083 21.4471 18.375 21.5833C18.1417 21.7194 17.9083 21.836 17.675 21.9333L17.325 24.6458C17.2861 24.9374 17.1597 25.1805 16.9458 25.3749C16.732 25.5694 16.4792 25.6666 16.1875 25.6666ZM14.0583 18.0833C15.1861 18.0833 16.1486 17.6846 16.9458 16.8874C17.7431 16.0902 18.1417 15.1277 18.1417 13.9999C18.1417 12.8721 17.7431 11.9096 16.9458 11.1124C16.1486 10.3152 15.1861 9.91659 14.0583 9.91659C12.9111 9.91659 11.9436 10.3152 11.1557 11.1124C10.3686 11.9096 9.97501 12.8721 9.97501 13.9999C9.97501 15.1277 10.3686 16.0902 11.1557 16.8874C11.9436 17.6846 12.9111 18.0833 14.0583 18.0833ZM14.0583 15.7499C13.5722 15.7499 13.1592 15.5796 12.8193 15.2389C12.4787 14.899 12.3083 14.486 12.3083 13.9999C12.3083 13.5138 12.4787 13.1008 12.8193 12.7609C13.1592 12.4203 13.5722 12.2499 14.0583 12.2499C14.5445 12.2499 14.9578 12.4203 15.2985 12.7609C15.6384 13.1008 15.8083 13.5138 15.8083 13.9999C15.8083 14.486 15.6384 14.899 15.2985 15.2389C14.9578 15.5796 14.5445 15.7499 14.0583 15.7499ZM12.8333 23.3333H15.1375L15.5458 20.2416C16.1486 20.086 16.7078 19.8574 17.2235 19.5556C17.7384 19.2546 18.2097 18.8902 18.6375 18.4624L21.525 19.6583L22.6625 17.6749L20.1542 15.7791C20.2514 15.5069 20.3195 15.2199 20.3583 14.9181C20.3972 14.6171 20.4167 14.311 20.4167 13.9999C20.4167 13.6888 20.3972 13.3824 20.3583 13.0806C20.3195 12.7796 20.2514 12.493 20.1542 12.2208L22.6625 10.3249L21.525 8.34159L18.6375 9.56659C18.2097 9.11936 17.7384 8.74486 17.2235 8.44309C16.7078 8.14209 16.1486 7.91381 15.5458 7.75825L15.1667 4.66659H12.8625L12.4542 7.75825C11.8514 7.91381 11.2926 8.14209 10.7777 8.44309C10.262 8.74486 9.79028 9.10964 9.36251 9.53742L6.47501 8.34159L5.33751 10.3249L7.84584 12.1916C7.74862 12.4833 7.68056 12.7749 7.64167 13.0666C7.60279 13.3583 7.58334 13.6694 7.58334 13.9999C7.58334 14.311 7.60279 14.6124 7.64167 14.9041C7.68056 15.1958 7.74862 15.4874 7.84584 15.7791L5.33751 17.6749L6.47501 19.6583L9.36251 18.4333C9.79028 18.8805 10.262 19.2546 10.7777 19.5556C11.2926 19.8574 11.8514 20.086 12.4542 20.2416L12.8333 23.3333Z" fill="black"/>
</svg>
