<svg width="16" height="16" viewBox="0 0 16 16" fill="none" xmlns="http://www.w3.org/2000/svg">
<path d="M3.33335 7.33333C3.14446 7.33333 2.98613 7.26944 2.85835 7.14167C2.73058 7.01389 2.66669 6.85556 2.66669 6.66667C2.66669 6.47778 2.73058 6.31944 2.85835 6.19167C2.98613 6.06389 3.14446 6 3.33335 6H12.6667C12.8556 6 13.0139 6.06389 13.1417 6.19167C13.2695 6.31944 13.3334 6.47778 13.3334 6.66667C13.3334 6.85556 13.2695 7.01389 13.1417 7.14167C13.0139 7.26944 12.8556 7.33333 12.6667 7.33333H3.33335ZM3.33335 10C3.14446 10 2.98613 9.93611 2.85835 9.80833C2.73058 9.68056 2.66669 9.52222 2.66669 9.33333C2.66669 9.14444 2.73058 8.98611 2.85835 8.85833C2.98613 8.73056 3.14446 8.66667 3.33335 8.66667H8.66669C8.85558 8.66667 9.01391 8.73056 9.14169 8.85833C9.26947 8.98611 9.33335 9.14444 9.33335 9.33333C9.33335 9.52222 9.26947 9.68056 9.14169 9.80833C9.01391 9.93611 8.85558 10 8.66669 10H3.33335Z" fill="black"/>
</svg>
