<svg width="28" height="28" viewBox="0 0 28 28" fill="none" xmlns="http://www.w3.org/2000/svg">
<path d="M5.83332 12.8333C5.50277 12.8333 5.22568 12.7215 5.00207 12.4979C4.77846 12.2743 4.66666 11.9972 4.66666 11.6667C4.66666 11.3361 4.77846 11.059 5.00207 10.8354C5.22568 10.6118 5.50277 10.5 5.83332 10.5H22.1667C22.4972 10.5 22.7743 10.6118 22.9979 10.8354C23.2215 11.059 23.3333 11.3361 23.3333 11.6667C23.3333 11.9972 23.2215 12.2743 22.9979 12.4979C22.7743 12.7215 22.4972 12.8333 22.1667 12.8333H5.83332ZM5.83332 17.5C5.50277 17.5 5.22568 17.3882 5.00207 17.1646C4.77846 16.941 4.66666 16.6639 4.66666 16.3333C4.66666 16.0028 4.77846 15.7257 5.00207 15.5021C5.22568 15.2785 5.50277 15.1667 5.83332 15.1667H15.1667C15.4972 15.1667 15.7743 15.2785 15.9979 15.5021C16.2215 15.7257 16.3333 16.0028 16.3333 16.3333C16.3333 16.6639 16.2215 16.941 15.9979 17.1646C15.7743 17.3882 15.4972 17.5 15.1667 17.5H5.83332Z" fill="black"/>
</svg>
