<svg width="16" height="16" viewBox="0 0 16 16" fill="none" xmlns="http://www.w3.org/2000/svg">
<path d="M9.30002 13.5998L13.2667 12.3665C13.2111 12.2665 13.1306 12.1804 13.025 12.1082C12.9195 12.0359 12.8 11.9998 12.6667 11.9998H9.30002C9.00002 11.9998 8.76113 11.9887 8.58335 11.9665C8.40558 11.9443 8.22224 11.8998 8.03335 11.8332L7.08335 11.5165C6.90558 11.4609 6.7778 11.3498 6.70002 11.1832C6.62224 11.0165 6.61113 10.8443 6.66669 10.6665C6.72224 10.4887 6.83058 10.3582 6.99169 10.2748C7.1528 10.1915 7.32224 10.1776 7.50002 10.2332L8.20002 10.4665C8.38891 10.5221 8.6028 10.5665 8.84169 10.5998C9.08058 10.6332 9.40558 10.6554 9.81669 10.6665H10C10 10.5443 9.96391 10.4276 9.89169 10.3165C9.81946 10.2054 9.73335 10.1332 9.63335 10.0998L5.73335 8.6665H4.66669V12.3332L9.30002 13.5998ZM8.95002 14.8998L4.66669 13.6998C4.5778 13.9887 4.4028 14.2221 4.14169 14.3998C3.88058 14.5776 3.61113 14.6665 3.33335 14.6665H2.00002C1.63335 14.6665 1.31946 14.5359 1.05835 14.2748C0.797243 14.0137 0.666687 13.6998 0.666687 13.3332V8.6665C0.666687 8.29984 0.797243 7.98595 1.05835 7.72484C1.31946 7.46373 1.63335 7.33317 2.00002 7.33317H5.73335C5.81113 7.33317 5.88891 7.3415 5.96669 7.35817C6.04446 7.37484 6.11669 7.39428 6.18335 7.4165L10.1 8.8665C10.4667 8.99984 10.7639 9.23317 10.9917 9.5665C11.2195 9.89984 11.3334 10.2665 11.3334 10.6665H12.6667C13.2222 10.6665 13.6945 10.8498 14.0834 11.2165C14.4722 11.5832 14.6667 12.0665 14.6667 12.6665C14.6667 12.9109 14.6028 13.1026 14.475 13.2415C14.3472 13.3804 14.15 13.4943 13.8834 13.5832L9.71669 14.8832C9.59446 14.9276 9.46669 14.9498 9.33335 14.9498C9.20002 14.9498 9.07224 14.9332 8.95002 14.8998ZM2.00002 13.3332H3.33335V8.6665H2.00002V13.3332Z" fill="black"/>
<path d="M10.5209 5.479L11.6667 7.99984L12.8125 5.479L15.3334 4.33317L12.8125 3.18734L11.6667 0.666504L10.5209 3.18734L8.00002 4.33317L10.5209 5.479Z" fill="black"/>
</svg>
