<svg width="28" height="28" viewBox="0 0 28 28" fill="none" xmlns="http://www.w3.org/2000/svg">
<path d="M16.275 23.7998L23.2167 21.6415C23.1194 21.4665 22.9785 21.3158 22.7937 21.1894C22.609 21.063 22.4 20.9998 22.1667 20.9998H16.275C15.75 20.9998 15.3319 20.9804 15.0208 20.9415C14.7097 20.9026 14.3889 20.8248 14.0583 20.7082L12.3958 20.154C12.0847 20.0568 11.8611 19.8623 11.725 19.5707C11.5889 19.279 11.5694 18.9776 11.6667 18.6665C11.7639 18.3554 11.9535 18.1269 12.2354 17.9811C12.5174 17.8353 12.8139 17.811 13.125 17.9082L14.35 18.3165C14.6805 18.4137 15.0549 18.4915 15.4729 18.5498C15.891 18.6082 16.4597 18.6471 17.1792 18.6665H17.5C17.5 18.4526 17.4368 18.2485 17.3104 18.054C17.184 17.8596 17.0333 17.7332 16.8583 17.6748L10.0333 15.1665H8.16666V21.5832L16.275 23.7998ZM15.6625 26.0748L8.16666 23.9748C8.0111 24.4804 7.70485 24.8887 7.24791 25.1998C6.79096 25.511 6.31943 25.6665 5.83332 25.6665H3.49999C2.85832 25.6665 2.30902 25.438 1.85207 24.9811C1.39513 24.5241 1.16666 23.9748 1.16666 23.3332V15.1665C1.16666 14.5248 1.39513 13.9755 1.85207 13.5186C2.30902 13.0616 2.85832 12.8332 3.49999 12.8332H10.0333C10.1694 12.8332 10.3055 12.8478 10.4417 12.8769C10.5778 12.9061 10.7042 12.9401 10.8208 12.979L17.675 15.5165C18.3167 15.7498 18.8368 16.1582 19.2354 16.7415C19.634 17.3248 19.8333 17.9665 19.8333 18.6665H22.1667C23.1389 18.6665 23.9653 18.9873 24.6458 19.629C25.3264 20.2707 25.6667 21.1165 25.6667 22.1665C25.6667 22.5943 25.5549 22.9297 25.3312 23.1728C25.1076 23.4158 24.7625 23.6151 24.2958 23.7707L17.0042 26.0457C16.7903 26.1235 16.5667 26.1623 16.3333 26.1623C16.1 26.1623 15.8764 26.1332 15.6625 26.0748ZM3.49999 23.3332H5.83332V15.1665H3.49999V23.3332Z" fill="black"/>
<path d="M18.4114 9.58838L20.4167 13.9998L22.4219 9.58838L26.8333 7.58317L22.4219 5.57796L20.4167 1.1665L18.4114 5.57796L14 7.58317L18.4114 9.58838Z" fill="black"/>
</svg>
