<svg width="16" height="16" viewBox="0 0 16 16" fill="none" xmlns="http://www.w3.org/2000/svg">
<path d="M9.40002 14.4667C9.33335 14.4667 9.27224 14.4556 9.21669 14.4333C9.16113 14.4111 9.10558 14.3722 9.05002 14.3167L7.03335 12.3C6.91113 12.1778 6.85002 12.0222 6.85002 11.8333C6.85002 11.6444 6.91113 11.4889 7.03335 11.3667C7.15558 11.2444 7.31113 11.1833 7.50002 11.1833C7.68891 11.1833 7.84446 11.2444 7.96669 11.3667L9.40002 12.8L12.7 9.5C12.8222 9.37778 12.9778 9.31667 13.1667 9.31667C13.3556 9.31667 13.5111 9.37778 13.6334 9.5C13.7556 9.62222 13.8167 9.77778 13.8167 9.96667C13.8167 10.1556 13.7556 10.3111 13.6334 10.4333L9.75002 14.3167C9.69447 14.3722 9.63891 14.4111 9.58335 14.4333C9.5278 14.4556 9.46669 14.4667 9.40002 14.4667ZM2.93335 10.6667C2.6778 10.6667 2.49169 10.5833 2.37502 10.4167C2.25835 10.25 2.24446 10.0444 2.33335 9.8L4.96669 2.73333C5.04446 2.53333 5.18335 2.36111 5.38335 2.21667C5.58335 2.07222 5.79446 2 6.01669 2C6.23891 2 6.45002 2.07222 6.65002 2.21667C6.85002 2.36111 6.98891 2.53333 7.06669 2.73333L9.70002 9.75C9.78891 10.0056 9.77224 10.2222 9.65002 10.4C9.5278 10.5778 9.3278 10.6667 9.05002 10.6667C8.89446 10.6667 8.74724 10.6167 8.60835 10.5167C8.46947 10.4167 8.37224 10.2944 8.31669 10.15L7.73335 8.46667H4.23335L3.63335 10.1833C3.5778 10.3167 3.48613 10.4306 3.35835 10.525C3.23058 10.6194 3.08891 10.6667 2.93335 10.6667ZM4.70002 7.2H7.30002L6.03335 3.6H5.96669L4.70002 7.2Z" fill="black"/>
</svg>
