<svg width="24" height="24" viewBox="0 0 24 24" fill="none" xmlns="http://www.w3.org/2000/svg">
<path d="M14.1 21.7C14 21.7 13.9083 21.6833 13.825 21.65C13.7417 21.6167 13.6583 21.5583 13.575 21.475L10.55 18.45C10.3667 18.2667 10.275 18.0333 10.275 17.75C10.275 17.4667 10.3667 17.2333 10.55 17.05C10.7333 16.8667 10.9667 16.775 11.25 16.775C11.5333 16.775 11.7667 16.8667 11.95 17.05L14.1 19.2L19.05 14.25C19.2333 14.0667 19.4667 13.975 19.75 13.975C20.0333 13.975 20.2667 14.0667 20.45 14.25C20.6333 14.4333 20.725 14.6667 20.725 14.95C20.725 15.2333 20.6333 15.4667 20.45 15.65L14.625 21.475C14.5417 21.5583 14.4583 21.6167 14.375 21.65C14.2917 21.6833 14.2 21.7 14.1 21.7ZM4.4 16C4.01667 16 3.7375 15.875 3.5625 15.625C3.3875 15.375 3.36667 15.0667 3.5 14.7L7.45 4.1C7.56667 3.8 7.775 3.54167 8.075 3.325C8.375 3.10833 8.69167 3 9.025 3C9.35833 3 9.675 3.10833 9.975 3.325C10.275 3.54167 10.4833 3.8 10.6 4.1L14.55 14.625C14.6833 15.0083 14.6583 15.3333 14.475 15.6C14.2917 15.8667 13.9917 16 13.575 16C13.3417 16 13.1208 15.925 12.9125 15.775C12.7042 15.625 12.5583 15.4417 12.475 15.225L11.6 12.7H6.35L5.45 15.275C5.36667 15.475 5.22917 15.6458 5.0375 15.7875C4.84583 15.9292 4.63333 16 4.4 16ZM7.05 10.8H10.95L9.05 5.4H8.95L7.05 10.8Z" fill="black"/>
</svg>
