<svg width="28" height="28" viewBox="0 0 28 28" fill="none" xmlns="http://www.w3.org/2000/svg">
<path d="M16.45 25.3167C16.3333 25.3167 16.2264 25.2972 16.1292 25.2583C16.0319 25.2194 15.9347 25.1514 15.8375 25.0542L12.3083 21.525C12.0944 21.3111 11.9875 21.0389 11.9875 20.7083C11.9875 20.3778 12.0944 20.1056 12.3083 19.8917C12.5222 19.6778 12.7944 19.5708 13.125 19.5708C13.4555 19.5708 13.7278 19.6778 13.9417 19.8917L16.45 22.4L22.225 16.625C22.4389 16.4111 22.7111 16.3042 23.0417 16.3042C23.3722 16.3042 23.6444 16.4111 23.8583 16.625C24.0722 16.8389 24.1792 17.1111 24.1792 17.4417C24.1792 17.7722 24.0722 18.0444 23.8583 18.2583L17.0625 25.0542C16.9653 25.1514 16.868 25.2194 16.7708 25.2583C16.6736 25.2972 16.5667 25.3167 16.45 25.3167ZM5.13332 18.6667C4.6861 18.6667 4.36041 18.5208 4.15624 18.2292C3.95207 17.9375 3.92777 17.5778 4.08332 17.15L8.69166 4.78333C8.82777 4.43333 9.07082 4.13194 9.42082 3.87917C9.77082 3.62639 10.1403 3.5 10.5292 3.5C10.918 3.5 11.2875 3.62639 11.6375 3.87917C11.9875 4.13194 12.2305 4.43333 12.3667 4.78333L16.975 17.0625C17.1305 17.5097 17.1014 17.8889 16.8875 18.2C16.6736 18.5111 16.3236 18.6667 15.8375 18.6667C15.5653 18.6667 15.3076 18.5792 15.0646 18.4042C14.8215 18.2292 14.6514 18.0153 14.5542 17.7625L13.5333 14.8167H7.40832L6.35832 17.8208C6.2611 18.0542 6.10068 18.2535 5.87707 18.4187C5.65346 18.584 5.40555 18.6667 5.13332 18.6667ZM8.22499 12.6H12.775L10.5583 6.3H10.4417L8.22499 12.6Z" fill="black"/>
</svg>
