<svg width="16" height="16" viewBox="0 0 16 16" fill="none" xmlns="http://www.w3.org/2000/svg">
<path d="M7.99998 9.96683L9.84998 11.3668C9.98331 11.4557 10.1166 11.4585 10.25 11.3752C10.3833 11.2918 10.4222 11.1724 10.3666 11.0168L9.66665 8.70016L11.4833 7.40016C11.6166 7.30016 11.6555 7.17516 11.6 7.02516C11.5444 6.87516 11.4389 6.80016 11.2833 6.80016H9.06665L8.31665 4.36683C8.26109 4.21127 8.15553 4.1335 7.99998 4.1335C7.84442 4.1335 7.73887 4.21127 7.68331 4.36683L6.93331 6.80016H4.71665C4.56109 6.80016 4.45554 6.87516 4.39998 7.02516C4.34442 7.17516 4.38331 7.30016 4.51665 7.40016L6.33331 8.70016L5.63331 11.0168C5.57776 11.1724 5.61665 11.2918 5.74998 11.3752C5.88331 11.4585 6.01665 11.4557 6.14998 11.3668L7.99998 9.96683ZM7.99998 14.6668C7.07776 14.6668 6.21109 14.4918 5.39998 14.1418C4.58887 13.7918 3.88331 13.3168 3.28331 12.7168C2.68331 12.1168 2.20831 11.4113 1.85831 10.6002C1.50831 9.78905 1.33331 8.92238 1.33331 8.00016C1.33331 7.07794 1.50831 6.21127 1.85831 5.40016C2.20831 4.58905 2.68331 3.8835 3.28331 3.2835C3.88331 2.6835 4.58887 2.2085 5.39998 1.8585C6.21109 1.5085 7.07776 1.3335 7.99998 1.3335C8.9222 1.3335 9.78887 1.5085 10.6 1.8585C11.4111 2.2085 12.1166 2.6835 12.7166 3.2835C13.3166 3.8835 13.7916 4.58905 14.1416 5.40016C14.4916 6.21127 14.6666 7.07794 14.6666 8.00016C14.6666 8.92238 14.4916 9.78905 14.1416 10.6002C13.7916 11.4113 13.3166 12.1168 12.7166 12.7168C12.1166 13.3168 11.4111 13.7918 10.6 14.1418C9.78887 14.4918 8.9222 14.6668 7.99998 14.6668ZM7.99998 13.3335C9.47776 13.3335 10.7361 12.8141 11.775 11.7752C12.8139 10.7363 13.3333 9.47794 13.3333 8.00016C13.3333 6.52238 12.8139 5.26405 11.775 4.22516C10.7361 3.18627 9.47776 2.66683 7.99998 2.66683C6.5222 2.66683 5.26387 3.18627 4.22498 4.22516C3.18609 5.26405 2.66665 6.52238 2.66665 8.00016C2.66665 9.47794 3.18609 10.7363 4.22498 11.7752C5.26387 12.8141 6.5222 13.3335 7.99998 13.3335Z" fill="black"/>
</svg>
