<svg width="28" height="28" viewBox="0 0 28 28" fill="none" xmlns="http://www.w3.org/2000/svg">
<path d="M14 17.4418L17.2375 19.8918C17.4708 20.0474 17.7041 20.0522 17.9375 19.9064C18.1708 19.7606 18.2389 19.5516 18.1416 19.2793L16.9166 15.2252L20.0958 12.9502C20.3291 12.7752 20.3972 12.5564 20.3 12.2939C20.2028 12.0314 20.018 11.9002 19.7458 11.9002H15.8666L14.5541 7.64183C14.4569 7.36961 14.2722 7.2335 14 7.2335C13.7278 7.2335 13.543 7.36961 13.4458 7.64183L12.1333 11.9002H8.25415C7.98192 11.9002 7.7972 12.0314 7.69998 12.2939C7.60276 12.5564 7.67081 12.7752 7.90415 12.9502L11.0833 15.2252L9.85831 19.2793C9.76109 19.5516 9.82915 19.7606 10.0625 19.9064C10.2958 20.0522 10.5291 20.0474 10.7625 19.8918L14 17.4418ZM14 25.6668C12.3861 25.6668 10.8694 25.3606 9.44998 24.7481C8.03054 24.1356 6.79581 23.3043 5.74581 22.2543C4.69581 21.2043 3.86456 19.9696 3.25206 18.5502C2.63956 17.1307 2.33331 15.6141 2.33331 14.0002C2.33331 12.3863 2.63956 10.8696 3.25206 9.45016C3.86456 8.03072 4.69581 6.796 5.74581 5.746C6.79581 4.696 8.03054 3.86475 9.44998 3.25225C10.8694 2.63975 12.3861 2.3335 14 2.3335C15.6139 2.3335 17.1305 2.63975 18.55 3.25225C19.9694 3.86475 21.2041 4.696 22.2541 5.746C23.3041 6.796 24.1354 8.03072 24.7479 9.45016C25.3604 10.8696 25.6666 12.3863 25.6666 14.0002C25.6666 15.6141 25.3604 17.1307 24.7479 18.5502C24.1354 19.9696 23.3041 21.2043 22.2541 22.2543C21.2041 23.3043 19.9694 24.1356 18.55 24.7481C17.1305 25.3606 15.6139 25.6668 14 25.6668ZM14 23.3335C16.5861 23.3335 18.7882 22.4245 20.6062 20.6064C22.4243 18.7884 23.3333 16.5863 23.3333 14.0002C23.3333 11.4141 22.4243 9.21197 20.6062 7.39391C18.7882 5.57586 16.5861 4.66683 14 4.66683C11.4139 4.66683 9.21179 5.57586 7.39373 7.39391C5.57567 9.21197 4.66665 11.4141 4.66665 14.0002C4.66665 16.5863 5.57567 18.7884 7.39373 20.6064C9.21179 22.4245 11.4139 23.3335 14 23.3335Z" fill="black"/>
</svg>
