<svg width="16" height="16" viewBox="0 0 16 16" fill="none" xmlns="http://www.w3.org/2000/svg">
<path d="M3.33333 14C2.96667 14 2.65278 13.8694 2.39167 13.6083C2.13056 13.3472 2 13.0333 2 12.6667V3.33333C2 2.96667 2.13056 2.65278 2.39167 2.39167C2.65278 2.13056 2.96667 2 3.33333 2H12.6667C13.0333 2 13.3472 2.13056 13.6083 2.39167C13.8694 2.65278 14 2.96667 14 3.33333V10.1167C14 10.2944 13.9667 10.4639 13.9 10.625C13.8333 10.7861 13.7389 10.9278 13.6167 11.05L11.05 13.6167C10.9278 13.7389 10.7861 13.8333 10.625 13.9C10.4639 13.9667 10.2944 14 10.1167 14H3.33333ZM10 12.6667V11.3333C10 10.9667 10.1306 10.6528 10.3917 10.3917C10.6528 10.1306 10.9667 10 11.3333 10H12.6667V3.33333H3.33333V12.6667H10ZM7.33333 6.66667V10C7.33333 10.1889 7.39722 10.3472 7.525 10.475C7.65278 10.6028 7.81111 10.6667 8 10.6667C8.18889 10.6667 8.34722 10.6028 8.475 10.475C8.60278 10.3472 8.66667 10.1889 8.66667 10V6.66667H10C10.1889 6.66667 10.3472 6.60278 10.475 6.475C10.6028 6.34722 10.6667 6.18889 10.6667 6C10.6667 5.81111 10.6028 5.65278 10.475 5.525C10.3472 5.39722 10.1889 5.33333 10 5.33333H6C5.81111 5.33333 5.65278 5.39722 5.525 5.525C5.39722 5.65278 5.33333 5.81111 5.33333 6C5.33333 6.18889 5.39722 6.34722 5.525 6.475C5.65278 6.60278 5.81111 6.66667 6 6.66667H7.33333Z" fill="black"/>
</svg>
