<svg width="28" height="28" viewBox="0 0 28 28" fill="none" xmlns="http://www.w3.org/2000/svg">
<path d="M5.83333 24.5C5.19167 24.5 4.64236 24.2715 4.18542 23.8146C3.72847 23.3576 3.5 22.8083 3.5 22.1667V5.83333C3.5 5.19167 3.72847 4.64236 4.18542 4.18542C4.64236 3.72847 5.19167 3.5 5.83333 3.5H22.1667C22.8083 3.5 23.3576 3.72847 23.8146 4.18542C24.2715 4.64236 24.5 5.19167 24.5 5.83333V17.7042C24.5 18.0153 24.4417 18.3118 24.325 18.5938C24.2083 18.8757 24.0431 19.1236 23.8292 19.3375L19.3375 23.8292C19.1236 24.0431 18.8757 24.2083 18.5938 24.325C18.3118 24.4417 18.0153 24.5 17.7042 24.5H5.83333ZM17.5 22.1667V19.8333C17.5 19.1917 17.7285 18.6424 18.1854 18.1854C18.6424 17.7285 19.1917 17.5 19.8333 17.5H22.1667V5.83333H5.83333V22.1667H17.5ZM12.8333 11.6667V17.5C12.8333 17.8306 12.9451 18.1076 13.1687 18.3313C13.3924 18.5549 13.6694 18.6667 14 18.6667C14.3306 18.6667 14.6076 18.5549 14.8313 18.3313C15.0549 18.1076 15.1667 17.8306 15.1667 17.5V11.6667H17.5C17.8306 11.6667 18.1076 11.5549 18.3313 11.3313C18.5549 11.1076 18.6667 10.8306 18.6667 10.5C18.6667 10.1694 18.5549 9.89236 18.3313 9.66875C18.1076 9.44514 17.8306 9.33333 17.5 9.33333H10.5C10.1694 9.33333 9.89236 9.44514 9.66875 9.66875C9.44514 9.89236 9.33333 10.1694 9.33333 10.5C9.33333 10.8306 9.44514 11.1076 9.66875 11.3313C9.89236 11.5549 10.1694 11.6667 10.5 11.6667H12.8333Z" fill="black"/>
</svg>
