<svg width="16" height="16" viewBox="0 0 16 16" fill="none" xmlns="http://www.w3.org/2000/svg">
<path d="M4 10.6667V5.33333C4 4.96667 4.13056 4.65278 4.39167 4.39167C4.65278 4.13056 4.96667 4 5.33333 4H10.6667C11.0333 4 11.3472 4.13056 11.6083 4.39167C11.8694 4.65278 12 4.96667 12 5.33333V10.6667C12 11.0333 11.8694 11.3472 11.6083 11.6083C11.3472 11.8694 11.0333 12 10.6667 12H5.33333C4.96667 12 4.65278 11.8694 4.39167 11.6083C4.13056 11.3472 4 11.0333 4 10.6667ZM5.33333 10.6667H10.6667V5.33333H5.33333V10.6667Z" fill="black"/>
</svg>
