<svg width="28" height="28" viewBox="0 0 28 28" fill="none" xmlns="http://www.w3.org/2000/svg">
<path d="M10.5 18.6667H17.5C17.8305 18.6667 18.1076 18.5549 18.3312 18.3313C18.5548 18.1077 18.6666 17.8306 18.6666 17.5V10.5C18.6666 10.1695 18.5548 9.8924 18.3312 9.66879C18.1076 9.44518 17.8305 9.33337 17.5 9.33337H10.5C10.1694 9.33337 9.89234 9.44518 9.66873 9.66879C9.44512 9.8924 9.33331 10.1695 9.33331 10.5V17.5C9.33331 17.8306 9.44512 18.1077 9.66873 18.3313C9.89234 18.5549 10.1694 18.6667 10.5 18.6667ZM14 25.6667C12.3861 25.6667 10.8694 25.3605 9.44998 24.748C8.03053 24.1355 6.79581 23.3042 5.74581 22.2542C4.69581 21.2042 3.86456 19.9695 3.25206 18.55C2.63956 17.1306 2.33331 15.6139 2.33331 14C2.33331 12.3862 2.63956 10.8695 3.25206 9.45004C3.86456 8.0306 4.69581 6.79587 5.74581 5.74587C6.79581 4.69587 8.03053 3.86462 9.44998 3.25212C10.8694 2.63962 12.3861 2.33337 14 2.33337C15.6139 2.33337 17.1305 2.63962 18.55 3.25212C19.9694 3.86462 21.2041 4.69587 22.2541 5.74587C23.3041 6.79587 24.1354 8.0306 24.7479 9.45004C25.3604 10.8695 25.6666 12.3862 25.6666 14C25.6666 15.6139 25.3604 17.1306 24.7479 18.55C24.1354 19.9695 23.3041 21.2042 22.2541 22.2542C21.2041 23.3042 19.9694 24.1355 18.55 24.748C17.1305 25.3605 15.6139 25.6667 14 25.6667ZM14 23.3334C16.6055 23.3334 18.8125 22.4292 20.6208 20.6209C22.4291 18.8125 23.3333 16.6056 23.3333 14C23.3333 11.3945 22.4291 9.18754 20.6208 7.37921C18.8125 5.57087 16.6055 4.66671 14 4.66671C11.3944 4.66671 9.18748 5.57087 7.37915 7.37921C5.57081 9.18754 4.66665 11.3945 4.66665 14C4.66665 16.6056 5.57081 18.8125 7.37915 20.6209C9.18748 22.4292 11.3944 23.3334 14 23.3334Z" fill="black"/>
</svg>
