<svg width="28" height="28" viewBox="0 0 28 28" fill="none" xmlns="http://www.w3.org/2000/svg">
<path d="M7 18.6667V9.33333C7 8.69167 7.22847 8.14236 7.68542 7.68542C8.14236 7.22847 8.69167 7 9.33333 7H18.6667C19.3083 7 19.8576 7.22847 20.3146 7.68542C20.7715 8.14236 21 8.69167 21 9.33333V18.6667C21 19.3083 20.7715 19.8576 20.3146 20.3146C19.8576 20.7715 19.3083 21 18.6667 21H9.33333C8.69167 21 8.14236 20.7715 7.68542 20.3146C7.22847 19.8576 7 19.3083 7 18.6667ZM9.33333 18.6667H18.6667V9.33333H9.33333V18.6667Z" fill="black"/>
</svg>
