<svg width="16" height="16" viewBox="0 0 16 16" fill="none" xmlns="http://www.w3.org/2000/svg">
<path d="M5.99998 10.6667H9.99998C10.1889 10.6667 10.3472 10.6028 10.475 10.475C10.6028 10.3473 10.6666 10.1889 10.6666 10V6.00004C10.6666 5.81115 10.6028 5.65282 10.475 5.52504C10.3472 5.39726 10.1889 5.33337 9.99998 5.33337H5.99998C5.81109 5.33337 5.65276 5.39726 5.52498 5.52504C5.3972 5.65282 5.33331 5.81115 5.33331 6.00004V10C5.33331 10.1889 5.3972 10.3473 5.52498 10.475C5.65276 10.6028 5.81109 10.6667 5.99998 10.6667ZM7.99998 14.6667C7.07776 14.6667 6.21109 14.4917 5.39998 14.1417C4.58887 13.7917 3.88331 13.3167 3.28331 12.7167C2.68331 12.1167 2.20831 11.4112 1.85831 10.6C1.50831 9.78893 1.33331 8.92226 1.33331 8.00004C1.33331 7.07782 1.50831 6.21115 1.85831 5.40004C2.20831 4.58893 2.68331 3.88337 3.28331 3.28337C3.88331 2.68337 4.58887 2.20837 5.39998 1.85837C6.21109 1.50837 7.07776 1.33337 7.99998 1.33337C8.9222 1.33337 9.78887 1.50837 10.6 1.85837C11.4111 2.20837 12.1166 2.68337 12.7166 3.28337C13.3166 3.88337 13.7916 4.58893 14.1416 5.40004C14.4916 6.21115 14.6666 7.07782 14.6666 8.00004C14.6666 8.92226 14.4916 9.78893 14.1416 10.6C13.7916 11.4112 13.3166 12.1167 12.7166 12.7167C12.1166 13.3167 11.4111 13.7917 10.6 14.1417C9.78887 14.4917 8.9222 14.6667 7.99998 14.6667ZM7.99998 13.3334C9.48887 13.3334 10.75 12.8167 11.7833 11.7834C12.8166 10.75 13.3333 9.48893 13.3333 8.00004C13.3333 6.51115 12.8166 5.25004 11.7833 4.21671C10.75 3.18337 9.48887 2.66671 7.99998 2.66671C6.51109 2.66671 5.24998 3.18337 4.21665 4.21671C3.18331 5.25004 2.66665 6.51115 2.66665 8.00004C2.66665 9.48893 3.18331 10.75 4.21665 11.7834C5.24998 12.8167 6.51109 13.3334 7.99998 13.3334Z" fill="black"/>
</svg>
