<svg width="16" height="16" viewBox="0 0 16 16" fill="none" xmlns="http://www.w3.org/2000/svg">
<path d="M8.1 13.3331C7.4 13.3331 6.75278 13.147 6.15833 12.7747C5.56389 12.4025 5.09444 11.9053 4.75 11.2831C4.65 11.1053 4.63611 10.9192 4.70833 10.7247C4.78055 10.5303 4.91111 10.3831 5.1 10.2831C5.3 10.172 5.50833 10.1525 5.725 10.2247C5.94167 10.297 6.11111 10.4331 6.23333 10.6331C6.43333 10.9664 6.70278 11.2331 7.04167 11.4331C7.38055 11.6331 7.74444 11.7331 8.13333 11.7331C8.62222 11.7331 9.04722 11.5831 9.40833 11.2831C9.76944 10.9831 9.95 10.5997 9.95 10.1331C9.95 9.91085 10.0278 9.72196 10.1833 9.56641C10.3389 9.41085 10.5278 9.33307 10.75 9.33307C10.9722 9.33307 11.1639 9.41085 11.325 9.56641C11.4861 9.72196 11.5667 9.91085 11.5667 10.1331V10.3331C11.5667 11.2109 11.2194 11.9303 10.525 12.4914C9.83055 13.0525 9.02222 13.3331 8.1 13.3331ZM2 7.99974C1.81111 7.99974 1.65278 7.93585 1.525 7.80807C1.39722 7.68029 1.33333 7.52196 1.33333 7.33307C1.33333 7.14418 1.39722 6.98585 1.525 6.85807C1.65278 6.73029 1.81111 6.66641 2 6.66641H14C14.1889 6.66641 14.3472 6.73029 14.475 6.85807C14.6028 6.98585 14.6667 7.14418 14.6667 7.33307C14.6667 7.52196 14.6028 7.68029 14.475 7.80807C14.3472 7.93585 14.1889 7.99974 14 7.99974H2ZM5.46667 5.24974C5.27778 5.13863 5.15 4.97474 5.08333 4.75807C5.01667 4.54141 5.03889 4.33863 5.15 4.14974C5.42778 3.62752 5.82778 3.23307 6.35 2.96641C6.87222 2.69974 7.43333 2.56641 8.03333 2.56641C8.56666 2.56641 9.06944 2.67752 9.54166 2.89974C10.0139 3.12196 10.4111 3.44418 10.7333 3.86641C10.8556 4.02196 10.8944 4.19974 10.85 4.39974C10.8056 4.59974 10.7 4.76085 10.5333 4.88307C10.3444 5.01641 10.1417 5.06641 9.925 5.03307C9.70833 4.99974 9.52222 4.89418 9.36666 4.71641C9.2 4.52752 9.00555 4.38863 8.78333 4.29974C8.56111 4.21085 8.32222 4.16641 8.06666 4.16641C7.76667 4.16641 7.47778 4.22752 7.2 4.34974C6.92222 4.47196 6.71111 4.66085 6.56667 4.91641C6.45555 5.11641 6.29167 5.24974 6.075 5.31641C5.85833 5.38307 5.65555 5.36085 5.46667 5.24974Z" fill="#191919"/>
</svg>
