<svg width="28" height="28" viewBox="0 0 28 28" fill="none" xmlns="http://www.w3.org/2000/svg">
<path d="M14.175 23.3329C12.95 23.3329 11.8174 23.0072 10.7771 22.3558C9.7368 21.7044 8.91527 20.8343 8.31249 19.7454C8.13749 19.4343 8.11319 19.1086 8.23958 18.7683C8.36597 18.428 8.59444 18.1704 8.92499 17.9954C9.27499 17.8009 9.63958 17.7669 10.0187 17.8933C10.3979 18.0197 10.6944 18.2579 10.9083 18.6079C11.2583 19.1912 11.7299 19.6579 12.3229 20.0079C12.916 20.3579 13.5528 20.5329 14.2333 20.5329C15.0889 20.5329 15.8326 20.2704 16.4646 19.7454C17.0965 19.2204 17.4125 18.5495 17.4125 17.7329C17.4125 17.344 17.5486 17.0134 17.8208 16.7412C18.0931 16.469 18.4236 16.3329 18.8125 16.3329C19.2014 16.3329 19.5368 16.469 19.8187 16.7412C20.1007 17.0134 20.2417 17.344 20.2417 17.7329V18.0829C20.2417 19.619 19.634 20.878 18.4187 21.86C17.2035 22.8419 15.7889 23.3329 14.175 23.3329ZM3.49999 13.9995C3.16944 13.9995 2.89236 13.8877 2.66874 13.6641C2.44513 13.4405 2.33333 13.1634 2.33333 12.8329C2.33333 12.5023 2.44513 12.2252 2.66874 12.0016C2.89236 11.778 3.16944 11.6662 3.49999 11.6662H24.5C24.8306 11.6662 25.1076 11.778 25.3312 12.0016C25.5549 12.2252 25.6667 12.5023 25.6667 12.8329C25.6667 13.1634 25.5549 13.4405 25.3312 13.6641C25.1076 13.8877 24.8306 13.9995 24.5 13.9995H3.49999ZM9.56666 9.18704C9.23611 8.9926 9.01249 8.70579 8.89583 8.32663C8.77916 7.94746 8.81805 7.5926 9.01249 7.26204C9.49861 6.34816 10.1986 5.65788 11.1125 5.19121C12.0264 4.72454 13.0083 4.49121 14.0583 4.49121C14.9917 4.49121 15.8715 4.68566 16.6979 5.07454C17.5243 5.46343 18.2194 6.02732 18.7833 6.76621C18.9972 7.03843 19.0653 7.34954 18.9875 7.69954C18.9097 8.04954 18.725 8.33149 18.4333 8.54538C18.1028 8.77871 17.7479 8.86621 17.3687 8.80788C16.9896 8.74954 16.6639 8.56482 16.3917 8.25371C16.1 7.92316 15.7597 7.6801 15.3708 7.52454C14.9819 7.36899 14.5639 7.29121 14.1167 7.29121C13.5917 7.29121 13.0861 7.39816 12.6 7.61204C12.1139 7.82593 11.7444 8.15649 11.4917 8.60371C11.2972 8.95371 11.0104 9.18704 10.6312 9.30371C10.2521 9.42038 9.89722 9.38149 9.56666 9.18704Z" fill="#191919"/>
</svg>
