<svg width="24" height="24" viewBox="0 0 24 24" fill="none" xmlns="http://www.w3.org/2000/svg">
<path d="M12.15 19.9996C11.1 19.9996 10.1292 19.7204 9.2375 19.1621C8.34583 18.6038 7.64167 17.8579 7.125 16.9246C6.975 16.6579 6.95417 16.3788 7.0625 16.0871C7.17083 15.7954 7.36667 15.5746 7.65 15.4246C7.95 15.2579 8.2625 15.2288 8.5875 15.3371C8.9125 15.4454 9.16667 15.6496 9.35 15.9496C9.65 16.4496 10.0542 16.8496 10.5625 17.1496C11.0708 17.4496 11.6167 17.5996 12.2 17.5996C12.9333 17.5996 13.5708 17.3746 14.1125 16.9246C14.6542 16.4746 14.925 15.8996 14.925 15.1996C14.925 14.8663 15.0417 14.5829 15.275 14.3496C15.5083 14.1163 15.7917 13.9996 16.125 13.9996C16.4583 13.9996 16.7458 14.1163 16.9875 14.3496C17.2292 14.5829 17.35 14.8663 17.35 15.1996V15.4996C17.35 16.8163 16.8292 17.8954 15.7875 18.7371C14.7458 19.5788 13.5333 19.9996 12.15 19.9996ZM3 11.9996C2.71667 11.9996 2.47917 11.9038 2.2875 11.7121C2.09583 11.5204 2 11.2829 2 10.9996C2 10.7163 2.09583 10.4788 2.2875 10.2871C2.47917 10.0954 2.71667 9.99961 3 9.99961H21C21.2833 9.99961 21.5208 10.0954 21.7125 10.2871C21.9042 10.4788 22 10.7163 22 10.9996C22 11.2829 21.9042 11.5204 21.7125 11.7121C21.5208 11.9038 21.2833 11.9996 21 11.9996H3ZM8.2 7.87461C7.91667 7.70794 7.725 7.46211 7.625 7.13711C7.525 6.81211 7.55833 6.50794 7.725 6.22461C8.14167 5.44128 8.74167 4.84961 9.525 4.44961C10.3083 4.04961 11.15 3.84961 12.05 3.84961C12.85 3.84961 13.6042 4.01628 14.3125 4.34961C15.0208 4.68294 15.6167 5.16628 16.1 5.79961C16.2833 6.03294 16.3417 6.29961 16.275 6.59961C16.2083 6.89961 16.05 7.14128 15.8 7.32461C15.5167 7.52461 15.2125 7.59961 14.8875 7.54961C14.5625 7.49961 14.2833 7.34128 14.05 7.07461C13.8 6.79128 13.5083 6.58294 13.175 6.44961C12.8417 6.31628 12.4833 6.24961 12.1 6.24961C11.65 6.24961 11.2167 6.34128 10.8 6.52461C10.3833 6.70794 10.0667 6.99128 9.85 7.37461C9.68333 7.67461 9.4375 7.87461 9.1125 7.97461C8.7875 8.07461 8.48333 8.04128 8.2 7.87461Z" fill="#191919"/>
</svg>
