<svg width="24" height="24" viewBox="0 0 24 24" fill="none" xmlns="http://www.w3.org/2000/svg">
<path d="M12 5C11.7167 5 11.4792 4.90417 11.2875 4.7125C11.0958 4.52083 11 4.28333 11 4V2C11 1.71667 11.0958 1.47917 11.2875 1.2875C11.4792 1.09583 11.7167 1 12 1C12.2833 1 12.5208 1.09583 12.7125 1.2875C12.9042 1.47917 13 1.71667 13 2V4C13 4.28333 12.9042 4.52083 12.7125 4.7125C12.5208 4.90417 12.2833 5 12 5ZM16.95 7.05C16.7667 6.86667 16.675 6.6375 16.675 6.3625C16.675 6.0875 16.7667 5.85 16.95 5.65L18.35 4.225C18.55 4.025 18.7875 3.925 19.0625 3.925C19.3375 3.925 19.575 4.025 19.775 4.225C19.9583 4.40833 20.05 4.64167 20.05 4.925C20.05 5.20833 19.9583 5.44167 19.775 5.625L18.35 7.05C18.1667 7.23333 17.9333 7.325 17.65 7.325C17.3667 7.325 17.1333 7.23333 16.95 7.05ZM20 13C19.7167 13 19.4792 12.9042 19.2875 12.7125C19.0958 12.5208 19 12.2833 19 12C19 11.7167 19.0958 11.4792 19.2875 11.2875C19.4792 11.0958 19.7167 11 20 11H22C22.2833 11 22.5208 11.0958 22.7125 11.2875C22.9042 11.4792 23 11.7167 23 12C23 12.2833 22.9042 12.5208 22.7125 12.7125C22.5208 12.9042 22.2833 13 22 13H20ZM12 23C11.7167 23 11.4792 22.9042 11.2875 22.7125C11.0958 22.5208 11 22.2833 11 22V20C11 19.7167 11.0958 19.4792 11.2875 19.2875C11.4792 19.0958 11.7167 19 12 19C12.2833 19 12.5208 19.0958 12.7125 19.2875C12.9042 19.4792 13 19.7167 13 20V22C13 22.2833 12.9042 22.5208 12.7125 22.7125C12.5208 22.9042 12.2833 23 12 23ZM5.65 7.05L4.225 5.65C4.025 5.45 3.925 5.20833 3.925 4.925C3.925 4.64167 4.025 4.40833 4.225 4.225C4.40833 4.04167 4.64167 3.95 4.925 3.95C5.20833 3.95 5.44167 4.04167 5.625 4.225L7.05 5.65C7.23333 5.83333 7.325 6.06667 7.325 6.35C7.325 6.63333 7.23333 6.86667 7.05 7.05C6.85 7.23333 6.61667 7.325 6.35 7.325C6.08333 7.325 5.85 7.23333 5.65 7.05ZM18.35 19.775L16.95 18.35C16.7667 18.15 16.675 17.9125 16.675 17.6375C16.675 17.3625 16.7667 17.1333 16.95 16.95C17.1333 16.7667 17.3625 16.675 17.6375 16.675C17.9125 16.675 18.15 16.7667 18.35 16.95L19.775 18.35C19.975 18.5333 20.0708 18.7667 20.0625 19.05C20.0542 19.3333 19.9583 19.575 19.775 19.775C19.575 19.975 19.3333 20.075 19.05 20.075C18.7667 20.075 18.5333 19.975 18.35 19.775ZM2 13C1.71667 13 1.47917 12.9042 1.2875 12.7125C1.09583 12.5208 1 12.2833 1 12C1 11.7167 1.09583 11.4792 1.2875 11.2875C1.47917 11.0958 1.71667 11 2 11H4C4.28333 11 4.52083 11.0958 4.7125 11.2875C4.90417 11.4792 5 11.7167 5 12C5 12.2833 4.90417 12.5208 4.7125 12.7125C4.52083 12.9042 4.28333 13 4 13H2ZM4.225 19.775C4.04167 19.5917 3.95 19.3583 3.95 19.075C3.95 18.7917 4.04167 18.5583 4.225 18.375L5.65 16.95C5.83333 16.7667 6.0625 16.675 6.3375 16.675C6.6125 16.675 6.85 16.7667 7.05 16.95C7.25 17.15 7.35 17.3875 7.35 17.6625C7.35 17.9375 7.25 18.175 7.05 18.375L5.65 19.775C5.45 19.975 5.20833 20.075 4.925 20.075C4.64167 20.075 4.40833 19.975 4.225 19.775ZM12 18C10.3333 18 8.91667 17.4167 7.75 16.25C6.58333 15.0833 6 13.6667 6 12C6 10.3333 6.58333 8.91667 7.75 7.75C8.91667 6.58333 10.3333 6 12 6C13.6667 6 15.0833 6.58333 16.25 7.75C17.4167 8.91667 18 10.3333 18 12C18 13.6667 17.4167 15.0833 16.25 16.25C15.0833 17.4167 13.6667 18 12 18ZM12 16C13.1 16 14.0417 15.6083 14.825 14.825C15.6083 14.0417 16 13.1 16 12C16 10.9 15.6083 9.95833 14.825 9.175C14.0417 8.39167 13.1 8 12 8C10.9 8 9.95833 8.39167 9.175 9.175C8.39167 9.95833 8 10.9 8 12C8 13.1 8.39167 14.0417 9.175 14.825C9.95833 15.6083 10.9 16 12 16Z" fill="#191919"/>
</svg>
