<svg width="28" height="28" viewBox="0 0 28 28" fill="none" xmlns="http://www.w3.org/2000/svg">
<path d="M14.0003 5.83342C13.6698 5.83342 13.3927 5.72161 13.1691 5.498C12.9455 5.27439 12.8337 4.9973 12.8337 4.66675V2.33341C12.8337 2.00286 12.9455 1.72578 13.1691 1.50216C13.3927 1.27855 13.6698 1.16675 14.0003 1.16675C14.3309 1.16675 14.608 1.27855 14.8316 1.50216C15.0552 1.72578 15.167 2.00286 15.167 2.33341V4.66675C15.167 4.9973 15.0552 5.27439 14.8316 5.498C14.608 5.72161 14.3309 5.83342 14.0003 5.83342ZM19.7753 8.22508C19.5614 8.01119 19.4545 7.74383 19.4545 7.423C19.4545 7.10217 19.5614 6.82508 19.7753 6.59175L21.4087 4.92925C21.642 4.69591 21.9191 4.57925 22.2399 4.57925C22.5607 4.57925 22.8378 4.69591 23.0712 4.92925C23.285 5.14314 23.392 5.41536 23.392 5.74591C23.392 6.07647 23.285 6.34869 23.0712 6.56258L21.4087 8.22508C21.1948 8.43897 20.9225 8.54592 20.592 8.54592C20.2614 8.54592 19.9892 8.43897 19.7753 8.22508ZM23.3337 15.1667C23.0031 15.1667 22.726 15.0549 22.5024 14.8313C22.2788 14.6077 22.167 14.3306 22.167 14.0001C22.167 13.6695 22.2788 13.3924 22.5024 13.1688C22.726 12.9452 23.0031 12.8334 23.3337 12.8334H25.667C25.9975 12.8334 26.2746 12.9452 26.4982 13.1688C26.7219 13.3924 26.8337 13.6695 26.8337 14.0001C26.8337 14.3306 26.7219 14.6077 26.4982 14.8313C26.2746 15.0549 25.9975 15.1667 25.667 15.1667H23.3337ZM14.0003 26.8334C13.6698 26.8334 13.3927 26.7216 13.1691 26.498C12.9455 26.2744 12.8337 25.9973 12.8337 25.6667V23.3334C12.8337 23.0029 12.9455 22.7258 13.1691 22.5022C13.3927 22.2786 13.6698 22.1667 14.0003 22.1667C14.3309 22.1667 14.608 22.2786 14.8316 22.5022C15.0552 22.7258 15.167 23.0029 15.167 23.3334V25.6667C15.167 25.9973 15.0552 26.2744 14.8316 26.498C14.608 26.7216 14.3309 26.8334 14.0003 26.8334ZM6.59199 8.22508L4.92949 6.59175C4.69616 6.35842 4.57949 6.07647 4.57949 5.74591C4.57949 5.41536 4.69616 5.14314 4.92949 4.92925C5.14338 4.71536 5.4156 4.60841 5.74616 4.60841C6.07671 4.60841 6.34894 4.71536 6.56283 4.92925L8.22533 6.59175C8.43921 6.80564 8.54616 7.07786 8.54616 7.40842C8.54616 7.73897 8.43921 8.01119 8.22533 8.22508C7.99199 8.43897 7.71977 8.54592 7.40866 8.54592C7.09755 8.54592 6.82533 8.43897 6.59199 8.22508ZM21.4087 23.0709L19.7753 21.4084C19.5614 21.1751 19.4545 20.898 19.4545 20.5772C19.4545 20.2563 19.5614 19.989 19.7753 19.7751C19.9892 19.5612 20.2566 19.4542 20.5774 19.4542C20.8982 19.4542 21.1753 19.5612 21.4087 19.7751L23.0712 21.4084C23.3045 21.6223 23.4163 21.8945 23.4066 22.2251C23.3969 22.5556 23.285 22.8376 23.0712 23.0709C22.8378 23.3042 22.5559 23.4209 22.2253 23.4209C21.8948 23.4209 21.6225 23.3042 21.4087 23.0709ZM2.33366 15.1667C2.0031 15.1667 1.72602 15.0549 1.50241 14.8313C1.2788 14.6077 1.16699 14.3306 1.16699 14.0001C1.16699 13.6695 1.2788 13.3924 1.50241 13.1688C1.72602 12.9452 2.0031 12.8334 2.33366 12.8334H4.66699C4.99755 12.8334 5.27463 12.9452 5.49824 13.1688C5.72185 13.3924 5.83366 13.6695 5.83366 14.0001C5.83366 14.3306 5.72185 14.6077 5.49824 14.8313C5.27463 15.0549 4.99755 15.1667 4.66699 15.1667H2.33366ZM4.92949 23.0709C4.7156 22.857 4.60866 22.5848 4.60866 22.2542C4.60866 21.9237 4.7156 21.6515 4.92949 21.4376L6.59199 19.7751C6.80588 19.5612 7.07324 19.4542 7.39408 19.4542C7.71491 19.4542 7.99199 19.5612 8.22533 19.7751C8.45866 20.0084 8.57533 20.2855 8.57533 20.6063C8.57533 20.9272 8.45866 21.2043 8.22533 21.4376L6.59199 23.0709C6.35866 23.3042 6.07671 23.4209 5.74616 23.4209C5.4156 23.4209 5.14338 23.3042 4.92949 23.0709ZM14.0003 21.0001C12.0559 21.0001 10.4031 20.3195 9.04199 18.9584C7.68088 17.5973 7.00033 15.9445 7.00033 14.0001C7.00033 12.0556 7.68088 10.4029 9.04199 9.04175C10.4031 7.68064 12.0559 7.00008 14.0003 7.00008C15.9448 7.00008 17.5975 7.68064 18.9587 9.04175C20.3198 10.4029 21.0003 12.0556 21.0003 14.0001C21.0003 15.9445 20.3198 17.5973 18.9587 18.9584C17.5975 20.3195 15.9448 21.0001 14.0003 21.0001ZM14.0003 18.6667C15.2837 18.6667 16.3823 18.2098 17.2962 17.2959C18.21 16.382 18.667 15.2834 18.667 14.0001C18.667 12.7167 18.21 11.6181 17.2962 10.7042C16.3823 9.79036 15.2837 9.33342 14.0003 9.33342C12.717 9.33342 11.6184 9.79036 10.7045 10.7042C9.7906 11.6181 9.33366 12.7167 9.33366 14.0001C9.33366 15.2834 9.7906 16.382 10.7045 17.2959C11.6184 18.2098 12.717 18.6667 14.0003 18.6667Z" fill="#191919"/>
</svg>
