<svg width="16" height="16" viewBox="0 0 16 16" fill="none" xmlns="http://www.w3.org/2000/svg">
<g clip-path="url(#clip0_1146_14444)">
<path d="M8.00033 3.33341C7.81144 3.33341 7.6531 3.26953 7.52533 3.14175C7.39755 3.01397 7.33366 2.85564 7.33366 2.66675V1.33341C7.33366 1.14453 7.39755 0.986192 7.52533 0.858415C7.6531 0.730637 7.81144 0.666748 8.00033 0.666748C8.18921 0.666748 8.34755 0.730637 8.47533 0.858415C8.6031 0.986192 8.66699 1.14453 8.66699 1.33341V2.66675C8.66699 2.85564 8.6031 3.01397 8.47533 3.14175C8.34755 3.26953 8.18921 3.33341 8.00033 3.33341ZM11.3003 4.70008C11.1781 4.57786 11.117 4.42508 11.117 4.24175C11.117 4.05841 11.1781 3.90008 11.3003 3.76675L12.2337 2.81675C12.367 2.68341 12.5253 2.61675 12.7087 2.61675C12.892 2.61675 13.0503 2.68341 13.1837 2.81675C13.3059 2.93897 13.367 3.09453 13.367 3.28341C13.367 3.4723 13.3059 3.62786 13.1837 3.75008L12.2337 4.70008C12.1114 4.8223 11.9559 4.88341 11.767 4.88341C11.5781 4.88341 11.4225 4.8223 11.3003 4.70008ZM13.3337 8.66675C13.1448 8.66675 12.9864 8.60286 12.8587 8.47508C12.7309 8.3473 12.667 8.18897 12.667 8.00008C12.667 7.81119 12.7309 7.65286 12.8587 7.52508C12.9864 7.3973 13.1448 7.33342 13.3337 7.33342H14.667C14.8559 7.33342 15.0142 7.3973 15.142 7.52508C15.2698 7.65286 15.3337 7.81119 15.3337 8.00008C15.3337 8.18897 15.2698 8.3473 15.142 8.47508C15.0142 8.60286 14.8559 8.66675 14.667 8.66675H13.3337ZM8.00033 15.3334C7.81144 15.3334 7.6531 15.2695 7.52533 15.1417C7.39755 15.014 7.33366 14.8556 7.33366 14.6667V13.3334C7.33366 13.1445 7.39755 12.9862 7.52533 12.8584C7.6531 12.7306 7.81144 12.6667 8.00033 12.6667C8.18921 12.6667 8.34755 12.7306 8.47533 12.8584C8.6031 12.9862 8.66699 13.1445 8.66699 13.3334V14.6667C8.66699 14.8556 8.6031 15.014 8.47533 15.1417C8.34755 15.2695 8.18921 15.3334 8.00033 15.3334ZM3.76699 4.70008L2.81699 3.76675C2.68366 3.63341 2.61699 3.4723 2.61699 3.28341C2.61699 3.09453 2.68366 2.93897 2.81699 2.81675C2.93921 2.69453 3.09477 2.63341 3.28366 2.63341C3.47255 2.63341 3.6281 2.69453 3.75033 2.81675L4.70033 3.76675C4.82255 3.88897 4.88366 4.04453 4.88366 4.23341C4.88366 4.4223 4.82255 4.57786 4.70033 4.70008C4.56699 4.8223 4.41144 4.88341 4.23366 4.88341C4.05588 4.88341 3.90033 4.8223 3.76699 4.70008ZM12.2337 13.1834L11.3003 12.2334C11.1781 12.1001 11.117 11.9417 11.117 11.7584C11.117 11.5751 11.1781 11.4223 11.3003 11.3001C11.4225 11.1779 11.5753 11.1167 11.7587 11.1167C11.942 11.1167 12.1003 11.1779 12.2337 11.3001L13.1837 12.2334C13.317 12.3556 13.3809 12.5112 13.3753 12.7001C13.3698 12.889 13.3059 13.0501 13.1837 13.1834C13.0503 13.3167 12.8892 13.3834 12.7003 13.3834C12.5114 13.3834 12.3559 13.3167 12.2337 13.1834ZM1.33366 8.66675C1.14477 8.66675 0.986437 8.60286 0.858659 8.47508C0.730881 8.3473 0.666992 8.18897 0.666992 8.00008C0.666992 7.81119 0.730881 7.65286 0.858659 7.52508C0.986437 7.3973 1.14477 7.33342 1.33366 7.33342H2.66699C2.85588 7.33342 3.01421 7.3973 3.14199 7.52508C3.26977 7.65286 3.33366 7.81119 3.33366 8.00008C3.33366 8.18897 3.26977 8.3473 3.14199 8.47508C3.01421 8.60286 2.85588 8.66675 2.66699 8.66675H1.33366ZM2.81699 13.1834C2.69477 13.0612 2.63366 12.9056 2.63366 12.7167C2.63366 12.5279 2.69477 12.3723 2.81699 12.2501L3.76699 11.3001C3.88921 11.1779 4.04199 11.1167 4.22533 11.1167C4.40866 11.1167 4.56699 11.1779 4.70033 11.3001C4.83366 11.4334 4.90033 11.5917 4.90033 11.7751C4.90033 11.9584 4.83366 12.1167 4.70033 12.2501L3.76699 13.1834C3.63366 13.3167 3.47255 13.3834 3.28366 13.3834C3.09477 13.3834 2.93921 13.3167 2.81699 13.1834ZM8.00033 12.0001C6.88921 12.0001 5.94477 11.6112 5.16699 10.8334C4.38921 10.0556 4.00033 9.11119 4.00033 8.00008C4.00033 6.88897 4.38921 5.94453 5.16699 5.16675C5.94477 4.38897 6.88921 4.00008 8.00033 4.00008C9.11144 4.00008 10.0559 4.38897 10.8337 5.16675C11.6114 5.94453 12.0003 6.88897 12.0003 8.00008C12.0003 9.11119 11.6114 10.0556 10.8337 10.8334C10.0559 11.6112 9.11144 12.0001 8.00033 12.0001ZM8.00033 10.6667C8.73366 10.6667 9.36144 10.4056 9.88366 9.88342C10.4059 9.36119 10.667 8.73342 10.667 8.00008C10.667 7.26675 10.4059 6.63897 9.88366 6.11675C9.36144 5.59453 8.73366 5.33342 8.00033 5.33342C7.26699 5.33342 6.63921 5.59453 6.11699 6.11675C5.59477 6.63897 5.33366 7.26675 5.33366 8.00008C5.33366 8.73342 5.59477 9.36119 6.11699 9.88342C6.63921 10.4056 7.26699 10.6667 8.00033 10.6667Z" fill="#191919"/>
</g>
<defs>
<clipPath id="clip0_1146_14444">
<rect width="16" height="16" fill="white"/>
</clipPath>
</defs>
</svg>
