<svg width="16" height="16" viewBox="0 0 16 16" fill="none" xmlns="http://www.w3.org/2000/svg"><path d="M5.525 8.475Q5.33333 8.28333 5.33333 8V3.88333l-1.25 1.25Q3.9 5.31666 3.625 5.31666t-.475-.18333q-.2-.2-.2-.475t.2-.475L5.53333 1.8q.1-.1.21667-.14167T6 1.61666q.13333 0 .25.04167T6.46667 1.8l2.4 2.4q.2.2.19167.46666T8.85 5.13333q-.2.18333-.46666.19167t-.46667-.19167l-1.25-1.25V8q0 .28333-.19167.475T6 8.66667q-.28333 0-.475-.19167Zm4.225 5.86667Q9.63334 14.3 9.53334 14.2l-2.4-2.4q-.2-.2-.19167-.46667t.20833-.46666q.2-.18334.46667-.19167t.46666.19167l1.25 1.25V8q0-.28333.19167-.475T10 7.33333q.28334 0 .475.19167t.19167.475v4.11667l1.25-1.25q.18333-.18334.45833-.18334t.475.18334q.2.2.2.475t-.2.475L10.46667 14.2q-.1.1-.21667.14167t-.25.04166q-.13333 0-.25-.04166Z" fill="#000"/></svg>