<svg width="28" height="28" viewBox="0 0 28 28" fill="none" xmlns="http://www.w3.org/2000/svg"><path d="M9.66875 14.83125Q9.33333 14.49583 9.33333 14V6.79583l-2.1875 2.1875q-.32083.32083-.80208.32083t-.83125-.32083q-.35-.35-.35-.83125t.35-.83125L9.68333 3.15q.175-.175.37917-.24792t.4375-.07292q.23333 0 .4375.07292t.37917.24792l4.2 4.2q.35.35.33542.81666t-.36459.81667q-.35.32083-.81666.33542t-.81667-.33542l-2.1875-2.1875V14q0 .49583-.33542.83125t-.83125.33542q-.49583 0-.83125-.33542Zm7.39375 10.26667q-.20416-.07292-.37916-.24792l-4.2-4.2q-.35-.35-.33542-.81667t.36458-.81666q.35-.32084.81667-.33542t.81666.33542l2.1875 2.1875V14q0-.49583.33542-.83125t.83125-.33542q.49584 0 .83125.33542T18.66667 14v7.20417l2.1875-2.1875q.32083-.32084.80208-.32084t.83125.32084q.35.35.35.83125t-.35.83125L18.31667 24.85q-.175.175-.37917.24792t-.4375.07291q-.23333 0-.4375-.07291Z" fill="#000"/></svg>