<svg width="24" height="24" viewBox="0 0 24 24" fill="none" xmlns="http://www.w3.org/2000/svg"><path d="M8.2875 12.7125Q8 12.425 8 12V5.825L6.125 7.7q-.275.275-.6875.275T4.725 7.7q-.3-.3-.3-.7125t.3-.7125L8.3 2.7q.15-.15.325-.2125T9 2.425q.2 0 .375.0625T9.7 2.7l3.6 3.6q.3.3.2875.7t-.3125.7q-.3.275-.7.2875t-.7-.2875L10 5.825V12q0 .425-.2875.7125T9 13q-.425 0-.7125-.2875Zm6.3375 8.8Q14.45 21.45 14.3 21.3l-3.6-3.6q-.3-.3-.2875-.7t.3125-.7q.3-.275.7-.2875t.7.2875L14 18.175V12q0-.425.2875-.7125T15 11q.425 0 .7125.2875T16 12v6.175l1.875-1.875q.275-.275.6875-.275t.7125.275q.3.3.3.7125t-.3.7125L15.7 21.3q-.15.15-.325.2125T15 21.575q-.2 0-.375-.0625Z" fill="#000"/></svg>