<svg width="16" height="16" viewBox="0 0 16 16" fill="none" xmlns="http://www.w3.org/2000/svg">
<path d="M7.82754 10.5882C7.94754 10.4682 8.09014 10.4082 8.25534 10.4082C8.42014 10.4082 8.55753 10.4632 8.66753 10.5732L9.80752 11.7132V3.20818C9.80752 3.03818 9.86512 2.89578 9.98032 2.78098C10.0951 2.66578 10.2375 2.60818 10.4075 2.60818C10.5775 2.60818 10.7201 2.66578 10.8353 2.78098C10.9501 2.89578 11.0075 3.03818 11.0075 3.20818V11.7132L12.1475 10.5732C12.2575 10.4632 12.3951 10.4082 12.5603 10.4082C12.7251 10.4082 12.8675 10.4682 12.9875 10.5882C13.0975 10.6982 13.1525 10.8382 13.1525 11.0082C13.1525 11.1782 13.0975 11.3182 12.9875 11.4282L10.8275 13.5882C10.7675 13.6482 10.7025 13.6908 10.6325 13.716C10.5625 13.7408 10.4875 13.7532 10.4075 13.7532C10.3275 13.7532 10.2525 13.7408 10.1825 13.716C10.1125 13.6908 10.0475 13.6482 9.98752 13.5882L7.82754 11.4282C7.70754 11.3082 7.65015 11.1658 7.65534 11.001C7.66014 10.8358 7.71754 10.6982 7.82754 10.5882ZM3.0276 4.58819L5.18757 2.42818C5.24757 2.36818 5.31257 2.32578 5.38257 2.30098C5.45257 2.27578 5.52757 2.26318 5.60757 2.26318C5.68757 2.26318 5.76257 2.27578 5.83257 2.30098C5.90257 2.32578 5.96756 2.36818 6.02756 2.42818L8.18754 4.58819C8.29754 4.69819 8.35514 4.83579 8.36034 5.00099C8.36514 5.16579 8.30754 5.30819 8.18754 5.42819C8.07754 5.54819 7.94014 5.61059 7.77534 5.61539C7.61015 5.62059 7.46755 5.56319 7.34755 5.44319L6.20756 4.30319V12.8082C6.20756 12.9782 6.15016 13.1206 6.03536 13.2354C5.92017 13.3506 5.77757 13.4082 5.60757 13.4082C5.43757 13.4082 5.29517 13.3506 5.18037 13.2354C5.06518 13.1206 5.00758 12.9782 5.00758 12.8082V4.30319L3.86759 5.44319C3.75759 5.55319 3.61759 5.61059 3.44759 5.61539C3.27759 5.62059 3.1376 5.56319 3.0276 5.44319C2.9076 5.33319 2.8476 5.19319 2.8476 5.02319C2.8476 4.85319 2.9076 4.70819 3.0276 4.58819Z" fill="black"/>
</svg>
