<svg width="28" height="28" viewBox="0 0 28 28" fill="none" xmlns="http://www.w3.org/2000/svg">
<path d="M13.6982 18.5292C13.9082 18.3192 14.1577 18.2142 14.4468 18.2142C14.7352 18.2142 14.9757 18.3105 15.1682 18.503L17.1632 20.498V5.6142C17.1632 5.3167 17.264 5.0675 17.4656 4.8666C17.6665 4.665 17.9157 4.5642 18.2132 4.5642C18.5106 4.5642 18.7602 4.665 18.9618 4.8666C19.1627 5.0675 19.2631 5.3167 19.2631 5.6142V20.498L21.2581 18.503C21.4506 18.3105 21.6914 18.2142 21.9805 18.2142C22.2689 18.2142 22.5181 18.3192 22.7281 18.5292C22.9206 18.7217 23.0168 18.9667 23.0168 19.2642C23.0168 19.5617 22.9206 19.8067 22.7281 19.9992L18.9481 23.7792C18.8431 23.8842 18.7294 23.9588 18.6069 24.0029C18.4844 24.0463 18.3531 24.068 18.2132 24.068C18.0732 24.068 17.9419 24.0463 17.8194 24.0029C17.6969 23.9588 17.5832 23.8842 17.4782 23.7792L13.6982 19.9992C13.4882 19.7892 13.3878 19.54 13.3969 19.2516C13.4053 18.9625 13.5057 18.7217 13.6982 18.5292ZM5.2983 8.0292L9.07826 4.2492C9.18325 4.1442 9.297 4.07 9.4195 4.0266C9.542 3.9825 9.67325 3.96045 9.81325 3.96045C9.95325 3.96045 10.0845 3.9825 10.207 4.0266C10.3295 4.07 10.4432 4.1442 10.5482 4.2492L14.3282 8.0292C14.5207 8.2217 14.6215 8.4625 14.6306 8.7516C14.639 9.04001 14.5382 9.28921 14.3282 9.49921C14.1357 9.70921 13.8953 9.81841 13.6069 9.82681C13.3178 9.83591 13.0682 9.73546 12.8582 9.52546L10.8632 7.53045V22.4142C10.8632 22.7117 10.7628 22.9609 10.5619 23.1618C10.3603 23.3634 10.1107 23.4642 9.81325 23.4642C9.51575 23.4642 9.26655 23.3634 9.06566 23.1618C8.86406 22.9609 8.76326 22.7117 8.76326 22.4142V7.53045L6.76828 9.52546C6.57578 9.71796 6.33079 9.81841 6.03329 9.82681C5.73579 9.83591 5.4908 9.73546 5.2983 9.52546C5.0883 9.33296 4.9833 9.08796 4.9833 8.79046C4.9833 8.49296 5.0883 8.2392 5.2983 8.0292Z" fill="black"/>
</svg>
