<svg width="24" height="24" viewBox="0 0 24 24" fill="none" xmlns="http://www.w3.org/2000/svg">
<path d="M11.7413 15.882C11.9213 15.702 12.1352 15.612 12.383 15.612C12.6302 15.612 12.8363 15.6945 13.0013 15.8595L14.7113 17.5695V4.81203C14.7113 4.55703 14.7977 4.34343 14.9705 4.17123C15.1427 3.99843 15.3563 3.91203 15.6113 3.91203C15.8663 3.91203 16.0802 3.99843 16.253 4.17123C16.4252 4.34343 16.5113 4.55703 16.5113 4.81203V17.5695L18.2212 15.8595C18.3862 15.6945 18.5926 15.612 18.8404 15.612C19.0876 15.612 19.3012 15.702 19.4812 15.882C19.6462 16.047 19.7287 16.257 19.7287 16.512C19.7287 16.767 19.6462 16.977 19.4812 17.142L16.2413 20.3821C16.1513 20.4721 16.0538 20.536 15.9488 20.5738C15.8438 20.611 15.7313 20.6296 15.6113 20.6296C15.4913 20.6296 15.3788 20.611 15.2738 20.5738C15.1688 20.536 15.0713 20.4721 14.9813 20.3821L11.7413 17.142C11.5613 16.962 11.4752 16.7484 11.483 16.5012C11.4902 16.2534 11.5763 16.047 11.7413 15.882ZM4.5414 6.88204L7.78136 3.64203C7.87136 3.55203 7.96886 3.48843 8.07386 3.45123C8.17885 3.41343 8.29135 3.39453 8.41135 3.39453C8.53135 3.39453 8.64385 3.41343 8.74885 3.45123C8.85385 3.48843 8.95135 3.55203 9.04134 3.64203L12.2813 6.88204C12.4463 7.04704 12.5327 7.25344 12.5405 7.50124C12.5477 7.74844 12.4613 7.96204 12.2813 8.14204C12.1163 8.32204 11.9102 8.41564 11.663 8.42284C11.4152 8.43064 11.2013 8.34454 11.0213 8.16454L9.31134 6.45453V19.2121C9.31134 19.4671 9.22524 19.6807 9.05305 19.8529C8.88025 20.0257 8.66635 20.1121 8.41135 20.1121C8.15636 20.1121 7.94276 20.0257 7.77056 19.8529C7.59776 19.6807 7.51136 19.4671 7.51136 19.2121V6.45453L5.80138 8.16454C5.63638 8.32954 5.42639 8.41564 5.17139 8.42284C4.91639 8.43064 4.7064 8.34454 4.5414 8.16454C4.3614 7.99954 4.2714 7.78954 4.2714 7.53454C4.2714 7.27954 4.3614 7.06204 4.5414 6.88204Z" fill="black"/>
</svg>
