<svg width="16" height="16" viewBox="0 0 16 16" fill="none" xmlns="http://www.w3.org/2000/svg">
<path fill-rule="evenodd" clip-rule="evenodd" d="M8 14C11.3137 14 14 11.3137 14 8C14 4.68629 11.3137 2 8 2C4.68629 2 2 4.68629 2 8C2 11.3137 4.68629 14 8 14ZM10.5303 7.03033C10.8232 6.73744 10.8232 6.26256 10.5303 5.96967C10.2374 5.67678 9.76257 5.67678 9.46967 5.96967L7 8.43934L6.53033 7.96967C6.23744 7.67678 5.76256 7.67678 5.46967 7.96967C5.17678 8.26256 5.17678 8.73744 5.46967 9.03033L6.46967 10.0303C6.76257 10.3232 7.23744 10.3232 7.53033 10.0303L10.5303 7.03033Z" fill="black"/>
</svg>
