<svg width="24" height="24" viewBox="0 0 24 24" fill="none" xmlns="http://www.w3.org/2000/svg">
<path fill-rule="evenodd" clip-rule="evenodd" d="M12 21C16.9706 21 21 16.9706 21 12C21 7.02944 16.9706 3 12 3C7.02944 3 3 7.02944 3 12C3 16.9706 7.02944 21 12 21ZM15.7955 10.5455C16.2348 10.1062 16.2348 9.39384 15.7955 8.9545C15.3562 8.51516 14.6438 8.51516 14.2045 8.9545L10.5 12.659L9.79549 11.9545C9.35615 11.5152 8.64384 11.5152 8.2045 11.9545C7.76516 12.3938 7.76517 13.1062 8.20451 13.5455L9.70451 15.0455C10.1438 15.4848 10.8562 15.4848 11.2955 15.0455L15.7955 10.5455Z" fill="black"/>
</svg>
