<svg width="16" height="16" viewBox="0 0 16 16" fill="none" xmlns="http://www.w3.org/2000/svg">
<path d="M10.3536 6.85355C10.5488 6.65829 10.5488 6.34171 10.3536 6.14645C10.1583 5.95118 9.84171 5.95118 9.64645 6.14645L7 8.79289L6.35355 8.14645C6.15829 7.95118 5.84171 7.95118 5.64645 8.14645C5.45118 8.34171 5.45118 8.65829 5.64645 8.85355L6.64645 9.85355C6.84171 10.0488 7.15829 10.0488 7.35356 9.85355L10.3536 6.85355Z" fill="black"/>
<path fill-rule="evenodd" clip-rule="evenodd" d="M14 8C14 11.3137 11.3137 14 8 14C4.68629 14 2 11.3137 2 8C2 4.68629 4.68629 2 8 2C11.3137 2 14 4.68629 14 8ZM13 8C13 10.7614 10.7614 13 8 13C5.23858 13 3 10.7614 3 8C3 5.23858 5.23858 3 8 3C10.7614 3 13 5.23858 13 8Z" fill="black"/>
</svg>
