<svg width="16" height="16" viewBox="0 0 16 16" fill="none" xmlns="http://www.w3.org/2000/svg">
<path d="M7.06671 9.20004L5.61671 7.75004C5.49449 7.62782 5.34182 7.5696 5.15871 7.57537C4.97515 7.58071 4.82226 7.64448 4.70004 7.76671C4.57782 7.88893 4.51671 8.04448 4.51671 8.23337C4.51671 8.42226 4.57782 8.57782 4.70004 8.70004L6.60004 10.6C6.72226 10.7223 6.87782 10.7834 7.06671 10.7834C7.2556 10.7834 7.41115 10.7223 7.53337 10.6L11.3167 6.81671C11.4389 6.69449 11.4974 6.5416 11.492 6.35804C11.4863 6.17493 11.4223 6.02226 11.3 5.90004C11.1778 5.77782 11.0223 5.71671 10.8334 5.71671C10.6445 5.71671 10.4889 5.77782 10.3667 5.90004L7.06671 9.20004ZM8.00004 14.6667C7.07782 14.6667 6.21115 14.4916 5.40004 14.1414C4.58893 13.7916 3.88337 13.3167 3.28337 12.7167C2.68337 12.1167 2.20849 11.4112 1.85871 10.6C1.50849 9.78893 1.33337 8.92226 1.33337 8.00004C1.33337 7.07782 1.50849 6.21115 1.85871 5.40004C2.20849 4.58893 2.68337 3.88337 3.28337 3.28337C3.88337 2.68337 4.58893 2.20826 5.40004 1.85804C6.21115 1.50826 7.07782 1.33337 8.00004 1.33337C8.92226 1.33337 9.78893 1.50826 10.6 1.85804C11.4112 2.20826 12.1167 2.68337 12.7167 3.28337C13.3167 3.88337 13.7916 4.58893 14.1414 5.40004C14.4916 6.21115 14.6667 7.07782 14.6667 8.00004C14.6667 8.92226 14.4916 9.78893 14.1414 10.6C13.7916 11.4112 13.3167 12.1167 12.7167 12.7167C12.1167 13.3167 11.4112 13.7916 10.6 14.1414C9.78893 14.4916 8.92226 14.6667 8.00004 14.6667ZM8.00004 13.3334C9.47782 13.3334 10.7363 12.814 11.7754 11.7754C12.814 10.7363 13.3334 9.47782 13.3334 8.00004C13.3334 6.52226 12.814 5.26382 11.7754 4.22471C10.7363 3.18604 9.47782 2.66671 8.00004 2.66671C6.52226 2.66671 5.26404 3.18604 4.22537 4.22471C3.18626 5.26382 2.66671 6.52226 2.66671 8.00004C2.66671 9.47782 3.18626 10.7363 4.22537 11.7754C5.26404 12.814 6.52226 13.3334 8.00004 13.3334Z" fill="black"/>
</svg>
