<svg width="28" height="28" viewBox="0 0 28 28" fill="none" xmlns="http://www.w3.org/2000/svg">
<path fill-rule="evenodd" clip-rule="evenodd" d="M14 24.5C19.799 24.5 24.5 19.799 24.5 14C24.5 8.20101 19.799 3.5 14 3.5C8.20101 3.5 3.5 8.20101 3.5 14C3.5 19.799 8.20101 24.5 14 24.5ZM18.4281 12.3031C18.9406 11.7905 18.9406 10.9595 18.4281 10.4469C17.9155 9.93436 17.0845 9.93436 16.5719 10.4469L12.25 14.7688L11.4281 13.9469C10.9155 13.4344 10.0845 13.4344 9.57192 13.9469C9.05936 14.4595 9.05936 15.2905 9.57192 15.8031L11.3219 17.5531C11.8345 18.0656 12.6655 18.0656 13.1781 17.5531L18.4281 12.3031Z" fill="black"/>
</svg>
