<svg width="28" height="28" viewBox="0 0 28 28" fill="none" xmlns="http://www.w3.org/2000/svg">
<path d="M18.1187 11.9937C18.4604 11.652 18.4604 11.098 18.1187 10.7563C17.777 10.4146 17.223 10.4146 16.8813 10.7563L12.25 15.3876L11.1187 14.2563C10.777 13.9146 10.223 13.9146 9.88128 14.2563C9.53957 14.598 9.53957 15.152 9.88128 15.4937L11.6313 17.2437C11.973 17.5854 12.527 17.5854 12.8687 17.2437L18.1187 11.9937Z" fill="black"/>
<path fill-rule="evenodd" clip-rule="evenodd" d="M24.5 14C24.5 19.799 19.799 24.5 14 24.5C8.20101 24.5 3.5 19.799 3.5 14C3.5 8.20101 8.20101 3.5 14 3.5C19.799 3.5 24.5 8.20101 24.5 14ZM22.75 14C22.75 18.8325 18.8325 22.75 14 22.75C9.16751 22.75 5.25 18.8325 5.25 14C5.25 9.16751 9.16751 5.25 14 5.25C18.8325 5.25 22.75 9.16751 22.75 14Z" fill="black"/>
</svg>
