<svg width="28" height="28" viewBox="0 0 28 28" fill="none" xmlns="http://www.w3.org/2000/svg">
<path d="M12.3667 16.1L9.85837 13.5917C9.64449 13.3778 9.37226 13.2709 9.04171 13.2709C8.71115 13.2709 8.43893 13.3778 8.22504 13.5917C8.01115 13.8056 7.90421 14.0778 7.90421 14.4084C7.90421 14.7389 8.01115 15.0112 8.22504 15.225L11.55 18.55C11.7834 18.7834 12.0556 18.9 12.3667 18.9C12.6778 18.9 12.95 18.7834 13.1834 18.55L19.775 11.9584C19.9889 11.7445 20.0959 11.4723 20.0959 11.1417C20.0959 10.8112 19.9889 10.5389 19.775 10.325C19.5612 10.1112 19.2889 10.0042 18.9584 10.0042C18.6278 10.0042 18.3556 10.1112 18.1417 10.325L12.3667 16.1ZM14 25.6667C12.3862 25.6667 10.8695 25.3605 9.45004 24.748C8.0306 24.1355 6.79587 23.3042 5.74587 22.2542C4.69587 21.2042 3.86462 19.9695 3.25212 18.55C2.63962 17.1306 2.33337 15.6139 2.33337 14C2.33337 12.3862 2.63962 10.8695 3.25212 9.45004C3.86462 8.0306 4.69587 6.79587 5.74587 5.74587C6.79587 4.69587 8.0306 3.86462 9.45004 3.25212C10.8695 2.63962 12.3862 2.33337 14 2.33337C15.6139 2.33337 17.1306 2.63962 18.55 3.25212C19.9695 3.86462 21.2042 4.69587 22.2542 5.74587C23.3042 6.79587 24.1355 8.0306 24.748 9.45004C25.3605 10.8695 25.6667 12.3862 25.6667 14C25.6667 15.6139 25.3605 17.1306 24.748 18.55C24.1355 19.9695 23.3042 21.2042 22.2542 22.2542C21.2042 23.3042 19.9695 24.1355 18.55 24.748C17.1306 25.3605 15.6139 25.6667 14 25.6667Z" fill="black"/>
</svg>
