<svg width="28" height="28" viewBox="0 0 28 28" fill="none" xmlns="http://www.w3.org/2000/svg">
<path d="M12.3667 16.1L9.82921 13.5625C9.61532 13.3487 9.34815 13.2468 9.02771 13.2569C8.70649 13.2662 8.43893 13.3778 8.22504 13.5917C8.01115 13.8056 7.90421 14.0778 7.90421 14.4084C7.90421 14.7389 8.01115 15.0112 8.22504 15.225L11.55 18.55C11.7639 18.7639 12.0362 18.8709 12.3667 18.8709C12.6973 18.8709 12.9695 18.7639 13.1834 18.55L19.8042 11.9292C20.0181 11.7153 20.1204 11.4478 20.111 11.1265C20.1009 10.8061 19.9889 10.5389 19.775 10.325C19.5612 10.1112 19.2889 10.0042 18.9584 10.0042C18.6278 10.0042 18.3556 10.1112 18.1417 10.325L12.3667 16.1ZM14 25.6667C12.3862 25.6667 10.8695 25.3603 9.45004 24.7474C8.0306 24.1353 6.79587 23.3042 5.74587 22.2542C4.69587 21.2042 3.86482 19.9695 3.25271 18.55C2.63982 17.1306 2.33337 15.6139 2.33337 14C2.33337 12.3862 2.63982 10.8695 3.25271 9.45004C3.86482 8.0306 4.69587 6.79587 5.74587 5.74587C6.79587 4.69587 8.0306 3.86443 9.45004 3.25154C10.8695 2.63943 12.3862 2.33337 14 2.33337C15.6139 2.33337 17.1306 2.63943 18.55 3.25154C19.9695 3.86443 21.2042 4.69587 22.2542 5.74587C23.3042 6.79587 24.1353 8.0306 24.7474 9.45004C25.3603 10.8695 25.6667 12.3862 25.6667 14C25.6667 15.6139 25.3603 17.1306 24.7474 18.55C24.1353 19.9695 23.3042 21.2042 22.2542 22.2542C21.2042 23.3042 19.9695 24.1353 18.55 24.7474C17.1306 25.3603 15.6139 25.6667 14 25.6667ZM14 23.3334C16.5862 23.3334 18.7884 22.4245 20.6069 20.6069C22.4245 18.7884 23.3334 16.5862 23.3334 14C23.3334 11.4139 22.4245 9.21165 20.6069 7.39321C18.7884 5.57554 16.5862 4.66671 14 4.66671C11.4139 4.66671 9.21204 5.57554 7.39437 7.39321C5.57593 9.21165 4.66671 11.4139 4.66671 14C4.66671 16.5862 5.57593 18.7884 7.39437 20.6069C9.21204 22.4245 11.4139 23.3334 14 23.3334Z" fill="black"/>
</svg>
