<svg width="16" height="16" viewBox="0 0 16 16" fill="none" xmlns="http://www.w3.org/2000/svg">
<path d="M7.06671 9.20004L5.63337 7.76671C5.51115 7.64449 5.3556 7.58337 5.16671 7.58337C4.97782 7.58337 4.82226 7.64449 4.70004 7.76671C4.57782 7.88893 4.51671 8.04448 4.51671 8.23337C4.51671 8.42226 4.57782 8.57782 4.70004 8.70004L6.60004 10.6C6.73337 10.7334 6.88893 10.8 7.06671 10.8C7.24449 10.8 7.40004 10.7334 7.53337 10.6L11.3 6.83337C11.4223 6.71115 11.4834 6.5556 11.4834 6.36671C11.4834 6.17782 11.4223 6.02226 11.3 5.90004C11.1778 5.77782 11.0223 5.71671 10.8334 5.71671C10.6445 5.71671 10.4889 5.77782 10.3667 5.90004L7.06671 9.20004ZM8.00004 14.6667C7.07782 14.6667 6.21115 14.4917 5.40004 14.1417C4.58893 13.7917 3.88337 13.3167 3.28337 12.7167C2.68337 12.1167 2.20837 11.4112 1.85837 10.6C1.50837 9.78893 1.33337 8.92226 1.33337 8.00004C1.33337 7.07782 1.50837 6.21115 1.85837 5.40004C2.20837 4.58893 2.68337 3.88337 3.28337 3.28337C3.88337 2.68337 4.58893 2.20837 5.40004 1.85837C6.21115 1.50837 7.07782 1.33337 8.00004 1.33337C8.92226 1.33337 9.78893 1.50837 10.6 1.85837C11.4112 2.20837 12.1167 2.68337 12.7167 3.28337C13.3167 3.88337 13.7917 4.58893 14.1417 5.40004C14.4917 6.21115 14.6667 7.07782 14.6667 8.00004C14.6667 8.92226 14.4917 9.78893 14.1417 10.6C13.7917 11.4112 13.3167 12.1167 12.7167 12.7167C12.1167 13.3167 11.4112 13.7917 10.6 14.1417C9.78893 14.4917 8.92226 14.6667 8.00004 14.6667Z" fill="black"/>
</svg>
