<svg width="28" height="28" viewBox="0 0 28 28" fill="none" xmlns="http://www.w3.org/2000/svg">
<path d="M4.66665 23.3333C4.02498 23.3333 3.47567 23.1048 3.01873 22.6479C2.56179 22.1909 2.33331 21.6416 2.33331 21V6.99996C2.33331 6.35829 2.56179 5.80899 3.01873 5.35204C3.47567 4.8951 4.02498 4.66663 4.66665 4.66663H23.3333C23.975 4.66663 24.5243 4.8951 24.9812 5.35204C25.4382 5.80899 25.6666 6.35829 25.6666 6.99996V21C25.6666 21.6416 25.4382 22.1909 24.9812 22.6479C24.5243 23.1048 23.975 23.3333 23.3333 23.3333H4.66665ZM4.66665 21H23.3333V9.33329H4.66665V21ZM10.1208 15.1666L7.90415 12.95C7.67081 12.7166 7.55901 12.4444 7.56873 12.1333C7.57845 11.8222 7.69998 11.55 7.93331 11.3166C8.16665 11.1027 8.43887 10.9909 8.74998 10.9812C9.06109 10.9715 9.33331 11.0833 9.56665 11.3166L12.6 14.35C12.8333 14.5833 12.95 14.8555 12.95 15.1666C12.95 15.4777 12.8333 15.75 12.6 15.9833L9.56665 19.0166C9.35276 19.2305 9.0854 19.3423 8.76456 19.352C8.44373 19.3618 8.16665 19.25 7.93331 19.0166C7.71942 18.8027 7.61248 18.5305 7.61248 18.2C7.61248 17.8694 7.71942 17.5972 7.93331 17.3833L10.1208 15.1666ZM15.1666 19.8333C14.8361 19.8333 14.559 19.7215 14.3354 19.4979C14.1118 19.2743 14 18.9972 14 18.6666C14 18.3361 14.1118 18.059 14.3354 17.8354C14.559 17.6118 14.8361 17.5 15.1666 17.5H19.8333C20.1639 17.5 20.441 17.6118 20.6646 17.8354C20.8882 18.059 21 18.3361 21 18.6666C21 18.9972 20.8882 19.2743 20.6646 19.4979C20.441 19.7215 20.1639 19.8333 19.8333 19.8333H15.1666Z" fill="black"/>
</svg>
