<svg width="16" height="16" viewBox="0 0 16 16" fill="none" xmlns="http://www.w3.org/2000/svg">
<path d="M2.66665 13.3333C2.29998 13.3333 1.98609 13.2027 1.72498 12.9416C1.46387 12.6805 1.33331 12.3666 1.33331 12V3.99996C1.33331 3.63329 1.46387 3.3194 1.72498 3.05829C1.98609 2.79718 2.29998 2.66663 2.66665 2.66663H13.3333C13.7 2.66663 14.0139 2.79718 14.275 3.05829C14.5361 3.3194 14.6666 3.63329 14.6666 3.99996V12C14.6666 12.3666 14.5361 12.6805 14.275 12.9416C14.0139 13.2027 13.7 13.3333 13.3333 13.3333H2.66665ZM2.66665 12H13.3333V5.33329H2.66665V12ZM5.78331 8.66663L4.51665 7.39996C4.38331 7.26663 4.31942 7.11107 4.32498 6.93329C4.33054 6.75552 4.39998 6.59996 4.53331 6.46663C4.66665 6.3444 4.8222 6.28051 4.99998 6.27496C5.17776 6.2694 5.33331 6.33329 5.46665 6.46663L7.19998 8.19996C7.33331 8.33329 7.39998 8.48885 7.39998 8.66663C7.39998 8.8444 7.33331 8.99996 7.19998 9.13329L5.46665 10.8666C5.34442 10.9888 5.19165 11.0527 5.00831 11.0583C4.82498 11.0638 4.66665 11 4.53331 10.8666C4.41109 10.7444 4.34998 10.5888 4.34998 10.4C4.34998 10.2111 4.41109 10.0555 4.53331 9.93329L5.78331 8.66663ZM8.66665 11.3333C8.47776 11.3333 8.31942 11.2694 8.19165 11.1416C8.06387 11.0138 7.99998 10.8555 7.99998 10.6666C7.99998 10.4777 8.06387 10.3194 8.19165 10.1916C8.31942 10.0638 8.47776 9.99996 8.66665 9.99996H11.3333C11.5222 9.99996 11.6805 10.0638 11.8083 10.1916C11.9361 10.3194 12 10.4777 12 10.6666C12 10.8555 11.9361 11.0138 11.8083 11.1416C11.6805 11.2694 11.5222 11.3333 11.3333 11.3333H8.66665Z" fill="black"/>
</svg>
