<svg width="28" height="28" viewBox="0 0 28 28" fill="none" xmlns="http://www.w3.org/2000/svg">
<path d="M16.8875 18.6667C17.1208 18.9 17.4078 19.0167 17.7485 19.0167C18.0884 19.0167 18.3847 18.8903 18.6375 18.6375C18.8708 18.4042 18.9875 18.1074 18.9875 17.7473C18.9875 17.388 18.8708 17.0917 18.6375 16.8583L15.2833 13.475V9.45001C15.2833 9.08056 15.162 8.77917 14.9193 8.54584C14.6759 8.31251 14.3694 8.19584 14 8.19584C13.6306 8.19584 13.3245 8.31717 13.0818 8.55984C12.8384 8.80328 12.7167 9.10973 12.7167 9.47917V13.9417C12.7167 14.1167 12.7509 14.2866 12.8193 14.4515C12.887 14.6172 12.9889 14.7681 13.125 14.9042L16.8875 18.6667ZM14 25.9C12.3472 25.9 10.7963 25.5889 9.34734 24.9667C7.89912 24.3445 6.64028 23.4986 5.57084 22.4292C4.5014 21.3597 3.65556 20.1009 3.03334 18.6527C2.41112 17.2037 2.10001 15.6528 2.10001 14C2.10001 12.3472 2.41112 10.7963 3.03334 9.34734C3.65556 7.89912 4.5014 6.64028 5.57084 5.57084C6.64028 4.5014 7.89912 3.65556 9.34734 3.03334C10.7963 2.41112 12.3472 2.10001 14 2.10001C15.6528 2.10001 17.2037 2.41112 18.6527 3.03334C20.1009 3.65556 21.3597 4.5014 22.4292 5.57084C23.4986 6.64028 24.3445 7.89912 24.9667 9.34734C25.5889 10.7963 25.9 12.3472 25.9 14C25.9 15.6528 25.5889 17.2037 24.9667 18.6527C24.3445 20.1009 23.4986 21.3597 22.4292 22.4292C21.3597 23.4986 20.1009 24.3445 18.6527 24.9667C17.2037 25.5889 15.6528 25.9 14 25.9ZM14 23.2458C16.5667 23.2458 18.7495 22.3467 20.5485 20.5485C22.3467 18.7495 23.2458 16.5667 23.2458 14C23.2458 11.4333 22.3467 9.25051 20.5485 7.45151C18.7495 5.65328 16.5667 4.75417 14 4.75417C11.4333 4.75417 9.2509 5.65328 7.45267 7.45151C5.65367 9.25051 4.75417 11.4333 4.75417 14C4.75417 16.5667 5.65367 18.7495 7.45267 20.5485C9.2509 22.3467 11.4333 23.2458 14 23.2458Z" fill="black"/>
</svg>
