<svg width="16" height="16" viewBox="0 0 16 16" fill="none" xmlns="http://www.w3.org/2000/svg">
<path d="M9.75001 10.6834C9.87223 10.8056 10.0222 10.8667 10.2 10.8667C10.3778 10.8667 10.5333 10.8 10.6667 10.6667C10.7889 10.5445 10.85 10.3889 10.85 10.2C10.85 10.0112 10.7889 9.8556 10.6667 9.73337L8.66668 7.73337V5.31671C8.66668 5.12782 8.6029 4.97226 8.47534 4.85004C8.34734 4.72782 8.1889 4.66671 8.00001 4.66671C7.81112 4.66671 7.6529 4.73049 7.52534 4.85804C7.39734 4.98604 7.33334 5.14448 7.33334 5.33337V7.98337C7.33334 8.07226 7.35001 8.15826 7.38334 8.24137C7.41668 8.32493 7.46668 8.40004 7.53334 8.46671L9.75001 10.6834ZM8.00001 14.6667C7.07779 14.6667 6.21112 14.4916 5.40001 14.1414C4.5889 13.7916 3.88334 13.3167 3.28334 12.7167C2.68334 12.1167 2.20845 11.4112 1.85868 10.6C1.50845 9.78893 1.33334 8.92226 1.33334 8.00004C1.33334 7.07782 1.50845 6.21115 1.85868 5.40004C2.20845 4.58893 2.68334 3.88337 3.28334 3.28337C3.88334 2.68337 4.5889 2.20826 5.40001 1.85804C6.21112 1.50826 7.07779 1.33337 8.00001 1.33337C8.92223 1.33337 9.7889 1.50826 10.6 1.85804C11.4111 2.20826 12.1167 2.68337 12.7167 3.28337C13.3167 3.88337 13.7916 4.58893 14.1413 5.40004C14.4916 6.21115 14.6667 7.07782 14.6667 8.00004C14.6667 8.92226 14.4916 9.78893 14.1413 10.6C13.7916 11.4112 13.3167 12.1167 12.7167 12.7167C12.1167 13.3167 11.4111 13.7916 10.6 14.1414C9.7889 14.4916 8.92223 14.6667 8.00001 14.6667Z" fill="black"/>
</svg>
