<svg width="28" height="28" viewBox="0 0 28 28" fill="none" xmlns="http://www.w3.org/2000/svg">
<path d="M17.0625 18.6959C17.2764 18.9098 17.5389 19.0167 17.85 19.0167C18.1611 19.0167 18.4333 18.9 18.6667 18.6667C18.8806 18.4528 18.9875 18.1806 18.9875 17.85C18.9875 17.5195 18.8806 17.2473 18.6667 17.0334L15.1667 13.5334V9.30421C15.1667 8.97365 15.0551 8.70143 14.8318 8.48754C14.6078 8.27365 14.3306 8.16671 14 8.16671C13.6695 8.16671 13.3926 8.27832 13.1693 8.50154C12.9453 8.72554 12.8333 9.00282 12.8333 9.33337V13.9709C12.8333 14.1264 12.8625 14.2769 12.9208 14.4224C12.9792 14.5686 13.0667 14.7 13.1833 14.8167L17.0625 18.6959ZM14 25.6667C12.3861 25.6667 10.8695 25.3603 9.45001 24.7474C8.03057 24.1353 6.79584 23.3042 5.74584 22.2542C4.69584 21.2042 3.86479 19.9695 3.25268 18.55C2.63979 17.1306 2.33334 15.6139 2.33334 14C2.33334 12.3862 2.63979 10.8695 3.25268 9.45004C3.86479 8.0306 4.69584 6.79587 5.74584 5.74587C6.79584 4.69587 8.03057 3.86443 9.45001 3.25154C10.8695 2.63943 12.3861 2.33337 14 2.33337C15.6139 2.33337 17.1306 2.63943 18.55 3.25154C19.9695 3.86443 21.2042 4.69587 22.2542 5.74587C23.3042 6.79587 24.1352 8.0306 24.7473 9.45004C25.3602 10.8695 25.6667 12.3862 25.6667 14C25.6667 15.6139 25.3602 17.1306 24.7473 18.55C24.1352 19.9695 23.3042 21.2042 22.2542 22.2542C21.2042 23.3042 19.9695 24.1353 18.55 24.7474C17.1306 25.3603 15.6139 25.6667 14 25.6667Z" fill="black"/>
</svg>
