<svg width="16" height="16" viewBox="0 0 16 16" fill="none" xmlns="http://www.w3.org/2000/svg">
<path d="M9.65001 10.6667C9.78335 10.8 9.94735 10.8667 10.142 10.8667C10.3362 10.8667 10.5056 10.7945 10.65 10.65C10.7833 10.5167 10.85 10.3471 10.85 10.1413C10.85 9.93601 10.7833 9.76668 10.65 9.63335L8.73335 7.70001V5.40001C8.73335 5.1889 8.66401 5.01668 8.52535 4.88335C8.38623 4.75001 8.21112 4.68335 8.00001 4.68335C7.7889 4.68335 7.61401 4.75268 7.47535 4.89135C7.33623 5.03046 7.26668 5.20557 7.26668 5.41668V7.96668C7.26668 8.06668 7.28623 8.16379 7.32535 8.25801C7.36401 8.35268 7.42223 8.4389 7.50001 8.51668L9.65001 10.6667ZM8.00001 14.8C7.05557 14.8 6.16935 14.6222 5.34135 14.2667C4.51379 13.9111 3.79446 13.4278 3.18335 12.8167C2.57223 12.2056 2.0889 11.4862 1.73335 10.6587C1.37779 9.83068 1.20001 8.94446 1.20001 8.00001C1.20001 7.05557 1.37779 6.16935 1.73335 5.34135C2.0889 4.51379 2.57223 3.79446 3.18335 3.18335C3.79446 2.57223 4.51379 2.0889 5.34135 1.73335C6.16935 1.37779 7.05557 1.20001 8.00001 1.20001C8.94446 1.20001 9.83068 1.37779 10.6587 1.73335C11.4862 2.0889 12.2056 2.57223 12.8167 3.18335C13.4278 3.79446 13.9111 4.51379 14.2667 5.34135C14.6222 6.16935 14.8 7.05557 14.8 8.00001C14.8 8.94446 14.6222 9.83068 14.2667 10.6587C13.9111 11.4862 13.4278 12.2056 12.8167 12.8167C12.2056 13.4278 11.4862 13.9111 10.6587 14.2667C9.83068 14.6222 8.94446 14.8 8.00001 14.8ZM8.00001 13.2833C9.46668 13.2833 10.714 12.7696 11.742 11.742C12.7696 10.714 13.2833 9.46668 13.2833 8.00001C13.2833 6.53335 12.7696 5.28601 11.742 4.25801C10.714 3.23046 9.46668 2.71668 8.00001 2.71668C6.53335 2.71668 5.28623 3.23046 4.25868 4.25801C3.23068 5.28601 2.71668 6.53335 2.71668 8.00001C2.71668 9.46668 3.23068 10.714 4.25868 11.742C5.28623 12.7696 6.53335 13.2833 8.00001 13.2833Z" fill="black"/>
</svg>
