<svg width="24" height="24" viewBox="0 0 24 24" fill="none" xmlns="http://www.w3.org/2000/svg">
<path d="M14.475 16C14.675 16.2 14.921 16.3 15.213 16.3C15.5043 16.3 15.7583 16.1917 15.975 15.975C16.175 15.775 16.275 15.5207 16.275 15.212C16.275 14.904 16.175 14.65 15.975 14.45L13.1 11.55V8.09999C13.1 7.78332 12.996 7.52499 12.788 7.32499C12.5793 7.12499 12.3167 7.02499 12 7.02499C11.6833 7.02499 11.421 7.12899 11.213 7.33699C11.0043 7.54565 10.9 7.80832 10.9 8.12499V11.95C10.9 12.1 10.9293 12.2457 10.988 12.387C11.046 12.529 11.1333 12.6583 11.25 12.775L14.475 16ZM12 22.2C10.5833 22.2 9.25399 21.9333 8.01199 21.4C6.77065 20.8667 5.69165 20.1417 4.77499 19.225C3.85832 18.3083 3.13332 17.2293 2.59999 15.988C2.06665 14.746 1.79999 13.4167 1.79999 12C1.79999 10.5833 2.06665 9.25399 2.59999 8.01199C3.13332 6.77065 3.85832 5.69165 4.77499 4.77499C5.69165 3.85832 6.77065 3.13332 8.01199 2.59999C9.25399 2.06665 10.5833 1.79999 12 1.79999C13.4167 1.79999 14.746 2.06665 15.988 2.59999C17.2293 3.13332 18.3083 3.85832 19.225 4.77499C20.1417 5.69165 20.8667 6.77065 21.4 8.01199C21.9333 9.25399 22.2 10.5833 22.2 12C22.2 13.4167 21.9333 14.746 21.4 15.988C20.8667 17.2293 20.1417 18.3083 19.225 19.225C18.3083 20.1417 17.2293 20.8667 15.988 21.4C14.746 21.9333 13.4167 22.2 12 22.2ZM12 19.925C14.2 19.925 16.071 19.1543 17.613 17.613C19.1543 16.071 19.925 14.2 19.925 12C19.925 9.79999 19.1543 7.92899 17.613 6.38699C16.071 4.84565 14.2 4.07499 12 4.07499C9.79999 4.07499 7.92932 4.84565 6.38799 6.38699C4.84599 7.92899 4.07499 9.79999 4.07499 12C4.07499 14.2 4.84599 16.071 6.38799 17.613C7.92932 19.1543 9.79999 19.925 12 19.925Z" fill="black"/>
</svg>
