<svg width="28" height="28" viewBox="0 0 28 28" fill="none" xmlns="http://www.w3.org/2000/svg">
<path d="M10.5 19.25C9.68333 19.25 8.99306 18.9681 8.42917 18.4042C7.86528 17.8403 7.58333 17.15 7.58333 16.3334C7.58333 15.5167 7.86528 14.8264 8.42917 14.2625C8.99306 13.6987 9.68333 13.4167 10.5 13.4167C11.3167 13.4167 12.0069 13.6987 12.5708 14.2625C13.1347 14.8264 13.4167 15.5167 13.4167 16.3334C13.4167 17.15 13.1347 17.8403 12.5708 18.4042C12.0069 18.9681 11.3167 19.25 10.5 19.25ZM5.83333 25.6667C5.19167 25.6667 4.64217 25.4384 4.18483 24.9819C3.72828 24.5245 3.5 23.975 3.5 23.3334V7.00004C3.5 6.35837 3.72828 5.80926 4.18483 5.35271C4.64217 4.89537 5.19167 4.66671 5.83333 4.66671H7V3.50004C7 3.16949 7.11161 2.89221 7.33483 2.66821C7.55883 2.44499 7.83611 2.33337 8.16667 2.33337C8.49722 2.33337 8.7745 2.44499 8.9985 2.66821C9.22172 2.89221 9.33333 3.16949 9.33333 3.50004V4.66671H18.6667V3.50004C18.6667 3.16949 18.7787 2.89221 19.0027 2.66821C19.2259 2.44499 19.5028 2.33337 19.8333 2.33337C20.1639 2.33337 20.4408 2.44499 20.664 2.66821C20.888 2.89221 21 3.16949 21 3.50004V4.66671H22.1667C22.8083 4.66671 23.3578 4.89537 23.8152 5.35271C24.2717 5.80926 24.5 6.35837 24.5 7.00004V23.3334C24.5 23.975 24.2717 24.5245 23.8152 24.9819C23.3578 25.4384 22.8083 25.6667 22.1667 25.6667H5.83333ZM5.83333 23.3334H22.1667V11.6667H5.83333V23.3334Z" fill="black"/>
</svg>
