<svg width="16" height="16" viewBox="0 0 16 16" fill="none" xmlns="http://www.w3.org/2000/svg">
<path d="M6 11C5.53333 11 5.13889 10.8389 4.81667 10.5167C4.49444 10.1945 4.33333 9.80004 4.33333 9.33337C4.33333 8.86671 4.49444 8.47226 4.81667 8.15004C5.13889 7.82782 5.53333 7.66671 6 7.66671C6.46667 7.66671 6.86111 7.82782 7.18333 8.15004C7.50556 8.47226 7.66667 8.86671 7.66667 9.33337C7.66667 9.80004 7.50556 10.1945 7.18333 10.5167C6.86111 10.8389 6.46667 11 6 11ZM3.33333 14.6667C2.96667 14.6667 2.65267 14.5363 2.39133 14.2754C2.13044 14.014 2 13.7 2 13.3334V4.00004C2 3.63337 2.13044 3.3196 2.39133 3.05871C2.65267 2.79737 2.96667 2.66671 3.33333 2.66671H4V2.00004C4 1.81115 4.06378 1.65271 4.19133 1.52471C4.31933 1.39715 4.47778 1.33337 4.66667 1.33337C4.85556 1.33337 5.014 1.39715 5.142 1.52471C5.26956 1.65271 5.33333 1.81115 5.33333 2.00004V2.66671H10.6667V2.00004C10.6667 1.81115 10.7307 1.65271 10.8587 1.52471C10.9862 1.39715 11.1444 1.33337 11.3333 1.33337C11.5222 1.33337 11.6804 1.39715 11.808 1.52471C11.936 1.65271 12 1.81115 12 2.00004V2.66671H12.6667C13.0333 2.66671 13.3473 2.79737 13.6087 3.05871C13.8696 3.3196 14 3.63337 14 4.00004V13.3334C14 13.7 13.8696 14.014 13.6087 14.2754C13.3473 14.5363 13.0333 14.6667 12.6667 14.6667H3.33333ZM3.33333 13.3334H12.6667V6.66671H3.33333V13.3334Z" fill="black"/>
</svg>
