<svg width="16" height="16" viewBox="0 0 16 16" fill="none" xmlns="http://www.w3.org/2000/svg">
<path d="M6 10.9999C5.53333 10.9999 5.13889 10.8388 4.81667 10.5166C4.49444 10.1944 4.33333 9.79992 4.33333 9.33325C4.33333 8.86658 4.49444 8.47214 4.81667 8.14992C5.13889 7.8277 5.53333 7.66658 6 7.66658C6.46667 7.66658 6.86111 7.8277 7.18333 8.14992C7.50556 8.47214 7.66667 8.86658 7.66667 9.33325C7.66667 9.79992 7.50556 10.1944 7.18333 10.5166C6.86111 10.8388 6.46667 10.9999 6 10.9999ZM3.33333 14.6666C2.96667 14.6666 2.65267 14.5361 2.39133 14.2753C2.13044 14.0139 2 13.6999 2 13.3333V3.99992C2 3.63325 2.13044 3.31947 2.39133 3.05859C2.65267 2.79725 2.96667 2.66659 3.33333 2.66659H4V1.99992C4 1.81103 4.06378 1.65259 4.19133 1.52459C4.31933 1.39703 4.47778 1.33325 4.66667 1.33325C4.85556 1.33325 5.014 1.39703 5.142 1.52459C5.26956 1.65259 5.33333 1.81103 5.33333 1.99992V2.66659H10.6667V1.99992C10.6667 1.81103 10.7307 1.65259 10.8587 1.52459C10.9862 1.39703 11.1444 1.33325 11.3333 1.33325C11.5222 1.33325 11.6804 1.39703 11.808 1.52459C11.936 1.65259 12 1.81103 12 1.99992V2.66659H12.6667C13.0333 2.66659 13.3473 2.79725 13.6087 3.05859C13.8696 3.31947 14 3.63325 14 3.99992V13.3333C14 13.6999 13.8696 14.0139 13.6087 14.2753C13.3473 14.5361 13.0333 14.6666 12.6667 14.6666H3.33333ZM3.33333 13.3333H12.6667V6.66658H3.33333V13.3333ZM3.33333 5.33325H12.6667V3.99992H3.33333V5.33325Z" fill="black"/>
</svg>
