<svg width="28" height="28" viewBox="0 0 28 28" fill="none" xmlns="http://www.w3.org/2000/svg">
<path d="M10.5 19.2499C9.68333 19.2499 8.99306 18.968 8.42917 18.4041C7.86528 17.8402 7.58333 17.1499 7.58333 16.3333C7.58333 15.5166 7.86528 14.8263 8.42917 14.2624C8.99306 13.6985 9.68333 13.4166 10.5 13.4166C11.3167 13.4166 12.0069 13.6985 12.5708 14.2624C13.1347 14.8263 13.4167 15.5166 13.4167 16.3333C13.4167 17.1499 13.1347 17.8402 12.5708 18.4041C12.0069 18.968 11.3167 19.2499 10.5 19.2499ZM5.83333 25.6666C5.19167 25.6666 4.64217 25.4383 4.18483 24.9818C3.72828 24.5244 3.5 23.9749 3.5 23.3333V6.99992C3.5 6.35825 3.72828 5.80914 4.18483 5.35259C4.64217 4.89525 5.19167 4.66659 5.83333 4.66659H7V3.49992C7 3.16936 7.11161 2.89209 7.33483 2.66809C7.55883 2.44486 7.83611 2.33325 8.16667 2.33325C8.49722 2.33325 8.7745 2.44486 8.9985 2.66809C9.22172 2.89209 9.33333 3.16936 9.33333 3.49992V4.66659H18.6667V3.49992C18.6667 3.16936 18.7787 2.89209 19.0027 2.66809C19.2259 2.44486 19.5028 2.33325 19.8333 2.33325C20.1639 2.33325 20.4408 2.44486 20.664 2.66809C20.888 2.89209 21 3.16936 21 3.49992V4.66659H22.1667C22.8083 4.66659 23.3578 4.89525 23.8152 5.35259C24.2717 5.80914 24.5 6.35825 24.5 6.99992V23.3333C24.5 23.9749 24.2717 24.5244 23.8152 24.9818C23.3578 25.4383 22.8083 25.6666 22.1667 25.6666H5.83333ZM5.83333 23.3333H22.1667V11.6666H5.83333V23.3333ZM5.83333 9.33325H22.1667V6.99992H5.83333V9.33325Z" fill="black"/>
</svg>
