<svg width="16" height="16" viewBox="0 0 16 16" fill="none" xmlns="http://www.w3.org/2000/svg">
<path d="M7.93335 14.6666L10.9667 6.66658H12.3667L15.4 14.6666H14L13.3 12.6333H10.0667L9.33335 14.6666H7.93335ZM10.4667 11.4666H12.8667L11.7 8.16658H11.6334L10.4667 11.4666ZM2.66669 12.6666L1.73335 11.7333L5.10002 8.36658C4.6778 7.89992 4.30835 7.41658 3.99169 6.91658C3.67502 6.41658 3.40002 5.88881 3.16669 5.33325H4.56669C4.76669 5.73325 4.98058 6.09436 5.20835 6.41658C5.43613 6.73881 5.71113 7.0777 6.03335 7.43325C6.52224 6.89992 6.9278 6.3527 7.25002 5.79159C7.57224 5.23047 7.84447 4.63325 8.06669 3.99992H0.666687V2.66659H5.33335V1.33325H6.66669V2.66659H11.3334V3.99992H9.40002C9.16669 4.78881 8.85002 5.55547 8.45002 6.29992C8.05002 7.04436 7.55558 7.74436 6.96669 8.39992L8.56669 10.0333L8.06669 11.3999L6.00002 9.33325L2.66669 12.6666Z" fill="black"/>
</svg>
