<svg width="24" height="24" viewBox="0 0 24 24" fill="none" xmlns="http://www.w3.org/2000/svg">
<path d="M11.9 22L16.45 10H18.55L23.1 22H21L19.95 18.95H15.1L14 22H11.9ZM15.7 17.2H19.3L17.55 12.25H17.45L15.7 17.2ZM4 19L2.6 17.6L7.65 12.55C7.01667 11.85 6.4625 11.125 5.9875 10.375C5.5125 9.625 5.1 8.83333 4.75 8H6.85C7.15 8.6 7.47083 9.14167 7.8125 9.625C8.15417 10.1083 8.56667 10.6167 9.05 11.15C9.78333 10.35 10.3917 9.52917 10.875 8.6875C11.3583 7.84583 11.7667 6.95 12.1 6H1V4H8V2H10V4H17V6H14.1C13.75 7.18333 13.275 8.33333 12.675 9.45C12.075 10.5667 11.3333 11.6167 10.45 12.6L12.85 15.05L12.1 17.1L9 14L4 19Z" fill="black"/>
</svg>
