<svg width="28" height="28" viewBox="0 0 28 28" fill="none" xmlns="http://www.w3.org/2000/svg">
<path d="M13.8834 25.6666L19.1917 11.6666H21.6417L26.95 25.6666H24.5L23.275 22.1083H17.6167L16.3334 25.6666H13.8834ZM18.3167 20.0666H22.5167L20.475 14.2916H20.3584L18.3167 20.0666ZM4.66669 22.1666L3.03335 20.5333L8.92502 14.6416C8.18613 13.8249 7.5396 12.9791 6.98544 12.1041C6.43127 11.2291 5.95002 10.3055 5.54169 9.33325H7.99169C8.34169 10.0333 8.71599 10.6652 9.1146 11.2291C9.51321 11.793 9.99446 12.386 10.5584 13.0083C11.4139 12.0749 12.1236 11.1173 12.6875 10.1353C13.2514 9.15339 13.7278 8.10825 14.1167 6.99992H1.16669V4.66659H9.33335V2.33325H11.6667V4.66659H19.8334V6.99992H16.45C16.0417 8.38047 15.4875 9.72214 14.7875 11.0249C14.0875 12.3277 13.2222 13.5527 12.1917 14.6999L14.9917 17.5583L14.1167 19.9499L10.5 16.3333L4.66669 22.1666Z" fill="black"/>
</svg>
