<svg width="28" height="28" viewBox="0 0 28 28" fill="none" xmlns="http://www.w3.org/2000/svg">
<path d="M17.5 22.1667V21H15.1667C14.525 21 13.9757 20.7715 13.5188 20.3146C13.0618 19.8576 12.8334 19.3083 12.8334 18.6667V9.33333H10.5V10.5C10.5 11.1417 10.2716 11.691 9.81462 12.1479C9.35768 12.6049 8.80837 12.8333 8.16671 12.8333H4.66671C4.02504 12.8333 3.47574 12.6049 3.01879 12.1479C2.56185 11.691 2.33337 11.1417 2.33337 10.5V5.83333C2.33337 5.19167 2.56185 4.64236 3.01879 4.18542C3.47574 3.72847 4.02504 3.5 4.66671 3.5H8.16671C8.80837 3.5 9.35768 3.72847 9.81462 4.18542C10.2716 4.64236 10.5 5.19167 10.5 5.83333V7H17.5V5.83333C17.5 5.19167 17.7285 4.64236 18.1855 4.18542C18.6424 3.72847 19.1917 3.5 19.8334 3.5H23.3334C23.975 3.5 24.5243 3.72847 24.9813 4.18542C25.4382 4.64236 25.6667 5.19167 25.6667 5.83333V10.5C25.6667 11.1417 25.4382 11.691 24.9813 12.1479C24.5243 12.6049 23.975 12.8333 23.3334 12.8333H19.8334C19.1917 12.8333 18.6424 12.6049 18.1855 12.1479C17.7285 11.691 17.5 11.1417 17.5 10.5V9.33333H15.1667V18.6667H17.5V17.5C17.5 16.8583 17.7285 16.309 18.1855 15.8521C18.6424 15.3951 19.1917 15.1667 19.8334 15.1667H23.3334C23.975 15.1667 24.5243 15.3951 24.9813 15.8521C25.4382 16.309 25.6667 16.8583 25.6667 17.5V22.1667C25.6667 22.8083 25.4382 23.3576 24.9813 23.8146C24.5243 24.2715 23.975 24.5 23.3334 24.5H19.8334C19.1917 24.5 18.6424 24.2715 18.1855 23.8146C17.7285 23.3576 17.5 22.8083 17.5 22.1667ZM19.8334 10.5H23.3334V5.83333H19.8334V10.5ZM19.8334 22.1667H23.3334V17.5H19.8334V22.1667ZM4.66671 10.5H8.16671V5.83333H4.66671V10.5Z" fill="black"/>
</svg>
