<svg width="16" height="16" viewBox="0 0 16 16" fill="none" xmlns="http://www.w3.org/2000/svg">
<path d="M10 12.6667V12H8.66671C8.30004 12 7.98615 11.8694 7.72504 11.6083C7.46393 11.3472 7.33337 11.0333 7.33337 10.6667V5.33333H6.00004V6C6.00004 6.36667 5.86948 6.68056 5.60837 6.94167C5.34726 7.20278 5.03337 7.33333 4.66671 7.33333H2.66671C2.30004 7.33333 1.98615 7.20278 1.72504 6.94167C1.46393 6.68056 1.33337 6.36667 1.33337 6V3.33333C1.33337 2.96667 1.46393 2.65278 1.72504 2.39167C1.98615 2.13056 2.30004 2 2.66671 2H4.66671C5.03337 2 5.34726 2.13056 5.60837 2.39167C5.86948 2.65278 6.00004 2.96667 6.00004 3.33333V4H10V3.33333C10 2.96667 10.1306 2.65278 10.3917 2.39167C10.6528 2.13056 10.9667 2 11.3334 2H13.3334C13.7 2 14.0139 2.13056 14.275 2.39167C14.5362 2.65278 14.6667 2.96667 14.6667 3.33333V6C14.6667 6.36667 14.5362 6.68056 14.275 6.94167C14.0139 7.20278 13.7 7.33333 13.3334 7.33333H11.3334C10.9667 7.33333 10.6528 7.20278 10.3917 6.94167C10.1306 6.68056 10 6.36667 10 6V5.33333H8.66671V10.6667H10V10C10 9.63333 10.1306 9.31945 10.3917 9.05833C10.6528 8.79722 10.9667 8.66667 11.3334 8.66667H13.3334C13.7 8.66667 14.0139 8.79722 14.275 9.05833C14.5362 9.31945 14.6667 9.63333 14.6667 10V12.6667C14.6667 13.0333 14.5362 13.3472 14.275 13.6083C14.0139 13.8694 13.7 14 13.3334 14H11.3334C10.9667 14 10.6528 13.8694 10.3917 13.6083C10.1306 13.3472 10 13.0333 10 12.6667ZM11.3334 6H13.3334V3.33333H11.3334V6ZM11.3334 12.6667H13.3334V10H11.3334V12.6667ZM2.66671 6H4.66671V3.33333H2.66671V6Z" fill="black"/>
</svg>
