<svg width="24" height="24" viewBox="0 0 24 24" fill="none" xmlns="http://www.w3.org/2000/svg">
<path d="M15 19V18H13C12.45 18 11.9792 17.8042 11.5875 17.4125C11.1958 17.0208 11 16.55 11 16V8H9V9C9 9.55 8.80417 10.0208 8.4125 10.4125C8.02083 10.8042 7.55 11 7 11H4C3.45 11 2.97917 10.8042 2.5875 10.4125C2.19583 10.0208 2 9.55 2 9V5C2 4.45 2.19583 3.97917 2.5875 3.5875C2.97917 3.19583 3.45 3 4 3H7C7.55 3 8.02083 3.19583 8.4125 3.5875C8.80417 3.97917 9 4.45 9 5V6H15V5C15 4.45 15.1958 3.97917 15.5875 3.5875C15.9792 3.19583 16.45 3 17 3H20C20.55 3 21.0208 3.19583 21.4125 3.5875C21.8042 3.97917 22 4.45 22 5V9C22 9.55 21.8042 10.0208 21.4125 10.4125C21.0208 10.8042 20.55 11 20 11H17C16.45 11 15.9792 10.8042 15.5875 10.4125C15.1958 10.0208 15 9.55 15 9V8H13V16H15V15C15 14.45 15.1958 13.9792 15.5875 13.5875C15.9792 13.1958 16.45 13 17 13H20C20.55 13 21.0208 13.1958 21.4125 13.5875C21.8042 13.9792 22 14.45 22 15V19C22 19.55 21.8042 20.0208 21.4125 20.4125C21.0208 20.8042 20.55 21 20 21H17C16.45 21 15.9792 20.8042 15.5875 20.4125C15.1958 20.0208 15 19.55 15 19ZM17 9H20V5H17V9ZM17 19H20V15H17V19ZM4 9H7V5H4V9Z" fill="black"/>
</svg>
