<svg width="28" height="28" viewBox="0 0 28 28" fill="none" xmlns="http://www.w3.org/2000/svg">
<path d="M6.99999 24.5C6.66944 24.5 6.39236 24.3882 6.16874 24.1646C5.94513 23.941 5.83333 23.6639 5.83333 23.3333C5.83333 23.0028 5.94513 22.7257 6.16874 22.5021C6.39236 22.2785 6.66944 22.1667 6.99999 22.1667H21C21.3306 22.1667 21.6076 22.2785 21.8312 22.5021C22.0549 22.7257 22.1667 23.0028 22.1667 23.3333C22.1667 23.6639 22.0549 23.941 21.8312 24.1646C21.6076 24.3882 21.3306 24.5 21 24.5H6.99999ZM14 19.8333C12.0361 19.8333 10.5097 19.2208 9.42083 17.9958C8.33194 16.7708 7.7875 15.1472 7.7875 13.125V4.9875C7.7875 4.57917 7.93819 4.22917 8.23958 3.9375C8.54097 3.64583 8.89583 3.5 9.30416 3.5C9.7125 3.5 10.0625 3.64583 10.3542 3.9375C10.6458 4.22917 10.7917 4.57917 10.7917 4.9875V13.3C10.7917 14.3889 11.0639 15.2736 11.6083 15.9542C12.1528 16.6347 12.95 16.975 14 16.975C15.05 16.975 15.8472 16.6347 16.3917 15.9542C16.9361 15.2736 17.2083 14.3889 17.2083 13.3V4.9875C17.2083 4.57917 17.359 4.22917 17.6604 3.9375C17.9618 3.64583 18.3167 3.5 18.725 3.5C19.1333 3.5 19.4833 3.64583 19.775 3.9375C20.0667 4.22917 20.2125 4.57917 20.2125 4.9875V13.125C20.2125 15.1472 19.6681 16.7708 18.5792 17.9958C17.4903 19.2208 15.9639 19.8333 14 19.8333Z" fill="#191919"/>
</svg>
