<svg width="16" height="16" viewBox="0 0 16 16" fill="none" xmlns="http://www.w3.org/2000/svg">
<path d="M4 14C3.81111 14 3.65278 13.9361 3.525 13.8083C3.39722 13.6806 3.33333 13.5222 3.33333 13.3333C3.33333 13.1444 3.39722 12.9861 3.525 12.8583C3.65278 12.7306 3.81111 12.6667 4 12.6667H12C12.1889 12.6667 12.3472 12.7306 12.475 12.8583C12.6028 12.9861 12.6667 13.1444 12.6667 13.3333C12.6667 13.5222 12.6028 13.6806 12.475 13.8083C12.3472 13.9361 12.1889 14 12 14H4ZM8 11.3333C6.87778 11.3333 6.00555 10.9833 5.38333 10.2833C4.76111 9.58333 4.45 8.65556 4.45 7.5V2.85C4.45 2.61667 4.53611 2.41667 4.70833 2.25C4.88055 2.08333 5.08333 2 5.31667 2C5.55 2 5.75 2.08333 5.91667 2.25C6.08333 2.41667 6.16667 2.61667 6.16667 2.85V7.6C6.16667 8.22222 6.32222 8.72778 6.63333 9.11667C6.94444 9.50556 7.4 9.7 8 9.7C8.6 9.7 9.05555 9.50556 9.36667 9.11667C9.67778 8.72778 9.83333 8.22222 9.83333 7.6V2.85C9.83333 2.61667 9.91944 2.41667 10.0917 2.25C10.2639 2.08333 10.4667 2 10.7 2C10.9333 2 11.1333 2.08333 11.3 2.25C11.4667 2.41667 11.55 2.61667 11.55 2.85V7.5C11.55 8.65556 11.2389 9.58333 10.6167 10.2833C9.99444 10.9833 9.12222 11.3333 8 11.3333Z" fill="#191919"/>
</svg>
