<svg width="28" height="28" viewBox="0 0 28 28" fill="none" xmlns="http://www.w3.org/2000/svg">
<path d="M9.33334 22.1663C9.00278 22.1663 8.7257 22.0545 8.50209 21.8309C8.27848 21.6072 8.16667 21.3302 8.16667 20.9996C8.16667 20.6691 8.27848 20.392 8.50209 20.1684C8.7257 19.9447 9.00278 19.8329 9.33334 19.8329H16.45C17.675 19.8329 18.7396 19.4441 19.6438 18.6663C20.5479 17.8885 21 16.9163 21 15.7496C21 14.5829 20.5479 13.6107 19.6438 12.8329C18.7396 12.0552 17.675 11.6663 16.45 11.6663H9.10001L11.3167 13.8829C11.5306 14.0968 11.6375 14.3691 11.6375 14.6996C11.6375 15.0302 11.5306 15.3024 11.3167 15.5163C11.1028 15.7302 10.8306 15.8371 10.5 15.8371C10.1695 15.8371 9.89723 15.7302 9.68334 15.5163L5.48334 11.3163C5.36667 11.1996 5.28403 11.0732 5.23542 10.9371C5.18681 10.801 5.16251 10.6552 5.16251 10.4996C5.16251 10.3441 5.18681 10.1982 5.23542 10.0621C5.28403 9.926 5.36667 9.79961 5.48334 9.68294L9.68334 5.48294C9.89723 5.26905 10.1695 5.16211 10.5 5.16211C10.8306 5.16211 11.1028 5.26905 11.3167 5.48294C11.5306 5.69683 11.6375 5.96905 11.6375 6.29961C11.6375 6.63017 11.5306 6.90239 11.3167 7.11628L9.10001 9.33294H16.45C18.3361 9.33294 19.9549 9.94544 21.3063 11.1704C22.6576 12.3954 23.3333 13.9218 23.3333 15.7496C23.3333 17.5774 22.6576 19.1038 21.3063 20.3288C19.9549 21.5538 18.3361 22.1663 16.45 22.1663H9.33334Z" fill="black"/>
</svg>
