<svg width="16" height="16" viewBox="0 0 16 16" fill="none" xmlns="http://www.w3.org/2000/svg">
<path d="M5.33335 12.6664C5.14446 12.6664 4.98612 12.6025 4.85835 12.4747C4.73057 12.3469 4.66668 12.1886 4.66668 11.9997C4.66668 11.8108 4.73057 11.6525 4.85835 11.5247C4.98612 11.3969 5.14446 11.333 5.33335 11.333H9.40001C10.1 11.333 10.7083 11.1108 11.225 10.6664C11.7417 10.2219 12 9.66637 12 8.99971C12 8.33304 11.7417 7.77748 11.225 7.33304C10.7083 6.8886 10.1 6.66637 9.40001 6.66637H5.20001L6.46668 7.93304C6.5889 8.05526 6.65001 8.21082 6.65001 8.39971C6.65001 8.5886 6.5889 8.74415 6.46668 8.86637C6.34446 8.9886 6.1889 9.04971 6.00001 9.04971C5.81112 9.04971 5.65557 8.9886 5.53335 8.86637L3.13335 6.46637C3.06668 6.39971 3.01946 6.32748 2.99168 6.24971C2.9639 6.17193 2.95001 6.0886 2.95001 5.99971C2.95001 5.91082 2.9639 5.82748 2.99168 5.74971C3.01946 5.67193 3.06668 5.59971 3.13335 5.53304L5.53335 3.13304C5.65557 3.01082 5.81112 2.94971 6.00001 2.94971C6.1889 2.94971 6.34446 3.01082 6.46668 3.13304C6.5889 3.25526 6.65001 3.41082 6.65001 3.59971C6.65001 3.7886 6.5889 3.94415 6.46668 4.06637L5.20001 5.33304H9.40001C10.4778 5.33304 11.4028 5.68304 12.175 6.38304C12.9472 7.08304 13.3333 7.95526 13.3333 8.99971C13.3333 10.0442 12.9472 10.9164 12.175 11.6164C11.4028 12.3164 10.4778 12.6664 9.40001 12.6664H5.33335Z" fill="black"/>
</svg>
