<svg width="28" height="28" viewBox="0 0 28 28" fill="none" xmlns="http://www.w3.org/2000/svg">
<path d="M6.99532 23.3341V11.6675H20.9953V12.8341C21.812 12.8341 22.5937 12.9508 23.3287 13.1725V11.6675C23.3287 10.3841 22.2787 9.33415 20.9953 9.33415H6.99532C5.71199 9.33415 4.66199 10.3841 4.66199 11.6675V23.3341C4.66199 24.6175 5.71199 25.6675 6.99532 25.6675H14.2987C13.8087 24.9675 13.4237 24.1741 13.167 23.3341H6.99532ZM17.4953 9.33415H10.4953Z" fill="black"/>
<path d="M20.9953 15.1675C17.7753 15.1675 15.162 17.7808 15.162 21.0008C15.162 24.2208 17.7753 26.8341 20.9953 26.8341C24.2153 26.8341 26.8287 24.2208 26.8287 21.0008C26.8287 17.7808 24.2153 15.1675 20.9953 15.1675ZM20.9953 17.5008C21.9637 17.5008 22.7453 18.2825 22.7453 19.2508C22.7453 20.2191 21.9637 21.0008 20.9953 21.0008C20.027 21.0008 19.2453 20.2191 19.2453 19.2508C19.2453 18.2825 20.027 17.5008 20.9953 17.5008ZM20.9953 24.5008C19.7937 24.5008 18.732 23.8941 18.102 22.9608C18.9537 22.4708 19.9337 22.1675 20.9953 22.1675C22.057 22.1675 23.037 22.4708 23.8887 22.9608C23.2587 23.8941 22.197 24.5008 20.9953 24.5008Z" fill="black"/>
<path d="M19.8287 9.33415V7.00081C19.8287 3.78081 17.2153 1.16748 13.9953 1.16748C10.7753 1.16748 8.16199 3.78081 8.16199 7.00081H10.4953C10.4953 5.06415 12.0587 3.50081 13.9953 3.50081C15.932 3.50081 17.4953 5.06415 17.4953 7.00081L17.4953 9.33415L19.8287 9.33415Z" fill="black"/>
</svg>
