<svg width="24" height="24" viewBox="0 0 24 24" fill="none" xmlns="http://www.w3.org/2000/svg">
<path d="M5.99597 20.0007V10.0007H17.996V11.0007C18.696 11.0007 19.366 11.1007 19.996 11.2907V10.0007C19.996 8.90073 19.096 8.00073 17.996 8.00073H5.99597C4.89597 8.00073 3.99597 8.90073 3.99597 10.0007V20.0007C3.99597 21.1007 4.89597 22.0007 5.99597 22.0007H12.256C11.836 21.4007 11.506 20.7207 11.286 20.0007H5.99597ZM14.996 8.00073H8.99597Z" fill="black"/>
<path d="M17.996 13.0007C15.236 13.0007 12.996 15.2407 12.996 18.0007C12.996 20.7607 15.236 23.0007 17.996 23.0007C20.756 23.0007 22.996 20.7607 22.996 18.0007C22.996 15.2407 20.756 13.0007 17.996 13.0007ZM17.996 15.0007C18.826 15.0007 19.496 15.6707 19.496 16.5007C19.496 17.3307 18.826 18.0007 17.996 18.0007C17.166 18.0007 16.496 17.3307 16.496 16.5007C16.496 15.6707 17.166 15.0007 17.996 15.0007ZM17.996 21.0007C16.966 21.0007 16.056 20.4807 15.516 19.6807C16.246 19.2607 17.086 19.0007 17.996 19.0007C18.906 19.0007 19.746 19.2607 20.476 19.6807C19.936 20.4807 19.026 21.0007 17.996 21.0007Z" fill="black"/>
<path d="M16.996 8.00073V6.00073C16.996 3.24073 14.756 1.00073 11.996 1.00073C9.23597 1.00073 6.99597 3.24073 6.99597 6.00073H8.99597C8.99597 4.34073 10.336 3.00073 11.996 3.00073C13.656 3.00073 14.996 4.34073 14.996 6.00073L14.996 8.00073L16.996 8.00073Z" fill="black"/>
</svg>
