<svg width="16" height="16" viewBox="0 0 16 16" fill="none" xmlns="http://www.w3.org/2000/svg">
<path d="M3.99733 13.3339V6.66724H11.9973V7.3339C12.464 7.3339 12.9107 7.40057 13.3307 7.52724V6.66724C13.3307 5.9339 12.7307 5.3339 11.9973 5.3339H3.99733C3.264 5.3339 2.664 5.9339 2.664 6.66724V13.3339C2.664 14.0672 3.264 14.6672 3.99733 14.6672H8.17067C7.89067 14.2672 7.67067 13.8139 7.524 13.3339H3.99733ZM9.99733 5.3339H5.99733Z" fill="black"/>
<path d="M11.9973 8.66724C10.1573 8.66724 8.664 10.1606 8.664 12.0006C8.664 13.8406 10.1573 15.3339 11.9973 15.3339C13.8373 15.3339 15.3307 13.8406 15.3307 12.0006C15.3307 10.1606 13.8373 8.66724 11.9973 8.66724ZM11.9973 10.0006C12.5507 10.0006 12.9973 10.4472 12.9973 11.0006C12.9973 11.5539 12.5507 12.0006 11.9973 12.0006C11.444 12.0006 10.9973 11.5539 10.9973 11.0006C10.9973 10.4472 11.444 10.0006 11.9973 10.0006ZM11.9973 14.0006C11.3107 14.0006 10.704 13.6539 10.344 13.1206C10.8307 12.8406 11.3907 12.6672 11.9973 12.6672C12.604 12.6672 13.164 12.8406 13.6507 13.1206C13.2907 13.6539 12.684 14.0006 11.9973 14.0006Z" fill="black"/>
<path d="M11.3307 5.3339V4.00057C11.3307 2.16057 9.83734 0.667236 7.99734 0.667236C6.15734 0.667236 4.664 2.16057 4.664 4.00057H5.99734C5.99734 2.8939 6.89067 2.00057 7.99734 2.00057C9.104 2.00057 9.99734 2.8939 9.99734 4.00057L9.99733 5.3339L11.3307 5.3339Z" fill="black"/>
</svg>
