<svg width="28" height="28" viewBox="0 0 28 28" fill="none" xmlns="http://www.w3.org/2000/svg">
<path d="M7.00001 23.3329C6.35834 23.3329 5.80903 23.1045 5.35209 22.6475C4.89514 22.1906 4.66667 21.6413 4.66667 20.9996V18.6663C4.66667 18.3357 4.77848 18.0586 5.00209 17.835C5.2257 17.6114 5.50278 17.4996 5.83334 17.4996C6.16389 17.4996 6.44098 17.6114 6.66459 17.835C6.8882 18.0586 7.00001 18.3357 7.00001 18.6663V20.9996H21V18.6663C21 18.3357 21.1118 18.0586 21.3354 17.835C21.559 17.6114 21.8361 17.4996 22.1667 17.4996C22.4972 17.4996 22.7743 17.6114 22.9979 17.835C23.2215 18.0586 23.3333 18.3357 23.3333 18.6663V20.9996C23.3333 21.6413 23.1049 22.1906 22.6479 22.6475C22.191 23.1045 21.6417 23.3329 21 23.3329H7.00001ZM12.8333 9.15794L10.6458 11.3454C10.4125 11.5788 10.1354 11.6906 9.81459 11.6809C9.49376 11.6711 9.21667 11.5496 8.98334 11.3163C8.76945 11.0829 8.65764 10.8107 8.64792 10.4996C8.6382 10.1885 8.75001 9.91628 8.98334 9.68294L13.1833 5.48294C13.3 5.36628 13.4264 5.28364 13.5625 5.23503C13.6986 5.18641 13.8445 5.16211 14 5.16211C14.1556 5.16211 14.3014 5.18641 14.4375 5.23503C14.5736 5.28364 14.7 5.36628 14.8167 5.48294L19.0167 9.68294C19.25 9.91628 19.3618 10.1885 19.3521 10.4996C19.3424 10.8107 19.2306 11.0829 19.0167 11.3163C18.7833 11.5496 18.5063 11.6711 18.1854 11.6809C17.8646 11.6906 17.5875 11.5788 17.3542 11.3454L15.1667 9.15794V17.4996C15.1667 17.8302 15.0549 18.1072 14.8313 18.3309C14.6076 18.5545 14.3306 18.6663 14 18.6663C13.6695 18.6663 13.3924 18.5545 13.1688 18.3309C12.9451 18.1072 12.8333 17.8302 12.8333 17.4996V9.15794Z" fill="#191919"/>
</svg>
