<svg width="16" height="16" viewBox="0 0 16 16" fill="none" xmlns="http://www.w3.org/2000/svg">
<path d="M4 13.3335C3.63333 13.3335 3.31945 13.203 3.05833 12.9419C2.79722 12.6808 2.66667 12.3669 2.66667 12.0002V10.6669C2.66667 10.478 2.73056 10.3196 2.85833 10.1919C2.98611 10.0641 3.14445 10.0002 3.33333 10.0002C3.52222 10.0002 3.68056 10.0641 3.80833 10.1919C3.93611 10.3196 4 10.478 4 10.6669V12.0002H12V10.6669C12 10.478 12.0639 10.3196 12.1917 10.1919C12.3194 10.0641 12.4778 10.0002 12.6667 10.0002C12.8556 10.0002 13.0139 10.0641 13.1417 10.1919C13.2694 10.3196 13.3333 10.478 13.3333 10.6669V12.0002C13.3333 12.3669 13.2028 12.6808 12.9417 12.9419C12.6806 13.203 12.3667 13.3335 12 13.3335H4ZM7.33333 5.23353L6.08333 6.48353C5.95 6.61686 5.79167 6.68075 5.60833 6.6752C5.425 6.66964 5.26667 6.6002 5.13333 6.46686C5.01111 6.33353 4.94722 6.17797 4.94167 6.0002C4.93611 5.82242 5 5.66686 5.13333 5.53353L7.53333 3.13353C7.6 3.06686 7.67222 3.01964 7.75 2.99186C7.82778 2.96408 7.91111 2.9502 8 2.9502C8.08889 2.9502 8.17222 2.96408 8.25 2.99186C8.32778 3.01964 8.4 3.06686 8.46667 3.13353L10.8667 5.53353C11 5.66686 11.0639 5.82242 11.0583 6.0002C11.0528 6.17797 10.9889 6.33353 10.8667 6.46686C10.7333 6.6002 10.575 6.66964 10.3917 6.6752C10.2083 6.68075 10.05 6.61686 9.91667 6.48353L8.66667 5.23353V10.0002C8.66667 10.1891 8.60278 10.3474 8.475 10.4752C8.34722 10.603 8.18889 10.6669 8 10.6669C7.81111 10.6669 7.65278 10.603 7.525 10.4752C7.39722 10.3474 7.33333 10.1891 7.33333 10.0002V5.23353Z" fill="#191919"/>
</svg>
