<svg width="24" height="24" viewBox="0 0 24 24" fill="none" xmlns="http://www.w3.org/2000/svg">
<path d="M8 20C7.73478 20 7.4805 19.8946 7.29297 19.707C7.10543 19.5195 7 19.2652 7 19V18C7 15.341 12.331 14 15 14C17.669 14 23 15.34 23 18V19C23 19.2652 22.8946 19.5195 22.707 19.707C22.5195 19.8946 22.2652 20 22 20H8ZM5 13.0669V12H2C1.73478 12 1.48051 11.8946 1.29297 11.707C1.10543 11.5195 1 11.2652 1 11C1 10.7348 1.10543 10.4805 1.29297 10.293C1.48051 10.1054 1.73478 10 2 10H5V8.93213C4.99988 8.77393 5.04651 8.61892 5.13428 8.4873C5.22205 8.35569 5.34707 8.25307 5.49316 8.19238C5.63926 8.1317 5.79989 8.11579 5.95508 8.14648C6.11027 8.17718 6.25324 8.25351 6.36523 8.36523L8.43311 10.4351C8.58302 10.5851 8.66699 10.7884 8.66699 11.0005C8.66699 11.2126 8.58302 11.4159 8.43311 11.5659L6.36523 13.6338C6.29229 13.7084 6.20505 13.7681 6.10889 13.8086C6.01273 13.8491 5.90953 13.87 5.80518 13.8701C5.69953 13.8708 5.59484 13.8506 5.49707 13.8105C5.3993 13.7705 5.3102 13.7113 5.23535 13.6367C5.16051 13.5622 5.10143 13.4736 5.06104 13.376C5.02064 13.2784 4.99973 13.1735 5 13.0679V13.0669ZM11 8C11 6.93913 11.4212 5.92153 12.1714 5.17139C12.9215 4.42124 13.9391 4 15 4C16.0609 4 17.0785 4.42124 17.8286 5.17139C18.5788 5.92153 19 6.93913 19 8C19 9.06087 18.5788 10.0785 17.8286 10.8286C17.0785 11.5788 16.0609 12 15 12C13.9391 12 12.9215 11.5788 12.1714 10.8286C11.4212 10.0785 11 9.06087 11 8Z" fill="black"/>
</svg>
