<svg width="16" height="16" viewBox="0 0 16 16" fill="none" xmlns="http://www.w3.org/2000/svg">
<path d="M10 8.00008C9.26669 8.00008 8.63891 7.73897 8.11669 7.21675C7.59447 6.69453 7.33335 6.06675 7.33335 5.33341C7.33335 4.60008 7.59447 3.9723 8.11669 3.45008C8.63891 2.92786 9.26669 2.66675 10 2.66675C10.7334 2.66675 11.3611 2.92786 11.8834 3.45008C12.4056 3.9723 12.6667 4.60008 12.6667 5.33341C12.6667 6.06675 12.4056 6.69453 11.8834 7.21675C11.3611 7.73897 10.7334 8.00008 10 8.00008ZM14 13.3334H6.00002C5.63335 13.3334 5.31958 13.203 5.05869 12.9421C4.79735 12.6807 4.66669 12.3667 4.66669 12.0001V11.4667C4.66669 11.089 4.76402 10.7416 4.95869 10.4247C5.15291 10.1083 5.41113 9.86675 5.73335 9.70008C6.42224 9.35564 7.12224 9.09719 7.83335 8.92475C8.54447 8.75275 9.26669 8.66675 10 8.66675C10.7334 8.66675 11.4556 8.75275 12.1667 8.92475C12.8778 9.09719 13.5778 9.35564 14.2667 9.70008C14.5889 9.86675 14.8471 10.1083 15.0414 10.4247C15.236 10.7416 15.3334 11.089 15.3334 11.4667V12.0001C15.3334 12.3667 15.2029 12.6807 14.942 12.9421C14.6807 13.203 14.3667 13.3334 14 13.3334ZM6.00002 12.0001H14V11.4667C14 11.3445 13.9696 11.2334 13.9087 11.1334C13.8474 11.0334 13.7667 10.9556 13.6667 10.9001C13.0667 10.6001 12.4611 10.375 11.85 10.2247C11.2389 10.075 10.6222 10.0001 10 10.0001C9.3778 10.0001 8.76113 10.075 8.15002 10.2247C7.53891 10.375 6.93335 10.6001 6.33335 10.9001C6.23335 10.9556 6.15291 11.0334 6.09202 11.1334C6.03069 11.2334 6.00002 11.3445 6.00002 11.4667V12.0001ZM10 6.66675C10.3667 6.66675 10.6807 6.53608 10.942 6.27475C11.2029 6.01386 11.3334 5.70008 11.3334 5.33341C11.3334 4.96675 11.2029 4.65297 10.942 4.39208C10.6807 4.13075 10.3667 4.00008 10 4.00008C9.63335 4.00008 9.31958 4.13075 9.05869 4.39208C8.79735 4.65297 8.66669 4.96675 8.66669 5.33341C8.66669 5.70008 8.79735 6.01386 9.05869 6.27475C9.31958 6.53608 9.63335 6.66675 10 6.66675Z" fill="black"/>
<path d="M3.33335 7.91258V8.62384C3.33318 8.69427 3.34711 8.76481 3.37404 8.82989C3.40098 8.89497 3.44036 8.95401 3.49025 9.00372C3.54015 9.05343 3.59955 9.09292 3.66473 9.11961C3.72991 9.1463 3.79971 9.15976 3.87014 9.15932C3.93971 9.15926 4.0085 9.14532 4.07261 9.11831C4.13672 9.09129 4.19488 9.05152 4.24351 9.00177L5.62209 7.62319C5.72203 7.52318 5.77802 7.38762 5.77802 7.24624C5.77802 7.10485 5.72203 6.96929 5.62209 6.86928L4.24351 5.4894C4.16885 5.41492 4.07353 5.36403 3.97007 5.34357C3.86661 5.32311 3.75953 5.33371 3.66213 5.37417C3.56473 5.41462 3.48139 5.48304 3.42287 5.57078C3.36436 5.65852 3.33327 5.76186 3.33335 5.86733V6.57924H1.33335C1.15654 6.57924 0.987024 6.64953 0.862 6.77456C0.736975 6.89958 0.666687 7.0691 0.666687 7.24591C0.666687 7.42272 0.736975 7.59224 0.862 7.71726C0.987024 7.84229 1.15654 7.91258 1.33335 7.91258H3.33335Z" fill="black"/>
</svg>
