<svg width="28" height="28" viewBox="0 0 28 28" fill="none" xmlns="http://www.w3.org/2000/svg">
<path d="M17.5 14.0001C16.2167 14.0001 15.1181 13.5431 14.2042 12.6292C13.2903 11.7154 12.8334 10.6167 12.8334 9.33341C12.8334 8.05008 13.2903 6.95147 14.2042 6.03758C15.1181 5.12369 16.2167 4.66675 17.5 4.66675C18.7834 4.66675 19.882 5.12369 20.7959 6.03758C21.7097 6.95147 22.1667 8.05008 22.1667 9.33341C22.1667 10.6167 21.7097 11.7154 20.7959 12.6292C19.882 13.5431 18.7834 14.0001 17.5 14.0001ZM24.5 23.3334H10.5C9.85835 23.3334 9.30924 23.1051 8.85269 22.6486C8.39535 22.1912 8.16669 21.6417 8.16669 21.0001V20.0667C8.16669 19.4056 8.33702 18.7978 8.67769 18.2432C9.01758 17.6895 9.46946 17.2667 10.0334 16.9751C11.2389 16.3723 12.4639 15.92 13.7084 15.6182C14.9528 15.3172 16.2167 15.1667 17.5 15.1667C18.7834 15.1667 20.0472 15.3172 21.2917 15.6182C22.5361 15.92 23.7611 16.3723 24.9667 16.9751C25.5306 17.2667 25.9825 17.6895 26.3224 18.2432C26.663 18.7978 26.8334 19.4056 26.8334 20.0667V21.0001C26.8334 21.6417 26.6051 22.1912 26.1485 22.6486C25.6912 23.1051 25.1417 23.3334 24.5 23.3334ZM10.5 21.0001H24.5V20.0667C24.5 19.8529 24.4467 19.6584 24.3402 19.4834C24.2329 19.3084 24.0917 19.1723 23.9167 19.0751C22.8667 18.5501 21.807 18.1561 20.7375 17.8932C19.6681 17.6311 18.5889 17.5001 17.5 17.5001C16.4111 17.5001 15.332 17.6311 14.2625 17.8932C13.1931 18.1561 12.1334 18.5501 11.0834 19.0751C10.9084 19.1723 10.7676 19.3084 10.661 19.4834C10.5537 19.6584 10.5 19.8529 10.5 20.0667V21.0001ZM17.5 11.6667C18.1417 11.6667 18.6912 11.4381 19.1485 10.9807C19.6051 10.5242 19.8334 9.97508 19.8334 9.33341C19.8334 8.69175 19.6051 8.14264 19.1485 7.68608C18.6912 7.22875 18.1417 7.00008 17.5 7.00008C16.8584 7.00008 16.3092 7.22875 15.8527 7.68608C15.3954 8.14264 15.1667 8.69175 15.1667 9.33341C15.1667 9.97508 15.3954 10.5242 15.8527 10.9807C16.3092 11.4381 16.8584 11.6667 17.5 11.6667Z" fill="black"/>
<path d="M5.83335 13.8469V15.0917C5.83304 15.2149 5.85743 15.3384 5.90456 15.4523C5.95169 15.5661 6.02061 15.6695 6.10793 15.7565C6.19525 15.8434 6.2992 15.9125 6.41327 15.9593C6.52733 16.006 6.64947 16.0295 6.77273 16.0288C6.89447 16.0286 7.01487 16.0043 7.12705 15.957C7.23924 15.9097 7.34103 15.8401 7.42613 15.753L9.83864 13.3405C10.0135 13.1655 10.1115 12.9283 10.1115 12.6809C10.1115 12.4334 10.0135 12.1962 9.83864 12.0212L7.42613 9.60639C7.29546 9.47604 7.12867 9.38699 6.94761 9.35118C6.76656 9.31537 6.57915 9.33393 6.40871 9.40473C6.23827 9.47553 6.09241 9.59525 5.99001 9.7488C5.88761 9.90235 5.83321 10.0832 5.83335 10.2678V11.5136H2.33335C2.02393 11.5136 1.72728 11.6366 1.50848 11.8554C1.28969 12.0742 1.16669 12.3709 1.16669 12.6803C1.16669 12.9897 1.28969 13.2864 1.50848 13.5052C1.72728 13.7239 2.02393 13.8469 2.33335 13.8469H5.83335Z" fill="black"/>
</svg>
