<svg width="16" height="16" viewBox="0 0 16 16" fill="none" xmlns="http://www.w3.org/2000/svg">
<path d="M5.33332 13.3334C5.15651 13.3334 4.98699 13.2631 4.86197 13.1381C4.73694 13.0131 4.66666 12.8436 4.66666 12.6667V12.0001C4.66666 10.2274 8.22066 9.33341 9.99999 9.33341C11.7793 9.33341 15.3333 10.2267 15.3333 12.0001V12.6667C15.3333 12.8436 15.263 13.0131 15.138 13.1381C15.013 13.2631 14.8435 13.3334 14.6667 13.3334H5.33332ZM3.33332 8.71134V8.00008H1.33332C1.15651 8.00008 0.986993 7.92979 0.861969 7.80477C0.736945 7.67974 0.666656 7.51023 0.666656 7.33341C0.666656 7.1566 0.736945 6.98708 0.861969 6.86206C0.986993 6.73704 1.15651 6.66675 1.33332 6.66675H3.33332V5.95483C3.33324 5.84937 3.36433 5.74603 3.42284 5.65828C3.48136 5.57054 3.5647 5.50213 3.6621 5.46167C3.7595 5.42121 3.86658 5.41061 3.97004 5.43107C4.0735 5.45153 4.16881 5.50242 4.24348 5.5769L5.62206 6.95679C5.722 7.0568 5.77798 7.19235 5.77798 7.33374C5.77798 7.47513 5.722 7.61068 5.62206 7.71069L4.24348 9.08927C4.19485 9.13903 4.13669 9.17879 4.07258 9.20581C4.00847 9.23283 3.93967 9.24677 3.87011 9.24683C3.79968 9.24727 3.72988 9.2338 3.6647 9.20711C3.59952 9.18042 3.54012 9.14094 3.49022 9.09123C3.44033 9.04152 3.40095 8.98248 3.37401 8.9174C3.34708 8.85232 3.33315 8.78243 3.33332 8.712V8.71134ZM7.33332 5.33341C7.33332 4.62617 7.61415 3.94777 8.11425 3.44767C8.61434 2.94758 9.29275 2.66675 9.99999 2.66675C10.7072 2.66675 11.3856 2.94758 11.8857 3.44767C12.3858 3.94777 12.6667 4.62617 12.6667 5.33341C12.6667 6.04066 12.3858 6.71906 11.8857 7.21916C11.3856 7.71925 10.7072 8.00008 9.99999 8.00008C9.29275 8.00008 8.61434 7.71925 8.11425 7.21916C7.61415 6.71906 7.33332 6.04066 7.33332 5.33341Z" fill="black"/>
</svg>
