<svg width="28" height="28" viewBox="0 0 28 28" fill="none" xmlns="http://www.w3.org/2000/svg">
<path d="M9.33332 23.3334C9.0239 23.3334 8.72725 23.2104 8.50845 22.9916C8.28966 22.7728 8.16666 22.4762 8.16666 22.1667V21.0001C8.16666 17.8979 14.3862 16.3334 17.5 16.3334C20.6138 16.3334 26.8333 17.8967 26.8333 21.0001V22.1667C26.8333 22.4762 26.7103 22.7728 26.4915 22.9916C26.2727 23.2104 25.9761 23.3334 25.6667 23.3334H9.33332ZM5.83332 15.2448V14.0001H2.33332C2.0239 14.0001 1.72725 13.8771 1.50845 13.6583C1.28966 13.4395 1.16666 13.1428 1.16666 12.8334C1.16666 12.524 1.28966 12.2273 1.50845 12.0085C1.72725 11.7898 2.0239 11.6667 2.33332 11.6667H5.83332V10.4209C5.83318 10.2363 5.88758 10.0555 5.98998 9.90194C6.09238 9.74839 6.23824 9.62866 6.40868 9.55786C6.57912 9.48706 6.76653 9.46851 6.94758 9.50431C7.12864 9.54012 7.29543 9.62917 7.4261 9.75952L9.83861 12.1743C10.0135 12.3493 10.1115 12.5866 10.1115 12.834C10.1115 13.0814 10.0135 13.3186 9.83861 13.4937L7.4261 15.9062C7.341 15.9932 7.23921 16.0628 7.12702 16.1101C7.01484 16.1574 6.89444 16.1818 6.77269 16.1819C6.64944 16.1827 6.5273 16.1591 6.41324 16.1124C6.29917 16.0657 6.19522 15.9966 6.1079 15.9096C6.02058 15.8226 5.95166 15.7193 5.90453 15.6054C5.8574 15.4915 5.83301 15.3692 5.83332 15.2459V15.2448ZM12.8333 9.33341C12.8333 8.09574 13.3248 6.90854 14.1999 6.03337C15.0751 5.1582 16.2623 4.66675 17.5 4.66675C18.7377 4.66675 19.9249 5.1582 20.8 6.03337C21.6752 6.90854 22.1667 8.09574 22.1667 9.33341C22.1667 10.5711 21.6752 11.7583 20.8 12.6335C19.9249 13.5086 18.7377 14.0001 17.5 14.0001C16.2623 14.0001 15.0751 13.5086 14.1999 12.6335C13.3248 11.7583 12.8333 10.5711 12.8333 9.33341Z" fill="black"/>
</svg>
