<svg width="24" height="24" viewBox="0 0 24 24" fill="none" xmlns="http://www.w3.org/2000/svg">
<path d="M15 12C13.9 12 12.9583 11.6083 12.175 10.825C11.3917 10.0417 11 9.1 11 8C11 6.9 11.3917 5.95833 12.175 5.175C12.9583 4.39167 13.9 4 15 4C16.1 4 17.0417 4.39167 17.825 5.175C18.6083 5.95833 19 6.9 19 8C19 9.1 18.6083 10.0417 17.825 10.825C17.0417 11.6083 16.1 12 15 12ZM21 20H9C8.45 20 7.97933 19.8043 7.588 19.413C7.196 19.021 7 18.55 7 18V17.2C7 16.6333 7.146 16.1123 7.438 15.637C7.72933 15.1623 8.11667 14.8 8.6 14.55C9.63333 14.0333 10.6833 13.6457 11.75 13.387C12.8167 13.129 13.9 13 15 13C16.1 13 17.1833 13.129 18.25 13.387C19.3167 13.6457 20.3667 14.0333 21.4 14.55C21.8833 14.8 22.2707 15.1623 22.562 15.637C22.854 16.1123 23 16.6333 23 17.2V18C23 18.55 22.8043 19.021 22.413 19.413C22.021 19.8043 21.55 20 21 20ZM9 18H21V17.2C21 17.0167 20.9543 16.85 20.863 16.7C20.771 16.55 20.65 16.4333 20.5 16.35C19.6 15.9 18.6917 15.5623 17.775 15.337C16.8583 15.1123 15.9333 15 15 15C14.0667 15 13.1417 15.1123 12.225 15.337C11.3083 15.5623 10.4 15.9 9.5 16.35C9.35 16.4333 9.22933 16.55 9.138 16.7C9.046 16.85 9 17.0167 9 17.2V18ZM15 10C15.55 10 16.021 9.804 16.413 9.412C16.8043 9.02067 17 8.55 17 8C17 7.45 16.8043 6.97933 16.413 6.588C16.021 6.196 15.55 6 15 6C14.45 6 13.9793 6.196 13.588 6.588C13.196 6.97933 13 7.45 13 8C13 8.55 13.196 9.02067 13.588 9.412C13.9793 9.804 14.45 10 15 10Z" fill="black"/>
<path d="M5 11.8687V12.9356C4.99973 13.0413 5.02064 13.1471 5.06104 13.2447C5.10143 13.3423 5.16051 13.4309 5.23535 13.5055C5.3102 13.58 5.3993 13.6393 5.49707 13.6793C5.59484 13.7193 5.69953 13.7395 5.80518 13.7389C5.90953 13.7388 6.01273 13.7179 6.10889 13.6773C6.20505 13.6368 6.29229 13.5772 6.36523 13.5025L8.43311 11.4347C8.58302 11.2846 8.66699 11.0813 8.66699 10.8692C8.66699 10.6571 8.58302 10.4538 8.43311 10.3038L6.36523 8.23398C6.25324 8.12225 6.11027 8.04592 5.95508 8.01523C5.79989 7.98454 5.63926 8.00044 5.49316 8.06113C5.34707 8.12181 5.22205 8.22443 5.13428 8.35605C5.04651 8.48766 4.99988 8.64268 5 8.80087V9.86874H2C1.73478 9.86874 1.48051 9.97417 1.29297 10.1617C1.10543 10.3492 1 10.6035 1 10.8687C1 11.134 1.10543 11.3882 1.29297 11.5758C1.48051 11.7633 1.73478 11.8687 2 11.8687H5Z" fill="black"/>
</svg>
