<svg width="16" height="16" viewBox="0 0 16 16" fill="none" xmlns="http://www.w3.org/2000/svg">
<path d="M12.6666 9.33317C12.4777 9.33317 12.3194 9.26928 12.1916 9.1415C12.0638 9.01373 12 8.85539 12 8.6665V7.33317H10.6666C10.4777 7.33317 10.3194 7.26928 10.1916 7.1415C10.0638 7.01373 9.99996 6.85539 9.99996 6.6665C9.99996 6.47762 10.0638 6.31928 10.1916 6.1915C10.3194 6.06373 10.4777 5.99984 10.6666 5.99984H12V4.6665C12 4.47762 12.0638 4.31928 12.1916 4.1915C12.3194 4.06373 12.4777 3.99984 12.6666 3.99984C12.8555 3.99984 13.0138 4.06373 13.1416 4.1915C13.2694 4.31928 13.3333 4.47762 13.3333 4.6665V5.99984H14.6666C14.8555 5.99984 15.0138 6.06373 15.1416 6.1915C15.2694 6.31928 15.3333 6.47762 15.3333 6.6665C15.3333 6.85539 15.2694 7.01373 15.1416 7.1415C15.0138 7.26928 14.8555 7.33317 14.6666 7.33317H13.3333V8.6665C13.3333 8.85539 13.2694 9.01373 13.1416 9.1415C13.0138 9.26928 12.8555 9.33317 12.6666 9.33317ZM5.99996 7.99984C5.26663 7.99984 4.63885 7.73873 4.11663 7.2165C3.5944 6.69428 3.33329 6.0665 3.33329 5.33317C3.33329 4.59984 3.5944 3.97206 4.11663 3.44984C4.63885 2.92762 5.26663 2.6665 5.99996 2.6665C6.73329 2.6665 7.36107 2.92762 7.88329 3.44984C8.40551 3.97206 8.66663 4.59984 8.66663 5.33317C8.66663 6.0665 8.40551 6.69428 7.88329 7.2165C7.36107 7.73873 6.73329 7.99984 5.99996 7.99984ZM1.33329 13.3332C1.1444 13.3332 0.98607 13.2693 0.858293 13.1415C0.730515 13.0137 0.666626 12.8554 0.666626 12.6665V11.4665C0.666626 11.0887 0.763848 10.7415 0.958293 10.4248C1.15274 10.1082 1.41107 9.8665 1.73329 9.69984C2.42218 9.35539 3.12218 9.09706 3.83329 8.92484C4.5444 8.75262 5.26663 8.6665 5.99996 8.6665C6.73329 8.6665 7.45552 8.75262 8.16663 8.92484C8.87774 9.09706 9.57774 9.35539 10.2666 9.69984C10.5888 9.8665 10.8472 10.1082 11.0416 10.4248C11.2361 10.7415 11.3333 11.0887 11.3333 11.4665V12.6665C11.3333 12.8554 11.2694 13.0137 11.1416 13.1415C11.0138 13.2693 10.8555 13.3332 10.6666 13.3332H1.33329ZM1.99996 11.9998H9.99996V11.4665C9.99996 11.3443 9.9694 11.2332 9.90829 11.1332C9.84718 11.0332 9.76663 10.9554 9.66663 10.8998C9.06663 10.5998 8.46107 10.3748 7.84996 10.2248C7.23885 10.0748 6.62218 9.99984 5.99996 9.99984C5.37774 9.99984 4.76107 10.0748 4.14996 10.2248C3.53885 10.3748 2.93329 10.5998 2.33329 10.8998C2.23329 10.9554 2.15274 11.0332 2.09163 11.1332C2.03051 11.2332 1.99996 11.3443 1.99996 11.4665V11.9998ZM5.99996 6.6665C6.36663 6.6665 6.68052 6.53595 6.94163 6.27484C7.20274 6.01373 7.33329 5.69984 7.33329 5.33317C7.33329 4.9665 7.20274 4.65262 6.94163 4.3915C6.68052 4.13039 6.36663 3.99984 5.99996 3.99984C5.63329 3.99984 5.3194 4.13039 5.05829 4.3915C4.79718 4.65262 4.66663 4.9665 4.66663 5.33317C4.66663 5.69984 4.79718 6.01373 5.05829 6.27484C5.3194 6.53595 5.63329 6.6665 5.99996 6.6665Z" fill="black"/>
</svg>
