<svg width="28" height="28" viewBox="0 0 28 28" fill="none" xmlns="http://www.w3.org/2000/svg">
<path d="M22.1666 16.3332C21.8361 16.3332 21.559 16.2214 21.3354 15.9978C21.1118 15.7741 21 15.4971 21 15.1665V12.8332H18.6666C18.3361 12.8332 18.059 12.7214 17.8354 12.4978C17.6118 12.2741 17.5 11.9971 17.5 11.6665C17.5 11.3359 17.6118 11.0589 17.8354 10.8353C18.059 10.6116 18.3361 10.4998 18.6666 10.4998H21V8.1665C21 7.83595 21.1118 7.55887 21.3354 7.33525C21.559 7.11164 21.8361 6.99984 22.1666 6.99984C22.4972 6.99984 22.7743 7.11164 22.9979 7.33525C23.2215 7.55887 23.3333 7.83595 23.3333 8.1665V10.4998H25.6666C25.9972 10.4998 26.2743 10.6116 26.4979 10.8353C26.7215 11.0589 26.8333 11.3359 26.8333 11.6665C26.8333 11.9971 26.7215 12.2741 26.4979 12.4978C26.2743 12.7214 25.9972 12.8332 25.6666 12.8332H23.3333V15.1665C23.3333 15.4971 23.2215 15.7741 22.9979 15.9978C22.7743 16.2214 22.4972 16.3332 22.1666 16.3332ZM10.5 13.9998C9.21663 13.9998 8.11801 13.5429 7.20413 12.629C6.29024 11.7151 5.83329 10.6165 5.83329 9.33317C5.83329 8.04984 6.29024 6.95123 7.20413 6.03734C8.11801 5.12345 9.21663 4.6665 10.5 4.6665C11.7833 4.6665 12.8819 5.12345 13.7958 6.03734C14.7097 6.95123 15.1666 8.04984 15.1666 9.33317C15.1666 10.6165 14.7097 11.7151 13.7958 12.629C12.8819 13.5429 11.7833 13.9998 10.5 13.9998ZM2.33329 23.3332C2.00274 23.3332 1.72565 23.2214 1.50204 22.9978C1.27843 22.7741 1.16663 22.4971 1.16663 22.1665V20.0665C1.16663 19.4054 1.33676 18.7978 1.67704 18.2436C2.01732 17.6894 2.4694 17.2665 3.03329 16.9748C4.23885 16.3721 5.46385 15.92 6.70829 15.6186C7.95274 15.3172 9.21663 15.1665 10.5 15.1665C11.7833 15.1665 13.0472 15.3172 14.2916 15.6186C15.5361 15.92 16.7611 16.3721 17.9666 16.9748C18.5305 17.2665 18.9826 17.6894 19.3229 18.2436C19.6632 18.7978 19.8333 19.4054 19.8333 20.0665V22.1665C19.8333 22.4971 19.7215 22.7741 19.4979 22.9978C19.2743 23.2214 18.9972 23.3332 18.6666 23.3332H2.33329ZM3.49996 20.9998H17.5V20.0665C17.5 19.8526 17.4465 19.6582 17.3395 19.4832C17.2326 19.3082 17.0916 19.1721 16.9166 19.0748C15.8666 18.5498 14.8069 18.1561 13.7375 17.8936C12.668 17.6311 11.5888 17.4998 10.5 17.4998C9.41107 17.4998 8.3319 17.6311 7.26246 17.8936C6.19301 18.1561 5.13329 18.5498 4.08329 19.0748C3.90829 19.1721 3.76732 19.3082 3.66038 19.4832C3.55343 19.6582 3.49996 19.8526 3.49996 20.0665V20.9998ZM10.5 11.6665C11.1416 11.6665 11.6909 11.438 12.1479 10.9811C12.6048 10.5241 12.8333 9.97484 12.8333 9.33317C12.8333 8.6915 12.6048 8.1422 12.1479 7.68525C11.6909 7.22831 11.1416 6.99984 10.5 6.99984C9.85829 6.99984 9.30899 7.22831 8.85204 7.68525C8.3951 8.1422 8.16663 8.6915 8.16663 9.33317C8.16663 9.97484 8.3951 10.5241 8.85204 10.9811C9.30899 11.438 9.85829 11.6665 10.5 11.6665Z" fill="black"/>
</svg>
