<svg width="28" height="28" viewBox="0 0 28 28" fill="none" xmlns="http://www.w3.org/2000/svg">
<path d="M12.775 18.1423L19.3666 11.5507L17.7041 9.88815L12.775 14.8173L10.325 12.3673L8.66246 14.0298L12.775 18.1423ZM14 25.6673C11.2972 24.9868 9.06593 23.4361 7.30621 21.0152C5.54649 18.5944 4.66663 15.9062 4.66663 12.9507V5.83398L14 2.33398L23.3333 5.83398V12.9507C23.3333 15.9062 22.4534 18.5944 20.6937 21.0152C18.934 23.4361 16.7027 24.9868 14 25.6673ZM14 23.2173C16.0222 22.5757 17.6944 21.2923 19.0166 19.3673C20.3388 17.4423 21 15.3034 21 12.9507V7.43815L14 4.81315L6.99996 7.43815V12.9507C6.99996 15.3034 7.66107 17.4423 8.98329 19.3673C10.3055 21.2923 11.9777 22.5757 14 23.2173Z" fill="#191919"/>
</svg>
