<svg width="16" height="16" viewBox="0 0 16 16" fill="none" xmlns="http://www.w3.org/2000/svg">
<path d="M7.30002 10.3673L11.0667 6.60065L10.1167 5.65065L7.30002 8.46732L5.90002 7.06732L4.95002 8.01732L7.30002 10.3673ZM8.00002 14.6673C6.45558 14.2784 5.18058 13.3923 4.17502 12.009C3.16946 10.6257 2.66669 9.08954 2.66669 7.40065V3.33398L8.00002 1.33398L13.3334 3.33398V7.40065C13.3334 9.08954 12.8306 10.6257 11.825 12.009C10.8195 13.3923 9.54447 14.2784 8.00002 14.6673ZM8.00002 13.2673C9.15558 12.9007 10.1111 12.1673 10.8667 11.0673C11.6222 9.96732 12 8.74509 12 7.40065V4.25065L8.00002 2.75065L4.00002 4.25065V7.40065C4.00002 8.74509 4.3778 9.96732 5.13335 11.0673C5.88891 12.1673 6.84446 12.9007 8.00002 13.2673Z" fill="#191919"/>
</svg>
