<svg width="24" height="24" viewBox="0 0 24 24" fill="none" xmlns="http://www.w3.org/2000/svg">
<path d="M18 10.5001L21.15 7.3501C21.3167 7.18343 21.5 7.14176 21.7 7.2251C21.9 7.30843 22 7.46676 22 7.7001V16.3001C22 16.5334 21.9 16.6918 21.7 16.7751C21.5 16.8584 21.3167 16.8168 21.15 16.6501L18 13.5001C18 13.7834 17.9042 14.0209 17.7125 14.2126C17.5208 14.4043 17.2833 14.5001 17 14.5001C16.7167 14.5001 16.4792 14.4043 16.2875 14.2126C16.0958 14.0209 16 13.7834 16 13.5001V6.0001H9.00001C8.66668 6.0001 8.41668 5.89593 8.25001 5.6876C8.08335 5.47926 8.00001 5.2501 8.00001 5.0001C8.00001 4.7501 8.08335 4.52093 8.25001 4.3126C8.41668 4.10426 8.66668 4.0001 9.00001 4.0001H16C16.55 4.0001 17.0208 4.19593 17.4125 4.5876C17.8042 4.97926 18 5.4501 18 6.0001V10.5001ZM19.85 22.6501L1.35001 4.1501C1.16668 3.96676 1.07501 3.73343 1.07501 3.4501C1.07501 3.16676 1.16668 2.93343 1.35001 2.7501C1.53335 2.56676 1.76668 2.4751 2.05001 2.4751C2.33335 2.4751 2.56668 2.56676 2.75001 2.7501L21.25 21.2501C21.4333 21.4334 21.525 21.6668 21.525 21.9501C21.525 22.2334 21.4333 22.4668 21.25 22.6501C21.0667 22.8334 20.8333 22.9251 20.55 22.9251C20.2667 22.9251 20.0333 22.8334 19.85 22.6501ZM4.00001 4.0001L6.00001 6.0001H4.00001V18.0001H16V16.0001L18 18.0001C18 18.5501 17.8042 19.0209 17.4125 19.4126C17.0208 19.8043 16.55 20.0001 16 20.0001H4.00001C3.45001 20.0001 2.97918 19.8043 2.58751 19.4126C2.19585 19.0209 2.00001 18.5501 2.00001 18.0001V6.0001C2.00001 5.4501 2.19585 4.97926 2.58751 4.5876C2.97918 4.19593 3.45001 4.0001 4.00001 4.0001Z" fill="black"/>
</svg>
