<svg width="16" height="16" viewBox="0 0 16 16" fill="none" xmlns="http://www.w3.org/2000/svg">
<g id="VideoPlayer16">
<path id="Vector" d="M6.84998 10.6665L10.5666 8.28317C10.6666 8.2165 10.7166 8.12206 10.7166 7.99984C10.7166 7.87762 10.6666 7.78317 10.5666 7.7165L6.84998 5.33317C6.73887 5.25539 6.62498 5.24984 6.50831 5.3165C6.39165 5.38317 6.33331 5.48317 6.33331 5.6165V10.3832C6.33331 10.5165 6.39165 10.6165 6.50831 10.6832C6.62498 10.7498 6.73887 10.7443 6.84998 10.6665ZM2.66665 13.3332C2.29998 13.3332 1.98609 13.2026 1.72498 12.9415C1.46387 12.6804 1.33331 12.3665 1.33331 11.9998V3.99984C1.33331 3.63317 1.46387 3.31928 1.72498 3.05817C1.98609 2.79706 2.29998 2.6665 2.66665 2.6665H13.3333C13.7 2.6665 14.0139 2.79706 14.275 3.05817C14.5361 3.31928 14.6666 3.63317 14.6666 3.99984V11.9998C14.6666 12.3665 14.5361 12.6804 14.275 12.9415C14.0139 13.2026 13.7 13.3332 13.3333 13.3332H2.66665ZM2.66665 11.9998H13.3333V3.99984H2.66665V11.9998Z" fill="black"/>
</g>
</svg>
