<svg width="28" height="28" viewBox="0 0 28 28" fill="none" xmlns="http://www.w3.org/2000/svg">
<path d="M20.4459 12.3958C20.7181 12.2208 20.8542 11.9778 20.8542 11.6667C20.8542 11.3556 20.7181 11.1125 20.4459 10.9375L14.7584 7.29168C14.4667 7.09723 14.1702 7.08265 13.8688 7.24793C13.5674 7.41321 13.4167 7.67084 13.4167 8.02084V15.3125C13.4167 15.6625 13.5674 15.9202 13.8688 16.0854C14.1702 16.2507 14.4667 16.2361 14.7584 16.0417L20.4459 12.3958ZM9.33337 21C8.69171 21 8.1424 20.7715 7.68546 20.3146C7.22851 19.8577 7.00004 19.3083 7.00004 18.6667V4.66668C7.00004 4.02501 7.22851 3.4757 7.68546 3.01876C8.1424 2.56182 8.69171 2.33334 9.33337 2.33334H23.3334C23.975 2.33334 24.5243 2.56182 24.9813 3.01876C25.4382 3.4757 25.6667 4.02501 25.6667 4.66668V18.6667C25.6667 19.3083 25.4382 19.8577 24.9813 20.3146C24.5243 20.7715 23.975 21 23.3334 21H9.33337ZM4.66671 25.6667C4.02504 25.6667 3.47574 25.4382 3.01879 24.9813C2.56185 24.5243 2.33337 23.975 2.33337 23.3333V8.16668C2.33337 7.83612 2.44518 7.55904 2.66879 7.33543C2.8924 7.11182 3.16949 7.00001 3.50004 7.00001C3.8306 7.00001 4.10768 7.11182 4.33129 7.33543C4.5549 7.55904 4.66671 7.83612 4.66671 8.16668V23.3333H19.8334C20.1639 23.3333 20.441 23.4452 20.6646 23.6688C20.8882 23.8924 21 24.1695 21 24.5C21 24.8306 20.8882 25.1077 20.6646 25.3313C20.441 25.5549 20.1639 25.6667 19.8334 25.6667H4.66671Z" fill="black"/>
</svg>
