<svg width="24" height="24" viewBox="0 0 24 24" fill="none" xmlns="http://www.w3.org/2000/svg">
<path d="M17.525 10.625C17.7583 10.475 17.875 10.2667 17.875 10C17.875 9.73333 17.7583 9.525 17.525 9.375L12.65 6.25C12.4 6.08333 12.1458 6.07083 11.8875 6.2125C11.6292 6.35417 11.5 6.575 11.5 6.875V13.125C11.5 13.425 11.6292 13.6458 11.8875 13.7875C12.1458 13.9292 12.4 13.9167 12.65 13.75L17.525 10.625ZM8 18C7.45 18 6.97917 17.8042 6.5875 17.4125C6.19583 17.0208 6 16.55 6 16V4C6 3.45 6.19583 2.97917 6.5875 2.5875C6.97917 2.19583 7.45 2 8 2H20C20.55 2 21.0208 2.19583 21.4125 2.5875C21.8042 2.97917 22 3.45 22 4V16C22 16.55 21.8042 17.0208 21.4125 17.4125C21.0208 17.8042 20.55 18 20 18H8ZM8 16H20V4H8V16ZM4 22C3.45 22 2.97917 21.8042 2.5875 21.4125C2.19583 21.0208 2 20.55 2 20V7C2 6.71667 2.09583 6.47917 2.2875 6.2875C2.47917 6.09583 2.71667 6 3 6C3.28333 6 3.52083 6.09583 3.7125 6.2875C3.90417 6.47917 4 6.71667 4 7V20H17C17.2833 20 17.5208 20.0958 17.7125 20.2875C17.9042 20.4792 18 20.7167 18 21C18 21.2833 17.9042 21.5208 17.7125 21.7125C17.5208 21.9042 17.2833 22 17 22H4Z" fill="black"/>
</svg>
