<svg width="28" height="28" viewBox="0 0 28 28" fill="none" xmlns="http://www.w3.org/2000/svg">
<path d="M4.66665 23.3334C4.02498 23.3334 3.47587 23.1051 3.01931 22.6486C2.56198 22.1912 2.33331 21.6417 2.33331 21.0001V7.00008C2.33331 6.35841 2.56198 5.8093 3.01931 5.35275C3.47587 4.89541 4.02498 4.66675 4.66665 4.66675H18.6666C19.3083 4.66675 19.8578 4.89541 20.3151 5.35275C20.7717 5.8093 21 6.35841 21 7.00008V12.2501L24.675 8.57508C24.8694 8.38064 25.0833 8.33203 25.3166 8.42925C25.55 8.52647 25.6666 8.71119 25.6666 8.98341V19.0167C25.6666 19.289 25.55 19.4737 25.3166 19.5709C25.0833 19.6681 24.8694 19.6195 24.675 19.4251L21 15.7501V21.0001C21 21.6417 20.7717 22.1912 20.3151 22.6486C19.8578 23.1051 19.3083 23.3334 18.6666 23.3334H4.66665ZM4.66665 21.0001H18.6666V7.00008H4.66665V21.0001Z" fill="black"/>
</svg>
