<svg width="16" height="16" viewBox="0 0 16 16" fill="none" xmlns="http://www.w3.org/2000/svg">
<path d="M2.66668 13.3334C2.30001 13.3334 1.98623 13.2029 1.72534 12.942C1.46401 12.6807 1.33334 12.3667 1.33334 12V4.00002C1.33334 3.63335 1.46401 3.31958 1.72534 3.05869C1.98623 2.79735 2.30001 2.66669 2.66668 2.66669H10.6667C11.0333 2.66669 11.3473 2.79735 11.6087 3.05869C11.8696 3.31958 12 3.63335 12 4.00002V7.00002L14.1 4.90002C14.2 4.80002 14.3196 4.77491 14.4587 4.82469C14.5973 4.87491 14.6667 4.9778 14.6667 5.13335V10.8667C14.6667 11.0222 14.5973 11.1249 14.4587 11.1747C14.3196 11.2249 14.2 11.2 14.1 11.1L12 9.00002V12C12 12.3667 11.8696 12.6807 11.6087 12.942C11.3473 13.2029 11.0333 13.3334 10.6667 13.3334H2.66668Z" fill="black"/>
</svg>
