<svg width="16" height="16" viewBox="0 0 16 16" fill="none" xmlns="http://www.w3.org/2000/svg">
<path d="M11.6833 7.08325C11.8389 6.98325 11.9166 6.84436 11.9166 6.66658C11.9166 6.48881 11.8389 6.34992 11.6833 6.24992L8.43331 4.16659C8.26665 4.05547 8.0972 4.04714 7.92498 4.14159C7.75276 4.23603 7.66665 4.38325 7.66665 4.58325V8.74992C7.66665 8.94992 7.75276 9.09714 7.92498 9.19159C8.0972 9.28603 8.26665 9.2777 8.43331 9.16658L11.6833 7.08325ZM5.33331 11.9999C4.96665 11.9999 4.65276 11.8694 4.39165 11.6083C4.13054 11.3471 3.99998 11.0333 3.99998 10.6666V2.66659C3.99998 2.29992 4.13054 1.98603 4.39165 1.72492C4.65276 1.46381 4.96665 1.33325 5.33331 1.33325H13.3333C13.7 1.33325 14.0139 1.46381 14.275 1.72492C14.5361 1.98603 14.6666 2.29992 14.6666 2.66659V10.6666C14.6666 11.0333 14.5361 11.3471 14.275 11.6083C14.0139 11.8694 13.7 11.9999 13.3333 11.9999H5.33331ZM5.33331 10.6666H13.3333V2.66659H5.33331V10.6666ZM2.66665 14.6666C2.29998 14.6666 1.98609 14.536 1.72498 14.2749C1.46387 14.0138 1.33331 13.6999 1.33331 13.3333V4.66659C1.33331 4.4777 1.3972 4.31936 1.52498 4.19159C1.65276 4.06381 1.81109 3.99992 1.99998 3.99992C2.18887 3.99992 2.3472 4.06381 2.47498 4.19159C2.60276 4.31936 2.66665 4.4777 2.66665 4.66659V13.3333H11.3333C11.5222 13.3333 11.6805 13.3971 11.8083 13.5249C11.9361 13.6527 12 13.811 12 13.9999C12 14.1888 11.9361 14.3471 11.8083 14.4749C11.6805 14.6027 11.5222 14.6666 11.3333 14.6666H2.66665Z" fill="black"/>
</svg>
