<svg width="16" height="16" viewBox="0 0 16 16" fill="none" xmlns="http://www.w3.org/2000/svg">
<path d="M11.6834 7.08334C11.8389 6.98334 11.9167 6.84445 11.9167 6.66668C11.9167 6.4889 11.8389 6.35001 11.6834 6.25001L8.43337 4.16668C8.26671 4.05557 8.09726 4.04723 7.92504 4.14168C7.75282 4.23612 7.66671 4.38334 7.66671 4.58334V8.75001C7.66671 8.95001 7.75282 9.09723 7.92504 9.19168C8.09726 9.28612 8.26671 9.27779 8.43337 9.16668L11.6834 7.08334ZM5.33337 12C4.96671 12 4.65282 11.8695 4.39171 11.6083C4.1306 11.3472 4.00004 11.0333 4.00004 10.6667V2.66668C4.00004 2.30001 4.1306 1.98612 4.39171 1.72501C4.65282 1.4639 4.96671 1.33334 5.33337 1.33334H13.3334C13.7 1.33334 14.0139 1.4639 14.275 1.72501C14.5362 1.98612 14.6667 2.30001 14.6667 2.66668V10.6667C14.6667 11.0333 14.5362 11.3472 14.275 11.6083C14.0139 11.8695 13.7 12 13.3334 12H5.33337ZM2.66671 14.6667C2.30004 14.6667 1.98615 14.5361 1.72504 14.275C1.46393 14.0139 1.33337 13.7 1.33337 13.3333V4.66668C1.33337 4.47779 1.39726 4.31945 1.52504 4.19168C1.65282 4.0639 1.81115 4.00001 2.00004 4.00001C2.18893 4.00001 2.34726 4.0639 2.47504 4.19168C2.60282 4.31945 2.66671 4.47779 2.66671 4.66668V13.3333H11.3334C11.5223 13.3333 11.6806 13.3972 11.8084 13.525C11.9362 13.6528 12 13.8111 12 14C12 14.1889 11.9362 14.3472 11.8084 14.475C11.6806 14.6028 11.5223 14.6667 11.3334 14.6667H2.66671Z" fill="black"/>
</svg>
