<svg width="28" height="28" viewBox="0 0 28 28" fill="none" xmlns="http://www.w3.org/2000/svg">
<path d="M21 12.2502L24.675 8.5752C24.8694 8.38075 25.0833 8.33214 25.3167 8.42936C25.55 8.52658 25.6667 8.71131 25.6667 8.98353V19.0169C25.6667 19.2891 25.55 19.4738 25.3167 19.571C25.0833 19.6683 24.8694 19.6196 24.675 19.4252L21 15.7502C21 16.0808 20.8882 16.3578 20.6646 16.5814C20.441 16.8051 20.1639 16.9169 19.8333 16.9169C19.5028 16.9169 19.2257 16.8051 19.0021 16.5814C18.7785 16.3578 18.6667 16.0808 18.6667 15.7502V7.0002H10.5C10.1111 7.0002 9.81943 6.87867 9.62498 6.63561C9.43054 6.39256 9.33332 6.1252 9.33332 5.83353C9.33332 5.54186 9.43054 5.2745 9.62498 5.03145C9.81943 4.78839 10.1111 4.66686 10.5 4.66686H18.6667C19.3083 4.66686 19.8576 4.89533 20.3146 5.35228C20.7715 5.80922 21 6.35853 21 7.0002V12.2502ZM23.1583 26.4252L1.57498 4.84186C1.36109 4.62797 1.25415 4.35575 1.25415 4.0252C1.25415 3.69464 1.36109 3.42242 1.57498 3.20853C1.78887 2.99464 2.06109 2.8877 2.39165 2.8877C2.72221 2.8877 2.99443 2.99464 3.20832 3.20853L24.7917 24.7919C25.0055 25.0058 25.1125 25.278 25.1125 25.6085C25.1125 25.9391 25.0055 26.2113 24.7917 26.4252C24.5778 26.6391 24.3055 26.746 23.975 26.746C23.6444 26.746 23.3722 26.6391 23.1583 26.4252ZM4.66665 4.66686L6.99998 7.0002H4.66665V21.0002H18.6667V18.6669L21 21.0002C21 21.6419 20.7715 22.1912 20.3146 22.6481C19.8576 23.1051 19.3083 23.3335 18.6667 23.3335H4.66665C4.02498 23.3335 3.47568 23.1051 3.01873 22.6481C2.56179 22.1912 2.33332 21.6419 2.33332 21.0002V7.0002C2.33332 6.35853 2.56179 5.80922 3.01873 5.35228C3.47568 4.89533 4.02498 4.66686 4.66665 4.66686Z" fill="black"/>
</svg>
