<svg width="16" height="16" viewBox="0 0 16 16" fill="none" xmlns="http://www.w3.org/2000/svg">
<path d="M2.66665 13.3334C2.29998 13.3334 1.9862 13.203 1.72531 12.9421C1.46398 12.6807 1.33331 12.3667 1.33331 12.0001V4.00008C1.33331 3.63341 1.46398 3.31964 1.72531 3.05875C1.9862 2.79741 2.29998 2.66675 2.66665 2.66675H10.6666C11.0333 2.66675 11.3473 2.79741 11.6086 3.05875C11.8695 3.31964 12 3.63341 12 4.00008V7.00008L14.1 4.90008C14.2111 4.78897 14.3333 4.76119 14.4666 4.81675C14.6 4.8723 14.6666 4.97786 14.6666 5.13341V10.8667C14.6666 11.0223 14.6 11.1279 14.4666 11.1834C14.3333 11.239 14.2111 11.2112 14.1 11.1001L12 9.00008V12.0001C12 12.3667 11.8695 12.6807 11.6086 12.9421C11.3473 13.203 11.0333 13.3334 10.6666 13.3334H2.66665ZM2.66665 12.0001H10.6666V4.00008H2.66665V12.0001Z" fill="black"/>
</svg>
