<svg width="16" height="16" viewBox="0 0 16 16" fill="none" xmlns="http://www.w3.org/2000/svg">
<path d="M12 6.9999L14.1 4.8999C14.2111 4.78879 14.3333 4.76101 14.4667 4.81657C14.6 4.87212 14.6667 4.97768 14.6667 5.13324V10.8666C14.6667 11.0221 14.6 11.1277 14.4667 11.1832C14.3333 11.2388 14.2111 11.211 14.1 11.0999L12 8.9999C12 9.18879 11.9361 9.34713 11.8083 9.4749C11.6806 9.60268 11.5222 9.66657 11.3333 9.66657C11.1445 9.66657 10.9861 9.60268 10.8583 9.4749C10.7306 9.34713 10.6667 9.18879 10.6667 8.9999V3.9999H6.00001C5.77779 3.9999 5.61112 3.93046 5.50001 3.79157C5.3889 3.65268 5.33334 3.4999 5.33334 3.33324C5.33334 3.16657 5.3889 3.01379 5.50001 2.8749C5.61112 2.73601 5.77779 2.66657 6.00001 2.66657H10.6667C11.0333 2.66657 11.3472 2.79712 11.6083 3.05824C11.8695 3.31935 12 3.63324 12 3.9999V6.9999ZM13.2333 15.0999L0.900008 2.76657C0.777786 2.64435 0.716675 2.48879 0.716675 2.2999C0.716675 2.11101 0.777786 1.95546 0.900008 1.83324C1.02223 1.71101 1.17779 1.6499 1.36667 1.6499C1.55556 1.6499 1.71112 1.71101 1.83334 1.83324L14.1667 14.1666C14.2889 14.2888 14.35 14.4443 14.35 14.6332C14.35 14.8221 14.2889 14.9777 14.1667 15.0999C14.0445 15.2221 13.8889 15.2832 13.7 15.2832C13.5111 15.2832 13.3556 15.2221 13.2333 15.0999ZM2.66667 2.66657L4.00001 3.9999H2.66667V11.9999H10.6667V10.6666L12 11.9999C12 12.3666 11.8695 12.6805 11.6083 12.9416C11.3472 13.2027 11.0333 13.3332 10.6667 13.3332H2.66667C2.30001 13.3332 1.98612 13.2027 1.72501 12.9416C1.4639 12.6805 1.33334 12.3666 1.33334 11.9999V3.9999C1.33334 3.63324 1.4639 3.31935 1.72501 3.05824C1.98612 2.79712 2.30001 2.66657 2.66667 2.66657Z" fill="black"/>
</svg>
