<svg width="28" height="28" viewBox="0 0 28 28" fill="none" xmlns="http://www.w3.org/2000/svg">
<path d="M4.66668 23.3334C4.02501 23.3334 3.4759 23.1051 3.01934 22.6485C2.56201 22.1912 2.33334 21.6417 2.33334 21V7.00002C2.33334 6.35835 2.56201 5.80924 3.01934 5.35269C3.4759 4.89535 4.02501 4.66669 4.66668 4.66669H18.6667C19.3083 4.66669 19.8578 4.89535 20.3152 5.35269C20.7717 5.80924 21 6.35835 21 7.00002V12.25L24.675 8.57502C24.85 8.40002 25.0592 8.35608 25.3027 8.44319C25.5453 8.53108 25.6667 8.71113 25.6667 8.98335V19.0167C25.6667 19.2889 25.5453 19.4686 25.3027 19.5557C25.0592 19.6436 24.85 19.6 24.675 19.425L21 15.75V21C21 21.6417 20.7717 22.1912 20.3152 22.6485C19.8578 23.1051 19.3083 23.3334 18.6667 23.3334H4.66668Z" fill="black"/>
</svg>
