<svg width="28" height="28" viewBox="0 0 28 28" fill="none" xmlns="http://www.w3.org/2000/svg">
<path d="M20.4458 12.3958C20.7181 12.2208 20.8542 11.9777 20.8542 11.6666C20.8542 11.3555 20.7181 11.1124 20.4458 10.9374L14.7583 7.29159C14.4667 7.09714 14.1701 7.08256 13.8688 7.24784C13.5674 7.41311 13.4167 7.67075 13.4167 8.02075V15.3124C13.4167 15.6624 13.5674 15.9201 13.8688 16.0853C14.1701 16.2506 14.4667 16.236 14.7583 16.0416L20.4458 12.3958ZM9.33334 20.9999C8.69168 20.9999 8.14237 20.7714 7.68543 20.3145C7.22848 19.8576 7.00001 19.3083 7.00001 18.6666V4.66659C7.00001 4.02492 7.22848 3.47561 7.68543 3.01867C8.14237 2.56172 8.69168 2.33325 9.33334 2.33325H23.3333C23.975 2.33325 24.5243 2.56172 24.9813 3.01867C25.4382 3.47561 25.6667 4.02492 25.6667 4.66659V18.6666C25.6667 19.3083 25.4382 19.8576 24.9813 20.3145C24.5243 20.7714 23.975 20.9999 23.3333 20.9999H9.33334ZM9.33334 18.6666H23.3333V4.66659H9.33334V18.6666ZM4.66668 25.6666C4.02501 25.6666 3.4757 25.4381 3.01876 24.9812C2.56182 24.5242 2.33334 23.9749 2.33334 23.3333V8.16659C2.33334 7.83603 2.44515 7.55895 2.66876 7.33534C2.89237 7.11172 3.16945 6.99992 3.50001 6.99992C3.83057 6.99992 4.10765 7.11172 4.33126 7.33534C4.55487 7.55895 4.66668 7.83603 4.66668 8.16659V23.3333H19.8333C20.1639 23.3333 20.441 23.4451 20.6646 23.6687C20.8882 23.8923 21 24.1694 21 24.4999C21 24.8305 20.8882 25.1076 20.6646 25.3312C20.441 25.5548 20.1639 25.6666 19.8333 25.6666H4.66668Z" fill="black"/>
</svg>
