<svg width="24" height="24" viewBox="0 0 24 24" fill="none" xmlns="http://www.w3.org/2000/svg">
<path d="M5 11C4.45 11 3.97917 10.8042 3.5875 10.4125C3.19583 10.0208 3 9.55 3 9V5C3 4.45 3.19583 3.97917 3.5875 3.5875C3.97917 3.19583 4.45 3 5 3H19C19.55 3 20.0208 3.19583 20.4125 3.5875C20.8042 3.97917 21 4.45 21 5V9C21 9.55 20.8042 10.0208 20.4125 10.4125C20.0208 10.8042 19.55 11 19 11H5ZM5 9H19V5H5V9ZM5 21C4.45 21 3.97917 20.8042 3.5875 20.4125C3.19583 20.0208 3 19.55 3 19V15C3 14.45 3.19583 13.9792 3.5875 13.5875C3.97917 13.1958 4.45 13 5 13H19C19.55 13 20.0208 13.1958 20.4125 13.5875C20.8042 13.9792 21 14.45 21 15V19C21 19.55 20.8042 20.0208 20.4125 20.4125C20.0208 20.8042 19.55 21 19 21H5ZM5 19H19V15H5V19Z" fill="#191919"/>
</svg>
