<svg width="28" height="28" viewBox="0 0 28 28" fill="none" xmlns="http://www.w3.org/2000/svg">
<path d="M5.83333 12.8333C5.19167 12.8333 4.64236 12.6049 4.18542 12.1479C3.72847 11.691 3.5 11.1417 3.5 10.5V5.83333C3.5 5.19167 3.72847 4.64236 4.18542 4.18542C4.64236 3.72847 5.19167 3.5 5.83333 3.5H22.1667C22.8083 3.5 23.3576 3.72847 23.8146 4.18542C24.2715 4.64236 24.5 5.19167 24.5 5.83333V10.5C24.5 11.1417 24.2715 11.691 23.8146 12.1479C23.3576 12.6049 22.8083 12.8333 22.1667 12.8333H5.83333ZM5.83333 10.5H22.1667V5.83333H5.83333V10.5ZM5.83333 24.5C5.19167 24.5 4.64236 24.2715 4.18542 23.8146C3.72847 23.3576 3.5 22.8083 3.5 22.1667V17.5C3.5 16.8583 3.72847 16.309 4.18542 15.8521C4.64236 15.3951 5.19167 15.1667 5.83333 15.1667H22.1667C22.8083 15.1667 23.3576 15.3951 23.8146 15.8521C24.2715 16.309 24.5 16.8583 24.5 17.5V22.1667C24.5 22.8083 24.2715 23.3576 23.8146 23.8146C23.3576 24.2715 22.8083 24.5 22.1667 24.5H5.83333ZM5.83333 22.1667H22.1667V17.5H5.83333V22.1667Z" fill="#191919"/>
</svg>
