<svg width="16" height="16" viewBox="0 0 16 16" fill="none" xmlns="http://www.w3.org/2000/svg">
<path d="M10.7333 8.86657L9.76666 7.8999C9.86666 7.37768 9.71666 6.88879 9.31666 6.43324C8.91666 5.97768 8.39999 5.7999 7.76666 5.8999L6.79999 4.93324C6.98888 4.84435 7.18044 4.77768 7.37466 4.73324C7.56933 4.68879 7.77777 4.66657 7.99999 4.66657C8.83333 4.66657 9.54177 4.95812 10.1253 5.54124C10.7084 6.12479 11 6.83324 11 7.66657C11 7.88879 10.9778 8.09723 10.9333 8.2919C10.8889 8.48612 10.8222 8.67768 10.7333 8.86657ZM12.8667 10.9666L11.9 10.0332C12.3222 9.71101 12.6973 9.35812 13.0253 8.97457C13.3529 8.59146 13.6333 8.15546 13.8667 7.66657C13.3111 6.54435 12.5138 5.65257 11.4747 4.99124C10.436 4.33035 9.27777 3.9999 7.99999 3.9999C7.67777 3.9999 7.3611 4.02212 7.04999 4.06657C6.73888 4.11101 6.43333 4.17768 6.13333 4.26657L5.09999 3.23324C5.55555 3.04435 6.02221 2.90257 6.49999 2.8079C6.97777 2.71368 7.47777 2.66657 7.99999 2.66657C9.58888 2.66657 11.0167 3.0859 12.2833 3.92457C13.55 4.76368 14.5 5.85546 15.1333 7.1999C15.1667 7.25546 15.1889 7.32479 15.2 7.4079C15.2111 7.49146 15.2167 7.57768 15.2167 7.66657C15.2167 7.75546 15.2084 7.84146 15.192 7.92457C15.1751 8.00812 15.1555 8.07768 15.1333 8.13324C14.8778 8.6999 14.5584 9.22212 14.1753 9.6999C13.7918 10.1777 13.3555 10.5999 12.8667 10.9666ZM12.7333 14.5999L10.4 12.2999C10.0111 12.4221 9.61955 12.5139 9.22533 12.5752C8.83066 12.6361 8.42221 12.6666 7.99999 12.6666C6.4111 12.6666 4.98333 12.2472 3.71666 11.4086C2.44999 10.5695 1.49999 9.47768 0.866659 8.13324C0.833325 8.07768 0.811103 8.00812 0.799992 7.92457C0.788881 7.84146 0.783325 7.75546 0.783325 7.66657C0.783325 7.57768 0.788881 7.49435 0.799992 7.41657C0.811103 7.33879 0.833325 7.27212 0.866659 7.21657C1.09999 6.71657 1.37777 6.25546 1.69999 5.83324C2.02221 5.41101 2.37777 5.02212 2.76666 4.66657L1.38333 3.26657C1.2611 3.14435 1.19999 2.99146 1.19999 2.8079C1.19999 2.62479 1.26666 2.46657 1.39999 2.33324C1.52221 2.21101 1.67777 2.1499 1.86666 2.1499C2.05555 2.1499 2.2111 2.21101 2.33333 2.33324L13.6667 13.6666C13.7889 13.7888 13.8529 13.9417 13.8587 14.1252C13.864 14.3083 13.8 14.4666 13.6667 14.5999C13.5444 14.7221 13.3889 14.7832 13.2 14.7832C13.0111 14.7832 12.8555 14.7221 12.7333 14.5999ZM3.69999 5.5999C3.37777 5.88879 3.08333 6.20546 2.81666 6.5499C2.54999 6.89435 2.32221 7.26657 2.13333 7.66657C2.68888 8.78879 3.48599 9.68035 4.52466 10.3412C5.56377 11.0026 6.72221 11.3332 7.99999 11.3332C8.22221 11.3332 8.43888 11.3195 8.64999 11.2919C8.8611 11.2639 9.07777 11.2332 9.29999 11.1999L8.69999 10.5666C8.57777 10.5999 8.4611 10.6248 8.34999 10.6412C8.23888 10.6581 8.12221 10.6666 7.99999 10.6666C7.16666 10.6666 6.45821 10.375 5.87466 9.7919C5.29155 9.20835 4.99999 8.4999 4.99999 7.66657C4.99999 7.54435 5.00821 7.42768 5.02466 7.31657C5.04155 7.20546 5.06666 7.08879 5.09999 6.96657L3.69999 5.5999Z" fill="black"/>
</svg>
