<svg width="16" height="16" viewBox="0 0 16 16" fill="none" xmlns="http://www.w3.org/2000/svg">
<path d="M7.99999 4.31339C9.83999 4.31339 11.3333 5.80672 11.3333 7.64672C11.3333 7.98672 11.2667 8.31339 11.1733 8.62006L13.2133 10.6601C14.14 9.84006 14.8733 8.81339 15.3333 7.64006C14.18 4.72006 11.3333 2.64672 7.99999 2.64672C7.15332 2.64672 6.33999 2.78006 5.57332 3.02672L7.01999 4.47339C7.33332 4.38006 7.65999 4.31339 7.99999 4.31339ZM1.80666 2.08672C1.54666 2.34672 1.54666 2.76672 1.80666 3.02672L3.11999 4.34006C2.03999 5.20006 1.17999 6.33339 0.666656 7.64672C1.81999 10.5734 4.66666 12.6467 7.99999 12.6467C9.01332 12.6467 9.97999 12.4467 10.8733 12.1001L12.6867 13.9134C12.9467 14.1734 13.3667 14.1734 13.6267 13.9134C13.8867 13.6534 13.8867 13.2334 13.6267 12.9734L2.75332 2.08672C2.49332 1.82672 2.06666 1.82672 1.80666 2.08672ZM7.99999 10.9801C6.15999 10.9801 4.66666 9.48672 4.66666 7.64672C4.66666 7.13339 4.78666 6.64672 4.99332 6.22006L6.03999 7.26672C6.01999 7.38672 5.99999 7.51339 5.99999 7.64672C5.99999 8.75339 6.89332 9.64672 7.99999 9.64672C8.13332 9.64672 8.25332 9.62672 8.37999 9.60006L9.42666 10.6467C8.99332 10.8601 8.51332 10.9801 7.99999 10.9801ZM9.97999 7.42672C9.87999 6.49339 9.14666 5.76672 8.21999 5.66672L9.97999 7.42672Z" fill="black"/>
</svg>
