<svg width="24" height="24" viewBox="0 0 24 24" fill="none" xmlns="http://www.w3.org/2000/svg">
<path d="M16.1 12.3001L14.65 10.8501C14.8 10.0668 14.575 9.33343 13.975 8.6501C13.375 7.96676 12.6 7.7001 11.65 7.8501L10.2 6.4001C10.4833 6.26676 10.7707 6.16676 11.062 6.1001C11.354 6.03343 11.6667 6.0001 12 6.0001C13.25 6.0001 14.3127 6.43743 15.188 7.3121C16.0627 8.18743 16.5 9.2501 16.5 10.5001C16.5 10.8334 16.4667 11.1461 16.4 11.4381C16.3333 11.7294 16.2333 12.0168 16.1 12.3001ZM19.3 15.4501L17.85 14.0501C18.4833 13.5668 19.046 13.0374 19.538 12.4621C20.0293 11.8874 20.45 11.2334 20.8 10.5001C19.9667 8.81676 18.7707 7.4791 17.212 6.4871C15.654 5.49576 13.9167 5.0001 12 5.0001C11.5167 5.0001 11.0417 5.03343 10.575 5.1001C10.1083 5.16676 9.64999 5.26676 9.19999 5.4001L7.64999 3.8501C8.33332 3.56676 9.03332 3.3541 9.74999 3.2121C10.4667 3.07076 11.2167 3.0001 12 3.0001C14.3833 3.0001 16.525 3.6291 18.425 4.8871C20.325 6.14576 21.75 7.78343 22.7 9.8001C22.75 9.88343 22.7833 9.98743 22.8 10.1121C22.8167 10.2374 22.825 10.3668 22.825 10.5001C22.825 10.6334 22.8127 10.7624 22.788 10.8871C22.7627 11.0124 22.7333 11.1168 22.7 11.2001C22.3167 12.0501 21.8377 12.8334 21.263 13.5501C20.6877 14.2668 20.0333 14.9001 19.3 15.4501ZM19.1 20.9001L15.6 17.4501C15.0167 17.6334 14.4293 17.7711 13.838 17.8631C13.246 17.9544 12.6333 18.0001 12 18.0001C9.61665 18.0001 7.47499 17.3711 5.57499 16.1131C3.67499 14.8544 2.24999 13.2168 1.29999 11.2001C1.24999 11.1168 1.21665 11.0124 1.19999 10.8871C1.18332 10.7624 1.17499 10.6334 1.17499 10.5001C1.17499 10.3668 1.18332 10.2418 1.19999 10.1251C1.21665 10.0084 1.24999 9.90843 1.29999 9.8251C1.64999 9.0751 2.06665 8.38343 2.54999 7.7501C3.03332 7.11676 3.56665 6.53343 4.14999 6.0001L2.07499 3.9001C1.89165 3.71676 1.79999 3.48743 1.79999 3.2121C1.79999 2.93743 1.89999 2.7001 2.09999 2.5001C2.28332 2.31676 2.51665 2.2251 2.79999 2.2251C3.08332 2.2251 3.31665 2.31676 3.49999 2.5001L20.5 19.5001C20.6833 19.6834 20.7793 19.9128 20.788 20.1881C20.796 20.4628 20.7 20.7001 20.5 20.9001C20.3167 21.0834 20.0833 21.1751 19.8 21.1751C19.5167 21.1751 19.2833 21.0834 19.1 20.9001ZM5.54999 7.4001C5.06665 7.83343 4.62499 8.30843 4.22499 8.8251C3.82499 9.34176 3.48332 9.9001 3.19999 10.5001C4.03332 12.1834 5.22899 13.5208 6.78699 14.5121C8.34565 15.5041 10.0833 16.0001 12 16.0001C12.3333 16.0001 12.6583 15.9794 12.975 15.9381C13.2917 15.8961 13.6167 15.8501 13.95 15.8001L13.05 14.8501C12.8667 14.9001 12.6917 14.9374 12.525 14.9621C12.3583 14.9874 12.1833 15.0001 12 15.0001C10.75 15.0001 9.68732 14.5628 8.81199 13.6881C7.93732 12.8128 7.49999 11.7501 7.49999 10.5001C7.49999 10.3168 7.51232 10.1418 7.53699 9.9751C7.56232 9.80843 7.59999 9.63343 7.64999 9.4501L5.54999 7.4001Z" fill="black"/>
</svg>
