<svg width="28" height="28" viewBox="0 0 28 28" fill="none" xmlns="http://www.w3.org/2000/svg">
<path d="M14 7.54834C17.22 7.54834 19.8333 10.1617 19.8333 13.3817C19.8333 13.9767 19.7167 14.5483 19.5533 15.085L23.1233 18.655C24.745 17.22 26.0283 15.4233 26.8333 13.37C24.815 8.26001 19.8333 4.63167 14 4.63167C12.5183 4.63167 11.095 4.86501 9.75332 5.29667L12.285 7.82834C12.8333 7.66501 13.405 7.54834 14 7.54834ZM3.16166 3.65167C2.70666 4.10667 2.70666 4.84167 3.16166 5.29667L5.45999 7.59501C3.56999 9.10001 2.06499 11.0833 1.16666 13.3817C3.18499 18.5033 8.16666 22.1317 14 22.1317C15.7733 22.1317 17.465 21.7817 19.0283 21.175L22.2017 24.3483C22.6567 24.8033 23.3917 24.8033 23.8467 24.3483C24.3017 23.8933 24.3017 23.1583 23.8467 22.7033L4.81832 3.65167C4.36332 3.19667 3.61666 3.19667 3.16166 3.65167ZM14 19.215C10.78 19.215 8.16666 16.6017 8.16666 13.3817C8.16666 12.4833 8.37666 11.6317 8.73832 10.885L10.57 12.7167C10.535 12.9267 10.5 13.1483 10.5 13.3817C10.5 15.3183 12.0633 16.8817 14 16.8817C14.2333 16.8817 14.4433 16.8467 14.665 16.8L16.4967 18.6317C15.7383 19.005 14.8983 19.215 14 19.215ZM17.465 12.9967C17.29 11.3633 16.0067 10.0917 14.385 9.91667L17.465 12.9967Z" fill="black"/>
</svg>
