<svg width="24" height="24" viewBox="0 0 24 24" fill="none" xmlns="http://www.w3.org/2000/svg">
<path d="M12 6.47002C14.76 6.47002 17 8.71002 17 11.47C17 11.98 16.9 12.47 16.76 12.93L19.82 15.99C21.21 14.76 22.31 13.22 23 11.46C21.27 7.08002 17 3.97002 12 3.97002C10.73 3.97002 9.51 4.17002 8.36 4.54002L10.53 6.71002C11 6.57002 11.49 6.47002 12 6.47002ZM2.71 3.13002C2.32 3.52002 2.32 4.15002 2.71 4.54002L4.68 6.51002C3.06 7.80002 1.77 9.50002 1 11.47C2.73 15.86 7 18.97 12 18.97C13.52 18.97 14.97 18.67 16.31 18.15L19.03 20.87C19.42 21.26 20.05 21.26 20.44 20.87C20.83 20.48 20.83 19.85 20.44 19.46L4.13 3.13002C3.74 2.74002 3.1 2.74002 2.71 3.13002ZM12 16.47C9.24 16.47 7 14.23 7 11.47C7 10.7 7.18 9.97002 7.49 9.33002L9.06 10.9C9.03 11.08 9 11.27 9 11.47C9 13.13 10.34 14.47 12 14.47C12.2 14.47 12.38 14.44 12.57 14.4L14.14 15.97C13.49 16.29 12.77 16.47 12 16.47ZM14.97 11.14C14.82 9.74002 13.72 8.65002 12.33 8.50002L14.97 11.14Z" fill="black"/>
</svg>
