<svg width="16" height="16" viewBox="0 0 16 16" fill="none" xmlns="http://www.w3.org/2000/svg">
<path d="M7.99999 10.6665C8.83333 10.6665 9.54177 10.3749 10.1253 9.79184C10.7084 9.20828 11 8.49984 11 7.6665C11 6.83317 10.7084 6.12473 10.1253 5.54117C9.54177 4.95806 8.83333 4.6665 7.99999 4.6665C7.16666 4.6665 6.45821 4.95806 5.87466 5.54117C5.29155 6.12473 4.99999 6.83317 4.99999 7.6665C4.99999 8.49984 5.29155 9.20828 5.87466 9.79184C6.45821 10.3749 7.16666 10.6665 7.99999 10.6665ZM7.99999 9.4665C7.49999 9.4665 7.0751 9.29139 6.72533 8.94117C6.3751 8.59139 6.19999 8.1665 6.19999 7.6665C6.19999 7.1665 6.3751 6.74139 6.72533 6.39117C7.0751 6.04139 7.49999 5.8665 7.99999 5.8665C8.49999 5.8665 8.9251 6.04139 9.27533 6.39117C9.6251 6.74139 9.79999 7.1665 9.79999 7.6665C9.79999 8.1665 9.6251 8.59139 9.27533 8.94117C8.9251 9.29139 8.49999 9.4665 7.99999 9.4665ZM7.99999 12.6665C6.45555 12.6665 5.04444 12.2583 3.76666 11.4418C2.48888 10.6249 1.52221 9.52206 0.866659 8.13317C0.833325 8.07762 0.811103 8.00806 0.799992 7.9245C0.788881 7.84139 0.783325 7.75539 0.783325 7.6665C0.783325 7.57762 0.788881 7.49139 0.799992 7.40784C0.811103 7.32473 0.833325 7.25539 0.866659 7.19984C1.52221 5.81095 2.48888 4.70828 3.76666 3.89184C5.04444 3.07495 6.45555 2.6665 7.99999 2.6665C9.54444 2.6665 10.9555 3.07495 12.2333 3.89184C13.5111 4.70828 14.4778 5.81095 15.1333 7.19984C15.1667 7.25539 15.1889 7.32473 15.2 7.40784C15.2111 7.49139 15.2167 7.57762 15.2167 7.6665C15.2167 7.75539 15.2111 7.84139 15.2 7.9245C15.1889 8.00806 15.1667 8.07762 15.1333 8.13317C14.4778 9.52206 13.5111 10.6249 12.2333 11.4418C10.9555 12.2583 9.54444 12.6665 7.99999 12.6665ZM7.99999 11.3332C9.25555 11.3332 10.4084 11.0025 11.4587 10.3412C12.5084 9.68028 13.3111 8.78873 13.8667 7.6665C13.3111 6.54428 12.5084 5.6525 11.4587 4.99117C10.4084 4.33028 9.25555 3.99984 7.99999 3.99984C6.74444 3.99984 5.59155 4.33028 4.54133 4.99117C3.49155 5.6525 2.68888 6.54428 2.13333 7.6665C2.68888 8.78873 3.49155 9.68028 4.54133 10.3412C5.59155 11.0025 6.74444 11.3332 7.99999 11.3332Z" fill="black"/>
</svg>
