<svg width="16" height="16" viewBox="0 0 16 16" fill="none" xmlns="http://www.w3.org/2000/svg">
  <path d="M8 3C4.66666 3 1.82 5.07333 0.666664 8C1.82 10.9267 4.66666 13 8 13C11.3333 13 14.18 10.9267 15.3333 8C14.18 5.07333 11.3333 3 8 3ZM8 11.3333C6.16 11.3333 4.66666 9.84 4.66666 8C4.66666 6.16 6.16 4.66667 8 4.66667C9.84 4.66667 11.3333 6.16 11.3333 8C11.3333 9.84 9.84 11.3333 8 11.3333ZM8 6C6.89333 6 6 6.89333 6 8C6 9.10667 6.89333 10 8 10C9.10666 10 10 9.10667 10 8C10 6.89333 9.10666 6 8 6Z" fill="black"/>
</svg>
