<svg width="24" height="24" viewBox="0 0 24 24" fill="none" xmlns="http://www.w3.org/2000/svg">
<path d="M12 17C13.25 17 14.3127 16.5627 15.188 15.688C16.0627 14.8127 16.5 13.75 16.5 12.5C16.5 11.25 16.0627 10.1873 15.188 9.312C14.3127 8.43733 13.25 8 12 8C10.75 8 9.68732 8.43733 8.81199 9.312C7.93732 10.1873 7.49999 11.25 7.49999 12.5C7.49999 13.75 7.93732 14.8127 8.81199 15.688C9.68732 16.5627 10.75 17 12 17ZM12 15.2C11.25 15.2 10.6127 14.9373 10.088 14.412C9.56265 13.8873 9.29999 13.25 9.29999 12.5C9.29999 11.75 9.56265 11.1123 10.088 10.587C10.6127 10.0623 11.25 9.8 12 9.8C12.75 9.8 13.3877 10.0623 13.913 10.587C14.4377 11.1123 14.7 11.75 14.7 12.5C14.7 13.25 14.4377 13.8873 13.913 14.412C13.3877 14.9373 12.75 15.2 12 15.2ZM12 20C9.68332 20 7.56665 19.3877 5.64999 18.163C3.73332 16.9377 2.28332 15.2833 1.29999 13.2C1.24999 13.1167 1.21665 13.0123 1.19999 12.887C1.18332 12.7623 1.17499 12.6333 1.17499 12.5C1.17499 12.3667 1.18332 12.2373 1.19999 12.112C1.21665 11.9873 1.24999 11.8833 1.29999 11.8C2.28332 9.71667 3.73332 8.06267 5.64999 6.838C7.56665 5.61267 9.68332 5 12 5C14.3167 5 16.4333 5.61267 18.35 6.838C20.2667 8.06267 21.7167 9.71667 22.7 11.8C22.75 11.8833 22.7833 11.9873 22.8 12.112C22.8167 12.2373 22.825 12.3667 22.825 12.5C22.825 12.6333 22.8167 12.7623 22.8 12.887C22.7833 13.0123 22.75 13.1167 22.7 13.2C21.7167 15.2833 20.2667 16.9377 18.35 18.163C16.4333 19.3877 14.3167 20 12 20ZM12 18C13.8833 18 15.6127 17.504 17.188 16.512C18.7627 15.5207 19.9667 14.1833 20.8 12.5C19.9667 10.8167 18.7627 9.479 17.188 8.487C15.6127 7.49567 13.8833 7 12 7C10.1167 7 8.38732 7.49567 6.81199 8.487C5.23732 9.479 4.03332 10.8167 3.19999 12.5C4.03332 14.1833 5.23732 15.5207 6.81199 16.512C8.38732 17.504 10.1167 18 12 18Z" fill="black"/>
</svg>
