<svg width="28" height="28" viewBox="0 0 28 28" fill="none" xmlns="http://www.w3.org/2000/svg">
<path d="M18.7833 14.5166L17.0917 12.825C17.2667 11.9111 17.0042 11.0555 16.3042 10.2583C15.6042 9.46106 14.7 9.14995 13.5917 9.32495L11.9 7.63328C12.2306 7.47773 12.5658 7.36106 12.9057 7.28328C13.2463 7.20551 13.6111 7.16662 14 7.16662C15.4583 7.16662 16.6981 7.67684 17.7193 8.69728C18.7398 9.71851 19.25 10.9583 19.25 12.4166C19.25 12.8055 19.2111 13.1703 19.1333 13.511C19.0556 13.8508 18.9389 14.1861 18.7833 14.5166ZM22.5167 18.1916L20.825 16.5583C21.5639 15.9944 22.2203 15.3768 22.7943 14.7056C23.3676 14.0352 23.8583 13.2722 24.2667 12.4166C23.2945 10.4527 21.8991 8.89212 20.0807 7.73478C18.263 6.57823 16.2361 5.99995 14 5.99995C13.4361 5.99995 12.882 6.03884 12.3375 6.11662C11.7931 6.1944 11.2583 6.31106 10.7333 6.46662L8.92502 4.65828C9.72224 4.32773 10.5389 4.07962 11.375 3.91395C12.2111 3.74906 13.0861 3.66662 14 3.66662C16.7806 3.66662 19.2792 4.40045 21.4958 5.86812C23.7125 7.33656 25.375 9.24717 26.4834 11.6C26.5417 11.6972 26.5806 11.8185 26.6 11.964C26.6195 12.1102 26.6292 12.2611 26.6292 12.4166C26.6292 12.5722 26.6148 12.7227 26.586 12.8681C26.5565 13.0143 26.5222 13.1361 26.4834 13.2333C26.0361 14.225 25.4773 15.1388 24.8069 15.975C24.1356 16.8111 23.3722 17.55 22.5167 18.1916ZM22.2834 24.5499L18.2 20.525C17.5195 20.7388 16.8342 20.8995 16.1443 21.0068C15.4537 21.1133 14.7389 21.1666 14 21.1666C11.2195 21.1666 8.72085 20.4328 6.50418 18.9651C4.28752 17.4967 2.62502 15.5861 1.51668 13.2333C1.45835 13.1361 1.41946 13.0143 1.40002 12.8681C1.38057 12.7227 1.37085 12.5722 1.37085 12.4166C1.37085 12.2611 1.38057 12.1152 1.40002 11.9791C1.41946 11.843 1.45835 11.7263 1.51668 11.6291C1.92502 10.7541 2.41113 9.94717 2.97502 9.20828C3.53891 8.4694 4.16113 7.78884 4.84168 7.16662L2.42085 4.71662C2.20696 4.50273 2.10002 4.23517 2.10002 3.91395C2.10002 3.59351 2.21668 3.31662 2.45002 3.08328C2.66391 2.8694 2.93613 2.76245 3.26668 2.76245C3.59724 2.76245 3.86946 2.8694 4.08335 3.08328L23.9167 22.9166C24.1306 23.1305 24.2426 23.3981 24.2527 23.7193C24.262 24.0397 24.15 24.3166 23.9167 24.5499C23.7028 24.7638 23.4306 24.8708 23.1 24.8708C22.7695 24.8708 22.4972 24.7638 22.2834 24.5499ZM6.47502 8.79995C5.91113 9.30551 5.39585 9.85967 4.92918 10.4625C4.46252 11.0652 4.06391 11.7166 3.73335 12.4166C4.70557 14.3805 6.10052 15.9407 7.91818 17.0973C9.73663 18.2546 11.7639 18.8333 14 18.8333C14.3889 18.8333 14.7681 18.8092 15.1375 18.7609C15.507 18.7119 15.8861 18.6583 16.275 18.5999L15.225 17.4916C15.0111 17.55 14.807 17.5935 14.6125 17.6223C14.4181 17.6518 14.2139 17.6666 14 17.6666C12.5417 17.6666 11.3019 17.1564 10.2807 16.1359C9.26024 15.1147 8.75002 13.875 8.75002 12.4166C8.75002 12.2027 8.76441 11.9986 8.79318 11.8041C8.82274 11.6097 8.86668 11.4055 8.92502 11.1916L6.47502 8.79995Z" fill="black"/>
</svg>
