<svg width="28" height="28" viewBox="0 0 28 28" fill="none" xmlns="http://www.w3.org/2000/svg">
  <path d="M14 5.25C8.16666 5.25 3.185 8.87833 1.16666 14C3.185 19.1217 8.16666 22.75 14 22.75C19.8333 22.75 24.815 19.1217 26.8333 14C24.815 8.87833 19.8333 5.25 14 5.25ZM14 19.8333C10.78 19.8333 8.16666 17.22 8.16666 14C8.16666 10.78 10.78 8.16667 14 8.16667C17.22 8.16667 19.8333 10.78 19.8333 14C19.8333 17.22 17.22 19.8333 14 19.8333ZM14 10.5C12.0633 10.5 10.5 12.0633 10.5 14C10.5 15.9367 12.0633 17.5 14 17.5C15.9367 17.5 17.5 15.9367 17.5 14C17.5 12.0633 15.9367 10.5 14 10.5Z" fill="black"/>
</svg>
