<svg width="28" height="28" viewBox="0 0 28 28" fill="none" xmlns="http://www.w3.org/2000/svg">
<path d="M14 19.6665C15.4583 19.6665 16.6981 19.1563 17.7193 18.1358C18.7398 17.1146 19.25 15.8748 19.25 14.4165C19.25 12.9582 18.7398 11.7184 17.7193 10.6972C16.6981 9.67673 15.4583 9.1665 14 9.1665C12.5417 9.1665 11.3019 9.67673 10.2807 10.6972C9.26024 11.7184 8.75002 12.9582 8.75002 14.4165C8.75002 15.8748 9.26024 17.1146 10.2807 18.1358C11.3019 19.1563 12.5417 19.6665 14 19.6665ZM14 17.5665C13.125 17.5665 12.3815 17.2601 11.7693 16.6472C11.1565 16.0351 10.85 15.2915 10.85 14.4165C10.85 13.5415 11.1565 12.7976 11.7693 12.1847C12.3815 11.5726 13.125 11.2665 14 11.2665C14.875 11.2665 15.619 11.5726 16.2318 12.1847C16.844 12.7976 17.15 13.5415 17.15 14.4165C17.15 15.2915 16.844 16.0351 16.2318 16.6472C15.619 17.2601 14.875 17.5665 14 17.5665ZM14 23.1665C11.2972 23.1665 8.82779 22.4521 6.59168 21.0233C4.35557 19.5938 2.66391 17.6637 1.51668 15.2332C1.45835 15.1359 1.41946 15.0142 1.40002 14.868C1.38057 14.7226 1.37085 14.5721 1.37085 14.4165C1.37085 14.2609 1.38057 14.1101 1.40002 13.9638C1.41946 13.8184 1.45835 13.6971 1.51668 13.5998C2.66391 11.1693 4.35557 9.23961 6.59168 7.81084C8.82779 6.38128 11.2972 5.6665 14 5.6665C16.7028 5.6665 19.1722 6.38128 21.4084 7.81084C23.6445 9.23961 25.3361 11.1693 26.4834 13.5998C26.5417 13.6971 26.5806 13.8184 26.6 13.9638C26.6195 14.1101 26.6292 14.2609 26.6292 14.4165C26.6292 14.5721 26.6195 14.7226 26.6 14.868C26.5806 15.0142 26.5417 15.1359 26.4834 15.2332C25.3361 17.6637 23.6445 19.5938 21.4084 21.0233C19.1722 22.4521 16.7028 23.1665 14 23.1665ZM14 20.8332C16.1972 20.8332 18.2148 20.2545 20.0527 19.0972C21.8898 17.9406 23.2945 16.3804 24.2667 14.4165C23.2945 12.4526 21.8898 10.892 20.0527 9.73467C18.2148 8.57811 16.1972 7.99984 14 7.99984C11.8028 7.99984 9.78524 8.57811 7.94735 9.73467C6.11024 10.892 4.70557 12.4526 3.73335 14.4165C4.70557 16.3804 6.11024 17.9406 7.94735 19.0972C9.78524 20.2545 11.8028 20.8332 14 20.8332Z" fill="black"/>
</svg>
