<svg width="28" height="28" viewBox="0 0 28 28" fill="none" xmlns="http://www.w3.org/2000/svg">
<path d="M22.3125 17.6459C22.0986 17.432 21.9868 17.1598 21.9771 16.8293C21.9673 16.4987 22.0694 16.1973 22.2833 15.9251C22.8861 15.1862 23.3576 14.355 23.6979 13.4313C24.0382 12.5077 24.2083 11.5307 24.2083 10.5001C24.2083 9.48899 24.0382 8.52649 23.6979 7.6126C23.3576 6.69871 22.8861 5.87232 22.2833 5.13343C22.0694 4.86121 21.9625 4.55982 21.9625 4.22926C21.9625 3.89871 22.0792 3.61676 22.3125 3.38343C22.5847 3.11121 22.9104 2.9751 23.2896 2.9751C23.6687 2.9751 23.975 3.11121 24.2083 3.38343C25.025 4.3751 25.6667 5.47371 26.1333 6.67926C26.6 7.88482 26.8333 9.15843 26.8333 10.5001C26.8333 11.8418 26.6 13.1154 26.1333 14.3209C25.6667 15.5265 25.025 16.6251 24.2083 17.6168C23.975 17.889 23.6687 18.03 23.2896 18.0397C22.9104 18.0494 22.5847 17.9182 22.3125 17.6459ZM18.55 13.8834C18.3361 13.6695 18.2146 13.3925 18.1854 13.0522C18.1562 12.7119 18.2389 12.3765 18.4333 12.0459C18.5694 11.8126 18.6715 11.5647 18.7396 11.3022C18.8076 11.0397 18.8417 10.7723 18.8417 10.5001C18.8417 10.2279 18.8076 9.96052 18.7396 9.69802C18.6715 9.43552 18.5694 9.1876 18.4333 8.95426C18.2389 8.62371 18.1562 8.28829 18.1854 7.94801C18.2146 7.60774 18.3361 7.33065 18.55 7.11676C18.8222 6.84454 19.1528 6.71329 19.5417 6.72301C19.9305 6.73274 20.2319 6.88343 20.4458 7.1751C20.7764 7.66121 21.0389 8.18135 21.2333 8.73551C21.4278 9.28968 21.525 9.87788 21.525 10.5001C21.525 11.1223 21.4278 11.7105 21.2333 12.2647C21.0389 12.8188 20.7764 13.339 20.4458 13.8251C20.2319 14.1168 19.9305 14.2675 19.5417 14.2772C19.1528 14.2869 18.8222 14.1557 18.55 13.8834ZM10.5 15.1668C9.21666 15.1668 8.11805 14.7098 7.20416 13.7959C6.29027 12.882 5.83332 11.7834 5.83332 10.5001C5.83332 9.21677 6.29027 8.11815 7.20416 7.20426C8.11805 6.29038 9.21666 5.83343 10.5 5.83343C11.7833 5.83343 12.8819 6.29038 13.7958 7.20426C14.7097 8.11815 15.1667 9.21677 15.1667 10.5001C15.1667 11.7834 14.7097 12.882 13.7958 13.7959C12.8819 14.7098 11.7833 15.1668 10.5 15.1668ZM2.33332 24.5001C2.00277 24.5001 1.72568 24.3883 1.50207 24.1647C1.27846 23.9411 1.16666 23.664 1.16666 23.3334V21.2334C1.16666 20.5918 1.33193 19.989 1.66249 19.4251C1.99305 18.8612 2.44999 18.4334 3.03332 18.1418C4.02499 17.6362 5.14305 17.2084 6.38749 16.8584C7.63193 16.5084 9.00277 16.3334 10.5 16.3334C11.9972 16.3334 13.368 16.5084 14.6125 16.8584C15.8569 17.2084 16.975 17.6362 17.9667 18.1418C18.55 18.4334 19.0069 18.8612 19.3375 19.4251C19.668 19.989 19.8333 20.5918 19.8333 21.2334V23.3334C19.8333 23.664 19.7215 23.9411 19.4979 24.1647C19.2743 24.3883 18.9972 24.5001 18.6667 24.5001H2.33332ZM3.49999 22.1668H17.5V21.2334C17.5 21.0195 17.4465 20.8251 17.3396 20.6501C17.2326 20.4751 17.0917 20.339 16.9167 20.2418C16.2167 19.8918 15.3174 19.5418 14.2187 19.1918C13.1201 18.8418 11.8805 18.6668 10.5 18.6668C9.11943 18.6668 7.87985 18.8418 6.78124 19.1918C5.68263 19.5418 4.78332 19.8918 4.08332 20.2418C3.90832 20.339 3.76735 20.4751 3.66041 20.6501C3.55346 20.8251 3.49999 21.0195 3.49999 21.2334V22.1668ZM10.5 12.8334C11.1417 12.8334 11.691 12.605 12.1479 12.148C12.6049 11.6911 12.8333 11.1418 12.8333 10.5001C12.8333 9.85843 12.6049 9.30913 12.1479 8.85218C11.691 8.39524 11.1417 8.16677 10.5 8.16677C9.85832 8.16677 9.30902 8.39524 8.85207 8.85218C8.39513 9.30913 8.16666 9.85843 8.16666 10.5001C8.16666 11.1418 8.39513 11.6911 8.85207 12.148C9.30902 12.605 9.85832 12.8334 10.5 12.8334Z" fill="black"/>
</svg>
