<svg width="16" height="16" viewBox="0 0 16 16" fill="none" xmlns="http://www.w3.org/2000/svg">
<path d="M12.75 10.0833C12.6278 9.96106 12.5639 9.80551 12.5584 9.61662C12.5528 9.42773 12.6111 9.25551 12.7334 9.09995C13.0778 8.67773 13.3472 8.20273 13.5417 7.67495C13.7361 7.14717 13.8334 6.58884 13.8334 5.99995C13.8334 5.42217 13.7361 4.87217 13.5417 4.34995C13.3472 3.82773 13.0778 3.35551 12.7334 2.93328C12.6111 2.77773 12.55 2.60551 12.55 2.41662C12.55 2.22773 12.6167 2.06662 12.75 1.93328C12.9056 1.77773 13.0917 1.69995 13.3084 1.69995C13.525 1.69995 13.7 1.77773 13.8334 1.93328C14.3 2.49995 14.6667 3.12773 14.9334 3.81662C15.2 4.50551 15.3334 5.23328 15.3334 5.99995C15.3334 6.76662 15.2 7.4944 14.9334 8.18328C14.6667 8.87217 14.3 9.49995 13.8334 10.0666C13.7 10.2222 13.525 10.3027 13.3084 10.3083C13.0917 10.3138 12.9056 10.2388 12.75 10.0833ZM10.6 7.93328C10.4778 7.81106 10.4084 7.65273 10.3917 7.45828C10.375 7.26384 10.4222 7.07217 10.5334 6.88328C10.6111 6.74995 10.6695 6.60828 10.7084 6.45828C10.7472 6.30828 10.7667 6.15551 10.7667 5.99995C10.7667 5.8444 10.7472 5.69162 10.7084 5.54162C10.6695 5.39162 10.6111 5.24995 10.5334 5.11662C10.4222 4.92773 10.375 4.73606 10.3917 4.54162C10.4084 4.34717 10.4778 4.18884 10.6 4.06662C10.7556 3.91106 10.9445 3.83606 11.1667 3.84162C11.3889 3.84717 11.5611 3.93328 11.6834 4.09995C11.8722 4.37773 12.0222 4.67495 12.1334 4.99162C12.2445 5.30828 12.3 5.6444 12.3 5.99995C12.3 6.35551 12.2445 6.69162 12.1334 7.00828C12.0222 7.32495 11.8722 7.62217 11.6834 7.89995C11.5611 8.06662 11.3889 8.15273 11.1667 8.15828C10.9445 8.16384 10.7556 8.08884 10.6 7.93328ZM6.00002 8.66662C5.26669 8.66662 4.63891 8.40551 4.11669 7.88328C3.59446 7.36106 3.33335 6.73328 3.33335 5.99995C3.33335 5.26662 3.59446 4.63884 4.11669 4.11662C4.63891 3.5944 5.26669 3.33328 6.00002 3.33328C6.73335 3.33328 7.36113 3.5944 7.88335 4.11662C8.40558 4.63884 8.66669 5.26662 8.66669 5.99995C8.66669 6.73328 8.40558 7.36106 7.88335 7.88328C7.36113 8.40551 6.73335 8.66662 6.00002 8.66662ZM1.33335 14C1.14446 14 0.986131 13.9361 0.858354 13.8083C0.730576 13.6805 0.666687 13.5222 0.666687 13.3333V12.1333C0.666687 11.7666 0.761131 11.4222 0.95002 11.1C1.13891 10.7777 1.40002 10.5333 1.73335 10.3666C2.30002 10.0777 2.93891 9.83328 3.65002 9.63328C4.36113 9.43328 5.14446 9.33328 6.00002 9.33328C6.85558 9.33328 7.63891 9.43328 8.35002 9.63328C9.06113 9.83328 9.70002 10.0777 10.2667 10.3666C10.6 10.5333 10.8611 10.7777 11.05 11.1C11.2389 11.4222 11.3334 11.7666 11.3334 12.1333V13.3333C11.3334 13.5222 11.2695 13.6805 11.1417 13.8083C11.0139 13.9361 10.8556 14 10.6667 14H1.33335ZM2.00002 12.6666H10V12.1333C10 12.0111 9.96947 11.9 9.90835 11.8C9.84724 11.7 9.76669 11.6222 9.66669 11.5666C9.26669 11.3666 8.7528 11.1666 8.12502 10.9666C7.49724 10.7666 6.78891 10.6666 6.00002 10.6666C5.21113 10.6666 4.5028 10.7666 3.87502 10.9666C3.24724 11.1666 2.73335 11.3666 2.33335 11.5666C2.23335 11.6222 2.1528 11.7 2.09169 11.8C2.03058 11.9 2.00002 12.0111 2.00002 12.1333V12.6666ZM6.00002 7.33328C6.36669 7.33328 6.68058 7.20273 6.94169 6.94162C7.2028 6.68051 7.33335 6.36662 7.33335 5.99995C7.33335 5.63328 7.2028 5.3194 6.94169 5.05828C6.68058 4.79717 6.36669 4.66662 6.00002 4.66662C5.63335 4.66662 5.31947 4.79717 5.05835 5.05828C4.79724 5.3194 4.66669 5.63328 4.66669 5.99995C4.66669 6.36662 4.79724 6.68051 5.05835 6.94162C5.31947 7.20273 5.63335 7.33328 6.00002 7.33328Z" fill="black"/>
</svg>
