<svg width="24" height="24" viewBox="0 0 24 24" fill="none" xmlns="http://www.w3.org/2000/svg">
<path d="M19.125 15.125C18.9417 14.9417 18.8458 14.7084 18.8375 14.425C18.8292 14.1417 18.9167 13.8834 19.1 13.65C19.6167 13.0167 20.0208 12.3042 20.3125 11.5125C20.6042 10.7209 20.75 9.88338 20.75 9.00005C20.75 8.13338 20.6042 7.30838 20.3125 6.52505C20.0208 5.74172 19.6167 5.03338 19.1 4.40005C18.9167 4.16672 18.825 3.90838 18.825 3.62505C18.825 3.34172 18.925 3.10005 19.125 2.90005C19.3583 2.66672 19.6375 2.55005 19.9625 2.55005C20.2875 2.55005 20.55 2.66672 20.75 2.90005C21.45 3.75005 22 4.69172 22.4 5.72505C22.8 6.75838 23 7.85005 23 9.00005C23 10.15 22.8 11.2417 22.4 12.275C22 13.3084 21.45 14.25 20.75 15.1C20.55 15.3334 20.2875 15.4542 19.9625 15.4625C19.6375 15.4709 19.3583 15.3584 19.125 15.125ZM15.9 11.9C15.7167 11.7167 15.6125 11.4792 15.5875 11.1875C15.5625 10.8959 15.6333 10.6084 15.8 10.325C15.9167 10.125 16.0042 9.91255 16.0625 9.68755C16.1208 9.46255 16.15 9.23338 16.15 9.00005C16.15 8.76672 16.1208 8.53755 16.0625 8.31255C16.0042 8.08755 15.9167 7.87505 15.8 7.67505C15.6333 7.39172 15.5625 7.10422 15.5875 6.81255C15.6125 6.52088 15.7167 6.28338 15.9 6.10005C16.1333 5.86672 16.4167 5.75422 16.75 5.76255C17.0833 5.77088 17.3417 5.90005 17.525 6.15005C17.8083 6.56672 18.0333 7.01255 18.2 7.48755C18.3667 7.96255 18.45 8.46672 18.45 9.00005C18.45 9.53338 18.3667 10.0375 18.2 10.5125C18.0333 10.9875 17.8083 11.4334 17.525 11.85C17.3417 12.1 17.0833 12.2292 16.75 12.2375C16.4167 12.2459 16.1333 12.1334 15.9 11.9ZM9 13C7.9 13 6.95833 12.6084 6.175 11.825C5.39167 11.0417 5 10.1 5 9.00005C5 7.90005 5.39167 6.95838 6.175 6.17505C6.95833 5.39172 7.9 5.00005 9 5.00005C10.1 5.00005 11.0417 5.39172 11.825 6.17505C12.6083 6.95838 13 7.90005 13 9.00005C13 10.1 12.6083 11.0417 11.825 11.825C11.0417 12.6084 10.1 13 9 13ZM2 21C1.71667 21 1.47917 20.9042 1.2875 20.7125C1.09583 20.5209 1 20.2834 1 20V18.2C1 17.65 1.14167 17.1334 1.425 16.65C1.70833 16.1667 2.1 15.8 2.6 15.55C3.45 15.1167 4.40833 14.75 5.475 14.45C6.54167 14.15 7.71667 14 9 14C10.2833 14 11.4583 14.15 12.525 14.45C13.5917 14.75 14.55 15.1167 15.4 15.55C15.9 15.8 16.2917 16.1667 16.575 16.65C16.8583 17.1334 17 17.65 17 18.2V20C17 20.2834 16.9042 20.5209 16.7125 20.7125C16.5208 20.9042 16.2833 21 16 21H2ZM3 19H15V18.2C15 18.0167 14.9542 17.85 14.8625 17.7C14.7708 17.55 14.65 17.4334 14.5 17.35C13.9 17.05 13.1292 16.75 12.1875 16.45C11.2458 16.15 10.1833 16 9 16C7.81667 16 6.75417 16.15 5.8125 16.45C4.87083 16.75 4.1 17.05 3.5 17.35C3.35 17.4334 3.22917 17.55 3.1375 17.7C3.04583 17.85 3 18.0167 3 18.2V19ZM9 11C9.55 11 10.0208 10.8042 10.4125 10.4125C10.8042 10.0209 11 9.55005 11 9.00005C11 8.45005 10.8042 7.97922 10.4125 7.58755C10.0208 7.19588 9.55 7.00005 9 7.00005C8.45 7.00005 7.97917 7.19588 7.5875 7.58755C7.19583 7.97922 7 8.45005 7 9.00005C7 9.55005 7.19583 10.0209 7.5875 10.4125C7.97917 10.8042 8.45 11 9 11Z" fill="black"/>
</svg>
