<svg width="28" height="28" viewBox="0 0 28 28" fill="none" xmlns="http://www.w3.org/2000/svg">
<path d="M22.1667 13.9708C22.1667 12.3569 21.7389 10.8839 20.8833 9.552C20.0278 8.22006 18.8806 7.22353 17.4417 6.56242C17.15 6.42631 16.9361 6.21728 16.8 5.93534C16.6639 5.65339 16.6444 5.36659 16.7417 5.07492C16.8583 4.76381 17.0674 4.5402 17.3688 4.40409C17.6701 4.26797 17.9764 4.26797 18.2875 4.40409C20.1736 5.2402 21.6806 6.51867 22.8083 8.2395C23.9361 9.96034 24.5 11.8708 24.5 13.9708C24.5 16.0708 23.9361 17.9812 22.8083 19.702C21.6806 21.4228 20.1736 22.7013 18.2875 23.5374C17.9764 23.6735 17.6701 23.6735 17.3688 23.5374C17.0674 23.4013 16.8583 23.1777 16.7417 22.8666C16.6444 22.5749 16.6639 22.2881 16.8 22.0062C16.9361 21.7242 17.15 21.5152 17.4417 21.3791C18.8806 20.718 20.0278 19.7214 20.8833 18.3895C21.7389 17.0576 22.1667 15.5846 22.1667 13.9708ZM8.16667 17.4999H4.66667C4.33611 17.4999 4.05903 17.3881 3.83542 17.1645C3.61181 16.9409 3.5 16.6638 3.5 16.3333V11.6666C3.5 11.336 3.61181 11.0589 3.83542 10.8353C4.05903 10.6117 4.33611 10.4999 4.66667 10.4999H8.16667L12.0167 6.64992C12.3861 6.28047 12.809 6.19784 13.2854 6.402C13.7618 6.60617 14 6.97075 14 7.49575V20.5041C14 21.0291 13.7618 21.3937 13.2854 21.5978C12.809 21.802 12.3861 21.7194 12.0167 21.3499L8.16667 17.4999ZM19.25 13.9999C19.25 14.8166 19.0653 15.5895 18.6958 16.3187C18.3264 17.0478 17.8403 17.6458 17.2375 18.1124C17.0431 18.2291 16.8438 18.2339 16.6396 18.127C16.4354 18.0201 16.3333 17.8499 16.3333 17.6166V10.3249C16.3333 10.0916 16.4354 9.92145 16.6396 9.8145C16.8438 9.70756 17.0431 9.71242 17.2375 9.82909C17.8403 10.3152 18.3264 10.9277 18.6958 11.6666C19.0653 12.4055 19.25 13.1833 19.25 13.9999ZM11.6667 10.3249L9.15833 12.8333H5.83333V15.1666H9.15833L11.6667 17.6749V10.3249Z" fill="#191919"/>
</svg>
