<svg width="16" height="16" viewBox="0 0 16 16" fill="none" xmlns="http://www.w3.org/2000/svg">
<path d="M1.81666 14C1.5611 14 1.37221 13.8889 1.24999 13.6667C1.12777 13.4444 1.12777 13.2222 1.24999 13L7.41666 2.33333C7.53888 2.11111 7.73333 2 7.99999 2C8.26666 2 8.4611 2.11111 8.58333 2.33333L14.75 13C14.8722 13.2222 14.8722 13.4444 14.75 13.6667C14.6278 13.8889 14.4389 14 14.1833 14H1.81666ZM7.99999 6.66667C7.8111 6.66667 7.65288 6.73044 7.52533 6.858C7.39733 6.986 7.33333 7.14444 7.33333 7.33333V9.33333C7.33333 9.52222 7.39733 9.68044 7.52533 9.808C7.65288 9.936 7.8111 10 7.99999 10C8.18888 10 8.34733 9.936 8.47533 9.808C8.60288 9.68044 8.66666 9.52222 8.66666 9.33333V7.33333C8.66666 7.14444 8.60288 6.986 8.47533 6.858C8.34733 6.73044 8.18888 6.66667 7.99999 6.66667ZM7.99999 12C8.18888 12 8.34733 11.936 8.47533 11.808C8.60288 11.6804 8.66666 11.5222 8.66666 11.3333C8.66666 11.1444 8.60288 10.9862 8.47533 10.8587C8.34733 10.7307 8.18888 10.6667 7.99999 10.6667C7.8111 10.6667 7.65288 10.7307 7.52533 10.8587C7.39733 10.9862 7.33333 11.1444 7.33333 11.3333C7.33333 11.5222 7.39733 11.6804 7.52533 11.808C7.65288 11.936 7.8111 12 7.99999 12ZM2.96666 12.6667H13.0333L7.99999 4L2.96666 12.6667Z" fill="black"/>
</svg>
