<svg width="28" height="28" viewBox="0 0 28 28" fill="none" xmlns="http://www.w3.org/2000/svg">
<path d="M3.17918 24.5C2.73196 24.5 2.40141 24.3056 2.18752 23.9167C1.97363 23.5278 1.97363 23.1389 2.18752 22.75L12.9792 4.08333C13.1931 3.69444 13.5333 3.5 14 3.5C14.4667 3.5 14.807 3.69444 15.0208 4.08333L25.8125 22.75C26.0264 23.1389 26.0264 23.5278 25.8125 23.9167C25.5986 24.3056 25.2681 24.5 24.8208 24.5H3.17918ZM14 11.6667C13.6695 11.6667 13.3926 11.7783 13.1693 12.0015C12.9453 12.2255 12.8333 12.5028 12.8333 12.8333V16.3333C12.8333 16.6639 12.9453 16.9408 13.1693 17.164C13.3926 17.388 13.6695 17.5 14 17.5C14.3306 17.5 14.6078 17.388 14.8318 17.164C15.0551 16.9408 15.1667 16.6639 15.1667 16.3333V12.8333C15.1667 12.5028 15.0551 12.2255 14.8318 12.0015C14.6078 11.7783 14.3306 11.6667 14 11.6667ZM14 21C14.3306 21 14.6078 20.888 14.8318 20.664C15.0551 20.4408 15.1667 20.1639 15.1667 19.8333C15.1667 19.5028 15.0551 19.2259 14.8318 19.0027C14.6078 18.7787 14.3306 18.6667 14 18.6667C13.6695 18.6667 13.3926 18.7787 13.1693 19.0027C12.9453 19.2259 12.8333 19.5028 12.8333 19.8333C12.8333 20.1639 12.9453 20.4408 13.1693 20.664C13.3926 20.888 13.6695 21 14 21ZM5.19168 22.1667H22.8083L14 7L5.19168 22.1667Z" fill="black"/>
</svg>
