<svg width="28" height="28" viewBox="0 0 28 28" fill="none" xmlns="http://www.w3.org/2000/svg">
  <path d="M14 2.33333C7.56 2.33333 2.33333 7.56 2.33333 14C2.33333 20.44 7.56 25.6667 14 25.6667C20.44 25.6667 25.6667 20.44 25.6667 14C25.6667 7.56 20.44 2.33333 14 2.33333ZM14 15.1667C13.3583 15.1667 12.8333 14.6417 12.8333 14V9.33333C12.8333 8.69167 13.3583 8.16667 14 8.16667C14.6417 8.16667 15.1667 8.69167 15.1667 9.33333V14C15.1667 14.6417 14.6417 15.1667 14 15.1667ZM15.1667 19.8333H12.8333V17.5H15.1667V19.8333Z" fill="black"/>
</svg>
