<svg width="16" height="16" viewBox="0 0 16 16" fill="none" xmlns="http://www.w3.org/2000/svg">
  <path d="M8 1.33333C4.32 1.33333 1.33334 4.32 1.33334 8C1.33334 11.68 4.32 14.6667 8 14.6667C11.68 14.6667 14.6667 11.68 14.6667 8C14.6667 4.32 11.68 1.33333 8 1.33333ZM8 8.66667C7.63334 8.66667 7.33334 8.36667 7.33334 8V5.33333C7.33334 4.96667 7.63334 4.66667 8 4.66667C8.36667 4.66667 8.66667 4.96667 8.66667 5.33333V8C8.66667 8.36667 8.36667 8.66667 8 8.66667ZM8.66667 11.3333H7.33334V10H8.66667V11.3333Z" fill="black"/>
</svg>
