<svg width="24" height="24" viewBox="0 0 24 24" fill="none" xmlns="http://www.w3.org/2000/svg">
<g clip-path="url(#clip0_2370_215)">
<path d="M17 23.0246C16.7167 23.0246 16.4792 22.9246 16.2875 22.7246C16.0958 22.5246 16 22.2829 16 21.9996C16 21.7163 16.0958 21.4788 16.2875 21.2871C16.4792 21.0954 16.7167 20.9996 17 20.9996C18.1 20.9996 19.0417 20.6079 19.825 19.8246C20.6083 19.0413 21 18.0996 21 16.9996C21 16.7163 21.1 16.4746 21.3 16.2746C21.5 16.0746 21.7417 15.9746 22.025 15.9746C22.3083 15.9746 22.5458 16.0746 22.7375 16.2746C22.9292 16.4746 23.025 16.7163 23.025 16.9996C23.025 18.6663 22.4375 20.0871 21.2625 21.2621C20.0875 22.4371 18.6667 23.0246 17 23.0246ZM2 7.99961C1.71667 7.99961 1.475 7.90378 1.275 7.71211C1.075 7.52044 0.974998 7.28294 0.974998 6.99961C0.974998 5.33294 1.5625 3.91211 2.7375 2.73711C3.9125 1.56211 5.33333 0.974609 7 0.974609C7.28333 0.974609 7.525 1.07044 7.725 1.26211C7.925 1.45378 8.025 1.69128 8.025 1.97461C8.025 2.25794 7.925 2.49961 7.725 2.69961C7.525 2.89961 7.28333 2.99961 7 2.99961C5.9 2.99961 4.95833 3.39128 4.175 4.17461C3.39167 4.95794 3 5.89961 3 6.99961C3 7.28294 2.90417 7.52044 2.7125 7.71211C2.52083 7.90378 2.28333 7.99961 2 7.99961ZM19.525 5.12461C19.525 5.39128 19.425 5.62461 19.225 5.82461L12.875 12.1996C12.6917 12.3996 12.4625 12.4954 12.1875 12.4871C11.9125 12.4788 11.675 12.3829 11.475 12.1996C11.275 11.9996 11.175 11.7621 11.175 11.4871C11.175 11.2121 11.275 10.9746 11.475 10.7746L17.825 4.42461C18.025 4.22461 18.2583 4.12461 18.525 4.12461C18.7917 4.12461 19.025 4.22461 19.225 4.42461C19.425 4.62461 19.525 4.85794 19.525 5.12461ZM21.3 8.31211C21.3 8.58711 21.2 8.82461 21 9.02461L15.35 14.6746C15.1667 14.8579 14.9375 14.9496 14.6625 14.9496C14.3875 14.9496 14.15 14.8579 13.95 14.6746C13.75 14.4746 13.6458 14.2371 13.6375 13.9621C13.6292 13.6871 13.725 13.4496 13.925 13.2496L19.575 7.59961C19.775 7.39961 20.0125 7.29961 20.2875 7.29961C20.5625 7.29961 20.8 7.39961 21 7.59961C21.2 7.79961 21.3 8.03711 21.3 8.31211ZM5.275 18.7246C3.75833 17.2079 3 15.3829 3 13.2496C3 11.1163 3.75833 9.29128 5.275 7.77461L7.575 5.47461C7.775 5.27461 8.00833 5.17461 8.275 5.17461C8.54167 5.17461 8.775 5.27461 8.975 5.47461L9.75 6.24961C9.86666 6.36628 9.96667 6.48711 10.05 6.61211C10.1333 6.73711 10.2167 6.86628 10.3 6.99961L14 3.27461C14.2 3.07461 14.4375 2.97461 14.7125 2.97461C14.9875 2.97461 15.225 3.07461 15.425 3.27461C15.625 3.47461 15.725 3.71211 15.725 3.98711C15.725 4.26211 15.625 4.49961 15.425 4.69961L11.1 9.02461L8.975 11.1246L9.45 11.5996C10.2167 12.3663 10.5833 13.2829 10.55 14.3496C10.5167 15.4163 10.1083 16.3413 9.325 17.1246L9.3 17.1496C9.11666 17.3329 8.8875 17.4246 8.6125 17.4246C8.3375 17.4246 8.1 17.3329 7.9 17.1496C7.7 16.9496 7.6 16.7121 7.6 16.4371C7.6 16.1621 7.7 15.9246 7.9 15.7246C8.28333 15.3413 8.49583 14.8871 8.5375 14.3621C8.57917 13.8371 8.40833 13.3829 8.025 12.9996L6.85 11.8496C6.65 11.6496 6.55 11.4121 6.55 11.1371C6.55 10.8621 6.65 10.6246 6.85 10.4246L8.275 9.02461C8.475 8.82461 8.575 8.58711 8.575 8.31211C8.575 8.03711 8.475 7.79961 8.275 7.59961L6.675 9.19961C5.54167 10.3329 4.975 11.6871 4.975 13.2621C4.975 14.8371 5.54167 16.1913 6.675 17.3246C7.80833 18.4579 9.16667 19.0246 10.75 19.0246C12.3333 19.0246 13.6917 18.4579 14.825 17.3246L20.8 11.3246C21 11.1246 21.2375 11.0246 21.5125 11.0246C21.7875 11.0246 22.025 11.1246 22.225 11.3246C22.425 11.5246 22.525 11.7621 22.525 12.0371C22.525 12.3121 22.425 12.5496 22.225 12.7496L16.225 18.7246C14.7083 20.2413 12.8833 20.9996 10.75 20.9996C8.61667 20.9996 6.79167 20.2413 5.275 18.7246Z" fill="black"/>
</g>
<defs>
<clipPath id="clip0_2370_215">
<rect width="24" height="24" fill="white"/>
</clipPath>
</defs>
</svg>
