<svg width="16" height="16" viewBox="0 0 16 16" fill="none" xmlns="http://www.w3.org/2000/svg">
<g clip-path="url(#clip0_2370_216)">
<path d="M11.3333 15.3504C11.1444 15.3504 10.9861 15.2837 10.8583 15.1504C10.7305 15.0171 10.6667 14.8559 10.6667 14.6671C10.6667 14.4782 10.7305 14.3198 10.8583 14.1921C10.9861 14.0643 11.1444 14.0004 11.3333 14.0004C12.0667 14.0004 12.6944 13.7393 13.2167 13.2171C13.7389 12.6948 14 12.0671 14 11.3337C14 11.1448 14.0667 10.9837 14.2 10.8504C14.3333 10.7171 14.4944 10.6504 14.6833 10.6504C14.8722 10.6504 15.0306 10.7171 15.1583 10.8504C15.2861 10.9837 15.35 11.1448 15.35 11.3337C15.35 12.4448 14.9583 13.3921 14.175 14.1754C13.3917 14.9587 12.4444 15.3504 11.3333 15.3504ZM1.33333 5.33372C1.14444 5.33372 0.983327 5.26984 0.849994 5.14206C0.716661 5.01428 0.649994 4.85595 0.649994 4.66706C0.649994 3.55595 1.04166 2.60872 1.82499 1.82539C2.60833 1.04206 3.55555 0.650391 4.66666 0.650391C4.85555 0.650391 5.01666 0.71428 5.14999 0.842057C5.28333 0.969835 5.34999 1.12817 5.34999 1.31706C5.34999 1.50595 5.28333 1.66706 5.14999 1.80039C5.01666 1.93372 4.85555 2.00039 4.66666 2.00039C3.93333 2.00039 3.30555 2.2615 2.78333 2.78372C2.26111 3.30595 1.99999 3.93372 1.99999 4.66706C1.99999 4.85595 1.93611 5.01428 1.80833 5.14206C1.68055 5.26984 1.52222 5.33372 1.33333 5.33372ZM13.0167 3.41706C13.0167 3.59484 12.95 3.75039 12.8167 3.88372L8.58333 8.13372C8.46111 8.26706 8.30833 8.33095 8.12499 8.32539C7.94166 8.31984 7.78333 8.25595 7.64999 8.13372C7.51666 8.00039 7.44999 7.84206 7.44999 7.65872C7.44999 7.47539 7.51666 7.31706 7.64999 7.18372L11.8833 2.95039C12.0167 2.81706 12.1722 2.75039 12.35 2.75039C12.5278 2.75039 12.6833 2.81706 12.8167 2.95039C12.95 3.08372 13.0167 3.23928 13.0167 3.41706ZM14.2 5.54206C14.2 5.72539 14.1333 5.88372 14 6.01706L10.2333 9.78372C10.1111 9.90595 9.95833 9.96706 9.77499 9.96706C9.59166 9.96706 9.43333 9.90595 9.29999 9.78372C9.16666 9.65039 9.09722 9.49206 9.09166 9.30872C9.08611 9.12539 9.14999 8.96706 9.28333 8.83372L13.05 5.06706C13.1833 4.93372 13.3417 4.86706 13.525 4.86706C13.7083 4.86706 13.8667 4.93372 14 5.06706C14.1333 5.20039 14.2 5.35872 14.2 5.54206ZM3.51666 12.4837C2.50555 11.4726 1.99999 10.2559 1.99999 8.83372C1.99999 7.4115 2.50555 6.19484 3.51666 5.18372L5.04999 3.65039C5.18333 3.51706 5.33888 3.45039 5.51666 3.45039C5.69444 3.45039 5.84999 3.51706 5.98333 3.65039L6.49999 4.16706C6.57777 4.24484 6.64444 4.32539 6.69999 4.40872C6.75555 4.49206 6.81111 4.57817 6.86666 4.66706L9.33333 2.18372C9.46666 2.05039 9.62499 1.98372 9.80833 1.98372C9.99166 1.98372 10.15 2.05039 10.2833 2.18372C10.4167 2.31706 10.4833 2.47539 10.4833 2.65872C10.4833 2.84206 10.4167 3.00039 10.2833 3.13372L7.39999 6.01706L5.98333 7.41706L6.29999 7.73372C6.81111 8.24484 7.05555 8.85595 7.03333 9.56706C7.01111 10.2782 6.73888 10.8948 6.21666 11.4171L6.19999 11.4337C6.07777 11.5559 5.92499 11.6171 5.74166 11.6171C5.55833 11.6171 5.39999 11.5559 5.26666 11.4337C5.13333 11.3004 5.06666 11.1421 5.06666 10.9587C5.06666 10.7754 5.13333 10.6171 5.26666 10.4837C5.52222 10.2282 5.66388 9.92539 5.69166 9.57539C5.71944 9.22539 5.60555 8.92261 5.34999 8.66706L4.56666 7.90039C4.43333 7.76706 4.36666 7.60872 4.36666 7.42539C4.36666 7.24206 4.43333 7.08372 4.56666 6.95039L5.51666 6.01706C5.64999 5.88372 5.71666 5.72539 5.71666 5.54206C5.71666 5.35872 5.64999 5.20039 5.51666 5.06706L4.44999 6.13372C3.69444 6.88928 3.31666 7.79206 3.31666 8.84206C3.31666 9.89206 3.69444 10.7948 4.44999 11.5504C5.20555 12.3059 6.11111 12.6837 7.16666 12.6837C8.22222 12.6837 9.12777 12.3059 9.88333 11.5504L13.8667 7.55039C14 7.41706 14.1583 7.35039 14.3417 7.35039C14.525 7.35039 14.6833 7.41706 14.8167 7.55039C14.95 7.68372 15.0167 7.84206 15.0167 8.02539C15.0167 8.20872 14.95 8.36706 14.8167 8.50039L10.8167 12.4837C9.80555 13.4948 8.58888 14.0004 7.16666 14.0004C5.74444 14.0004 4.52777 13.4948 3.51666 12.4837Z" fill="black"/>
</g>
<defs>
<clipPath id="clip0_2370_216">
<rect width="16" height="16" fill="white"/>
</clipPath>
</defs>
</svg>
