<svg width="28" height="28" viewBox="0 0 28 28" fill="none" xmlns="http://www.w3.org/2000/svg">
<path d="M19.8333 26.8627C19.5028 26.8627 19.2257 26.746 19.0021 26.5127C18.7785 26.2794 18.6667 25.9974 18.6667 25.6669C18.6667 25.3363 18.7785 25.0592 19.0021 24.8356C19.2257 24.612 19.5028 24.5002 19.8333 24.5002C21.1167 24.5002 22.2153 24.0433 23.1292 23.1294C24.0431 22.2155 24.5 21.1169 24.5 19.8335C24.5 19.503 24.6167 19.221 24.85 18.9877C25.0833 18.7544 25.3653 18.6377 25.6958 18.6377C26.0264 18.6377 26.3035 18.7544 26.5271 18.9877C26.7507 19.221 26.8625 19.503 26.8625 19.8335C26.8625 21.778 26.1771 23.4356 24.8063 24.8064C23.4354 26.1773 21.7778 26.8627 19.8333 26.8627ZM2.33333 9.33353C2.00278 9.33353 1.72083 9.22172 1.4875 8.99811C1.25417 8.7745 1.1375 8.49742 1.1375 8.16686C1.1375 6.22242 1.82292 4.56478 3.19375 3.19395C4.56458 1.82311 6.22222 1.1377 8.16667 1.1377C8.49722 1.1377 8.77917 1.2495 9.0125 1.47311C9.24583 1.69672 9.3625 1.97381 9.3625 2.30436C9.3625 2.63492 9.24583 2.91686 9.0125 3.1502C8.77917 3.38353 8.49722 3.5002 8.16667 3.5002C6.88333 3.5002 5.78472 3.95714 4.87083 4.87103C3.95694 5.78492 3.5 6.88353 3.5 8.16686C3.5 8.49742 3.38819 8.7745 3.16458 8.99811C2.94097 9.22172 2.66389 9.33353 2.33333 9.33353ZM22.7792 5.97936C22.7792 6.29047 22.6625 6.5627 22.4292 6.79603L15.0208 14.2335C14.8069 14.4669 14.5396 14.5787 14.2188 14.5689C13.8979 14.5592 13.6208 14.4474 13.3875 14.2335C13.1542 14.0002 13.0375 13.7231 13.0375 13.4023C13.0375 13.0814 13.1542 12.8044 13.3875 12.571L20.7958 5.1627C21.0292 4.92936 21.3014 4.8127 21.6125 4.8127C21.9236 4.8127 22.1958 4.92936 22.4292 5.1627C22.6625 5.39603 22.7792 5.66825 22.7792 5.97936ZM24.85 9.69811C24.85 10.0189 24.7333 10.296 24.5 10.5294L17.9083 17.121C17.6944 17.3349 17.4271 17.4419 17.1062 17.4419C16.7854 17.4419 16.5083 17.3349 16.275 17.121C16.0417 16.8877 15.9201 16.6106 15.9104 16.2898C15.9007 15.9689 16.0125 15.6919 16.2458 15.4585L22.8375 8.86686C23.0708 8.63353 23.3479 8.51686 23.6687 8.51686C23.9896 8.51686 24.2667 8.63353 24.5 8.86686C24.7333 9.1002 24.85 9.37728 24.85 9.69811ZM6.15417 21.846C4.38472 20.0766 3.5 17.9474 3.5 15.4585C3.5 12.9696 4.38472 10.8405 6.15417 9.07103L8.8375 6.3877C9.07083 6.15436 9.34306 6.0377 9.65417 6.0377C9.96528 6.0377 10.2375 6.15436 10.4708 6.3877L11.375 7.29186C11.5111 7.42797 11.6278 7.56895 11.725 7.71478C11.8222 7.86061 11.9194 8.01131 12.0167 8.16686L16.3333 3.82103C16.5667 3.5877 16.8438 3.47103 17.1646 3.47103C17.4854 3.47103 17.7625 3.5877 17.9958 3.82103C18.2292 4.05436 18.3458 4.33145 18.3458 4.65228C18.3458 4.97311 18.2292 5.2502 17.9958 5.48353L12.95 10.5294L10.4708 12.9794L11.025 13.5335C11.9194 14.428 12.3472 15.4974 12.3083 16.7419C12.2694 17.9863 11.7931 19.0655 10.8792 19.9794L10.85 20.0085C10.6361 20.2224 10.3687 20.3294 10.0479 20.3294C9.72708 20.3294 9.45 20.2224 9.21667 20.0085C8.98333 19.7752 8.86667 19.4981 8.86667 19.1773C8.86667 18.8564 8.98333 18.5794 9.21667 18.346C9.66389 17.8988 9.91181 17.3689 9.96042 16.7564C10.009 16.1439 9.80972 15.6141 9.3625 15.1669L7.99167 13.8252C7.75833 13.5919 7.64167 13.3148 7.64167 12.9939C7.64167 12.6731 7.75833 12.396 7.99167 12.1627L9.65417 10.5294C9.8875 10.296 10.0042 10.0189 10.0042 9.69811C10.0042 9.37728 9.8875 9.1002 9.65417 8.86686L7.7875 10.7335C6.46528 12.0558 5.80417 13.6356 5.80417 15.4731C5.80417 17.3106 6.46528 18.8905 7.7875 20.2127C9.10972 21.5349 10.6944 22.196 12.5417 22.196C14.3889 22.196 15.9736 21.5349 17.2958 20.2127L24.2667 13.2127C24.5 12.9794 24.7771 12.8627 25.0979 12.8627C25.4187 12.8627 25.6958 12.9794 25.9292 13.2127C26.1625 13.446 26.2792 13.7231 26.2792 14.0439C26.2792 14.3648 26.1625 14.6419 25.9292 14.8752L18.9292 21.846C17.1597 23.6155 15.0306 24.5002 12.5417 24.5002C10.0528 24.5002 7.92361 23.6155 6.15417 21.846Z" fill="black"/>
</svg>
