<svg width="16" height="16" viewBox="0 0 16 16" fill="none" xmlns="http://www.w3.org/2000/svg">
<path d="M2.66668 13.3332C2.30001 13.3332 1.98612 13.2027 1.72501 12.9416C1.4639 12.6805 1.33335 12.3666 1.33335 11.9999V3.9999C1.33335 3.63324 1.4639 3.31935 1.72501 3.05824C1.98612 2.79712 2.30001 2.66657 2.66668 2.66657V4.56657L0.900012 2.7999C0.766679 2.66657 0.700012 2.50824 0.700012 2.3249C0.700012 2.14157 0.766679 1.98324 0.900012 1.8499C1.03335 1.71657 1.19168 1.6499 1.37501 1.6499C1.55835 1.6499 1.71668 1.71657 1.85001 1.8499L14.1167 14.1166C14.25 14.2499 14.3167 14.4055 14.3167 14.5832C14.3167 14.761 14.25 14.9166 14.1167 15.0499C13.9833 15.1832 13.825 15.2499 13.6417 15.2499C13.4583 15.2499 13.3 15.1832 13.1667 15.0499L11.4333 13.3332H2.66668ZM2.66668 11.9999H10.1L3.43335 5.33324H2.66668V11.9999ZM14.6667 3.9999V11.3332C14.6667 11.5555 14.5972 11.7221 14.4583 11.8332C14.3195 11.9443 14.1667 11.9999 14 11.9999C13.8333 11.9999 13.6806 11.9416 13.5417 11.8249C13.4028 11.7082 13.3333 11.5388 13.3333 11.3166V5.33324H7.78335C7.60557 5.33324 7.43612 5.2999 7.27501 5.23324C7.1139 5.16657 6.97223 5.07212 6.85001 4.9499L5.70001 3.7999C5.60001 3.68879 5.5389 3.57212 5.51668 3.4499C5.49446 3.32768 5.51112 3.20546 5.56668 3.08324C5.62223 2.96101 5.70001 2.86101 5.80001 2.78324C5.90001 2.70546 6.02779 2.66657 6.18335 2.66657H13.3333C13.7 2.66657 14.0139 2.79712 14.275 3.05824C14.5361 3.31935 14.6667 3.63324 14.6667 3.9999Z" fill="black"/>
</svg>
