<svg width="28" height="28" viewBox="0 0 28 28" fill="none" xmlns="http://www.w3.org/2000/svg">
<path d="M4.66664 23.3335C4.02498 23.3335 3.47567 23.1051 3.01873 22.6481C2.56178 22.1912 2.33331 21.6419 2.33331 21.0002V7.0002C2.33331 6.35853 2.56178 5.80922 3.01873 5.35228C3.47567 4.89533 4.02498 4.66686 4.66664 4.66686V7.99186L1.57498 4.9002C1.34164 4.66686 1.22498 4.38978 1.22498 4.06895C1.22498 3.74811 1.34164 3.47103 1.57498 3.2377C1.80831 3.00436 2.08539 2.8877 2.40623 2.8877C2.72706 2.8877 3.00414 3.00436 3.23748 3.2377L24.7041 24.7044C24.9375 24.9377 25.0541 25.2099 25.0541 25.521C25.0541 25.8321 24.9375 26.1044 24.7041 26.3377C24.4708 26.571 24.1937 26.6877 23.8729 26.6877C23.5521 26.6877 23.275 26.571 23.0416 26.3377L20.0083 23.3335H4.66664ZM4.66664 21.0002H17.675L6.00831 9.33353H4.66664V21.0002ZM25.6666 7.0002V19.8335C25.6666 20.2224 25.5451 20.5141 25.3021 20.7085C25.059 20.903 24.7916 21.0002 24.5 21.0002C24.2083 21.0002 23.9409 20.8981 23.6979 20.6939C23.4548 20.4898 23.3333 20.1933 23.3333 19.8044V9.33353H13.6208C13.3097 9.33353 13.0132 9.2752 12.7312 9.15853C12.4493 9.04186 12.2014 8.87658 11.9875 8.66269L9.97498 6.6502C9.79998 6.45575 9.69303 6.25158 9.65414 6.0377C9.61525 5.82381 9.64442 5.60992 9.74164 5.39603C9.83887 5.18214 9.97498 5.00714 10.15 4.87103C10.325 4.73492 10.5486 4.66686 10.8208 4.66686H23.3333C23.975 4.66686 24.5243 4.89533 24.9812 5.35228C25.4382 5.80922 25.6666 6.35853 25.6666 7.0002Z" fill="black"/>
</svg>
