<svg width="16" height="16" viewBox="0 0 16 16" fill="none" xmlns="http://www.w3.org/2000/svg">
<path d="M2.66665 13.3332C2.29998 13.3332 1.98609 13.2026 1.72498 12.9415C1.46387 12.6804 1.33331 12.3665 1.33331 11.9998V3.99984C1.33331 3.63317 1.46387 3.31928 1.72498 3.05817C1.98609 2.79706 2.29998 2.6665 2.66665 2.6665H13.3333C13.7 2.6665 14.0139 2.79706 14.275 3.05817C14.5361 3.31928 14.6666 3.63317 14.6666 3.99984V11.9998C14.6666 12.3665 14.5361 12.6804 14.275 12.9415C14.0139 13.2026 13.7 13.3332 13.3333 13.3332H2.66665ZM2.66665 11.9998H13.3333V5.33317H2.66665V11.9998Z" fill="black"/>
</svg>
