<svg width="24" height="24" viewBox="0 0 24 24" fill="none" xmlns="http://www.w3.org/2000/svg">
<path d="M3.99999 20.0001C3.44999 20.0001 2.97915 19.8043 2.58749 19.4126C2.19582 19.0209 1.99999 18.5501 1.99999 18.0001V6.0001C1.99999 5.4501 2.19582 4.97926 2.58749 4.5876C2.97915 4.19593 3.44999 4.0001 3.99999 4.0001V6.8501L1.34999 4.2001C1.14999 4.0001 1.04999 3.7626 1.04999 3.4876C1.04999 3.2126 1.14999 2.9751 1.34999 2.7751C1.54999 2.5751 1.78749 2.4751 2.06249 2.4751C2.33749 2.4751 2.57499 2.5751 2.77499 2.7751L21.175 21.1751C21.375 21.3751 21.475 21.6084 21.475 21.8751C21.475 22.1418 21.375 22.3751 21.175 22.5751C20.975 22.7751 20.7375 22.8751 20.4625 22.8751C20.1875 22.8751 19.95 22.7751 19.75 22.5751L17.15 20.0001H3.99999ZM3.99999 18.0001H15.15L5.14999 8.0001H3.99999V18.0001ZM22 6.0001V17.0001C22 17.3334 21.8958 17.5834 21.6875 17.7501C21.4792 17.9168 21.25 18.0001 21 18.0001C20.75 18.0001 20.5208 17.9126 20.3125 17.7376C20.1042 17.5626 20 17.3084 20 16.9751V8.0001H11.675C11.4083 8.0001 11.1542 7.9501 10.9125 7.8501C10.6708 7.7501 10.4583 7.60843 10.275 7.4251L8.54999 5.7001C8.39999 5.53343 8.30832 5.35843 8.27499 5.1751C8.24165 4.99176 8.26665 4.80843 8.34999 4.6251C8.43332 4.44176 8.54999 4.29176 8.69999 4.1751C8.84999 4.05843 9.04165 4.0001 9.27499 4.0001H20C20.55 4.0001 21.0208 4.19593 21.4125 4.5876C21.8042 4.97926 22 5.4501 22 6.0001Z" fill="black"/>
</svg>
