<svg width="28" height="28" viewBox="0 0 28 28" fill="none" xmlns="http://www.w3.org/2000/svg">
<path d="M4.66665 23.3332C4.02498 23.3332 3.47567 23.1047 3.01873 22.6478C2.56179 22.1908 2.33331 21.6415 2.33331 20.9998V6.99984C2.33331 6.35817 2.56179 5.80886 3.01873 5.35192C3.47567 4.89498 4.02498 4.6665 4.66665 4.6665H23.3333C23.975 4.6665 24.5243 4.89498 24.9812 5.35192C25.4382 5.80886 25.6666 6.35817 25.6666 6.99984V20.9998C25.6666 21.6415 25.4382 22.1908 24.9812 22.6478C24.5243 23.1047 23.975 23.3332 23.3333 23.3332H4.66665ZM4.66665 20.9998H23.3333V9.33317H4.66665V20.9998Z" fill="black"/>
</svg>
