<svg width="16" height="16" viewBox="0 0 16 16" fill="none" xmlns="http://www.w3.org/2000/svg">
<path d="M8.00001 7.94967L6.86667 8.81634C6.80001 8.8719 6.73334 8.87467 6.66667 8.82467C6.60001 8.77467 6.57778 8.71078 6.60001 8.63301L7.03334 7.23301L5.86667 6.29967C5.81112 6.24412 5.79445 6.18023 5.81667 6.10801C5.83889 6.03579 5.88889 5.99967 5.96667 5.99967H7.40001L7.83334 4.63301C7.85556 4.55523 7.91112 4.51634 8.00001 4.51634C8.08889 4.51634 8.14445 4.55523 8.16667 4.63301L8.60001 5.99967H10.0167C10.0944 5.99967 10.1472 6.03579 10.175 6.10801C10.2028 6.18023 10.1889 6.24412 10.1333 6.29967L8.95001 7.23301L9.38334 8.63301C9.40556 8.71078 9.38334 8.77467 9.31667 8.82467C9.25001 8.87467 9.18334 8.8719 9.11667 8.81634L8.00001 7.94967ZM8.00001 13.9997L4.88334 15.033C4.66112 15.1108 4.45834 15.083 4.27501 14.9497C4.09167 14.8163 4.00001 14.6386 4.00001 14.4163V10.183C3.57778 9.71634 3.25001 9.18301 3.01667 8.58301C2.78334 7.98301 2.66667 7.34412 2.66667 6.66634C2.66667 5.17745 3.18334 3.91634 4.21667 2.88301C5.25001 1.84967 6.51112 1.33301 8.00001 1.33301C9.48889 1.33301 10.75 1.84967 11.7833 2.88301C12.8167 3.91634 13.3333 5.17745 13.3333 6.66634C13.3333 7.34412 13.2167 7.98301 12.9833 8.58301C12.75 9.18301 12.4222 9.71634 12 10.183V14.4163C12 14.6386 11.9083 14.8163 11.725 14.9497C11.5417 15.083 11.3389 15.1108 11.1167 15.033L8.00001 13.9997ZM10.8333 9.49967C11.6111 8.7219 12 7.77745 12 6.66634C12 5.55523 11.6111 4.61079 10.8333 3.83301C10.0556 3.05523 9.11112 2.66634 8.00001 2.66634C6.88889 2.66634 5.94445 3.05523 5.16667 3.83301C4.38889 4.61079 4.00001 5.55523 4.00001 6.66634C4.00001 7.77745 4.38889 8.7219 5.16667 9.49967C5.94445 10.2775 6.88889 10.6663 8.00001 10.6663C9.11112 10.6663 10.0556 10.2775 10.8333 9.49967ZM5.33334 13.3497L8.00001 12.6663L10.6667 13.3497V11.283C10.2778 11.5052 9.85834 11.6802 9.40834 11.808C8.95834 11.9358 8.48889 11.9997 8.00001 11.9997C7.51112 11.9997 7.04167 11.9358 6.59167 11.808C6.14167 11.6802 5.72223 11.5052 5.33334 11.283V13.3497Z" fill="black"/>
</svg>
