<svg width="28" height="28" viewBox="0 0 28 28" fill="none" xmlns="http://www.w3.org/2000/svg">
<path d="M14 13.9122L12.0167 15.4288C11.9 15.5261 11.7833 15.5309 11.6667 15.4434C11.55 15.3559 11.5111 15.2441 11.55 15.108L12.3083 12.658L10.2667 11.0247C10.1694 10.9275 10.1403 10.8156 10.1792 10.6893C10.2181 10.5629 10.3056 10.4997 10.4417 10.4997H12.95L13.7083 8.10801C13.7472 7.9719 13.8444 7.90384 14 7.90384C14.1556 7.90384 14.2528 7.9719 14.2917 8.10801L15.05 10.4997H17.5292C17.6653 10.4997 17.7576 10.5629 17.8062 10.6893C17.8549 10.8156 17.8306 10.9275 17.7333 11.0247L15.6625 12.658L16.4208 15.108C16.4597 15.2441 16.4208 15.3559 16.3042 15.4434C16.1875 15.5309 16.0708 15.5261 15.9542 15.4288L14 13.9122ZM14 24.4997L8.54583 26.308C8.15694 26.4441 7.80208 26.3955 7.48125 26.1622C7.16042 25.9288 7 25.6177 7 25.2288V17.8205C6.26111 17.0038 5.6875 16.0705 5.27917 15.0205C4.87083 13.9705 4.66667 12.8525 4.66667 11.6663C4.66667 9.06079 5.57083 6.85384 7.37917 5.04551C9.1875 3.23717 11.3944 2.33301 14 2.33301C16.6056 2.33301 18.8125 3.23717 20.6208 5.04551C22.4292 6.85384 23.3333 9.06079 23.3333 11.6663C23.3333 12.8525 23.1292 13.9705 22.7208 15.0205C22.3125 16.0705 21.7389 17.0038 21 17.8205V25.2288C21 25.6177 20.8396 25.9288 20.5187 26.1622C20.1979 26.3955 19.8431 26.4441 19.4542 26.308L14 24.4997ZM18.9583 16.6247C20.3194 15.2636 21 13.6108 21 11.6663C21 9.7219 20.3194 8.06912 18.9583 6.70801C17.5972 5.3469 15.9444 4.66634 14 4.66634C12.0556 4.66634 10.4028 5.3469 9.04167 6.70801C7.68056 8.06912 7 9.7219 7 11.6663C7 13.6108 7.68056 15.2636 9.04167 16.6247C10.4028 17.9858 12.0556 18.6663 14 18.6663C15.9444 18.6663 17.5972 17.9858 18.9583 16.6247ZM9.33333 23.3622L14 22.1663L18.6667 23.3622V19.7455C17.9861 20.1344 17.2521 20.4406 16.4646 20.6643C15.6771 20.8879 14.8556 20.9997 14 20.9997C13.1444 20.9997 12.3229 20.8879 11.5354 20.6643C10.7479 20.4406 10.0139 20.1344 9.33333 19.7455V23.3622Z" fill="black"/>
</svg>
