<svg width="16" height="16" viewBox="0 0 16 16" fill="none" xmlns="http://www.w3.org/2000/svg">
<path d="M2.66668 14.0002C2.30001 14.0002 1.98612 13.8696 1.72501 13.6085C1.4639 13.3474 1.33334 13.0335 1.33334 12.6668V5.3335C1.33334 4.96683 1.4639 4.65294 1.72501 4.39183C1.98612 4.13072 2.30001 4.00016 2.66668 4.00016H5.33334V2.66683C5.33334 2.30016 5.4639 1.98627 5.72501 1.72516C5.98612 1.46405 6.30001 1.3335 6.66668 1.3335H9.33334C9.70001 1.3335 10.0139 1.46405 10.275 1.72516C10.5361 1.98627 10.6667 2.30016 10.6667 2.66683V4.00016H13.3333C13.7 4.00016 14.0139 4.13072 14.275 4.39183C14.5361 4.65294 14.6667 4.96683 14.6667 5.3335V12.6668C14.6667 13.0335 14.5361 13.3474 14.275 13.6085C14.0139 13.8696 13.7 14.0002 13.3333 14.0002H2.66668ZM2.66668 12.6668H13.3333V5.3335H2.66668V12.6668ZM6.66668 4.00016H9.33334V2.66683H6.66668V4.00016Z" fill="black"/>
</svg>
