<svg width="28" height="28" viewBox="0 0 28 28" fill="none" xmlns="http://www.w3.org/2000/svg">
<path d="M4.66668 24.5002C4.02501 24.5002 3.4757 24.2717 3.01876 23.8147C2.56182 23.3578 2.33334 22.8085 2.33334 22.1668V9.3335C2.33334 8.69183 2.56182 8.14252 3.01876 7.68558C3.4757 7.22863 4.02501 7.00016 4.66668 7.00016H9.33334V4.66683C9.33334 4.02516 9.56182 3.47586 10.0188 3.01891C10.4757 2.56197 11.025 2.3335 11.6667 2.3335H16.3333C16.975 2.3335 17.5243 2.56197 17.9813 3.01891C18.4382 3.47586 18.6667 4.02516 18.6667 4.66683V7.00016H23.3333C23.975 7.00016 24.5243 7.22863 24.9813 7.68558C25.4382 8.14252 25.6667 8.69183 25.6667 9.3335V22.1668C25.6667 22.8085 25.4382 23.3578 24.9813 23.8147C24.5243 24.2717 23.975 24.5002 23.3333 24.5002H4.66668ZM4.66668 22.1668H23.3333V9.3335H4.66668V22.1668ZM11.6667 7.00016H16.3333V4.66683H11.6667V7.00016Z" fill="black"/>
</svg>
