<svg width="16" height="16" viewBox="0 0 16 16" fill="none" xmlns="http://www.w3.org/2000/svg"><path d="M5.33333 7q-.28333 0-.475-.19167t-.19166-.475q0-.28333.19166-.475t.475-.19167h2q.28334 0 .475.19167T8 6.33333q0 .28333-.19167.475T7.33333 7h-2Zm1 3.66667q-1.81666 0-3.075-1.25834T2 6.33333q0-1.81667 1.25833-3.075T6.33333 2Q8.15 2 9.40833 3.25833t1.25834 3.075q0 .73333-.23333 1.38334T9.8 8.86667L13.53334 12.6q.18333.18333.18333.46667t-.18333.46666q-.18334.18334-.46667.18334T12.6 13.53333L8.86667 9.8q-.5.4-1.15.63333t-1.38334.23334Zm0-1.33334q1.25 0 2.125-.875t.875-2.125q0-1.25-.875-2.125t-2.125-.875q-1.25 0-2.125.875t-.875 2.125q0 1.25.875 2.125t2.125.875Z" fill="#000"/></svg>