<svg width="24" height="24" viewBox="0 0 24 24" fill="none" xmlns="http://www.w3.org/2000/svg"><path d="M8 10.5q-.425 0-.7125-.2875T7 9.5q0-.425.2875-.7125T8 8.5h3q.425 0 .7125.2875T12 9.5q0 .425-.2875.7125T11 10.5H8ZM9.5 16q-2.725 0-4.6125-1.8875T3 9.5q0-2.725 1.8875-4.6125T9.5 3q2.725 0 4.6125 1.8875T16 9.5q0 1.1-.35 2.075T14.7 13.3l5.6 5.6q.275.275.275.7t-.275.7q-.275.275-.7.275t-.7-.275l-5.6-5.6q-.75.6-1.725.95T9.5 16Zm0-2q1.875 0 3.1875-1.3125T14 9.5q0-1.875-1.3125-3.1875T9.5 5Q7.625 5 6.3125 6.3125T5 9.5q0 1.875 1.3125 3.1875T9.5 14Z" fill="#000"/></svg>