<svg width="28" height="28" viewBox="0 0 28 28" fill="none" xmlns="http://www.w3.org/2000/svg"><path d="M9.33333 12.25q-.49583 0-.83125-.33542t-.33541-.83125q0-.49583.33541-.83125t.83125-.33542h3.5q.49584 0 .83125.33542T14 11.08333q0 .49583-.33542.83125t-.83125.33542h-3.5Zm1.75 6.41667q-3.17916 0-5.38125-2.20209T3.5 11.08333q0-3.17917 2.20208-5.38125T11.08333 3.5q3.17917 0 5.38126 2.20208t2.20208 5.38125q0 1.28333-.40833 2.42084T17.15 15.51667L23.68334 22.05q.32083.32083.32083.81667t-.32083.81666q-.32084.32084-.81667.32084t-.81667-.32084L15.51667 17.15q-.875.7-2.0125 1.10833t-2.42084.40834Zm0-2.33334q2.1875 0 3.71876-1.53125t1.53125-3.71875q0-2.1875-1.53125-3.71875t-3.71876-1.53125q-2.1875 0-3.71875 1.53125t-1.53125 3.71875q0 2.1875 1.53125 3.71875t3.71875 1.53125Z" fill="#000"/></svg>