<svg xmlns="http://www.w3.org/2000/svg" x="0" y="0" version="1.1" viewBox="0 0 375.1 102.5">
  <g fill="#fff" stroke="#424242" stroke-width="4" stroke-miterlimit="10" style="opacity:.65">
    <path
      d="M89.6 95.1 52 51.9c-1-1.1-.9-2.7 0-3.8L89.3 7.5c1.9-2.1.4-5.5-2.4-5.5H62.1c-2.5 0-4.9 1.1-6.6 3L34.7 28.6c-1.1 1.3-3.2.5-3.2-1.2V4.7c0-1.5-1.2-2.7-2.7-2.7H4.7C3.2 2 2 3.2 2 4.7v92.9c0 1.5 1.2 2.7 2.7 2.7h24.2c1.5 0 2.7-1.2 2.7-2.7V71.9c0-1.7 2.2-2.5 3.3-1.1l20.7 26.3c1.7 2.1 4.2 3.3 6.9 3.3h24.8c2.6.1 4.1-3.2 2.3-5.3zM196.7 100.5h-21c-2.4 0-4.3-1.9-4.3-4.3V6.3c0-2.4 1.9-4.3 4.3-4.3h21c2.4 0 4.3 1.9 4.3 4.3v89.9c0 2.4-1.9 4.3-4.3 4.3zM125 70.3v-64c0-2.4-1.9-4.3-4.3-4.3h-21c-2.4 0-4.3 1.9-4.3 4.3v89.9c0 2.4 1.9 4.3 4.3 4.3h62.5c2.4 0 4.3-1.9 4.3-4.3V78.9c0-2.4-1.9-4.3-4.3-4.3h-33c-2.3 0-4.2-1.9-4.2-4.3zM247.3 2h-37c-2.4 0-4.3 1.9-4.3 4.3v89.9c0 2.4 1.9 4.3 4.3 4.3h21c2.4 0 4.3-1.9 4.3-4.3V71.4c0-.8.7-1.3 1.4-1.1 10.5 3.1 24.3 3.4 36.2-8.4C298.5 36.6 274.6 2 247.3 2zm7.4 43.1c-11.2 7.9-23.6-4.5-15.7-15.7.3-.4.6-.7 1-1 11.2-7.9 23.6 4.5 15.7 15.7-.3.5-.7.8-1 1z"
    />
    <path
      d="M372 17.6 357.6 3.2c-1.6-1.6-4.2-1.6-5.9 0l-23 23c-.6.6-1.7.6-2.3 0l-23-23c-1.6-1.6-4.2-1.6-5.9 0l-14.4 14.4c-1.6 1.6-1.6 4.2 0 5.9l29.6 29.6c.3.3.5.8.5 1.2v42.1c0 2.3 1.9 4.1 4.1 4.1h20.4c2.3 0 4.1-1.9 4.1-4.1V54.3c0-.5.2-.9.5-1.2l29.6-29.6c1.7-1.6 1.7-4.3.1-5.9z"
    />
  </g>
</svg>