<svg width="361" height="240" viewBox="0 0 361 240" fill="none" xmlns="http://www.w3.org/2000/svg">
<path d="M345.824 93.5746C345.572 93.5746 345.358 93.3799 345.338 93.1268C345.319 92.8543 345.513 92.6207 345.785 92.6013C347.866 92.4066 348.916 92.2898 350.802 91.8031C351.483 90.4794 355.955 80.1818 351.872 45.4344C351.833 45.1619 352.027 44.9283 352.299 44.8894C352.552 44.8699 352.805 45.0451 352.844 45.3176C357.277 83.1212 351.774 92.1146 351.541 92.4845C351.483 92.5818 351.386 92.6597 351.269 92.6791C349.188 93.2436 348.061 93.3604 345.902 93.5746H345.863H345.824Z" fill="#171717"/>
<path d="M344.366 96.2808H344.327C321.615 94.1006 308.723 88.7279 308.587 88.6695C308.334 88.5721 308.218 88.2801 308.334 88.0271C308.432 87.774 308.723 87.6572 308.976 87.774C309.093 87.8324 321.771 93.0883 344.132 95.288C345.182 93.6139 351.482 82.1093 351.755 48.9193C351.755 48.6467 351.968 48.4326 352.241 48.4326C352.513 48.4326 352.727 48.6467 352.727 48.9193C352.416 85.3407 345.066 95.6579 344.754 96.0861C344.657 96.2029 344.521 96.2808 344.366 96.2808Z" fill="#171717"/>
<path d="M317.727 88.9026C302.113 88.9026 277.048 86.2552 259.762 71.3246C259.626 71.2078 259.568 71.0326 259.607 70.8768C259.645 70.7211 259.762 70.5654 259.918 70.507C259.976 70.507 264.896 68.6187 270.029 63.6159C274.754 59.0024 280.626 50.6708 281.754 37.278C281.871 35.8764 282.551 34.6111 283.64 33.7157C284.749 32.8202 286.149 32.4114 287.549 32.5866L348.275 40.0033C350.977 40.3342 352.98 42.7091 352.844 45.4149C352.436 53.1041 349.597 72.6483 332.272 88.0072C332.194 88.0656 332.116 88.1045 332.019 88.124C331.863 88.1434 326.185 88.9221 317.727 88.9221V88.9026ZM260.987 71.091C286.615 92.5818 328.927 87.5205 331.727 87.1507C348.683 72.0448 351.444 52.89 351.852 45.3371C351.969 43.1374 350.336 41.2102 348.138 40.9377L287.413 33.521C286.265 33.3847 285.138 33.7157 284.224 34.4359C283.329 35.1562 282.785 36.1879 282.687 37.3169C281.521 51.0407 275.493 59.5669 270.632 64.2972C266.49 68.3268 262.562 70.3512 260.968 71.0715L260.987 71.091Z" fill="#171717"/>
<path d="M351.483 51.6443C344.483 51.3523 284.379 43.3322 281.812 42.9818C281.54 42.9429 281.365 42.7093 281.404 42.4368C281.443 42.1642 281.657 41.9696 281.948 42.028C282.571 42.1058 344.56 50.3985 351.522 50.671C351.794 50.671 352.008 50.9046 351.988 51.1771C351.988 51.4302 351.755 51.6443 351.502 51.6443H351.483Z" fill="#171717"/>
<path d="M289.396 58.1654C286.771 58.1654 284.632 56.0241 284.632 53.3962C284.632 50.7682 286.771 48.627 289.396 48.627C292.021 48.627 294.16 50.7682 294.16 53.3962C294.16 56.0241 292.021 58.1654 289.396 58.1654ZM289.396 49.5808C287.296 49.5808 285.604 51.2938 285.604 53.3767C285.604 55.4596 287.315 57.1727 289.396 57.1727C291.476 57.1727 293.188 55.4596 293.188 53.3767C293.188 51.2938 291.476 49.5808 289.396 49.5808Z" fill="#171717"/>
<path d="M311.543 62.7201C308.918 62.7201 306.779 60.5788 306.779 57.9509C306.779 55.3229 308.918 53.1816 311.543 53.1816C314.168 53.1816 316.307 55.3229 316.307 57.9509C316.307 60.5788 314.168 62.7201 311.543 62.7201ZM311.543 54.1355C309.443 54.1355 307.752 55.8485 307.752 57.9314C307.752 60.0143 309.463 61.7273 311.543 61.7273C313.624 61.7273 315.335 60.0143 315.335 57.9314C315.335 55.8485 313.624 54.1355 311.543 54.1355Z" fill="#171717"/>
<path d="M335.772 64.5114C333.147 64.5114 331.008 62.3701 331.008 59.7421C331.008 57.1142 333.147 54.9729 335.772 54.9729C338.397 54.9729 340.536 57.1142 340.536 59.7421C340.536 62.3701 338.397 64.5114 335.772 64.5114ZM335.772 55.9267C333.672 55.9267 331.98 57.6398 331.98 59.7227C331.98 61.8056 333.691 63.5186 335.772 63.5186C337.852 63.5186 339.564 61.8056 339.564 59.7227C339.564 57.6398 337.852 55.9267 335.772 55.9267Z" fill="#171717"/>
<path d="M280.821 73.0956C278.196 73.0956 276.057 71.1296 276.057 68.6963C276.057 66.263 278.196 64.2969 280.821 64.2969C283.446 64.2969 285.585 66.263 285.585 68.6963C285.585 71.1296 283.446 73.0956 280.821 73.0956ZM280.821 65.2897C278.721 65.2897 277.029 66.8275 277.029 68.7157C277.029 70.604 278.74 72.1418 280.821 72.1418C282.901 72.1418 284.612 70.604 284.612 68.7157C284.612 66.8275 282.901 65.2897 280.821 65.2897Z" fill="#171717"/>
<path d="M304.408 79.15C301.782 79.15 299.644 77.3591 299.644 75.1594C299.644 72.9597 301.782 71.1688 304.408 71.1688C307.033 71.1688 309.171 72.9597 309.171 75.1594C309.171 77.3591 307.033 79.15 304.408 79.15ZM304.408 72.1421C302.307 72.1421 300.616 73.5048 300.616 75.1594C300.616 76.814 302.327 78.1767 304.408 78.1767C306.488 78.1767 308.199 76.814 308.199 75.1594C308.199 73.5048 306.488 72.1421 304.408 72.1421Z" fill="#171717"/>
<path d="M328.752 80.8633C326.127 80.8633 323.988 79.0335 323.988 76.7754C323.988 74.5173 326.127 72.6875 328.752 72.6875C331.377 72.6875 333.516 74.5173 333.516 76.7754C333.516 79.0335 331.377 80.8633 328.752 80.8633ZM328.752 73.6608C326.652 73.6608 324.961 75.0624 324.961 76.7754C324.961 78.4885 326.672 79.89 328.752 79.89C330.833 79.89 332.544 78.4885 332.544 76.7754C332.544 75.0624 330.833 73.6608 328.752 73.6608Z" fill="#171717"/>
<path d="M98.3129 79.403C76.457 79.403 58.665 61.5914 58.665 39.7113C58.665 17.8311 76.457 0 98.3129 0C120.169 0 137.961 17.8117 137.961 39.6918C137.961 61.5719 120.169 79.3836 98.3129 79.3836V79.403ZM98.3129 0.973315C76.982 0.973315 59.6373 18.3373 59.6373 39.6918C59.6373 61.0463 76.982 78.4103 98.3129 78.4103C119.644 78.4103 136.988 61.0463 136.988 39.6918C136.988 18.3373 119.644 0.973315 98.3129 0.973315Z" fill="#171717"/>
<path d="M85.0319 54.9924C85.0319 54.9924 86.6069 45.3371 85.0319 35.0394C83.4569 24.7418 87.1319 11.1932 98.5654 11.7188C109.999 12.2444 112.721 17.7144 114.082 24.2162C115.443 30.7179 110.524 43.3321 111.243 46.8944C111.963 50.4568 113.791 53.6103 113.791 53.6103C113.791 53.6103 112.507 63.6938 100.957 63.0709C89.407 62.448 85.0124 54.9924 85.0124 54.9924H85.0319Z" fill="#171717"/>
<path d="M101.988 63.5965C101.657 63.5965 101.307 63.5965 100.938 63.5576C89.271 62.9152 84.7792 55.5569 84.6042 55.226C84.5459 55.1287 84.5265 55.0119 84.5459 54.8951C84.5459 54.7977 86.082 45.1814 84.5459 35.0979C83.6515 29.1996 84.2737 20.4397 89.0377 15.1449C91.5266 12.3807 94.735 11.057 98.5656 11.2322C109.688 11.7383 112.994 16.7606 114.549 24.1189C115.366 27.9732 114.063 33.6963 112.935 38.738C112.157 42.1641 111.438 45.3955 111.73 46.7971C112.449 50.2426 114.199 53.3378 114.219 53.3767C114.277 53.474 114.296 53.5714 114.277 53.6882C114.277 53.7855 112.877 63.5965 101.988 63.5965ZM85.5376 54.8951C86.2182 55.9073 90.7488 62.0392 100.996 62.6037C111.321 63.1488 113.071 55.0119 113.285 53.7271C112.916 53.0458 111.438 50.2232 110.777 47.0112C110.446 45.3955 111.166 42.2225 111.982 38.5434C113.091 33.5989 114.374 27.9732 113.596 24.333C112.099 17.2083 109.066 12.7116 98.5267 12.2249C95.0072 12.0692 92.0516 13.2761 89.7571 15.8262C85.5182 20.5565 84.5654 28.8492 85.4987 34.9811C86.9376 44.4417 85.732 53.4935 85.5182 54.8951H85.5376Z" fill="#171717"/>
<path d="M131.952 59.1769C129.541 51.3903 116.552 53.4343 109.824 51.001C102.396 48.3147 104.419 38.7178 104.419 38.7178L95.7074 38.893C95.7074 38.893 96.174 44.4603 95.7074 46.5432C95.2407 48.6261 93.8796 53.7263 81.3183 54.5439C68.7569 55.3615 67.0264 63.1285 67.0264 63.1285C67.0264 63.1285 74.2209 73.3873 84.7016 76.4824C95.1824 79.5775 116.824 83.4903 131.952 59.1769Z" fill="#E6F1FF"/>
<path d="M99.4796 79.2858C94.8129 79.2858 89.835 78.5071 84.546 76.9498C74.0264 73.8352 66.9097 63.8295 66.618 63.4013C66.5402 63.2845 66.5208 63.1482 66.5402 63.012C66.618 62.681 68.4847 54.8751 81.2599 54.038C93.724 53.2399 94.8518 48.1008 95.2212 46.4072C95.649 44.4216 95.2212 38.9516 95.2212 38.8932C95.2212 38.757 95.2601 38.6207 95.3379 38.5234C95.4157 38.426 95.5518 38.3676 95.6879 38.3676L104.399 38.1924C104.555 38.173 104.691 38.2508 104.788 38.3676C104.885 38.4844 104.924 38.6402 104.885 38.7764C104.807 39.1463 103.038 48.0034 109.98 50.5146C112.08 51.2738 114.802 51.5852 117.699 51.9162C123.786 52.617 130.669 53.3956 132.4 59.0019C132.438 59.1382 132.419 59.2939 132.341 59.4107C124.116 72.6283 113.091 79.2663 99.4602 79.2663L99.4796 79.2858ZM67.5319 63.0314C68.5625 64.4135 75.3876 73.2318 84.8183 76.0155C104.963 81.9721 120.635 76.288 131.408 59.1187C129.755 54.3105 123.572 53.6097 117.583 52.909C114.627 52.578 111.846 52.2471 109.649 51.449C103.019 49.0546 103.544 41.4044 103.835 39.2047L96.2129 39.3604C96.3101 40.8009 96.5629 44.8694 96.174 46.6408C95.7657 48.5096 94.5212 54.1743 81.3377 55.0308C70.3125 55.751 67.9208 61.8051 67.5513 63.0314H67.5319Z" fill="#171717"/>
<path d="M92.5566 24.3134C92.5566 24.3134 90.4372 23.4958 89.4844 25.7539C88.6482 27.7395 89.6983 31.2629 91.9344 32.2946" fill="#E6F1FF"/>
<path d="M91.7595 32.7423C89.2122 31.5743 88.1428 27.7589 89.0567 25.5592C89.9511 23.4374 91.8567 23.5153 92.7512 23.8657L92.4012 24.7806C92.2262 24.7222 90.69 24.1966 89.9511 25.9486C89.2122 27.7005 90.165 30.9514 92.1678 31.8663L91.7595 32.7423Z" fill="#171717"/>
<path d="M107.529 24.3134C107.529 24.3134 109.649 23.4958 110.602 25.7539C111.438 27.7395 110.388 31.2629 108.152 32.2946" fill="#E6F1FF"/>
<path d="M108.346 32.7423L107.938 31.8663C109.941 30.9514 110.893 27.7005 110.155 25.9486C109.416 24.1966 107.88 24.7222 107.704 24.7806L107.354 23.8657C108.23 23.5153 110.135 23.4374 111.049 25.5592C111.982 27.7395 110.893 31.5743 108.346 32.7423Z" fill="#171717"/>
<path d="M99.9654 40.5864C104.379 40.5864 107.957 35.636 107.957 29.5295C107.957 23.423 104.379 18.4727 99.9654 18.4727C95.5517 18.4727 91.9736 23.423 91.9736 29.5295C91.9736 35.636 95.5517 40.5864 99.9654 40.5864Z" fill="#E6F1FF"/>
<path d="M99.9652 41.0734C95.2985 41.0734 91.4873 35.8953 91.4873 29.5298C91.4873 23.1644 95.2985 17.9863 99.9652 17.9863C104.632 17.9863 108.443 23.1644 108.443 29.5298C108.443 35.8953 104.632 41.0734 99.9652 41.0734ZM99.9652 18.9402C95.8235 18.9402 92.4595 23.69 92.4595 29.5104C92.4595 35.3308 95.8235 40.0806 99.9652 40.0806C104.107 40.0806 107.471 35.3308 107.471 29.5104C107.471 23.69 104.107 18.9402 99.9652 18.9402Z" fill="#171717"/>
<path d="M101.21 69.1638C101.016 69.1638 100.86 69.0664 100.783 68.8912L92.2852 51.5273L93.1602 51.099L101.171 67.4702L108.055 50.1063L108.949 50.4567L101.658 68.8328C101.58 69.008 101.424 69.1248 101.23 69.1443L101.21 69.1638Z" fill="#171717"/>
<path d="M100.724 52.1109C100.004 52.1109 99.3433 52.0136 98.8183 51.8968C96.6405 51.4101 94.5016 50.1059 94.4238 49.2104L95.3766 49.0936C95.5516 49.5414 97.6711 50.9429 100.179 51.1181C101.949 51.2349 104.399 50.7872 106.052 47.8867L106.888 48.3734C105.157 51.3907 102.688 52.1109 100.704 52.1109H100.724Z" fill="#171717"/>
<path d="M104.593 78.8966H97.7683C97.4961 78.8966 97.2822 78.6825 97.2822 78.41V69.1829C97.2822 68.9104 97.4961 68.6963 97.7683 68.6963H104.593C104.866 68.6963 105.08 68.9104 105.08 69.1829V78.41C105.08 78.6825 104.866 78.8966 104.593 78.8966ZM98.2545 77.9233H104.107V69.6696H98.2545V77.9233Z" fill="#171717"/>
<path d="M72.315 149.209C72.1206 149.209 71.9261 149.092 71.8678 148.897L66.9288 136.147H4.62785C2.08059 136.147 0 134.064 0 131.514V97.8957C0 95.3456 2.08059 93.2627 4.62785 93.2627H82.8346C85.3819 93.2627 87.4625 95.3456 87.4625 97.8957V131.514C87.4625 134.064 85.3819 136.147 82.8346 136.147H77.7012L72.7622 148.897C72.6845 149.092 72.5095 149.209 72.315 149.209ZM4.62785 94.2165C2.6056 94.2165 0.972237 95.8712 0.972237 97.8762V131.495C0.972237 133.519 2.62504 135.154 4.62785 135.154H67.2399C67.4344 135.154 67.6288 135.271 67.6872 135.466L72.2956 147.36L76.904 135.466C76.9817 135.271 77.1567 135.154 77.3512 135.154H82.8152C84.8374 135.154 86.4708 133.519 86.4708 131.495V97.8762C86.4708 95.8517 84.818 94.2165 82.8152 94.2165H4.62785Z" fill="#171717"/>
<path d="M21.1365 124.642C20.592 124.642 20.0476 124.584 19.5226 124.487C14.253 123.397 12.0947 117.304 11.9975 117.051C11.9197 116.797 12.0363 116.525 12.2891 116.428C12.5419 116.33 12.8141 116.467 12.9114 116.72C12.9308 116.778 14.9919 122.54 19.717 123.533C23.4893 124.311 27.9616 121.917 33.0172 116.408C33.2117 116.252 33.3672 116.077 33.5617 115.902C35.3506 114.17 40.1146 109.556 49.1564 117.596C50.3619 118.666 51.762 119.445 53.2592 119.873C56.1954 120.71 60.4343 120.749 64.2844 116.467C64.2844 115.24 64.9844 114.111 65.8011 113.624C66.015 113.508 66.5788 113.177 66.9289 113.566C67.1427 113.8 67.415 114.131 65.7233 116.272C65.5872 116.447 65.4316 116.622 65.2955 116.797C65.5094 117.926 66.715 118.705 68.6789 118.997C73.8706 119.795 74.2595 120.048 75.1929 121.08C75.3679 121.275 75.3484 121.586 75.154 121.761C74.9595 121.937 74.6484 121.917 74.4734 121.722C73.7345 120.905 73.5595 120.71 68.5233 119.951C65.9372 119.562 64.926 118.472 64.5372 117.596C60.4926 121.742 56.0787 121.664 52.987 120.788C51.3731 120.321 49.8175 119.464 48.5147 118.296C40.1534 110.841 35.9923 114.851 34.2228 116.564C34.0089 116.778 33.8145 116.953 33.6589 117.089C29.0894 122.092 24.8699 124.623 21.117 124.623L21.1365 124.642Z" fill="#171717"/>
<path d="M236.312 123.766H194.642C189.45 123.766 185.25 119.542 185.25 114.364V55.2645C185.25 50.067 189.47 45.8623 194.642 45.8623H236.312C241.504 45.8623 245.704 50.0865 245.704 55.2645V114.364C245.704 119.562 241.484 123.766 236.312 123.766ZM194.642 46.8356C189.995 46.8356 186.222 50.6121 186.222 55.2645V114.364C186.222 119.017 189.995 122.793 194.642 122.793H236.312C240.959 122.793 244.731 119.017 244.731 114.364V55.2645C244.731 50.6121 240.959 46.8356 236.312 46.8356H194.642Z" fill="#171717"/>
<path d="M199.62 71.0712C195.751 71.0712 192.601 67.9177 192.601 64.0244C192.601 60.1311 195.751 56.9971 199.62 56.9971C203.49 56.9971 206.659 60.1506 206.659 64.0244C206.659 67.8982 203.509 71.0712 199.62 71.0712ZM199.62 57.9704C196.276 57.9704 193.573 60.6957 193.573 64.0244C193.573 67.3531 196.295 70.0979 199.62 70.0979C202.945 70.0979 205.687 67.3726 205.687 64.0244C205.687 60.6762 202.965 57.9704 199.62 57.9704Z" fill="#171717"/>
<path d="M199.62 90.9853C195.751 90.9853 192.601 87.8317 192.601 83.9385C192.601 80.0452 195.751 76.9111 199.62 76.9111C203.49 76.9111 206.659 80.0647 206.659 83.9385C206.659 87.8123 203.509 90.9853 199.62 90.9853ZM199.62 77.8844C196.276 77.8844 193.573 80.6097 193.573 83.9385C193.573 87.2672 196.295 90.012 199.62 90.012C202.945 90.012 205.687 87.2867 205.687 83.9385C205.687 80.5903 202.965 77.8844 199.62 77.8844Z" fill="#171717"/>
<path d="M199.62 110.899C195.751 110.899 192.601 107.746 192.601 103.872C192.601 99.9983 195.751 96.8447 199.62 96.8447C203.49 96.8447 206.659 99.9983 206.659 103.872C206.659 107.746 203.509 110.899 199.62 110.899ZM199.62 97.7986C196.276 97.7986 193.573 100.524 193.573 103.853C193.573 107.181 196.295 109.907 199.62 109.907C202.945 109.907 205.687 107.181 205.687 103.853C205.687 100.524 202.965 97.7986 199.62 97.7986Z" fill="#171717"/>
<path d="M198.939 66.5158C198.823 66.5158 198.706 66.4768 198.609 66.3795L196.334 64.2577C196.139 64.0825 196.12 63.771 196.314 63.5764C196.489 63.3817 196.8 63.3622 196.995 63.5569L198.92 65.3283L202.167 61.6297C202.342 61.4351 202.653 61.4156 202.848 61.5908C203.042 61.766 203.062 62.0775 202.887 62.2721L199.309 66.3406C199.231 66.4379 199.095 66.4963 198.978 66.4963C198.978 66.4963 198.978 66.4963 198.959 66.4963L198.939 66.5158Z" fill="#171717"/>
<path d="M198.939 86.4301C198.823 86.4301 198.706 86.3912 198.609 86.2938L196.334 84.172C196.139 83.9968 196.12 83.6853 196.314 83.4907C196.489 83.296 196.8 83.2765 196.995 83.4712L198.9 85.2426L202.148 81.544C202.323 81.3494 202.634 81.3299 202.828 81.5051C203.023 81.6803 203.042 81.9918 202.867 82.1864L199.289 86.2549C199.211 86.3522 199.075 86.4106 198.959 86.4106C198.959 86.4106 198.959 86.4106 198.939 86.4106V86.4301Z" fill="#171717"/>
<path d="M198.939 106.344C198.823 106.344 198.706 106.305 198.609 106.208L196.334 104.086C196.139 103.911 196.12 103.599 196.314 103.405C196.489 103.21 196.8 103.191 196.995 103.385L198.9 105.157L202.148 101.458C202.323 101.263 202.634 101.244 202.828 101.419C203.023 101.594 203.042 101.906 202.867 102.1L199.289 106.169C199.211 106.266 199.075 106.325 198.959 106.325C198.959 106.325 198.959 106.325 198.939 106.325V106.344Z" fill="#171717"/>
<path d="M210.529 68.2679C210.529 68.2679 210.392 68.2679 210.334 68.229C210.081 68.1122 209.984 67.8396 210.101 67.5866C210.12 67.5282 212.667 62.1165 219.551 62.8757C223.051 63.2651 225.151 64.3746 226.823 65.2701C228.379 66.0877 229.604 66.7495 231.373 66.5743C234.854 66.2434 235.068 63.8101 235.068 63.7128C235.068 63.4403 235.321 63.2456 235.573 63.2651C235.846 63.2651 236.04 63.5181 236.021 63.7712C236.021 63.8101 235.787 67.1389 231.432 67.5476C229.351 67.7423 227.951 67.0026 226.337 66.1461C224.645 65.2506 222.72 64.2384 219.415 63.8685C213.212 63.1872 211.054 67.8007 210.956 68.0148C210.879 68.19 210.704 68.3068 210.509 68.3068L210.529 68.2679Z" fill="#171717"/>
<path d="M211.17 87.4224C210.956 87.4224 210.762 87.2862 210.703 87.0915C210.626 86.8385 210.762 86.5659 211.015 86.4881C215.254 85.1449 219.881 83.4513 222.234 82.2833C221.904 81.6799 221.865 81.1543 222.137 80.765C222.331 80.4535 222.779 80.1615 223.829 80.3951C224.587 80.5898 224.762 80.9596 224.781 81.2516C224.781 81.6215 224.373 82.0692 223.634 82.5559C223.634 82.5559 223.673 82.5948 223.693 82.6143C224.995 84.0548 228.262 86.1571 232.326 85.0086C234.737 84.3273 235.923 83.9185 236.526 83.6849C236.526 83.4124 236.701 83.1788 236.973 83.1593C237.557 83.1204 237.868 83.2761 237.926 83.6265C238.023 84.1326 238.062 84.3857 232.598 85.943C228.184 87.2083 224.373 84.9502 222.798 83.062C220.193 84.4636 215.506 86.0987 211.326 87.403C211.267 87.403 211.228 87.4224 211.17 87.4224ZM223.148 81.2711C222.993 81.2711 222.954 81.31 222.934 81.31C222.934 81.349 222.934 81.5436 223.09 81.8162C223.381 81.641 223.576 81.5047 223.693 81.3684C223.654 81.3684 223.615 81.3684 223.576 81.3295C223.362 81.2711 223.226 81.2711 223.109 81.2711H223.148Z" fill="#171717"/>
<path d="M216.964 107.765C215.058 107.765 213.269 107.395 211.83 106.461C211.597 106.305 211.539 106.013 211.694 105.779C211.85 105.546 212.141 105.487 212.375 105.643C215.544 107.726 221.203 106.636 225.461 104.923C226.394 104.553 227.192 104.164 227.853 103.813C227.561 103.093 227.581 102.392 227.931 101.867C228.222 101.438 228.845 100.952 230.225 101.068C230.847 101.127 231.217 101.36 231.314 101.769C231.45 102.295 231.061 102.879 230.07 103.599C229.836 103.774 229.545 103.969 229.214 104.164C229.778 104.825 230.77 105.448 232.131 105.448C236.195 105.448 237.109 104.222 237.109 104.222C237.264 104.008 237.556 103.949 237.77 104.086C237.984 104.222 238.061 104.514 237.925 104.748C237.828 104.923 236.759 106.422 232.131 106.422C230.342 106.422 229.058 105.565 228.358 104.65C225.597 106.11 221.008 107.765 216.983 107.765H216.964ZM229.778 102.042C229.272 102.042 228.903 102.178 228.728 102.431C228.572 102.645 228.572 102.976 228.708 103.346C229.603 102.801 230.128 102.353 230.303 102.1C230.264 102.1 230.206 102.081 230.108 102.061C229.992 102.061 229.875 102.061 229.778 102.061V102.042Z" fill="#171717"/>
<path d="M68.1145 240C66.6756 240 65.3145 239.435 64.2839 238.423C63.2534 237.391 62.6895 236.029 62.6895 234.588V222.772C62.6895 222.5 62.9033 222.286 63.1756 222.286H299.351C301.821 222.286 304.251 221.429 306.157 219.852L359.008 176.559C359.163 176.442 359.358 176.423 359.513 176.501C359.688 176.579 359.786 176.754 359.805 176.929L360 186.37C360.058 189.251 358.93 192.093 356.908 194.137L316.813 234.744C314.071 237.625 310.221 239.28 306.235 239.299L68.1145 240ZM63.6617 223.239V234.569C63.6617 235.756 64.1284 236.885 64.9645 237.722C65.8006 238.559 66.9284 239.027 68.1145 239.027L306.215 238.326C309.929 238.326 313.527 236.768 316.093 234.063L356.188 193.456C358.036 191.587 359.066 189.018 359.008 186.39L358.833 177.941L306.74 220.592C304.66 222.305 302.015 223.239 299.313 223.239H63.6617Z" fill="#171717"/>
<path d="M303.513 226.081H67.3953C63.5647 226.081 61.7175 221.409 64.4981 218.781L109.415 176.481C112.721 173.366 117.116 171.614 121.666 171.614H354.769C358.736 171.614 360.719 176.403 357.9 179.206L316.405 220.708C312.982 224.134 308.335 226.061 303.474 226.061L303.513 226.081Z" fill="#171717"/>
<path d="M303.513 226.568H67.3955C65.4316 226.568 63.7399 225.419 63.0204 223.59C62.301 221.76 62.7288 219.774 64.1677 218.412L109.085 176.111C112.507 172.899 116.96 171.128 121.666 171.128H354.769C356.792 171.128 358.542 172.296 359.319 174.184C360.097 176.053 359.689 178.116 358.25 179.557L316.755 221.059C313.216 224.602 308.491 226.548 303.494 226.548L303.513 226.568ZM121.685 172.121C117.252 172.121 113.013 173.795 109.785 176.851L64.8677 219.151C63.5066 220.436 63.5066 222.11 63.9538 223.259C64.401 224.407 65.5483 225.614 67.4344 225.614H303.552C308.296 225.614 312.769 223.765 316.133 220.397L357.628 178.895C358.775 177.746 359.106 176.092 358.483 174.573C357.861 173.055 356.461 172.121 354.828 172.121H121.685Z" fill="#171717"/>
<path d="M118.185 118.861C118.185 118.861 118.049 118.861 117.99 118.822L106.226 113.742C106.051 113.664 105.935 113.469 105.935 113.274C105.935 113.08 106.071 112.904 106.265 112.827L118.651 108.466C118.904 108.369 119.176 108.505 119.274 108.758C119.371 109.011 119.235 109.284 118.982 109.381L107.782 113.333L118.418 117.927C118.671 118.024 118.788 118.316 118.671 118.569C118.593 118.744 118.418 118.861 118.224 118.861H118.185Z" fill="#171717"/>
<path d="M151.902 69.3387C151.902 69.3387 151.765 69.3387 151.707 69.2997L139.943 64.219C139.768 64.1412 139.651 63.9465 139.651 63.7518C139.651 63.5572 139.787 63.382 139.982 63.3041L152.368 58.9437C152.621 58.8463 152.893 58.9826 152.99 59.2357C153.088 59.4887 152.952 59.7613 152.699 59.8586L141.499 63.8102L152.135 68.4043C152.388 68.5016 152.504 68.7936 152.388 69.0467C152.31 69.2219 152.135 69.3387 151.94 69.3387H151.902Z" fill="#171717"/>
<path d="M214.377 145.822C214.183 145.822 213.988 145.705 213.911 145.491L209.963 134.278L205.374 144.926C205.258 145.179 204.986 145.277 204.733 145.179C204.48 145.082 204.363 144.79 204.48 144.537L209.555 132.76C209.633 132.585 209.808 132.468 210.022 132.468C210.216 132.468 210.391 132.604 210.469 132.799L214.825 145.199C214.922 145.452 214.786 145.724 214.533 145.822C214.475 145.822 214.416 145.841 214.377 145.841V145.822Z" fill="#171717"/>
<path d="M293.304 112.768C293.11 112.768 292.915 112.651 292.837 112.437L288.89 101.224L284.301 111.872C284.185 112.126 283.912 112.242 283.66 112.126C283.407 112.028 283.29 111.736 283.407 111.483L288.482 99.7061C288.56 99.5309 288.773 99.4335 288.948 99.4141C289.143 99.4141 289.318 99.5503 289.396 99.745L293.751 112.145C293.849 112.398 293.712 112.671 293.46 112.768C293.401 112.768 293.343 112.787 293.304 112.787V112.768Z" fill="#171717"/>
<path d="M288.949 205.934C284.652 205.934 281.404 204.435 281.404 202.449C281.404 200.464 284.652 198.965 288.949 198.965C293.246 198.965 296.493 200.464 296.493 202.449C296.493 204.435 293.246 205.934 288.949 205.934ZM288.949 199.958C285.079 199.958 282.377 201.282 282.377 202.469C282.377 203.656 285.079 204.98 288.949 204.98C292.818 204.98 295.521 203.656 295.521 202.469C295.521 201.282 292.818 199.958 288.949 199.958Z" fill="#E6F1FF"/>
<path d="M209.945 190.575C205.648 190.575 202.4 189.076 202.4 187.091C202.4 185.105 205.648 183.606 209.945 183.606C214.242 183.606 217.49 185.105 217.49 187.091C217.49 189.076 214.242 190.575 209.945 190.575ZM209.945 184.599C206.075 184.599 203.373 185.923 203.373 187.11C203.373 188.298 206.075 189.622 209.945 189.622C213.814 189.622 216.517 188.298 216.517 187.11C216.517 185.923 213.814 184.599 209.945 184.599Z" fill="#E6F1FF"/>
<path d="M158.357 202.916C154.06 202.916 150.812 201.417 150.812 199.432C150.812 197.446 154.06 195.947 158.357 195.947C162.654 195.947 165.902 197.446 165.902 199.432C165.902 201.417 162.654 202.916 158.357 202.916ZM158.357 196.94C154.488 196.94 151.785 198.264 151.785 199.451C151.785 200.639 154.488 201.962 158.357 201.962C162.227 201.962 164.929 200.639 164.929 199.451C164.929 198.264 162.227 196.94 158.357 196.94Z" fill="#E6F1FF"/>
<path d="M124.64 191.081C120.343 191.081 117.096 189.582 117.096 187.597C117.096 185.611 120.343 184.112 124.64 184.112C128.938 184.112 132.185 185.611 132.185 187.597C132.185 189.582 128.938 191.081 124.64 191.081ZM124.64 185.105C120.771 185.105 118.068 186.429 118.068 187.616C118.068 188.804 120.771 190.127 124.64 190.127C128.51 190.127 131.213 188.804 131.213 187.616C131.213 186.429 128.51 185.105 124.64 185.105Z" fill="#E6F1FF"/>
<path d="M288.948 172.666C288.676 172.666 288.462 172.452 288.462 172.179V99.9007C288.462 99.6282 288.676 99.4141 288.948 99.4141C289.22 99.4141 289.434 99.6282 289.434 99.9007V172.179C289.434 172.452 289.22 172.666 288.948 172.666Z" fill="#171717"/>
<path d="M210.004 171.42C209.731 171.42 209.518 171.206 209.518 170.933V132.935C209.518 132.662 209.731 132.448 210.004 132.448C210.276 132.448 210.49 132.662 210.49 132.935V170.933C210.49 171.206 210.276 171.42 210.004 171.42Z" fill="#171717"/>
<path d="M158.358 171.732C158.086 171.732 157.872 171.517 157.872 171.245V67.801C157.872 65.9322 156.355 64.4333 154.508 64.4333H141.596C141.324 64.4333 141.11 64.2191 141.11 63.9466C141.11 63.6741 141.324 63.46 141.596 63.46H154.508C156.899 63.46 158.844 65.4066 158.844 67.801V171.245C158.844 171.517 158.63 171.732 158.358 171.732Z" fill="#171717"/>
<path d="M124.641 172.355C124.369 172.355 124.155 172.141 124.155 171.868V117.343C124.155 115.474 122.638 113.956 120.771 113.956H107.86C107.588 113.956 107.374 113.742 107.374 113.469C107.374 113.197 107.588 112.982 107.86 112.982H120.771C123.163 112.982 125.127 114.929 125.127 117.343V171.868C125.127 172.141 124.913 172.355 124.641 172.355Z" fill="#171717"/>
<path d="M158.417 199.354C158.145 199.354 157.931 199.14 157.931 198.868V171.401C157.931 171.128 158.145 170.914 158.417 170.914C158.689 170.914 158.903 171.128 158.903 171.401V198.868C158.903 199.14 158.689 199.354 158.417 199.354Z" fill="#E6F1FF"/>
<path d="M288.968 202.936C288.695 202.936 288.481 202.722 288.481 202.449V171.401C288.481 171.128 288.695 170.914 288.968 170.914C289.24 170.914 289.454 171.128 289.454 171.401V202.449C289.454 202.722 289.24 202.936 288.968 202.936Z" fill="#E6F1FF"/>
<path d="M124.64 188.083C124.368 188.083 124.154 187.869 124.154 187.597V171.401C124.154 171.128 124.368 170.914 124.64 170.914C124.913 170.914 125.127 171.128 125.127 171.401V187.597C125.127 187.869 124.913 188.083 124.64 188.083Z" fill="#E6F1FF"/>
<path d="M210.099 186.857C209.827 186.857 209.613 186.643 209.613 186.37V171.401C209.613 171.128 209.827 170.914 210.099 170.914C210.372 170.914 210.586 171.128 210.586 171.401V186.37C210.586 186.643 210.372 186.857 210.099 186.857Z" fill="#E6F1FF"/>
</svg>
