<svg width="33" height="32" viewBox="0 0 33 32" fill="none" xmlns="http://www.w3.org/2000/svg">
<path d="M14.0007 22.3333C13.6451 22.3333 13.3062 22.2667 12.984 22.1333C12.6618 22 12.3673 21.8111 12.1007 21.5667L5.76732 15.2333C5.52287 14.9666 5.33398 14.6722 5.20065 14.35C5.06732 14.0278 5.00065 13.6889 5.00065 13.3333C5.00065 12.9778 5.06732 12.6333 5.20065 12.3C5.33398 11.9666 5.52287 11.6778 5.76732 11.4333L12.1007 5.06665L9.83398 2.79998C9.58954 2.55554 9.46732 2.24998 9.46732 1.88332C9.46732 1.51665 9.60065 1.19998 9.86732 0.933316C10.134 0.688872 10.4451 0.561094 10.8007 0.549983C11.1562 0.538872 11.4673 0.66665 11.734 0.933316L22.234 11.4333C22.5007 11.6778 22.6951 11.9666 22.8173 12.3C22.9395 12.6333 23.0006 12.9778 23.0006 13.3333C23.0006 13.6889 22.9395 14.0278 22.8173 14.35C22.6951 14.6722 22.5007 14.9666 22.234 15.2333L15.9007 21.5667C15.6562 21.8111 15.3673 22 15.034 22.1333C14.7007 22.2667 14.3562 22.3333 14.0007 22.3333ZM14.0007 6.96665L7.63398 13.3333H20.3673L14.0007 6.96665ZM26.0006 22.6667C25.2673 22.6667 24.6395 22.4055 24.1173 21.8833C23.5951 21.3611 23.334 20.7333 23.334 20C23.334 19.5333 23.4729 19.0333 23.7506 18.5C24.0284 17.9667 24.334 17.4667 24.6673 17C24.8673 16.7333 25.0784 16.4555 25.3007 16.1667C25.5229 15.8778 25.7562 15.6 26.0006 15.3333C26.2451 15.6 26.4784 15.8778 26.7006 16.1667C26.9229 16.4555 27.134 16.7333 27.334 17C27.6673 17.4667 27.9729 17.9667 28.2506 18.5C28.5284 19.0333 28.6673 19.5333 28.6673 20C28.6673 20.7333 28.4062 21.3611 27.884 21.8833C27.3618 22.4055 26.734 22.6667 26.0006 22.6667ZM6.00065 32C5.26732 32 4.63954 31.7389 4.11732 31.2167C3.5951 30.6944 3.33398 30.0667 3.33398 29.3333C3.33398 28.6 3.5951 27.9722 4.11732 27.45C4.63954 26.9278 5.26732 26.6667 6.00065 26.6667H27.334C28.0673 26.6667 28.6951 26.9278 29.2173 27.45C29.7395 27.9722 30.0006 28.6 30.0006 29.3333C30.0006 30.0667 29.7395 30.6944 29.2173 31.2167C28.6951 31.7389 28.0673 32 27.334 32H6.00065Z" fill="#0037AF"/>
</svg>
