<svg width="32" height="32" viewBox="0 0 32 32" fill="none" xmlns="http://www.w3.org/2000/svg">
<path d="M5.33366 26.6667C4.60033 26.6667 3.97255 26.4056 3.45033 25.8833C2.9281 25.3611 2.66699 24.7333 2.66699 24V8.00001C2.66699 7.26668 2.9281 6.6389 3.45033 6.11668C3.97255 5.59445 4.60033 5.33334 5.33366 5.33334H26.667C27.4003 5.33334 28.0281 5.59445 28.5503 6.11668C29.0725 6.6389 29.3337 7.26668 29.3337 8.00001V24C29.3337 24.7333 29.0725 25.3611 28.5503 25.8833C28.0281 26.4056 27.4003 26.6667 26.667 26.6667H5.33366ZM5.33366 24H26.667V10.6667H5.33366V24ZM11.567 17.3333L9.03366 14.8C8.76699 14.5333 8.63921 14.2222 8.65033 13.8667C8.66144 13.5111 8.80033 13.2 9.06699 12.9333C9.33366 12.6889 9.64477 12.5611 10.0003 12.55C10.3559 12.5389 10.667 12.6667 10.9337 12.9333L14.4003 16.4C14.667 16.6667 14.8003 16.9778 14.8003 17.3333C14.8003 17.6889 14.667 18 14.4003 18.2667L10.9337 21.7333C10.6892 21.9778 10.3837 22.1056 10.017 22.1167C9.65033 22.1278 9.33366 22 9.06699 21.7333C8.82255 21.4889 8.70033 21.1778 8.70033 20.8C8.70033 20.4222 8.82255 20.1111 9.06699 19.8667L11.567 17.3333ZM17.3337 22.6667C16.9559 22.6667 16.6392 22.5389 16.3837 22.2833C16.1281 22.0278 16.0003 21.7111 16.0003 21.3333C16.0003 20.9556 16.1281 20.6389 16.3837 20.3833C16.6392 20.1278 16.9559 20 17.3337 20H22.667C23.0448 20 23.3614 20.1278 23.617 20.3833C23.8725 20.6389 24.0003 20.9556 24.0003 21.3333C24.0003 21.7111 23.8725 22.0278 23.617 22.2833C23.3614 22.5389 23.0448 22.6667 22.667 22.6667H17.3337Z" fill="#0037AF"/>
</svg>
