<svg width="32" height="32" viewBox="0 0 32 32" fill="none" xmlns="http://www.w3.org/2000/svg">
<path d="M7.00002 25.6667C6.35835 25.6667 5.80905 25.4382 5.3521 24.9813C4.89516 24.5243 4.66669 23.975 4.66669 23.3334V4.66671C4.66669 4.02504 4.89516 3.47574 5.3521 3.01879C5.80905 2.56185 6.35835 2.33337 7.00002 2.33337H21C21.6417 2.33337 22.191 2.56185 22.6479 3.01879C23.1049 3.47574 23.3334 4.02504 23.3334 4.66671V23.3334C23.3334 23.975 23.1049 24.5243 22.6479 24.9813C22.191 25.4382 21.6417 25.6667 21 25.6667H7.00002ZM7.00002 23.3334H21V4.66671H18.6667V11.8125C18.6667 12.0459 18.5695 12.216 18.375 12.323C18.1806 12.4299 17.9861 12.425 17.7917 12.3084L16.3625 11.4334C16.1681 11.3167 15.9688 11.2584 15.7646 11.2584C15.5604 11.2584 15.3611 11.3167 15.1667 11.4334L13.7375 12.3084C13.5431 12.425 13.3438 12.4299 13.1396 12.323C12.9354 12.216 12.8334 12.0459 12.8334 11.8125V4.66671H7.00002V23.3334Z" fill="#0037AF"/>
</svg>
