<svg width="33" height="32" viewBox="0 0 33 32" fill="none" xmlns="http://www.w3.org/2000/svg">
<path d="M6.99935 25.3333C6.62157 25.3333 6.30468 25.2053 6.04868 24.9493C5.79357 24.6942 5.66602 24.3778 5.66602 24C5.66602 23.6222 5.79357 23.3058 6.04868 23.0507C6.30468 22.7947 6.62157 22.6667 6.99935 22.6667H8.33268V13.3333C8.33268 11.4889 8.88824 9.84977 9.99935 8.41599C11.1105 6.9831 12.5549 6.04443 14.3327 5.59999V4.66666C14.3327 4.1111 14.5273 3.6391 14.9167 3.25066C15.3051 2.86132 15.7771 2.66666 16.3327 2.66666C16.8882 2.66666 17.3602 2.86132 17.7487 3.25066C18.138 3.6391 18.3327 4.1111 18.3327 4.66666V5.59999C20.1105 6.04443 21.5549 6.9831 22.666 8.41599C23.7771 9.84977 24.3327 11.4889 24.3327 13.3333V22.6667H25.666C26.0438 22.6667 26.3602 22.7947 26.6153 23.0507C26.8713 23.3058 26.9993 23.6222 26.9993 24C26.9993 24.3778 26.8713 24.6942 26.6153 24.9493C26.3602 25.2053 26.0438 25.3333 25.666 25.3333H6.99935ZM16.3327 29.3333C15.5993 29.3333 14.9718 29.0724 14.45 28.5507C13.9273 28.028 13.666 27.4 13.666 26.6667H18.9993C18.9993 27.4 18.7385 28.028 18.2167 28.5507C17.694 29.0724 17.066 29.3333 16.3327 29.3333ZM10.9993 22.6667H21.666V13.3333C21.666 11.8667 21.1438 10.6111 20.0993 9.56666C19.0549 8.52221 17.7993 7.99999 16.3327 7.99999C14.866 7.99999 13.6105 8.52221 12.566 9.56666C11.5216 10.6111 10.9993 11.8667 10.9993 13.3333V22.6667Z" fill="#0037AF"/>
</svg>
